<?xml version="1.0" encoding="utf-8" standalone="no"?>
<!DOCTYPE svg PUBLIC "-//W3C//DTD SVG 1.1//EN"
  "http://www.w3.org/Graphics/SVG/1.1/DTD/svg11.dtd">
<svg xmlns:xlink="http://www.w3.org/1999/xlink" width="475.2pt" height="316.8pt" viewBox="0 0 475.2 316.8" xmlns="http://www.w3.org/2000/svg" version="1.1">
 <metadata>
  <rdf:RDF xmlns:dc="http://purl.org/dc/elements/1.1/" xmlns:cc="http://creativecommons.org/ns#" xmlns:rdf="http://www.w3.org/1999/02/22-rdf-syntax-ns#">
   <cc:Work>
    <dc:type rdf:resource="http://purl.org/dc/dcmitype/StillImage"/>
    <dc:date>2024-07-22T16:15:02.479977</dc:date>
    <dc:format>image/svg+xml</dc:format>
    <dc:creator>
     <cc:Agent>
      <dc:title>Matplotlib v3.9.0, https://matplotlib.org/</dc:title>
     </cc:Agent>
    </dc:creator>
   </cc:Work>
  </rdf:RDF>
 </metadata>
 <defs>
  <style type="text/css">*{stroke-linejoin: round; stroke-linecap: butt}</style>
 </defs>
 <g id="figure_1">
  <g id="patch_1">
   <path d="M 0 316.8 
L 475.2 316.8 
L 475.2 0 
L 0 0 
z
" style="fill: #ffffff"/>
  </g>
  <g id="axes_1">
   <g id="patch_2">
    <path d="M 42.01 232.382192 
L 462.24 232.382192 
L 462.24 24.6 
L 42.01 24.6 
z
" style="fill: #ffffff"/>
   </g>
   <g id="patch_3">
    <path d="M 61.111364 232.382192 
L 70.207251 232.382192 
L 70.207251 34.49439 
L 61.111364 34.49439 
z
" clip-path="url(#pb89a2c9d79)" style="fill: #e78ac3; stroke: #e78ac3; stroke-linejoin: miter"/>
   </g>
   <g id="patch_4">
    <path d="M 70.207251 232.382192 
L 79.303139 232.382192 
L 79.303139 187.148451 
L 70.207251 187.148451 
z
" clip-path="url(#pb89a2c9d79)" style="fill: url(#h379ca9854a); stroke: #e78ac3; stroke-width: 0.5; stroke-linejoin: miter"/>
   </g>
   <g id="patch_5">
    <path d="M 70.207251 187.148451 
L 79.303139 187.148451 
L 79.303139 34.49439 
L 70.207251 34.49439 
L 70.207251 187.148451 
z
" clip-path="url(#pb89a2c9d79)" style="fill: none; stroke: #e78ac3; stroke-width: 0.5; stroke-linejoin: miter"/>
   </g>
   <g id="patch_6">
    <path d="M 91.430988 232.382192 
L 100.526876 232.382192 
L 100.526876 118.588304 
L 91.430988 118.588304 
z
" clip-path="url(#pb89a2c9d79)" style="fill: #de8f05; stroke: #de8f05; stroke-linejoin: miter"/>
   </g>
   <g id="patch_7">
    <path d="M 100.526876 232.382192 
L 109.622763 232.382192 
L 109.622763 228.482002 
L 100.526876 228.482002 
z
" clip-path="url(#pb89a2c9d79)" style="fill: url(#h26cd8fc7eb); stroke: #de8f05; stroke-width: 0.5; stroke-linejoin: miter"/>
   </g>
   <g id="patch_8">
    <path d="M 100.526876 228.482002 
L 109.622763 228.482002 
L 109.622763 118.588304 
L 100.526876 118.588304 
L 100.526876 228.482002 
z
" clip-path="url(#pb89a2c9d79)" style="fill: none; stroke: #de8f05; stroke-width: 0.5; stroke-linejoin: miter"/>
   </g>
   <g id="patch_9">
    <path d="M 121.750613 232.382192 
L 130.846501 232.382192 
L 130.846501 160.394216 
L 121.750613 160.394216 
z
" clip-path="url(#pb89a2c9d79)" style="fill: #e5c494; stroke: #e5c494; stroke-linejoin: miter"/>
   </g>
   <g id="patch_10">
    <path d="M 130.846501 232.382192 
L 139.942388 232.382192 
L 139.942388 222.621406 
L 130.846501 222.621406 
z
" clip-path="url(#pb89a2c9d79)" style="fill: url(#he86806b226); stroke: #e5c494; stroke-width: 0.5; stroke-linejoin: miter"/>
   </g>
   <g id="patch_11">
    <path d="M 130.846501 222.621406 
L 139.942388 222.621406 
L 139.942388 160.394216 
L 130.846501 160.394216 
L 130.846501 222.621406 
z
" clip-path="url(#pb89a2c9d79)" style="fill: none; stroke: #e5c494; stroke-width: 0.5; stroke-linejoin: miter"/>
   </g>
   <g id="patch_12">
    <path d="M 152.070238 232.382192 
L 161.166126 232.382192 
L 161.166126 176.395172 
L 152.070238 176.395172 
z
" clip-path="url(#pb89a2c9d79)" style="fill: #66c2a5; stroke: #66c2a5; stroke-linejoin: miter"/>
   </g>
   <g id="patch_13">
    <path d="M 161.166126 232.382192 
L 170.262013 232.382192 
L 170.262013 215.407543 
L 161.166126 215.407543 
z
" clip-path="url(#pb89a2c9d79)" style="fill: url(#hcda3ac28b6); stroke: #66c2a5; stroke-width: 0.5; stroke-linejoin: miter"/>
   </g>
   <g id="patch_14">
    <path d="M 161.166126 215.407543 
L 170.262013 215.407543 
L 170.262013 176.395172 
L 161.166126 176.395172 
L 161.166126 215.407543 
z
" clip-path="url(#pb89a2c9d79)" style="fill: none; stroke: #66c2a5; stroke-width: 0.5; stroke-linejoin: miter"/>
   </g>
   <g id="patch_15">
    <path d="M 182.389863 232.382192 
L 191.48575 232.382192 
L 191.48575 192.766763 
L 182.389863 192.766763 
z
" clip-path="url(#pb89a2c9d79)" style="fill: #a6d854; stroke: #a6d854; stroke-linejoin: miter"/>
   </g>
   <g id="patch_16">
    <path d="M 191.48575 232.382192 
L 200.581638 232.382192 
L 200.581638 227.000912 
L 191.48575 227.000912 
z
" clip-path="url(#pb89a2c9d79)" style="fill: url(#h89e6e38ce6); stroke: #a6d854; stroke-width: 0.5; stroke-linejoin: miter"/>
   </g>
   <g id="patch_17">
    <path d="M 191.48575 227.000912 
L 200.581638 227.000912 
L 200.581638 192.766763 
L 191.48575 192.766763 
L 191.48575 227.000912 
z
" clip-path="url(#pb89a2c9d79)" style="fill: none; stroke: #a6d854; stroke-width: 0.5; stroke-linejoin: miter"/>
   </g>
   <g id="patch_18">
    <path d="M 212.709488 232.382192 
L 221.805375 232.382192 
L 221.805375 192.994921 
L 212.709488 192.994921 
z
" clip-path="url(#pb89a2c9d79)" style="fill: #b3b3b3; stroke: #b3b3b3; stroke-linejoin: miter"/>
   </g>
   <g id="patch_19">
    <path d="M 221.805375 232.382192 
L 230.901263 232.382192 
L 230.901263 222.63634 
L 221.805375 222.63634 
z
" clip-path="url(#pb89a2c9d79)" style="fill: url(#h7e00e516f0); stroke: #b3b3b3; stroke-width: 0.5; stroke-linejoin: miter"/>
   </g>
   <g id="patch_20">
    <path d="M 221.805375 222.63634 
L 230.901263 222.63634 
L 230.901263 192.994921 
L 221.805375 192.994921 
L 221.805375 222.63634 
z
" clip-path="url(#pb89a2c9d79)" style="fill: none; stroke: #b3b3b3; stroke-width: 0.5; stroke-linejoin: miter"/>
   </g>
   <g id="patch_21">
    <path d="M 243.029113 232.382192 
L 252.125 232.382192 
L 252.125 194.936056 
L 243.029113 194.936056 
z
" clip-path="url(#pb89a2c9d79)" style="fill: #8dd3c7; stroke: #8dd3c7; stroke-linejoin: miter"/>
   </g>
   <g id="patch_22">
    <path d="M 252.125 232.382192 
L 261.220887 232.382192 
L 261.220887 225.145699 
L 252.125 225.145699 
z
" clip-path="url(#pb89a2c9d79)" style="fill: url(#hfb3116ae79); stroke: #8dd3c7; stroke-width: 0.5; stroke-linejoin: miter"/>
   </g>
   <g id="patch_23">
    <path d="M 252.125 225.145699 
L 261.220887 225.145699 
L 261.220887 194.936056 
L 252.125 194.936056 
L 252.125 225.145699 
z
" clip-path="url(#pb89a2c9d79)" style="fill: none; stroke: #8dd3c7; stroke-width: 0.5; stroke-linejoin: miter"/>
   </g>
   <g id="patch_24">
    <path d="M 273.348737 232.382192 
L 282.444625 232.382192 
L 282.444625 211.487427 
L 273.348737 211.487427 
z
" clip-path="url(#pb89a2c9d79)" style="fill: #fc8d62; stroke: #fc8d62; stroke-linejoin: miter"/>
   </g>
   <g id="patch_25">
    <path d="M 282.444625 232.382192 
L 291.540512 232.382192 
L 291.540512 225.367755 
L 282.444625 225.367755 
z
" clip-path="url(#pb89a2c9d79)" style="fill: url(#h6cbeb933c6); stroke: #fc8d62; stroke-width: 0.5; stroke-linejoin: miter"/>
   </g>
   <g id="patch_26">
    <path d="M 282.444625 225.367755 
L 291.540512 225.367755 
L 291.540512 211.487427 
L 282.444625 211.487427 
L 282.444625 225.367755 
z
" clip-path="url(#pb89a2c9d79)" style="fill: none; stroke: #fc8d62; stroke-width: 0.5; stroke-linejoin: miter"/>
   </g>
   <g id="patch_27">
    <path d="M 303.668362 232.382192 
L 312.76425 232.382192 
L 312.76425 224.092885 
L 303.668362 224.092885 
z
" clip-path="url(#pb89a2c9d79)" style="fill: #fb8072; stroke: #fb8072; stroke-linejoin: miter"/>
   </g>
   <g id="patch_28">
    <path d="M 312.76425 232.382192 
L 321.860137 232.382192 
L 321.860137 229.104742 
L 312.76425 229.104742 
z
" clip-path="url(#pb89a2c9d79)" style="fill: url(#he4c1dd6bb4); stroke: #fb8072; stroke-width: 0.5; stroke-linejoin: miter"/>
   </g>
   <g id="patch_29">
    <path d="M 312.76425 229.104742 
L 321.860137 229.104742 
L 321.860137 224.092885 
L 312.76425 224.092885 
L 312.76425 229.104742 
z
" clip-path="url(#pb89a2c9d79)" style="fill: none; stroke: #fb8072; stroke-width: 0.5; stroke-linejoin: miter"/>
   </g>
   <g id="patch_30">
    <path d="M 333.987987 232.382192 
L 343.083874 232.382192 
L 343.083874 224.55548 
L 333.987987 224.55548 
z
" clip-path="url(#pb89a2c9d79)" style="fill: #bebada; stroke: #bebada; stroke-linejoin: miter"/>
   </g>
   <g id="patch_31">
    <path d="M 343.083874 232.382192 
L 352.179762 232.382192 
L 352.179762 229.37697 
L 343.083874 229.37697 
z
" clip-path="url(#pb89a2c9d79)" style="fill: url(#hd38c4ec915); stroke: #bebada; stroke-width: 0.5; stroke-linejoin: miter"/>
   </g>
   <g id="patch_32">
    <path d="M 343.083874 229.37697 
L 352.179762 229.37697 
L 352.179762 224.55548 
L 343.083874 224.55548 
L 343.083874 229.37697 
z
" clip-path="url(#pb89a2c9d79)" style="fill: none; stroke: #bebada; stroke-width: 0.5; stroke-linejoin: miter"/>
   </g>
   <g id="patch_33">
    <path d="M 364.307612 232.382192 
L 373.403499 232.382192 
L 373.403499 226.368865 
L 364.307612 226.368865 
z
" clip-path="url(#pb89a2c9d79)" style="fill: #ffd92f; stroke: #ffd92f; stroke-linejoin: miter"/>
   </g>
   <g id="patch_34">
    <path d="M 373.403499 232.382192 
L 382.499387 232.382192 
L 382.499387 230.704469 
L 373.403499 230.704469 
z
" clip-path="url(#pb89a2c9d79)" style="fill: url(#h0fce141df5); stroke: #ffd92f; stroke-width: 0.5; stroke-linejoin: miter"/>
   </g>
   <g id="patch_35">
    <path d="M 373.403499 230.704469 
L 382.499387 230.704469 
L 382.499387 226.368865 
L 373.403499 226.368865 
L 373.403499 230.704469 
z
" clip-path="url(#pb89a2c9d79)" style="fill: none; stroke: #ffd92f; stroke-width: 0.5; stroke-linejoin: miter"/>
   </g>
   <g id="patch_36">
    <path d="M 394.627237 232.382192 
L 403.723124 232.382192 
L 403.723124 229.647203 
L 394.627237 229.647203 
z
" clip-path="url(#pb89a2c9d79)" style="fill: #8da0cb; stroke: #8da0cb; stroke-linejoin: miter"/>
   </g>
   <g id="patch_37">
    <path d="M 403.723124 232.382192 
L 412.819012 232.382192 
L 412.819012 231.477647 
L 403.723124 231.477647 
z
" clip-path="url(#pb89a2c9d79)" style="fill: url(#hce41bd5def); stroke: #8da0cb; stroke-width: 0.5; stroke-linejoin: miter"/>
   </g>
   <g id="patch_38">
    <path d="M 403.723124 231.477647 
L 412.819012 231.477647 
L 412.819012 229.647203 
L 403.723124 229.647203 
L 403.723124 231.477647 
z
" clip-path="url(#pb89a2c9d79)" style="fill: none; stroke: #8da0cb; stroke-width: 0.5; stroke-linejoin: miter"/>
   </g>
   <g id="patch_39">
    <path d="M 424.946861 232.382192 
L 434.042749 232.382192 
L 434.042749 232.119548 
L 424.946861 232.119548 
z
" clip-path="url(#pb89a2c9d79)" style="fill: #80b1d3; stroke: #80b1d3; stroke-linejoin: miter"/>
   </g>
   <g id="patch_40">
    <path d="M 434.042749 232.382192 
L 443.138636 232.382192 
L 443.138636 232.321334 
L 434.042749 232.321334 
z
" clip-path="url(#pb89a2c9d79)" style="fill: url(#he4db8b54ca); stroke: #80b1d3; stroke-width: 0.5; stroke-linejoin: miter"/>
   </g>
   <g id="patch_41">
    <path d="M 434.042749 232.321334 
L 443.138636 232.321334 
L 443.138636 232.119548 
L 434.042749 232.119548 
L 434.042749 232.321334 
z
" clip-path="url(#pb89a2c9d79)" style="fill: none; stroke: #80b1d3; stroke-width: 0.5; stroke-linejoin: miter"/>
   </g>
   <g id="matplotlib.axis_1">
    <g id="xtick_1">
     <g id="line2d_1">
      <defs>
       <path id="me8ddc55131" d="M 0 0 
L 0 4 
" style="stroke: #000000"/>
      </defs>
      <g>
       <use xlink:href="#me8ddc55131" x="70.207251" y="232.382192" style="stroke: #000000"/>
      </g>
     </g>
     <g id="text_1">
      <!-- North Asia -->
      <g transform="translate(31.387089 282.779266) rotate(-45) scale(0.12 -0.12)">
       <defs>
        <path id="TimesNewRomanPSMT-4e" d="M -84 4238 
L 1066 4238 
L 3656 1059 
L 3656 3503 
Q 3656 3894 3569 3991 
Q 3453 4122 3203 4122 
L 3056 4122 
L 3056 4238 
L 4531 4238 
L 4531 4122 
L 4381 4122 
Q 4113 4122 4000 3959 
Q 3931 3859 3931 3503 
L 3931 -69 
L 3819 -69 
L 1025 3344 
L 1025 734 
Q 1025 344 1109 247 
Q 1228 116 1475 116 
L 1625 116 
L 1625 0 
L 150 0 
L 150 116 
L 297 116 
Q 569 116 681 278 
Q 750 378 750 734 
L 750 3681 
Q 566 3897 470 3965 
Q 375 4034 191 4094 
Q 100 4122 -84 4122 
L -84 4238 
z
" transform="scale(0.015625)"/>
        <path id="TimesNewRomanPSMT-6f" d="M 1600 2947 
Q 2250 2947 2644 2453 
Q 2978 2031 2978 1484 
Q 2978 1100 2793 706 
Q 2609 313 2286 112 
Q 1963 -88 1566 -88 
Q 919 -88 538 428 
Q 216 863 216 1403 
Q 216 1797 411 2186 
Q 606 2575 925 2761 
Q 1244 2947 1600 2947 
z
M 1503 2744 
Q 1338 2744 1170 2645 
Q 1003 2547 900 2300 
Q 797 2053 797 1666 
Q 797 1041 1045 587 
Q 1294 134 1700 134 
Q 2003 134 2200 384 
Q 2397 634 2397 1244 
Q 2397 2006 2069 2444 
Q 1847 2744 1503 2744 
z
" transform="scale(0.015625)"/>
        <path id="TimesNewRomanPSMT-72" d="M 1038 2947 
L 1038 2303 
Q 1397 2947 1775 2947 
Q 1947 2947 2059 2842 
Q 2172 2738 2172 2600 
Q 2172 2478 2090 2393 
Q 2009 2309 1897 2309 
Q 1788 2309 1652 2417 
Q 1516 2525 1450 2525 
Q 1394 2525 1328 2463 
Q 1188 2334 1038 2041 
L 1038 669 
Q 1038 431 1097 309 
Q 1138 225 1241 169 
Q 1344 113 1538 113 
L 1538 0 
L 72 0 
L 72 113 
Q 291 113 397 181 
Q 475 231 506 341 
Q 522 394 522 644 
L 522 1753 
Q 522 2253 501 2348 
Q 481 2444 426 2487 
Q 372 2531 291 2531 
Q 194 2531 72 2484 
L 41 2597 
L 906 2947 
L 1038 2947 
z
" transform="scale(0.015625)"/>
        <path id="TimesNewRomanPSMT-74" d="M 1031 3803 
L 1031 2863 
L 1700 2863 
L 1700 2644 
L 1031 2644 
L 1031 788 
Q 1031 509 1111 412 
Q 1191 316 1316 316 
Q 1419 316 1516 380 
Q 1613 444 1666 569 
L 1788 569 
Q 1678 263 1478 108 
Q 1278 -47 1066 -47 
Q 922 -47 784 33 
Q 647 113 581 261 
Q 516 409 516 719 
L 516 2644 
L 63 2644 
L 63 2747 
Q 234 2816 414 2980 
Q 594 3144 734 3369 
Q 806 3488 934 3803 
L 1031 3803 
z
" transform="scale(0.015625)"/>
        <path id="TimesNewRomanPSMT-68" d="M 1041 4444 
L 1041 2350 
Q 1388 2731 1591 2839 
Q 1794 2947 1997 2947 
Q 2241 2947 2416 2812 
Q 2591 2678 2675 2391 
Q 2734 2191 2734 1659 
L 2734 647 
Q 2734 375 2778 275 
Q 2809 200 2884 156 
Q 2959 113 3159 113 
L 3159 0 
L 1753 0 
L 1753 113 
L 1819 113 
Q 2019 113 2097 173 
Q 2175 234 2206 353 
Q 2216 403 2216 647 
L 2216 1659 
Q 2216 2128 2167 2275 
Q 2119 2422 2012 2495 
Q 1906 2569 1756 2569 
Q 1603 2569 1437 2487 
Q 1272 2406 1041 2159 
L 1041 647 
Q 1041 353 1073 281 
Q 1106 209 1195 161 
Q 1284 113 1503 113 
L 1503 0 
L 84 0 
L 84 113 
Q 275 113 384 172 
Q 447 203 484 290 
Q 522 378 522 647 
L 522 3238 
Q 522 3728 498 3840 
Q 475 3953 426 3993 
Q 378 4034 297 4034 
Q 231 4034 84 3984 
L 41 4094 
L 897 4444 
L 1041 4444 
z
" transform="scale(0.015625)"/>
        <path id="TimesNewRomanPSMT-20" transform="scale(0.015625)"/>
        <path id="TimesNewRomanPSMT-41" d="M 2928 1419 
L 1288 1419 
L 1000 750 
Q 894 503 894 381 
Q 894 284 986 211 
Q 1078 138 1384 116 
L 1384 0 
L 50 0 
L 50 116 
Q 316 163 394 238 
Q 553 388 747 847 
L 2238 4334 
L 2347 4334 
L 3822 809 
Q 4000 384 4145 257 
Q 4291 131 4550 116 
L 4550 0 
L 2878 0 
L 2878 116 
Q 3131 128 3220 200 
Q 3309 272 3309 375 
Q 3309 513 3184 809 
L 2928 1419 
z
M 2841 1650 
L 2122 3363 
L 1384 1650 
L 2841 1650 
z
" transform="scale(0.015625)"/>
        <path id="TimesNewRomanPSMT-73" d="M 2050 2947 
L 2050 1972 
L 1947 1972 
Q 1828 2431 1642 2597 
Q 1456 2763 1169 2763 
Q 950 2763 815 2647 
Q 681 2531 681 2391 
Q 681 2216 781 2091 
Q 878 1963 1175 1819 
L 1631 1597 
Q 2266 1288 2266 781 
Q 2266 391 1970 151 
Q 1675 -88 1309 -88 
Q 1047 -88 709 6 
Q 606 38 541 38 
Q 469 38 428 -44 
L 325 -44 
L 325 978 
L 428 978 
Q 516 541 762 319 
Q 1009 97 1316 97 
Q 1531 97 1667 223 
Q 1803 350 1803 528 
Q 1803 744 1651 891 
Q 1500 1038 1047 1263 
Q 594 1488 453 1669 
Q 313 1847 313 2119 
Q 313 2472 555 2709 
Q 797 2947 1181 2947 
Q 1350 2947 1591 2875 
Q 1750 2828 1803 2828 
Q 1853 2828 1881 2850 
Q 1909 2872 1947 2947 
L 2050 2947 
z
" transform="scale(0.015625)"/>
        <path id="TimesNewRomanPSMT-69" d="M 928 4444 
Q 1059 4444 1151 4351 
Q 1244 4259 1244 4128 
Q 1244 3997 1151 3903 
Q 1059 3809 928 3809 
Q 797 3809 703 3903 
Q 609 3997 609 4128 
Q 609 4259 701 4351 
Q 794 4444 928 4444 
z
M 1188 2947 
L 1188 647 
Q 1188 378 1227 289 
Q 1266 200 1342 156 
Q 1419 113 1622 113 
L 1622 0 
L 231 0 
L 231 113 
Q 441 113 512 153 
Q 584 194 626 287 
Q 669 381 669 647 
L 669 1750 
Q 669 2216 641 2353 
Q 619 2453 572 2492 
Q 525 2531 444 2531 
Q 356 2531 231 2484 
L 188 2597 
L 1050 2947 
L 1188 2947 
z
" transform="scale(0.015625)"/>
        <path id="TimesNewRomanPSMT-61" d="M 1822 413 
Q 1381 72 1269 19 
Q 1100 -59 909 -59 
Q 613 -59 420 144 
Q 228 347 228 678 
Q 228 888 322 1041 
Q 450 1253 767 1440 
Q 1084 1628 1822 1897 
L 1822 2009 
Q 1822 2438 1686 2597 
Q 1550 2756 1291 2756 
Q 1094 2756 978 2650 
Q 859 2544 859 2406 
L 866 2225 
Q 866 2081 792 2003 
Q 719 1925 600 1925 
Q 484 1925 411 2006 
Q 338 2088 338 2228 
Q 338 2497 613 2722 
Q 888 2947 1384 2947 
Q 1766 2947 2009 2819 
Q 2194 2722 2281 2516 
Q 2338 2381 2338 1966 
L 2338 994 
Q 2338 584 2353 492 
Q 2369 400 2405 369 
Q 2441 338 2488 338 
Q 2538 338 2575 359 
Q 2641 400 2828 588 
L 2828 413 
Q 2478 -56 2159 -56 
Q 2006 -56 1915 50 
Q 1825 156 1822 413 
z
M 1822 616 
L 1822 1706 
Q 1350 1519 1213 1441 
Q 966 1303 859 1153 
Q 753 1003 753 825 
Q 753 600 887 451 
Q 1022 303 1197 303 
Q 1434 303 1822 616 
z
" transform="scale(0.015625)"/>
       </defs>
       <use xlink:href="#TimesNewRomanPSMT-4e"/>
       <use xlink:href="#TimesNewRomanPSMT-6f" x="72.216797"/>
       <use xlink:href="#TimesNewRomanPSMT-72" x="122.216797"/>
       <use xlink:href="#TimesNewRomanPSMT-74" x="155.517578"/>
       <use xlink:href="#TimesNewRomanPSMT-68" x="183.300781"/>
       <use xlink:href="#TimesNewRomanPSMT-20" x="233.300781"/>
       <use xlink:href="#TimesNewRomanPSMT-41" x="252.800781"/>
       <use xlink:href="#TimesNewRomanPSMT-73" x="325.017578"/>
       <use xlink:href="#TimesNewRomanPSMT-69" x="363.933594"/>
       <use xlink:href="#TimesNewRomanPSMT-61" x="391.716797"/>
      </g>
     </g>
    </g>
    <g id="xtick_2">
     <g id="line2d_2">
      <g>
       <use xlink:href="#me8ddc55131" x="100.526876" y="232.382192" style="stroke: #000000"/>
      </g>
     </g>
     <g id="text_2">
      <!-- Ups -->
      <g transform="translate(85.038586 259.447394) rotate(-45) scale(0.12 -0.12)">
       <defs>
        <path id="TimesNewRomanPSMT-55" d="M 3053 4122 
L 3053 4238 
L 4553 4238 
L 4553 4122 
L 4394 4122 
Q 4144 4122 4009 3913 
Q 3944 3816 3944 3463 
L 3944 1744 
Q 3944 1106 3817 754 
Q 3691 403 3320 151 
Q 2950 -100 2313 -100 
Q 1619 -100 1259 140 
Q 900 381 750 788 
Q 650 1066 650 1831 
L 650 3488 
Q 650 3878 542 4000 
Q 434 4122 194 4122 
L 34 4122 
L 34 4238 
L 1866 4238 
L 1866 4122 
L 1703 4122 
Q 1441 4122 1328 3956 
Q 1250 3844 1250 3488 
L 1250 1641 
Q 1250 1394 1295 1075 
Q 1341 756 1459 578 
Q 1578 400 1801 284 
Q 2025 169 2350 169 
Q 2766 169 3094 350 
Q 3422 531 3542 814 
Q 3663 1097 3663 1772 
L 3663 3488 
Q 3663 3884 3575 3984 
Q 3453 4122 3213 4122 
L 3053 4122 
z
" transform="scale(0.015625)"/>
        <path id="TimesNewRomanPSMT-70" d="M -6 2578 
L 875 2934 
L 994 2934 
L 994 2266 
Q 1216 2644 1439 2795 
Q 1663 2947 1909 2947 
Q 2341 2947 2628 2609 
Q 2981 2197 2981 1534 
Q 2981 794 2556 309 
Q 2206 -88 1675 -88 
Q 1444 -88 1275 -22 
Q 1150 25 994 166 
L 994 -706 
Q 994 -1000 1030 -1079 
Q 1066 -1159 1155 -1206 
Q 1244 -1253 1478 -1253 
L 1478 -1369 
L -22 -1369 
L -22 -1253 
L 56 -1253 
Q 228 -1256 350 -1188 
Q 409 -1153 442 -1076 
Q 475 -1000 475 -688 
L 475 2019 
Q 475 2297 450 2372 
Q 425 2447 370 2484 
Q 316 2522 222 2522 
Q 147 2522 31 2478 
L -6 2578 
z
M 994 2081 
L 994 1013 
Q 994 666 1022 556 
Q 1066 375 1236 237 
Q 1406 100 1666 100 
Q 1978 100 2172 344 
Q 2425 663 2425 1241 
Q 2425 1897 2138 2250 
Q 1938 2494 1663 2494 
Q 1513 2494 1366 2419 
Q 1253 2363 994 2081 
z
" transform="scale(0.015625)"/>
       </defs>
       <use xlink:href="#TimesNewRomanPSMT-55"/>
       <use xlink:href="#TimesNewRomanPSMT-70" x="72.216797"/>
       <use xlink:href="#TimesNewRomanPSMT-73" x="122.216797"/>
      </g>
     </g>
    </g>
    <g id="xtick_3">
     <g id="line2d_3">
      <g>
       <use xlink:href="#me8ddc55131" x="130.846501" y="232.382192" style="stroke: #000000"/>
      </g>
     </g>
     <g id="text_3">
      <!-- South West Asia -->
      <g transform="translate(73.288451 301.517154) rotate(-45) scale(0.12 -0.12)">
       <defs>
        <path id="TimesNewRomanPSMT-53" d="M 2934 4334 
L 2934 2869 
L 2819 2869 
Q 2763 3291 2617 3541 
Q 2472 3791 2203 3937 
Q 1934 4084 1647 4084 
Q 1322 4084 1109 3886 
Q 897 3688 897 3434 
Q 897 3241 1031 3081 
Q 1225 2847 1953 2456 
Q 2547 2138 2764 1967 
Q 2981 1797 3098 1565 
Q 3216 1334 3216 1081 
Q 3216 600 2842 251 
Q 2469 -97 1881 -97 
Q 1697 -97 1534 -69 
Q 1438 -53 1133 45 
Q 828 144 747 144 
Q 669 144 623 97 
Q 578 50 556 -97 
L 441 -97 
L 441 1356 
L 556 1356 
Q 638 900 775 673 
Q 913 447 1195 297 
Q 1478 147 1816 147 
Q 2206 147 2432 353 
Q 2659 559 2659 841 
Q 2659 997 2573 1156 
Q 2488 1316 2306 1453 
Q 2184 1547 1640 1851 
Q 1097 2156 867 2337 
Q 638 2519 519 2737 
Q 400 2956 400 3219 
Q 400 3675 750 4004 
Q 1100 4334 1641 4334 
Q 1978 4334 2356 4169 
Q 2531 4091 2603 4091 
Q 2684 4091 2736 4139 
Q 2788 4188 2819 4334 
L 2934 4334 
z
" transform="scale(0.015625)"/>
        <path id="TimesNewRomanPSMT-75" d="M 2709 2863 
L 2709 1128 
Q 2709 631 2732 520 
Q 2756 409 2807 365 
Q 2859 322 2928 322 
Q 3025 322 3147 375 
L 3191 266 
L 2334 -88 
L 2194 -88 
L 2194 519 
Q 1825 119 1631 15 
Q 1438 -88 1222 -88 
Q 981 -88 804 51 
Q 628 191 559 409 
Q 491 628 491 1028 
L 491 2306 
Q 491 2509 447 2587 
Q 403 2666 317 2708 
Q 231 2750 6 2747 
L 6 2863 
L 1009 2863 
L 1009 947 
Q 1009 547 1148 422 
Q 1288 297 1484 297 
Q 1619 297 1789 381 
Q 1959 466 2194 703 
L 2194 2325 
Q 2194 2569 2105 2655 
Q 2016 2741 1734 2747 
L 1734 2863 
L 2709 2863 
z
" transform="scale(0.015625)"/>
        <path id="TimesNewRomanPSMT-57" d="M 5991 4238 
L 5991 4122 
Q 5825 4122 5722 4062 
Q 5619 4003 5525 3841 
Q 5463 3731 5328 3319 
L 4147 -97 
L 4022 -97 
L 3056 2613 
L 2097 -97 
L 1984 -97 
L 725 3422 
Q 584 3816 547 3888 
Q 484 4006 376 4064 
Q 269 4122 84 4122 
L 84 4238 
L 1653 4238 
L 1653 4122 
L 1578 4122 
Q 1413 4122 1325 4047 
Q 1238 3972 1238 3866 
Q 1238 3756 1375 3363 
L 2209 984 
L 2913 3006 
L 2788 3363 
L 2688 3647 
Q 2622 3803 2541 3922 
Q 2500 3981 2441 4022 
Q 2363 4078 2284 4103 
Q 2225 4122 2097 4122 
L 2097 4238 
L 3747 4238 
L 3747 4122 
L 3634 4122 
Q 3459 4122 3378 4047 
Q 3297 3972 3297 3844 
Q 3297 3684 3438 3288 
L 4250 984 
L 5056 3319 
Q 5194 3706 5194 3856 
Q 5194 3928 5148 3990 
Q 5103 4053 5034 4078 
Q 4916 4122 4725 4122 
L 4725 4238 
L 5991 4238 
z
" transform="scale(0.015625)"/>
        <path id="TimesNewRomanPSMT-65" d="M 681 1784 
Q 678 1147 991 784 
Q 1303 422 1725 422 
Q 2006 422 2214 576 
Q 2422 731 2563 1106 
L 2659 1044 
Q 2594 616 2278 264 
Q 1963 -88 1488 -88 
Q 972 -88 605 314 
Q 238 716 238 1394 
Q 238 2128 614 2539 
Q 991 2950 1559 2950 
Q 2041 2950 2350 2633 
Q 2659 2316 2659 1784 
L 681 1784 
z
M 681 1966 
L 2006 1966 
Q 1991 2241 1941 2353 
Q 1863 2528 1708 2628 
Q 1553 2728 1384 2728 
Q 1125 2728 920 2526 
Q 716 2325 681 1966 
z
" transform="scale(0.015625)"/>
       </defs>
       <use xlink:href="#TimesNewRomanPSMT-53"/>
       <use xlink:href="#TimesNewRomanPSMT-6f" x="55.615234"/>
       <use xlink:href="#TimesNewRomanPSMT-75" x="105.615234"/>
       <use xlink:href="#TimesNewRomanPSMT-74" x="155.615234"/>
       <use xlink:href="#TimesNewRomanPSMT-68" x="183.398438"/>
       <use xlink:href="#TimesNewRomanPSMT-20" x="233.398438"/>
       <use xlink:href="#TimesNewRomanPSMT-57" x="256.648438"/>
       <use xlink:href="#TimesNewRomanPSMT-65" x="343.033203"/>
       <use xlink:href="#TimesNewRomanPSMT-73" x="387.417969"/>
       <use xlink:href="#TimesNewRomanPSMT-74" x="426.333984"/>
       <use xlink:href="#TimesNewRomanPSMT-20" x="454.117188"/>
       <use xlink:href="#TimesNewRomanPSMT-41" x="473.617188"/>
       <use xlink:href="#TimesNewRomanPSMT-73" x="545.833984"/>
       <use xlink:href="#TimesNewRomanPSMT-69" x="584.75"/>
       <use xlink:href="#TimesNewRomanPSMT-61" x="612.533203"/>
      </g>
     </g>
    </g>
    <g id="xtick_4">
     <g id="line2d_4">
      <g>
       <use xlink:href="#me8ddc55131" x="161.166126" y="232.382192" style="stroke: #000000"/>
      </g>
     </g>
     <g id="text_4">
      <!-- North America -->
      <g transform="translate(108.689964 296.435266) rotate(-45) scale(0.12 -0.12)">
       <defs>
        <path id="TimesNewRomanPSMT-6d" d="M 1050 2338 
Q 1363 2650 1419 2697 
Q 1559 2816 1721 2881 
Q 1884 2947 2044 2947 
Q 2313 2947 2506 2790 
Q 2700 2634 2766 2338 
Q 3088 2713 3309 2830 
Q 3531 2947 3766 2947 
Q 3994 2947 4170 2830 
Q 4347 2713 4450 2447 
Q 4519 2266 4519 1878 
L 4519 647 
Q 4519 378 4559 278 
Q 4591 209 4675 161 
Q 4759 113 4950 113 
L 4950 0 
L 3538 0 
L 3538 113 
L 3597 113 
Q 3781 113 3884 184 
Q 3956 234 3988 344 
Q 4000 397 4000 647 
L 4000 1878 
Q 4000 2228 3916 2372 
Q 3794 2572 3525 2572 
Q 3359 2572 3192 2489 
Q 3025 2406 2788 2181 
L 2781 2147 
L 2788 2013 
L 2788 647 
Q 2788 353 2820 281 
Q 2853 209 2943 161 
Q 3034 113 3253 113 
L 3253 0 
L 1806 0 
L 1806 113 
Q 2044 113 2133 169 
Q 2222 225 2256 338 
Q 2272 391 2272 647 
L 2272 1878 
Q 2272 2228 2169 2381 
Q 2031 2581 1784 2581 
Q 1616 2581 1450 2491 
Q 1191 2353 1050 2181 
L 1050 647 
Q 1050 366 1089 281 
Q 1128 197 1204 155 
Q 1281 113 1516 113 
L 1516 0 
L 100 0 
L 100 113 
Q 297 113 375 155 
Q 453 197 493 289 
Q 534 381 534 647 
L 534 1741 
Q 534 2213 506 2350 
Q 484 2453 437 2492 
Q 391 2531 309 2531 
Q 222 2531 100 2484 
L 53 2597 
L 916 2947 
L 1050 2947 
L 1050 2338 
z
" transform="scale(0.015625)"/>
        <path id="TimesNewRomanPSMT-63" d="M 2631 1088 
Q 2516 522 2178 217 
Q 1841 -88 1431 -88 
Q 944 -88 581 321 
Q 219 731 219 1428 
Q 219 2103 620 2525 
Q 1022 2947 1584 2947 
Q 2006 2947 2278 2723 
Q 2550 2500 2550 2259 
Q 2550 2141 2473 2067 
Q 2397 1994 2259 1994 
Q 2075 1994 1981 2113 
Q 1928 2178 1911 2362 
Q 1894 2547 1784 2644 
Q 1675 2738 1481 2738 
Q 1169 2738 978 2506 
Q 725 2200 725 1697 
Q 725 1184 976 792 
Q 1228 400 1656 400 
Q 1963 400 2206 609 
Q 2378 753 2541 1131 
L 2631 1088 
z
" transform="scale(0.015625)"/>
       </defs>
       <use xlink:href="#TimesNewRomanPSMT-4e"/>
       <use xlink:href="#TimesNewRomanPSMT-6f" x="72.216797"/>
       <use xlink:href="#TimesNewRomanPSMT-72" x="122.216797"/>
       <use xlink:href="#TimesNewRomanPSMT-74" x="155.517578"/>
       <use xlink:href="#TimesNewRomanPSMT-68" x="183.300781"/>
       <use xlink:href="#TimesNewRomanPSMT-20" x="233.300781"/>
       <use xlink:href="#TimesNewRomanPSMT-41" x="252.800781"/>
       <use xlink:href="#TimesNewRomanPSMT-6d" x="325.017578"/>
       <use xlink:href="#TimesNewRomanPSMT-65" x="402.800781"/>
       <use xlink:href="#TimesNewRomanPSMT-72" x="447.185547"/>
       <use xlink:href="#TimesNewRomanPSMT-69" x="480.486328"/>
       <use xlink:href="#TimesNewRomanPSMT-63" x="508.269531"/>
       <use xlink:href="#TimesNewRomanPSMT-61" x="552.654297"/>
      </g>
     </g>
    </g>
    <g id="xtick_5">
     <g id="line2d_5">
      <g>
       <use xlink:href="#me8ddc55131" x="191.48575" y="232.382192" style="stroke: #000000"/>
      </g>
     </g>
     <g id="text_5">
      <!-- South Asia -->
      <g transform="translate(152.657633 282.787221) rotate(-45) scale(0.12 -0.12)">
       <use xlink:href="#TimesNewRomanPSMT-53"/>
       <use xlink:href="#TimesNewRomanPSMT-6f" x="55.615234"/>
       <use xlink:href="#TimesNewRomanPSMT-75" x="105.615234"/>
       <use xlink:href="#TimesNewRomanPSMT-74" x="155.615234"/>
       <use xlink:href="#TimesNewRomanPSMT-68" x="183.398438"/>
       <use xlink:href="#TimesNewRomanPSMT-20" x="233.398438"/>
       <use xlink:href="#TimesNewRomanPSMT-41" x="252.898438"/>
       <use xlink:href="#TimesNewRomanPSMT-73" x="325.115234"/>
       <use xlink:href="#TimesNewRomanPSMT-69" x="364.03125"/>
       <use xlink:href="#TimesNewRomanPSMT-61" x="391.814453"/>
      </g>
     </g>
    </g>
    <g id="xtick_6">
     <g id="line2d_6">
      <g>
       <use xlink:href="#me8ddc55131" x="221.805375" y="232.382192" style="stroke: #000000"/>
      </g>
     </g>
     <g id="text_6">
      <!-- Middle East -->
      <g transform="translate(178.747876 287.016604) rotate(-45) scale(0.12 -0.12)">
       <defs>
        <path id="TimesNewRomanPSMT-4d" d="M 2619 0 
L 981 3566 
L 981 734 
Q 981 344 1066 247 
Q 1181 116 1431 116 
L 1581 116 
L 1581 0 
L 106 0 
L 106 116 
L 256 116 
Q 525 116 638 278 
Q 706 378 706 734 
L 706 3503 
Q 706 3784 644 3909 
Q 600 4000 483 4061 
Q 366 4122 106 4122 
L 106 4238 
L 1306 4238 
L 2844 922 
L 4356 4238 
L 5556 4238 
L 5556 4122 
L 5409 4122 
Q 5138 4122 5025 3959 
Q 4956 3859 4956 3503 
L 4956 734 
Q 4956 344 5044 247 
Q 5159 116 5409 116 
L 5556 116 
L 5556 0 
L 3756 0 
L 3756 116 
L 3906 116 
Q 4178 116 4288 278 
Q 4356 378 4356 734 
L 4356 3566 
L 2722 0 
L 2619 0 
z
" transform="scale(0.015625)"/>
        <path id="TimesNewRomanPSMT-64" d="M 2222 322 
Q 2013 103 1813 7 
Q 1613 -88 1381 -88 
Q 913 -88 563 304 
Q 213 697 213 1313 
Q 213 1928 600 2439 
Q 988 2950 1597 2950 
Q 1975 2950 2222 2709 
L 2222 3238 
Q 2222 3728 2198 3840 
Q 2175 3953 2125 3993 
Q 2075 4034 2000 4034 
Q 1919 4034 1784 3984 
L 1744 4094 
L 2597 4444 
L 2738 4444 
L 2738 1134 
Q 2738 631 2761 520 
Q 2784 409 2836 365 
Q 2888 322 2956 322 
Q 3041 322 3181 375 
L 3216 266 
L 2366 -88 
L 2222 -88 
L 2222 322 
z
M 2222 541 
L 2222 2016 
Q 2203 2228 2109 2403 
Q 2016 2578 1861 2667 
Q 1706 2756 1559 2756 
Q 1284 2756 1069 2509 
Q 784 2184 784 1559 
Q 784 928 1059 592 
Q 1334 256 1672 256 
Q 1956 256 2222 541 
z
" transform="scale(0.015625)"/>
        <path id="TimesNewRomanPSMT-6c" d="M 1184 4444 
L 1184 647 
Q 1184 378 1223 290 
Q 1263 203 1344 158 
Q 1425 113 1647 113 
L 1647 0 
L 244 0 
L 244 113 
Q 441 113 512 153 
Q 584 194 625 287 
Q 666 381 666 647 
L 666 3247 
Q 666 3731 644 3842 
Q 622 3953 573 3993 
Q 525 4034 450 4034 
Q 369 4034 244 3984 
L 191 4094 
L 1044 4444 
L 1184 4444 
z
" transform="scale(0.015625)"/>
        <path id="TimesNewRomanPSMT-45" d="M 1338 4006 
L 1338 2331 
L 2269 2331 
Q 2631 2331 2753 2441 
Q 2916 2584 2934 2947 
L 3050 2947 
L 3050 1472 
L 2934 1472 
Q 2891 1781 2847 1869 
Q 2791 1978 2662 2040 
Q 2534 2103 2269 2103 
L 1338 2103 
L 1338 706 
Q 1338 425 1363 364 
Q 1388 303 1450 267 
Q 1513 231 1688 231 
L 2406 231 
Q 2766 231 2928 281 
Q 3091 331 3241 478 
Q 3434 672 3638 1063 
L 3763 1063 
L 3397 0 
L 131 0 
L 131 116 
L 281 116 
Q 431 116 566 188 
Q 666 238 702 338 
Q 738 438 738 747 
L 738 3500 
Q 738 3903 656 3997 
Q 544 4122 281 4122 
L 131 4122 
L 131 4238 
L 3397 4238 
L 3444 3309 
L 3322 3309 
Q 3256 3644 3176 3769 
Q 3097 3894 2941 3959 
Q 2816 4006 2500 4006 
L 1338 4006 
z
" transform="scale(0.015625)"/>
       </defs>
       <use xlink:href="#TimesNewRomanPSMT-4d"/>
       <use xlink:href="#TimesNewRomanPSMT-69" x="88.916016"/>
       <use xlink:href="#TimesNewRomanPSMT-64" x="116.699219"/>
       <use xlink:href="#TimesNewRomanPSMT-64" x="166.699219"/>
       <use xlink:href="#TimesNewRomanPSMT-6c" x="216.699219"/>
       <use xlink:href="#TimesNewRomanPSMT-65" x="244.482422"/>
       <use xlink:href="#TimesNewRomanPSMT-20" x="288.867188"/>
       <use xlink:href="#TimesNewRomanPSMT-45" x="313.867188"/>
       <use xlink:href="#TimesNewRomanPSMT-61" x="374.951172"/>
       <use xlink:href="#TimesNewRomanPSMT-73" x="419.335938"/>
       <use xlink:href="#TimesNewRomanPSMT-74" x="458.251953"/>
      </g>
     </g>
    </g>
    <g id="xtick_7">
     <g id="line2d_7">
      <g>
       <use xlink:href="#me8ddc55131" x="252.125" y="232.382192" style="stroke: #000000"/>
      </g>
     </g>
     <g id="text_7">
      <!-- Europe -->
      <g transform="translate(225.807369 270.276735) rotate(-45) scale(0.12 -0.12)">
       <use xlink:href="#TimesNewRomanPSMT-45"/>
       <use xlink:href="#TimesNewRomanPSMT-75" x="61.083984"/>
       <use xlink:href="#TimesNewRomanPSMT-72" x="111.083984"/>
       <use xlink:href="#TimesNewRomanPSMT-6f" x="144.384766"/>
       <use xlink:href="#TimesNewRomanPSMT-70" x="194.384766"/>
       <use xlink:href="#TimesNewRomanPSMT-65" x="244.384766"/>
      </g>
     </g>
    </g>
    <g id="xtick_8">
     <g id="line2d_8">
      <g>
       <use xlink:href="#me8ddc55131" x="282.444625" y="232.382192" style="stroke: #000000"/>
      </g>
     </g>
     <g id="text_8">
      <!-- Latin America -->
      <g transform="translate(231.857764 294.545965) rotate(-45) scale(0.12 -0.12)">
       <defs>
        <path id="TimesNewRomanPSMT-4c" d="M 3669 1172 
L 3772 1150 
L 3409 0 
L 128 0 
L 128 116 
L 288 116 
Q 556 116 672 291 
Q 738 391 738 753 
L 738 3488 
Q 738 3884 650 3984 
Q 528 4122 288 4122 
L 128 4122 
L 128 4238 
L 2047 4238 
L 2047 4122 
Q 1709 4125 1573 4059 
Q 1438 3994 1388 3894 
Q 1338 3794 1338 3416 
L 1338 753 
Q 1338 494 1388 397 
Q 1425 331 1503 300 
Q 1581 269 1991 269 
L 2300 269 
Q 2788 269 2984 341 
Q 3181 413 3343 595 
Q 3506 778 3669 1172 
z
" transform="scale(0.015625)"/>
        <path id="TimesNewRomanPSMT-6e" d="M 1034 2341 
Q 1538 2947 1994 2947 
Q 2228 2947 2397 2830 
Q 2566 2713 2666 2444 
Q 2734 2256 2734 1869 
L 2734 647 
Q 2734 375 2778 278 
Q 2813 200 2889 156 
Q 2966 113 3172 113 
L 3172 0 
L 1756 0 
L 1756 113 
L 1816 113 
Q 2016 113 2095 173 
Q 2175 234 2206 353 
Q 2219 400 2219 647 
L 2219 1819 
Q 2219 2209 2117 2386 
Q 2016 2563 1775 2563 
Q 1403 2563 1034 2156 
L 1034 647 
Q 1034 356 1069 288 
Q 1113 197 1189 155 
Q 1266 113 1500 113 
L 1500 0 
L 84 0 
L 84 113 
L 147 113 
Q 366 113 442 223 
Q 519 334 519 647 
L 519 1709 
Q 519 2225 495 2337 
Q 472 2450 423 2490 
Q 375 2531 294 2531 
Q 206 2531 84 2484 
L 38 2597 
L 900 2947 
L 1034 2947 
L 1034 2341 
z
" transform="scale(0.015625)"/>
       </defs>
       <use xlink:href="#TimesNewRomanPSMT-4c"/>
       <use xlink:href="#TimesNewRomanPSMT-61" x="61.083984"/>
       <use xlink:href="#TimesNewRomanPSMT-74" x="105.46875"/>
       <use xlink:href="#TimesNewRomanPSMT-69" x="133.251953"/>
       <use xlink:href="#TimesNewRomanPSMT-6e" x="161.035156"/>
       <use xlink:href="#TimesNewRomanPSMT-20" x="211.035156"/>
       <use xlink:href="#TimesNewRomanPSMT-41" x="230.535156"/>
       <use xlink:href="#TimesNewRomanPSMT-6d" x="302.751953"/>
       <use xlink:href="#TimesNewRomanPSMT-65" x="380.535156"/>
       <use xlink:href="#TimesNewRomanPSMT-72" x="424.919922"/>
       <use xlink:href="#TimesNewRomanPSMT-69" x="458.220703"/>
       <use xlink:href="#TimesNewRomanPSMT-63" x="486.003906"/>
       <use xlink:href="#TimesNewRomanPSMT-61" x="530.388672"/>
      </g>
     </g>
    </g>
    <g id="xtick_9">
     <g id="line2d_9">
      <g>
       <use xlink:href="#me8ddc55131" x="312.76425" y="232.382192" style="stroke: #000000"/>
      </g>
     </g>
     <g id="text_9">
      <!-- Africa -->
      <g transform="translate(289.279908 267.443446) rotate(-45) scale(0.12 -0.12)">
       <defs>
        <path id="TimesNewRomanPSMT-66" d="M 1319 2638 
L 1319 756 
Q 1319 356 1406 250 
Q 1522 113 1716 113 
L 1975 113 
L 1975 0 
L 266 0 
L 266 113 
L 394 113 
Q 519 113 622 175 
Q 725 238 764 344 
Q 803 450 803 756 
L 803 2638 
L 247 2638 
L 247 2863 
L 803 2863 
L 803 3050 
Q 803 3478 940 3775 
Q 1078 4072 1361 4255 
Q 1644 4438 1997 4438 
Q 2325 4438 2600 4225 
Q 2781 4084 2781 3909 
Q 2781 3816 2700 3733 
Q 2619 3650 2525 3650 
Q 2453 3650 2373 3701 
Q 2294 3753 2178 3923 
Q 2063 4094 1966 4153 
Q 1869 4213 1750 4213 
Q 1606 4213 1506 4136 
Q 1406 4059 1362 3898 
Q 1319 3738 1319 3069 
L 1319 2863 
L 2056 2863 
L 2056 2638 
L 1319 2638 
z
" transform="scale(0.015625)"/>
       </defs>
       <use xlink:href="#TimesNewRomanPSMT-41"/>
       <use xlink:href="#TimesNewRomanPSMT-66" x="72.216797"/>
       <use xlink:href="#TimesNewRomanPSMT-72" x="105.517578"/>
       <use xlink:href="#TimesNewRomanPSMT-69" x="138.818359"/>
       <use xlink:href="#TimesNewRomanPSMT-63" x="166.601562"/>
       <use xlink:href="#TimesNewRomanPSMT-61" x="210.986328"/>
      </g>
     </g>
    </g>
    <g id="xtick_10">
     <g id="line2d_10">
      <g>
       <use xlink:href="#me8ddc55131" x="343.083874" y="232.382192" style="stroke: #000000"/>
      </g>
     </g>
     <g id="text_10">
      <!-- North Africa -->
      <g transform="translate(298.149006 288.893972) rotate(-45) scale(0.12 -0.12)">
       <use xlink:href="#TimesNewRomanPSMT-4e"/>
       <use xlink:href="#TimesNewRomanPSMT-6f" x="72.216797"/>
       <use xlink:href="#TimesNewRomanPSMT-72" x="122.216797"/>
       <use xlink:href="#TimesNewRomanPSMT-74" x="155.517578"/>
       <use xlink:href="#TimesNewRomanPSMT-68" x="183.300781"/>
       <use xlink:href="#TimesNewRomanPSMT-20" x="233.300781"/>
       <use xlink:href="#TimesNewRomanPSMT-41" x="252.800781"/>
       <use xlink:href="#TimesNewRomanPSMT-66" x="325.017578"/>
       <use xlink:href="#TimesNewRomanPSMT-72" x="358.318359"/>
       <use xlink:href="#TimesNewRomanPSMT-69" x="391.619141"/>
       <use xlink:href="#TimesNewRomanPSMT-63" x="419.402344"/>
       <use xlink:href="#TimesNewRomanPSMT-61" x="463.787109"/>
      </g>
     </g>
    </g>
    <g id="xtick_11">
     <g id="line2d_11">
      <g>
       <use xlink:href="#me8ddc55131" x="373.403499" y="232.382192" style="stroke: #000000"/>
      </g>
     </g>
     <g id="text_11">
      <!-- North West Asia -->
      <g transform="translate(315.853404 301.509199) rotate(-45) scale(0.12 -0.12)">
       <use xlink:href="#TimesNewRomanPSMT-4e"/>
       <use xlink:href="#TimesNewRomanPSMT-6f" x="72.216797"/>
       <use xlink:href="#TimesNewRomanPSMT-72" x="122.216797"/>
       <use xlink:href="#TimesNewRomanPSMT-74" x="155.517578"/>
       <use xlink:href="#TimesNewRomanPSMT-68" x="183.300781"/>
       <use xlink:href="#TimesNewRomanPSMT-20" x="233.300781"/>
       <use xlink:href="#TimesNewRomanPSMT-57" x="256.550781"/>
       <use xlink:href="#TimesNewRomanPSMT-65" x="342.935547"/>
       <use xlink:href="#TimesNewRomanPSMT-73" x="387.320312"/>
       <use xlink:href="#TimesNewRomanPSMT-74" x="426.236328"/>
       <use xlink:href="#TimesNewRomanPSMT-20" x="454.019531"/>
       <use xlink:href="#TimesNewRomanPSMT-41" x="473.519531"/>
       <use xlink:href="#TimesNewRomanPSMT-73" x="545.736328"/>
       <use xlink:href="#TimesNewRomanPSMT-69" x="584.652344"/>
       <use xlink:href="#TimesNewRomanPSMT-61" x="612.435547"/>
      </g>
     </g>
    </g>
    <g id="xtick_12">
     <g id="line2d_12">
      <g>
       <use xlink:href="#me8ddc55131" x="403.723124" y="232.382192" style="stroke: #000000"/>
      </g>
     </g>
     <g id="text_12">
      <!-- Oceania -->
      <g transform="translate(374.11347 273.568759) rotate(-45) scale(0.12 -0.12)">
       <defs>
        <path id="TimesNewRomanPSMT-4f" d="M 2341 4334 
Q 3166 4334 3770 3707 
Q 4375 3081 4375 2144 
Q 4375 1178 3765 540 
Q 3156 -97 2291 -97 
Q 1416 -97 820 525 
Q 225 1147 225 2134 
Q 225 3144 913 3781 
Q 1509 4334 2341 4334 
z
M 2281 4106 
Q 1713 4106 1369 3684 
Q 941 3159 941 2147 
Q 941 1109 1384 550 
Q 1725 125 2284 125 
Q 2881 125 3270 590 
Q 3659 1056 3659 2059 
Q 3659 3147 3231 3681 
Q 2888 4106 2281 4106 
z
" transform="scale(0.015625)"/>
       </defs>
       <use xlink:href="#TimesNewRomanPSMT-4f"/>
       <use xlink:href="#TimesNewRomanPSMT-63" x="72.216797"/>
       <use xlink:href="#TimesNewRomanPSMT-65" x="116.601562"/>
       <use xlink:href="#TimesNewRomanPSMT-61" x="160.986328"/>
       <use xlink:href="#TimesNewRomanPSMT-6e" x="205.371094"/>
       <use xlink:href="#TimesNewRomanPSMT-69" x="255.371094"/>
       <use xlink:href="#TimesNewRomanPSMT-61" x="283.154297"/>
      </g>
     </g>
    </g>
    <g id="xtick_13">
     <g id="line2d_13">
      <g>
       <use xlink:href="#me8ddc55131" x="434.042749" y="232.382192" style="stroke: #000000"/>
      </g>
     </g>
     <g id="text_13">
      <!-- Atlantic North -->
      <g transform="translate(382.977265 295.024588) rotate(-45) scale(0.12 -0.12)">
       <use xlink:href="#TimesNewRomanPSMT-41"/>
       <use xlink:href="#TimesNewRomanPSMT-74" x="72.216797"/>
       <use xlink:href="#TimesNewRomanPSMT-6c" x="100"/>
       <use xlink:href="#TimesNewRomanPSMT-61" x="127.783203"/>
       <use xlink:href="#TimesNewRomanPSMT-6e" x="172.167969"/>
       <use xlink:href="#TimesNewRomanPSMT-74" x="222.167969"/>
       <use xlink:href="#TimesNewRomanPSMT-69" x="249.951172"/>
       <use xlink:href="#TimesNewRomanPSMT-63" x="277.734375"/>
       <use xlink:href="#TimesNewRomanPSMT-20" x="322.119141"/>
       <use xlink:href="#TimesNewRomanPSMT-4e" x="347.119141"/>
       <use xlink:href="#TimesNewRomanPSMT-6f" x="419.335938"/>
       <use xlink:href="#TimesNewRomanPSMT-72" x="469.335938"/>
       <use xlink:href="#TimesNewRomanPSMT-74" x="502.636719"/>
       <use xlink:href="#TimesNewRomanPSMT-68" x="530.419922"/>
      </g>
     </g>
    </g>
   </g>
   <g id="matplotlib.axis_2">
    <g id="ytick_1">
     <g id="line2d_14">
      <defs>
       <path id="m9f5aebc625" d="M 0 0 
L -4 0 
" style="stroke: #000000"/>
      </defs>
      <g>
       <use xlink:href="#m9f5aebc625" x="42.01" y="232.382192" style="stroke: #000000"/>
      </g>
     </g>
     <g id="text_14">
      <!-- 0 -->
      <g transform="translate(28.51 236.548442) scale(0.12 -0.12)">
       <defs>
        <path id="TimesNewRomanPSMT-30" d="M 231 2094 
Q 231 2819 450 3342 
Q 669 3866 1031 4122 
Q 1313 4325 1613 4325 
Q 2100 4325 2488 3828 
Q 2972 3213 2972 2159 
Q 2972 1422 2759 906 
Q 2547 391 2217 158 
Q 1888 -75 1581 -75 
Q 975 -75 572 641 
Q 231 1244 231 2094 
z
M 844 2016 
Q 844 1141 1059 588 
Q 1238 122 1591 122 
Q 1759 122 1940 273 
Q 2122 425 2216 781 
Q 2359 1319 2359 2297 
Q 2359 3022 2209 3506 
Q 2097 3866 1919 4016 
Q 1791 4119 1609 4119 
Q 1397 4119 1231 3928 
Q 1006 3669 925 3112 
Q 844 2556 844 2016 
z
" transform="scale(0.015625)"/>
       </defs>
       <use xlink:href="#TimesNewRomanPSMT-30"/>
      </g>
     </g>
    </g>
    <g id="ytick_2">
     <g id="line2d_15">
      <g>
       <use xlink:href="#m9f5aebc625" x="42.01" y="188.139757" style="stroke: #000000"/>
      </g>
     </g>
     <g id="text_15">
      <!-- 2 -->
      <g transform="translate(28.51 192.306007) scale(0.12 -0.12)">
       <defs>
        <path id="TimesNewRomanPSMT-32" d="M 2934 816 
L 2638 0 
L 138 0 
L 138 116 
Q 1241 1122 1691 1759 
Q 2141 2397 2141 2925 
Q 2141 3328 1894 3587 
Q 1647 3847 1303 3847 
Q 991 3847 742 3664 
Q 494 3481 375 3128 
L 259 3128 
Q 338 3706 661 4015 
Q 984 4325 1469 4325 
Q 1984 4325 2329 3994 
Q 2675 3663 2675 3213 
Q 2675 2891 2525 2569 
Q 2294 2063 1775 1497 
Q 997 647 803 472 
L 1909 472 
Q 2247 472 2383 497 
Q 2519 522 2628 598 
Q 2738 675 2819 816 
L 2934 816 
z
" transform="scale(0.015625)"/>
       </defs>
       <use xlink:href="#TimesNewRomanPSMT-32"/>
      </g>
     </g>
    </g>
    <g id="ytick_3">
     <g id="line2d_16">
      <g>
       <use xlink:href="#m9f5aebc625" x="42.01" y="143.897322" style="stroke: #000000"/>
      </g>
     </g>
     <g id="text_16">
      <!-- 4 -->
      <g transform="translate(28.51 148.063572) scale(0.12 -0.12)">
       <defs>
        <path id="TimesNewRomanPSMT-34" d="M 2978 1563 
L 2978 1119 
L 2409 1119 
L 2409 0 
L 1894 0 
L 1894 1119 
L 100 1119 
L 100 1519 
L 2066 4325 
L 2409 4325 
L 2409 1563 
L 2978 1563 
z
M 1894 1563 
L 1894 3666 
L 406 1563 
L 1894 1563 
z
" transform="scale(0.015625)"/>
       </defs>
       <use xlink:href="#TimesNewRomanPSMT-34"/>
      </g>
     </g>
    </g>
    <g id="ytick_4">
     <g id="line2d_17">
      <g>
       <use xlink:href="#m9f5aebc625" x="42.01" y="99.654887" style="stroke: #000000"/>
      </g>
     </g>
     <g id="text_17">
      <!-- 6 -->
      <g transform="translate(28.51 103.821137) scale(0.12 -0.12)">
       <defs>
        <path id="TimesNewRomanPSMT-36" d="M 2869 4325 
L 2869 4209 
Q 2456 4169 2195 4045 
Q 1934 3922 1679 3669 
Q 1425 3416 1258 3105 
Q 1091 2794 978 2366 
Q 1428 2675 1881 2675 
Q 2316 2675 2634 2325 
Q 2953 1975 2953 1425 
Q 2953 894 2631 456 
Q 2244 -75 1606 -75 
Q 1172 -75 869 213 
Q 275 772 275 1663 
Q 275 2231 503 2743 
Q 731 3256 1154 3653 
Q 1578 4050 1965 4187 
Q 2353 4325 2688 4325 
L 2869 4325 
z
M 925 2138 
Q 869 1716 869 1456 
Q 869 1156 980 804 
Q 1091 453 1309 247 
Q 1469 100 1697 100 
Q 1969 100 2183 356 
Q 2397 613 2397 1088 
Q 2397 1622 2184 2012 
Q 1972 2403 1581 2403 
Q 1463 2403 1327 2353 
Q 1191 2303 925 2138 
z
" transform="scale(0.015625)"/>
       </defs>
       <use xlink:href="#TimesNewRomanPSMT-36"/>
      </g>
     </g>
    </g>
    <g id="ytick_5">
     <g id="line2d_18">
      <g>
       <use xlink:href="#m9f5aebc625" x="42.01" y="55.412453" style="stroke: #000000"/>
      </g>
     </g>
     <g id="text_18">
      <!-- 8 -->
      <g transform="translate(28.51 59.578703) scale(0.12 -0.12)">
       <defs>
        <path id="TimesNewRomanPSMT-38" d="M 1228 2134 
Q 725 2547 579 2797 
Q 434 3047 434 3316 
Q 434 3728 753 4026 
Q 1072 4325 1600 4325 
Q 2113 4325 2425 4047 
Q 2738 3769 2738 3413 
Q 2738 3175 2569 2928 
Q 2400 2681 1866 2347 
Q 2416 1922 2594 1678 
Q 2831 1359 2831 1006 
Q 2831 559 2490 242 
Q 2150 -75 1597 -75 
Q 994 -75 656 303 
Q 388 606 388 966 
Q 388 1247 577 1523 
Q 766 1800 1228 2134 
z
M 1719 2469 
Q 2094 2806 2194 3001 
Q 2294 3197 2294 3444 
Q 2294 3772 2109 3958 
Q 1925 4144 1606 4144 
Q 1288 4144 1088 3959 
Q 888 3775 888 3528 
Q 888 3366 970 3203 
Q 1053 3041 1206 2894 
L 1719 2469 
z
M 1375 2016 
Q 1116 1797 991 1539 
Q 866 1281 866 981 
Q 866 578 1086 336 
Q 1306 94 1647 94 
Q 1984 94 2187 284 
Q 2391 475 2391 747 
Q 2391 972 2272 1150 
Q 2050 1481 1375 2016 
z
" transform="scale(0.015625)"/>
       </defs>
       <use xlink:href="#TimesNewRomanPSMT-38"/>
      </g>
     </g>
    </g>
    <g id="text_19">
     <!-- GWh -->
     <g transform="translate(21.943125 141.487658) rotate(-90) scale(0.12 -0.12)">
      <defs>
       <path id="TimesNewRomanPSMT-47" d="M 3928 4334 
L 4038 2997 
L 3928 2997 
Q 3763 3497 3500 3750 
Q 3122 4116 2528 4116 
Q 1719 4116 1297 3475 
Q 944 2934 944 2188 
Q 944 1581 1178 1081 
Q 1413 581 1792 348 
Q 2172 116 2572 116 
Q 2806 116 3025 175 
Q 3244 234 3447 350 
L 3447 1575 
Q 3447 1894 3398 1992 
Q 3350 2091 3248 2142 
Q 3147 2194 2891 2194 
L 2891 2313 
L 4531 2313 
L 4531 2194 
L 4453 2194 
Q 4209 2194 4119 2031 
Q 4056 1916 4056 1575 
L 4056 278 
Q 3697 84 3347 -6 
Q 2997 -97 2569 -97 
Q 1341 -97 703 691 
Q 225 1281 225 2053 
Q 225 2613 494 3125 
Q 813 3734 1369 4063 
Q 1834 4334 2469 4334 
Q 2700 4334 2889 4296 
Q 3078 4259 3425 4131 
Q 3600 4066 3659 4066 
Q 3719 4066 3761 4120 
Q 3803 4175 3813 4334 
L 3928 4334 
z
" transform="scale(0.015625)"/>
      </defs>
      <use xlink:href="#TimesNewRomanPSMT-47"/>
      <use xlink:href="#TimesNewRomanPSMT-57" x="72.216797"/>
      <use xlink:href="#TimesNewRomanPSMT-68" x="166.601562"/>
     </g>
    </g>
    <g id="text_20">
     <!-- 1e7 -->
     <g transform="translate(42.01 21.6) scale(0.12 -0.12)">
      <defs>
       <path id="TimesNewRomanPSMT-31" d="M 750 3822 
L 1781 4325 
L 1884 4325 
L 1884 747 
Q 1884 391 1914 303 
Q 1944 216 2037 169 
Q 2131 122 2419 116 
L 2419 0 
L 825 0 
L 825 116 
Q 1125 122 1212 167 
Q 1300 213 1334 289 
Q 1369 366 1369 747 
L 1369 3034 
Q 1369 3497 1338 3628 
Q 1316 3728 1258 3775 
Q 1200 3822 1119 3822 
Q 1003 3822 797 3725 
L 750 3822 
z
" transform="scale(0.015625)"/>
       <path id="TimesNewRomanPSMT-37" d="M 644 4238 
L 2916 4238 
L 2916 4119 
L 1503 -88 
L 1153 -88 
L 2419 3728 
L 1253 3728 
Q 900 3728 750 3644 
Q 488 3500 328 3200 
L 238 3234 
L 644 4238 
z
" transform="scale(0.015625)"/>
      </defs>
      <use xlink:href="#TimesNewRomanPSMT-31"/>
      <use xlink:href="#TimesNewRomanPSMT-65" x="50"/>
      <use xlink:href="#TimesNewRomanPSMT-37" x="94.384766"/>
     </g>
    </g>
   </g>
   <g id="line2d_19">
    <path d="M 42.01 232.382192 
L 462.24 232.382192 
" clip-path="url(#pb89a2c9d79)" style="fill: none; stroke: #000000; stroke-width: 0.8; stroke-linecap: square"/>
   </g>
   <g id="patch_42">
    <path d="M 42.01 232.382192 
L 42.01 24.6 
" style="fill: none; stroke: #000000; stroke-width: 0.8; stroke-linejoin: miter; stroke-linecap: square"/>
   </g>
   <g id="patch_43">
    <path d="M 462.24 232.382192 
L 462.24 24.6 
" style="fill: none; stroke: #000000; stroke-width: 0.8; stroke-linejoin: miter; stroke-linecap: square"/>
   </g>
   <g id="patch_44">
    <path d="M 42.01 232.382192 
L 462.24 232.382192 
" style="fill: none; stroke: #000000; stroke-width: 0.8; stroke-linejoin: miter; stroke-linecap: square"/>
   </g>
   <g id="patch_45">
    <path d="M 42.01 24.6 
L 462.24 24.6 
" style="fill: none; stroke: #000000; stroke-width: 0.8; stroke-linejoin: miter; stroke-linecap: square"/>
   </g>
   <g id="legend_1">
    <g id="patch_46">
     <path d="M 360.5175 43.8 
L 384.5175 43.8 
L 384.5175 35.4 
L 360.5175 35.4 
z
" style="fill: #e78ac3; stroke: #e78ac3; stroke-linejoin: miter"/>
    </g>
    <g id="text_21">
     <!-- Generation -->
     <g transform="translate(394.1175 43.8) scale(0.12 -0.12)">
      <use xlink:href="#TimesNewRomanPSMT-47"/>
      <use xlink:href="#TimesNewRomanPSMT-65" x="72.216797"/>
      <use xlink:href="#TimesNewRomanPSMT-6e" x="116.601562"/>
      <use xlink:href="#TimesNewRomanPSMT-65" x="166.601562"/>
      <use xlink:href="#TimesNewRomanPSMT-72" x="210.986328"/>
      <use xlink:href="#TimesNewRomanPSMT-61" x="244.287109"/>
      <use xlink:href="#TimesNewRomanPSMT-74" x="288.671875"/>
      <use xlink:href="#TimesNewRomanPSMT-69" x="316.455078"/>
      <use xlink:href="#TimesNewRomanPSMT-6f" x="344.238281"/>
      <use xlink:href="#TimesNewRomanPSMT-6e" x="394.238281"/>
     </g>
    </g>
    <g id="patch_47">
     <path d="M 360.5175 60.766875 
L 384.5175 60.766875 
L 384.5175 52.366875 
L 360.5175 52.366875 
z
" style="fill: url(#h379ca9854a); stroke: #e78ac3; stroke-width: 0.5; stroke-linejoin: miter"/>
    </g>
    <g id="text_22">
     <!-- Demand -->
     <g transform="translate(394.1175 60.766875) scale(0.12 -0.12)">
      <defs>
       <path id="TimesNewRomanPSMT-44" d="M 109 0 
L 109 116 
L 269 116 
Q 538 116 650 288 
Q 719 391 719 750 
L 719 3488 
Q 719 3884 631 3984 
Q 509 4122 269 4122 
L 109 4122 
L 109 4238 
L 1834 4238 
Q 2784 4238 3279 4022 
Q 3775 3806 4076 3303 
Q 4378 2800 4378 2141 
Q 4378 1256 3841 663 
Q 3238 0 2003 0 
L 109 0 
z
M 1319 306 
Q 1716 219 1984 219 
Q 2709 219 3187 728 
Q 3666 1238 3666 2109 
Q 3666 2988 3187 3494 
Q 2709 4000 1959 4000 
Q 1678 4000 1319 3909 
L 1319 306 
z
" transform="scale(0.015625)"/>
      </defs>
      <use xlink:href="#TimesNewRomanPSMT-44"/>
      <use xlink:href="#TimesNewRomanPSMT-65" x="72.216797"/>
      <use xlink:href="#TimesNewRomanPSMT-6d" x="116.601562"/>
      <use xlink:href="#TimesNewRomanPSMT-61" x="194.384766"/>
      <use xlink:href="#TimesNewRomanPSMT-6e" x="238.769531"/>
      <use xlink:href="#TimesNewRomanPSMT-64" x="288.769531"/>
     </g>
    </g>
    <g id="patch_48">
     <path d="M 360.5175 77.73375 
L 384.5175 77.73375 
L 384.5175 69.33375 
L 360.5175 69.33375 
L 360.5175 77.73375 
z
" style="fill: none; stroke: #e78ac3; stroke-width: 0.5; stroke-linejoin: miter"/>
    </g>
    <g id="text_23">
     <!-- Curtailment -->
     <g transform="translate(394.1175 77.73375) scale(0.12 -0.12)">
      <defs>
       <path id="TimesNewRomanPSMT-43" d="M 3853 4334 
L 3950 2894 
L 3853 2894 
Q 3659 3541 3300 3825 
Q 2941 4109 2438 4109 
Q 2016 4109 1675 3895 
Q 1334 3681 1139 3212 
Q 944 2744 944 2047 
Q 944 1472 1128 1050 
Q 1313 628 1683 403 
Q 2053 178 2528 178 
Q 2941 178 3256 354 
Q 3572 531 3950 1056 
L 4047 994 
Q 3728 428 3303 165 
Q 2878 -97 2294 -97 
Q 1241 -97 663 684 
Q 231 1266 231 2053 
Q 231 2688 515 3219 
Q 800 3750 1298 4042 
Q 1797 4334 2388 4334 
Q 2847 4334 3294 4109 
Q 3425 4041 3481 4041 
Q 3566 4041 3628 4100 
Q 3709 4184 3744 4334 
L 3853 4334 
z
" transform="scale(0.015625)"/>
      </defs>
      <use xlink:href="#TimesNewRomanPSMT-43"/>
      <use xlink:href="#TimesNewRomanPSMT-75" x="66.699219"/>
      <use xlink:href="#TimesNewRomanPSMT-72" x="116.699219"/>
      <use xlink:href="#TimesNewRomanPSMT-74" x="150"/>
      <use xlink:href="#TimesNewRomanPSMT-61" x="177.783203"/>
      <use xlink:href="#TimesNewRomanPSMT-69" x="222.167969"/>
      <use xlink:href="#TimesNewRomanPSMT-6c" x="249.951172"/>
      <use xlink:href="#TimesNewRomanPSMT-6d" x="277.734375"/>
      <use xlink:href="#TimesNewRomanPSMT-65" x="355.517578"/>
      <use xlink:href="#TimesNewRomanPSMT-6e" x="399.902344"/>
      <use xlink:href="#TimesNewRomanPSMT-74" x="449.902344"/>
     </g>
    </g>
   </g>
  </g>
 </g>
 <defs>
  <clipPath id="pb89a2c9d79">
   <rect x="42.01" y="24.6" width="420.23" height="207.782192"/>
  </clipPath>
 </defs>
 <defs>
  <pattern id="h379ca9854a" patternUnits="userSpaceOnUse" x="0" y="0" width="72" height="72">
   <rect x="0" y="0" width="73" height="73" fill="none"/>
   <path d="M -36 36 
L 36 -36 
M -30 42 
L 42 -30 
M -24 48 
L 48 -24 
M -18 54 
L 54 -18 
M -12 60 
L 60 -12 
M -6 66 
L 66 -6 
M 0 72 
L 72 0 
M 6 78 
L 78 6 
M 12 84 
L 84 12 
M 18 90 
L 90 18 
M 24 96 
L 96 24 
M 30 102 
L 102 30 
M 36 108 
L 108 36 
" style="fill: #e78ac3; stroke: #e78ac3; stroke-width: 1.0; stroke-linecap: butt; stroke-linejoin: miter"/>
  </pattern>
  <pattern id="h26cd8fc7eb" patternUnits="userSpaceOnUse" x="0" y="0" width="72" height="72">
   <rect x="0" y="0" width="73" height="73" fill="none"/>
   <path d="M -36 36 
L 36 -36 
M -30 42 
L 42 -30 
M -24 48 
L 48 -24 
M -18 54 
L 54 -18 
M -12 60 
L 60 -12 
M -6 66 
L 66 -6 
M 0 72 
L 72 0 
M 6 78 
L 78 6 
M 12 84 
L 84 12 
M 18 90 
L 90 18 
M 24 96 
L 96 24 
M 30 102 
L 102 30 
M 36 108 
L 108 36 
" style="fill: #de8f05; stroke: #de8f05; stroke-width: 1.0; stroke-linecap: butt; stroke-linejoin: miter"/>
  </pattern>
  <pattern id="he86806b226" patternUnits="userSpaceOnUse" x="0" y="0" width="72" height="72">
   <rect x="0" y="0" width="73" height="73" fill="none"/>
   <path d="M -36 36 
L 36 -36 
M -30 42 
L 42 -30 
M -24 48 
L 48 -24 
M -18 54 
L 54 -18 
M -12 60 
L 60 -12 
M -6 66 
L 66 -6 
M 0 72 
L 72 0 
M 6 78 
L 78 6 
M 12 84 
L 84 12 
M 18 90 
L 90 18 
M 24 96 
L 96 24 
M 30 102 
L 102 30 
M 36 108 
L 108 36 
" style="fill: #e5c494; stroke: #e5c494; stroke-width: 1.0; stroke-linecap: butt; stroke-linejoin: miter"/>
  </pattern>
  <pattern id="hcda3ac28b6" patternUnits="userSpaceOnUse" x="0" y="0" width="72" height="72">
   <rect x="0" y="0" width="73" height="73" fill="none"/>
   <path d="M -36 36 
L 36 -36 
M -30 42 
L 42 -30 
M -24 48 
L 48 -24 
M -18 54 
L 54 -18 
M -12 60 
L 60 -12 
M -6 66 
L 66 -6 
M 0 72 
L 72 0 
M 6 78 
L 78 6 
M 12 84 
L 84 12 
M 18 90 
L 90 18 
M 24 96 
L 96 24 
M 30 102 
L 102 30 
M 36 108 
L 108 36 
" style="fill: #66c2a5; stroke: #66c2a5; stroke-width: 1.0; stroke-linecap: butt; stroke-linejoin: miter"/>
  </pattern>
  <pattern id="h89e6e38ce6" patternUnits="userSpaceOnUse" x="0" y="0" width="72" height="72">
   <rect x="0" y="0" width="73" height="73" fill="none"/>
   <path d="M -36 36 
L 36 -36 
M -30 42 
L 42 -30 
M -24 48 
L 48 -24 
M -18 54 
L 54 -18 
M -12 60 
L 60 -12 
M -6 66 
L 66 -6 
M 0 72 
L 72 0 
M 6 78 
L 78 6 
M 12 84 
L 84 12 
M 18 90 
L 90 18 
M 24 96 
L 96 24 
M 30 102 
L 102 30 
M 36 108 
L 108 36 
" style="fill: #a6d854; stroke: #a6d854; stroke-width: 1.0; stroke-linecap: butt; stroke-linejoin: miter"/>
  </pattern>
  <pattern id="h7e00e516f0" patternUnits="userSpaceOnUse" x="0" y="0" width="72" height="72">
   <rect x="0" y="0" width="73" height="73" fill="none"/>
   <path d="M -36 36 
L 36 -36 
M -30 42 
L 42 -30 
M -24 48 
L 48 -24 
M -18 54 
L 54 -18 
M -12 60 
L 60 -12 
M -6 66 
L 66 -6 
M 0 72 
L 72 0 
M 6 78 
L 78 6 
M 12 84 
L 84 12 
M 18 90 
L 90 18 
M 24 96 
L 96 24 
M 30 102 
L 102 30 
M 36 108 
L 108 36 
" style="fill: #b3b3b3; stroke: #b3b3b3; stroke-width: 1.0; stroke-linecap: butt; stroke-linejoin: miter"/>
  </pattern>
  <pattern id="hfb3116ae79" patternUnits="userSpaceOnUse" x="0" y="0" width="72" height="72">
   <rect x="0" y="0" width="73" height="73" fill="none"/>
   <path d="M -36 36 
L 36 -36 
M -30 42 
L 42 -30 
M -24 48 
L 48 -24 
M -18 54 
L 54 -18 
M -12 60 
L 60 -12 
M -6 66 
L 66 -6 
M 0 72 
L 72 0 
M 6 78 
L 78 6 
M 12 84 
L 84 12 
M 18 90 
L 90 18 
M 24 96 
L 96 24 
M 30 102 
L 102 30 
M 36 108 
L 108 36 
" style="fill: #8dd3c7; stroke: #8dd3c7; stroke-width: 1.0; stroke-linecap: butt; stroke-linejoin: miter"/>
  </pattern>
  <pattern id="h6cbeb933c6" patternUnits="userSpaceOnUse" x="0" y="0" width="72" height="72">
   <rect x="0" y="0" width="73" height="73" fill="none"/>
   <path d="M -36 36 
L 36 -36 
M -30 42 
L 42 -30 
M -24 48 
L 48 -24 
M -18 54 
L 54 -18 
M -12 60 
L 60 -12 
M -6 66 
L 66 -6 
M 0 72 
L 72 0 
M 6 78 
L 78 6 
M 12 84 
L 84 12 
M 18 90 
L 90 18 
M 24 96 
L 96 24 
M 30 102 
L 102 30 
M 36 108 
L 108 36 
" style="fill: #fc8d62; stroke: #fc8d62; stroke-width: 1.0; stroke-linecap: butt; stroke-linejoin: miter"/>
  </pattern>
  <pattern id="he4c1dd6bb4" patternUnits="userSpaceOnUse" x="0" y="0" width="72" height="72">
   <rect x="0" y="0" width="73" height="73" fill="none"/>
   <path d="M -36 36 
L 36 -36 
M -30 42 
L 42 -30 
M -24 48 
L 48 -24 
M -18 54 
L 54 -18 
M -12 60 
L 60 -12 
M -6 66 
L 66 -6 
M 0 72 
L 72 0 
M 6 78 
L 78 6 
M 12 84 
L 84 12 
M 18 90 
L 90 18 
M 24 96 
L 96 24 
M 30 102 
L 102 30 
M 36 108 
L 108 36 
" style="fill: #fb8072; stroke: #fb8072; stroke-width: 1.0; stroke-linecap: butt; stroke-linejoin: miter"/>
  </pattern>
  <pattern id="hd38c4ec915" patternUnits="userSpaceOnUse" x="0" y="0" width="72" height="72">
   <rect x="0" y="0" width="73" height="73" fill="none"/>
   <path d="M -36 36 
L 36 -36 
M -30 42 
L 42 -30 
M -24 48 
L 48 -24 
M -18 54 
L 54 -18 
M -12 60 
L 60 -12 
M -6 66 
L 66 -6 
M 0 72 
L 72 0 
M 6 78 
L 78 6 
M 12 84 
L 84 12 
M 18 90 
L 90 18 
M 24 96 
L 96 24 
M 30 102 
L 102 30 
M 36 108 
L 108 36 
" style="fill: #bebada; stroke: #bebada; stroke-width: 1.0; stroke-linecap: butt; stroke-linejoin: miter"/>
  </pattern>
  <pattern id="h0fce141df5" patternUnits="userSpaceOnUse" x="0" y="0" width="72" height="72">
   <rect x="0" y="0" width="73" height="73" fill="none"/>
   <path d="M -36 36 
L 36 -36 
M -30 42 
L 42 -30 
M -24 48 
L 48 -24 
M -18 54 
L 54 -18 
M -12 60 
L 60 -12 
M -6 66 
L 66 -6 
M 0 72 
L 72 0 
M 6 78 
L 78 6 
M 12 84 
L 84 12 
M 18 90 
L 90 18 
M 24 96 
L 96 24 
M 30 102 
L 102 30 
M 36 108 
L 108 36 
" style="fill: #ffd92f; stroke: #ffd92f; stroke-width: 1.0; stroke-linecap: butt; stroke-linejoin: miter"/>
  </pattern>
  <pattern id="hce41bd5def" patternUnits="userSpaceOnUse" x="0" y="0" width="72" height="72">
   <rect x="0" y="0" width="73" height="73" fill="none"/>
   <path d="M -36 36 
L 36 -36 
M -30 42 
L 42 -30 
M -24 48 
L 48 -24 
M -18 54 
L 54 -18 
M -12 60 
L 60 -12 
M -6 66 
L 66 -6 
M 0 72 
L 72 0 
M 6 78 
L 78 6 
M 12 84 
L 84 12 
M 18 90 
L 90 18 
M 24 96 
L 96 24 
M 30 102 
L 102 30 
M 36 108 
L 108 36 
" style="fill: #8da0cb; stroke: #8da0cb; stroke-width: 1.0; stroke-linecap: butt; stroke-linejoin: miter"/>
  </pattern>
  <pattern id="he4db8b54ca" patternUnits="userSpaceOnUse" x="0" y="0" width="72" height="72">
   <rect x="0" y="0" width="73" height="73" fill="none"/>
   <path d="M -36 36 
L 36 -36 
M -30 42 
L 42 -30 
M -24 48 
L 48 -24 
M -18 54 
L 54 -18 
M -12 60 
L 60 -12 
M -6 66 
L 66 -6 
M 0 72 
L 72 0 
M 6 78 
L 78 6 
M 12 84 
L 84 12 
M 18 90 
L 90 18 
M 24 96 
L 96 24 
M 30 102 
L 102 30 
M 36 108 
L 108 36 
" style="fill: #80b1d3; stroke: #80b1d3; stroke-width: 1.0; stroke-linecap: butt; stroke-linejoin: miter"/>
  </pattern>
 </defs>
</svg>
