<?xml version="1.0" encoding="utf-8" standalone="no"?>
<!DOCTYPE svg PUBLIC "-//W3C//DTD SVG 1.1//EN"
  "http://www.w3.org/Graphics/SVG/1.1/DTD/svg11.dtd">
<svg xmlns:xlink="http://www.w3.org/1999/xlink" width="475.2pt" height="475.2pt" viewBox="0 0 475.2 475.2" xmlns="http://www.w3.org/2000/svg" version="1.1">
 <metadata>
  <rdf:RDF xmlns:dc="http://purl.org/dc/elements/1.1/" xmlns:cc="http://creativecommons.org/ns#" xmlns:rdf="http://www.w3.org/1999/02/22-rdf-syntax-ns#">
   <cc:Work>
    <dc:type rdf:resource="http://purl.org/dc/dcmitype/StillImage"/>
    <dc:date>2024-07-22T20:31:54.103521</dc:date>
    <dc:format>image/svg+xml</dc:format>
    <dc:creator>
     <cc:Agent>
      <dc:title>Matplotlib v3.9.0, https://matplotlib.org/</dc:title>
     </cc:Agent>
    </dc:creator>
   </cc:Work>
  </rdf:RDF>
 </metadata>
 <defs>
  <style type="text/css">*{stroke-linejoin: round; stroke-linecap: butt}</style>
 </defs>
 <g id="figure_1">
  <g id="patch_1">
   <path d="M 0 475.2 
L 475.2 475.2 
L 475.2 0 
L 0 0 
z
" style="fill: #ffffff"/>
  </g>
  <g id="axes_1">
   <g id="line2d_1">
    <path d="M 79.86 219.648 
L 79.86 280.632 
" clip-path="url(#p0116a4842b)" style="fill: none; stroke: #66c2a5; stroke-width: 0.5; stroke-linecap: square"/>
   </g>
   <g id="line2d_2">
    <path d="M 79.86 219.648 
L 79.86 189.156 
" clip-path="url(#p0116a4842b)" style="fill: none; stroke: #66c2a5; stroke-width: 7.874035; stroke-linecap: square"/>
   </g>
   <g id="line2d_3">
    <path d="M 79.86 189.156 
L 264 189.156 
" clip-path="url(#p0116a4842b)" style="fill: none; stroke: #66c2a5; stroke-width: 7.874035; stroke-linecap: square"/>
   </g>
   <g id="line2d_4">
    <path d="M 79.86 219.648 
L 141.24 219.648 
" clip-path="url(#p0116a4842b)" style="fill: none; stroke: #80b1d3; stroke-width: 4.171739; stroke-linecap: square"/>
   </g>
   <g id="line2d_5">
    <path d="M 386.76 341.616 
L 386.76 280.632 
" clip-path="url(#p0116a4842b)" style="fill: none; stroke: #8da0cb; stroke-width: 22.760338; stroke-linecap: square"/>
   </g>
   <g id="line2d_6">
    <path d="M 386.76 219.648 
L 386.76 280.632 
" clip-path="url(#p0116a4842b)" style="fill: none; stroke: #a6d854; stroke-width: 15.626979; stroke-linecap: square"/>
   </g>
   <g id="line2d_7">
    <path d="M 386.76 219.648 
L 325.38 219.648 
" clip-path="url(#p0116a4842b)" style="fill: none; stroke: #ffd92f; stroke-width: 11.580021; stroke-linecap: square"/>
   </g>
   <g id="line2d_8">
    <path d="M 386.76 219.648 
L 325.38 280.632 
" clip-path="url(#p0116a4842b)" style="fill: none; stroke: #e5c494; stroke-width: 0.5; stroke-linecap: square"/>
   </g>
   <g id="line2d_9">
    <path d="M 264 189.156 
L 386.76 189.156 
" clip-path="url(#p0116a4842b)" style="fill: none; stroke: #de8f05; stroke-width: 8.607885; stroke-linecap: square"/>
   </g>
   <g id="line2d_10">
    <path d="M 386.76 189.156 
L 386.76 219.648 
" clip-path="url(#p0116a4842b)" style="fill: none; stroke: #de8f05; stroke-width: 8.607885; stroke-linecap: square"/>
   </g>
   <g id="line2d_11">
    <path d="M 386.76 280.632 
L 325.38 280.632 
" clip-path="url(#p0116a4842b)" style="fill: none; stroke: #a6d854; stroke-width: 0.5; stroke-linecap: square"/>
   </g>
   <g id="line2d_12">
    <path d="M 325.38 219.648 
L 325.38 280.632 
" clip-path="url(#p0116a4842b)" style="fill: none; stroke: #ffd92f; stroke-width: 6.393321; stroke-linecap: square"/>
   </g>
   <g id="line2d_13">
    <path d="M 325.38 219.648 
L 264 250.14 
" clip-path="url(#p0116a4842b)" style="fill: none; stroke: #b3b3b3; stroke-width: 6.751132; stroke-linecap: square"/>
   </g>
   <g id="line2d_14">
    <path d="M 325.38 219.648 
L 264 189.156 
" clip-path="url(#p0116a4842b)" style="fill: none; stroke: #ffd92f; stroke-width: 0.5; stroke-linecap: square"/>
   </g>
   <g id="line2d_15">
    <path d="M 264 250.14 
L 202.62 219.648 
" clip-path="url(#p0116a4842b)" style="fill: none; stroke: #8dd3c7; stroke-width: 0.5; stroke-linecap: square"/>
   </g>
   <g id="line2d_16">
    <path d="M 264 250.14 
L 264 189.156 
" clip-path="url(#p0116a4842b)" style="fill: none; stroke: #b3b3b3; stroke-width: 0.5; stroke-linecap: square"/>
   </g>
   <g id="line2d_17">
    <path d="M 264 250.14 
L 202.62 280.632 
" clip-path="url(#p0116a4842b)" style="fill: none; stroke: #bebada; stroke-width: 5.559677; stroke-linecap: square"/>
   </g>
   <g id="line2d_18">
    <path d="M 264 250.14 
L 233.31 341.616 
" clip-path="url(#p0116a4842b)" style="fill: none; stroke: #fb8072; stroke-width: 0.5; stroke-linecap: square"/>
   </g>
   <g id="line2d_19">
    <path d="M 202.62 219.648 
L 264 189.156 
" clip-path="url(#p0116a4842b)" style="fill: none; stroke: #8dd3c7; stroke-width: 1.729233; stroke-linecap: square"/>
   </g>
   <g id="line2d_20">
    <path d="M 202.62 219.648 
L 202.62 280.632 
" clip-path="url(#p0116a4842b)" style="fill: none; stroke: #bebada; stroke-width: 3.151587; stroke-linecap: square"/>
   </g>
   <g id="line2d_21">
    <path d="M 202.62 219.648 
L 141.24 219.648 
" clip-path="url(#p0116a4842b)" style="fill: none; stroke: #80b1d3; stroke-width: 0.538806; stroke-linecap: square"/>
   </g>
   <g id="line2d_22">
    <path d="M 202.62 280.632 
L 233.31 341.616 
" clip-path="url(#p0116a4842b)" style="fill: none; stroke: #bebada; stroke-width: 0.5; stroke-linecap: square"/>
   </g>
   <g id="PathCollection_1">
    <defs>
     <path id="m48c0496aac" d="M 0 15.811388 
C 4.193229 15.811388 8.215279 14.145401 11.18034 11.18034 
C 14.145401 8.215279 15.811388 4.193229 15.811388 0 
C 15.811388 -4.193229 14.145401 -8.215279 11.18034 -11.18034 
C 8.215279 -14.145401 4.193229 -15.811388 0 -15.811388 
C -4.193229 -15.811388 -8.215279 -14.145401 -11.18034 -11.18034 
C -14.145401 -8.215279 -15.811388 -4.193229 -15.811388 0 
C -15.811388 4.193229 -14.145401 8.215279 -11.18034 11.18034 
C -8.215279 14.145401 -4.193229 15.811388 0 15.811388 
z
" style="stroke: #bebada"/>
    </defs>
    <g clip-path="url(#p0116a4842b)">
     <use xlink:href="#m48c0496aac" x="202.62" y="280.632" style="fill: #bebada; stroke: #bebada"/>
    </g>
   </g>
   <g id="PathCollection_2">
    <defs>
     <path id="mf00bc0bc30" d="M 0 15.811388 
C 4.193229 15.811388 8.215279 14.145401 11.18034 11.18034 
C 14.145401 8.215279 15.811388 4.193229 15.811388 0 
C 15.811388 -4.193229 14.145401 -8.215279 11.18034 -11.18034 
C 8.215279 -14.145401 4.193229 -15.811388 0 -15.811388 
C -4.193229 -15.811388 -8.215279 -14.145401 -11.18034 -11.18034 
C -14.145401 -8.215279 -15.811388 -4.193229 -15.811388 0 
C -15.811388 4.193229 -14.145401 8.215279 -11.18034 11.18034 
C -8.215279 14.145401 -4.193229 15.811388 0 15.811388 
z
" style="stroke: #8dd3c7"/>
    </defs>
    <g clip-path="url(#p0116a4842b)">
     <use xlink:href="#mf00bc0bc30" x="202.62" y="219.648" style="fill: #8dd3c7; stroke: #8dd3c7"/>
    </g>
   </g>
   <g id="PathCollection_3">
    <defs>
     <path id="mae9e7d3619" d="M 0 15.811388 
C 4.193229 15.811388 8.215279 14.145401 11.18034 11.18034 
C 14.145401 8.215279 15.811388 4.193229 15.811388 0 
C 15.811388 -4.193229 14.145401 -8.215279 11.18034 -11.18034 
C 8.215279 -14.145401 4.193229 -15.811388 0 -15.811388 
C -4.193229 -15.811388 -8.215279 -14.145401 -11.18034 -11.18034 
C -14.145401 -8.215279 -15.811388 -4.193229 -15.811388 0 
C -15.811388 4.193229 -14.145401 8.215279 -11.18034 11.18034 
C -8.215279 14.145401 -4.193229 15.811388 0 15.811388 
z
" style="stroke: #fb8072"/>
    </defs>
    <g clip-path="url(#p0116a4842b)">
     <use xlink:href="#mae9e7d3619" x="233.31" y="341.616" style="fill: #fb8072; stroke: #fb8072"/>
    </g>
   </g>
   <g id="PathCollection_4">
    <defs>
     <path id="mc1c5ddc3b0" d="M 0 15.811388 
C 4.193229 15.811388 8.215279 14.145401 11.18034 11.18034 
C 14.145401 8.215279 15.811388 4.193229 15.811388 0 
C 15.811388 -4.193229 14.145401 -8.215279 11.18034 -11.18034 
C 8.215279 -14.145401 4.193229 -15.811388 0 -15.811388 
C -4.193229 -15.811388 -8.215279 -14.145401 -11.18034 -11.18034 
C -14.145401 -8.215279 -15.811388 -4.193229 -15.811388 0 
C -15.811388 4.193229 -14.145401 8.215279 -11.18034 11.18034 
C -8.215279 14.145401 -4.193229 15.811388 0 15.811388 
z
" style="stroke: #b3b3b3"/>
    </defs>
    <g clip-path="url(#p0116a4842b)">
     <use xlink:href="#mc1c5ddc3b0" x="264" y="250.14" style="fill: #b3b3b3; stroke: #b3b3b3"/>
    </g>
   </g>
   <g id="PathCollection_5">
    <defs>
     <path id="m138923b220" d="M 0 15.811388 
C 4.193229 15.811388 8.215279 14.145401 11.18034 11.18034 
C 14.145401 8.215279 15.811388 4.193229 15.811388 0 
C 15.811388 -4.193229 14.145401 -8.215279 11.18034 -11.18034 
C 8.215279 -14.145401 4.193229 -15.811388 0 -15.811388 
C -4.193229 -15.811388 -8.215279 -14.145401 -11.18034 -11.18034 
C -14.145401 -8.215279 -15.811388 -4.193229 -15.811388 0 
C -15.811388 4.193229 -14.145401 8.215279 -11.18034 11.18034 
C -8.215279 14.145401 -4.193229 15.811388 0 15.811388 
z
" style="stroke: #ffd92f"/>
    </defs>
    <g clip-path="url(#p0116a4842b)">
     <use xlink:href="#m138923b220" x="325.38" y="219.648" style="fill: #ffd92f; stroke: #ffd92f"/>
    </g>
   </g>
   <g id="PathCollection_6">
    <defs>
     <path id="m1edcdb1af5" d="M 0 15.811388 
C 4.193229 15.811388 8.215279 14.145401 11.18034 11.18034 
C 14.145401 8.215279 15.811388 4.193229 15.811388 0 
C 15.811388 -4.193229 14.145401 -8.215279 11.18034 -11.18034 
C 8.215279 -14.145401 4.193229 -15.811388 0 -15.811388 
C -4.193229 -15.811388 -8.215279 -14.145401 -11.18034 -11.18034 
C -14.145401 -8.215279 -15.811388 -4.193229 -15.811388 0 
C -15.811388 4.193229 -14.145401 8.215279 -11.18034 11.18034 
C -8.215279 14.145401 -4.193229 15.811388 0 15.811388 
z
" style="stroke: #e5c494"/>
    </defs>
    <g clip-path="url(#p0116a4842b)">
     <use xlink:href="#m1edcdb1af5" x="325.38" y="280.632" style="fill: #e5c494; stroke: #e5c494"/>
    </g>
   </g>
   <g id="PathCollection_7">
    <defs>
     <path id="m4dd2c59b27" d="M 0 15.811388 
C 4.193229 15.811388 8.215279 14.145401 11.18034 11.18034 
C 14.145401 8.215279 15.811388 4.193229 15.811388 0 
C 15.811388 -4.193229 14.145401 -8.215279 11.18034 -11.18034 
C 8.215279 -14.145401 4.193229 -15.811388 0 -15.811388 
C -4.193229 -15.811388 -8.215279 -14.145401 -11.18034 -11.18034 
C -14.145401 -8.215279 -15.811388 -4.193229 -15.811388 0 
C -15.811388 4.193229 -14.145401 8.215279 -11.18034 11.18034 
C -8.215279 14.145401 -4.193229 15.811388 0 15.811388 
z
" style="stroke: #a6d854"/>
    </defs>
    <g clip-path="url(#p0116a4842b)">
     <use xlink:href="#m4dd2c59b27" x="386.76" y="280.632" style="fill: #a6d854; stroke: #a6d854"/>
    </g>
   </g>
   <g id="PathCollection_8">
    <defs>
     <path id="m3fe8c98568" d="M 0 15.811388 
C 4.193229 15.811388 8.215279 14.145401 11.18034 11.18034 
C 14.145401 8.215279 15.811388 4.193229 15.811388 0 
C 15.811388 -4.193229 14.145401 -8.215279 11.18034 -11.18034 
C 8.215279 -14.145401 4.193229 -15.811388 0 -15.811388 
C -4.193229 -15.811388 -8.215279 -14.145401 -11.18034 -11.18034 
C -14.145401 -8.215279 -15.811388 -4.193229 -15.811388 0 
C -15.811388 4.193229 -14.145401 8.215279 -11.18034 11.18034 
C -8.215279 14.145401 -4.193229 15.811388 0 15.811388 
z
" style="stroke: #e78ac3"/>
    </defs>
    <g clip-path="url(#p0116a4842b)">
     <use xlink:href="#m3fe8c98568" x="386.76" y="219.648" style="fill: #e78ac3; stroke: #e78ac3"/>
    </g>
   </g>
   <g id="PathCollection_9">
    <defs>
     <path id="m2aafddd134" d="M 0 15.811388 
C 4.193229 15.811388 8.215279 14.145401 11.18034 11.18034 
C 14.145401 8.215279 15.811388 4.193229 15.811388 0 
C 15.811388 -4.193229 14.145401 -8.215279 11.18034 -11.18034 
C 8.215279 -14.145401 4.193229 -15.811388 0 -15.811388 
C -4.193229 -15.811388 -8.215279 -14.145401 -11.18034 -11.18034 
C -14.145401 -8.215279 -15.811388 -4.193229 -15.811388 0 
C -15.811388 4.193229 -14.145401 8.215279 -11.18034 11.18034 
C -8.215279 14.145401 -4.193229 15.811388 0 15.811388 
z
" style="stroke: #8da0cb"/>
    </defs>
    <g clip-path="url(#p0116a4842b)">
     <use xlink:href="#m2aafddd134" x="386.76" y="341.616" style="fill: #8da0cb; stroke: #8da0cb"/>
    </g>
   </g>
   <g id="PathCollection_10">
    <defs>
     <path id="m05b6653ba3" d="M 0 15.811388 
C 4.193229 15.811388 8.215279 14.145401 11.18034 11.18034 
C 14.145401 8.215279 15.811388 4.193229 15.811388 0 
C 15.811388 -4.193229 14.145401 -8.215279 11.18034 -11.18034 
C 8.215279 -14.145401 4.193229 -15.811388 0 -15.811388 
C -4.193229 -15.811388 -8.215279 -14.145401 -11.18034 -11.18034 
C -14.145401 -8.215279 -15.811388 -4.193229 -15.811388 0 
C -15.811388 4.193229 -14.145401 8.215279 -11.18034 11.18034 
C -8.215279 14.145401 -4.193229 15.811388 0 15.811388 
z
" style="stroke: #de8f05"/>
    </defs>
    <g clip-path="url(#p0116a4842b)">
     <use xlink:href="#m05b6653ba3" x="264" y="189.156" style="fill: #de8f05; stroke: #de8f05"/>
    </g>
   </g>
   <g id="PathCollection_11">
    <defs>
     <path id="m03b09164e5" d="M 0 15.811388 
C 4.193229 15.811388 8.215279 14.145401 11.18034 11.18034 
C 14.145401 8.215279 15.811388 4.193229 15.811388 0 
C 15.811388 -4.193229 14.145401 -8.215279 11.18034 -11.18034 
C 8.215279 -14.145401 4.193229 -15.811388 0 -15.811388 
C -4.193229 -15.811388 -8.215279 -14.145401 -11.18034 -11.18034 
C -14.145401 -8.215279 -15.811388 -4.193229 -15.811388 0 
C -15.811388 4.193229 -14.145401 8.215279 -11.18034 11.18034 
C -8.215279 14.145401 -4.193229 15.811388 0 15.811388 
z
" style="stroke: #80b1d3"/>
    </defs>
    <g clip-path="url(#p0116a4842b)">
     <use xlink:href="#m03b09164e5" x="141.24" y="219.648" style="fill: #80b1d3; stroke: #80b1d3"/>
    </g>
   </g>
   <g id="PathCollection_12">
    <defs>
     <path id="ma450aeb753" d="M 0 15.811388 
C 4.193229 15.811388 8.215279 14.145401 11.18034 11.18034 
C 14.145401 8.215279 15.811388 4.193229 15.811388 0 
C 15.811388 -4.193229 14.145401 -8.215279 11.18034 -11.18034 
C 8.215279 -14.145401 4.193229 -15.811388 0 -15.811388 
C -4.193229 -15.811388 -8.215279 -14.145401 -11.18034 -11.18034 
C -14.145401 -8.215279 -15.811388 -4.193229 -15.811388 0 
C -15.811388 4.193229 -14.145401 8.215279 -11.18034 11.18034 
C -8.215279 14.145401 -4.193229 15.811388 0 15.811388 
z
" style="stroke: #66c2a5"/>
    </defs>
    <g clip-path="url(#p0116a4842b)">
     <use xlink:href="#ma450aeb753" x="79.86" y="219.648" style="fill: #66c2a5; stroke: #66c2a5"/>
    </g>
   </g>
   <g id="PathCollection_13">
    <defs>
     <path id="m967bfb66b7" d="M 0 15.811388 
C 4.193229 15.811388 8.215279 14.145401 11.18034 11.18034 
C 14.145401 8.215279 15.811388 4.193229 15.811388 0 
C 15.811388 -4.193229 14.145401 -8.215279 11.18034 -11.18034 
C 8.215279 -14.145401 4.193229 -15.811388 0 -15.811388 
C -4.193229 -15.811388 -8.215279 -14.145401 -11.18034 -11.18034 
C -14.145401 -8.215279 -15.811388 -4.193229 -15.811388 0 
C -15.811388 4.193229 -14.145401 8.215279 -11.18034 11.18034 
C -8.215279 14.145401 -4.193229 15.811388 0 15.811388 
z
" style="stroke: #fc8d62"/>
    </defs>
    <g clip-path="url(#p0116a4842b)">
     <use xlink:href="#m967bfb66b7" x="79.86" y="280.632" style="fill: #fc8d62; stroke: #fc8d62"/>
    </g>
   </g>
   <g id="text_1">
    <!-- 11 -->
    <g style="fill: #ffffff" transform="translate(196.95 283.321687) scale(0.12 -0.12)">
     <defs>
      <path id="TimesNewRomanPS-BoldMT-31" d="M 2084 4325 
L 2084 859 
Q 2084 469 2118 361 
Q 2153 253 2262 184 
Q 2372 116 2613 116 
L 2709 116 
L 2709 0 
L 478 0 
L 478 116 
L 591 116 
Q 863 116 978 178 
Q 1094 241 1134 350 
Q 1175 459 1175 859 
L 1175 3056 
Q 1175 3350 1147 3423 
Q 1119 3497 1042 3548 
Q 966 3600 866 3600 
Q 706 3600 478 3500 
L 422 3613 
L 1981 4325 
L 2084 4325 
z
" transform="scale(0.015625)"/>
     </defs>
     <use xlink:href="#TimesNewRomanPS-BoldMT-31"/>
     <use xlink:href="#TimesNewRomanPS-BoldMT-31" x="44.5"/>
    </g>
   </g>
   <g id="text_2">
    <!-- 9 -->
    <g style="fill: #ffffff" transform="translate(199.62 222.337688) scale(0.12 -0.12)">
     <defs>
      <path id="TimesNewRomanPS-BoldMT-39" d="M 197 -88 
L 197 0 
Q 716 119 1077 350 
Q 1438 581 1648 922 
Q 1859 1263 1944 1706 
Q 1750 1606 1614 1567 
Q 1478 1528 1328 1528 
Q 847 1528 526 1875 
Q 206 2222 206 2825 
Q 206 3244 379 3592 
Q 553 3941 875 4133 
Q 1197 4325 1544 4325 
Q 1916 4325 2247 4112 
Q 2578 3900 2775 3497 
Q 2972 3094 2972 2578 
Q 2972 1909 2651 1296 
Q 2331 684 1697 314 
Q 1063 -56 197 -88 
z
M 1991 1969 
Q 2022 2319 2022 2584 
Q 2022 3153 1891 3644 
Q 1816 3916 1669 4044 
Q 1591 4113 1466 4113 
Q 1309 4113 1222 3978 
Q 1100 3794 1100 3275 
Q 1100 2409 1306 2081 
Q 1441 1869 1669 1869 
Q 1791 1869 1991 1969 
z
" transform="scale(0.015625)"/>
     </defs>
     <use xlink:href="#TimesNewRomanPS-BoldMT-39"/>
    </g>
   </g>
   <g id="text_3">
    <!-- 12 -->
    <g style="fill: #ffffff" transform="translate(227.31 344.305687) scale(0.12 -0.12)">
     <defs>
      <path id="TimesNewRomanPS-BoldMT-32" d="M 2650 0 
L 156 0 
L 156 69 
Q 1303 1434 1548 1906 
Q 1794 2378 1794 2828 
Q 1794 3156 1591 3373 
Q 1388 3591 1094 3591 
Q 613 3591 347 3109 
L 231 3150 
Q 400 3750 744 4037 
Q 1088 4325 1538 4325 
Q 1859 4325 2125 4175 
Q 2391 4025 2541 3764 
Q 2691 3503 2691 3275 
Q 2691 2859 2459 2431 
Q 2144 1853 1081 819 
L 1997 819 
Q 2334 819 2436 847 
Q 2538 875 2603 942 
Q 2669 1009 2775 1225 
L 2888 1225 
L 2650 0 
z
" transform="scale(0.015625)"/>
     </defs>
     <use xlink:href="#TimesNewRomanPS-BoldMT-31"/>
     <use xlink:href="#TimesNewRomanPS-BoldMT-32" x="50"/>
    </g>
   </g>
   <g id="text_4">
    <!-- 8 -->
    <g style="fill: #ffffff" transform="translate(261 252.829688) scale(0.12 -0.12)">
     <defs>
      <path id="TimesNewRomanPS-BoldMT-38" d="M 2181 2394 
Q 2628 2066 2801 1783 
Q 2975 1500 2975 1134 
Q 2975 622 2589 267 
Q 2203 -88 1541 -88 
Q 913 -88 569 221 
Q 225 531 225 978 
Q 225 1319 423 1575 
Q 622 1831 1084 2044 
Q 581 2428 439 2672 
Q 297 2916 297 3238 
Q 297 3663 658 3986 
Q 1019 4309 1647 4309 
Q 2253 4309 2579 4023 
Q 2906 3738 2906 3338 
Q 2906 3038 2729 2808 
Q 2553 2578 2181 2394 
z
M 1944 2553 
Q 2059 2709 2115 2903 
Q 2172 3097 2172 3328 
Q 2172 3734 1997 3950 
Q 1866 4116 1634 4116 
Q 1425 4116 1278 3964 
Q 1131 3813 1131 3588 
Q 1131 3359 1295 3114 
Q 1459 2869 1944 2553 
z
M 1319 1894 
Q 1222 1806 1181 1734 
Q 1119 1625 1069 1415 
Q 1019 1206 1019 978 
Q 1019 684 1094 486 
Q 1169 288 1308 200 
Q 1447 113 1594 113 
Q 1822 113 1978 280 
Q 2134 447 2134 738 
Q 2134 1344 1319 1894 
z
" transform="scale(0.015625)"/>
     </defs>
     <use xlink:href="#TimesNewRomanPS-BoldMT-38"/>
    </g>
   </g>
   <g id="text_5">
    <!-- 6 -->
    <g style="fill: #ffffff" transform="translate(322.38 222.337688) scale(0.12 -0.12)">
     <defs>
      <path id="TimesNewRomanPS-BoldMT-36" d="M 3006 4325 
L 3006 4238 
Q 2441 4094 2098 3867 
Q 1756 3641 1557 3317 
Q 1359 2994 1250 2516 
Q 1388 2609 1478 2638 
Q 1681 2700 1888 2700 
Q 2363 2700 2680 2354 
Q 2997 2009 2997 1413 
Q 2997 994 2825 644 
Q 2653 294 2337 103 
Q 2022 -88 1663 -88 
Q 1272 -88 940 126 
Q 609 341 423 753 
Q 238 1166 238 1650 
Q 238 2363 580 2977 
Q 922 3591 1551 3955 
Q 2181 4319 3006 4325 
z
M 1209 2263 
Q 1184 1831 1184 1631 
Q 1184 1200 1267 797 
Q 1350 394 1494 231 
Q 1597 116 1738 116 
Q 1881 116 1993 283 
Q 2106 450 2106 963 
Q 2106 1825 1897 2153 
Q 1763 2366 1534 2366 
Q 1409 2366 1209 2263 
z
" transform="scale(0.015625)"/>
     </defs>
     <use xlink:href="#TimesNewRomanPS-BoldMT-36"/>
    </g>
   </g>
   <g id="text_6">
    <!-- 7 -->
    <g style="fill: #ffffff" transform="translate(322.38 283.321687) scale(0.12 -0.12)">
     <defs>
      <path id="TimesNewRomanPS-BoldMT-37" d="M 1134 -88 
L 2288 3409 
L 1409 3409 
Q 894 3409 634 3275 
Q 453 3181 334 2922 
L 216 2922 
L 522 4238 
L 3047 4238 
L 1625 -88 
L 1134 -88 
z
" transform="scale(0.015625)"/>
     </defs>
     <use xlink:href="#TimesNewRomanPS-BoldMT-37"/>
    </g>
   </g>
   <g id="text_7">
    <!-- 5 -->
    <g style="fill: #ffffff" transform="translate(383.76 283.321687) scale(0.12 -0.12)">
     <defs>
      <path id="TimesNewRomanPS-BoldMT-35" d="M 975 4238 
L 2959 4238 
L 2644 3431 
L 975 3431 
L 816 3009 
Q 1894 2969 2475 2472 
Q 2953 2063 2953 1453 
Q 2953 1063 2731 689 
Q 2509 316 2106 114 
Q 1703 -88 1222 -88 
Q 703 -88 425 106 
Q 231 244 231 419 
Q 231 553 332 656 
Q 434 759 569 759 
Q 691 759 816 709 
Q 941 659 1244 447 
Q 1434 316 1572 266 
Q 1669 228 1791 228 
Q 2047 228 2226 415 
Q 2406 603 2406 866 
Q 2406 1416 1856 1759 
Q 1306 2103 469 2103 
Q 384 2103 216 2100 
L 975 4238 
z
" transform="scale(0.015625)"/>
     </defs>
     <use xlink:href="#TimesNewRomanPS-BoldMT-35"/>
    </g>
   </g>
   <g id="text_8">
    <!-- 4 -->
    <g style="fill: #ffffff" transform="translate(383.76 222.337688) scale(0.12 -0.12)">
     <defs>
      <path id="TimesNewRomanPS-BoldMT-34" d="M 159 1597 
L 2172 4325 
L 2553 4325 
L 2553 1597 
L 2941 1597 
L 2941 950 
L 2553 950 
L 2553 0 
L 1694 0 
L 1694 950 
L 159 950 
L 159 1597 
z
M 463 1597 
L 1694 1597 
L 1694 3269 
L 463 1597 
z
" transform="scale(0.015625)"/>
     </defs>
     <use xlink:href="#TimesNewRomanPS-BoldMT-34"/>
    </g>
   </g>
   <g id="text_9">
    <!-- 3 -->
    <g style="fill: #ffffff" transform="translate(383.76 344.305687) scale(0.12 -0.12)">
     <defs>
      <path id="TimesNewRomanPS-BoldMT-33" d="M 947 2125 
L 947 2234 
Q 1303 2338 1440 2427 
Q 1578 2516 1678 2698 
Q 1778 2881 1778 3069 
Q 1778 3328 1589 3514 
Q 1400 3700 1119 3700 
Q 681 3700 375 3238 
L 259 3278 
Q 484 3800 836 4062 
Q 1188 4325 1619 4325 
Q 2059 4325 2345 4056 
Q 2631 3788 2631 3428 
Q 2631 3194 2498 2976 
Q 2366 2759 2081 2594 
Q 2447 2416 2639 2155 
Q 2831 1894 2831 1500 
Q 2831 838 2351 373 
Q 1872 -91 1066 -91 
Q 528 -91 281 88 
Q 103 213 103 409 
Q 103 553 206 654 
Q 309 756 444 756 
Q 547 756 638 713 
Q 688 688 992 439 
Q 1297 191 1563 191 
Q 1794 191 1959 373 
Q 2125 556 2125 838 
Q 2125 1266 1825 1627 
Q 1525 1988 947 2125 
z
" transform="scale(0.015625)"/>
     </defs>
     <use xlink:href="#TimesNewRomanPS-BoldMT-33"/>
    </g>
   </g>
   <g id="text_10">
    <!-- 10 -->
    <g style="fill: #ffffff" transform="translate(258 191.845687) scale(0.12 -0.12)">
     <defs>
      <path id="TimesNewRomanPS-BoldMT-30" d="M 2966 2119 
Q 2966 1484 2788 934 
Q 2681 597 2501 381 
Q 2322 166 2094 39 
Q 1866 -88 1597 -88 
Q 1291 -88 1044 68 
Q 797 225 606 516 
Q 469 728 366 1081 
Q 231 1559 231 2069 
Q 231 2759 425 3338 
Q 584 3816 909 4070 
Q 1234 4325 1597 4325 
Q 1966 4325 2286 4073 
Q 2606 3822 2756 3397 
Q 2966 2813 2966 2119 
z
M 2003 2125 
Q 2003 3238 1991 3422 
Q 1959 3856 1841 4009 
Q 1763 4109 1588 4109 
Q 1453 4109 1375 4034 
Q 1259 3925 1218 3648 
Q 1178 3372 1178 1719 
Q 1178 819 1241 513 
Q 1288 291 1375 216 
Q 1463 141 1606 141 
Q 1763 141 1841 241 
Q 1972 416 1991 781 
L 2003 2125 
z
" transform="scale(0.015625)"/>
     </defs>
     <use xlink:href="#TimesNewRomanPS-BoldMT-31"/>
     <use xlink:href="#TimesNewRomanPS-BoldMT-30" x="50"/>
    </g>
   </g>
   <g id="text_11">
    <!-- 13 -->
    <g style="fill: #ffffff" transform="translate(135.24 222.337688) scale(0.12 -0.12)">
     <use xlink:href="#TimesNewRomanPS-BoldMT-31"/>
     <use xlink:href="#TimesNewRomanPS-BoldMT-33" x="50"/>
    </g>
   </g>
   <g id="text_12">
    <!-- 1 -->
    <g style="fill: #ffffff" transform="translate(76.86 222.337688) scale(0.12 -0.12)">
     <use xlink:href="#TimesNewRomanPS-BoldMT-31"/>
    </g>
   </g>
   <g id="text_13">
    <!-- 2 -->
    <g style="fill: #ffffff" transform="translate(76.86 283.321687) scale(0.12 -0.12)">
     <use xlink:href="#TimesNewRomanPS-BoldMT-32"/>
    </g>
   </g>
  </g>
 </g>
 <defs>
  <clipPath id="p0116a4842b">
   <rect x="59.4" y="57.024" width="368.28" height="365.904"/>
  </clipPath>
 </defs>
</svg>
