<?xml version="1.0" encoding="utf-8" standalone="no"?>
<!DOCTYPE svg PUBLIC "-//W3C//DTD SVG 1.1//EN"
  "http://www.w3.org/Graphics/SVG/1.1/DTD/svg11.dtd">
<svg xmlns:xlink="http://www.w3.org/1999/xlink" width="288pt" height="230.4pt" viewBox="0 0 288 230.4" xmlns="http://www.w3.org/2000/svg" version="1.1">
 <metadata>
  <rdf:RDF xmlns:dc="http://purl.org/dc/elements/1.1/" xmlns:cc="http://creativecommons.org/ns#" xmlns:rdf="http://www.w3.org/1999/02/22-rdf-syntax-ns#">
   <cc:Work>
    <dc:type rdf:resource="http://purl.org/dc/dcmitype/StillImage"/>
    <dc:date>2024-07-21T17:28:18.021695</dc:date>
    <dc:format>image/svg+xml</dc:format>
    <dc:creator>
     <cc:Agent>
      <dc:title>Matplotlib v3.9.0, https://matplotlib.org/</dc:title>
     </cc:Agent>
    </dc:creator>
   </cc:Work>
  </rdf:RDF>
 </metadata>
 <defs>
  <style type="text/css">*{stroke-linejoin: round; stroke-linecap: butt}</style>
 </defs>
 <g id="figure_1">
  <g id="patch_1">
   <path d="M 0 230.4 
L 288 230.4 
L 288 0 
L 0 0 
z
" style="fill: #ffffff"/>
  </g>
  <g id="axes_1">
   <g id="patch_2">
    <path d="M 45.12 181.416412 
L 277.2 181.416412 
L 277.2 10.8 
L 45.12 10.8 
z
" style="fill: #ffffff"/>
   </g>
   <g id="matplotlib.axis_1">
    <g id="xtick_1">
     <g id="line2d_1">
      <path d="M 240.361905 181.416412 
L 240.361905 10.8 
" clip-path="url(#paa85aac6d1)" style="fill: none; stroke: #cccccc; stroke-width: 0.8; stroke-linecap: round"/>
     </g>
     <g id="line2d_2"/>
     <g id="text_1">
      <!-- 6 hours -->
      <g style="fill: #262626" transform="translate(215.373414 213.560866) rotate(-45) scale(0.1 -0.1)">
       <defs>
        <path id="ArialMT-36" d="M 3184 3459 
L 2625 3416 
Q 2550 3747 2413 3897 
Q 2184 4138 1850 4138 
Q 1581 4138 1378 3988 
Q 1113 3794 959 3422 
Q 806 3050 800 2363 
Q 1003 2672 1297 2822 
Q 1591 2972 1913 2972 
Q 2475 2972 2870 2558 
Q 3266 2144 3266 1488 
Q 3266 1056 3080 686 
Q 2894 316 2569 119 
Q 2244 -78 1831 -78 
Q 1128 -78 684 439 
Q 241 956 241 2144 
Q 241 3472 731 4075 
Q 1159 4600 1884 4600 
Q 2425 4600 2770 4297 
Q 3116 3994 3184 3459 
z
M 888 1484 
Q 888 1194 1011 928 
Q 1134 663 1356 523 
Q 1578 384 1822 384 
Q 2178 384 2434 671 
Q 2691 959 2691 1453 
Q 2691 1928 2437 2201 
Q 2184 2475 1800 2475 
Q 1419 2475 1153 2201 
Q 888 1928 888 1484 
z
" transform="scale(0.015625)"/>
        <path id="ArialMT-20" transform="scale(0.015625)"/>
        <path id="ArialMT-68" d="M 422 0 
L 422 4581 
L 984 4581 
L 984 2938 
Q 1378 3394 1978 3394 
Q 2347 3394 2619 3248 
Q 2891 3103 3008 2847 
Q 3125 2591 3125 2103 
L 3125 0 
L 2563 0 
L 2563 2103 
Q 2563 2525 2380 2717 
Q 2197 2909 1863 2909 
Q 1613 2909 1392 2779 
Q 1172 2650 1078 2428 
Q 984 2206 984 1816 
L 984 0 
L 422 0 
z
" transform="scale(0.015625)"/>
        <path id="ArialMT-6f" d="M 213 1659 
Q 213 2581 725 3025 
Q 1153 3394 1769 3394 
Q 2453 3394 2887 2945 
Q 3322 2497 3322 1706 
Q 3322 1066 3130 698 
Q 2938 331 2570 128 
Q 2203 -75 1769 -75 
Q 1072 -75 642 372 
Q 213 819 213 1659 
z
M 791 1659 
Q 791 1022 1069 705 
Q 1347 388 1769 388 
Q 2188 388 2466 706 
Q 2744 1025 2744 1678 
Q 2744 2294 2464 2611 
Q 2184 2928 1769 2928 
Q 1347 2928 1069 2612 
Q 791 2297 791 1659 
z
" transform="scale(0.015625)"/>
        <path id="ArialMT-75" d="M 2597 0 
L 2597 488 
Q 2209 -75 1544 -75 
Q 1250 -75 995 37 
Q 741 150 617 320 
Q 494 491 444 738 
Q 409 903 409 1263 
L 409 3319 
L 972 3319 
L 972 1478 
Q 972 1038 1006 884 
Q 1059 663 1231 536 
Q 1403 409 1656 409 
Q 1909 409 2131 539 
Q 2353 669 2445 892 
Q 2538 1116 2538 1541 
L 2538 3319 
L 3100 3319 
L 3100 0 
L 2597 0 
z
" transform="scale(0.015625)"/>
        <path id="ArialMT-72" d="M 416 0 
L 416 3319 
L 922 3319 
L 922 2816 
Q 1116 3169 1280 3281 
Q 1444 3394 1641 3394 
Q 1925 3394 2219 3213 
L 2025 2691 
Q 1819 2813 1613 2813 
Q 1428 2813 1281 2702 
Q 1134 2591 1072 2394 
Q 978 2094 978 1738 
L 978 0 
L 416 0 
z
" transform="scale(0.015625)"/>
        <path id="ArialMT-73" d="M 197 991 
L 753 1078 
Q 800 744 1014 566 
Q 1228 388 1613 388 
Q 2000 388 2187 545 
Q 2375 703 2375 916 
Q 2375 1106 2209 1216 
Q 2094 1291 1634 1406 
Q 1016 1563 777 1677 
Q 538 1791 414 1992 
Q 291 2194 291 2438 
Q 291 2659 392 2848 
Q 494 3038 669 3163 
Q 800 3259 1026 3326 
Q 1253 3394 1513 3394 
Q 1903 3394 2198 3281 
Q 2494 3169 2634 2976 
Q 2775 2784 2828 2463 
L 2278 2388 
Q 2241 2644 2061 2787 
Q 1881 2931 1553 2931 
Q 1166 2931 1000 2803 
Q 834 2675 834 2503 
Q 834 2394 903 2306 
Q 972 2216 1119 2156 
Q 1203 2125 1616 2013 
Q 2213 1853 2448 1751 
Q 2684 1650 2818 1456 
Q 2953 1263 2953 975 
Q 2953 694 2789 445 
Q 2625 197 2315 61 
Q 2006 -75 1616 -75 
Q 969 -75 630 194 
Q 291 463 197 991 
z
" transform="scale(0.015625)"/>
       </defs>
       <use xlink:href="#ArialMT-36"/>
       <use xlink:href="#ArialMT-20" x="55.615234"/>
       <use xlink:href="#ArialMT-68" x="83.398438"/>
       <use xlink:href="#ArialMT-6f" x="139.013672"/>
       <use xlink:href="#ArialMT-75" x="194.628906"/>
       <use xlink:href="#ArialMT-72" x="250.244141"/>
       <use xlink:href="#ArialMT-73" x="283.544922"/>
      </g>
     </g>
    </g>
    <g id="xtick_2">
     <g id="line2d_3">
      <path d="M 194.314286 181.416412 
L 194.314286 10.8 
" clip-path="url(#paa85aac6d1)" style="fill: none; stroke: #cccccc; stroke-width: 0.8; stroke-linecap: round"/>
     </g>
     <g id="line2d_4"/>
     <g id="text_2">
      <!-- 8 hours -->
      <g style="fill: #262626" transform="translate(169.325795 213.560866) rotate(-45) scale(0.1 -0.1)">
       <defs>
        <path id="ArialMT-38" d="M 1131 2484 
Q 781 2613 612 2850 
Q 444 3088 444 3419 
Q 444 3919 803 4259 
Q 1163 4600 1759 4600 
Q 2359 4600 2725 4251 
Q 3091 3903 3091 3403 
Q 3091 3084 2923 2848 
Q 2756 2613 2416 2484 
Q 2838 2347 3058 2040 
Q 3278 1734 3278 1309 
Q 3278 722 2862 322 
Q 2447 -78 1769 -78 
Q 1091 -78 675 323 
Q 259 725 259 1325 
Q 259 1772 486 2073 
Q 713 2375 1131 2484 
z
M 1019 3438 
Q 1019 3113 1228 2906 
Q 1438 2700 1772 2700 
Q 2097 2700 2305 2904 
Q 2513 3109 2513 3406 
Q 2513 3716 2298 3927 
Q 2084 4138 1766 4138 
Q 1444 4138 1231 3931 
Q 1019 3725 1019 3438 
z
M 838 1322 
Q 838 1081 952 856 
Q 1066 631 1291 507 
Q 1516 384 1775 384 
Q 2178 384 2440 643 
Q 2703 903 2703 1303 
Q 2703 1709 2433 1975 
Q 2163 2241 1756 2241 
Q 1359 2241 1098 1978 
Q 838 1716 838 1322 
z
" transform="scale(0.015625)"/>
       </defs>
       <use xlink:href="#ArialMT-38"/>
       <use xlink:href="#ArialMT-20" x="55.615234"/>
       <use xlink:href="#ArialMT-68" x="83.398438"/>
       <use xlink:href="#ArialMT-6f" x="139.013672"/>
       <use xlink:href="#ArialMT-75" x="194.628906"/>
       <use xlink:href="#ArialMT-72" x="250.244141"/>
       <use xlink:href="#ArialMT-73" x="283.544922"/>
      </g>
     </g>
    </g>
    <g id="xtick_3">
     <g id="line2d_5">
      <path d="M 148.266667 181.416412 
L 148.266667 10.8 
" clip-path="url(#paa85aac6d1)" style="fill: none; stroke: #cccccc; stroke-width: 0.8; stroke-linecap: round"/>
     </g>
     <g id="line2d_6"/>
     <g id="text_3">
      <!-- 12 hours -->
      <g style="fill: #262626" transform="translate(119.345999 217.493043) rotate(-45) scale(0.1 -0.1)">
       <defs>
        <path id="ArialMT-31" d="M 2384 0 
L 1822 0 
L 1822 3584 
Q 1619 3391 1289 3197 
Q 959 3003 697 2906 
L 697 3450 
Q 1169 3672 1522 3987 
Q 1875 4303 2022 4600 
L 2384 4600 
L 2384 0 
z
" transform="scale(0.015625)"/>
        <path id="ArialMT-32" d="M 3222 541 
L 3222 0 
L 194 0 
Q 188 203 259 391 
Q 375 700 629 1000 
Q 884 1300 1366 1694 
Q 2113 2306 2375 2664 
Q 2638 3022 2638 3341 
Q 2638 3675 2398 3904 
Q 2159 4134 1775 4134 
Q 1369 4134 1125 3890 
Q 881 3647 878 3216 
L 300 3275 
Q 359 3922 746 4261 
Q 1134 4600 1788 4600 
Q 2447 4600 2831 4234 
Q 3216 3869 3216 3328 
Q 3216 3053 3103 2787 
Q 2991 2522 2730 2228 
Q 2469 1934 1863 1422 
Q 1356 997 1212 845 
Q 1069 694 975 541 
L 3222 541 
z
" transform="scale(0.015625)"/>
       </defs>
       <use xlink:href="#ArialMT-31"/>
       <use xlink:href="#ArialMT-32" x="55.615234"/>
       <use xlink:href="#ArialMT-20" x="111.230469"/>
       <use xlink:href="#ArialMT-68" x="139.013672"/>
       <use xlink:href="#ArialMT-6f" x="194.628906"/>
       <use xlink:href="#ArialMT-75" x="250.244141"/>
       <use xlink:href="#ArialMT-72" x="305.859375"/>
       <use xlink:href="#ArialMT-73" x="339.160156"/>
      </g>
     </g>
    </g>
    <g id="xtick_4">
     <g id="line2d_7">
      <path d="M 102.219048 181.416412 
L 102.219048 10.8 
" clip-path="url(#paa85aac6d1)" style="fill: none; stroke: #cccccc; stroke-width: 0.8; stroke-linecap: round"/>
     </g>
     <g id="line2d_8"/>
     <g id="text_4">
      <!-- Daily -->
      <g style="fill: #262626" transform="translate(85.014256 205.694303) rotate(-45) scale(0.1 -0.1)">
       <defs>
        <path id="ArialMT-44" d="M 494 0 
L 494 4581 
L 2072 4581 
Q 2606 4581 2888 4516 
Q 3281 4425 3559 4188 
Q 3922 3881 4101 3404 
Q 4281 2928 4281 2316 
Q 4281 1794 4159 1391 
Q 4038 988 3847 723 
Q 3656 459 3429 307 
Q 3203 156 2883 78 
Q 2563 0 2147 0 
L 494 0 
z
M 1100 541 
L 2078 541 
Q 2531 541 2789 625 
Q 3047 709 3200 863 
Q 3416 1078 3536 1442 
Q 3656 1806 3656 2325 
Q 3656 3044 3420 3430 
Q 3184 3816 2847 3947 
Q 2603 4041 2063 4041 
L 1100 4041 
L 1100 541 
z
" transform="scale(0.015625)"/>
        <path id="ArialMT-61" d="M 2588 409 
Q 2275 144 1986 34 
Q 1697 -75 1366 -75 
Q 819 -75 525 192 
Q 231 459 231 875 
Q 231 1119 342 1320 
Q 453 1522 633 1644 
Q 813 1766 1038 1828 
Q 1203 1872 1538 1913 
Q 2219 1994 2541 2106 
Q 2544 2222 2544 2253 
Q 2544 2597 2384 2738 
Q 2169 2928 1744 2928 
Q 1347 2928 1158 2789 
Q 969 2650 878 2297 
L 328 2372 
Q 403 2725 575 2942 
Q 747 3159 1072 3276 
Q 1397 3394 1825 3394 
Q 2250 3394 2515 3294 
Q 2781 3194 2906 3042 
Q 3031 2891 3081 2659 
Q 3109 2516 3109 2141 
L 3109 1391 
Q 3109 606 3145 398 
Q 3181 191 3288 0 
L 2700 0 
Q 2613 175 2588 409 
z
M 2541 1666 
Q 2234 1541 1622 1453 
Q 1275 1403 1131 1340 
Q 988 1278 909 1158 
Q 831 1038 831 891 
Q 831 666 1001 516 
Q 1172 366 1500 366 
Q 1825 366 2078 508 
Q 2331 650 2450 897 
Q 2541 1088 2541 1459 
L 2541 1666 
z
" transform="scale(0.015625)"/>
        <path id="ArialMT-69" d="M 425 3934 
L 425 4581 
L 988 4581 
L 988 3934 
L 425 3934 
z
M 425 0 
L 425 3319 
L 988 3319 
L 988 0 
L 425 0 
z
" transform="scale(0.015625)"/>
        <path id="ArialMT-6c" d="M 409 0 
L 409 4581 
L 972 4581 
L 972 0 
L 409 0 
z
" transform="scale(0.015625)"/>
        <path id="ArialMT-79" d="M 397 -1278 
L 334 -750 
Q 519 -800 656 -800 
Q 844 -800 956 -737 
Q 1069 -675 1141 -563 
Q 1194 -478 1313 -144 
Q 1328 -97 1363 -6 
L 103 3319 
L 709 3319 
L 1400 1397 
Q 1534 1031 1641 628 
Q 1738 1016 1872 1384 
L 2581 3319 
L 3144 3319 
L 1881 -56 
Q 1678 -603 1566 -809 
Q 1416 -1088 1222 -1217 
Q 1028 -1347 759 -1347 
Q 597 -1347 397 -1278 
z
" transform="scale(0.015625)"/>
       </defs>
       <use xlink:href="#ArialMT-44"/>
       <use xlink:href="#ArialMT-61" x="72.216797"/>
       <use xlink:href="#ArialMT-69" x="127.832031"/>
       <use xlink:href="#ArialMT-6c" x="150.048828"/>
       <use xlink:href="#ArialMT-79" x="172.265625"/>
      </g>
     </g>
    </g>
    <g id="xtick_5">
     <g id="line2d_9">
      <path d="M 62.74966 181.416412 
L 62.74966 10.8 
" clip-path="url(#paa85aac6d1)" style="fill: none; stroke: #cccccc; stroke-width: 0.8; stroke-linecap: round"/>
     </g>
     <g id="line2d_10"/>
     <g id="text_5">
      <!-- Weekly -->
      <g style="fill: #262626" transform="translate(38.204216 213.034955) rotate(-45) scale(0.1 -0.1)">
       <defs>
        <path id="ArialMT-57" d="M 1294 0 
L 78 4581 
L 700 4581 
L 1397 1578 
Q 1509 1106 1591 641 
Q 1766 1375 1797 1488 
L 2669 4581 
L 3400 4581 
L 4056 2263 
Q 4303 1400 4413 641 
Q 4500 1075 4641 1638 
L 5359 4581 
L 5969 4581 
L 4713 0 
L 4128 0 
L 3163 3491 
Q 3041 3928 3019 4028 
Q 2947 3713 2884 3491 
L 1913 0 
L 1294 0 
z
" transform="scale(0.015625)"/>
        <path id="ArialMT-65" d="M 2694 1069 
L 3275 997 
Q 3138 488 2766 206 
Q 2394 -75 1816 -75 
Q 1088 -75 661 373 
Q 234 822 234 1631 
Q 234 2469 665 2931 
Q 1097 3394 1784 3394 
Q 2450 3394 2872 2941 
Q 3294 2488 3294 1666 
Q 3294 1616 3291 1516 
L 816 1516 
Q 847 969 1125 678 
Q 1403 388 1819 388 
Q 2128 388 2347 550 
Q 2566 713 2694 1069 
z
M 847 1978 
L 2700 1978 
Q 2663 2397 2488 2606 
Q 2219 2931 1791 2931 
Q 1403 2931 1139 2672 
Q 875 2413 847 1978 
z
" transform="scale(0.015625)"/>
        <path id="ArialMT-6b" d="M 425 0 
L 425 4581 
L 988 4581 
L 988 1969 
L 2319 3319 
L 3047 3319 
L 1778 2088 
L 3175 0 
L 2481 0 
L 1384 1697 
L 988 1316 
L 988 0 
L 425 0 
z
" transform="scale(0.015625)"/>
       </defs>
       <use xlink:href="#ArialMT-57"/>
       <use xlink:href="#ArialMT-65" x="92.634766"/>
       <use xlink:href="#ArialMT-65" x="148.25"/>
       <use xlink:href="#ArialMT-6b" x="203.865234"/>
       <use xlink:href="#ArialMT-6c" x="253.865234"/>
       <use xlink:href="#ArialMT-79" x="276.082031"/>
      </g>
     </g>
    </g>
   </g>
   <g id="matplotlib.axis_2">
    <g id="ytick_1">
     <g id="line2d_11"/>
     <g id="text_6">
      <!-- 0 -->
      <g style="fill: #262626" transform="translate(36.059063 177.241771) scale(0.1 -0.1)">
       <defs>
        <path id="ArialMT-30" d="M 266 2259 
Q 266 3072 433 3567 
Q 600 4063 929 4331 
Q 1259 4600 1759 4600 
Q 2128 4600 2406 4451 
Q 2684 4303 2865 4023 
Q 3047 3744 3150 3342 
Q 3253 2941 3253 2259 
Q 3253 1453 3087 958 
Q 2922 463 2592 192 
Q 2263 -78 1759 -78 
Q 1097 -78 719 397 
Q 266 969 266 2259 
z
M 844 2259 
Q 844 1131 1108 757 
Q 1372 384 1759 384 
Q 2147 384 2411 759 
Q 2675 1134 2675 2259 
Q 2675 3391 2411 3762 
Q 2147 4134 1753 4134 
Q 1366 4134 1134 3806 
Q 844 3388 844 2259 
z
" transform="scale(0.015625)"/>
       </defs>
       <use xlink:href="#ArialMT-30"/>
      </g>
     </g>
    </g>
    <g id="ytick_2">
     <g id="line2d_12"/>
     <g id="text_7">
      <!-- 20 -->
      <g style="fill: #262626" transform="translate(30.498125 155.547026) scale(0.1 -0.1)">
       <use xlink:href="#ArialMT-32"/>
       <use xlink:href="#ArialMT-30" x="55.615234"/>
      </g>
     </g>
    </g>
    <g id="ytick_3">
     <g id="line2d_13"/>
     <g id="text_8">
      <!-- 40 -->
      <g style="fill: #262626" transform="translate(30.498125 133.85228) scale(0.1 -0.1)">
       <defs>
        <path id="ArialMT-34" d="M 2069 0 
L 2069 1097 
L 81 1097 
L 81 1613 
L 2172 4581 
L 2631 4581 
L 2631 1613 
L 3250 1613 
L 3250 1097 
L 2631 1097 
L 2631 0 
L 2069 0 
z
M 2069 1613 
L 2069 3678 
L 634 1613 
L 2069 1613 
z
" transform="scale(0.015625)"/>
       </defs>
       <use xlink:href="#ArialMT-34"/>
       <use xlink:href="#ArialMT-30" x="55.615234"/>
      </g>
     </g>
    </g>
    <g id="ytick_4">
     <g id="line2d_14"/>
     <g id="text_9">
      <!-- 60 -->
      <g style="fill: #262626" transform="translate(30.498125 112.157534) scale(0.1 -0.1)">
       <use xlink:href="#ArialMT-36"/>
       <use xlink:href="#ArialMT-30" x="55.615234"/>
      </g>
     </g>
    </g>
    <g id="ytick_5">
     <g id="line2d_15"/>
     <g id="text_10">
      <!-- 80 -->
      <g style="fill: #262626" transform="translate(30.498125 90.462788) scale(0.1 -0.1)">
       <use xlink:href="#ArialMT-38"/>
       <use xlink:href="#ArialMT-30" x="55.615234"/>
      </g>
     </g>
    </g>
    <g id="ytick_6">
     <g id="line2d_16"/>
     <g id="text_11">
      <!-- 100 -->
      <g style="fill: #262626" transform="translate(24.937188 68.768043) scale(0.1 -0.1)">
       <use xlink:href="#ArialMT-31"/>
       <use xlink:href="#ArialMT-30" x="55.615234"/>
       <use xlink:href="#ArialMT-30" x="111.230469"/>
      </g>
     </g>
    </g>
    <g id="ytick_7">
     <g id="line2d_17"/>
     <g id="text_12">
      <!-- 120 -->
      <g style="fill: #262626" transform="translate(24.937188 47.073297) scale(0.1 -0.1)">
       <use xlink:href="#ArialMT-31"/>
       <use xlink:href="#ArialMT-32" x="55.615234"/>
       <use xlink:href="#ArialMT-30" x="111.230469"/>
      </g>
     </g>
    </g>
    <g id="ytick_8">
     <g id="line2d_18"/>
     <g id="text_13">
      <!-- 140 -->
      <g style="fill: #262626" transform="translate(24.937188 25.378551) scale(0.1 -0.1)">
       <use xlink:href="#ArialMT-31"/>
       <use xlink:href="#ArialMT-34" x="55.615234"/>
       <use xlink:href="#ArialMT-30" x="111.230469"/>
      </g>
     </g>
    </g>
    <g id="text_14">
     <!-- GW -->
     <g style="fill: #262626" transform="translate(18.949688 104.7168) rotate(-90) scale(0.1 -0.1)">
      <defs>
       <path id="ArialMT-47" d="M 2638 1797 
L 2638 2334 
L 4578 2338 
L 4578 638 
Q 4131 281 3656 101 
Q 3181 -78 2681 -78 
Q 2006 -78 1454 211 
Q 903 500 622 1047 
Q 341 1594 341 2269 
Q 341 2938 620 3517 
Q 900 4097 1425 4378 
Q 1950 4659 2634 4659 
Q 3131 4659 3532 4498 
Q 3934 4338 4162 4050 
Q 4391 3763 4509 3300 
L 3963 3150 
Q 3859 3500 3706 3700 
Q 3553 3900 3268 4020 
Q 2984 4141 2638 4141 
Q 2222 4141 1919 4014 
Q 1616 3888 1430 3681 
Q 1244 3475 1141 3228 
Q 966 2803 966 2306 
Q 966 1694 1177 1281 
Q 1388 869 1791 669 
Q 2194 469 2647 469 
Q 3041 469 3416 620 
Q 3791 772 3984 944 
L 3984 1797 
L 2638 1797 
z
" transform="scale(0.015625)"/>
      </defs>
      <use xlink:href="#ArialMT-47"/>
      <use xlink:href="#ArialMT-57" x="77.783203"/>
     </g>
    </g>
   </g>
   <g id="line2d_19">
    <path d="M 56.171429 18.555291 
L 56.423744 158.358716 
L 56.549902 151.314566 
L 56.67606 141.890561 
L 56.802218 119.026986 
L 56.928376 171.99944 
L 57.054534 153.440787 
L 57.306849 163.803569 
L 57.433007 145.849913 
L 57.685323 166.257243 
L 57.811481 160.885274 
L 57.937639 162.288714 
L 58.063796 153.415696 
L 58.189954 135.677829 
L 58.568428 166.34108 
L 58.694586 146.983562 
L 58.946902 165.301291 
L 59.073059 136.599358 
L 59.199217 162.386451 
L 59.325375 152.603335 
L 59.451533 171.229516 
L 59.703849 149.688999 
L 59.830007 160.407284 
L 59.956164 151.841822 
L 60.082322 166.090834 
L 60.20848 153.512299 
L 60.334638 155.423486 
L 60.460796 154.761862 
L 60.586954 152.348967 
L 61.091585 164.631182 
L 61.217743 163.738988 
L 61.343901 151.919779 
L 61.722374 169.173662 
L 61.97469 146.261409 
L 62.227006 169.374533 
L 62.479322 142.144847 
L 62.605479 159.503732 
L 62.731637 148.737971 
L 62.857795 166.863754 
L 62.983953 147.540456 
L 63.110111 160.939463 
L 63.362427 156.232767 
L 63.488584 164.156361 
L 63.614742 164.796973 
L 63.7409 170.78562 
L 63.867058 169.431139 
L 63.993216 153.708753 
L 64.119374 165.540661 
L 64.245532 164.725646 
L 64.371689 157.877685 
L 64.497847 173.493207 
L 64.624005 165.10614 
L 64.750163 166.319221 
L 64.876321 161.274308 
L 65.002479 163.925014 
L 65.254795 172.699212 
L 65.380952 160.318898 
L 65.50711 161.824079 
L 65.759426 150.563765 
L 65.885584 156.184153 
L 66.011742 168.255968 
L 66.1379 145.706347 
L 66.264057 167.350152 
L 66.390215 161.196875 
L 66.642531 168.597454 
L 67.021005 162.973123 
L 67.147162 166.215118 
L 67.27332 160.01079 
L 67.399478 162.105861 
L 67.525636 168.797003 
L 67.651794 162.296143 
L 67.777952 167.909256 
L 67.90411 167.537545 
L 68.030267 161.190179 
L 68.156425 162.489116 
L 68.282583 170.52172 
L 68.408741 163.895101 
L 68.534899 170.808412 
L 68.661057 161.10092 
L 68.913372 165.951666 
L 69.03953 150.193721 
L 69.165688 163.107347 
L 69.291846 161.396724 
L 69.418004 161.217895 
L 69.544162 168.932685 
L 69.67032 159.689452 
L 69.796477 166.455303 
L 69.922635 165.582382 
L 70.048793 168.172733 
L 70.174951 161.701926 
L 70.427267 167.57192 
L 70.553425 165.015089 
L 70.679583 166.539717 
L 70.80574 166.060252 
L 71.058056 169.728643 
L 71.184214 170.070188 
L 71.43653 162.850567 
L 71.815003 168.152492 
L 71.941161 163.279381 
L 72.193477 173.420331 
L 72.445793 168.931357 
L 72.57195 173.031647 
L 72.698108 166.905468 
L 72.824266 171.015941 
L 72.950424 167.816098 
L 73.076582 168.282369 
L 73.20274 172.030275 
L 73.581213 164.084704 
L 73.833529 169.256009 
L 73.959687 170.359231 
L 74.212003 169.074321 
L 74.33816 170.882596 
L 74.464318 168.256556 
L 74.716634 169.276214 
L 74.842792 170.287875 
L 75.095108 167.47769 
L 75.221265 169.059641 
L 75.347423 167.826756 
L 75.473581 170.587504 
L 75.599739 166.626793 
L 75.725897 169.269831 
L 75.852055 164.077205 
L 76.104371 170.801171 
L 76.230528 167.804549 
L 76.482844 171.177199 
L 76.609002 170.759387 
L 76.73516 171.405634 
L 76.861318 170.540035 
L 76.987476 170.892283 
L 77.113633 166.49642 
L 77.239791 172.9881 
L 77.365949 170.018129 
L 77.492107 170.91123 
L 77.618265 166.510858 
L 77.744423 168.89447 
L 77.870581 168.534853 
L 77.996738 170.557217 
L 78.122896 169.553165 
L 78.249054 170.35643 
L 78.375212 169.333767 
L 78.50137 169.553259 
L 78.627528 165.011284 
L 78.753686 169.067866 
L 78.879843 169.281112 
L 79.006001 172.337984 
L 79.132159 168.324454 
L 79.384475 171.297267 
L 79.510633 169.18692 
L 79.636791 170.251409 
L 79.762948 169.758875 
L 79.889106 171.408778 
L 80.141422 166.151862 
L 80.26758 168.530469 
L 80.393738 165.841828 
L 80.519896 173.087477 
L 80.646053 171.950573 
L 80.772211 169.439912 
L 80.898369 170.82874 
L 81.024527 168.345768 
L 81.150685 168.329983 
L 81.276843 172.581198 
L 81.403001 169.689524 
L 81.529159 169.708238 
L 81.655316 170.081212 
L 82.03379 172.583725 
L 82.159948 169.598585 
L 82.286106 169.974027 
L 82.412264 168.231638 
L 82.538421 168.670327 
L 82.664579 169.902755 
L 82.790737 172.690969 
L 82.916895 171.227205 
L 83.043053 166.188063 
L 83.169211 170.862304 
L 83.295369 171.131393 
L 83.421526 167.2731 
L 83.673842 171.62046 
L 83.8 172.53647 
L 84.052316 170.382344 
L 84.178474 171.232108 
L 84.304631 171.204015 
L 84.556947 172.309682 
L 84.683105 169.666272 
L 84.809263 173.478472 
L 84.935421 172.988143 
L 85.187736 169.094549 
L 85.313894 168.69844 
L 85.440052 168.983598 
L 85.56621 172.352312 
L 85.692368 172.33915 
L 85.818526 172.051806 
L 85.944684 172.220693 
L 86.070841 171.471744 
L 86.323157 173.096214 
L 86.449315 171.533418 
L 86.575473 172.550625 
L 86.701631 170.548257 
L 86.827789 170.323351 
L 87.080104 173.132464 
L 87.33242 170.724525 
L 87.458578 170.516764 
L 87.584736 171.222424 
L 87.710894 168.960178 
L 87.837052 170.896869 
L 87.963209 169.889925 
L 88.215525 172.64508 
L 88.341683 171.796285 
L 88.467841 172.095368 
L 88.720157 168.483605 
L 88.846314 170.545163 
L 88.972472 169.967005 
L 89.09863 164.588363 
L 89.224788 172.710911 
L 89.350946 172.17873 
L 89.477104 170.455657 
L 89.603262 171.15265 
L 89.729419 171.132961 
L 89.855577 172.31124 
L 89.981735 172.159175 
L 90.107893 169.577848 
L 90.234051 171.327034 
L 90.360209 171.373964 
L 90.486367 171.549189 
L 90.612524 172.179453 
L 90.738682 171.012754 
L 90.86484 171.423706 
L 90.990998 169.667047 
L 91.117156 172.422457 
L 91.243314 172.421787 
L 91.369472 173.368209 
L 91.621787 170.612068 
L 91.747945 172.457777 
L 91.874103 172.578816 
L 92.000261 171.492309 
L 92.252577 171.809232 
L 92.378735 173.234143 
L 92.504892 173.346227 
L 92.63105 171.663265 
L 92.757208 172.239673 
L 92.883366 171.906271 
L 93.009524 171.1352 
L 93.135682 173.461709 
L 93.387997 171.917575 
L 93.514155 172.324044 
L 93.640313 171.940805 
L 93.766471 171.951308 
L 93.892629 172.353439 
L 94.018787 171.81779 
L 94.144945 172.730898 
L 94.271102 172.170518 
L 94.39726 172.354199 
L 94.523418 173.082937 
L 94.775734 172.545637 
L 94.901892 172.590807 
L 95.02805 172.922467 
L 95.154207 172.093964 
L 95.280365 172.496748 
L 95.406523 172.119593 
L 95.658839 164.220689 
L 95.784997 172.259471 
L 95.911155 169.878102 
L 96.289628 173.443316 
L 96.415786 171.623288 
L 96.541944 171.424784 
L 96.668102 172.196629 
L 96.79426 171.897875 
L 96.920417 173.25528 
L 97.046575 172.966167 
L 97.298891 171.814212 
L 97.425049 171.497049 
L 97.551207 169.709959 
L 97.92968 173.223021 
L 98.055838 173.135283 
L 98.181996 171.64555 
L 98.308154 172.039406 
L 98.56047 171.366716 
L 98.686628 171.628947 
L 98.812785 172.699313 
L 99.065101 171.367497 
L 99.191259 172.664135 
L 99.317417 170.100106 
L 99.443575 172.651013 
L 99.569733 170.969484 
L 99.69589 172.723208 
L 99.822048 171.334772 
L 99.948206 172.174962 
L 100.074364 171.398538 
L 100.200522 172.735046 
L 100.32668 171.785584 
L 100.452838 172.354892 
L 100.578995 172.133367 
L 100.705153 171.316172 
L 101.083627 172.870557 
L 101.209785 169.506002 
L 101.4621 171.662232 
L 101.714416 172.47822 
L 101.966732 168.922063 
L 102.09289 163.15837 
L 102.219048 112.720559 
L 102.471363 170.229732 
L 102.723679 172.020008 
L 102.849837 169.902846 
L 102.975995 171.147351 
L 103.102153 170.528945 
L 103.228311 172.423851 
L 103.354468 172.614936 
L 103.480626 172.116388 
L 103.606784 172.514487 
L 103.732942 170.07492 
L 103.8591 172.328337 
L 104.111416 171.210308 
L 104.237573 173.041878 
L 104.363731 173.035203 
L 104.616047 172.357389 
L 104.742205 172.851706 
L 104.868363 171.546107 
L 104.994521 171.819239 
L 105.246836 171.240688 
L 105.372994 172.791854 
L 105.499152 172.844645 
L 105.62531 171.985888 
L 105.751468 172.137578 
L 106.003783 173.377165 
L 106.129941 172.726347 
L 106.256099 172.956053 
L 106.382257 171.86725 
L 106.508415 173.147008 
L 106.886888 171.262334 
L 107.139204 173.108318 
L 107.265362 171.858717 
L 107.39152 173.15811 
L 107.517678 172.564352 
L 107.643836 173.165841 
L 107.896151 172.275855 
L 108.022309 171.748496 
L 108.148467 173.514245 
L 108.274625 172.494498 
L 108.400783 172.658045 
L 108.526941 170.203719 
L 108.653098 170.331199 
L 108.779256 167.754288 
L 108.905414 172.708668 
L 109.031572 171.26894 
L 109.15773 172.482204 
L 109.283888 172.570475 
L 109.410046 172.189661 
L 109.788519 172.711569 
L 109.914677 172.112933 
L 110.040835 172.256485 
L 110.166993 173.128477 
L 110.419309 172.438255 
L 110.671624 172.379885 
L 110.797782 172.581463 
L 110.92394 173.360003 
L 111.050098 172.262661 
L 111.176256 172.858559 
L 111.302414 172.757135 
L 111.428571 173.03927 
L 111.554729 172.740726 
L 111.807045 172.783858 
L 111.933203 173.284128 
L 112.059361 171.911375 
L 112.185519 172.007951 
L 112.311676 173.47165 
L 112.437834 173.107875 
L 112.563992 172.012638 
L 112.69015 173.067577 
L 112.816308 172.253583 
L 112.942466 173.040515 
L 113.194781 172.614643 
L 113.320939 171.303463 
L 113.447097 173.363506 
L 113.573255 171.966784 
L 113.825571 172.916803 
L 113.951729 172.434025 
L 114.077886 172.97668 
L 114.204044 172.074802 
L 114.45636 173.064427 
L 114.582518 172.685167 
L 114.708676 171.429257 
L 114.834834 172.804442 
L 114.960992 172.963339 
L 115.087149 172.776477 
L 115.213307 172.876842 
L 115.339465 170.773431 
L 115.591781 172.537471 
L 115.717939 172.177646 
L 115.844097 172.920967 
L 115.970254 172.579958 
L 116.096412 172.847741 
L 116.22257 172.350334 
L 116.348728 172.371438 
L 116.474886 172.826792 
L 116.601044 172.409721 
L 116.727202 173.392259 
L 116.853359 173.466281 
L 117.357991 172.472778 
L 117.610307 173.434102 
L 117.98878 172.297373 
L 118.241096 173.599189 
L 118.367254 172.809353 
L 118.619569 172.843879 
L 118.745727 172.542503 
L 118.871885 173.548355 
L 118.998043 172.433425 
L 119.124201 172.394368 
L 119.376517 173.368183 
L 119.502674 173.094273 
L 119.628832 172.371075 
L 119.75499 172.569 
L 119.881148 173.407231 
L 120.007306 172.506798 
L 120.259622 172.916039 
L 120.38578 172.110687 
L 120.511937 173.523973 
L 120.638095 173.229576 
L 120.764253 173.440387 
L 121.016569 172.058164 
L 121.268885 172.858522 
L 121.395042 172.604239 
L 121.5212 173.1128 
L 121.647358 172.454765 
L 121.773516 172.720951 
L 121.899674 173.299552 
L 122.15199 172.509435 
L 122.278147 173.315332 
L 122.404305 172.855143 
L 122.530463 173.295948 
L 122.656621 172.762216 
L 122.782779 172.980056 
L 122.908937 172.745822 
L 123.035095 172.832988 
L 123.161252 173.30331 
L 123.413568 172.991415 
L 123.539726 173.186335 
L 123.792042 172.993473 
L 124.044357 173.592815 
L 124.170515 173.42865 
L 124.296673 172.800715 
L 124.422831 173.424105 
L 124.548989 173.411997 
L 124.675147 173.000137 
L 124.801305 173.355988 
L 124.927462 173.110105 
L 125.305936 173.16429 
L 125.432094 173.415351 
L 125.68441 172.501347 
L 125.810568 173.362506 
L 126.062883 173.081416 
L 126.189041 173.591121 
L 126.315199 172.833463 
L 126.441357 173.394117 
L 126.567515 172.907934 
L 126.693673 173.330934 
L 126.81983 172.995861 
L 126.945988 173.601642 
L 127.324462 172.728415 
L 127.45062 173.262696 
L 127.576778 173.246444 
L 127.702935 173.420904 
L 127.955251 172.905536 
L 128.081409 172.554654 
L 128.207567 173.310552 
L 128.333725 172.856194 
L 128.58604 172.797315 
L 128.712198 173.121649 
L 128.838356 173.01244 
L 128.964514 172.731656 
L 129.21683 173.361319 
L 129.342988 172.913482 
L 129.595303 173.552874 
L 129.847619 172.865016 
L 129.973777 173.117685 
L 130.099935 172.93684 
L 130.226093 173.215888 
L 130.478408 172.975814 
L 130.604566 173.064351 
L 130.730724 173.350955 
L 130.856882 172.590467 
L 130.98304 173.094656 
L 131.109198 172.528282 
L 131.235356 173.490702 
L 131.361513 173.533951 
L 131.487671 173.184194 
L 131.613829 173.467923 
L 131.866145 172.793661 
L 131.992303 173.03351 
L 132.118461 172.899915 
L 132.244618 173.169071 
L 132.370776 173.171237 
L 132.623092 173.462058 
L 132.74925 173.374931 
L 132.875408 173.030992 
L 133.001566 173.329739 
L 133.127723 173.247263 
L 133.253881 172.999792 
L 133.506197 173.27498 
L 133.632355 172.911552 
L 133.758513 172.99489 
L 133.884671 173.433344 
L 134.010828 173.206814 
L 134.136986 173.496139 
L 134.389302 173.140587 
L 134.893933 173.313832 
L 135.020091 173.161344 
L 135.146249 172.289242 
L 135.398565 173.123735 
L 135.524723 172.707725 
L 135.777038 173.167131 
L 136.029354 173.447024 
L 136.155512 173.183188 
L 136.28167 173.510369 
L 136.407828 173.389734 
L 136.533986 172.809342 
L 136.660144 173.08689 
L 136.786301 172.731821 
L 136.912459 173.552313 
L 137.164775 173.232233 
L 137.290933 172.706734 
L 137.417091 173.411623 
L 137.669406 173.194506 
L 137.795564 172.646413 
L 138.04788 173.488824 
L 138.174038 172.499211 
L 138.300196 173.016995 
L 138.426354 172.99653 
L 138.678669 173.202609 
L 138.804827 172.736023 
L 138.930985 173.529228 
L 139.057143 172.891494 
L 139.183301 173.471384 
L 139.309459 173.178981 
L 139.561774 173.465296 
L 139.81409 172.844765 
L 140.066406 173.310073 
L 140.318721 172.809211 
L 140.444879 173.364282 
L 140.571037 172.83791 
L 140.823353 173.388527 
L 141.075669 173.133157 
L 141.201826 173.22846 
L 141.327984 173.142571 
L 141.454142 172.528397 
L 141.5803 173.534637 
L 141.706458 170.031709 
L 141.832616 172.737067 
L 141.958774 173.056571 
L 142.084932 172.712959 
L 142.337247 173.314686 
L 142.463405 172.804398 
L 142.715721 173.16775 
L 142.841879 173.358371 
L 142.968037 172.921505 
L 143.094194 173.548608 
L 143.34651 173.018268 
L 143.472668 173.131138 
L 143.598826 173.437553 
L 143.724984 172.614503 
L 143.851142 173.189451 
L 144.103457 173.133804 
L 144.229615 173.210844 
L 144.481931 173.091621 
L 144.608089 172.235005 
L 144.860404 173.184454 
L 145.11272 173.159743 
L 145.365036 172.531002 
L 145.491194 172.672195 
L 145.617352 173.237731 
L 145.743509 172.973696 
L 145.869667 172.349206 
L 145.995825 173.253459 
L 146.121983 172.980556 
L 146.248141 172.375973 
L 146.374299 172.911863 
L 146.500457 172.953329 
L 146.626614 172.751788 
L 146.752772 173.285877 
L 146.87893 173.010671 
L 147.005088 173.338369 
L 147.635877 172.749837 
L 147.762035 173.045227 
L 147.888193 170.690781 
L 148.140509 171.914653 
L 148.266667 142.510754 
L 148.392825 167.58412 
L 148.64514 171.378387 
L 148.897456 173.438495 
L 149.023614 171.564593 
L 149.402087 173.228559 
L 149.528245 173.295885 
L 149.654403 172.524534 
L 149.906719 173.162666 
L 150.032877 173.198655 
L 150.159035 172.718773 
L 150.285192 173.293094 
L 150.537508 172.625053 
L 150.663666 173.267323 
L 150.789824 173.199616 
L 150.915982 171.963116 
L 151.04214 173.102602 
L 151.294455 172.960215 
L 151.420613 173.420869 
L 151.546771 173.167756 
L 151.672929 173.525248 
L 151.799087 173.460459 
L 152.051402 172.953648 
L 152.17756 172.935544 
L 152.303718 173.271084 
L 152.682192 173.04715 
L 152.934508 172.630178 
L 153.186823 173.035815 
L 153.312981 173.515613 
L 153.439139 172.97024 
L 153.565297 173.532468 
L 153.691455 173.175313 
L 153.94377 173.278188 
L 154.069928 172.375604 
L 154.322244 173.181637 
L 154.448402 172.597293 
L 154.57456 173.1743 
L 154.700718 172.580334 
L 154.826875 170.239247 
L 154.953033 172.936964 
L 155.205349 173.351443 
L 155.457665 172.907438 
L 155.70998 172.833265 
L 156.214612 173.598943 
L 156.34077 173.049743 
L 156.466928 173.524934 
L 156.593085 172.92851 
L 156.719243 173.170115 
L 156.845401 172.753425 
L 156.971559 173.049681 
L 157.097717 172.796719 
L 157.350033 173.211269 
L 157.47619 173.098806 
L 157.602348 173.483191 
L 157.854664 173.001017 
L 157.980822 172.825929 
L 158.10698 173.576902 
L 158.233138 173.440584 
L 158.485453 173.447946 
L 158.737769 173.25605 
L 158.863927 173.530398 
L 159.116243 173.293585 
L 159.368558 173.297754 
L 159.494716 173.338021 
L 159.620874 172.961214 
L 159.747032 173.155669 
L 159.87319 173.128435 
L 159.999348 173.599722 
L 160.125506 173.180391 
L 160.251663 173.218984 
L 160.503979 172.658765 
L 160.630137 173.394056 
L 160.756295 172.707891 
L 161.008611 173.513336 
L 161.260926 172.51173 
L 161.513242 172.303757 
L 161.765558 173.549002 
L 161.891716 173.128456 
L 162.017873 173.177354 
L 162.144031 173.407532 
L 162.396347 173.32854 
L 162.522505 173.364627 
L 162.648663 172.710976 
L 162.774821 173.287999 
L 162.900978 173.00168 
L 163.027136 173.567913 
L 163.153294 173.04947 
L 163.279452 173.333925 
L 163.40561 173.052501 
L 163.531768 173.235545 
L 163.657926 172.96759 
L 163.910241 173.530337 
L 164.036399 172.718419 
L 164.162557 173.200222 
L 164.288715 173.080816 
L 164.414873 173.420834 
L 164.541031 173.374779 
L 164.667189 172.938205 
L 164.793346 173.221169 
L 165.045662 173.154542 
L 165.17182 173.429201 
L 165.297978 173.399642 
L 165.424136 173.542643 
L 165.928767 173.448629 
L 166.054925 173.507036 
L 166.181083 173.395181 
L 166.307241 173.491813 
L 166.433399 173.357032 
L 166.559556 173.505638 
L 166.685714 173.162278 
L 166.811872 173.318513 
L 166.93803 173.215677 
L 167.064188 173.346952 
L 167.190346 173.128704 
L 167.442661 173.499511 
L 167.568819 173.599929 
L 167.947293 172.819676 
L 168.073451 173.326458 
L 168.325766 173.299778 
L 168.451924 173.479396 
L 168.578082 172.928884 
L 168.70424 173.647914 
L 168.830398 173.068976 
L 169.208871 173.469632 
L 169.335029 173.363645 
L 169.461187 173.033875 
L 169.587345 173.460529 
L 169.713503 173.481409 
L 169.965819 173.371902 
L 170.218134 173.603001 
L 170.47045 173.157092 
L 170.596608 173.501547 
L 170.722766 172.678673 
L 170.975082 173.474708 
L 171.101239 173.199199 
L 171.227397 173.479209 
L 171.479713 173.387033 
L 171.605871 173.599341 
L 171.858187 173.157985 
L 171.984344 173.066044 
L 172.110502 173.205557 
L 172.23666 173.023597 
L 172.362818 173.411809 
L 172.488976 173.306872 
L 172.615134 173.536566 
L 172.741292 173.380371 
L 172.867449 173.515824 
L 172.993607 173.186528 
L 173.119765 173.546982 
L 173.245923 173.362329 
L 173.372081 173.507037 
L 173.624397 173.319513 
L 173.750554 173.483904 
L 173.876712 173.369991 
L 174.00287 173.539065 
L 174.129028 173.21212 
L 174.255186 173.309833 
L 174.381344 172.784028 
L 174.633659 172.74947 
L 174.885975 173.486925 
L 175.012133 173.162909 
L 175.138291 173.248895 
L 175.264449 173.530913 
L 175.516765 173.375457 
L 175.642922 173.461842 
L 175.76908 173.038459 
L 175.895238 173.226426 
L 176.021396 173.060841 
L 176.147554 173.575905 
L 176.526027 173.317885 
L 176.652185 172.995837 
L 177.156817 173.337765 
L 177.282975 173.523563 
L 177.409132 173.104638 
L 177.787606 173.483748 
L 177.913764 173.462581 
L 178.039922 173.207739 
L 178.292237 173.444025 
L 178.418395 173.239094 
L 178.544553 173.470032 
L 178.670711 173.04566 
L 178.796869 173.539687 
L 179.049185 173.185161 
L 179.175342 173.325365 
L 179.3015 173.238998 
L 179.427658 172.90317 
L 179.679974 173.624539 
L 179.93229 173.510138 
L 180.058447 173.554196 
L 180.184605 173.3622 
L 180.310763 173.585453 
L 180.563079 173.24288 
L 180.815395 173.199292 
L 180.941553 173.352586 
L 181.193868 172.186356 
L 181.446184 173.358668 
L 181.6985 173.047838 
L 181.824658 173.472987 
L 181.950815 173.288882 
L 182.076973 173.558583 
L 182.707763 173.320878 
L 182.83392 173.519439 
L 182.960078 173.262459 
L 183.212394 173.593528 
L 183.338552 173.120687 
L 183.46471 173.330343 
L 183.590868 173.276249 
L 183.717025 172.905031 
L 184.095499 173.484698 
L 184.347815 173.057265 
L 184.60013 173.43088 
L 184.726288 173.139799 
L 184.978604 173.517523 
L 185.104762 173.21642 
L 185.23092 173.609016 
L 185.483235 173.028112 
L 185.735551 173.304447 
L 185.861709 173.25094 
L 185.987867 173.514763 
L 186.114025 173.172993 
L 186.240183 173.172668 
L 186.492498 173.358358 
L 186.744814 173.440357 
L 186.870972 172.961661 
L 187.123288 173.17465 
L 187.249446 173.529002 
L 187.501761 173.521603 
L 187.754077 171.624567 
L 187.880235 172.791899 
L 188.006393 172.703108 
L 188.132551 172.943578 
L 188.258708 172.857583 
L 188.511024 173.376671 
L 188.889498 173.398752 
L 189.015656 173.220378 
L 189.141813 173.568558 
L 189.646445 172.917245 
L 189.898761 173.496724 
L 190.024918 173.187699 
L 190.151076 173.464083 
L 190.403392 172.945179 
L 190.655708 173.364576 
L 190.908023 173.441884 
L 191.160339 173.425313 
L 191.286497 173.152653 
L 191.412655 173.638102 
L 191.538813 172.851421 
L 191.664971 173.341624 
L 191.791129 173.12614 
L 191.917286 173.413123 
L 192.043444 173.282667 
L 192.169602 173.35389 
L 192.29576 172.805222 
L 192.421918 173.261383 
L 192.548076 173.117619 
L 192.800391 172.33713 
L 193.052707 173.316259 
L 193.305023 173.57659 
L 193.557339 173.079228 
L 193.683496 173.123839 
L 193.809654 173.391427 
L 193.935812 172.55028 
L 194.06197 172.894104 
L 194.188128 171.193268 
L 194.314286 167.527581 
L 194.566601 172.023203 
L 194.692759 173.577708 
L 194.818917 172.865296 
L 194.945075 172.983874 
L 195.071233 173.486156 
L 195.197391 172.942414 
L 195.323549 173.540464 
L 195.575864 173.038474 
L 195.702022 173.283136 
L 195.82818 172.490676 
L 196.080496 173.620261 
L 196.206654 173.221344 
L 196.332811 173.648719 
L 196.585127 173.022308 
L 196.711285 173.559489 
L 196.963601 173.041387 
L 197.215917 173.399364 
L 197.342074 172.95321 
L 197.468232 173.388402 
L 197.846706 173.409133 
L 197.972864 172.992039 
L 198.225179 173.404477 
L 198.603653 173.270229 
L 198.729811 173.424613 
L 198.982127 172.95318 
L 199.108284 173.256875 
L 199.234442 173.084579 
L 199.3606 173.191789 
L 199.486758 173.094221 
L 199.739074 173.549616 
L 199.865232 173.121674 
L 200.117547 173.419764 
L 200.243705 173.322385 
L 200.369863 172.964243 
L 200.496021 172.99064 
L 200.622179 173.22695 
L 200.874494 172.67592 
L 201.252968 173.304354 
L 201.505284 173.046753 
L 201.631442 173.618963 
L 201.883757 173.502951 
L 202.009915 173.266357 
L 202.136073 173.36898 
L 202.262231 173.266241 
L 202.388389 173.490126 
L 202.640705 173.115575 
L 202.89302 173.387116 
L 203.145336 173.437502 
L 203.271494 173.117063 
L 203.397652 173.172325 
L 203.52381 173.353038 
L 203.649967 173.014933 
L 203.902283 173.551716 
L 204.154599 173.37862 
L 204.280757 173.534784 
L 204.406915 173.214949 
L 204.65923 173.220297 
L 204.785388 173.54311 
L 205.037704 173.54666 
L 205.163862 173.395441 
L 205.29002 173.562648 
L 205.416177 173.078793 
L 205.920809 173.562472 
L 206.046967 173.420317 
L 206.173125 173.536455 
L 206.299282 173.189374 
L 206.42544 173.233479 
L 206.551598 173.443441 
L 207.05623 173.433525 
L 207.182387 173.498304 
L 207.434703 172.996675 
L 207.560861 172.870237 
L 207.687019 173.003323 
L 207.813177 173.425845 
L 208.065492 173.387886 
L 208.19165 173.125587 
L 208.317808 173.505245 
L 208.443966 173.303349 
L 208.570124 173.541515 
L 209.074755 173.247802 
L 209.200913 173.495139 
L 209.327071 173.40009 
L 209.453229 173.58532 
L 209.579387 173.323227 
L 209.95786 173.485803 
L 210.210176 173.042472 
L 210.462492 173.565956 
L 210.58865 173.201636 
L 210.840965 173.361805 
L 210.967123 173.266084 
L 211.093281 173.602808 
L 211.219439 173.489315 
L 211.345597 173.571464 
L 211.597913 173.286382 
L 211.72407 173.435062 
L 211.976386 173.173949 
L 212.102544 173.442784 
L 212.35486 172.993854 
L 212.481018 173.466333 
L 212.733333 173.353089 
L 212.985649 173.305404 
L 213.111807 173.547489 
L 213.364123 173.114737 
L 213.994912 173.502191 
L 214.12107 173.303589 
L 214.247228 173.370226 
L 214.373386 173.158907 
L 214.878017 173.616143 
L 215.130333 173.566657 
L 215.508806 173.471964 
L 215.634964 173.542839 
L 215.88728 173.243703 
L 216.013438 173.559194 
L 216.265753 173.397774 
L 216.518069 173.57015 
L 217.022701 173.289862 
L 217.401174 173.571486 
L 217.65349 173.596139 
L 218.031963 173.114752 
L 218.158121 173.384797 
L 218.284279 173.308789 
L 218.410437 173.640198 
L 218.536595 173.377322 
L 218.915068 173.617269 
L 219.167384 173.257215 
L 219.293542 173.609667 
L 219.4197 173.314922 
L 219.545858 173.458732 
L 219.924331 173.331255 
L 220.050489 173.486708 
L 220.176647 173.11912 
L 220.302805 173.097627 
L 220.555121 173.538382 
L 220.681279 173.165924 
L 220.807436 173.495839 
L 220.933594 173.414184 
L 221.059752 173.4674 
L 221.18591 173.386959 
L 221.438226 173.550259 
L 221.564384 173.611824 
L 221.816699 173.154649 
L 221.942857 173.21691 
L 222.195173 173.515536 
L 222.321331 173.43234 
L 222.447489 173.619055 
L 222.699804 173.260354 
L 222.825962 173.556835 
L 223.078278 173.350335 
L 223.204436 173.605727 
L 223.456751 173.253428 
L 223.582909 173.595464 
L 224.213699 173.217264 
L 224.339856 173.506537 
L 224.466014 173.346373 
L 224.592172 173.637228 
L 224.844488 173.408863 
L 224.970646 173.53009 
L 225.096804 173.35838 
L 225.349119 173.512269 
L 225.601435 173.37964 
L 225.853751 173.551489 
L 225.979909 173.425679 
L 226.106067 173.508965 
L 226.232224 173.388022 
L 226.358382 173.498106 
L 226.610698 173.314261 
L 226.863014 173.33011 
L 226.989172 173.021279 
L 227.115329 173.534041 
L 227.241487 172.676416 
L 227.367645 173.151739 
L 227.493803 173.187588 
L 227.746119 173.528494 
L 227.872277 173.565591 
L 228.124592 173.396979 
L 228.25075 173.379281 
L 228.376908 173.578129 
L 228.503066 173.561611 
L 228.629224 173.313047 
L 228.881539 173.536899 
L 229.007697 173.585547 
L 229.133855 173.261986 
L 229.386171 173.530263 
L 229.512329 173.447786 
L 229.764644 173.553622 
L 229.890802 173.323471 
L 230.143118 173.546799 
L 230.395434 173.192449 
L 230.64775 173.50781 
L 230.900065 173.147894 
L 231.152381 173.504467 
L 231.278539 173.141118 
L 231.530855 173.401167 
L 231.909328 173.486522 
L 232.161644 173.106739 
L 232.41396 173.582302 
L 232.540117 173.316596 
L 232.666275 173.39824 
L 232.792433 173.266757 
L 233.423222 173.526085 
L 233.54938 173.477946 
L 233.675538 173.269974 
L 233.801696 171.935592 
L 233.927854 173.152334 
L 234.054012 173.151167 
L 234.18017 173.487607 
L 234.432485 173.135114 
L 234.558643 173.225096 
L 234.684801 173.498977 
L 234.937117 173.252351 
L 235.189432 173.43385 
L 235.441748 173.261007 
L 235.567906 173.012407 
L 235.694064 173.383284 
L 236.198695 173.484338 
L 236.324853 173.144332 
L 236.451011 173.573838 
L 236.955643 173.448891 
L 237.207958 173.538469 
L 237.460274 173.287133 
L 237.586432 173.407533 
L 237.71259 173.303524 
L 237.838748 173.45485 
L 237.964905 173.192178 
L 238.091063 173.551162 
L 238.217221 173.364256 
L 238.343379 173.614241 
L 238.595695 173.092633 
L 238.84801 173.528898 
L 238.974168 173.360724 
L 239.100326 173.601394 
L 239.226484 173.541131 
L 239.352642 173.236118 
L 239.731115 173.53336 
L 239.857273 173.069886 
L 240.109589 173.166028 
L 240.235747 171.536017 
L 240.361905 167.468623 
L 240.61422 173.157067 
L 240.740378 173.124915 
L 240.866536 173.234617 
L 240.992694 172.914146 
L 241.118852 173.524468 
L 241.371168 172.90877 
L 241.497326 173.274757 
L 241.749641 173.18414 
L 241.875799 173.444338 
L 242.254273 173.196447 
L 242.632746 173.45237 
L 242.758904 173.353286 
L 242.885062 173.399426 
L 243.137378 173.308458 
L 243.263536 173.002521 
L 243.389693 173.416769 
L 243.515851 173.40175 
L 243.768167 173.205162 
L 243.894325 173.639889 
L 244.146641 173.279771 
L 244.272798 173.529585 
L 244.525114 173.333393 
L 244.77743 173.515638 
L 245.029746 173.505001 
L 245.155903 173.274673 
L 245.408219 173.446866 
L 245.534377 173.38518 
L 245.786693 173.554252 
L 246.165166 173.161444 
L 246.54364 173.27912 
L 246.669798 173.068177 
L 246.795956 173.184811 
L 246.922114 172.92479 
L 247.426745 173.631266 
L 247.679061 173.359412 
L 247.805219 173.526892 
L 247.931376 173.180033 
L 248.057534 173.195024 
L 248.30985 173.509663 
L 248.436008 173.318526 
L 248.562166 173.48495 
L 248.688324 173.464074 
L 248.814481 173.591208 
L 249.066797 173.311562 
L 249.319113 173.605673 
L 249.445271 173.470312 
L 249.571429 173.568729 
L 249.697586 173.174839 
L 249.823744 173.178081 
L 250.07606 173.420233 
L 250.202218 173.224448 
L 250.328376 173.267757 
L 250.580691 173.531809 
L 251.085323 173.535767 
L 251.463796 173.128624 
L 251.716112 173.659936 
L 251.84227 173.610117 
L 252.094586 173.364911 
L 252.220744 173.4778 
L 252.346902 173.419128 
L 252.599217 173.585578 
L 252.725375 173.445165 
L 252.851533 173.569402 
L 253.103849 173.30617 
L 253.230007 173.539315 
L 253.482322 173.328369 
L 253.60848 173.502943 
L 253.860796 173.235398 
L 253.986954 173.305024 
L 254.113112 173.578402 
L 254.239269 173.273979 
L 254.743901 173.566875 
L 254.870059 173.398343 
L 255.248532 173.53155 
L 255.627006 173.339768 
L 255.879322 173.595027 
L 256.131637 173.252113 
L 256.383953 173.573259 
L 256.510111 173.655123 
L 256.762427 173.176928 
L 257.014742 173.515095 
L 257.267058 173.242023 
L 257.519374 173.59985 
L 257.645532 173.441096 
L 257.771689 173.562884 
L 257.897847 173.435009 
L 258.150163 173.515775 
L 258.276321 173.47167 
L 258.402479 173.268237 
L 258.528637 173.434691 
L 258.780952 173.406603 
L 258.90711 173.103126 
L 259.033268 173.397896 
L 260.799478 173.530543 
L 260.925636 173.347738 
L 261.177952 173.531762 
L 261.30411 173.606722 
L 261.430267 173.418946 
L 261.556425 173.557085 
L 261.682583 173.398341 
L 261.808741 173.503377 
L 262.061057 173.349235 
L 262.187215 173.622393 
L 262.313372 173.566457 
L 262.43953 173.358497 
L 262.691846 173.521515 
L 262.818004 173.624731 
L 262.944162 173.466558 
L 263.07032 173.573948 
L 263.322635 173.471243 
L 263.701109 173.599133 
L 264.079583 173.529933 
L 264.20574 173.619826 
L 264.331898 173.395549 
L 264.710372 173.433035 
L 264.83653 173.569965 
L 265.088845 173.451693 
L 265.215003 173.542966 
L 265.341161 173.463491 
L 265.467319 173.219661 
L 265.845793 173.586232 
L 265.97195 173.409533 
L 266.098108 173.612993 
L 266.350424 173.428225 
L 266.60274 173.559356 
L 266.728898 173.091258 
L 266.855055 173.429259 
L 267.233529 173.374632 
L 267.485845 173.521257 
L 267.864318 173.293106 
L 268.242792 173.602995 
L 268.621265 173.318338 
L 268.747423 173.480618 
L 269.125897 173.230599 
L 269.252055 173.586543 
L 269.504371 173.320793 
L 269.756686 173.428964 
L 269.882844 173.212945 
L 270.13516 173.585512 
L 270.387476 173.636164 
L 270.513633 173.441336 
L 270.639791 173.462956 
L 270.765949 173.363826 
L 271.018265 173.591667 
L 271.270581 173.38851 
L 271.522896 173.554666 
L 271.90137 173.542099 
L 272.153686 173.275025 
L 272.279843 173.335324 
L 272.406001 173.590766 
L 272.658317 173.397198 
L 272.784475 173.20462 
L 272.910633 173.222348 
L 273.036791 173.585083 
L 273.162948 173.497118 
L 273.289106 173.161048 
L 273.415264 173.509676 
L 273.541422 173.292147 
L 274.172211 173.559069 
L 274.424527 173.518945 
L 274.550685 173.492244 
L 274.676843 173.607505 
L 275.055316 173.476374 
L 275.686106 173.380713 
L 275.812264 173.302593 
L 275.938421 173.61567 
L 276.064579 173.502496 
L 276.190737 173.569077 
L 276.443053 173.414572 
L 276.569211 173.567861 
L 277.326158 173.41618 
L 277.326158 173.41618 
" clip-path="url(#paa85aac6d1)" style="fill: none; stroke: #8dd3c7; stroke-linecap: round"/>
   </g>
   <g id="patch_3">
    <path d="M 45.12 181.416412 
L 45.12 10.8 
" style="fill: none; stroke: #cccccc; stroke-linejoin: miter; stroke-linecap: square"/>
   </g>
   <g id="patch_4">
    <path d="M 277.2 181.416412 
L 277.2 10.8 
" style="fill: none; stroke: #cccccc; stroke-linejoin: miter; stroke-linecap: square"/>
   </g>
   <g id="patch_5">
    <path d="M 45.12 181.416412 
L 277.2 181.416412 
" style="fill: none; stroke: #cccccc; stroke-linejoin: miter; stroke-linecap: square"/>
   </g>
   <g id="patch_6">
    <path d="M 45.12 10.8 
L 277.2 10.8 
" style="fill: none; stroke: #cccccc; stroke-linejoin: miter; stroke-linecap: square"/>
   </g>
  </g>
 </g>
 <defs>
  <clipPath id="paa85aac6d1">
   <rect x="45.12" y="10.8" width="232.08" height="170.616412"/>
  </clipPath>
 </defs>
</svg>
