<?xml version="1.0" encoding="utf-8" standalone="no"?>
<!DOCTYPE svg PUBLIC "-//W3C//DTD SVG 1.1//EN"
  "http://www.w3.org/Graphics/SVG/1.1/DTD/svg11.dtd">
<svg xmlns:xlink="http://www.w3.org/1999/xlink" width="288pt" height="230.4pt" viewBox="0 0 288 230.4" xmlns="http://www.w3.org/2000/svg" version="1.1">
 <metadata>
  <rdf:RDF xmlns:dc="http://purl.org/dc/elements/1.1/" xmlns:cc="http://creativecommons.org/ns#" xmlns:rdf="http://www.w3.org/1999/02/22-rdf-syntax-ns#">
   <cc:Work>
    <dc:type rdf:resource="http://purl.org/dc/dcmitype/StillImage"/>
    <dc:date>2024-07-21T17:28:18.252597</dc:date>
    <dc:format>image/svg+xml</dc:format>
    <dc:creator>
     <cc:Agent>
      <dc:title>Matplotlib v3.9.0, https://matplotlib.org/</dc:title>
     </cc:Agent>
    </dc:creator>
   </cc:Work>
  </rdf:RDF>
 </metadata>
 <defs>
  <style type="text/css">*{stroke-linejoin: round; stroke-linecap: butt}</style>
 </defs>
 <g id="figure_1">
  <g id="patch_1">
   <path d="M 0 230.4 
L 288 230.4 
L 288 0 
L 0 0 
z
" style="fill: #ffffff"/>
  </g>
  <g id="axes_1">
   <g id="patch_2">
    <path d="M 45.12 181.416412 
L 277.2 181.416412 
L 277.2 14.505962 
L 45.12 14.505962 
z
" style="fill: #ffffff"/>
   </g>
   <g id="matplotlib.axis_1">
    <g id="xtick_1">
     <g id="line2d_1">
      <path d="M 240.361905 181.416412 
L 240.361905 14.505962 
" clip-path="url(#p4629b4c644)" style="fill: none; stroke: #cccccc; stroke-width: 0.8; stroke-linecap: round"/>
     </g>
     <g id="line2d_2"/>
     <g id="text_1">
      <!-- 6 hours -->
      <g style="fill: #262626" transform="translate(215.373414 213.560866) rotate(-45) scale(0.1 -0.1)">
       <defs>
        <path id="ArialMT-36" d="M 3184 3459 
L 2625 3416 
Q 2550 3747 2413 3897 
Q 2184 4138 1850 4138 
Q 1581 4138 1378 3988 
Q 1113 3794 959 3422 
Q 806 3050 800 2363 
Q 1003 2672 1297 2822 
Q 1591 2972 1913 2972 
Q 2475 2972 2870 2558 
Q 3266 2144 3266 1488 
Q 3266 1056 3080 686 
Q 2894 316 2569 119 
Q 2244 -78 1831 -78 
Q 1128 -78 684 439 
Q 241 956 241 2144 
Q 241 3472 731 4075 
Q 1159 4600 1884 4600 
Q 2425 4600 2770 4297 
Q 3116 3994 3184 3459 
z
M 888 1484 
Q 888 1194 1011 928 
Q 1134 663 1356 523 
Q 1578 384 1822 384 
Q 2178 384 2434 671 
Q 2691 959 2691 1453 
Q 2691 1928 2437 2201 
Q 2184 2475 1800 2475 
Q 1419 2475 1153 2201 
Q 888 1928 888 1484 
z
" transform="scale(0.015625)"/>
        <path id="ArialMT-20" transform="scale(0.015625)"/>
        <path id="ArialMT-68" d="M 422 0 
L 422 4581 
L 984 4581 
L 984 2938 
Q 1378 3394 1978 3394 
Q 2347 3394 2619 3248 
Q 2891 3103 3008 2847 
Q 3125 2591 3125 2103 
L 3125 0 
L 2563 0 
L 2563 2103 
Q 2563 2525 2380 2717 
Q 2197 2909 1863 2909 
Q 1613 2909 1392 2779 
Q 1172 2650 1078 2428 
Q 984 2206 984 1816 
L 984 0 
L 422 0 
z
" transform="scale(0.015625)"/>
        <path id="ArialMT-6f" d="M 213 1659 
Q 213 2581 725 3025 
Q 1153 3394 1769 3394 
Q 2453 3394 2887 2945 
Q 3322 2497 3322 1706 
Q 3322 1066 3130 698 
Q 2938 331 2570 128 
Q 2203 -75 1769 -75 
Q 1072 -75 642 372 
Q 213 819 213 1659 
z
M 791 1659 
Q 791 1022 1069 705 
Q 1347 388 1769 388 
Q 2188 388 2466 706 
Q 2744 1025 2744 1678 
Q 2744 2294 2464 2611 
Q 2184 2928 1769 2928 
Q 1347 2928 1069 2612 
Q 791 2297 791 1659 
z
" transform="scale(0.015625)"/>
        <path id="ArialMT-75" d="M 2597 0 
L 2597 488 
Q 2209 -75 1544 -75 
Q 1250 -75 995 37 
Q 741 150 617 320 
Q 494 491 444 738 
Q 409 903 409 1263 
L 409 3319 
L 972 3319 
L 972 1478 
Q 972 1038 1006 884 
Q 1059 663 1231 536 
Q 1403 409 1656 409 
Q 1909 409 2131 539 
Q 2353 669 2445 892 
Q 2538 1116 2538 1541 
L 2538 3319 
L 3100 3319 
L 3100 0 
L 2597 0 
z
" transform="scale(0.015625)"/>
        <path id="ArialMT-72" d="M 416 0 
L 416 3319 
L 922 3319 
L 922 2816 
Q 1116 3169 1280 3281 
Q 1444 3394 1641 3394 
Q 1925 3394 2219 3213 
L 2025 2691 
Q 1819 2813 1613 2813 
Q 1428 2813 1281 2702 
Q 1134 2591 1072 2394 
Q 978 2094 978 1738 
L 978 0 
L 416 0 
z
" transform="scale(0.015625)"/>
        <path id="ArialMT-73" d="M 197 991 
L 753 1078 
Q 800 744 1014 566 
Q 1228 388 1613 388 
Q 2000 388 2187 545 
Q 2375 703 2375 916 
Q 2375 1106 2209 1216 
Q 2094 1291 1634 1406 
Q 1016 1563 777 1677 
Q 538 1791 414 1992 
Q 291 2194 291 2438 
Q 291 2659 392 2848 
Q 494 3038 669 3163 
Q 800 3259 1026 3326 
Q 1253 3394 1513 3394 
Q 1903 3394 2198 3281 
Q 2494 3169 2634 2976 
Q 2775 2784 2828 2463 
L 2278 2388 
Q 2241 2644 2061 2787 
Q 1881 2931 1553 2931 
Q 1166 2931 1000 2803 
Q 834 2675 834 2503 
Q 834 2394 903 2306 
Q 972 2216 1119 2156 
Q 1203 2125 1616 2013 
Q 2213 1853 2448 1751 
Q 2684 1650 2818 1456 
Q 2953 1263 2953 975 
Q 2953 694 2789 445 
Q 2625 197 2315 61 
Q 2006 -75 1616 -75 
Q 969 -75 630 194 
Q 291 463 197 991 
z
" transform="scale(0.015625)"/>
       </defs>
       <use xlink:href="#ArialMT-36"/>
       <use xlink:href="#ArialMT-20" x="55.615234"/>
       <use xlink:href="#ArialMT-68" x="83.398438"/>
       <use xlink:href="#ArialMT-6f" x="139.013672"/>
       <use xlink:href="#ArialMT-75" x="194.628906"/>
       <use xlink:href="#ArialMT-72" x="250.244141"/>
       <use xlink:href="#ArialMT-73" x="283.544922"/>
      </g>
     </g>
    </g>
    <g id="xtick_2">
     <g id="line2d_3">
      <path d="M 194.314286 181.416412 
L 194.314286 14.505962 
" clip-path="url(#p4629b4c644)" style="fill: none; stroke: #cccccc; stroke-width: 0.8; stroke-linecap: round"/>
     </g>
     <g id="line2d_4"/>
     <g id="text_2">
      <!-- 8 hours -->
      <g style="fill: #262626" transform="translate(169.325795 213.560866) rotate(-45) scale(0.1 -0.1)">
       <defs>
        <path id="ArialMT-38" d="M 1131 2484 
Q 781 2613 612 2850 
Q 444 3088 444 3419 
Q 444 3919 803 4259 
Q 1163 4600 1759 4600 
Q 2359 4600 2725 4251 
Q 3091 3903 3091 3403 
Q 3091 3084 2923 2848 
Q 2756 2613 2416 2484 
Q 2838 2347 3058 2040 
Q 3278 1734 3278 1309 
Q 3278 722 2862 322 
Q 2447 -78 1769 -78 
Q 1091 -78 675 323 
Q 259 725 259 1325 
Q 259 1772 486 2073 
Q 713 2375 1131 2484 
z
M 1019 3438 
Q 1019 3113 1228 2906 
Q 1438 2700 1772 2700 
Q 2097 2700 2305 2904 
Q 2513 3109 2513 3406 
Q 2513 3716 2298 3927 
Q 2084 4138 1766 4138 
Q 1444 4138 1231 3931 
Q 1019 3725 1019 3438 
z
M 838 1322 
Q 838 1081 952 856 
Q 1066 631 1291 507 
Q 1516 384 1775 384 
Q 2178 384 2440 643 
Q 2703 903 2703 1303 
Q 2703 1709 2433 1975 
Q 2163 2241 1756 2241 
Q 1359 2241 1098 1978 
Q 838 1716 838 1322 
z
" transform="scale(0.015625)"/>
       </defs>
       <use xlink:href="#ArialMT-38"/>
       <use xlink:href="#ArialMT-20" x="55.615234"/>
       <use xlink:href="#ArialMT-68" x="83.398438"/>
       <use xlink:href="#ArialMT-6f" x="139.013672"/>
       <use xlink:href="#ArialMT-75" x="194.628906"/>
       <use xlink:href="#ArialMT-72" x="250.244141"/>
       <use xlink:href="#ArialMT-73" x="283.544922"/>
      </g>
     </g>
    </g>
    <g id="xtick_3">
     <g id="line2d_5">
      <path d="M 148.266667 181.416412 
L 148.266667 14.505962 
" clip-path="url(#p4629b4c644)" style="fill: none; stroke: #cccccc; stroke-width: 0.8; stroke-linecap: round"/>
     </g>
     <g id="line2d_6"/>
     <g id="text_3">
      <!-- 12 hours -->
      <g style="fill: #262626" transform="translate(119.345999 217.493043) rotate(-45) scale(0.1 -0.1)">
       <defs>
        <path id="ArialMT-31" d="M 2384 0 
L 1822 0 
L 1822 3584 
Q 1619 3391 1289 3197 
Q 959 3003 697 2906 
L 697 3450 
Q 1169 3672 1522 3987 
Q 1875 4303 2022 4600 
L 2384 4600 
L 2384 0 
z
" transform="scale(0.015625)"/>
        <path id="ArialMT-32" d="M 3222 541 
L 3222 0 
L 194 0 
Q 188 203 259 391 
Q 375 700 629 1000 
Q 884 1300 1366 1694 
Q 2113 2306 2375 2664 
Q 2638 3022 2638 3341 
Q 2638 3675 2398 3904 
Q 2159 4134 1775 4134 
Q 1369 4134 1125 3890 
Q 881 3647 878 3216 
L 300 3275 
Q 359 3922 746 4261 
Q 1134 4600 1788 4600 
Q 2447 4600 2831 4234 
Q 3216 3869 3216 3328 
Q 3216 3053 3103 2787 
Q 2991 2522 2730 2228 
Q 2469 1934 1863 1422 
Q 1356 997 1212 845 
Q 1069 694 975 541 
L 3222 541 
z
" transform="scale(0.015625)"/>
       </defs>
       <use xlink:href="#ArialMT-31"/>
       <use xlink:href="#ArialMT-32" x="55.615234"/>
       <use xlink:href="#ArialMT-20" x="111.230469"/>
       <use xlink:href="#ArialMT-68" x="139.013672"/>
       <use xlink:href="#ArialMT-6f" x="194.628906"/>
       <use xlink:href="#ArialMT-75" x="250.244141"/>
       <use xlink:href="#ArialMT-72" x="305.859375"/>
       <use xlink:href="#ArialMT-73" x="339.160156"/>
      </g>
     </g>
    </g>
    <g id="xtick_4">
     <g id="line2d_7">
      <path d="M 102.219048 181.416412 
L 102.219048 14.505962 
" clip-path="url(#p4629b4c644)" style="fill: none; stroke: #cccccc; stroke-width: 0.8; stroke-linecap: round"/>
     </g>
     <g id="line2d_8"/>
     <g id="text_4">
      <!-- Daily -->
      <g style="fill: #262626" transform="translate(85.014256 205.694303) rotate(-45) scale(0.1 -0.1)">
       <defs>
        <path id="ArialMT-44" d="M 494 0 
L 494 4581 
L 2072 4581 
Q 2606 4581 2888 4516 
Q 3281 4425 3559 4188 
Q 3922 3881 4101 3404 
Q 4281 2928 4281 2316 
Q 4281 1794 4159 1391 
Q 4038 988 3847 723 
Q 3656 459 3429 307 
Q 3203 156 2883 78 
Q 2563 0 2147 0 
L 494 0 
z
M 1100 541 
L 2078 541 
Q 2531 541 2789 625 
Q 3047 709 3200 863 
Q 3416 1078 3536 1442 
Q 3656 1806 3656 2325 
Q 3656 3044 3420 3430 
Q 3184 3816 2847 3947 
Q 2603 4041 2063 4041 
L 1100 4041 
L 1100 541 
z
" transform="scale(0.015625)"/>
        <path id="ArialMT-61" d="M 2588 409 
Q 2275 144 1986 34 
Q 1697 -75 1366 -75 
Q 819 -75 525 192 
Q 231 459 231 875 
Q 231 1119 342 1320 
Q 453 1522 633 1644 
Q 813 1766 1038 1828 
Q 1203 1872 1538 1913 
Q 2219 1994 2541 2106 
Q 2544 2222 2544 2253 
Q 2544 2597 2384 2738 
Q 2169 2928 1744 2928 
Q 1347 2928 1158 2789 
Q 969 2650 878 2297 
L 328 2372 
Q 403 2725 575 2942 
Q 747 3159 1072 3276 
Q 1397 3394 1825 3394 
Q 2250 3394 2515 3294 
Q 2781 3194 2906 3042 
Q 3031 2891 3081 2659 
Q 3109 2516 3109 2141 
L 3109 1391 
Q 3109 606 3145 398 
Q 3181 191 3288 0 
L 2700 0 
Q 2613 175 2588 409 
z
M 2541 1666 
Q 2234 1541 1622 1453 
Q 1275 1403 1131 1340 
Q 988 1278 909 1158 
Q 831 1038 831 891 
Q 831 666 1001 516 
Q 1172 366 1500 366 
Q 1825 366 2078 508 
Q 2331 650 2450 897 
Q 2541 1088 2541 1459 
L 2541 1666 
z
" transform="scale(0.015625)"/>
        <path id="ArialMT-69" d="M 425 3934 
L 425 4581 
L 988 4581 
L 988 3934 
L 425 3934 
z
M 425 0 
L 425 3319 
L 988 3319 
L 988 0 
L 425 0 
z
" transform="scale(0.015625)"/>
        <path id="ArialMT-6c" d="M 409 0 
L 409 4581 
L 972 4581 
L 972 0 
L 409 0 
z
" transform="scale(0.015625)"/>
        <path id="ArialMT-79" d="M 397 -1278 
L 334 -750 
Q 519 -800 656 -800 
Q 844 -800 956 -737 
Q 1069 -675 1141 -563 
Q 1194 -478 1313 -144 
Q 1328 -97 1363 -6 
L 103 3319 
L 709 3319 
L 1400 1397 
Q 1534 1031 1641 628 
Q 1738 1016 1872 1384 
L 2581 3319 
L 3144 3319 
L 1881 -56 
Q 1678 -603 1566 -809 
Q 1416 -1088 1222 -1217 
Q 1028 -1347 759 -1347 
Q 597 -1347 397 -1278 
z
" transform="scale(0.015625)"/>
       </defs>
       <use xlink:href="#ArialMT-44"/>
       <use xlink:href="#ArialMT-61" x="72.216797"/>
       <use xlink:href="#ArialMT-69" x="127.832031"/>
       <use xlink:href="#ArialMT-6c" x="150.048828"/>
       <use xlink:href="#ArialMT-79" x="172.265625"/>
      </g>
     </g>
    </g>
    <g id="xtick_5">
     <g id="line2d_9">
      <path d="M 62.74966 181.416412 
L 62.74966 14.505962 
" clip-path="url(#p4629b4c644)" style="fill: none; stroke: #cccccc; stroke-width: 0.8; stroke-linecap: round"/>
     </g>
     <g id="line2d_10"/>
     <g id="text_5">
      <!-- Weekly -->
      <g style="fill: #262626" transform="translate(38.204216 213.034955) rotate(-45) scale(0.1 -0.1)">
       <defs>
        <path id="ArialMT-57" d="M 1294 0 
L 78 4581 
L 700 4581 
L 1397 1578 
Q 1509 1106 1591 641 
Q 1766 1375 1797 1488 
L 2669 4581 
L 3400 4581 
L 4056 2263 
Q 4303 1400 4413 641 
Q 4500 1075 4641 1638 
L 5359 4581 
L 5969 4581 
L 4713 0 
L 4128 0 
L 3163 3491 
Q 3041 3928 3019 4028 
Q 2947 3713 2884 3491 
L 1913 0 
L 1294 0 
z
" transform="scale(0.015625)"/>
        <path id="ArialMT-65" d="M 2694 1069 
L 3275 997 
Q 3138 488 2766 206 
Q 2394 -75 1816 -75 
Q 1088 -75 661 373 
Q 234 822 234 1631 
Q 234 2469 665 2931 
Q 1097 3394 1784 3394 
Q 2450 3394 2872 2941 
Q 3294 2488 3294 1666 
Q 3294 1616 3291 1516 
L 816 1516 
Q 847 969 1125 678 
Q 1403 388 1819 388 
Q 2128 388 2347 550 
Q 2566 713 2694 1069 
z
M 847 1978 
L 2700 1978 
Q 2663 2397 2488 2606 
Q 2219 2931 1791 2931 
Q 1403 2931 1139 2672 
Q 875 2413 847 1978 
z
" transform="scale(0.015625)"/>
        <path id="ArialMT-6b" d="M 425 0 
L 425 4581 
L 988 4581 
L 988 1969 
L 2319 3319 
L 3047 3319 
L 1778 2088 
L 3175 0 
L 2481 0 
L 1384 1697 
L 988 1316 
L 988 0 
L 425 0 
z
" transform="scale(0.015625)"/>
       </defs>
       <use xlink:href="#ArialMT-57"/>
       <use xlink:href="#ArialMT-65" x="92.634766"/>
       <use xlink:href="#ArialMT-65" x="148.25"/>
       <use xlink:href="#ArialMT-6b" x="203.865234"/>
       <use xlink:href="#ArialMT-6c" x="253.865234"/>
       <use xlink:href="#ArialMT-79" x="276.082031"/>
      </g>
     </g>
    </g>
   </g>
   <g id="matplotlib.axis_2">
    <g id="ytick_1">
     <g id="line2d_11"/>
     <g id="text_6">
      <!-- 0 -->
      <g style="fill: #262626" transform="translate(36.059063 177.416798) scale(0.1 -0.1)">
       <defs>
        <path id="ArialMT-30" d="M 266 2259 
Q 266 3072 433 3567 
Q 600 4063 929 4331 
Q 1259 4600 1759 4600 
Q 2128 4600 2406 4451 
Q 2684 4303 2865 4023 
Q 3047 3744 3150 3342 
Q 3253 2941 3253 2259 
Q 3253 1453 3087 958 
Q 2922 463 2592 192 
Q 2263 -78 1759 -78 
Q 1097 -78 719 397 
Q 266 969 266 2259 
z
M 844 2259 
Q 844 1131 1108 757 
Q 1372 384 1759 384 
Q 2147 384 2411 759 
Q 2675 1134 2675 2259 
Q 2675 3391 2411 3762 
Q 2147 4134 1753 4134 
Q 1366 4134 1134 3806 
Q 844 3388 844 2259 
z
" transform="scale(0.015625)"/>
       </defs>
       <use xlink:href="#ArialMT-30"/>
      </g>
     </g>
    </g>
    <g id="ytick_2">
     <g id="line2d_12"/>
     <g id="text_7">
      <!-- 100 -->
      <g style="fill: #262626" transform="translate(24.937188 137.643567) scale(0.1 -0.1)">
       <use xlink:href="#ArialMT-31"/>
       <use xlink:href="#ArialMT-30" x="55.615234"/>
       <use xlink:href="#ArialMT-30" x="111.230469"/>
      </g>
     </g>
    </g>
    <g id="ytick_3">
     <g id="line2d_13"/>
     <g id="text_8">
      <!-- 200 -->
      <g style="fill: #262626" transform="translate(24.937188 97.870336) scale(0.1 -0.1)">
       <use xlink:href="#ArialMT-32"/>
       <use xlink:href="#ArialMT-30" x="55.615234"/>
       <use xlink:href="#ArialMT-30" x="111.230469"/>
      </g>
     </g>
    </g>
    <g id="ytick_4">
     <g id="line2d_14"/>
     <g id="text_9">
      <!-- 300 -->
      <g style="fill: #262626" transform="translate(24.937188 58.097105) scale(0.1 -0.1)">
       <defs>
        <path id="ArialMT-33" d="M 269 1209 
L 831 1284 
Q 928 806 1161 595 
Q 1394 384 1728 384 
Q 2125 384 2398 659 
Q 2672 934 2672 1341 
Q 2672 1728 2419 1979 
Q 2166 2231 1775 2231 
Q 1616 2231 1378 2169 
L 1441 2663 
Q 1497 2656 1531 2656 
Q 1891 2656 2178 2843 
Q 2466 3031 2466 3422 
Q 2466 3731 2256 3934 
Q 2047 4138 1716 4138 
Q 1388 4138 1169 3931 
Q 950 3725 888 3313 
L 325 3413 
Q 428 3978 793 4289 
Q 1159 4600 1703 4600 
Q 2078 4600 2393 4439 
Q 2709 4278 2876 4000 
Q 3044 3722 3044 3409 
Q 3044 3113 2884 2869 
Q 2725 2625 2413 2481 
Q 2819 2388 3044 2092 
Q 3269 1797 3269 1353 
Q 3269 753 2831 336 
Q 2394 -81 1725 -81 
Q 1122 -81 723 278 
Q 325 638 269 1209 
z
" transform="scale(0.015625)"/>
       </defs>
       <use xlink:href="#ArialMT-33"/>
       <use xlink:href="#ArialMT-30" x="55.615234"/>
       <use xlink:href="#ArialMT-30" x="111.230469"/>
      </g>
     </g>
    </g>
    <g id="ytick_5">
     <g id="line2d_15"/>
     <g id="text_10">
      <!-- 400 -->
      <g style="fill: #262626" transform="translate(24.937188 18.323874) scale(0.1 -0.1)">
       <defs>
        <path id="ArialMT-34" d="M 2069 0 
L 2069 1097 
L 81 1097 
L 81 1613 
L 2172 4581 
L 2631 4581 
L 2631 1613 
L 3250 1613 
L 3250 1097 
L 2631 1097 
L 2631 0 
L 2069 0 
z
M 2069 1613 
L 2069 3678 
L 634 1613 
L 2069 1613 
z
" transform="scale(0.015625)"/>
       </defs>
       <use xlink:href="#ArialMT-34"/>
       <use xlink:href="#ArialMT-30" x="55.615234"/>
       <use xlink:href="#ArialMT-30" x="111.230469"/>
      </g>
     </g>
    </g>
    <g id="text_11">
     <!-- GW -->
     <g style="fill: #262626" transform="translate(18.949688 106.569781) rotate(-90) scale(0.1 -0.1)">
      <defs>
       <path id="ArialMT-47" d="M 2638 1797 
L 2638 2334 
L 4578 2338 
L 4578 638 
Q 4131 281 3656 101 
Q 3181 -78 2681 -78 
Q 2006 -78 1454 211 
Q 903 500 622 1047 
Q 341 1594 341 2269 
Q 341 2938 620 3517 
Q 900 4097 1425 4378 
Q 1950 4659 2634 4659 
Q 3131 4659 3532 4498 
Q 3934 4338 4162 4050 
Q 4391 3763 4509 3300 
L 3963 3150 
Q 3859 3500 3706 3700 
Q 3553 3900 3268 4020 
Q 2984 4141 2638 4141 
Q 2222 4141 1919 4014 
Q 1616 3888 1430 3681 
Q 1244 3475 1141 3228 
Q 966 2803 966 2306 
Q 966 1694 1177 1281 
Q 1388 869 1791 669 
Q 2194 469 2647 469 
Q 3041 469 3416 620 
Q 3791 772 3984 944 
L 3984 1797 
L 2638 1797 
z
" transform="scale(0.015625)"/>
      </defs>
      <use xlink:href="#ArialMT-47"/>
      <use xlink:href="#ArialMT-57" x="77.783203"/>
     </g>
    </g>
   </g>
   <g id="line2d_16">
    <path d="M 56.171429 22.092801 
L 56.297586 152.973351 
L 56.423744 152.445175 
L 56.67606 171.776956 
L 56.802218 162.705026 
L 56.928376 169.074102 
L 57.054534 167.572083 
L 57.180691 172.709134 
L 57.306849 171.666687 
L 57.433007 165.065327 
L 57.559165 165.387966 
L 57.685323 167.29918 
L 57.937639 161.516658 
L 58.189954 172.807633 
L 58.44227 167.926931 
L 58.568428 169.0317 
L 58.694586 173.085773 
L 58.820744 170.99148 
L 58.946902 162.567905 
L 59.073059 170.153524 
L 59.199217 168.513737 
L 59.325375 173.159887 
L 59.451533 172.350813 
L 59.577691 167.38345 
L 59.830007 171.846345 
L 60.082322 166.790593 
L 60.20848 171.078556 
L 60.460796 165.935599 
L 60.586954 170.333782 
L 60.713112 165.816711 
L 60.839269 169.346207 
L 61.091585 166.427224 
L 61.343901 172.663513 
L 61.470059 166.525754 
L 61.722374 170.450451 
L 61.97469 171.263069 
L 62.100848 167.792017 
L 62.227006 171.399701 
L 62.353164 168.749131 
L 62.479322 169.574562 
L 62.605479 172.536404 
L 62.731637 160.628105 
L 62.857795 168.726028 
L 62.983953 169.32653 
L 63.110111 168.235771 
L 63.236269 173.456351 
L 63.362427 168.371703 
L 63.488584 173.235704 
L 63.614742 168.39582 
L 63.7409 170.592609 
L 63.867058 170.578376 
L 63.993216 172.347074 
L 64.119374 171.806712 
L 64.245532 170.343211 
L 64.371689 170.430379 
L 64.497847 166.933363 
L 64.750163 170.385002 
L 64.876321 171.862117 
L 65.002479 171.4252 
L 65.254795 168.739617 
L 65.380952 171.977439 
L 65.633268 169.189647 
L 65.759426 170.457311 
L 65.885584 170.552788 
L 66.011742 172.859733 
L 66.1379 170.540051 
L 66.264057 171.748294 
L 66.390215 171.583388 
L 66.516373 172.691941 
L 66.768689 170.892308 
L 66.894847 170.210453 
L 67.021005 168.608181 
L 67.147162 169.3635 
L 67.27332 172.10164 
L 67.525636 172.630232 
L 67.777952 171.02641 
L 67.90411 170.83736 
L 68.030267 171.982165 
L 68.282583 171.707627 
L 68.408741 169.478969 
L 68.661057 171.926342 
L 68.787215 172.19496 
L 69.165688 169.964114 
L 69.291846 166.467434 
L 69.418004 171.120785 
L 69.544162 169.771648 
L 69.67032 171.73651 
L 69.796477 171.027099 
L 69.922635 171.420873 
L 70.048793 169.629498 
L 70.174951 170.031121 
L 70.427267 172.209443 
L 70.679583 170.158789 
L 70.80574 172.995208 
L 70.931898 172.175771 
L 71.058056 172.180481 
L 71.184214 172.380611 
L 71.310372 171.478697 
L 71.43653 171.910025 
L 71.562688 170.94756 
L 71.688845 173.011956 
L 71.941161 171.682684 
L 72.067319 170.944753 
L 72.193477 172.218286 
L 72.319635 172.139985 
L 72.445793 172.326651 
L 72.57195 171.282305 
L 72.698108 171.232214 
L 72.824266 171.02629 
L 72.950424 171.613866 
L 73.20274 170.163735 
L 73.328898 173.379 
L 73.707371 170.731447 
L 73.833529 172.654671 
L 74.212003 170.426175 
L 74.33816 173.064994 
L 74.464318 172.252382 
L 74.590476 173.287232 
L 74.716634 171.226402 
L 74.842792 173.556212 
L 75.095108 171.119094 
L 75.347423 173.122043 
L 75.473581 169.828037 
L 75.725897 171.615731 
L 75.852055 170.634283 
L 75.978213 170.93948 
L 76.104371 169.588147 
L 76.230528 173.446532 
L 76.356686 170.739967 
L 76.482844 172.341363 
L 76.609002 172.315039 
L 76.73516 172.00916 
L 76.861318 172.378063 
L 77.113633 171.985564 
L 77.365949 173.323849 
L 77.492107 172.151685 
L 77.618265 172.793342 
L 77.744423 171.389517 
L 77.870581 173.30226 
L 77.996738 171.820233 
L 78.122896 171.974689 
L 78.249054 172.535529 
L 78.375212 172.489207 
L 78.50137 173.126924 
L 78.753686 171.899448 
L 78.879843 172.794769 
L 79.006001 171.398653 
L 79.132159 172.830273 
L 79.258317 171.908954 
L 79.384475 173.193242 
L 79.510633 171.79971 
L 79.636791 173.518117 
L 79.889106 171.838133 
L 80.015264 171.936949 
L 80.141422 172.781611 
L 80.393738 171.942512 
L 80.519896 172.851289 
L 80.646053 171.967129 
L 80.898369 173.388884 
L 81.024527 173.274923 
L 81.276843 171.816204 
L 81.529159 172.961578 
L 81.781474 170.951097 
L 82.03379 172.725739 
L 82.159948 172.599186 
L 82.286106 171.999387 
L 82.412264 170.820308 
L 82.538421 171.222508 
L 82.664579 170.026103 
L 82.790737 171.688117 
L 82.916895 171.675548 
L 83.169211 171.93002 
L 83.295369 171.706402 
L 83.421526 173.200103 
L 83.673842 173.321989 
L 83.8 172.642149 
L 83.926158 172.656519 
L 84.052316 171.618684 
L 84.178474 173.121557 
L 84.304631 171.469013 
L 84.430789 171.639593 
L 84.556947 173.051854 
L 84.683105 171.801853 
L 84.809263 173.329833 
L 84.935421 172.597229 
L 85.061579 173.032623 
L 85.313894 172.712328 
L 85.440052 173.424008 
L 85.692368 172.262268 
L 85.818526 172.156864 
L 85.944684 172.338017 
L 86.070841 173.616875 
L 86.196999 172.994406 
L 86.323157 173.149921 
L 86.449315 171.80718 
L 86.701631 173.389277 
L 86.827789 172.498996 
L 86.953947 172.629149 
L 87.080104 173.131306 
L 87.206262 172.439576 
L 87.458578 173.306084 
L 87.584736 172.045742 
L 87.837052 173.582833 
L 88.089367 172.22672 
L 88.215525 172.308942 
L 88.341683 172.193838 
L 88.467841 172.671287 
L 88.593999 172.242715 
L 88.720157 172.572583 
L 88.846314 172.30521 
L 88.972472 172.716153 
L 89.09863 172.19777 
L 89.224788 168.793001 
L 89.477104 173.32293 
L 89.603262 171.235035 
L 89.855577 172.450769 
L 89.981735 171.216077 
L 90.234051 172.929052 
L 90.486367 172.885016 
L 90.612524 172.451688 
L 90.86484 170.121818 
L 90.990998 170.632359 
L 91.243314 172.91312 
L 91.369472 172.170139 
L 91.495629 173.254405 
L 91.621787 171.273662 
L 91.747945 172.84693 
L 91.874103 170.519473 
L 92.000261 170.848489 
L 92.126419 172.147264 
L 92.252577 172.19623 
L 92.378735 173.018749 
L 92.504892 172.366196 
L 92.63105 172.355569 
L 92.757208 170.779813 
L 92.883366 172.274464 
L 93.009524 171.507053 
L 93.135682 172.837707 
L 93.26184 172.741798 
L 93.387997 173.520692 
L 93.640313 172.06611 
L 93.892629 170.642893 
L 94.018787 170.089513 
L 94.271102 171.679325 
L 94.39726 172.461684 
L 94.523418 172.209733 
L 94.649576 172.751537 
L 94.775734 170.354232 
L 95.02805 173.746753 
L 95.280365 170.6361 
L 95.406523 169.633003 
L 95.532681 169.708734 
L 95.784997 172.508381 
L 95.911155 170.124571 
L 96.037312 171.510887 
L 96.16347 171.487292 
L 96.289628 171.608775 
L 96.415786 170.248611 
L 96.541944 170.957924 
L 96.668102 167.085638 
L 96.79426 172.748919 
L 96.920417 172.089378 
L 97.046575 170.619842 
L 97.172733 170.677561 
L 97.298891 172.682928 
L 97.551207 170.329768 
L 97.677365 170.64242 
L 97.803523 172.053753 
L 97.92968 170.737435 
L 98.181996 170.584341 
L 98.308154 172.862453 
L 98.434312 172.755586 
L 98.56047 168.373277 
L 98.686628 170.447465 
L 98.812785 170.509801 
L 98.938943 170.41137 
L 99.065101 171.764257 
L 99.317417 170.514456 
L 99.443575 170.936072 
L 99.569733 168.83736 
L 99.69589 172.758381 
L 99.822048 172.591668 
L 99.948206 173.164486 
L 100.200522 172.74908 
L 100.32668 169.79096 
L 100.452838 172.098015 
L 100.578995 169.4012 
L 100.831311 173.270113 
L 100.957469 169.637543 
L 101.083627 171.857535 
L 101.209785 170.127401 
L 101.335943 170.722219 
L 101.588258 172.68373 
L 101.714416 168.899458 
L 101.840574 172.281649 
L 102.09289 165.104464 
L 102.219048 97.082327 
L 102.471363 170.110021 
L 102.597521 171.754136 
L 102.723679 170.386695 
L 102.849837 173.185513 
L 102.975995 171.660445 
L 103.102153 171.929519 
L 103.228311 170.239767 
L 103.354468 172.32213 
L 103.480626 168.37322 
L 103.606784 171.662704 
L 103.732942 171.726051 
L 103.8591 169.275029 
L 103.985258 173.19043 
L 104.111416 172.327681 
L 104.237573 173.605238 
L 104.363731 171.351321 
L 104.489889 173.199052 
L 104.616047 173.401733 
L 104.868363 170.371495 
L 104.994521 167.249253 
L 105.120678 169.325397 
L 105.246836 173.531382 
L 105.62531 170.016283 
L 105.751468 170.821779 
L 105.877626 169.306835 
L 106.003783 172.752909 
L 106.129941 170.439944 
L 106.256099 172.50062 
L 106.382257 169.893775 
L 106.508415 172.015129 
L 106.634573 171.986589 
L 106.886888 172.925529 
L 107.013046 171.646856 
L 107.139204 171.840876 
L 107.265362 170.983835 
L 107.39152 173.162512 
L 107.517678 170.54647 
L 107.643836 170.300471 
L 107.769993 167.739169 
L 107.896151 171.111743 
L 108.022309 171.058568 
L 108.148467 171.73511 
L 108.274625 170.772691 
L 108.400783 170.906463 
L 108.526941 172.392344 
L 108.653098 172.553423 
L 108.779256 170.457883 
L 109.031572 170.434057 
L 109.15773 170.468631 
L 109.283888 173.473795 
L 109.410046 173.535706 
L 109.662361 171.077106 
L 109.788519 171.952514 
L 109.914677 171.186074 
L 110.166993 172.393439 
L 110.293151 172.780791 
L 110.419309 170.877541 
L 110.545466 171.168346 
L 110.671624 172.616775 
L 110.797782 171.598671 
L 110.92394 171.668348 
L 111.176256 173.593943 
L 111.302414 173.114309 
L 111.554729 170.899436 
L 111.680887 172.608129 
L 111.933203 170.587157 
L 112.059361 172.494908 
L 112.185519 170.243264 
L 112.311676 171.327198 
L 112.563992 170.671821 
L 112.69015 172.877359 
L 113.068624 170.994074 
L 113.194781 173.34551 
L 113.320939 170.218845 
L 113.573255 171.266479 
L 113.699413 172.553829 
L 113.825571 172.609995 
L 113.951729 172.982127 
L 114.077886 171.810314 
L 114.204044 173.391292 
L 114.330202 173.436402 
L 114.45636 173.35915 
L 114.582518 172.878358 
L 114.708676 170.695625 
L 114.834834 173.457974 
L 114.960992 173.321523 
L 115.087149 171.876054 
L 115.213307 173.754577 
L 115.465623 171.983371 
L 115.591781 171.665624 
L 115.844097 173.563769 
L 116.22257 171.387431 
L 116.474886 173.372553 
L 116.601044 172.96109 
L 116.727202 173.78673 
L 116.853359 172.813898 
L 117.105675 173.798599 
L 117.357991 173.336959 
L 117.484149 171.916379 
L 117.610307 173.608235 
L 117.862622 173.14152 
L 117.98878 172.14866 
L 118.241096 172.965178 
L 118.367254 172.870584 
L 118.493412 173.592524 
L 118.745727 172.935081 
L 118.871885 173.500351 
L 118.998043 171.956578 
L 119.124201 173.627595 
L 119.250359 173.435953 
L 119.376517 172.972952 
L 119.628832 173.383979 
L 119.75499 173.34747 
L 120.007306 171.317676 
L 120.133464 172.390963 
L 120.259622 172.471577 
L 120.38578 172.236146 
L 120.511937 173.429805 
L 120.638095 173.456499 
L 120.890411 172.571786 
L 121.016569 173.616327 
L 121.142727 172.540881 
L 121.268885 173.530634 
L 121.395042 173.502419 
L 121.5212 173.26844 
L 121.647358 172.151167 
L 121.773516 172.21846 
L 122.15199 173.480993 
L 122.404305 172.407825 
L 122.530463 173.124273 
L 122.656621 172.70653 
L 122.782779 173.354251 
L 123.035095 172.057042 
L 123.161252 172.865074 
L 123.28741 172.249156 
L 123.413568 173.012161 
L 123.539726 172.989241 
L 123.792042 173.400013 
L 124.044357 172.599065 
L 124.296673 173.457922 
L 124.422831 173.125571 
L 124.548989 173.381369 
L 124.801305 172.998794 
L 124.927462 173.124842 
L 125.179778 172.554478 
L 125.305936 172.945891 
L 125.432094 172.3726 
L 125.558252 173.289621 
L 125.68441 173.093699 
L 125.936725 172.221974 
L 126.189041 173.255704 
L 126.315199 173.588479 
L 126.441357 173.149081 
L 126.567515 173.477244 
L 126.81983 173.046217 
L 126.945988 173.578069 
L 127.072146 173.558771 
L 127.324462 173.164762 
L 127.702935 173.352102 
L 127.829093 172.508186 
L 128.081409 173.382063 
L 128.207567 173.215171 
L 128.333725 172.646395 
L 128.459883 173.445904 
L 128.712198 172.691146 
L 128.838356 173.193965 
L 128.964514 172.712138 
L 129.090672 172.900681 
L 129.21683 173.383742 
L 129.342988 172.994593 
L 129.469145 173.19445 
L 129.595303 172.573964 
L 129.721461 173.600411 
L 129.973777 172.939932 
L 130.099935 173.186215 
L 130.226093 172.801627 
L 130.478408 173.424629 
L 130.730724 173.185943 
L 130.856882 172.709244 
L 130.98304 172.921782 
L 131.109198 173.382588 
L 131.235356 172.899457 
L 131.361513 173.26581 
L 131.487671 173.198051 
L 131.613829 173.606934 
L 131.866145 172.44916 
L 131.992303 173.130998 
L 132.118461 172.741639 
L 132.244618 173.304087 
L 132.370776 172.497364 
L 132.496934 172.588958 
L 132.623092 172.477501 
L 132.74925 173.647447 
L 133.001566 172.518188 
L 133.127723 173.809779 
L 133.253881 173.397606 
L 133.380039 172.420206 
L 133.506197 172.449481 
L 133.632355 173.523667 
L 133.758513 173.153993 
L 133.884671 173.543468 
L 134.010828 173.200481 
L 134.263144 173.531936 
L 134.389302 173.119555 
L 134.641618 173.291397 
L 134.767776 172.987023 
L 134.893933 172.059494 
L 135.020091 172.020281 
L 135.272407 172.824398 
L 135.398565 172.866576 
L 135.524723 173.273695 
L 135.650881 171.872021 
L 136.029354 172.924195 
L 136.28167 172.062598 
L 136.533986 173.430577 
L 136.786301 172.849707 
L 136.912459 173.011682 
L 137.038617 173.395285 
L 137.290933 173.093759 
L 137.543249 173.676738 
L 137.795564 172.360145 
L 137.921722 173.087697 
L 138.04788 172.831348 
L 138.300196 173.486224 
L 138.426354 172.891007 
L 138.804827 173.509333 
L 138.930985 173.389426 
L 139.057143 172.33368 
L 139.309459 173.239104 
L 139.435616 173.078554 
L 139.561774 172.527922 
L 139.687932 172.723984 
L 139.81409 173.391156 
L 139.940248 171.893306 
L 140.066406 172.146039 
L 140.192564 173.268141 
L 140.318721 172.959362 
L 140.444879 173.11361 
L 140.571037 172.820953 
L 140.697195 173.252348 
L 140.823353 171.718422 
L 140.949511 172.655503 
L 141.201826 171.869811 
L 141.327984 173.474363 
L 141.706458 172.120926 
L 141.832616 172.882653 
L 141.958774 171.884989 
L 142.211089 173.670492 
L 142.337247 173.570316 
L 142.463405 171.769898 
L 142.841879 173.33876 
L 143.094194 173.385067 
L 143.220352 172.929645 
L 143.34651 173.393132 
L 143.472668 171.98563 
L 143.598826 173.053953 
L 143.724984 172.947947 
L 143.851142 173.155753 
L 144.103457 171.714864 
L 144.481931 173.494058 
L 144.608089 171.469671 
L 144.734247 172.810484 
L 144.860404 172.235816 
L 144.986562 172.191418 
L 145.11272 172.509719 
L 145.238878 172.440853 
L 145.491194 173.356436 
L 145.617352 172.320648 
L 145.743509 173.581995 
L 145.995825 172.018494 
L 146.121983 173.609291 
L 146.248141 172.910537 
L 146.374299 173.003142 
L 146.500457 171.934405 
L 146.752772 172.933007 
L 146.87893 172.017113 
L 147.005088 172.207784 
L 147.131246 172.191773 
L 147.257404 172.864954 
L 147.383562 171.665239 
L 147.50972 172.862197 
L 147.762035 171.492519 
L 147.888193 172.462623 
L 148.014351 169.589284 
L 148.140509 163.286761 
L 148.266667 166.02381 
L 148.392825 159.635732 
L 148.64514 172.516978 
L 148.771298 171.866204 
L 149.023614 173.170958 
L 149.149772 172.535357 
L 149.27593 172.712658 
L 149.402087 172.000568 
L 149.528245 173.078914 
L 149.654403 172.54803 
L 149.780561 173.624875 
L 149.906719 170.737561 
L 150.032877 172.491397 
L 150.537508 172.904536 
L 150.663666 173.147475 
L 150.789824 173.043098 
L 150.915982 171.642276 
L 151.04214 172.386587 
L 151.168297 172.116857 
L 151.420613 173.271682 
L 151.546771 172.385047 
L 151.672929 172.589868 
L 151.799087 172.191884 
L 151.925245 173.055736 
L 152.051402 172.27239 
L 152.17756 172.578248 
L 152.303718 171.832906 
L 152.556034 172.751224 
L 152.682192 172.236607 
L 152.934508 172.181987 
L 153.060665 172.803647 
L 153.186823 172.016533 
L 153.439139 173.627694 
L 153.565297 171.689405 
L 153.94377 172.830314 
L 154.069928 172.120349 
L 154.196086 172.916903 
L 154.322244 171.973324 
L 154.448402 173.041086 
L 154.57456 172.809382 
L 154.826875 173.081681 
L 154.953033 173.138374 
L 155.079191 172.871223 
L 155.205349 172.899626 
L 155.583823 173.616275 
L 155.70998 172.559145 
L 155.836138 173.227178 
L 155.962296 172.628688 
L 156.34077 172.836936 
L 156.466928 172.219833 
L 156.593085 172.812751 
L 156.719243 172.176788 
L 156.971559 173.420379 
L 157.097717 172.30233 
L 157.223875 173.393099 
L 157.350033 172.791259 
L 157.47619 172.766268 
L 157.602348 172.561312 
L 157.728506 173.242236 
L 157.854664 171.995598 
L 157.980822 173.024816 
L 158.10698 172.96301 
L 158.233138 172.758812 
L 158.359295 173.097163 
L 158.485453 173.030301 
L 158.611611 173.595096 
L 158.863927 172.42503 
L 159.116243 173.210349 
L 159.242401 173.397677 
L 159.494716 172.632073 
L 159.620874 172.460807 
L 159.747032 173.665831 
L 159.999348 173.474326 
L 160.125506 173.611343 
L 160.251663 172.608051 
L 160.503979 173.517668 
L 160.630137 173.316357 
L 160.756295 173.042232 
L 160.882453 172.35112 
L 161.134768 173.169947 
L 161.260926 173.179122 
L 161.387084 172.075632 
L 161.513242 172.926613 
L 161.6394 172.756712 
L 161.765558 173.006818 
L 161.891716 173.766901 
L 162.144031 172.578511 
L 162.270189 173.400221 
L 162.396347 172.896821 
L 162.522505 173.457719 
L 162.774821 172.91515 
L 162.900978 173.710627 
L 163.027136 173.023048 
L 163.279452 173.655686 
L 163.531768 173.429277 
L 163.784083 173.737382 
L 163.910241 173.495116 
L 164.036399 172.659169 
L 164.288715 173.725311 
L 164.414873 173.617425 
L 164.541031 172.499268 
L 164.793346 173.483464 
L 164.919504 172.936849 
L 165.045662 173.556412 
L 165.17182 172.592588 
L 165.297978 173.443004 
L 165.550294 172.783677 
L 165.802609 173.466306 
L 166.054925 172.603206 
L 166.433399 173.722608 
L 166.559556 173.238436 
L 166.685714 173.552576 
L 166.811872 172.919808 
L 166.93803 173.059918 
L 167.064188 173.468688 
L 167.316504 172.876697 
L 167.442661 173.527315 
L 167.568819 173.04774 
L 167.694977 173.353299 
L 167.821135 173.129878 
L 168.073451 173.321691 
L 168.325766 173.020535 
L 168.578082 173.603867 
L 168.70424 172.484581 
L 168.956556 173.195702 
L 169.082714 173.239055 
L 169.208871 173.591681 
L 169.461187 173.23871 
L 169.713503 173.570935 
L 169.839661 173.051878 
L 169.965819 173.669263 
L 170.091977 173.305824 
L 170.218134 173.545296 
L 170.344292 173.471744 
L 170.596608 173.5705 
L 170.722766 173.583802 
L 170.848924 173.480802 
L 170.975082 173.651938 
L 171.101239 173.559086 
L 171.227397 173.311028 
L 171.479713 173.475598 
L 171.732029 173.615926 
L 171.858187 173.480212 
L 172.23666 173.74432 
L 172.362818 173.308451 
L 172.488976 173.419829 
L 172.615134 173.780564 
L 172.741292 173.476219 
L 172.867449 173.583536 
L 172.993607 173.243769 
L 173.119765 173.467191 
L 173.245923 172.754618 
L 173.372081 173.45865 
L 173.624397 173.516737 
L 173.750554 173.19737 
L 173.876712 173.505992 
L 174.00287 173.090544 
L 174.129028 173.625836 
L 174.255186 173.107993 
L 174.381344 173.677286 
L 174.507502 173.390182 
L 174.633659 173.806288 
L 174.759817 172.982668 
L 175.390607 173.451382 
L 175.516765 173.570038 
L 175.642922 173.421486 
L 175.76908 173.671242 
L 175.895238 173.095502 
L 176.021396 173.669842 
L 176.147554 173.343031 
L 176.273712 173.619226 
L 176.526027 172.819207 
L 176.778343 173.731265 
L 176.904501 173.000374 
L 177.030659 173.354456 
L 177.156817 173.23955 
L 177.282975 172.839232 
L 177.787606 173.63123 
L 177.913764 173.289089 
L 178.039922 173.54412 
L 178.16608 173.157827 
L 178.292237 173.214232 
L 178.544553 172.748776 
L 178.670711 173.03002 
L 178.796869 173.644295 
L 179.049185 172.537223 
L 179.3015 173.706765 
L 179.806132 173.577581 
L 179.93229 173.676573 
L 180.058447 173.197955 
L 180.310763 173.542278 
L 180.436921 173.55219 
L 180.563079 173.017578 
L 180.815395 173.510226 
L 181.06771 173.505728 
L 181.320026 172.928409 
L 181.446184 173.110223 
L 181.572342 173.658559 
L 181.6985 172.172844 
L 181.824658 172.329918 
L 181.950815 173.137041 
L 182.076973 172.916889 
L 182.203131 173.17447 
L 182.455447 172.88105 
L 182.581605 172.196706 
L 182.707763 173.209805 
L 182.83392 172.389163 
L 182.960078 173.085632 
L 183.086236 172.574762 
L 183.212394 173.358868 
L 183.338552 173.419771 
L 183.590868 172.98911 
L 183.717025 172.957065 
L 183.843183 173.226651 
L 183.969341 173.822444 
L 184.221657 172.785238 
L 184.347815 173.441904 
L 184.60013 173.561761 
L 184.726288 173.27446 
L 184.852446 172.30884 
L 185.23092 173.578643 
L 185.357078 173.196924 
L 185.483235 173.340244 
L 185.609393 172.71196 
L 185.735551 173.311377 
L 185.987867 172.981906 
L 186.114025 172.420397 
L 186.240183 172.594014 
L 186.366341 173.146174 
L 186.618656 172.693325 
L 186.870972 173.458215 
L 186.99713 172.944881 
L 187.123288 172.947129 
L 187.249446 173.201306 
L 187.375603 172.890729 
L 187.501761 173.110391 
L 187.627919 172.853183 
L 187.880235 173.561086 
L 188.006393 171.727103 
L 188.132551 173.396516 
L 188.258708 172.926873 
L 188.384866 173.680379 
L 188.511024 172.653119 
L 188.637182 173.399328 
L 188.76334 171.595479 
L 189.015656 173.070109 
L 189.394129 172.448778 
L 189.520287 172.843904 
L 189.772603 171.858659 
L 189.898761 173.190223 
L 190.024918 172.921723 
L 190.277234 171.958348 
L 190.52955 173.186478 
L 190.655708 171.837535 
L 190.908023 173.09986 
L 191.034181 172.133912 
L 191.160339 173.469726 
L 191.286497 173.575877 
L 191.412655 172.823978 
L 191.538813 172.944622 
L 191.664971 172.139731 
L 191.917286 173.463746 
L 192.043444 172.624826 
L 192.169602 172.766338 
L 192.29576 173.294429 
L 192.421918 172.603595 
L 192.548076 172.659471 
L 192.674234 171.539302 
L 192.800391 173.288978 
L 193.052707 172.115091 
L 193.178865 172.334503 
L 193.305023 172.796606 
L 193.683496 171.204358 
L 193.809654 172.462837 
L 193.935812 171.143802 
L 194.06197 171.171622 
L 194.188128 170.599949 
L 194.314286 161.256258 
L 194.440444 170.525103 
L 194.566601 170.210954 
L 194.692759 171.842901 
L 194.818917 171.314994 
L 194.945075 172.359598 
L 195.071233 172.333556 
L 195.197391 172.6848 
L 195.323549 172.406595 
L 195.449706 171.733363 
L 195.82818 173.605999 
L 195.954338 172.156295 
L 196.332811 173.640645 
L 196.458969 172.505206 
L 196.585127 173.338618 
L 196.711285 172.970318 
L 196.837443 173.506934 
L 197.089759 171.572937 
L 197.342074 173.446269 
L 197.59439 172.588014 
L 197.720548 173.673408 
L 197.846706 172.46803 
L 197.972864 172.384037 
L 198.225179 173.554092 
L 198.351337 173.481341 
L 198.477495 171.599626 
L 198.729811 173.167192 
L 198.982127 172.322243 
L 199.108284 173.151056 
L 199.234442 173.138102 
L 199.3606 172.395225 
L 199.486758 173.515314 
L 199.612916 173.479864 
L 199.865232 171.620683 
L 199.991389 173.019358 
L 200.117547 172.979071 
L 200.496021 173.427449 
L 200.622179 173.262769 
L 200.748337 172.875188 
L 200.874494 173.315028 
L 201.000652 172.296636 
L 201.12681 172.732908 
L 201.252968 172.544864 
L 201.379126 173.678072 
L 201.505284 173.130589 
L 201.631442 173.294396 
L 202.009915 172.898027 
L 202.136073 172.288791 
L 202.388389 173.206544 
L 202.514547 172.621134 
L 202.640705 172.740007 
L 202.766862 173.785832 
L 203.019178 172.443655 
L 203.271494 173.617035 
L 203.397652 173.350955 
L 203.649967 172.061935 
L 203.902283 173.433212 
L 204.154599 172.598126 
L 204.280757 172.876905 
L 204.406915 173.699554 
L 204.533072 173.275581 
L 204.65923 173.479414 
L 204.785388 173.030594 
L 204.911546 173.388378 
L 205.037704 172.868873 
L 205.163862 173.320959 
L 205.29002 173.148466 
L 205.542335 172.014204 
L 205.794651 173.074363 
L 205.920809 173.241499 
L 206.046967 173.668903 
L 206.299282 173.130971 
L 206.551598 173.236615 
L 206.803914 172.697455 
L 207.05623 173.214622 
L 207.434703 173.528412 
L 207.560861 173.286011 
L 207.813177 173.683013 
L 207.939335 172.861146 
L 208.065492 173.373933 
L 208.317808 172.927405 
L 208.570124 172.896998 
L 208.82244 173.235105 
L 208.948598 173.204467 
L 209.074755 173.514175 
L 209.200913 173.067243 
L 209.327071 173.543098 
L 209.579387 173.222467 
L 209.831703 173.500345 
L 209.95786 173.3679 
L 210.210176 172.849223 
L 210.462492 173.525469 
L 210.714808 172.697814 
L 210.840965 173.418764 
L 210.967123 173.298261 
L 211.093281 172.930959 
L 211.219439 173.43459 
L 211.345597 173.194952 
L 211.471755 173.448828 
L 211.597913 173.086044 
L 211.72407 173.445861 
L 211.976386 173.194555 
L 212.102544 172.841971 
L 212.228702 173.055702 
L 212.35486 172.883101 
L 212.607175 173.753699 
L 212.733333 173.771349 
L 212.985649 173.245884 
L 213.111807 173.665464 
L 213.237965 173.251383 
L 213.364123 173.569833 
L 213.616438 173.211826 
L 213.742596 172.71965 
L 213.868754 172.842532 
L 213.994912 173.765682 
L 214.12107 173.757811 
L 214.247228 173.116139 
L 214.373386 173.59384 
L 214.625701 173.632966 
L 214.751859 173.28804 
L 214.878017 173.423146 
L 215.004175 173.34728 
L 215.130333 173.56774 
L 215.382648 173.307586 
L 215.634964 173.434374 
L 216.013438 173.011843 
L 216.139596 173.252824 
L 216.265753 173.013045 
L 216.391911 173.68716 
L 216.518069 173.100867 
L 216.644227 173.554294 
L 216.770385 173.462911 
L 216.896543 173.748032 
L 217.148858 173.50409 
L 217.275016 173.655504 
L 217.527332 173.433741 
L 217.65349 173.659516 
L 217.905806 173.548047 
L 218.031963 173.08885 
L 218.158121 173.356655 
L 218.284279 173.30455 
L 218.410437 173.582472 
L 218.662753 173.616944 
L 218.915068 173.660454 
L 219.167384 173.334179 
L 219.293542 173.403179 
L 219.4197 173.620836 
L 219.672016 173.297928 
L 219.798174 173.575251 
L 219.924331 173.430536 
L 220.050489 173.80055 
L 220.302805 173.626398 
L 220.428963 173.339468 
L 220.555121 173.41602 
L 220.681279 173.170404 
L 220.933594 173.586952 
L 221.059752 173.474873 
L 221.18591 173.690808 
L 221.312068 173.471061 
L 221.438226 173.601971 
L 221.690541 173.494145 
L 221.816699 173.471658 
L 221.942857 173.722398 
L 222.195173 173.553093 
L 222.447489 173.421518 
L 222.573646 173.728541 
L 222.825962 173.365201 
L 223.204436 173.667779 
L 223.330594 173.079307 
L 223.456751 173.470392 
L 223.709067 173.322827 
L 223.835225 173.589219 
L 224.087541 173.49174 
L 224.339856 173.519944 
L 224.466014 173.233791 
L 224.71833 173.212318 
L 224.844488 173.738672 
L 224.970646 173.572735 
L 225.096804 172.991231 
L 225.349119 173.18096 
L 225.475277 173.324478 
L 225.727593 173.131573 
L 225.853751 173.349235 
L 225.979909 173.248283 
L 226.106067 173.339738 
L 226.232224 173.698176 
L 226.358382 173.240681 
L 226.48454 173.395106 
L 226.736856 172.955771 
L 226.863014 173.705933 
L 227.115329 172.548045 
L 227.241487 173.519035 
L 227.367645 173.610113 
L 227.493803 173.101636 
L 227.619961 173.611101 
L 227.872277 173.014816 
L 227.998434 173.531727 
L 228.124592 173.319225 
L 228.25075 173.578965 
L 228.376908 173.38029 
L 228.503066 173.593565 
L 228.629224 173.412098 
L 228.755382 173.698529 
L 229.007697 172.809707 
L 229.133855 172.894565 
L 229.386171 173.510842 
L 229.512329 173.733616 
L 229.890802 173.278112 
L 230.01696 173.5463 
L 230.143118 172.988491 
L 230.395434 173.112346 
L 230.521592 173.610806 
L 230.773907 173.061413 
L 231.026223 173.158021 
L 231.152381 173.571755 
L 231.278539 173.382921 
L 231.404697 173.606519 
L 231.530855 173.519633 
L 231.657012 173.627255 
L 231.78317 173.314923 
L 231.909328 173.467282 
L 232.035486 173.365799 
L 232.161644 173.526965 
L 232.287802 173.262434 
L 232.41396 173.759095 
L 232.540117 173.016891 
L 232.666275 173.735453 
L 232.792433 172.965516 
L 232.918591 173.163503 
L 233.170907 172.692125 
L 233.423222 172.979481 
L 233.54938 172.714898 
L 233.801696 173.344339 
L 233.927854 172.570762 
L 234.054012 173.650175 
L 234.18017 172.683716 
L 234.306327 173.222708 
L 234.432485 173.219201 
L 234.684801 172.495738 
L 234.810959 172.772967 
L 235.063275 173.710908 
L 235.189432 173.151504 
L 235.441748 173.555526 
L 235.567906 172.959289 
L 235.820222 172.812308 
L 235.94638 172.947318 
L 236.072538 172.557814 
L 236.324853 173.045905 
L 236.451011 173.013977 
L 236.577169 173.813411 
L 236.703327 172.411644 
L 236.955643 173.049707 
L 237.0818 172.898142 
L 237.460274 173.64822 
L 237.586432 173.048805 
L 237.71259 173.203182 
L 237.838748 173.179022 
L 237.964905 173.672339 
L 238.343379 173.221897 
L 238.469537 172.896116 
L 238.595695 173.005234 
L 238.721853 173.283674 
L 238.84801 172.777207 
L 239.100326 173.195236 
L 239.226484 173.334605 
L 239.352642 173.053757 
L 239.4788 173.118432 
L 239.604958 173.639692 
L 239.857273 173.139123 
L 240.109589 172.20238 
L 240.361905 167.368776 
L 240.740378 173.256046 
L 240.866536 172.858089 
L 240.992694 173.208706 
L 241.118852 173.230297 
L 241.24501 172.491585 
L 241.371168 173.342879 
L 241.497326 173.262146 
L 241.623483 173.663168 
L 241.749641 173.480821 
L 241.875799 173.513185 
L 242.001957 172.69897 
L 242.128115 173.008853 
L 242.254273 172.859653 
L 242.380431 173.748812 
L 242.506588 173.065052 
L 242.632746 173.441259 
L 242.758904 173.405734 
L 242.885062 172.887136 
L 243.137378 172.920514 
L 243.389693 172.82952 
L 243.515851 173.566868 
L 243.768167 172.862069 
L 243.894325 172.881492 
L 244.146641 173.262389 
L 244.272798 173.41188 
L 244.398956 172.715514 
L 244.525114 173.282248 
L 244.651272 172.301962 
L 244.903588 173.266961 
L 245.029746 173.730543 
L 245.155903 173.422773 
L 245.408219 173.660481 
L 245.534377 173.466376 
L 245.786693 172.779056 
L 245.912851 172.449331 
L 246.039008 173.144923 
L 246.165166 172.633523 
L 246.291324 172.935022 
L 246.417482 172.684636 
L 246.54364 173.08089 
L 246.669798 172.772737 
L 246.795956 173.115575 
L 246.922114 172.800579 
L 247.048271 173.188259 
L 247.174429 172.786021 
L 247.426745 173.751621 
L 247.552903 173.167055 
L 247.805219 173.625542 
L 247.931376 173.612979 
L 248.057534 173.399906 
L 248.183692 172.764897 
L 248.436008 173.4537 
L 248.562166 173.340069 
L 248.688324 173.79802 
L 248.814481 172.976996 
L 248.940639 173.286659 
L 249.066797 173.248162 
L 249.192955 173.562632 
L 249.319113 173.435721 
L 249.445271 173.47213 
L 249.571429 172.867541 
L 249.697586 172.873964 
L 249.823744 173.068897 
L 249.949902 173.631961 
L 250.07606 173.326721 
L 250.202218 173.661089 
L 250.328376 172.964849 
L 250.580691 173.724451 
L 250.706849 173.397438 
L 250.833007 173.397194 
L 251.085323 172.816785 
L 251.211481 173.540957 
L 251.463796 172.992806 
L 251.589954 172.629108 
L 251.84227 173.304189 
L 251.968428 173.228617 
L 252.094586 173.579732 
L 252.220744 173.455695 
L 252.346902 173.535684 
L 252.599217 173.212116 
L 252.851533 173.680093 
L 253.103849 173.395356 
L 253.230007 173.47384 
L 253.356164 173.100642 
L 253.482322 173.605538 
L 253.860796 173.603113 
L 253.986954 173.047963 
L 254.491585 173.679989 
L 254.617743 173.106234 
L 254.870059 173.80164 
L 254.996217 173.124786 
L 255.122374 173.640404 
L 255.37469 173.171376 
L 255.500848 173.514337 
L 255.627006 173.469927 
L 255.753164 173.603295 
L 255.879322 173.560576 
L 256.005479 173.264786 
L 256.131637 173.614033 
L 256.257795 173.062694 
L 256.383953 173.565465 
L 256.636269 173.312244 
L 256.762427 173.692485 
L 257.014742 172.952763 
L 257.1409 173.434246 
L 257.267058 173.11792 
L 257.393216 173.618799 
L 257.645532 173.007084 
L 257.897847 173.39098 
L 258.150163 173.130901 
L 258.276321 173.028848 
L 258.402479 173.724496 
L 258.90711 173.553463 
L 259.5379 173.722759 
L 260.042531 173.049703 
L 260.168689 173.558686 
L 260.421005 173.472627 
L 260.67332 173.655782 
L 260.925636 173.189066 
L 261.051794 173.45096 
L 261.30411 173.112313 
L 261.430267 173.703912 
L 261.556425 173.313011 
L 261.808741 173.634856 
L 261.934899 173.61828 
L 262.061057 173.258368 
L 262.313372 173.573798 
L 262.43953 173.456871 
L 262.818004 173.767928 
L 263.07032 173.573044 
L 263.196477 173.443204 
L 263.322635 173.609451 
L 263.574951 173.394251 
L 263.701109 173.643482 
L 263.953425 173.33675 
L 264.079583 173.796293 
L 264.20574 173.409747 
L 264.458056 173.767952 
L 264.962688 173.533082 
L 265.593477 173.655447 
L 265.845793 173.473102 
L 265.97195 173.496818 
L 266.098108 173.672629 
L 266.224266 173.537253 
L 266.350424 173.645548 
L 266.476582 173.428785 
L 266.60274 173.612287 
L 266.728898 173.079016 
L 266.855055 173.646484 
L 266.981213 173.69912 
L 267.107371 173.408106 
L 267.485845 173.563359 
L 267.612003 173.230532 
L 267.73816 173.62119 
L 267.864318 173.407052 
L 267.990476 173.756188 
L 268.116634 173.76237 
L 268.242792 173.384753 
L 268.36895 173.747501 
L 268.495108 173.517737 
L 268.621265 173.687546 
L 268.747423 173.278427 
L 268.873581 173.488101 
L 268.999739 173.057684 
L 269.252055 173.620494 
L 269.378213 173.440411 
L 269.504371 173.698909 
L 269.630528 173.46435 
L 269.756686 173.536214 
L 270.009002 173.366077 
L 270.13516 173.727942 
L 270.261318 173.54224 
L 270.387476 173.560038 
L 270.513633 173.384032 
L 270.639791 173.792739 
L 270.765949 173.461781 
L 271.144423 173.603469 
L 271.270581 173.205802 
L 271.775212 173.271208 
L 272.027528 173.567918 
L 272.153686 173.232662 
L 272.406001 173.430277 
L 272.532159 173.141195 
L 272.784475 173.39478 
L 273.036791 173.710985 
L 273.162948 173.513113 
L 273.289106 173.526725 
L 273.415264 173.745452 
L 273.541422 173.668373 
L 273.66758 173.402506 
L 273.919896 173.557492 
L 274.046053 173.695183 
L 274.172211 173.614226 
L 274.298369 173.792444 
L 274.424527 173.284271 
L 274.550685 173.263091 
L 274.676843 173.360363 
L 274.803001 173.723567 
L 275.055316 173.408631 
L 275.181474 173.07611 
L 275.307632 173.790596 
L 275.43379 173.331043 
L 275.559948 173.575036 
L 275.686106 173.085188 
L 275.812264 173.096449 
L 275.938421 173.290173 
L 276.064579 173.089104 
L 276.316895 173.566712 
L 276.443053 173.320969 
L 276.569211 173.719586 
L 276.695369 173.321821 
L 276.947684 173.529696 
L 277.073842 173.298263 
L 277.2 173.603546 
L 277.326158 173.547061 
L 277.326158 173.547061 
" clip-path="url(#p4629b4c644)" style="fill: none; stroke: #80b1d3; stroke-linecap: round"/>
   </g>
   <g id="patch_3">
    <path d="M 45.12 181.416412 
L 45.12 14.505962 
" style="fill: none; stroke: #cccccc; stroke-linejoin: miter; stroke-linecap: square"/>
   </g>
   <g id="patch_4">
    <path d="M 277.2 181.416412 
L 277.2 14.505962 
" style="fill: none; stroke: #cccccc; stroke-linejoin: miter; stroke-linecap: square"/>
   </g>
   <g id="patch_5">
    <path d="M 45.12 181.416412 
L 277.2 181.416412 
" style="fill: none; stroke: #cccccc; stroke-linejoin: miter; stroke-linecap: square"/>
   </g>
   <g id="patch_6">
    <path d="M 45.12 14.505962 
L 277.2 14.505962 
" style="fill: none; stroke: #cccccc; stroke-linejoin: miter; stroke-linecap: square"/>
   </g>
  </g>
 </g>
 <defs>
  <clipPath id="p4629b4c644">
   <rect x="45.12" y="14.505962" width="232.08" height="166.91045"/>
  </clipPath>
 </defs>
</svg>
