<?xml version="1.0" encoding="utf-8" standalone="no"?>
<!DOCTYPE svg PUBLIC "-//W3C//DTD SVG 1.1//EN"
  "http://www.w3.org/Graphics/SVG/1.1/DTD/svg11.dtd">
<svg xmlns:xlink="http://www.w3.org/1999/xlink" width="288pt" height="230.4pt" viewBox="0 0 288 230.4" xmlns="http://www.w3.org/2000/svg" version="1.1">
 <metadata>
  <rdf:RDF xmlns:dc="http://purl.org/dc/elements/1.1/" xmlns:cc="http://creativecommons.org/ns#" xmlns:rdf="http://www.w3.org/1999/02/22-rdf-syntax-ns#">
   <cc:Work>
    <dc:type rdf:resource="http://purl.org/dc/dcmitype/StillImage"/>
    <dc:date>2024-07-21T17:28:18.196948</dc:date>
    <dc:format>image/svg+xml</dc:format>
    <dc:creator>
     <cc:Agent>
      <dc:title>Matplotlib v3.9.0, https://matplotlib.org/</dc:title>
     </cc:Agent>
    </dc:creator>
   </cc:Work>
  </rdf:RDF>
 </metadata>
 <defs>
  <style type="text/css">*{stroke-linejoin: round; stroke-linecap: butt}</style>
 </defs>
 <g id="figure_1">
  <g id="patch_1">
   <path d="M 0 230.4 
L 288 230.4 
L 288 0 
L 0 0 
z
" style="fill: #ffffff"/>
  </g>
  <g id="axes_1">
   <g id="patch_2">
    <path d="M 39.54 181.416412 
L 277.2 181.416412 
L 277.2 10.8 
L 39.54 10.8 
z
" style="fill: #ffffff"/>
   </g>
   <g id="matplotlib.axis_1">
    <g id="xtick_1">
     <g id="line2d_1">
      <path d="M 239.47619 181.416412 
L 239.47619 10.8 
" clip-path="url(#p8b8949a24f)" style="fill: none; stroke: #cccccc; stroke-width: 0.8; stroke-linecap: round"/>
     </g>
     <g id="line2d_2"/>
     <g id="text_1">
      <!-- 6 hours -->
      <g style="fill: #262626" transform="translate(214.4877 213.560866) rotate(-45) scale(0.1 -0.1)">
       <defs>
        <path id="ArialMT-36" d="M 3184 3459 
L 2625 3416 
Q 2550 3747 2413 3897 
Q 2184 4138 1850 4138 
Q 1581 4138 1378 3988 
Q 1113 3794 959 3422 
Q 806 3050 800 2363 
Q 1003 2672 1297 2822 
Q 1591 2972 1913 2972 
Q 2475 2972 2870 2558 
Q 3266 2144 3266 1488 
Q 3266 1056 3080 686 
Q 2894 316 2569 119 
Q 2244 -78 1831 -78 
Q 1128 -78 684 439 
Q 241 956 241 2144 
Q 241 3472 731 4075 
Q 1159 4600 1884 4600 
Q 2425 4600 2770 4297 
Q 3116 3994 3184 3459 
z
M 888 1484 
Q 888 1194 1011 928 
Q 1134 663 1356 523 
Q 1578 384 1822 384 
Q 2178 384 2434 671 
Q 2691 959 2691 1453 
Q 2691 1928 2437 2201 
Q 2184 2475 1800 2475 
Q 1419 2475 1153 2201 
Q 888 1928 888 1484 
z
" transform="scale(0.015625)"/>
        <path id="ArialMT-20" transform="scale(0.015625)"/>
        <path id="ArialMT-68" d="M 422 0 
L 422 4581 
L 984 4581 
L 984 2938 
Q 1378 3394 1978 3394 
Q 2347 3394 2619 3248 
Q 2891 3103 3008 2847 
Q 3125 2591 3125 2103 
L 3125 0 
L 2563 0 
L 2563 2103 
Q 2563 2525 2380 2717 
Q 2197 2909 1863 2909 
Q 1613 2909 1392 2779 
Q 1172 2650 1078 2428 
Q 984 2206 984 1816 
L 984 0 
L 422 0 
z
" transform="scale(0.015625)"/>
        <path id="ArialMT-6f" d="M 213 1659 
Q 213 2581 725 3025 
Q 1153 3394 1769 3394 
Q 2453 3394 2887 2945 
Q 3322 2497 3322 1706 
Q 3322 1066 3130 698 
Q 2938 331 2570 128 
Q 2203 -75 1769 -75 
Q 1072 -75 642 372 
Q 213 819 213 1659 
z
M 791 1659 
Q 791 1022 1069 705 
Q 1347 388 1769 388 
Q 2188 388 2466 706 
Q 2744 1025 2744 1678 
Q 2744 2294 2464 2611 
Q 2184 2928 1769 2928 
Q 1347 2928 1069 2612 
Q 791 2297 791 1659 
z
" transform="scale(0.015625)"/>
        <path id="ArialMT-75" d="M 2597 0 
L 2597 488 
Q 2209 -75 1544 -75 
Q 1250 -75 995 37 
Q 741 150 617 320 
Q 494 491 444 738 
Q 409 903 409 1263 
L 409 3319 
L 972 3319 
L 972 1478 
Q 972 1038 1006 884 
Q 1059 663 1231 536 
Q 1403 409 1656 409 
Q 1909 409 2131 539 
Q 2353 669 2445 892 
Q 2538 1116 2538 1541 
L 2538 3319 
L 3100 3319 
L 3100 0 
L 2597 0 
z
" transform="scale(0.015625)"/>
        <path id="ArialMT-72" d="M 416 0 
L 416 3319 
L 922 3319 
L 922 2816 
Q 1116 3169 1280 3281 
Q 1444 3394 1641 3394 
Q 1925 3394 2219 3213 
L 2025 2691 
Q 1819 2813 1613 2813 
Q 1428 2813 1281 2702 
Q 1134 2591 1072 2394 
Q 978 2094 978 1738 
L 978 0 
L 416 0 
z
" transform="scale(0.015625)"/>
        <path id="ArialMT-73" d="M 197 991 
L 753 1078 
Q 800 744 1014 566 
Q 1228 388 1613 388 
Q 2000 388 2187 545 
Q 2375 703 2375 916 
Q 2375 1106 2209 1216 
Q 2094 1291 1634 1406 
Q 1016 1563 777 1677 
Q 538 1791 414 1992 
Q 291 2194 291 2438 
Q 291 2659 392 2848 
Q 494 3038 669 3163 
Q 800 3259 1026 3326 
Q 1253 3394 1513 3394 
Q 1903 3394 2198 3281 
Q 2494 3169 2634 2976 
Q 2775 2784 2828 2463 
L 2278 2388 
Q 2241 2644 2061 2787 
Q 1881 2931 1553 2931 
Q 1166 2931 1000 2803 
Q 834 2675 834 2503 
Q 834 2394 903 2306 
Q 972 2216 1119 2156 
Q 1203 2125 1616 2013 
Q 2213 1853 2448 1751 
Q 2684 1650 2818 1456 
Q 2953 1263 2953 975 
Q 2953 694 2789 445 
Q 2625 197 2315 61 
Q 2006 -75 1616 -75 
Q 969 -75 630 194 
Q 291 463 197 991 
z
" transform="scale(0.015625)"/>
       </defs>
       <use xlink:href="#ArialMT-36"/>
       <use xlink:href="#ArialMT-20" x="55.615234"/>
       <use xlink:href="#ArialMT-68" x="83.398438"/>
       <use xlink:href="#ArialMT-6f" x="139.013672"/>
       <use xlink:href="#ArialMT-75" x="194.628906"/>
       <use xlink:href="#ArialMT-72" x="250.244141"/>
       <use xlink:href="#ArialMT-73" x="283.544922"/>
      </g>
     </g>
    </g>
    <g id="xtick_2">
     <g id="line2d_3">
      <path d="M 192.321429 181.416412 
L 192.321429 10.8 
" clip-path="url(#p8b8949a24f)" style="fill: none; stroke: #cccccc; stroke-width: 0.8; stroke-linecap: round"/>
     </g>
     <g id="line2d_4"/>
     <g id="text_2">
      <!-- 8 hours -->
      <g style="fill: #262626" transform="translate(167.332938 213.560866) rotate(-45) scale(0.1 -0.1)">
       <defs>
        <path id="ArialMT-38" d="M 1131 2484 
Q 781 2613 612 2850 
Q 444 3088 444 3419 
Q 444 3919 803 4259 
Q 1163 4600 1759 4600 
Q 2359 4600 2725 4251 
Q 3091 3903 3091 3403 
Q 3091 3084 2923 2848 
Q 2756 2613 2416 2484 
Q 2838 2347 3058 2040 
Q 3278 1734 3278 1309 
Q 3278 722 2862 322 
Q 2447 -78 1769 -78 
Q 1091 -78 675 323 
Q 259 725 259 1325 
Q 259 1772 486 2073 
Q 713 2375 1131 2484 
z
M 1019 3438 
Q 1019 3113 1228 2906 
Q 1438 2700 1772 2700 
Q 2097 2700 2305 2904 
Q 2513 3109 2513 3406 
Q 2513 3716 2298 3927 
Q 2084 4138 1766 4138 
Q 1444 4138 1231 3931 
Q 1019 3725 1019 3438 
z
M 838 1322 
Q 838 1081 952 856 
Q 1066 631 1291 507 
Q 1516 384 1775 384 
Q 2178 384 2440 643 
Q 2703 903 2703 1303 
Q 2703 1709 2433 1975 
Q 2163 2241 1756 2241 
Q 1359 2241 1098 1978 
Q 838 1716 838 1322 
z
" transform="scale(0.015625)"/>
       </defs>
       <use xlink:href="#ArialMT-38"/>
       <use xlink:href="#ArialMT-20" x="55.615234"/>
       <use xlink:href="#ArialMT-68" x="83.398438"/>
       <use xlink:href="#ArialMT-6f" x="139.013672"/>
       <use xlink:href="#ArialMT-75" x="194.628906"/>
       <use xlink:href="#ArialMT-72" x="250.244141"/>
       <use xlink:href="#ArialMT-73" x="283.544922"/>
      </g>
     </g>
    </g>
    <g id="xtick_3">
     <g id="line2d_5">
      <path d="M 145.166667 181.416412 
L 145.166667 10.8 
" clip-path="url(#p8b8949a24f)" style="fill: none; stroke: #cccccc; stroke-width: 0.8; stroke-linecap: round"/>
     </g>
     <g id="line2d_6"/>
     <g id="text_3">
      <!-- 12 hours -->
      <g style="fill: #262626" transform="translate(116.245999 217.493043) rotate(-45) scale(0.1 -0.1)">
       <defs>
        <path id="ArialMT-31" d="M 2384 0 
L 1822 0 
L 1822 3584 
Q 1619 3391 1289 3197 
Q 959 3003 697 2906 
L 697 3450 
Q 1169 3672 1522 3987 
Q 1875 4303 2022 4600 
L 2384 4600 
L 2384 0 
z
" transform="scale(0.015625)"/>
        <path id="ArialMT-32" d="M 3222 541 
L 3222 0 
L 194 0 
Q 188 203 259 391 
Q 375 700 629 1000 
Q 884 1300 1366 1694 
Q 2113 2306 2375 2664 
Q 2638 3022 2638 3341 
Q 2638 3675 2398 3904 
Q 2159 4134 1775 4134 
Q 1369 4134 1125 3890 
Q 881 3647 878 3216 
L 300 3275 
Q 359 3922 746 4261 
Q 1134 4600 1788 4600 
Q 2447 4600 2831 4234 
Q 3216 3869 3216 3328 
Q 3216 3053 3103 2787 
Q 2991 2522 2730 2228 
Q 2469 1934 1863 1422 
Q 1356 997 1212 845 
Q 1069 694 975 541 
L 3222 541 
z
" transform="scale(0.015625)"/>
       </defs>
       <use xlink:href="#ArialMT-31"/>
       <use xlink:href="#ArialMT-32" x="55.615234"/>
       <use xlink:href="#ArialMT-20" x="111.230469"/>
       <use xlink:href="#ArialMT-68" x="139.013672"/>
       <use xlink:href="#ArialMT-6f" x="194.628906"/>
       <use xlink:href="#ArialMT-75" x="250.244141"/>
       <use xlink:href="#ArialMT-72" x="305.859375"/>
       <use xlink:href="#ArialMT-73" x="339.160156"/>
      </g>
     </g>
    </g>
    <g id="xtick_4">
     <g id="line2d_7">
      <path d="M 98.011905 181.416412 
L 98.011905 10.8 
" clip-path="url(#p8b8949a24f)" style="fill: none; stroke: #cccccc; stroke-width: 0.8; stroke-linecap: round"/>
     </g>
     <g id="line2d_8"/>
     <g id="text_4">
      <!-- Daily -->
      <g style="fill: #262626" transform="translate(80.807113 205.694303) rotate(-45) scale(0.1 -0.1)">
       <defs>
        <path id="ArialMT-44" d="M 494 0 
L 494 4581 
L 2072 4581 
Q 2606 4581 2888 4516 
Q 3281 4425 3559 4188 
Q 3922 3881 4101 3404 
Q 4281 2928 4281 2316 
Q 4281 1794 4159 1391 
Q 4038 988 3847 723 
Q 3656 459 3429 307 
Q 3203 156 2883 78 
Q 2563 0 2147 0 
L 494 0 
z
M 1100 541 
L 2078 541 
Q 2531 541 2789 625 
Q 3047 709 3200 863 
Q 3416 1078 3536 1442 
Q 3656 1806 3656 2325 
Q 3656 3044 3420 3430 
Q 3184 3816 2847 3947 
Q 2603 4041 2063 4041 
L 1100 4041 
L 1100 541 
z
" transform="scale(0.015625)"/>
        <path id="ArialMT-61" d="M 2588 409 
Q 2275 144 1986 34 
Q 1697 -75 1366 -75 
Q 819 -75 525 192 
Q 231 459 231 875 
Q 231 1119 342 1320 
Q 453 1522 633 1644 
Q 813 1766 1038 1828 
Q 1203 1872 1538 1913 
Q 2219 1994 2541 2106 
Q 2544 2222 2544 2253 
Q 2544 2597 2384 2738 
Q 2169 2928 1744 2928 
Q 1347 2928 1158 2789 
Q 969 2650 878 2297 
L 328 2372 
Q 403 2725 575 2942 
Q 747 3159 1072 3276 
Q 1397 3394 1825 3394 
Q 2250 3394 2515 3294 
Q 2781 3194 2906 3042 
Q 3031 2891 3081 2659 
Q 3109 2516 3109 2141 
L 3109 1391 
Q 3109 606 3145 398 
Q 3181 191 3288 0 
L 2700 0 
Q 2613 175 2588 409 
z
M 2541 1666 
Q 2234 1541 1622 1453 
Q 1275 1403 1131 1340 
Q 988 1278 909 1158 
Q 831 1038 831 891 
Q 831 666 1001 516 
Q 1172 366 1500 366 
Q 1825 366 2078 508 
Q 2331 650 2450 897 
Q 2541 1088 2541 1459 
L 2541 1666 
z
" transform="scale(0.015625)"/>
        <path id="ArialMT-69" d="M 425 3934 
L 425 4581 
L 988 4581 
L 988 3934 
L 425 3934 
z
M 425 0 
L 425 3319 
L 988 3319 
L 988 0 
L 425 0 
z
" transform="scale(0.015625)"/>
        <path id="ArialMT-6c" d="M 409 0 
L 409 4581 
L 972 4581 
L 972 0 
L 409 0 
z
" transform="scale(0.015625)"/>
        <path id="ArialMT-79" d="M 397 -1278 
L 334 -750 
Q 519 -800 656 -800 
Q 844 -800 956 -737 
Q 1069 -675 1141 -563 
Q 1194 -478 1313 -144 
Q 1328 -97 1363 -6 
L 103 3319 
L 709 3319 
L 1400 1397 
Q 1534 1031 1641 628 
Q 1738 1016 1872 1384 
L 2581 3319 
L 3144 3319 
L 1881 -56 
Q 1678 -603 1566 -809 
Q 1416 -1088 1222 -1217 
Q 1028 -1347 759 -1347 
Q 597 -1347 397 -1278 
z
" transform="scale(0.015625)"/>
       </defs>
       <use xlink:href="#ArialMT-44"/>
       <use xlink:href="#ArialMT-61" x="72.216797"/>
       <use xlink:href="#ArialMT-69" x="127.832031"/>
       <use xlink:href="#ArialMT-6c" x="150.048828"/>
       <use xlink:href="#ArialMT-79" x="172.265625"/>
      </g>
     </g>
    </g>
    <g id="xtick_5">
     <g id="line2d_9">
      <path d="M 57.593537 181.416412 
L 57.593537 10.8 
" clip-path="url(#p8b8949a24f)" style="fill: none; stroke: #cccccc; stroke-width: 0.8; stroke-linecap: round"/>
     </g>
     <g id="line2d_10"/>
     <g id="text_5">
      <!-- Weekly -->
      <g style="fill: #262626" transform="translate(33.048093 213.034955) rotate(-45) scale(0.1 -0.1)">
       <defs>
        <path id="ArialMT-57" d="M 1294 0 
L 78 4581 
L 700 4581 
L 1397 1578 
Q 1509 1106 1591 641 
Q 1766 1375 1797 1488 
L 2669 4581 
L 3400 4581 
L 4056 2263 
Q 4303 1400 4413 641 
Q 4500 1075 4641 1638 
L 5359 4581 
L 5969 4581 
L 4713 0 
L 4128 0 
L 3163 3491 
Q 3041 3928 3019 4028 
Q 2947 3713 2884 3491 
L 1913 0 
L 1294 0 
z
" transform="scale(0.015625)"/>
        <path id="ArialMT-65" d="M 2694 1069 
L 3275 997 
Q 3138 488 2766 206 
Q 2394 -75 1816 -75 
Q 1088 -75 661 373 
Q 234 822 234 1631 
Q 234 2469 665 2931 
Q 1097 3394 1784 3394 
Q 2450 3394 2872 2941 
Q 3294 2488 3294 1666 
Q 3294 1616 3291 1516 
L 816 1516 
Q 847 969 1125 678 
Q 1403 388 1819 388 
Q 2128 388 2347 550 
Q 2566 713 2694 1069 
z
M 847 1978 
L 2700 1978 
Q 2663 2397 2488 2606 
Q 2219 2931 1791 2931 
Q 1403 2931 1139 2672 
Q 875 2413 847 1978 
z
" transform="scale(0.015625)"/>
        <path id="ArialMT-6b" d="M 425 0 
L 425 4581 
L 988 4581 
L 988 1969 
L 2319 3319 
L 3047 3319 
L 1778 2088 
L 3175 0 
L 2481 0 
L 1384 1697 
L 988 1316 
L 988 0 
L 425 0 
z
" transform="scale(0.015625)"/>
       </defs>
       <use xlink:href="#ArialMT-57"/>
       <use xlink:href="#ArialMT-65" x="92.634766"/>
       <use xlink:href="#ArialMT-65" x="148.25"/>
       <use xlink:href="#ArialMT-6b" x="203.865234"/>
       <use xlink:href="#ArialMT-6c" x="253.865234"/>
       <use xlink:href="#ArialMT-79" x="276.082031"/>
      </g>
     </g>
    </g>
   </g>
   <g id="matplotlib.axis_2">
    <g id="ytick_1">
     <g id="line2d_11"/>
     <g id="text_6">
      <!-- 0 -->
      <g style="fill: #262626" transform="translate(30.479063 177.351174) scale(0.1 -0.1)">
       <defs>
        <path id="ArialMT-30" d="M 266 2259 
Q 266 3072 433 3567 
Q 600 4063 929 4331 
Q 1259 4600 1759 4600 
Q 2128 4600 2406 4451 
Q 2684 4303 2865 4023 
Q 3047 3744 3150 3342 
Q 3253 2941 3253 2259 
Q 3253 1453 3087 958 
Q 2922 463 2592 192 
Q 2263 -78 1759 -78 
Q 1097 -78 719 397 
Q 266 969 266 2259 
z
M 844 2259 
Q 844 1131 1108 757 
Q 1372 384 1759 384 
Q 2147 384 2411 759 
Q 2675 1134 2675 2259 
Q 2675 3391 2411 3762 
Q 2147 4134 1753 4134 
Q 1366 4134 1134 3806 
Q 844 3388 844 2259 
z
" transform="scale(0.015625)"/>
       </defs>
       <use xlink:href="#ArialMT-30"/>
      </g>
     </g>
    </g>
    <g id="ytick_2">
     <g id="line2d_12"/>
     <g id="text_7">
      <!-- 5 -->
      <g style="fill: #262626" transform="translate(30.479063 141.1299) scale(0.1 -0.1)">
       <defs>
        <path id="ArialMT-35" d="M 266 1200 
L 856 1250 
Q 922 819 1161 601 
Q 1400 384 1738 384 
Q 2144 384 2425 690 
Q 2706 997 2706 1503 
Q 2706 1984 2436 2262 
Q 2166 2541 1728 2541 
Q 1456 2541 1237 2417 
Q 1019 2294 894 2097 
L 366 2166 
L 809 4519 
L 3088 4519 
L 3088 3981 
L 1259 3981 
L 1013 2750 
Q 1425 3038 1878 3038 
Q 2478 3038 2890 2622 
Q 3303 2206 3303 1553 
Q 3303 931 2941 478 
Q 2500 -78 1738 -78 
Q 1113 -78 717 272 
Q 322 622 266 1200 
z
" transform="scale(0.015625)"/>
       </defs>
       <use xlink:href="#ArialMT-35"/>
      </g>
     </g>
    </g>
    <g id="ytick_3">
     <g id="line2d_13"/>
     <g id="text_8">
      <!-- 10 -->
      <g style="fill: #262626" transform="translate(24.918125 104.908626) scale(0.1 -0.1)">
       <use xlink:href="#ArialMT-31"/>
       <use xlink:href="#ArialMT-30" x="55.615234"/>
      </g>
     </g>
    </g>
    <g id="ytick_4">
     <g id="line2d_14"/>
     <g id="text_9">
      <!-- 15 -->
      <g style="fill: #262626" transform="translate(24.918125 68.687352) scale(0.1 -0.1)">
       <use xlink:href="#ArialMT-31"/>
       <use xlink:href="#ArialMT-35" x="55.615234"/>
      </g>
     </g>
    </g>
    <g id="ytick_5">
     <g id="line2d_15"/>
     <g id="text_10">
      <!-- 20 -->
      <g style="fill: #262626" transform="translate(24.918125 32.466078) scale(0.1 -0.1)">
       <use xlink:href="#ArialMT-32"/>
       <use xlink:href="#ArialMT-30" x="55.615234"/>
      </g>
     </g>
    </g>
    <g id="text_11">
     <!-- GW -->
     <g style="fill: #262626" transform="translate(18.930625 104.7168) rotate(-90) scale(0.1 -0.1)">
      <defs>
       <path id="ArialMT-47" d="M 2638 1797 
L 2638 2334 
L 4578 2338 
L 4578 638 
Q 4131 281 3656 101 
Q 3181 -78 2681 -78 
Q 2006 -78 1454 211 
Q 903 500 622 1047 
Q 341 1594 341 2269 
Q 341 2938 620 3517 
Q 900 4097 1425 4378 
Q 1950 4659 2634 4659 
Q 3131 4659 3532 4498 
Q 3934 4338 4162 4050 
Q 4391 3763 4509 3300 
L 3963 3150 
Q 3859 3500 3706 3700 
Q 3553 3900 3268 4020 
Q 2984 4141 2638 4141 
Q 2222 4141 1919 4014 
Q 1616 3888 1430 3681 
Q 1244 3475 1141 3228 
Q 966 2803 966 2306 
Q 966 1694 1177 1281 
Q 1388 869 1791 669 
Q 2194 469 2647 469 
Q 3041 469 3416 620 
Q 3791 772 3984 944 
L 3984 1797 
L 2638 1797 
z
" transform="scale(0.015625)"/>
      </defs>
      <use xlink:href="#ArialMT-47"/>
      <use xlink:href="#ArialMT-57" x="77.783203"/>
     </g>
    </g>
   </g>
   <g id="line2d_16">
    <path d="M 50.857143 18.555291 
L 50.986334 114.885861 
L 51.115525 112.940402 
L 51.373907 155.17446 
L 51.503098 133.084053 
L 51.761481 163.869956 
L 52.149054 151.139203 
L 52.407436 160.368194 
L 52.536628 138.037864 
L 52.79501 165.219053 
L 53.182583 152.305663 
L 53.311774 167.531078 
L 53.440965 165.607422 
L 53.828539 152.338381 
L 53.95773 145.37322 
L 54.086921 162.573951 
L 54.216112 148.783064 
L 54.345303 156.571908 
L 54.603686 144.802164 
L 54.732877 167.981998 
L 54.862068 152.283788 
L 54.991259 154.38057 
L 55.12045 142.014065 
L 55.378832 165.671948 
L 55.508023 151.02928 
L 55.766406 161.026211 
L 56.024788 140.531166 
L 56.153979 167.761621 
L 56.28317 157.189053 
L 56.412361 157.401501 
L 56.541553 151.644244 
L 56.799935 165.116487 
L 56.929126 157.189874 
L 57.058317 168.661178 
L 57.187508 161.891075 
L 57.316699 144.861132 
L 57.44589 164.597758 
L 57.575082 128.933362 
L 57.833464 153.88812 
L 57.962655 146.555308 
L 58.091846 163.488953 
L 58.350228 151.889427 
L 58.479419 164.464831 
L 58.608611 159.505047 
L 58.737802 148.945875 
L 58.866993 172.169981 
L 58.996184 159.320361 
L 59.125375 162.590611 
L 59.383757 150.727193 
L 59.512948 167.946318 
L 59.771331 146.036304 
L 59.900522 164.824038 
L 60.029713 148.970926 
L 60.158904 156.903111 
L 60.417286 146.756225 
L 60.546477 166.002163 
L 60.80486 155.41768 
L 60.934051 163.325815 
L 61.063242 164.120098 
L 61.192433 164.057894 
L 61.321624 162.158187 
L 61.450815 165.173248 
L 61.580007 163.475461 
L 61.709198 154.845926 
L 61.838389 167.010482 
L 61.96758 166.475926 
L 62.096771 168.739885 
L 62.484344 151.936531 
L 62.871918 170.059875 
L 63.001109 170.013491 
L 63.1303 161.834344 
L 63.259491 171.517129 
L 63.388682 165.509376 
L 63.517873 166.384988 
L 63.647065 169.738828 
L 63.776256 155.856483 
L 63.905447 157.000318 
L 64.034638 160.495256 
L 64.163829 155.227866 
L 64.29302 140.049834 
L 64.422211 162.793304 
L 64.551402 157.852981 
L 64.680594 165.277812 
L 64.809785 151.571112 
L 64.938976 162.049121 
L 65.068167 149.549705 
L 65.197358 166.483432 
L 65.326549 160.896971 
L 65.584932 167.919009 
L 65.714123 159.611487 
L 65.843314 171.0935 
L 65.972505 164.570156 
L 66.360078 169.85396 
L 66.489269 160.379044 
L 66.618461 160.376658 
L 66.747652 171.043077 
L 67.135225 162.095346 
L 67.264416 171.723865 
L 67.393607 157.732833 
L 67.522798 172.185926 
L 67.65199 158.918379 
L 67.910372 161.866604 
L 68.039563 160.787262 
L 68.168754 166.627901 
L 68.297945 159.819152 
L 68.427136 166.952627 
L 68.556327 161.711842 
L 68.685519 161.234882 
L 68.81471 160.283314 
L 68.943901 172.156633 
L 69.202283 162.154384 
L 69.331474 161.581739 
L 69.719048 170.205136 
L 69.97743 163.92544 
L 70.235812 168.515829 
L 70.365003 168.060221 
L 70.494194 169.841147 
L 70.623386 169.774881 
L 70.752577 167.941392 
L 70.881768 172.102812 
L 71.010959 155.686366 
L 71.14015 168.150347 
L 71.269341 166.659882 
L 71.398532 169.021811 
L 71.527723 161.741839 
L 71.656915 162.153952 
L 71.786106 162.190443 
L 71.915297 161.06048 
L 72.044488 169.05037 
L 72.173679 169.668598 
L 72.30287 167.598443 
L 72.432061 170.732988 
L 72.561252 164.068447 
L 72.690444 164.453243 
L 72.819635 166.068999 
L 72.948826 164.509802 
L 73.078017 164.652694 
L 73.207208 167.367157 
L 73.336399 161.590417 
L 73.46559 168.798684 
L 73.594781 160.092181 
L 73.723973 169.546743 
L 73.853164 169.20968 
L 73.982355 168.45818 
L 74.111546 168.488191 
L 74.240737 169.299139 
L 74.369928 171.884996 
L 74.499119 163.475707 
L 74.757502 169.346294 
L 74.886693 164.170574 
L 75.015884 167.266856 
L 75.145075 160.996959 
L 75.274266 165.834841 
L 75.403457 161.130775 
L 75.532648 167.772495 
L 75.66184 163.04341 
L 75.791031 168.311339 
L 75.920222 165.69075 
L 76.049413 170.785176 
L 76.178604 166.685565 
L 76.307795 169.892079 
L 76.436986 167.975183 
L 76.566177 163.914142 
L 76.82456 168.786786 
L 76.953751 167.542165 
L 77.082942 162.805969 
L 77.212133 171.047286 
L 77.341324 167.770351 
L 77.470515 168.996631 
L 77.599706 165.246652 
L 77.728898 164.853007 
L 77.858089 159.945007 
L 78.116471 165.881647 
L 78.245662 165.093254 
L 78.374853 172.0251 
L 78.504044 169.155386 
L 78.633235 171.579544 
L 78.762427 169.142214 
L 78.891618 171.482543 
L 79.020809 168.795802 
L 79.15 168.80615 
L 79.279191 167.430903 
L 79.408382 164.444659 
L 79.537573 169.907362 
L 79.666765 166.119149 
L 79.795956 167.285746 
L 79.925147 172.82597 
L 80.054338 163.851131 
L 80.183529 165.147229 
L 80.31272 163.526089 
L 80.441911 166.994327 
L 80.571102 165.400372 
L 80.700294 170.789151 
L 80.829485 170.124354 
L 81.087867 165.219595 
L 81.217058 164.540555 
L 81.346249 167.333362 
L 81.47544 166.725622 
L 81.604631 164.912466 
L 81.992205 169.158792 
L 82.121396 167.614239 
L 82.250587 170.001217 
L 82.379778 165.283443 
L 82.508969 165.646166 
L 82.767352 170.917742 
L 83.025734 166.147972 
L 83.154925 167.01091 
L 83.284116 169.701539 
L 83.413307 162.203854 
L 83.542498 169.629252 
L 83.671689 158.63664 
L 83.800881 165.409847 
L 84.059263 161.687997 
L 84.317645 167.783117 
L 84.446836 157.534968 
L 84.576027 164.096125 
L 84.705219 149.783009 
L 84.83441 166.796481 
L 84.963601 164.866368 
L 85.092792 161.022809 
L 85.351174 167.442674 
L 85.480365 163.022648 
L 85.609556 163.783218 
L 85.738748 169.083167 
L 85.867939 165.226101 
L 85.99713 168.531319 
L 86.126321 162.502722 
L 86.255512 164.487179 
L 86.513894 159.609357 
L 86.901468 170.610763 
L 87.030659 167.426519 
L 87.15985 169.185147 
L 87.289041 169.152854 
L 87.418232 168.786533 
L 87.547423 160.178654 
L 87.805806 163.737766 
L 88.064188 167.914922 
L 88.193379 161.790618 
L 88.32257 167.334062 
L 88.451761 166.865027 
L 88.580952 157.273983 
L 88.710144 170.705786 
L 88.839335 149.594666 
L 88.968526 164.589985 
L 89.226908 150.261813 
L 89.48529 165.332326 
L 89.614481 156.752448 
L 89.743673 165.923053 
L 89.872864 159.715865 
L 90.131246 164.670267 
L 90.260437 165.001295 
L 90.389628 161.065 
L 90.518819 167.791257 
L 90.64801 159.179412 
L 90.777202 169.425305 
L 91.035584 149.277545 
L 91.164775 156.514377 
L 91.293966 149.892407 
L 91.552348 159.202191 
L 91.810731 168.058189 
L 91.939922 171.626788 
L 92.069113 167.184873 
L 92.198304 168.828368 
L 92.327495 163.165509 
L 92.456686 168.30517 
L 92.585877 158.850743 
L 92.715068 163.297619 
L 92.973451 154.787523 
L 93.102642 162.164194 
L 93.231833 157.140611 
L 93.490215 169.608166 
L 93.619406 164.810973 
L 93.748598 155.743445 
L 93.877789 161.559283 
L 94.00698 158.976663 
L 94.136171 167.532764 
L 94.265362 158.06921 
L 94.523744 163.823957 
L 94.652935 158.333562 
L 94.911318 168.713512 
L 95.040509 160.098248 
L 95.1697 165.268686 
L 95.298891 164.937993 
L 95.428082 168.04762 
L 95.686464 167.085562 
L 95.815656 162.91484 
L 95.944847 153.451705 
L 96.203229 169.342977 
L 96.33242 156.612236 
L 96.461611 161.296976 
L 96.590802 172.209113 
L 96.978376 158.819495 
L 97.107567 159.975705 
L 97.236758 167.229705 
L 97.365949 144.232899 
L 97.49514 158.61143 
L 97.624331 156.704755 
L 97.753523 122.227466 
L 97.882714 135.393582 
L 98.011905 101.791441 
L 98.141096 105.691918 
L 98.270287 148.585987 
L 98.399478 146.640286 
L 98.528669 165.73602 
L 98.65786 156.915426 
L 98.916243 169.884524 
L 99.174625 157.569274 
L 99.303816 156.651584 
L 99.433007 158.473814 
L 99.562198 157.085794 
L 99.691389 148.466135 
L 99.820581 153.712035 
L 100.078963 169.747844 
L 100.466536 158.566032 
L 100.595727 159.100589 
L 100.724918 170.477426 
L 100.983301 168.598773 
L 101.241683 157.376143 
L 101.370874 164.07112 
L 101.500065 160.823571 
L 101.629256 169.343287 
L 101.758447 160.410604 
L 101.887639 159.796926 
L 102.01683 167.355307 
L 102.404403 157.049234 
L 102.533594 170.913408 
L 102.662785 158.947905 
L 102.791977 159.65605 
L 102.921168 162.083491 
L 103.050359 161.650509 
L 103.17955 155.857366 
L 103.308741 156.330259 
L 103.437932 169.455783 
L 103.567123 170.751262 
L 103.825506 156.523414 
L 103.954697 166.972832 
L 104.083888 147.857055 
L 104.213079 160.060017 
L 104.34227 159.008327 
L 104.471461 158.899106 
L 104.600652 148.977381 
L 104.729843 153.664425 
L 104.859035 140.503666 
L 104.988226 165.556982 
L 105.117417 159.554406 
L 105.246608 162.820255 
L 105.50499 161.407588 
L 105.634181 158.355224 
L 105.763372 168.620946 
L 105.892564 151.898538 
L 106.021755 167.720793 
L 106.280137 161.971007 
L 106.409328 165.008596 
L 106.538519 160.391832 
L 106.796902 166.023205 
L 106.926093 156.105699 
L 107.055284 166.45463 
L 107.184475 160.984898 
L 107.313666 163.44813 
L 107.572048 150.15572 
L 107.701239 161.882009 
L 107.830431 161.584064 
L 107.959622 159.822085 
L 108.088813 161.00753 
L 108.218004 168.007991 
L 108.347195 167.350429 
L 108.476386 167.998784 
L 108.605577 163.9461 
L 108.734768 165.770741 
L 108.993151 158.369387 
L 109.122342 167.604411 
L 109.251533 160.547356 
L 109.380724 172.115332 
L 109.509915 158.099814 
L 109.639106 164.43585 
L 109.768297 160.807301 
L 109.897489 171.422929 
L 110.02668 170.025455 
L 110.155871 172.726769 
L 110.285062 165.543197 
L 110.414253 166.759047 
L 110.543444 169.312557 
L 110.672635 166.895448 
L 110.801826 161.77393 
L 110.931018 173.661121 
L 111.060209 169.806298 
L 111.1894 162.633478 
L 111.318591 169.140702 
L 111.447782 160.327297 
L 111.576973 169.6693 
L 111.706164 165.87387 
L 111.835356 167.049662 
L 111.964547 159.778876 
L 112.093738 165.614018 
L 112.222929 157.371506 
L 112.35212 163.728313 
L 112.481311 161.782883 
L 112.610502 172.799678 
L 112.739693 167.012822 
L 112.868885 166.831741 
L 112.998076 172.743247 
L 113.127267 161.263564 
L 113.256458 166.337213 
L 113.385649 161.192971 
L 113.51484 162.407994 
L 113.644031 169.218042 
L 113.773222 161.279112 
L 113.902414 169.72774 
L 114.031605 164.458111 
L 114.289987 168.470489 
L 114.419178 164.591259 
L 114.67756 169.242392 
L 114.806751 161.568896 
L 114.935943 166.398447 
L 115.065134 166.547285 
L 115.194325 160.940182 
L 115.323516 167.263118 
L 115.452707 166.089252 
L 115.711089 170.431034 
L 115.84028 168.997444 
L 115.969472 164.103304 
L 116.098663 170.428219 
L 116.227854 165.534471 
L 116.357045 168.277301 
L 116.486236 167.292508 
L 116.615427 169.907937 
L 116.744618 166.623528 
L 117.003001 169.533666 
L 117.132192 166.809159 
L 117.261383 171.462504 
L 117.390574 165.762649 
L 117.519765 172.572168 
L 117.648956 169.432531 
L 117.778147 171.090744 
L 117.907339 169.778507 
L 118.03653 171.55828 
L 118.165721 166.507715 
L 118.294912 170.037652 
L 118.553294 167.889585 
L 118.682485 161.041091 
L 119.070059 166.305963 
L 119.19925 171.064167 
L 119.328441 167.051473 
L 119.457632 171.69197 
L 119.586823 168.184476 
L 119.716014 169.286122 
L 119.845205 163.212059 
L 119.974397 171.806513 
L 120.103588 163.323464 
L 120.232779 172.515627 
L 120.36197 164.44495 
L 120.491161 172.028239 
L 120.620352 169.227794 
L 120.749543 170.587842 
L 120.878735 165.510705 
L 121.137117 167.268368 
L 121.266308 165.573963 
L 121.52469 169.981508 
L 121.653881 164.921201 
L 121.912264 167.14762 
L 122.041455 166.638708 
L 122.170646 168.462289 
L 122.299837 163.538511 
L 122.429028 172.495599 
L 122.558219 166.568837 
L 122.68741 172.266624 
L 122.816601 168.531055 
L 122.945793 169.250782 
L 123.074984 163.435846 
L 123.204175 170.053664 
L 123.333366 163.416087 
L 123.462557 168.968653 
L 123.591748 168.26443 
L 123.720939 165.338122 
L 123.85013 171.601002 
L 123.979322 171.217163 
L 124.108513 168.878965 
L 124.366895 173.16522 
L 124.496086 172.340855 
L 124.625277 166.968555 
L 124.754468 170.124504 
L 124.883659 167.436034 
L 125.012851 170.155416 
L 125.400424 164.354464 
L 125.529615 171.370136 
L 125.658806 165.133247 
L 125.787997 168.8883 
L 125.917189 167.610442 
L 126.04638 170.550362 
L 126.433953 168.805778 
L 126.692335 166.392583 
L 126.821526 172.50965 
L 126.950718 165.987792 
L 127.079909 169.142937 
L 127.338291 164.811129 
L 127.467482 165.627053 
L 127.596673 164.167559 
L 127.725864 166.895225 
L 127.855055 167.08518 
L 127.984247 166.039432 
L 128.113438 170.908099 
L 128.37182 165.788778 
L 128.501011 170.350538 
L 128.630202 170.272636 
L 128.888584 169.482993 
L 129.017776 170.52207 
L 129.146967 169.875686 
L 129.276158 165.039177 
L 129.405349 168.711012 
L 129.53454 163.575721 
L 129.663731 164.407424 
L 129.792922 169.425487 
L 129.922114 163.544631 
L 130.051305 172.443549 
L 130.180496 163.892336 
L 130.309687 170.291095 
L 130.438878 163.339581 
L 130.568069 171.059016 
L 130.826451 170.151838 
L 130.955643 169.774669 
L 131.084834 172.221497 
L 131.214025 166.935723 
L 131.343216 166.929197 
L 131.472407 168.979205 
L 131.601598 164.749608 
L 131.730789 166.396344 
L 131.85998 164.606697 
L 131.989172 165.391865 
L 132.118363 169.459493 
L 132.247554 167.370915 
L 132.764318 171.335341 
L 132.893509 168.466098 
L 133.022701 169.428673 
L 133.151892 166.923548 
L 133.281083 170.46319 
L 133.410274 162.134778 
L 133.539465 162.496506 
L 133.668656 167.34249 
L 133.797847 161.375031 
L 133.927038 170.827838 
L 134.185421 166.211581 
L 134.314612 166.112901 
L 134.443803 170.528518 
L 134.831376 161.565032 
L 134.960568 170.70889 
L 135.089759 167.884067 
L 135.21895 171.919808 
L 135.348141 159.320769 
L 135.606523 168.079039 
L 135.735714 163.42584 
L 135.864905 168.576971 
L 135.994097 157.796242 
L 136.123288 158.473833 
L 136.252479 170.493084 
L 136.38167 156.060749 
L 136.640052 164.61336 
L 136.769243 164.731895 
L 136.898434 166.529985 
L 137.027626 170.424332 
L 137.156817 168.077286 
L 137.286008 168.869439 
L 137.54439 162.581308 
L 137.673581 171.141686 
L 137.802772 164.484322 
L 137.931963 169.037756 
L 138.061155 162.995913 
L 138.190346 162.408152 
L 138.319537 161.290166 
L 138.577919 166.450378 
L 138.70711 168.477289 
L 138.836301 167.082512 
L 138.965492 170.339651 
L 139.223875 163.226219 
L 139.482257 171.235954 
L 139.611448 163.66186 
L 139.740639 166.506416 
L 139.999022 161.230539 
L 140.128213 165.037916 
L 140.257404 162.567943 
L 140.515786 169.741043 
L 140.644977 169.257816 
L 141.032551 162.517565 
L 141.161742 162.965118 
L 141.290933 170.183431 
L 141.420124 162.487828 
L 141.549315 168.450261 
L 141.678506 161.525956 
L 141.807697 163.633808 
L 141.936888 168.718301 
L 142.06608 166.933419 
L 142.195271 170.891591 
L 142.453653 167.493263 
L 142.582844 162.373581 
L 142.970417 169.704074 
L 143.2288 163.922657 
L 143.357991 166.097818 
L 143.487182 164.880922 
L 143.616373 168.131955 
L 143.745564 168.163449 
L 143.874755 165.128981 
L 144.003947 171.35022 
L 144.262329 154.321167 
L 144.520711 163.301546 
L 144.649902 156.015194 
L 144.779093 161.951861 
L 144.908284 137.091604 
L 145.037476 137.205987 
L 145.166667 158.959442 
L 145.295858 139.529012 
L 145.425049 161.398864 
L 145.55424 151.956493 
L 145.683431 165.599719 
L 145.812622 161.162644 
L 146.071005 169.610481 
L 146.200196 166.771648 
L 146.329387 166.523084 
L 146.458578 165.200286 
L 146.587769 161.117847 
L 146.71696 166.465969 
L 146.846151 160.123733 
L 146.975342 166.523011 
L 147.104534 160.923078 
L 147.233725 169.127496 
L 147.362916 154.37155 
L 147.492107 168.040982 
L 147.87968 160.749379 
L 148.008871 166.965909 
L 148.138063 166.218389 
L 148.267254 172.228972 
L 148.525636 166.997327 
L 148.784018 160.917291 
L 148.913209 171.150193 
L 149.042401 164.596731 
L 149.171592 164.89003 
L 149.300783 168.716768 
L 149.559165 167.020491 
L 149.688356 168.695737 
L 149.946738 161.974173 
L 150.07593 166.950852 
L 150.205121 160.535045 
L 150.334312 171.166677 
L 150.463503 162.705089 
L 150.592694 169.361657 
L 150.721885 169.691993 
L 150.851076 164.896568 
L 150.980267 165.354418 
L 151.109459 169.473495 
L 151.367841 163.863662 
L 151.497032 169.326393 
L 151.626223 167.570921 
L 151.755414 150.925476 
L 151.884605 167.369686 
L 152.013796 151.00243 
L 152.272179 164.337505 
L 152.40137 169.850632 
L 152.530561 164.006078 
L 152.659752 170.634386 
L 152.788943 163.844649 
L 152.918134 167.565933 
L 153.047326 166.456972 
L 153.176517 163.318128 
L 153.305708 170.457348 
L 153.434899 168.183516 
L 153.56409 170.437578 
L 153.693281 166.977688 
L 153.822472 159.625041 
L 153.951663 170.499915 
L 154.080855 154.511003 
L 154.339237 164.128912 
L 154.468428 160.181934 
L 154.597619 169.178193 
L 154.72681 157.899275 
L 154.985192 168.751242 
L 155.243575 162.110627 
L 155.372766 170.810052 
L 155.501957 161.70558 
L 155.631148 171.833906 
L 155.88953 162.698046 
L 156.018721 164.353997 
L 156.147913 169.234593 
L 156.406295 163.492175 
L 156.535486 169.225011 
L 156.664677 166.993845 
L 156.793868 172.625699 
L 156.923059 164.840731 
L 157.05225 170.904339 
L 157.181442 171.596372 
L 157.310633 169.678102 
L 157.569015 171.405798 
L 157.698206 166.152145 
L 157.956588 169.261197 
L 158.08578 169.412209 
L 158.214971 169.020445 
L 158.344162 164.261529 
L 158.473353 171.357127 
L 158.602544 158.884671 
L 158.731735 169.151385 
L 158.860926 161.55034 
L 158.990117 171.624108 
L 159.119309 162.976595 
L 159.377691 168.73899 
L 159.506882 166.520801 
L 159.765264 172.639017 
L 159.894455 163.292655 
L 160.152838 168.212234 
L 160.282029 172.25979 
L 160.41122 170.089875 
L 160.540411 171.679535 
L 160.669602 162.48682 
L 160.798793 171.411015 
L 160.927984 160.543904 
L 161.057175 168.195647 
L 161.186367 162.839894 
L 161.444749 169.389667 
L 161.57394 170.488558 
L 161.703131 166.347167 
L 161.832322 170.370616 
L 161.961513 163.583799 
L 162.090705 168.985943 
L 162.219896 165.026343 
L 162.349087 165.010173 
L 162.478278 162.712897 
L 162.607469 168.826831 
L 162.73666 168.288333 
L 162.865851 164.708038 
L 162.995042 169.065615 
L 163.124234 166.756338 
L 163.382616 172.546059 
L 163.511807 170.99896 
L 163.640998 171.149652 
L 163.89938 165.04724 
L 164.028571 170.855215 
L 164.416145 164.235235 
L 164.545336 170.960457 
L 164.674527 166.789457 
L 164.803718 173.192841 
L 165.0621 166.86249 
L 165.191292 169.230604 
L 165.578865 164.588252 
L 165.708056 173.28513 
L 165.837247 162.002602 
L 166.095629 165.946663 
L 166.224821 164.305852 
L 166.354012 172.357833 
L 166.483203 169.587034 
L 166.612394 169.719852 
L 166.741585 171.178981 
L 166.870776 168.031227 
L 166.999967 172.904294 
L 167.129159 166.202271 
L 167.25835 172.76211 
L 167.387541 172.797239 
L 167.516732 167.918125 
L 167.645923 170.212301 
L 167.904305 167.491006 
L 168.033496 167.680956 
L 168.162688 162.201685 
L 168.291879 170.341008 
L 168.42107 165.060478 
L 168.679452 170.16373 
L 168.808643 167.903716 
L 168.937834 168.351105 
L 169.067025 166.787482 
L 169.196217 169.160209 
L 169.325408 169.06441 
L 169.454599 172.649757 
L 169.58379 168.537843 
L 169.712981 168.467554 
L 169.842172 168.961548 
L 169.971363 172.166287 
L 170.229746 167.110355 
L 170.358937 167.653684 
L 170.488128 164.957891 
L 170.74651 170.055328 
L 171.004892 170.771043 
L 171.134083 167.650701 
L 171.263275 168.384937 
L 171.392466 167.05199 
L 171.521657 172.396039 
L 171.650848 168.922418 
L 171.780039 169.419022 
L 172.038421 165.378175 
L 172.425995 170.123817 
L 172.555186 167.37432 
L 172.684377 168.924589 
L 172.813568 168.882912 
L 172.942759 167.563416 
L 173.07195 167.410109 
L 173.201142 170.574987 
L 173.330333 169.886527 
L 173.459524 173.136516 
L 173.588715 170.827964 
L 173.717906 171.048561 
L 174.105479 167.453551 
L 174.363862 172.048343 
L 174.622244 171.582224 
L 174.880626 166.311163 
L 175.009817 169.164345 
L 175.139008 164.878552 
L 175.397391 169.633405 
L 175.526582 163.45984 
L 175.784964 172.001767 
L 176.043346 166.922811 
L 176.172538 170.160942 
L 176.301729 168.581012 
L 176.560111 170.974784 
L 176.947684 165.933476 
L 177.206067 170.028525 
L 177.335258 169.653146 
L 177.464449 167.166729 
L 177.59364 171.83657 
L 177.722831 170.334275 
L 177.852022 171.837128 
L 178.110404 169.177787 
L 178.368787 172.710954 
L 178.627169 166.085824 
L 178.75636 167.13524 
L 178.885551 170.051908 
L 179.014742 163.849419 
L 179.273125 166.819133 
L 179.402316 166.086519 
L 179.531507 167.861034 
L 179.660698 173.530039 
L 179.789889 172.649371 
L 180.048271 168.669676 
L 180.177462 172.472867 
L 180.306654 172.377893 
L 180.435845 164.901488 
L 180.565036 164.709179 
L 180.823418 162.253374 
L 180.952609 168.829288 
L 181.210992 169.608446 
L 181.340183 169.649162 
L 181.469374 166.568222 
L 181.598565 167.084668 
L 181.727756 169.237954 
L 181.986138 165.057918 
L 182.115329 168.347683 
L 182.244521 166.352945 
L 182.373712 170.537533 
L 182.502903 158.518675 
L 182.632094 160.508252 
L 182.761285 165.086915 
L 182.890476 164.471459 
L 183.019667 170.96692 
L 183.27805 161.89713 
L 183.407241 166.235469 
L 183.536432 162.837897 
L 183.794814 165.138671 
L 183.924005 161.94217 
L 184.053196 170.80333 
L 184.182387 170.598281 
L 184.311579 170.659407 
L 184.44077 167.659703 
L 184.569961 171.227394 
L 184.828343 164.193607 
L 184.957534 169.033383 
L 185.086725 163.098113 
L 185.215917 164.428954 
L 185.345108 167.347608 
L 185.474299 154.905234 
L 185.60349 153.632743 
L 185.732681 170.415909 
L 185.861872 161.021877 
L 185.991063 168.409871 
L 186.249446 163.55823 
L 186.507828 168.112682 
L 186.637019 165.498549 
L 186.76621 170.163792 
L 186.895401 163.780162 
L 187.024592 165.090292 
L 187.153783 154.4291 
L 187.412166 168.547739 
L 187.541357 165.916348 
L 187.670548 167.004305 
L 187.799739 166.4609 
L 187.92893 172.215287 
L 188.058121 169.118327 
L 188.187312 171.554198 
L 188.316504 165.686614 
L 188.445695 172.999786 
L 188.574886 159.824565 
L 188.704077 166.624648 
L 188.962459 155.884486 
L 189.09165 171.68293 
L 189.220841 159.137117 
L 189.479224 167.126859 
L 189.608415 168.004809 
L 189.737606 171.348464 
L 189.866797 166.27824 
L 189.995988 166.752475 
L 190.125179 166.101519 
L 190.254371 167.319299 
L 190.383562 165.620338 
L 190.512753 170.12087 
L 190.641944 157.924345 
L 190.771135 166.127019 
L 190.900326 166.932767 
L 191.029517 170.244493 
L 191.158708 167.788294 
L 191.2879 169.113953 
L 191.417091 165.079107 
L 191.675473 164.071656 
L 191.804664 162.783137 
L 191.933855 157.469566 
L 192.321429 126.727351 
L 192.579811 156.234097 
L 192.709002 147.824159 
L 192.838193 171.007741 
L 192.967384 153.920133 
L 193.225766 168.35808 
L 193.354958 168.286334 
L 193.484149 171.800032 
L 193.61334 166.743143 
L 193.742531 168.556174 
L 193.871722 163.349531 
L 194.000913 167.531594 
L 194.130104 163.365787 
L 194.259295 170.507193 
L 194.517678 163.056098 
L 194.646869 163.314942 
L 194.77606 168.263882 
L 194.905251 165.792441 
L 195.163633 171.777682 
L 195.422016 160.207846 
L 195.551207 166.542713 
L 195.680398 161.386045 
L 195.809589 166.28116 
L 195.93878 163.627388 
L 196.067971 168.975745 
L 196.197162 166.578056 
L 196.326354 172.550953 
L 196.455545 170.1101 
L 196.584736 169.817596 
L 196.713927 165.070027 
L 196.843118 171.906806 
L 197.1015 161.144277 
L 197.230691 165.29304 
L 197.359883 162.342756 
L 197.618265 166.604559 
L 197.747456 166.432598 
L 197.876647 172.435646 
L 198.135029 164.570467 
L 198.26422 168.203586 
L 198.522603 164.266166 
L 198.651794 166.186846 
L 198.910176 157.264357 
L 199.039367 161.907616 
L 199.168558 158.275818 
L 199.29775 164.139572 
L 199.426941 163.225733 
L 199.685323 166.182089 
L 199.814514 162.049448 
L 199.943705 172.01005 
L 200.072896 170.009111 
L 200.202087 170.05589 
L 200.331279 164.984375 
L 200.46047 168.788664 
L 200.589661 163.310014 
L 200.718852 169.08469 
L 200.848043 167.598193 
L 200.977234 168.638961 
L 201.364808 163.198524 
L 201.493999 167.631254 
L 201.62319 165.291939 
L 201.752381 168.915961 
L 201.881572 166.750473 
L 202.139954 173.296407 
L 202.269145 170.366713 
L 202.398337 162.639619 
L 202.527528 167.622416 
L 202.656719 164.098072 
L 202.78591 163.673867 
L 202.915101 172.441688 
L 203.044292 172.429963 
L 203.173483 169.933421 
L 203.302674 170.017771 
L 203.431866 170.933665 
L 203.561057 168.733431 
L 203.690248 169.062669 
L 203.819439 166.849928 
L 204.077821 170.595989 
L 204.207012 170.322101 
L 204.465395 171.292876 
L 204.594586 168.076243 
L 204.723777 169.278432 
L 204.852968 163.84022 
L 204.982159 172.057555 
L 205.11135 167.51809 
L 205.240541 168.916571 
L 205.369733 172.317654 
L 205.498924 163.138005 
L 205.628115 166.861569 
L 205.757306 163.727813 
L 205.886497 170.356831 
L 206.015688 162.591804 
L 206.144879 167.213299 
L 206.27407 165.214053 
L 206.403262 168.009433 
L 206.532453 166.222635 
L 206.661644 168.512048 
L 206.790835 168.371365 
L 206.920026 169.662304 
L 207.049217 167.189555 
L 207.178408 171.075077 
L 207.307599 168.828113 
L 207.436791 172.799913 
L 207.565982 169.913635 
L 207.695173 172.710739 
L 207.953555 167.92315 
L 208.341129 171.179783 
L 208.47032 168.268763 
L 208.599511 172.427364 
L 208.728702 172.519274 
L 208.857893 164.004992 
L 208.987084 164.991472 
L 209.116275 163.861286 
L 209.245466 167.673864 
L 209.374658 164.162235 
L 209.503849 169.682438 
L 209.63304 167.498942 
L 209.891422 170.975275 
L 210.020613 168.081411 
L 210.149804 171.510457 
L 210.278995 166.843244 
L 210.408187 173.128798 
L 210.537378 168.798687 
L 210.666569 173.242016 
L 210.79576 170.524687 
L 210.924951 171.375111 
L 211.054142 168.754841 
L 211.183333 171.325215 
L 211.312524 169.418287 
L 211.441716 170.126372 
L 211.570907 165.314006 
L 211.700098 169.135747 
L 211.829289 166.697635 
L 211.95848 166.589577 
L 212.216862 170.14074 
L 212.346053 164.735626 
L 212.475245 168.090259 
L 212.604436 165.936626 
L 212.733627 165.836246 
L 212.862818 169.286423 
L 212.992009 168.482857 
L 213.1212 166.91139 
L 213.250391 167.905321 
L 213.379583 164.435159 
L 213.508774 166.549674 
L 213.637965 172.289566 
L 213.767156 168.846258 
L 213.896347 171.554772 
L 214.025538 167.491492 
L 214.154729 168.036084 
L 214.28392 170.685847 
L 214.413112 169.868999 
L 214.542303 171.419877 
L 214.671494 169.808658 
L 214.800685 170.370234 
L 215.059067 169.078562 
L 215.188258 173.442449 
L 215.317449 167.144027 
L 215.446641 171.039557 
L 215.575832 169.711424 
L 215.705023 170.162814 
L 215.963405 171.705249 
L 216.092596 168.408732 
L 216.221787 171.497003 
L 216.350978 166.824177 
L 216.48017 171.453974 
L 216.609361 169.891986 
L 216.738552 170.767068 
L 216.867743 165.168529 
L 216.996934 166.884936 
L 217.126125 166.960059 
L 217.384508 171.210553 
L 217.513699 168.458956 
L 217.64289 170.08517 
L 217.772081 169.448396 
L 217.901272 170.447004 
L 218.159654 170.418824 
L 218.418037 163.990628 
L 218.547228 167.411859 
L 218.676419 164.943244 
L 218.80561 170.988116 
L 218.934801 165.891967 
L 219.063992 170.74401 
L 219.193183 165.858778 
L 219.322374 169.117304 
L 219.451566 165.782675 
L 219.580757 171.460658 
L 219.709948 169.464922 
L 219.839139 171.44512 
L 219.96833 168.573541 
L 220.097521 169.027032 
L 220.355903 167.102681 
L 220.485095 171.879253 
L 220.614286 170.807734 
L 220.743477 170.770748 
L 220.872668 169.224644 
L 221.001859 170.427246 
L 221.13105 172.92348 
L 221.260241 170.893845 
L 221.389432 171.948217 
L 221.518624 169.68456 
L 221.647815 172.326885 
L 221.777006 171.217984 
L 221.906197 172.629635 
L 222.035388 168.217028 
L 222.164579 168.392659 
L 222.29377 168.12226 
L 222.422962 166.429364 
L 222.681344 169.246484 
L 222.810535 169.57369 
L 223.068917 173.397026 
L 223.327299 167.498053 
L 223.844064 172.590319 
L 223.973255 167.434437 
L 224.102446 170.843067 
L 224.231637 170.095907 
L 224.360828 172.415144 
L 224.49002 172.526488 
L 224.619211 166.830606 
L 224.877593 170.509181 
L 225.006784 171.588799 
L 225.135975 170.419406 
L 225.265166 166.74634 
L 225.781931 172.533368 
L 225.911122 171.664779 
L 226.040313 172.68883 
L 226.298695 165.73392 
L 226.557078 171.274373 
L 226.686269 169.047268 
L 226.81546 172.24598 
L 226.944651 171.317793 
L 227.073842 165.142405 
L 227.461416 171.001112 
L 227.590607 171.166966 
L 227.719798 166.675461 
L 227.848989 172.751916 
L 227.97818 165.241681 
L 228.107371 170.476578 
L 228.365753 170.035464 
L 228.494945 172.044086 
L 228.624136 170.653273 
L 228.882518 165.982031 
L 229.011709 167.715527 
L 229.1409 167.012439 
L 229.399282 170.563679 
L 229.528474 166.979639 
L 229.657665 171.002933 
L 229.786856 162.851257 
L 229.916047 171.724226 
L 230.045238 164.726399 
L 230.30362 170.840421 
L 230.432811 166.167543 
L 230.562003 167.619039 
L 230.691194 166.001773 
L 230.820385 161.601462 
L 230.949576 169.271496 
L 231.078767 169.740291 
L 231.207958 171.289504 
L 231.466341 168.302117 
L 231.595532 172.299554 
L 231.853914 171.323644 
L 231.983105 163.314052 
L 232.112296 167.620866 
L 232.241487 162.282406 
L 232.370678 162.308925 
L 232.49987 165.440543 
L 232.629061 164.838869 
L 232.758252 157.510278 
L 233.016634 165.187414 
L 233.145825 165.656447 
L 233.404207 172.634406 
L 233.66259 169.240482 
L 233.920972 167.464239 
L 234.050163 164.303034 
L 234.179354 165.410185 
L 234.437736 161.037484 
L 234.566928 169.097449 
L 234.696119 163.579949 
L 234.82531 172.858712 
L 234.954501 166.668673 
L 235.342074 171.212839 
L 235.471265 165.742603 
L 235.600457 168.988715 
L 235.858839 164.421323 
L 235.98803 164.322501 
L 236.117221 162.668833 
L 236.375603 169.164458 
L 236.504795 165.209086 
L 236.633986 168.405242 
L 236.892368 164.881383 
L 237.021559 168.072277 
L 237.15075 165.648607 
L 237.409132 172.493144 
L 237.538324 168.416036 
L 237.667515 168.335613 
L 237.796706 165.822651 
L 237.925897 166.755379 
L 238.055088 169.523696 
L 238.31347 170.360254 
L 238.571853 169.172985 
L 238.701044 166.691835 
L 238.830235 156.839466 
L 238.959426 169.235398 
L 239.217808 151.208651 
L 239.47619 131.529927 
L 239.605382 136.125771 
L 239.734573 161.57507 
L 239.863764 157.777844 
L 240.122146 170.351942 
L 240.251337 169.909284 
L 240.380528 168.094613 
L 240.638911 170.0058 
L 240.768102 166.236279 
L 240.897293 168.189052 
L 241.026484 165.798826 
L 241.155675 169.164166 
L 241.284866 168.926882 
L 241.414057 172.587259 
L 241.930822 165.130622 
L 242.060013 170.533665 
L 242.189204 166.379149 
L 242.447586 171.017995 
L 242.576778 157.454864 
L 242.83516 167.808543 
L 242.964351 169.208829 
L 243.093542 164.852479 
L 243.222733 166.44309 
L 243.351924 170.094276 
L 243.481115 170.456466 
L 243.739498 169.385451 
L 243.868689 166.320467 
L 243.99788 167.382358 
L 244.127071 170.180654 
L 244.385453 166.006103 
L 244.514644 166.483346 
L 244.643836 162.944444 
L 244.902218 169.604485 
L 245.031409 167.302572 
L 245.1606 171.2339 
L 245.289791 166.842067 
L 245.418982 168.468684 
L 245.677365 163.776824 
L 245.935747 160.731879 
L 246.064938 163.797943 
L 246.194129 159.049343 
L 246.452511 170.163818 
L 246.581703 167.645252 
L 246.710894 169.120828 
L 246.840085 163.590616 
L 246.969276 166.722266 
L 247.098467 164.70375 
L 247.227658 171.086494 
L 247.48604 168.657653 
L 247.615232 171.373271 
L 247.744423 165.852208 
L 248.002805 170.291071 
L 248.131996 171.748876 
L 248.261187 168.765689 
L 248.390378 170.207702 
L 248.519569 166.923632 
L 248.648761 170.377533 
L 248.777952 166.082591 
L 248.907143 168.456211 
L 249.036334 167.341919 
L 249.294716 170.943865 
L 249.553098 167.389502 
L 249.68229 169.724379 
L 249.811481 167.950173 
L 249.940672 170.735297 
L 250.069863 169.199638 
L 250.199054 165.8502 
L 250.328245 172.223203 
L 250.457436 167.609395 
L 250.715819 171.945248 
L 250.84501 170.41532 
L 250.974201 171.967379 
L 251.103392 169.20213 
L 251.232583 171.715455 
L 251.361774 170.324839 
L 251.490965 170.622861 
L 251.620157 171.716619 
L 251.749348 163.611019 
L 251.878539 168.045936 
L 252.00773 167.786328 
L 252.136921 168.769043 
L 252.395303 171.450646 
L 252.524494 172.3267 
L 252.653686 167.736685 
L 252.782877 167.910713 
L 252.912068 169.537745 
L 253.041259 168.039671 
L 253.17045 169.809451 
L 253.299641 167.174493 
L 253.428832 170.015237 
L 253.558023 165.319197 
L 253.816406 170.35079 
L 253.945597 169.222157 
L 254.074788 170.263894 
L 254.203979 168.745963 
L 254.33317 173.264461 
L 254.591553 171.225697 
L 254.720744 170.608482 
L 254.849935 167.415156 
L 254.979126 169.447183 
L 255.108317 169.455703 
L 255.366699 171.390224 
L 255.49589 171.060775 
L 255.625082 167.126963 
L 255.754273 170.407957 
L 256.012655 166.608596 
L 256.141846 168.221994 
L 256.271037 166.802182 
L 256.400228 171.186184 
L 256.658611 167.964006 
L 256.787802 171.155146 
L 256.916993 167.596568 
L 257.046184 168.030824 
L 257.175375 167.738599 
L 257.304566 169.067185 
L 257.433757 166.859997 
L 257.69214 170.471025 
L 257.821331 172.77415 
L 257.950522 170.782388 
L 258.208904 171.317728 
L 258.338095 169.017371 
L 258.467286 170.926573 
L 258.596477 171.125418 
L 258.725669 166.950981 
L 258.984051 170.980996 
L 259.242433 167.690234 
L 259.371624 167.364357 
L 259.500815 172.376269 
L 259.630007 165.028917 
L 259.759198 169.225444 
L 259.888389 168.768007 
L 260.01758 170.476025 
L 260.146771 167.893815 
L 260.275962 168.002488 
L 260.534344 169.364694 
L 260.663536 167.156605 
L 260.792727 171.789671 
L 260.921918 170.662405 
L 261.1803 172.28972 
L 261.309491 169.45651 
L 261.438682 172.296918 
L 261.697065 172.32205 
L 261.955447 171.732089 
L 262.084638 173.65476 
L 262.213829 171.003882 
L 262.472211 170.434578 
L 262.601402 172.664325 
L 262.859785 169.025357 
L 263.118167 168.48245 
L 263.247358 171.955916 
L 263.376549 172.063108 
L 263.50574 169.76097 
L 263.634932 171.581921 
L 263.764123 166.204456 
L 263.893314 171.459755 
L 264.022505 166.542529 
L 264.151696 171.64574 
L 264.280887 166.538306 
L 264.539269 172.137952 
L 264.668461 171.34588 
L 264.797652 172.533103 
L 264.926843 168.651947 
L 265.056034 172.165021 
L 265.314416 167.886674 
L 265.443607 170.708104 
L 265.572798 169.020299 
L 265.70199 169.509971 
L 265.831181 167.711939 
L 266.089563 167.932868 
L 266.218754 166.686362 
L 266.477136 169.5893 
L 266.735519 166.807276 
L 266.86471 172.4983 
L 267.123092 166.534775 
L 267.252283 170.915416 
L 267.510665 165.3368 
L 267.639856 170.099413 
L 267.769048 168.600347 
L 268.02743 171.762705 
L 268.156621 169.889618 
L 268.285812 169.990514 
L 268.415003 173.489719 
L 268.544194 171.146755 
L 268.673386 171.501297 
L 268.802577 172.862597 
L 268.931768 170.87452 
L 269.060959 172.018751 
L 269.19015 171.743103 
L 269.319341 169.192951 
L 269.448532 173.205914 
L 269.577723 168.504438 
L 269.706915 168.682235 
L 269.836106 164.7734 
L 269.965297 172.836092 
L 270.094488 169.062741 
L 270.223679 170.241185 
L 270.35287 169.583253 
L 270.482061 170.29665 
L 270.611252 170.280688 
L 270.740444 171.012621 
L 270.869635 168.911556 
L 271.128017 171.293755 
L 271.257208 170.879398 
L 271.386399 173.516814 
L 271.51559 169.963908 
L 271.644781 172.828039 
L 271.773973 172.618915 
L 271.903164 171.721067 
L 272.032355 172.417245 
L 272.290737 167.317988 
L 272.419928 170.467988 
L 272.549119 168.399059 
L 272.678311 170.264298 
L 272.807502 169.951605 
L 272.936693 171.00486 
L 273.195075 168.994032 
L 273.453457 170.326274 
L 273.582648 167.604549 
L 273.71184 172.712724 
L 273.841031 167.849705 
L 273.970222 172.195294 
L 274.099413 167.542949 
L 274.228604 170.939871 
L 274.357795 167.768061 
L 274.745369 171.42765 
L 274.87456 167.803656 
L 275.003751 171.653316 
L 275.132942 168.184021 
L 275.391324 171.727156 
L 275.520515 172.003958 
L 275.778898 169.191855 
L 275.908089 172.345452 
L 276.03728 167.67901 
L 276.166471 168.581518 
L 276.295662 166.515554 
L 276.424853 171.379438 
L 276.554044 171.707074 
L 276.683235 169.183463 
L 276.812427 172.335405 
L 276.941618 167.363031 
L 277.070809 170.898715 
L 277.2 166.441644 
L 277.329191 171.170985 
L 277.329191 171.170985 
" clip-path="url(#p8b8949a24f)" style="fill: none; stroke: #fb8072; stroke-linecap: round"/>
   </g>
   <g id="patch_3">
    <path d="M 39.54 181.416412 
L 39.54 10.8 
" style="fill: none; stroke: #cccccc; stroke-linejoin: miter; stroke-linecap: square"/>
   </g>
   <g id="patch_4">
    <path d="M 277.2 181.416412 
L 277.2 10.8 
" style="fill: none; stroke: #cccccc; stroke-linejoin: miter; stroke-linecap: square"/>
   </g>
   <g id="patch_5">
    <path d="M 39.54 181.416412 
L 277.2 181.416412 
" style="fill: none; stroke: #cccccc; stroke-linejoin: miter; stroke-linecap: square"/>
   </g>
   <g id="patch_6">
    <path d="M 39.54 10.8 
L 277.2 10.8 
" style="fill: none; stroke: #cccccc; stroke-linejoin: miter; stroke-linecap: square"/>
   </g>
  </g>
 </g>
 <defs>
  <clipPath id="p8b8949a24f">
   <rect x="39.54" y="10.8" width="237.66" height="170.616412"/>
  </clipPath>
 </defs>
</svg>
