<?xml version="1.0" encoding="utf-8" standalone="no"?>
<!DOCTYPE svg PUBLIC "-//W3C//DTD SVG 1.1//EN"
  "http://www.w3.org/Graphics/SVG/1.1/DTD/svg11.dtd">
<svg xmlns:xlink="http://www.w3.org/1999/xlink" width="288pt" height="230.4pt" viewBox="0 0 288 230.4" xmlns="http://www.w3.org/2000/svg" version="1.1">
 <metadata>
  <rdf:RDF xmlns:dc="http://purl.org/dc/elements/1.1/" xmlns:cc="http://creativecommons.org/ns#" xmlns:rdf="http://www.w3.org/1999/02/22-rdf-syntax-ns#">
   <cc:Work>
    <dc:type rdf:resource="http://purl.org/dc/dcmitype/StillImage"/>
    <dc:date>2024-07-21T17:28:18.078778</dc:date>
    <dc:format>image/svg+xml</dc:format>
    <dc:creator>
     <cc:Agent>
      <dc:title>Matplotlib v3.9.0, https://matplotlib.org/</dc:title>
     </cc:Agent>
    </dc:creator>
   </cc:Work>
  </rdf:RDF>
 </metadata>
 <defs>
  <style type="text/css">*{stroke-linejoin: round; stroke-linecap: butt}</style>
 </defs>
 <g id="figure_1">
  <g id="patch_1">
   <path d="M 0 230.4 
L 288 230.4 
L 288 0 
L 0 0 
z
" style="fill: #ffffff"/>
  </g>
  <g id="axes_1">
   <g id="patch_2">
    <path d="M 45.12 181.416412 
L 277.2 181.416412 
L 277.2 10.8 
L 45.12 10.8 
z
" style="fill: #ffffff"/>
   </g>
   <g id="matplotlib.axis_1">
    <g id="xtick_1">
     <g id="line2d_1">
      <path d="M 240.361905 181.416412 
L 240.361905 10.8 
" clip-path="url(#p1ae3c6599c)" style="fill: none; stroke: #cccccc; stroke-width: 0.8; stroke-linecap: round"/>
     </g>
     <g id="line2d_2"/>
     <g id="text_1">
      <!-- 6 hours -->
      <g style="fill: #262626" transform="translate(215.373414 213.560866) rotate(-45) scale(0.1 -0.1)">
       <defs>
        <path id="ArialMT-36" d="M 3184 3459 
L 2625 3416 
Q 2550 3747 2413 3897 
Q 2184 4138 1850 4138 
Q 1581 4138 1378 3988 
Q 1113 3794 959 3422 
Q 806 3050 800 2363 
Q 1003 2672 1297 2822 
Q 1591 2972 1913 2972 
Q 2475 2972 2870 2558 
Q 3266 2144 3266 1488 
Q 3266 1056 3080 686 
Q 2894 316 2569 119 
Q 2244 -78 1831 -78 
Q 1128 -78 684 439 
Q 241 956 241 2144 
Q 241 3472 731 4075 
Q 1159 4600 1884 4600 
Q 2425 4600 2770 4297 
Q 3116 3994 3184 3459 
z
M 888 1484 
Q 888 1194 1011 928 
Q 1134 663 1356 523 
Q 1578 384 1822 384 
Q 2178 384 2434 671 
Q 2691 959 2691 1453 
Q 2691 1928 2437 2201 
Q 2184 2475 1800 2475 
Q 1419 2475 1153 2201 
Q 888 1928 888 1484 
z
" transform="scale(0.015625)"/>
        <path id="ArialMT-20" transform="scale(0.015625)"/>
        <path id="ArialMT-68" d="M 422 0 
L 422 4581 
L 984 4581 
L 984 2938 
Q 1378 3394 1978 3394 
Q 2347 3394 2619 3248 
Q 2891 3103 3008 2847 
Q 3125 2591 3125 2103 
L 3125 0 
L 2563 0 
L 2563 2103 
Q 2563 2525 2380 2717 
Q 2197 2909 1863 2909 
Q 1613 2909 1392 2779 
Q 1172 2650 1078 2428 
Q 984 2206 984 1816 
L 984 0 
L 422 0 
z
" transform="scale(0.015625)"/>
        <path id="ArialMT-6f" d="M 213 1659 
Q 213 2581 725 3025 
Q 1153 3394 1769 3394 
Q 2453 3394 2887 2945 
Q 3322 2497 3322 1706 
Q 3322 1066 3130 698 
Q 2938 331 2570 128 
Q 2203 -75 1769 -75 
Q 1072 -75 642 372 
Q 213 819 213 1659 
z
M 791 1659 
Q 791 1022 1069 705 
Q 1347 388 1769 388 
Q 2188 388 2466 706 
Q 2744 1025 2744 1678 
Q 2744 2294 2464 2611 
Q 2184 2928 1769 2928 
Q 1347 2928 1069 2612 
Q 791 2297 791 1659 
z
" transform="scale(0.015625)"/>
        <path id="ArialMT-75" d="M 2597 0 
L 2597 488 
Q 2209 -75 1544 -75 
Q 1250 -75 995 37 
Q 741 150 617 320 
Q 494 491 444 738 
Q 409 903 409 1263 
L 409 3319 
L 972 3319 
L 972 1478 
Q 972 1038 1006 884 
Q 1059 663 1231 536 
Q 1403 409 1656 409 
Q 1909 409 2131 539 
Q 2353 669 2445 892 
Q 2538 1116 2538 1541 
L 2538 3319 
L 3100 3319 
L 3100 0 
L 2597 0 
z
" transform="scale(0.015625)"/>
        <path id="ArialMT-72" d="M 416 0 
L 416 3319 
L 922 3319 
L 922 2816 
Q 1116 3169 1280 3281 
Q 1444 3394 1641 3394 
Q 1925 3394 2219 3213 
L 2025 2691 
Q 1819 2813 1613 2813 
Q 1428 2813 1281 2702 
Q 1134 2591 1072 2394 
Q 978 2094 978 1738 
L 978 0 
L 416 0 
z
" transform="scale(0.015625)"/>
        <path id="ArialMT-73" d="M 197 991 
L 753 1078 
Q 800 744 1014 566 
Q 1228 388 1613 388 
Q 2000 388 2187 545 
Q 2375 703 2375 916 
Q 2375 1106 2209 1216 
Q 2094 1291 1634 1406 
Q 1016 1563 777 1677 
Q 538 1791 414 1992 
Q 291 2194 291 2438 
Q 291 2659 392 2848 
Q 494 3038 669 3163 
Q 800 3259 1026 3326 
Q 1253 3394 1513 3394 
Q 1903 3394 2198 3281 
Q 2494 3169 2634 2976 
Q 2775 2784 2828 2463 
L 2278 2388 
Q 2241 2644 2061 2787 
Q 1881 2931 1553 2931 
Q 1166 2931 1000 2803 
Q 834 2675 834 2503 
Q 834 2394 903 2306 
Q 972 2216 1119 2156 
Q 1203 2125 1616 2013 
Q 2213 1853 2448 1751 
Q 2684 1650 2818 1456 
Q 2953 1263 2953 975 
Q 2953 694 2789 445 
Q 2625 197 2315 61 
Q 2006 -75 1616 -75 
Q 969 -75 630 194 
Q 291 463 197 991 
z
" transform="scale(0.015625)"/>
       </defs>
       <use xlink:href="#ArialMT-36"/>
       <use xlink:href="#ArialMT-20" x="55.615234"/>
       <use xlink:href="#ArialMT-68" x="83.398438"/>
       <use xlink:href="#ArialMT-6f" x="139.013672"/>
       <use xlink:href="#ArialMT-75" x="194.628906"/>
       <use xlink:href="#ArialMT-72" x="250.244141"/>
       <use xlink:href="#ArialMT-73" x="283.544922"/>
      </g>
     </g>
    </g>
    <g id="xtick_2">
     <g id="line2d_3">
      <path d="M 194.314286 181.416412 
L 194.314286 10.8 
" clip-path="url(#p1ae3c6599c)" style="fill: none; stroke: #cccccc; stroke-width: 0.8; stroke-linecap: round"/>
     </g>
     <g id="line2d_4"/>
     <g id="text_2">
      <!-- 8 hours -->
      <g style="fill: #262626" transform="translate(169.325795 213.560866) rotate(-45) scale(0.1 -0.1)">
       <defs>
        <path id="ArialMT-38" d="M 1131 2484 
Q 781 2613 612 2850 
Q 444 3088 444 3419 
Q 444 3919 803 4259 
Q 1163 4600 1759 4600 
Q 2359 4600 2725 4251 
Q 3091 3903 3091 3403 
Q 3091 3084 2923 2848 
Q 2756 2613 2416 2484 
Q 2838 2347 3058 2040 
Q 3278 1734 3278 1309 
Q 3278 722 2862 322 
Q 2447 -78 1769 -78 
Q 1091 -78 675 323 
Q 259 725 259 1325 
Q 259 1772 486 2073 
Q 713 2375 1131 2484 
z
M 1019 3438 
Q 1019 3113 1228 2906 
Q 1438 2700 1772 2700 
Q 2097 2700 2305 2904 
Q 2513 3109 2513 3406 
Q 2513 3716 2298 3927 
Q 2084 4138 1766 4138 
Q 1444 4138 1231 3931 
Q 1019 3725 1019 3438 
z
M 838 1322 
Q 838 1081 952 856 
Q 1066 631 1291 507 
Q 1516 384 1775 384 
Q 2178 384 2440 643 
Q 2703 903 2703 1303 
Q 2703 1709 2433 1975 
Q 2163 2241 1756 2241 
Q 1359 2241 1098 1978 
Q 838 1716 838 1322 
z
" transform="scale(0.015625)"/>
       </defs>
       <use xlink:href="#ArialMT-38"/>
       <use xlink:href="#ArialMT-20" x="55.615234"/>
       <use xlink:href="#ArialMT-68" x="83.398438"/>
       <use xlink:href="#ArialMT-6f" x="139.013672"/>
       <use xlink:href="#ArialMT-75" x="194.628906"/>
       <use xlink:href="#ArialMT-72" x="250.244141"/>
       <use xlink:href="#ArialMT-73" x="283.544922"/>
      </g>
     </g>
    </g>
    <g id="xtick_3">
     <g id="line2d_5">
      <path d="M 148.266667 181.416412 
L 148.266667 10.8 
" clip-path="url(#p1ae3c6599c)" style="fill: none; stroke: #cccccc; stroke-width: 0.8; stroke-linecap: round"/>
     </g>
     <g id="line2d_6"/>
     <g id="text_3">
      <!-- 12 hours -->
      <g style="fill: #262626" transform="translate(119.345999 217.493043) rotate(-45) scale(0.1 -0.1)">
       <defs>
        <path id="ArialMT-31" d="M 2384 0 
L 1822 0 
L 1822 3584 
Q 1619 3391 1289 3197 
Q 959 3003 697 2906 
L 697 3450 
Q 1169 3672 1522 3987 
Q 1875 4303 2022 4600 
L 2384 4600 
L 2384 0 
z
" transform="scale(0.015625)"/>
        <path id="ArialMT-32" d="M 3222 541 
L 3222 0 
L 194 0 
Q 188 203 259 391 
Q 375 700 629 1000 
Q 884 1300 1366 1694 
Q 2113 2306 2375 2664 
Q 2638 3022 2638 3341 
Q 2638 3675 2398 3904 
Q 2159 4134 1775 4134 
Q 1369 4134 1125 3890 
Q 881 3647 878 3216 
L 300 3275 
Q 359 3922 746 4261 
Q 1134 4600 1788 4600 
Q 2447 4600 2831 4234 
Q 3216 3869 3216 3328 
Q 3216 3053 3103 2787 
Q 2991 2522 2730 2228 
Q 2469 1934 1863 1422 
Q 1356 997 1212 845 
Q 1069 694 975 541 
L 3222 541 
z
" transform="scale(0.015625)"/>
       </defs>
       <use xlink:href="#ArialMT-31"/>
       <use xlink:href="#ArialMT-32" x="55.615234"/>
       <use xlink:href="#ArialMT-20" x="111.230469"/>
       <use xlink:href="#ArialMT-68" x="139.013672"/>
       <use xlink:href="#ArialMT-6f" x="194.628906"/>
       <use xlink:href="#ArialMT-75" x="250.244141"/>
       <use xlink:href="#ArialMT-72" x="305.859375"/>
       <use xlink:href="#ArialMT-73" x="339.160156"/>
      </g>
     </g>
    </g>
    <g id="xtick_4">
     <g id="line2d_7">
      <path d="M 102.219048 181.416412 
L 102.219048 10.8 
" clip-path="url(#p1ae3c6599c)" style="fill: none; stroke: #cccccc; stroke-width: 0.8; stroke-linecap: round"/>
     </g>
     <g id="line2d_8"/>
     <g id="text_4">
      <!-- Daily -->
      <g style="fill: #262626" transform="translate(85.014256 205.694303) rotate(-45) scale(0.1 -0.1)">
       <defs>
        <path id="ArialMT-44" d="M 494 0 
L 494 4581 
L 2072 4581 
Q 2606 4581 2888 4516 
Q 3281 4425 3559 4188 
Q 3922 3881 4101 3404 
Q 4281 2928 4281 2316 
Q 4281 1794 4159 1391 
Q 4038 988 3847 723 
Q 3656 459 3429 307 
Q 3203 156 2883 78 
Q 2563 0 2147 0 
L 494 0 
z
M 1100 541 
L 2078 541 
Q 2531 541 2789 625 
Q 3047 709 3200 863 
Q 3416 1078 3536 1442 
Q 3656 1806 3656 2325 
Q 3656 3044 3420 3430 
Q 3184 3816 2847 3947 
Q 2603 4041 2063 4041 
L 1100 4041 
L 1100 541 
z
" transform="scale(0.015625)"/>
        <path id="ArialMT-61" d="M 2588 409 
Q 2275 144 1986 34 
Q 1697 -75 1366 -75 
Q 819 -75 525 192 
Q 231 459 231 875 
Q 231 1119 342 1320 
Q 453 1522 633 1644 
Q 813 1766 1038 1828 
Q 1203 1872 1538 1913 
Q 2219 1994 2541 2106 
Q 2544 2222 2544 2253 
Q 2544 2597 2384 2738 
Q 2169 2928 1744 2928 
Q 1347 2928 1158 2789 
Q 969 2650 878 2297 
L 328 2372 
Q 403 2725 575 2942 
Q 747 3159 1072 3276 
Q 1397 3394 1825 3394 
Q 2250 3394 2515 3294 
Q 2781 3194 2906 3042 
Q 3031 2891 3081 2659 
Q 3109 2516 3109 2141 
L 3109 1391 
Q 3109 606 3145 398 
Q 3181 191 3288 0 
L 2700 0 
Q 2613 175 2588 409 
z
M 2541 1666 
Q 2234 1541 1622 1453 
Q 1275 1403 1131 1340 
Q 988 1278 909 1158 
Q 831 1038 831 891 
Q 831 666 1001 516 
Q 1172 366 1500 366 
Q 1825 366 2078 508 
Q 2331 650 2450 897 
Q 2541 1088 2541 1459 
L 2541 1666 
z
" transform="scale(0.015625)"/>
        <path id="ArialMT-69" d="M 425 3934 
L 425 4581 
L 988 4581 
L 988 3934 
L 425 3934 
z
M 425 0 
L 425 3319 
L 988 3319 
L 988 0 
L 425 0 
z
" transform="scale(0.015625)"/>
        <path id="ArialMT-6c" d="M 409 0 
L 409 4581 
L 972 4581 
L 972 0 
L 409 0 
z
" transform="scale(0.015625)"/>
        <path id="ArialMT-79" d="M 397 -1278 
L 334 -750 
Q 519 -800 656 -800 
Q 844 -800 956 -737 
Q 1069 -675 1141 -563 
Q 1194 -478 1313 -144 
Q 1328 -97 1363 -6 
L 103 3319 
L 709 3319 
L 1400 1397 
Q 1534 1031 1641 628 
Q 1738 1016 1872 1384 
L 2581 3319 
L 3144 3319 
L 1881 -56 
Q 1678 -603 1566 -809 
Q 1416 -1088 1222 -1217 
Q 1028 -1347 759 -1347 
Q 597 -1347 397 -1278 
z
" transform="scale(0.015625)"/>
       </defs>
       <use xlink:href="#ArialMT-44"/>
       <use xlink:href="#ArialMT-61" x="72.216797"/>
       <use xlink:href="#ArialMT-69" x="127.832031"/>
       <use xlink:href="#ArialMT-6c" x="150.048828"/>
       <use xlink:href="#ArialMT-79" x="172.265625"/>
      </g>
     </g>
    </g>
    <g id="xtick_5">
     <g id="line2d_9">
      <path d="M 62.74966 181.416412 
L 62.74966 10.8 
" clip-path="url(#p1ae3c6599c)" style="fill: none; stroke: #cccccc; stroke-width: 0.8; stroke-linecap: round"/>
     </g>
     <g id="line2d_10"/>
     <g id="text_5">
      <!-- Weekly -->
      <g style="fill: #262626" transform="translate(38.204216 213.034955) rotate(-45) scale(0.1 -0.1)">
       <defs>
        <path id="ArialMT-57" d="M 1294 0 
L 78 4581 
L 700 4581 
L 1397 1578 
Q 1509 1106 1591 641 
Q 1766 1375 1797 1488 
L 2669 4581 
L 3400 4581 
L 4056 2263 
Q 4303 1400 4413 641 
Q 4500 1075 4641 1638 
L 5359 4581 
L 5969 4581 
L 4713 0 
L 4128 0 
L 3163 3491 
Q 3041 3928 3019 4028 
Q 2947 3713 2884 3491 
L 1913 0 
L 1294 0 
z
" transform="scale(0.015625)"/>
        <path id="ArialMT-65" d="M 2694 1069 
L 3275 997 
Q 3138 488 2766 206 
Q 2394 -75 1816 -75 
Q 1088 -75 661 373 
Q 234 822 234 1631 
Q 234 2469 665 2931 
Q 1097 3394 1784 3394 
Q 2450 3394 2872 2941 
Q 3294 2488 3294 1666 
Q 3294 1616 3291 1516 
L 816 1516 
Q 847 969 1125 678 
Q 1403 388 1819 388 
Q 2128 388 2347 550 
Q 2566 713 2694 1069 
z
M 847 1978 
L 2700 1978 
Q 2663 2397 2488 2606 
Q 2219 2931 1791 2931 
Q 1403 2931 1139 2672 
Q 875 2413 847 1978 
z
" transform="scale(0.015625)"/>
        <path id="ArialMT-6b" d="M 425 0 
L 425 4581 
L 988 4581 
L 988 1969 
L 2319 3319 
L 3047 3319 
L 1778 2088 
L 3175 0 
L 2481 0 
L 1384 1697 
L 988 1316 
L 988 0 
L 425 0 
z
" transform="scale(0.015625)"/>
       </defs>
       <use xlink:href="#ArialMT-57"/>
       <use xlink:href="#ArialMT-65" x="92.634766"/>
       <use xlink:href="#ArialMT-65" x="148.25"/>
       <use xlink:href="#ArialMT-6b" x="203.865234"/>
       <use xlink:href="#ArialMT-6c" x="253.865234"/>
       <use xlink:href="#ArialMT-79" x="276.082031"/>
      </g>
     </g>
    </g>
   </g>
   <g id="matplotlib.axis_2">
    <g id="ytick_1">
     <g id="line2d_11"/>
     <g id="text_6">
      <!-- 0 -->
      <g style="fill: #262626" transform="translate(36.059063 177.240523) scale(0.1 -0.1)">
       <defs>
        <path id="ArialMT-30" d="M 266 2259 
Q 266 3072 433 3567 
Q 600 4063 929 4331 
Q 1259 4600 1759 4600 
Q 2128 4600 2406 4451 
Q 2684 4303 2865 4023 
Q 3047 3744 3150 3342 
Q 3253 2941 3253 2259 
Q 3253 1453 3087 958 
Q 2922 463 2592 192 
Q 2263 -78 1759 -78 
Q 1097 -78 719 397 
Q 266 969 266 2259 
z
M 844 2259 
Q 844 1131 1108 757 
Q 1372 384 1759 384 
Q 2147 384 2411 759 
Q 2675 1134 2675 2259 
Q 2675 3391 2411 3762 
Q 2147 4134 1753 4134 
Q 1366 4134 1134 3806 
Q 844 3388 844 2259 
z
" transform="scale(0.015625)"/>
       </defs>
       <use xlink:href="#ArialMT-30"/>
      </g>
     </g>
    </g>
    <g id="ytick_2">
     <g id="line2d_12"/>
     <g id="text_7">
      <!-- 50 -->
      <g style="fill: #262626" transform="translate(30.498125 148.259928) scale(0.1 -0.1)">
       <defs>
        <path id="ArialMT-35" d="M 266 1200 
L 856 1250 
Q 922 819 1161 601 
Q 1400 384 1738 384 
Q 2144 384 2425 690 
Q 2706 997 2706 1503 
Q 2706 1984 2436 2262 
Q 2166 2541 1728 2541 
Q 1456 2541 1237 2417 
Q 1019 2294 894 2097 
L 366 2166 
L 809 4519 
L 3088 4519 
L 3088 3981 
L 1259 3981 
L 1013 2750 
Q 1425 3038 1878 3038 
Q 2478 3038 2890 2622 
Q 3303 2206 3303 1553 
Q 3303 931 2941 478 
Q 2500 -78 1738 -78 
Q 1113 -78 717 272 
Q 322 622 266 1200 
z
" transform="scale(0.015625)"/>
       </defs>
       <use xlink:href="#ArialMT-35"/>
       <use xlink:href="#ArialMT-30" x="55.615234"/>
      </g>
     </g>
    </g>
    <g id="ytick_3">
     <g id="line2d_13"/>
     <g id="text_8">
      <!-- 100 -->
      <g style="fill: #262626" transform="translate(24.937188 119.279333) scale(0.1 -0.1)">
       <use xlink:href="#ArialMT-31"/>
       <use xlink:href="#ArialMT-30" x="55.615234"/>
       <use xlink:href="#ArialMT-30" x="111.230469"/>
      </g>
     </g>
    </g>
    <g id="ytick_4">
     <g id="line2d_14"/>
     <g id="text_9">
      <!-- 150 -->
      <g style="fill: #262626" transform="translate(24.937188 90.298738) scale(0.1 -0.1)">
       <use xlink:href="#ArialMT-31"/>
       <use xlink:href="#ArialMT-35" x="55.615234"/>
       <use xlink:href="#ArialMT-30" x="111.230469"/>
      </g>
     </g>
    </g>
    <g id="ytick_5">
     <g id="line2d_15"/>
     <g id="text_10">
      <!-- 200 -->
      <g style="fill: #262626" transform="translate(24.937188 61.318143) scale(0.1 -0.1)">
       <use xlink:href="#ArialMT-32"/>
       <use xlink:href="#ArialMT-30" x="55.615234"/>
       <use xlink:href="#ArialMT-30" x="111.230469"/>
      </g>
     </g>
    </g>
    <g id="ytick_6">
     <g id="line2d_16"/>
     <g id="text_11">
      <!-- 250 -->
      <g style="fill: #262626" transform="translate(24.937188 32.337548) scale(0.1 -0.1)">
       <use xlink:href="#ArialMT-32"/>
       <use xlink:href="#ArialMT-35" x="55.615234"/>
       <use xlink:href="#ArialMT-30" x="111.230469"/>
      </g>
     </g>
    </g>
    <g id="text_12">
     <!-- GW -->
     <g style="fill: #262626" transform="translate(18.949688 104.7168) rotate(-90) scale(0.1 -0.1)">
      <defs>
       <path id="ArialMT-47" d="M 2638 1797 
L 2638 2334 
L 4578 2338 
L 4578 638 
Q 4131 281 3656 101 
Q 3181 -78 2681 -78 
Q 2006 -78 1454 211 
Q 903 500 622 1047 
Q 341 1594 341 2269 
Q 341 2938 620 3517 
Q 900 4097 1425 4378 
Q 1950 4659 2634 4659 
Q 3131 4659 3532 4498 
Q 3934 4338 4162 4050 
Q 4391 3763 4509 3300 
L 3963 3150 
Q 3859 3500 3706 3700 
Q 3553 3900 3268 4020 
Q 2984 4141 2638 4141 
Q 2222 4141 1919 4014 
Q 1616 3888 1430 3681 
Q 1244 3475 1141 3228 
Q 966 2803 966 2306 
Q 966 1694 1177 1281 
Q 1388 869 1791 669 
Q 2194 469 2647 469 
Q 3041 469 3416 620 
Q 3791 772 3984 944 
L 3984 1797 
L 2638 1797 
z
" transform="scale(0.015625)"/>
      </defs>
      <use xlink:href="#ArialMT-47"/>
      <use xlink:href="#ArialMT-57" x="77.783203"/>
     </g>
    </g>
   </g>
   <g id="line2d_17">
    <path d="M 56.171429 169.766943 
L 56.297586 111.132213 
L 56.423744 160.395019 
L 56.549902 161.274612 
L 56.67606 166.633181 
L 56.802218 165.285328 
L 57.054534 172.513858 
L 57.180691 168.872866 
L 57.306849 169.329679 
L 57.433007 166.680171 
L 57.559165 172.397917 
L 57.685323 170.146306 
L 57.811481 171.493137 
L 57.937639 169.877122 
L 58.063796 171.884482 
L 58.189954 166.465128 
L 58.316112 170.614749 
L 58.44227 168.813787 
L 58.568428 169.383921 
L 58.694586 172.282361 
L 58.946902 169.701912 
L 59.073059 173.382869 
L 59.325375 167.419271 
L 59.451533 171.694915 
L 59.577691 170.367033 
L 59.703849 172.275669 
L 59.830007 170.596957 
L 59.956164 172.638088 
L 60.082322 171.429622 
L 60.20848 172.305384 
L 60.334638 166.467004 
L 60.460796 170.839271 
L 60.586954 168.567753 
L 60.839269 172.953318 
L 61.091585 171.321379 
L 61.217743 172.260384 
L 61.343901 169.799756 
L 61.470059 170.071701 
L 61.722374 172.060588 
L 61.848532 172.014951 
L 61.97469 169.933562 
L 62.100848 172.473832 
L 62.227006 170.053839 
L 62.479322 171.896228 
L 62.605479 170.230774 
L 62.731637 171.64396 
L 62.857795 171.66372 
L 62.983953 170.091453 
L 63.110111 171.124416 
L 63.236269 169.61161 
L 63.362427 171.590278 
L 63.488584 171.723501 
L 63.7409 169.400184 
L 63.867058 169.819476 
L 63.993216 167.20796 
L 64.119374 169.708584 
L 64.245532 169.917947 
L 64.371689 171.914998 
L 64.497847 171.285433 
L 64.624005 171.405256 
L 64.750163 170.84992 
L 65.128637 172.645013 
L 65.254795 172.199693 
L 65.50711 170.855216 
L 65.633268 171.820107 
L 65.759426 171.352592 
L 65.885584 172.926763 
L 66.011742 172.376928 
L 66.264057 168.653057 
L 66.390215 171.674978 
L 66.516373 170.742028 
L 66.642531 171.312834 
L 66.768689 172.616115 
L 67.021005 170.222386 
L 67.147162 172.028689 
L 67.399478 171.729749 
L 67.525636 171.934785 
L 67.777952 171.654173 
L 67.90411 170.507007 
L 68.030267 172.057582 
L 68.156425 171.439691 
L 68.282583 172.025683 
L 68.661057 171.03839 
L 68.787215 171.133522 
L 68.913372 171.87494 
L 69.03953 171.835909 
L 69.291846 173.274649 
L 69.796477 170.968263 
L 69.922635 171.576712 
L 70.048793 171.220159 
L 70.174951 172.553624 
L 70.301109 171.286252 
L 70.427267 172.460905 
L 70.553425 172.51333 
L 70.679583 172.418014 
L 70.80574 171.065392 
L 70.931898 172.539056 
L 71.058056 172.388864 
L 71.184214 171.263293 
L 71.310372 172.754987 
L 71.562688 171.548512 
L 71.688845 173.520087 
L 71.941161 171.727508 
L 72.067319 171.54699 
L 72.193477 170.26939 
L 72.445793 172.249033 
L 72.57195 171.798631 
L 72.698108 172.279233 
L 72.824266 169.560276 
L 73.076582 172.806208 
L 73.328898 171.102855 
L 73.455055 172.687167 
L 73.581213 172.042693 
L 73.707371 173.331568 
L 73.959687 171.981726 
L 74.212003 172.654324 
L 74.33816 172.402675 
L 74.464318 173.41248 
L 74.590476 171.545193 
L 74.716634 172.55127 
L 74.842792 171.856111 
L 74.96895 172.417736 
L 75.095108 172.376761 
L 75.221265 172.202598 
L 75.347423 170.193054 
L 75.473581 173.24176 
L 75.599739 171.676295 
L 75.725897 172.558916 
L 75.852055 171.779783 
L 75.978213 171.918058 
L 76.104371 173.076789 
L 76.356686 172.653525 
L 76.482844 172.459823 
L 76.609002 172.894304 
L 76.73516 171.800968 
L 76.861318 173.102823 
L 77.239791 171.155172 
L 77.365949 171.931009 
L 77.492107 171.93411 
L 77.618265 172.607386 
L 77.744423 172.37479 
L 77.870581 171.197771 
L 77.996738 172.469852 
L 78.122896 171.970901 
L 78.249054 172.501475 
L 78.375212 172.04527 
L 78.50137 172.642501 
L 78.627528 171.908389 
L 78.753686 172.229308 
L 78.879843 173.11731 
L 79.006001 171.693308 
L 79.132159 173.141099 
L 79.384475 172.197135 
L 79.510633 172.158495 
L 79.636791 171.941438 
L 79.762948 172.757211 
L 79.889106 171.939383 
L 80.015264 172.787009 
L 80.26758 172.348676 
L 80.393738 172.820683 
L 80.519896 171.812749 
L 80.646053 172.716966 
L 80.772211 172.075715 
L 80.898369 172.061466 
L 81.024527 172.230676 
L 81.150685 171.587972 
L 81.276843 172.60076 
L 81.403001 172.172539 
L 81.529159 172.934051 
L 81.655316 172.18582 
L 81.781474 173.124899 
L 81.907632 172.326697 
L 82.03379 173.282273 
L 82.159948 172.499195 
L 82.286106 172.81395 
L 82.538421 172.062747 
L 82.664579 172.632488 
L 82.916895 171.965417 
L 83.043053 171.844727 
L 83.169211 173.006251 
L 83.295369 172.408603 
L 83.421526 172.599284 
L 83.547684 171.618864 
L 83.673842 172.702763 
L 83.8 171.318989 
L 83.926158 173.07802 
L 84.178474 171.913132 
L 84.304631 172.620974 
L 84.556947 172.101985 
L 84.683105 173.273372 
L 85.061579 171.85233 
L 85.187736 171.177965 
L 85.313894 173.263783 
L 85.440052 172.616267 
L 85.56621 170.648807 
L 85.692368 172.905114 
L 85.818526 172.484712 
L 85.944684 172.642412 
L 86.070841 171.711526 
L 86.196999 172.026827 
L 86.323157 171.169677 
L 86.575473 172.424165 
L 86.701631 172.315393 
L 86.953947 171.501145 
L 87.080104 172.126392 
L 87.206262 172.094133 
L 87.33242 173.490723 
L 87.458578 172.993207 
L 87.584736 171.807337 
L 87.710894 172.832438 
L 87.837052 172.366894 
L 87.963209 172.950821 
L 88.089367 172.422464 
L 88.215525 172.566468 
L 88.341683 171.715687 
L 88.467841 172.53155 
L 88.593999 172.257894 
L 88.720157 171.346124 
L 88.972472 172.645059 
L 89.09863 171.701952 
L 89.224788 173.595738 
L 89.350946 171.85049 
L 89.477104 171.921039 
L 89.603262 172.133044 
L 89.729419 171.970355 
L 89.855577 170.529499 
L 89.981735 172.281566 
L 90.107893 172.277212 
L 90.234051 171.019462 
L 90.360209 171.494218 
L 90.486367 171.329573 
L 90.612524 172.266665 
L 90.86484 171.715268 
L 91.243314 172.765583 
L 91.495629 171.127031 
L 91.621787 172.097802 
L 91.747945 171.109235 
L 92.000261 172.871933 
L 92.126419 170.009119 
L 92.252577 171.296746 
L 92.378735 170.749495 
L 92.504892 172.838641 
L 92.63105 172.867958 
L 92.883366 171.193918 
L 93.135682 172.603028 
L 93.514155 171.878015 
L 93.640313 170.831193 
L 93.892629 172.192855 
L 94.39726 167.622792 
L 94.523418 169.719725 
L 94.649576 169.573209 
L 94.901892 171.863478 
L 95.02805 171.77643 
L 95.154207 171.304959 
L 95.280365 169.913068 
L 95.406523 171.00646 
L 95.532681 173.635239 
L 95.784997 170.570884 
L 95.911155 172.88992 
L 96.16347 171.70795 
L 96.289628 173.211556 
L 96.415786 169.970252 
L 96.541944 172.933323 
L 96.920417 170.578708 
L 97.046575 171.135822 
L 97.172733 172.40936 
L 97.298891 172.002457 
L 97.551207 173.041483 
L 97.803523 170.787535 
L 97.92968 172.001645 
L 98.055838 169.00599 
L 98.181996 172.162058 
L 98.308154 171.141261 
L 98.434312 172.802133 
L 98.812785 170.222367 
L 98.938943 171.787821 
L 99.065101 167.960556 
L 99.317417 172.454452 
L 99.569733 169.205858 
L 99.69589 171.400434 
L 99.822048 169.602459 
L 100.074364 171.294385 
L 100.200522 167.806492 
L 100.452838 172.898703 
L 100.578995 172.60617 
L 100.705153 170.823369 
L 100.831311 171.993036 
L 100.957469 169.176099 
L 101.083627 170.312757 
L 101.209785 170.154999 
L 101.335943 173.128616 
L 101.588258 168.864355 
L 101.840574 163.694702 
L 101.966732 159.425598 
L 102.09289 137.268147 
L 102.219048 18.555291 
L 102.471363 159.06833 
L 102.723679 166.209237 
L 102.975995 169.848029 
L 103.102153 172.684464 
L 103.480626 166.866239 
L 103.606784 171.359449 
L 103.732942 170.300971 
L 103.8591 172.588381 
L 103.985258 171.662391 
L 104.111416 172.0064 
L 104.237573 168.307773 
L 104.363731 170.910614 
L 104.616047 169.763256 
L 104.742205 171.680798 
L 104.868363 168.409175 
L 105.120678 172.791871 
L 105.246836 171.629982 
L 105.372994 168.10318 
L 105.499152 170.935751 
L 105.751468 170.568264 
L 105.877626 171.096295 
L 106.003783 173.143273 
L 106.256099 172.064876 
L 106.382257 169.681508 
L 106.508415 172.015891 
L 106.634573 169.660255 
L 106.886888 173.006385 
L 107.013046 172.556448 
L 107.139204 172.793217 
L 107.265362 172.569638 
L 107.517678 171.689127 
L 107.643836 171.714294 
L 107.769993 172.438521 
L 107.896151 172.499406 
L 108.022309 170.319259 
L 108.148467 172.425422 
L 108.274625 171.640081 
L 108.400783 172.656887 
L 108.526941 172.743845 
L 108.653098 170.478882 
L 108.779256 170.938341 
L 108.905414 172.467386 
L 109.031572 169.836509 
L 109.410046 171.881338 
L 109.536204 171.538348 
L 109.662361 171.97537 
L 109.788519 170.683822 
L 109.914677 170.992109 
L 110.040835 168.121815 
L 110.166993 170.488884 
L 110.293151 170.214537 
L 110.671624 172.55927 
L 110.797782 171.280273 
L 110.92394 171.593095 
L 111.176256 173.182073 
L 111.302414 171.890199 
L 111.428571 172.055206 
L 111.554729 171.477461 
L 111.680887 171.729778 
L 111.807045 171.332967 
L 111.933203 172.189316 
L 112.059361 172.120995 
L 112.185519 171.396278 
L 112.311676 169.964079 
L 112.437834 171.873958 
L 112.563992 171.531469 
L 112.69015 171.555251 
L 112.816308 172.732099 
L 112.942466 170.38223 
L 113.194781 172.101462 
L 113.320939 171.948412 
L 113.447097 173.022132 
L 113.573255 172.889663 
L 113.699413 172.246279 
L 113.825571 173.361644 
L 114.077886 171.074627 
L 114.204044 171.979736 
L 114.330202 171.797969 
L 114.45636 172.400858 
L 114.582518 171.548817 
L 114.708676 171.730107 
L 114.834834 170.683261 
L 114.960992 170.675292 
L 115.213307 172.794098 
L 115.339465 171.585653 
L 115.465623 171.93834 
L 115.591781 172.952107 
L 115.844097 170.989036 
L 115.970254 172.40795 
L 116.096412 171.992091 
L 116.22257 173.153165 
L 116.348728 171.442406 
L 116.474886 172.790373 
L 116.601044 172.301217 
L 116.727202 172.646701 
L 116.853359 172.266848 
L 116.979517 172.913946 
L 117.105675 172.88515 
L 117.231833 171.769862 
L 117.357991 173.028018 
L 117.484149 172.048988 
L 117.736464 172.254878 
L 117.862622 172.29606 
L 117.98878 171.886992 
L 118.114938 171.06849 
L 118.241096 171.291784 
L 118.493412 172.380754 
L 118.619569 172.617872 
L 118.745727 173.33415 
L 118.871885 170.836476 
L 119.124201 173.18487 
L 119.250359 171.661199 
L 119.502674 173.174768 
L 119.628832 172.768713 
L 119.75499 173.492003 
L 119.881148 172.978578 
L 120.007306 171.878066 
L 120.133464 172.837914 
L 120.259622 172.831988 
L 120.38578 172.430144 
L 120.511937 172.885178 
L 120.638095 171.314382 
L 120.764253 172.293045 
L 120.890411 172.106886 
L 121.016569 172.731673 
L 121.142727 172.695612 
L 121.268885 173.108002 
L 121.395042 171.595682 
L 121.5212 172.366698 
L 121.647358 171.957805 
L 121.773516 172.861597 
L 122.025832 171.829971 
L 122.15199 172.623423 
L 122.278147 172.353508 
L 122.404305 173.212925 
L 122.530463 172.339592 
L 122.656621 173.086693 
L 122.782779 172.560958 
L 122.908937 172.85918 
L 123.035095 172.601145 
L 123.161252 171.809333 
L 123.28741 172.170666 
L 123.413568 172.005294 
L 123.539726 172.244418 
L 123.665884 173.457717 
L 123.9182 171.878993 
L 124.044357 172.555158 
L 124.170515 171.402535 
L 124.296673 172.481787 
L 124.422831 172.006221 
L 124.548989 172.470888 
L 124.675147 172.096379 
L 124.927462 173.213458 
L 125.05362 171.629987 
L 125.179778 172.928551 
L 125.305936 172.550456 
L 125.432094 173.152564 
L 125.558252 172.223384 
L 125.810568 172.914988 
L 125.936725 172.364712 
L 126.062883 172.556317 
L 126.189041 173.184798 
L 126.315199 172.896961 
L 126.441357 173.538485 
L 126.567515 172.399263 
L 126.693673 173.035082 
L 126.81983 172.02449 
L 126.945988 172.694632 
L 127.072146 172.725593 
L 127.198304 172.28563 
L 127.324462 172.98674 
L 127.45062 172.857903 
L 127.576778 172.507435 
L 127.829093 172.808406 
L 128.207567 172.704407 
L 128.333725 173.107021 
L 128.712198 172.310883 
L 128.838356 172.674014 
L 128.964514 172.283192 
L 129.21683 172.914089 
L 129.342988 172.752563 
L 129.469145 173.144209 
L 129.595303 172.18351 
L 129.721461 172.937563 
L 129.847619 171.852772 
L 129.973777 173.180947 
L 130.226093 171.901052 
L 130.35225 173.093615 
L 130.478408 173.002143 
L 130.604566 172.219651 
L 130.856882 173.497927 
L 131.109198 172.445199 
L 131.235356 171.723565 
L 131.361513 173.346757 
L 131.487671 173.163522 
L 131.613829 172.192547 
L 131.739987 172.875671 
L 131.866145 172.921028 
L 131.992303 173.267478 
L 132.118461 172.648251 
L 132.244618 173.397849 
L 132.496934 171.939867 
L 132.74925 172.054785 
L 133.001566 172.005845 
L 133.253881 172.84548 
L 133.506197 173.420704 
L 133.632355 172.251423 
L 133.758513 173.260672 
L 133.884671 172.728147 
L 134.010828 173.089859 
L 134.136986 173.002177 
L 134.389302 172.546244 
L 134.51546 172.68738 
L 134.641618 173.196575 
L 134.767776 171.751958 
L 134.893933 171.900292 
L 135.020091 172.725172 
L 135.146249 172.26527 
L 135.272407 173.407605 
L 135.398565 171.754753 
L 135.650881 173.092088 
L 135.777038 173.10486 
L 135.903196 171.417245 
L 136.029354 173.122469 
L 136.155512 172.918632 
L 136.28167 171.935475 
L 136.407828 172.365431 
L 136.533986 172.373391 
L 136.660144 172.061223 
L 136.786301 172.146719 
L 136.912459 172.089442 
L 137.038617 172.342795 
L 137.290933 173.534942 
L 137.543249 172.269702 
L 137.795564 172.239301 
L 137.921722 172.552249 
L 138.04788 172.515663 
L 138.174038 171.940914 
L 138.300196 172.496258 
L 138.426354 171.287742 
L 138.552511 173.507774 
L 138.678669 173.516129 
L 138.804827 172.015095 
L 139.057143 172.44795 
L 139.183301 173.549573 
L 139.309459 172.411003 
L 139.561774 172.999257 
L 139.687932 171.612479 
L 139.940248 173.192867 
L 140.066406 172.115009 
L 140.192564 172.255697 
L 140.444879 170.2564 
L 140.571037 171.072097 
L 140.697195 171.156434 
L 140.823353 171.64924 
L 140.949511 172.845357 
L 141.075669 172.237818 
L 141.201826 173.061371 
L 141.327984 171.660941 
L 141.5803 173.287497 
L 141.706458 171.74739 
L 141.832616 172.380548 
L 141.958774 173.590099 
L 142.211089 172.392985 
L 142.337247 173.149793 
L 142.463405 171.12389 
L 142.589563 173.424328 
L 142.715721 172.344308 
L 142.841879 172.515547 
L 142.968037 171.701588 
L 143.094194 172.301569 
L 143.220352 171.930995 
L 143.34651 172.160261 
L 143.472668 173.095691 
L 143.598826 173.102918 
L 143.851142 172.091451 
L 143.977299 172.343955 
L 144.103457 170.780881 
L 144.229615 172.826092 
L 144.355773 172.46783 
L 144.481931 173.020662 
L 144.608089 172.961475 
L 144.860404 171.488502 
L 144.986562 173.293734 
L 145.11272 170.484322 
L 145.238878 172.241304 
L 145.491194 172.71621 
L 145.617352 171.45925 
L 145.743509 172.480663 
L 145.869667 171.821162 
L 146.121983 172.777968 
L 146.248141 170.633564 
L 146.500457 173.646776 
L 146.752772 171.885184 
L 146.87893 172.074275 
L 147.131246 171.957294 
L 147.257404 171.431945 
L 147.383562 172.983526 
L 147.635877 171.823495 
L 147.888193 167.869294 
L 148.140509 163.726092 
L 148.266667 105.438571 
L 148.392825 160.904991 
L 148.771298 169.784331 
L 148.897456 170.397061 
L 149.149772 172.655429 
L 149.27593 172.078771 
L 149.528245 168.953595 
L 149.654403 171.153362 
L 149.780561 170.918091 
L 149.906719 172.423756 
L 150.032877 172.397467 
L 150.159035 173.21267 
L 150.285192 171.458287 
L 150.41135 172.312896 
L 150.537508 171.83469 
L 150.663666 171.839642 
L 150.789824 172.732871 
L 150.915982 170.56462 
L 151.04214 172.942758 
L 151.294455 172.499562 
L 151.420613 170.560746 
L 151.546771 172.296105 
L 151.672929 172.066549 
L 151.799087 171.272678 
L 151.925245 171.838198 
L 152.051402 173.281619 
L 152.17756 173.272309 
L 152.429876 171.107876 
L 152.556034 172.082919 
L 152.682192 170.650534 
L 152.80835 173.261833 
L 152.934508 173.246872 
L 153.060665 172.902762 
L 153.186823 173.039711 
L 153.312981 172.067367 
L 153.691455 173.166381 
L 153.817613 172.659752 
L 153.94377 172.992669 
L 154.069928 171.520062 
L 154.196086 172.649213 
L 154.322244 172.132396 
L 154.448402 173.224044 
L 154.57456 172.996748 
L 154.700718 171.933392 
L 154.826875 172.077394 
L 154.953033 172.576358 
L 155.079191 170.757692 
L 155.331507 172.106347 
L 155.457665 172.452099 
L 155.583823 172.377513 
L 155.836138 172.655732 
L 155.962296 172.653293 
L 156.088454 170.936125 
L 156.214612 171.806432 
L 156.466928 171.704315 
L 156.593085 171.351001 
L 156.719243 173.224403 
L 156.845401 171.98197 
L 156.971559 172.174613 
L 157.223875 173.626595 
L 157.350033 172.859876 
L 157.728506 172.771098 
L 157.854664 171.767783 
L 158.10698 172.93857 
L 158.233138 172.606065 
L 158.359295 171.644877 
L 158.485453 172.185862 
L 158.611611 172.041557 
L 158.863927 173.077913 
L 158.990085 171.598842 
L 159.116243 172.635551 
L 159.368558 172.392577 
L 159.620874 173.557585 
L 159.747032 172.948096 
L 159.87319 173.256273 
L 160.125506 171.960026 
L 160.251663 172.990562 
L 160.377821 172.609741 
L 160.503979 173.138811 
L 160.630137 172.78533 
L 160.756295 172.979909 
L 160.882453 171.608074 
L 161.008611 171.637364 
L 161.260926 173.013429 
L 161.387084 172.174459 
L 161.513242 172.517862 
L 161.6394 173.511635 
L 161.891716 171.601184 
L 162.017873 173.052661 
L 162.144031 172.609561 
L 162.270189 173.307571 
L 162.396347 172.187495 
L 162.522505 172.975187 
L 162.648663 172.955997 
L 162.774821 173.315355 
L 162.900978 172.650963 
L 163.153294 173.016819 
L 163.279452 172.27158 
L 163.40561 173.032137 
L 163.657926 172.639131 
L 163.784083 172.366074 
L 163.910241 172.658842 
L 164.036399 172.539619 
L 164.162557 171.975544 
L 164.793346 173.528329 
L 164.919504 172.214527 
L 165.17182 173.338097 
L 165.297978 172.832732 
L 165.550294 173.331644 
L 165.676451 173.087987 
L 165.802609 173.617694 
L 166.054925 172.535351 
L 166.307241 173.335181 
L 166.433399 172.958617 
L 166.559556 173.286941 
L 166.685714 172.183229 
L 166.811872 172.921542 
L 166.93803 172.731653 
L 167.190346 173.127158 
L 167.316504 173.110707 
L 167.442661 172.621183 
L 167.568819 172.834476 
L 167.694977 172.823741 
L 167.821135 173.051302 
L 167.947293 172.90582 
L 168.073451 172.223742 
L 168.199609 172.749679 
L 168.325766 172.788452 
L 168.451924 173.208773 
L 168.578082 172.625335 
L 168.830398 173.156264 
L 169.208871 172.433144 
L 169.335029 173.022108 
L 169.461187 172.523493 
L 169.587345 172.581658 
L 169.713503 172.909061 
L 169.965819 172.773993 
L 170.091977 173.016384 
L 170.218134 171.949567 
L 170.344292 172.891604 
L 170.47045 172.167413 
L 170.596608 172.882201 
L 170.722766 172.680344 
L 170.848924 173.127472 
L 170.975082 173.022111 
L 171.101239 172.138792 
L 171.227397 173.181251 
L 171.353555 172.735818 
L 171.479713 173.163389 
L 171.605871 172.507285 
L 171.732029 172.732633 
L 171.858187 173.281255 
L 171.984344 172.852649 
L 172.110502 172.884151 
L 172.23666 173.255949 
L 172.362818 172.943133 
L 172.488976 173.283656 
L 172.615134 172.899538 
L 172.741292 172.92044 
L 172.867449 172.302926 
L 173.119765 173.355777 
L 173.245923 173.174939 
L 173.372081 173.29802 
L 173.498239 173.131137 
L 173.624397 172.578278 
L 173.750554 172.996408 
L 173.876712 172.877175 
L 174.00287 173.187012 
L 174.255186 172.795084 
L 174.507502 173.216666 
L 174.633659 173.121354 
L 174.759817 172.667643 
L 174.885975 172.798615 
L 175.012133 172.313855 
L 175.138291 173.233395 
L 175.264449 172.900311 
L 175.516765 173.376269 
L 175.642922 172.617862 
L 175.76908 173.150518 
L 175.895238 172.643544 
L 176.021396 173.384595 
L 176.273712 172.53497 
L 176.39987 173.172455 
L 176.526027 173.190794 
L 176.652185 172.621513 
L 176.778343 172.888485 
L 176.904501 173.555677 
L 177.030659 172.825869 
L 177.156817 172.861845 
L 177.282975 172.656327 
L 177.53529 173.459263 
L 177.661448 173.391947 
L 177.787606 172.935664 
L 177.913764 173.455729 
L 178.039922 172.931654 
L 178.16608 173.059183 
L 178.292237 172.818791 
L 178.418395 173.144824 
L 178.670711 172.329852 
L 178.796869 172.271579 
L 179.049185 172.652346 
L 179.175342 172.724665 
L 179.3015 172.966315 
L 179.427658 172.779346 
L 179.553816 173.03424 
L 179.679974 172.733108 
L 179.93229 173.2005 
L 180.058447 173.270916 
L 180.184605 173.194291 
L 180.310763 172.804116 
L 180.689237 173.57028 
L 180.815395 172.294114 
L 180.941553 172.231834 
L 181.06771 172.863073 
L 181.193868 172.862288 
L 181.320026 173.226207 
L 181.446184 172.08602 
L 181.6985 172.851301 
L 181.824658 173.011729 
L 181.950815 172.429327 
L 182.076973 173.391053 
L 182.203131 173.441594 
L 182.329289 172.837162 
L 182.581605 172.987578 
L 182.83392 172.497409 
L 183.086236 172.781372 
L 183.338552 173.370946 
L 183.46471 173.234759 
L 183.590868 173.350544 
L 183.717025 172.768725 
L 183.843183 173.210282 
L 183.969341 173.200534 
L 184.095499 172.787911 
L 184.221657 173.313585 
L 184.347815 173.22212 
L 184.473973 172.356539 
L 184.60013 173.270339 
L 184.726288 173.167397 
L 184.852446 172.602848 
L 184.978604 173.531758 
L 185.23092 172.849079 
L 185.357078 172.695094 
L 185.609393 173.584661 
L 185.735551 172.61413 
L 185.861709 173.049916 
L 186.114025 173.132119 
L 186.240183 173.482649 
L 186.366341 172.32372 
L 186.744814 172.645768 
L 186.870972 172.415295 
L 186.99713 173.352593 
L 187.123288 172.786256 
L 187.249446 173.068905 
L 187.375603 172.8747 
L 187.501761 173.516157 
L 187.627919 173.483515 
L 187.754077 172.23696 
L 187.880235 173.452629 
L 188.384866 173.16356 
L 188.511024 172.564886 
L 188.637182 173.571785 
L 188.76334 172.736832 
L 188.889498 172.809131 
L 189.015656 172.506658 
L 189.141813 173.153912 
L 189.267971 172.061669 
L 189.646445 173.354292 
L 189.772603 172.748736 
L 189.898761 173.319404 
L 190.151076 172.611303 
L 190.277234 173.385786 
L 190.403392 173.12111 
L 190.655708 173.490508 
L 190.781866 172.504983 
L 191.034181 172.712239 
L 191.160339 172.633559 
L 191.286497 173.000831 
L 191.412655 172.85638 
L 191.538813 173.448197 
L 191.664971 173.222918 
L 191.791129 173.427846 
L 191.917286 173.139263 
L 192.169602 173.537638 
L 192.29576 173.300947 
L 192.421918 172.628296 
L 192.548076 173.357959 
L 192.926549 172.346483 
L 193.052707 173.309791 
L 193.178865 172.633781 
L 193.305023 173.122643 
L 193.431181 172.822265 
L 193.557339 173.450741 
L 194.06197 170.226419 
L 194.188128 159.886597 
L 194.566601 172.56772 
L 194.692759 170.347306 
L 194.818917 172.923942 
L 194.945075 172.35066 
L 195.071233 173.041089 
L 195.197391 172.873978 
L 195.323549 173.326557 
L 195.575864 171.376522 
L 195.702022 171.534861 
L 195.954338 172.496163 
L 196.080496 173.51971 
L 196.206654 173.211603 
L 196.332811 173.297469 
L 196.458969 172.619011 
L 196.711285 173.1333 
L 196.837443 173.221573 
L 196.963601 172.494491 
L 197.089759 172.765085 
L 197.215917 172.715592 
L 197.342074 173.100951 
L 197.468232 172.841559 
L 197.59439 173.338843 
L 197.846706 171.94877 
L 198.099022 173.049983 
L 198.351337 172.574048 
L 198.603653 172.262493 
L 198.729811 171.991958 
L 198.982127 173.652148 
L 199.486758 172.514923 
L 199.612916 172.538333 
L 199.739074 172.687245 
L 199.991389 173.163534 
L 200.117547 172.760467 
L 200.243705 172.957838 
L 200.369863 172.786956 
L 200.496021 173.343272 
L 200.622179 173.174651 
L 200.748337 173.293549 
L 200.874494 172.81003 
L 201.000652 172.996513 
L 201.12681 171.930941 
L 201.505284 173.351849 
L 201.631442 173.282857 
L 201.757599 172.912182 
L 202.009915 172.994293 
L 202.136073 173.326569 
L 202.262231 173.089695 
L 202.388389 173.116294 
L 202.640705 172.304369 
L 202.766862 173.639783 
L 202.89302 172.553704 
L 203.271494 173.318134 
L 203.397652 173.166989 
L 203.52381 173.378485 
L 203.649967 173.031185 
L 203.776125 173.14578 
L 203.902283 172.561312 
L 204.028441 172.613537 
L 204.154599 173.177623 
L 204.280757 173.207033 
L 204.406915 172.928926 
L 204.533072 172.959211 
L 204.65923 172.835431 
L 204.911546 172.891636 
L 205.037704 172.811793 
L 205.163862 173.288883 
L 205.29002 172.905928 
L 205.416177 173.045696 
L 205.542335 172.953725 
L 205.794651 173.412862 
L 206.046967 173.074638 
L 206.173125 172.943141 
L 206.299282 173.556355 
L 206.551598 173.111585 
L 206.677756 173.345974 
L 206.930072 172.471383 
L 207.05623 172.799209 
L 207.182387 172.736333 
L 207.308545 173.053387 
L 207.434703 172.736729 
L 207.687019 173.342769 
L 207.939335 172.503598 
L 208.065492 173.593925 
L 208.19165 173.309274 
L 208.317808 173.516587 
L 208.443966 173.058 
L 208.696282 173.34146 
L 208.82244 173.456634 
L 209.074755 173.084399 
L 209.200913 173.246648 
L 209.327071 173.000463 
L 209.579387 173.230708 
L 209.831703 172.610245 
L 209.95786 173.259663 
L 210.084018 173.16357 
L 210.210176 172.810441 
L 210.462492 173.425945 
L 210.714808 173.599706 
L 211.093281 173.151168 
L 211.219439 173.615596 
L 211.471755 173.528107 
L 212.102544 173.161807 
L 212.228702 173.320723 
L 212.481018 173.234936 
L 212.607175 173.457329 
L 212.733333 173.060066 
L 212.859491 173.469256 
L 212.985649 173.282134 
L 213.111807 173.493228 
L 213.364123 173.364692 
L 213.742596 173.529811 
L 214.12107 172.886527 
L 214.373386 173.284918 
L 214.499543 173.464248 
L 214.625701 172.918305 
L 214.751859 173.094909 
L 214.878017 173.596351 
L 215.130333 173.102189 
L 215.382648 173.571467 
L 215.508806 172.978861 
L 215.634964 173.087335 
L 215.761122 172.867319 
L 216.013438 173.434245 
L 216.139596 173.376141 
L 216.265753 172.826189 
L 216.391911 173.124085 
L 216.518069 172.877487 
L 216.896543 173.388259 
L 217.148858 172.885394 
L 217.275016 173.437762 
L 217.401174 173.266487 
L 217.527332 173.355382 
L 217.65349 172.954989 
L 217.779648 173.042455 
L 217.905806 173.32035 
L 218.158121 173.224114 
L 218.284279 173.561484 
L 218.410437 173.175417 
L 218.536595 173.460722 
L 218.915068 172.838934 
L 219.041226 173.037596 
L 219.167384 173.527992 
L 219.545858 173.243436 
L 219.672016 172.975136 
L 219.798174 173.137876 
L 219.924331 172.970895 
L 220.050489 173.59123 
L 220.302805 173.106205 
L 220.428963 173.489171 
L 220.933594 173.009535 
L 221.059752 172.881712 
L 221.18591 173.168102 
L 221.312068 173.150375 
L 221.438226 173.55016 
L 221.942857 173.149071 
L 222.069015 173.375219 
L 222.321331 172.973152 
L 222.447489 172.927547 
L 222.573646 173.275297 
L 222.699804 173.112049 
L 222.95212 173.548215 
L 223.078278 173.040298 
L 223.582909 173.55045 
L 223.709067 173.436856 
L 223.835225 173.077755 
L 223.961383 173.47901 
L 224.339856 172.734073 
L 224.592172 173.040294 
L 224.970646 173.098332 
L 225.096804 173.239376 
L 225.222962 173.057409 
L 225.349119 173.153771 
L 225.475277 172.876944 
L 225.601435 172.967971 
L 225.727593 173.231727 
L 225.853751 173.184691 
L 225.979909 173.43338 
L 226.358382 173.268499 
L 226.610698 173.486027 
L 226.736856 173.375596 
L 226.989172 172.724621 
L 227.241487 173.199303 
L 227.367645 173.119546 
L 227.493803 172.871873 
L 227.746119 173.156071 
L 227.872277 172.955549 
L 227.998434 173.259589 
L 228.124592 173.075339 
L 228.503066 173.354332 
L 228.629224 173.339859 
L 228.881539 172.886 
L 229.260013 173.45515 
L 229.764644 173.373826 
L 229.890802 173.490265 
L 230.269276 172.987774 
L 230.521592 173.277964 
L 230.64775 173.525131 
L 230.900065 173.148715 
L 231.026223 173.368536 
L 231.152381 173.356663 
L 231.278539 172.902076 
L 231.657012 173.48803 
L 231.78317 173.420313 
L 231.909328 173.584378 
L 232.035486 173.073749 
L 232.287802 173.42757 
L 232.41396 173.085357 
L 232.540117 173.382882 
L 232.666275 173.06419 
L 232.792433 173.457741 
L 233.044749 173.092268 
L 233.170907 173.276604 
L 233.297065 173.00669 
L 233.675538 173.630641 
L 233.801696 172.934781 
L 234.054012 173.297885 
L 234.306327 173.3074 
L 234.558643 173.462468 
L 234.684801 173.543121 
L 234.937117 172.952209 
L 235.189432 173.269541 
L 235.31559 172.904329 
L 235.694064 173.409507 
L 235.820222 173.05773 
L 236.072538 173.452195 
L 236.198695 173.281542 
L 236.324853 173.430862 
L 236.451011 173.297736 
L 236.577169 173.497456 
L 236.829485 173.006757 
L 236.955643 173.199848 
L 237.0818 172.875848 
L 237.207958 173.406485 
L 237.334116 173.219686 
L 237.460274 173.397091 
L 237.586432 173.180628 
L 237.71259 173.376015 
L 237.838748 173.315661 
L 237.964905 173.057766 
L 238.091063 173.171497 
L 238.217221 173.442884 
L 238.469537 173.108043 
L 238.595695 173.467172 
L 238.721853 173.257305 
L 238.84801 173.623948 
L 238.974168 173.022037 
L 239.100326 173.349724 
L 239.226484 172.886279 
L 239.352642 173.438675 
L 239.731115 172.979588 
L 239.857273 172.907034 
L 239.983431 172.160996 
L 240.109589 172.102735 
L 240.361905 166.544474 
L 240.488063 169.666744 
L 240.61422 169.801823 
L 240.740378 172.620262 
L 240.992694 172.857464 
L 241.24501 173.36963 
L 241.497326 172.82046 
L 241.623483 172.94019 
L 241.749641 172.331324 
L 242.128115 173.352216 
L 242.380431 172.915918 
L 242.506588 172.699072 
L 242.885062 173.431093 
L 243.01122 173.561739 
L 243.137378 173.100577 
L 243.389693 173.273 
L 243.515851 173.183186 
L 243.642009 173.462667 
L 243.894325 172.761165 
L 244.020483 173.477535 
L 244.272798 172.95083 
L 244.398956 173.118839 
L 244.651272 172.893249 
L 244.77743 173.108411 
L 244.903588 172.96435 
L 245.029746 173.574318 
L 245.155903 173.500024 
L 245.282061 173.280352 
L 245.408219 173.492597 
L 245.660535 173.102756 
L 245.786693 172.999079 
L 245.912851 173.322483 
L 246.039008 173.061617 
L 246.165166 173.460686 
L 246.291324 172.974506 
L 246.417482 173.185845 
L 246.54364 173.070695 
L 246.669798 173.448126 
L 246.795956 173.252444 
L 247.048271 173.409065 
L 247.174429 172.937913 
L 247.300587 172.913988 
L 247.426745 173.341221 
L 247.552903 173.339367 
L 247.679061 173.537737 
L 247.931376 172.777029 
L 248.057534 173.10135 
L 248.183692 173.095176 
L 248.30985 173.608377 
L 248.436008 173.605462 
L 248.562166 173.296013 
L 248.688324 173.299689 
L 248.814481 173.504271 
L 248.940639 173.013699 
L 249.192955 173.359294 
L 249.319113 173.403655 
L 249.445271 173.165558 
L 249.571429 173.424903 
L 249.697586 173.188948 
L 249.949902 173.315933 
L 250.07606 173.00698 
L 250.202218 173.190456 
L 250.454534 172.948331 
L 250.706849 173.525747 
L 250.833007 173.094331 
L 250.959165 173.171439 
L 251.211481 173.452852 
L 251.337639 173.220049 
L 251.463796 173.245375 
L 251.589954 172.940475 
L 251.716112 173.08873 
L 251.84227 173.592093 
L 251.968428 173.343202 
L 252.094586 173.360425 
L 252.220744 173.550683 
L 252.346902 173.391481 
L 252.473059 173.563424 
L 252.599217 173.102479 
L 252.725375 173.259532 
L 252.851533 172.990208 
L 252.977691 173.115873 
L 253.103849 173.428868 
L 253.230007 173.230147 
L 253.482322 173.170843 
L 253.60848 173.393231 
L 253.860796 173.288778 
L 254.239269 173.493523 
L 254.870059 173.306027 
L 254.996217 173.486274 
L 255.248532 173.373435 
L 255.37469 173.55062 
L 255.500848 173.015558 
L 255.627006 173.36289 
L 255.879322 173.09895 
L 256.131637 173.540675 
L 256.257795 173.377883 
L 256.383953 173.595563 
L 256.636269 173.517715 
L 256.762427 173.538208 
L 257.014742 173.270058 
L 257.267058 173.584282 
L 257.393216 173.4034 
L 257.771689 173.415606 
L 257.897847 173.302514 
L 258.024005 173.40773 
L 258.150163 173.318613 
L 258.276321 173.494691 
L 258.402479 173.235924 
L 258.528637 173.343739 
L 258.654795 173.150338 
L 258.780952 173.461735 
L 258.90711 173.303772 
L 259.411742 173.550582 
L 259.5379 173.264891 
L 259.664057 173.381348 
L 259.790215 173.192933 
L 259.916373 173.495928 
L 260.042531 173.039672 
L 260.294847 173.61103 
L 260.799478 173.231204 
L 260.925636 173.54355 
L 261.430267 173.375612 
L 261.556425 173.120969 
L 261.682583 173.352756 
L 261.808741 173.097961 
L 262.061057 173.301691 
L 262.313372 173.553367 
L 262.43953 173.16951 
L 262.565688 173.273928 
L 262.691846 173.169644 
L 262.818004 173.539746 
L 263.07032 173.372032 
L 263.196477 173.465834 
L 263.322635 173.36212 
L 263.574951 173.660618 
L 263.701109 173.297012 
L 263.827267 173.409367 
L 263.953425 173.183958 
L 264.079583 173.504433 
L 264.20574 173.316103 
L 264.458056 173.541172 
L 264.962688 173.339162 
L 265.215003 173.508943 
L 265.341161 173.133358 
L 265.593477 173.300663 
L 265.719635 173.144801 
L 265.845793 173.18828 
L 265.97195 173.085553 
L 266.098108 173.387038 
L 266.350424 173.419225 
L 266.476582 173.583264 
L 266.728898 173.479886 
L 267.233529 173.366735 
L 267.485845 173.530123 
L 267.612003 173.378151 
L 267.73816 173.459557 
L 267.864318 173.341168 
L 267.990476 173.554949 
L 268.495108 173.112225 
L 268.873581 173.460615 
L 268.999739 173.564101 
L 269.125897 173.188634 
L 269.378213 173.367472 
L 269.504371 173.253576 
L 269.630528 173.485854 
L 269.882844 173.26671 
L 270.009002 173.460611 
L 270.13516 173.39725 
L 270.261318 173.150683 
L 270.639791 173.087794 
L 270.765949 173.540285 
L 271.018265 173.40141 
L 271.144423 173.455215 
L 271.270581 173.269378 
L 271.396738 173.34347 
L 271.522896 173.203747 
L 271.649054 173.263641 
L 271.775212 173.558401 
L 271.90137 173.48666 
L 272.153686 173.545905 
L 272.406001 173.512297 
L 272.532159 173.486123 
L 272.658317 173.585491 
L 272.910633 173.365706 
L 273.036791 173.189747 
L 273.289106 173.510461 
L 273.415264 173.241587 
L 273.66758 173.498479 
L 273.793738 173.575242 
L 273.919896 173.221278 
L 274.046053 173.460009 
L 274.172211 173.144281 
L 274.298369 173.32085 
L 274.424527 173.298138 
L 274.676843 173.481244 
L 275.181474 173.415648 
L 275.307632 173.570919 
L 275.43379 173.478191 
L 275.938421 173.614199 
L 276.316895 173.092685 
L 276.821526 173.492455 
L 277.326158 173.371193 
L 277.326158 173.371193 
" clip-path="url(#p1ae3c6599c)" style="fill: none; stroke: #de8f05; stroke-linecap: round"/>
   </g>
   <g id="patch_3">
    <path d="M 45.12 181.416412 
L 45.12 10.8 
" style="fill: none; stroke: #cccccc; stroke-linejoin: miter; stroke-linecap: square"/>
   </g>
   <g id="patch_4">
    <path d="M 277.2 181.416412 
L 277.2 10.8 
" style="fill: none; stroke: #cccccc; stroke-linejoin: miter; stroke-linecap: square"/>
   </g>
   <g id="patch_5">
    <path d="M 45.12 181.416412 
L 277.2 181.416412 
" style="fill: none; stroke: #cccccc; stroke-linejoin: miter; stroke-linecap: square"/>
   </g>
   <g id="patch_6">
    <path d="M 45.12 10.8 
L 277.2 10.8 
" style="fill: none; stroke: #cccccc; stroke-linejoin: miter; stroke-linecap: square"/>
   </g>
  </g>
 </g>
 <defs>
  <clipPath id="p1ae3c6599c">
   <rect x="45.12" y="10.8" width="232.08" height="170.616412"/>
  </clipPath>
 </defs>
</svg>
