<?xml version="1.0" encoding="utf-8" standalone="no"?>
<!DOCTYPE svg PUBLIC "-//W3C//DTD SVG 1.1//EN"
  "http://www.w3.org/Graphics/SVG/1.1/DTD/svg11.dtd">
<svg xmlns:xlink="http://www.w3.org/1999/xlink" width="288pt" height="230.4pt" viewBox="0 0 288 230.4" xmlns="http://www.w3.org/2000/svg" version="1.1">
 <metadata>
  <rdf:RDF xmlns:dc="http://purl.org/dc/elements/1.1/" xmlns:cc="http://creativecommons.org/ns#" xmlns:rdf="http://www.w3.org/1999/02/22-rdf-syntax-ns#">
   <cc:Work>
    <dc:type rdf:resource="http://purl.org/dc/dcmitype/StillImage"/>
    <dc:date>2024-07-21T17:28:17.605640</dc:date>
    <dc:format>image/svg+xml</dc:format>
    <dc:creator>
     <cc:Agent>
      <dc:title>Matplotlib v3.9.0, https://matplotlib.org/</dc:title>
     </cc:Agent>
    </dc:creator>
   </cc:Work>
  </rdf:RDF>
 </metadata>
 <defs>
  <style type="text/css">*{stroke-linejoin: round; stroke-linecap: butt}</style>
 </defs>
 <g id="figure_1">
  <g id="patch_1">
   <path d="M 0 230.4 
L 288 230.4 
L 288 0 
L 0 0 
z
" style="fill: #ffffff"/>
  </g>
  <g id="axes_1">
   <g id="patch_2">
    <path d="M 47.91 181.416412 
L 277.2 181.416412 
L 277.2 10.8 
L 47.91 10.8 
z
" style="fill: #ffffff"/>
   </g>
   <g id="matplotlib.axis_1">
    <g id="xtick_1">
     <g id="line2d_1">
      <path d="M 240.804762 181.416412 
L 240.804762 10.8 
" clip-path="url(#p7ae42d3bbe)" style="fill: none; stroke: #cccccc; stroke-width: 0.8; stroke-linecap: round"/>
     </g>
     <g id="line2d_2"/>
     <g id="text_1">
      <!-- 6 hours -->
      <g style="fill: #262626" transform="translate(215.816271 213.560866) rotate(-45) scale(0.1 -0.1)">
       <defs>
        <path id="ArialMT-36" d="M 3184 3459 
L 2625 3416 
Q 2550 3747 2413 3897 
Q 2184 4138 1850 4138 
Q 1581 4138 1378 3988 
Q 1113 3794 959 3422 
Q 806 3050 800 2363 
Q 1003 2672 1297 2822 
Q 1591 2972 1913 2972 
Q 2475 2972 2870 2558 
Q 3266 2144 3266 1488 
Q 3266 1056 3080 686 
Q 2894 316 2569 119 
Q 2244 -78 1831 -78 
Q 1128 -78 684 439 
Q 241 956 241 2144 
Q 241 3472 731 4075 
Q 1159 4600 1884 4600 
Q 2425 4600 2770 4297 
Q 3116 3994 3184 3459 
z
M 888 1484 
Q 888 1194 1011 928 
Q 1134 663 1356 523 
Q 1578 384 1822 384 
Q 2178 384 2434 671 
Q 2691 959 2691 1453 
Q 2691 1928 2437 2201 
Q 2184 2475 1800 2475 
Q 1419 2475 1153 2201 
Q 888 1928 888 1484 
z
" transform="scale(0.015625)"/>
        <path id="ArialMT-20" transform="scale(0.015625)"/>
        <path id="ArialMT-68" d="M 422 0 
L 422 4581 
L 984 4581 
L 984 2938 
Q 1378 3394 1978 3394 
Q 2347 3394 2619 3248 
Q 2891 3103 3008 2847 
Q 3125 2591 3125 2103 
L 3125 0 
L 2563 0 
L 2563 2103 
Q 2563 2525 2380 2717 
Q 2197 2909 1863 2909 
Q 1613 2909 1392 2779 
Q 1172 2650 1078 2428 
Q 984 2206 984 1816 
L 984 0 
L 422 0 
z
" transform="scale(0.015625)"/>
        <path id="ArialMT-6f" d="M 213 1659 
Q 213 2581 725 3025 
Q 1153 3394 1769 3394 
Q 2453 3394 2887 2945 
Q 3322 2497 3322 1706 
Q 3322 1066 3130 698 
Q 2938 331 2570 128 
Q 2203 -75 1769 -75 
Q 1072 -75 642 372 
Q 213 819 213 1659 
z
M 791 1659 
Q 791 1022 1069 705 
Q 1347 388 1769 388 
Q 2188 388 2466 706 
Q 2744 1025 2744 1678 
Q 2744 2294 2464 2611 
Q 2184 2928 1769 2928 
Q 1347 2928 1069 2612 
Q 791 2297 791 1659 
z
" transform="scale(0.015625)"/>
        <path id="ArialMT-75" d="M 2597 0 
L 2597 488 
Q 2209 -75 1544 -75 
Q 1250 -75 995 37 
Q 741 150 617 320 
Q 494 491 444 738 
Q 409 903 409 1263 
L 409 3319 
L 972 3319 
L 972 1478 
Q 972 1038 1006 884 
Q 1059 663 1231 536 
Q 1403 409 1656 409 
Q 1909 409 2131 539 
Q 2353 669 2445 892 
Q 2538 1116 2538 1541 
L 2538 3319 
L 3100 3319 
L 3100 0 
L 2597 0 
z
" transform="scale(0.015625)"/>
        <path id="ArialMT-72" d="M 416 0 
L 416 3319 
L 922 3319 
L 922 2816 
Q 1116 3169 1280 3281 
Q 1444 3394 1641 3394 
Q 1925 3394 2219 3213 
L 2025 2691 
Q 1819 2813 1613 2813 
Q 1428 2813 1281 2702 
Q 1134 2591 1072 2394 
Q 978 2094 978 1738 
L 978 0 
L 416 0 
z
" transform="scale(0.015625)"/>
        <path id="ArialMT-73" d="M 197 991 
L 753 1078 
Q 800 744 1014 566 
Q 1228 388 1613 388 
Q 2000 388 2187 545 
Q 2375 703 2375 916 
Q 2375 1106 2209 1216 
Q 2094 1291 1634 1406 
Q 1016 1563 777 1677 
Q 538 1791 414 1992 
Q 291 2194 291 2438 
Q 291 2659 392 2848 
Q 494 3038 669 3163 
Q 800 3259 1026 3326 
Q 1253 3394 1513 3394 
Q 1903 3394 2198 3281 
Q 2494 3169 2634 2976 
Q 2775 2784 2828 2463 
L 2278 2388 
Q 2241 2644 2061 2787 
Q 1881 2931 1553 2931 
Q 1166 2931 1000 2803 
Q 834 2675 834 2503 
Q 834 2394 903 2306 
Q 972 2216 1119 2156 
Q 1203 2125 1616 2013 
Q 2213 1853 2448 1751 
Q 2684 1650 2818 1456 
Q 2953 1263 2953 975 
Q 2953 694 2789 445 
Q 2625 197 2315 61 
Q 2006 -75 1616 -75 
Q 969 -75 630 194 
Q 291 463 197 991 
z
" transform="scale(0.015625)"/>
       </defs>
       <use xlink:href="#ArialMT-36"/>
       <use xlink:href="#ArialMT-20" x="55.615234"/>
       <use xlink:href="#ArialMT-68" x="83.398438"/>
       <use xlink:href="#ArialMT-6f" x="139.013672"/>
       <use xlink:href="#ArialMT-75" x="194.628906"/>
       <use xlink:href="#ArialMT-72" x="250.244141"/>
       <use xlink:href="#ArialMT-73" x="283.544922"/>
      </g>
     </g>
    </g>
    <g id="xtick_2">
     <g id="line2d_3">
      <path d="M 195.310714 181.416412 
L 195.310714 10.8 
" clip-path="url(#p7ae42d3bbe)" style="fill: none; stroke: #cccccc; stroke-width: 0.8; stroke-linecap: round"/>
     </g>
     <g id="line2d_4"/>
     <g id="text_2">
      <!-- 8 hours -->
      <g style="fill: #262626" transform="translate(170.322224 213.560866) rotate(-45) scale(0.1 -0.1)">
       <defs>
        <path id="ArialMT-38" d="M 1131 2484 
Q 781 2613 612 2850 
Q 444 3088 444 3419 
Q 444 3919 803 4259 
Q 1163 4600 1759 4600 
Q 2359 4600 2725 4251 
Q 3091 3903 3091 3403 
Q 3091 3084 2923 2848 
Q 2756 2613 2416 2484 
Q 2838 2347 3058 2040 
Q 3278 1734 3278 1309 
Q 3278 722 2862 322 
Q 2447 -78 1769 -78 
Q 1091 -78 675 323 
Q 259 725 259 1325 
Q 259 1772 486 2073 
Q 713 2375 1131 2484 
z
M 1019 3438 
Q 1019 3113 1228 2906 
Q 1438 2700 1772 2700 
Q 2097 2700 2305 2904 
Q 2513 3109 2513 3406 
Q 2513 3716 2298 3927 
Q 2084 4138 1766 4138 
Q 1444 4138 1231 3931 
Q 1019 3725 1019 3438 
z
M 838 1322 
Q 838 1081 952 856 
Q 1066 631 1291 507 
Q 1516 384 1775 384 
Q 2178 384 2440 643 
Q 2703 903 2703 1303 
Q 2703 1709 2433 1975 
Q 2163 2241 1756 2241 
Q 1359 2241 1098 1978 
Q 838 1716 838 1322 
z
" transform="scale(0.015625)"/>
       </defs>
       <use xlink:href="#ArialMT-38"/>
       <use xlink:href="#ArialMT-20" x="55.615234"/>
       <use xlink:href="#ArialMT-68" x="83.398438"/>
       <use xlink:href="#ArialMT-6f" x="139.013672"/>
       <use xlink:href="#ArialMT-75" x="194.628906"/>
       <use xlink:href="#ArialMT-72" x="250.244141"/>
       <use xlink:href="#ArialMT-73" x="283.544922"/>
      </g>
     </g>
    </g>
    <g id="xtick_3">
     <g id="line2d_5">
      <path d="M 149.816667 181.416412 
L 149.816667 10.8 
" clip-path="url(#p7ae42d3bbe)" style="fill: none; stroke: #cccccc; stroke-width: 0.8; stroke-linecap: round"/>
     </g>
     <g id="line2d_6"/>
     <g id="text_3">
      <!-- 12 hours -->
      <g style="fill: #262626" transform="translate(120.895999 217.493043) rotate(-45) scale(0.1 -0.1)">
       <defs>
        <path id="ArialMT-31" d="M 2384 0 
L 1822 0 
L 1822 3584 
Q 1619 3391 1289 3197 
Q 959 3003 697 2906 
L 697 3450 
Q 1169 3672 1522 3987 
Q 1875 4303 2022 4600 
L 2384 4600 
L 2384 0 
z
" transform="scale(0.015625)"/>
        <path id="ArialMT-32" d="M 3222 541 
L 3222 0 
L 194 0 
Q 188 203 259 391 
Q 375 700 629 1000 
Q 884 1300 1366 1694 
Q 2113 2306 2375 2664 
Q 2638 3022 2638 3341 
Q 2638 3675 2398 3904 
Q 2159 4134 1775 4134 
Q 1369 4134 1125 3890 
Q 881 3647 878 3216 
L 300 3275 
Q 359 3922 746 4261 
Q 1134 4600 1788 4600 
Q 2447 4600 2831 4234 
Q 3216 3869 3216 3328 
Q 3216 3053 3103 2787 
Q 2991 2522 2730 2228 
Q 2469 1934 1863 1422 
Q 1356 997 1212 845 
Q 1069 694 975 541 
L 3222 541 
z
" transform="scale(0.015625)"/>
       </defs>
       <use xlink:href="#ArialMT-31"/>
       <use xlink:href="#ArialMT-32" x="55.615234"/>
       <use xlink:href="#ArialMT-20" x="111.230469"/>
       <use xlink:href="#ArialMT-68" x="139.013672"/>
       <use xlink:href="#ArialMT-6f" x="194.628906"/>
       <use xlink:href="#ArialMT-75" x="250.244141"/>
       <use xlink:href="#ArialMT-72" x="305.859375"/>
       <use xlink:href="#ArialMT-73" x="339.160156"/>
      </g>
     </g>
    </g>
    <g id="xtick_4">
     <g id="line2d_7">
      <path d="M 104.322619 181.416412 
L 104.322619 10.8 
" clip-path="url(#p7ae42d3bbe)" style="fill: none; stroke: #cccccc; stroke-width: 0.8; stroke-linecap: round"/>
     </g>
     <g id="line2d_8"/>
     <g id="text_4">
      <!-- Daily -->
      <g style="fill: #262626" transform="translate(87.117827 205.694303) rotate(-45) scale(0.1 -0.1)">
       <defs>
        <path id="ArialMT-44" d="M 494 0 
L 494 4581 
L 2072 4581 
Q 2606 4581 2888 4516 
Q 3281 4425 3559 4188 
Q 3922 3881 4101 3404 
Q 4281 2928 4281 2316 
Q 4281 1794 4159 1391 
Q 4038 988 3847 723 
Q 3656 459 3429 307 
Q 3203 156 2883 78 
Q 2563 0 2147 0 
L 494 0 
z
M 1100 541 
L 2078 541 
Q 2531 541 2789 625 
Q 3047 709 3200 863 
Q 3416 1078 3536 1442 
Q 3656 1806 3656 2325 
Q 3656 3044 3420 3430 
Q 3184 3816 2847 3947 
Q 2603 4041 2063 4041 
L 1100 4041 
L 1100 541 
z
" transform="scale(0.015625)"/>
        <path id="ArialMT-61" d="M 2588 409 
Q 2275 144 1986 34 
Q 1697 -75 1366 -75 
Q 819 -75 525 192 
Q 231 459 231 875 
Q 231 1119 342 1320 
Q 453 1522 633 1644 
Q 813 1766 1038 1828 
Q 1203 1872 1538 1913 
Q 2219 1994 2541 2106 
Q 2544 2222 2544 2253 
Q 2544 2597 2384 2738 
Q 2169 2928 1744 2928 
Q 1347 2928 1158 2789 
Q 969 2650 878 2297 
L 328 2372 
Q 403 2725 575 2942 
Q 747 3159 1072 3276 
Q 1397 3394 1825 3394 
Q 2250 3394 2515 3294 
Q 2781 3194 2906 3042 
Q 3031 2891 3081 2659 
Q 3109 2516 3109 2141 
L 3109 1391 
Q 3109 606 3145 398 
Q 3181 191 3288 0 
L 2700 0 
Q 2613 175 2588 409 
z
M 2541 1666 
Q 2234 1541 1622 1453 
Q 1275 1403 1131 1340 
Q 988 1278 909 1158 
Q 831 1038 831 891 
Q 831 666 1001 516 
Q 1172 366 1500 366 
Q 1825 366 2078 508 
Q 2331 650 2450 897 
Q 2541 1088 2541 1459 
L 2541 1666 
z
" transform="scale(0.015625)"/>
        <path id="ArialMT-69" d="M 425 3934 
L 425 4581 
L 988 4581 
L 988 3934 
L 425 3934 
z
M 425 0 
L 425 3319 
L 988 3319 
L 988 0 
L 425 0 
z
" transform="scale(0.015625)"/>
        <path id="ArialMT-6c" d="M 409 0 
L 409 4581 
L 972 4581 
L 972 0 
L 409 0 
z
" transform="scale(0.015625)"/>
        <path id="ArialMT-79" d="M 397 -1278 
L 334 -750 
Q 519 -800 656 -800 
Q 844 -800 956 -737 
Q 1069 -675 1141 -563 
Q 1194 -478 1313 -144 
Q 1328 -97 1363 -6 
L 103 3319 
L 709 3319 
L 1400 1397 
Q 1534 1031 1641 628 
Q 1738 1016 1872 1384 
L 2581 3319 
L 3144 3319 
L 1881 -56 
Q 1678 -603 1566 -809 
Q 1416 -1088 1222 -1217 
Q 1028 -1347 759 -1347 
Q 597 -1347 397 -1278 
z
" transform="scale(0.015625)"/>
       </defs>
       <use xlink:href="#ArialMT-44"/>
       <use xlink:href="#ArialMT-61" x="72.216797"/>
       <use xlink:href="#ArialMT-69" x="127.832031"/>
       <use xlink:href="#ArialMT-6c" x="150.048828"/>
       <use xlink:href="#ArialMT-79" x="172.265625"/>
      </g>
     </g>
    </g>
    <g id="xtick_5">
     <g id="line2d_9">
      <path d="M 65.327721 181.416412 
L 65.327721 10.8 
" clip-path="url(#p7ae42d3bbe)" style="fill: none; stroke: #cccccc; stroke-width: 0.8; stroke-linecap: round"/>
     </g>
     <g id="line2d_10"/>
     <g id="text_5">
      <!-- Weekly -->
      <g style="fill: #262626" transform="translate(40.782277 213.034955) rotate(-45) scale(0.1 -0.1)">
       <defs>
        <path id="ArialMT-57" d="M 1294 0 
L 78 4581 
L 700 4581 
L 1397 1578 
Q 1509 1106 1591 641 
Q 1766 1375 1797 1488 
L 2669 4581 
L 3400 4581 
L 4056 2263 
Q 4303 1400 4413 641 
Q 4500 1075 4641 1638 
L 5359 4581 
L 5969 4581 
L 4713 0 
L 4128 0 
L 3163 3491 
Q 3041 3928 3019 4028 
Q 2947 3713 2884 3491 
L 1913 0 
L 1294 0 
z
" transform="scale(0.015625)"/>
        <path id="ArialMT-65" d="M 2694 1069 
L 3275 997 
Q 3138 488 2766 206 
Q 2394 -75 1816 -75 
Q 1088 -75 661 373 
Q 234 822 234 1631 
Q 234 2469 665 2931 
Q 1097 3394 1784 3394 
Q 2450 3394 2872 2941 
Q 3294 2488 3294 1666 
Q 3294 1616 3291 1516 
L 816 1516 
Q 847 969 1125 678 
Q 1403 388 1819 388 
Q 2128 388 2347 550 
Q 2566 713 2694 1069 
z
M 847 1978 
L 2700 1978 
Q 2663 2397 2488 2606 
Q 2219 2931 1791 2931 
Q 1403 2931 1139 2672 
Q 875 2413 847 1978 
z
" transform="scale(0.015625)"/>
        <path id="ArialMT-6b" d="M 425 0 
L 425 4581 
L 988 4581 
L 988 1969 
L 2319 3319 
L 3047 3319 
L 1778 2088 
L 3175 0 
L 2481 0 
L 1384 1697 
L 988 1316 
L 988 0 
L 425 0 
z
" transform="scale(0.015625)"/>
       </defs>
       <use xlink:href="#ArialMT-57"/>
       <use xlink:href="#ArialMT-65" x="92.634766"/>
       <use xlink:href="#ArialMT-65" x="148.25"/>
       <use xlink:href="#ArialMT-6b" x="203.865234"/>
       <use xlink:href="#ArialMT-6c" x="253.865234"/>
       <use xlink:href="#ArialMT-79" x="276.082031"/>
      </g>
     </g>
    </g>
   </g>
   <g id="matplotlib.axis_2">
    <g id="ytick_1">
     <g id="line2d_11"/>
     <g id="text_6">
      <!-- 0.0 -->
      <g style="fill: #262626" transform="translate(30.51 177.264235) scale(0.1 -0.1)">
       <defs>
        <path id="ArialMT-30" d="M 266 2259 
Q 266 3072 433 3567 
Q 600 4063 929 4331 
Q 1259 4600 1759 4600 
Q 2128 4600 2406 4451 
Q 2684 4303 2865 4023 
Q 3047 3744 3150 3342 
Q 3253 2941 3253 2259 
Q 3253 1453 3087 958 
Q 2922 463 2592 192 
Q 2263 -78 1759 -78 
Q 1097 -78 719 397 
Q 266 969 266 2259 
z
M 844 2259 
Q 844 1131 1108 757 
Q 1372 384 1759 384 
Q 2147 384 2411 759 
Q 2675 1134 2675 2259 
Q 2675 3391 2411 3762 
Q 2147 4134 1753 4134 
Q 1366 4134 1134 3806 
Q 844 3388 844 2259 
z
" transform="scale(0.015625)"/>
        <path id="ArialMT-2e" d="M 581 0 
L 581 641 
L 1222 641 
L 1222 0 
L 581 0 
z
" transform="scale(0.015625)"/>
       </defs>
       <use xlink:href="#ArialMT-30"/>
       <use xlink:href="#ArialMT-2e" x="55.615234"/>
       <use xlink:href="#ArialMT-30" x="83.398438"/>
      </g>
     </g>
    </g>
    <g id="ytick_2">
     <g id="line2d_12"/>
     <g id="text_7">
      <!-- 2.5 -->
      <g style="fill: #262626" transform="translate(30.51 153.461765) scale(0.1 -0.1)">
       <defs>
        <path id="ArialMT-35" d="M 266 1200 
L 856 1250 
Q 922 819 1161 601 
Q 1400 384 1738 384 
Q 2144 384 2425 690 
Q 2706 997 2706 1503 
Q 2706 1984 2436 2262 
Q 2166 2541 1728 2541 
Q 1456 2541 1237 2417 
Q 1019 2294 894 2097 
L 366 2166 
L 809 4519 
L 3088 4519 
L 3088 3981 
L 1259 3981 
L 1013 2750 
Q 1425 3038 1878 3038 
Q 2478 3038 2890 2622 
Q 3303 2206 3303 1553 
Q 3303 931 2941 478 
Q 2500 -78 1738 -78 
Q 1113 -78 717 272 
Q 322 622 266 1200 
z
" transform="scale(0.015625)"/>
       </defs>
       <use xlink:href="#ArialMT-32"/>
       <use xlink:href="#ArialMT-2e" x="55.615234"/>
       <use xlink:href="#ArialMT-35" x="83.398438"/>
      </g>
     </g>
    </g>
    <g id="ytick_3">
     <g id="line2d_13"/>
     <g id="text_8">
      <!-- 5.0 -->
      <g style="fill: #262626" transform="translate(30.51 129.659294) scale(0.1 -0.1)">
       <use xlink:href="#ArialMT-35"/>
       <use xlink:href="#ArialMT-2e" x="55.615234"/>
       <use xlink:href="#ArialMT-30" x="83.398438"/>
      </g>
     </g>
    </g>
    <g id="ytick_4">
     <g id="line2d_14"/>
     <g id="text_9">
      <!-- 7.5 -->
      <g style="fill: #262626" transform="translate(30.51 105.856824) scale(0.1 -0.1)">
       <defs>
        <path id="ArialMT-37" d="M 303 3981 
L 303 4522 
L 3269 4522 
L 3269 4084 
Q 2831 3619 2401 2847 
Q 1972 2075 1738 1259 
Q 1569 684 1522 0 
L 944 0 
Q 953 541 1156 1306 
Q 1359 2072 1739 2783 
Q 2119 3494 2547 3981 
L 303 3981 
z
" transform="scale(0.015625)"/>
       </defs>
       <use xlink:href="#ArialMT-37"/>
       <use xlink:href="#ArialMT-2e" x="55.615234"/>
       <use xlink:href="#ArialMT-35" x="83.398438"/>
      </g>
     </g>
    </g>
    <g id="ytick_5">
     <g id="line2d_15"/>
     <g id="text_10">
      <!-- 10.0 -->
      <g style="fill: #262626" transform="translate(24.949063 82.054354) scale(0.1 -0.1)">
       <use xlink:href="#ArialMT-31"/>
       <use xlink:href="#ArialMT-30" x="55.615234"/>
       <use xlink:href="#ArialMT-2e" x="111.230469"/>
       <use xlink:href="#ArialMT-30" x="139.013672"/>
      </g>
     </g>
    </g>
    <g id="ytick_6">
     <g id="line2d_16"/>
     <g id="text_11">
      <!-- 12.5 -->
      <g style="fill: #262626" transform="translate(24.949063 58.251883) scale(0.1 -0.1)">
       <use xlink:href="#ArialMT-31"/>
       <use xlink:href="#ArialMT-32" x="55.615234"/>
       <use xlink:href="#ArialMT-2e" x="111.230469"/>
       <use xlink:href="#ArialMT-35" x="139.013672"/>
      </g>
     </g>
    </g>
    <g id="ytick_7">
     <g id="line2d_17"/>
     <g id="text_12">
      <!-- 15.0 -->
      <g style="fill: #262626" transform="translate(24.949063 34.449413) scale(0.1 -0.1)">
       <use xlink:href="#ArialMT-31"/>
       <use xlink:href="#ArialMT-35" x="55.615234"/>
       <use xlink:href="#ArialMT-2e" x="111.230469"/>
       <use xlink:href="#ArialMT-30" x="139.013672"/>
      </g>
     </g>
    </g>
    <g id="text_13">
     <!-- GW -->
     <g style="fill: #262626" transform="translate(18.961563 104.7168) rotate(-90) scale(0.1 -0.1)">
      <defs>
       <path id="ArialMT-47" d="M 2638 1797 
L 2638 2334 
L 4578 2338 
L 4578 638 
Q 4131 281 3656 101 
Q 3181 -78 2681 -78 
Q 2006 -78 1454 211 
Q 903 500 622 1047 
Q 341 1594 341 2269 
Q 341 2938 620 3517 
Q 900 4097 1425 4378 
Q 1950 4659 2634 4659 
Q 3131 4659 3532 4498 
Q 3934 4338 4162 4050 
Q 4391 3763 4509 3300 
L 3963 3150 
Q 3859 3500 3706 3700 
Q 3553 3900 3268 4020 
Q 2984 4141 2638 4141 
Q 2222 4141 1919 4014 
Q 1616 3888 1430 3681 
Q 1244 3475 1141 3228 
Q 966 2803 966 2306 
Q 966 1694 1177 1281 
Q 1388 869 1791 669 
Q 2194 469 2647 469 
Q 3041 469 3416 620 
Q 3791 772 3984 944 
L 3984 1797 
L 2638 1797 
z
" transform="scale(0.015625)"/>
      </defs>
      <use xlink:href="#ArialMT-47"/>
      <use xlink:href="#ArialMT-57" x="77.783203"/>
     </g>
    </g>
   </g>
   <g id="line2d_18">
    <path d="M 58.828571 18.555291 
L 58.953213 42.253928 
L 59.202495 138.62585 
L 59.327136 129.875527 
L 59.451778 139.387533 
L 59.576419 137.639532 
L 59.825701 146.042994 
L 59.950342 148.00741 
L 60.074984 160.020984 
L 60.324266 152.29002 
L 60.448907 116.932132 
L 60.573549 171.138242 
L 60.69819 158.718195 
L 60.822831 119.014201 
L 60.947472 125.191042 
L 61.072114 150.702494 
L 61.196755 132.680191 
L 61.321396 162.456598 
L 61.446037 159.511123 
L 61.570678 170.392018 
L 61.69532 144.727049 
L 61.819961 143.780586 
L 61.944602 120.242047 
L 62.069243 147.575899 
L 62.193885 136.649449 
L 62.318526 112.874763 
L 62.443167 116.412357 
L 62.567808 157.649621 
L 62.692449 129.564013 
L 62.941732 164.55864 
L 63.066373 142.888643 
L 63.191014 141.181958 
L 63.315656 145.930612 
L 63.440297 157.761113 
L 63.689579 133.148352 
L 63.81422 149.816197 
L 63.938862 148.33323 
L 64.063503 149.355193 
L 64.188144 152.219698 
L 64.312785 109.379674 
L 64.686709 155.052381 
L 64.81135 136.771785 
L 65.060633 170.44254 
L 65.309915 141.721072 
L 65.434556 117.34418 
L 65.559198 146.387393 
L 65.683839 145.702783 
L 65.933121 161.93193 
L 66.182404 144.159186 
L 66.431686 157.476135 
L 66.556327 164.239926 
L 66.930251 107.308021 
L 67.054892 172.891167 
L 67.304175 141.199389 
L 67.428816 155.918172 
L 67.553457 153.930956 
L 67.678098 156.127011 
L 68.052022 168.356189 
L 68.176663 147.393738 
L 68.301305 165.149501 
L 68.675228 140.045456 
L 68.924511 163.845581 
L 69.173793 145.940637 
L 69.298434 152.425311 
L 69.423076 151.833301 
L 69.672358 164.092087 
L 69.796999 152.982861 
L 69.921641 155.661065 
L 70.046282 165.430889 
L 70.170923 162.414064 
L 70.295564 154.462862 
L 70.544847 161.670337 
L 70.669488 147.813304 
L 70.794129 153.181852 
L 70.91877 140.862039 
L 71.043412 157.718861 
L 71.168053 158.869902 
L 71.292694 153.693877 
L 71.541977 169.974458 
L 71.791259 144.038832 
L 72.040541 160.188551 
L 72.414465 156.332259 
L 72.663748 147.197866 
L 72.788389 149.832231 
L 72.91303 157.634156 
L 73.162312 159.311856 
L 73.286954 168.668099 
L 73.411595 166.419177 
L 73.536236 151.821893 
L 73.660877 165.611482 
L 73.785519 159.255226 
L 73.91016 160.456883 
L 74.034801 136.103921 
L 74.159442 160.343786 
L 74.284083 153.932131 
L 74.408725 166.374715 
L 74.533366 157.015583 
L 74.658007 165.416567 
L 75.031931 153.60269 
L 75.156572 169.675205 
L 75.405855 148.492677 
L 75.530496 149.493168 
L 75.779778 169.951411 
L 75.904419 157.410589 
L 76.029061 168.125538 
L 76.153702 165.555783 
L 76.278343 158.40295 
L 76.402984 160.051345 
L 76.527626 155.596942 
L 76.652267 165.060092 
L 76.776908 151.802739 
L 77.02619 157.72814 
L 77.150832 149.778809 
L 77.275473 170.451113 
L 77.400114 167.180346 
L 77.524755 152.868927 
L 77.649397 153.448937 
L 77.774038 151.718916 
L 78.02332 170.01871 
L 78.147962 154.491622 
L 78.272603 164.179066 
L 78.397244 157.126973 
L 78.521885 161.52512 
L 78.646526 161.888688 
L 78.771168 166.551116 
L 79.02045 150.132143 
L 79.145091 150.650662 
L 79.269733 166.858474 
L 79.394374 159.689536 
L 79.519015 161.10896 
L 79.768297 166.404808 
L 79.892939 167.901139 
L 80.01758 151.257157 
L 80.266862 168.605513 
L 80.391504 164.858674 
L 80.516145 155.183222 
L 80.765427 169.381495 
L 80.890068 170.831447 
L 81.01471 153.563279 
L 81.139351 167.518214 
L 81.263992 169.00727 
L 81.513275 155.693289 
L 81.637916 162.054559 
L 81.762557 162.052662 
L 81.887198 160.989176 
L 82.01184 171.382323 
L 82.136481 157.577627 
L 82.261122 164.35888 
L 82.385763 163.270103 
L 82.510404 169.552374 
L 82.635046 161.778051 
L 82.884328 171.028932 
L 83.008969 171.974389 
L 83.133611 152.760125 
L 83.382893 166.781366 
L 83.507534 164.658074 
L 83.632175 155.574308 
L 83.881458 165.596105 
L 84.006099 151.116672 
L 84.255382 155.718738 
L 84.380023 157.527386 
L 84.504664 169.52825 
L 84.629305 151.05495 
L 84.878588 163.835723 
L 85.003229 164.22111 
L 85.252511 162.115003 
L 85.377153 160.399104 
L 85.501794 161.285541 
L 85.626435 160.519047 
L 86.000359 170.156586 
L 86.249641 147.264334 
L 86.498924 157.489988 
L 86.623565 151.064697 
L 86.872847 170.669382 
L 86.997489 158.94174 
L 87.12213 169.007725 
L 87.246771 151.165424 
L 87.371412 161.424261 
L 87.620695 156.956697 
L 87.869977 160.438594 
L 87.994618 161.175754 
L 88.11926 153.663124 
L 88.243901 171.182231 
L 88.368542 162.93222 
L 88.493183 163.022899 
L 88.617825 168.014627 
L 88.742466 155.130361 
L 88.991748 160.912831 
L 89.116389 156.243971 
L 89.241031 158.136857 
L 89.490313 166.111727 
L 89.614954 163.028953 
L 89.739596 169.014684 
L 89.864237 168.403141 
L 89.988878 158.189065 
L 90.23816 169.271807 
L 90.362802 164.445196 
L 90.487443 153.260063 
L 90.612084 159.268711 
L 90.736725 159.507006 
L 90.861367 161.560439 
L 90.986008 161.659162 
L 91.110649 157.923472 
L 91.23529 164.39708 
L 91.359932 149.124142 
L 91.484573 147.734397 
L 91.609214 163.484977 
L 91.858496 157.618 
L 91.983138 163.626569 
L 92.23242 149.198175 
L 92.357061 153.084564 
L 92.481703 153.31113 
L 92.606344 171.030252 
L 92.730985 157.775972 
L 92.855626 166.414778 
L 92.980267 166.749523 
L 93.104909 163.061298 
L 93.354191 163.841435 
L 93.478832 167.401216 
L 93.728115 162.41137 
L 93.852756 170.870006 
L 93.977397 159.062224 
L 94.102038 172.12407 
L 94.22668 163.916829 
L 94.351321 163.514272 
L 94.600603 152.423795 
L 94.725245 165.799502 
L 94.974527 159.899775 
L 95.099168 173.387788 
L 95.22381 154.384731 
L 95.348451 162.494162 
L 95.473092 161.224361 
L 95.597733 163.640216 
L 95.722374 152.571094 
L 96.096298 165.458618 
L 96.220939 134.507795 
L 96.345581 163.501563 
L 96.470222 162.932164 
L 96.719504 172.079229 
L 97.093428 156.616085 
L 97.34271 168.041583 
L 97.716634 140.491114 
L 97.841275 141.845244 
L 98.090558 164.101264 
L 98.215199 167.665901 
L 98.33984 151.902088 
L 98.464481 165.618258 
L 98.589123 147.27345 
L 98.713764 149.427231 
L 98.838405 141.778332 
L 98.963046 164.499162 
L 99.087688 152.805488 
L 99.33697 158.923497 
L 99.586252 150.560218 
L 99.710894 167.644741 
L 99.835535 160.693053 
L 99.960176 166.409567 
L 100.458741 154.956377 
L 100.583382 172.128122 
L 100.832665 131.064749 
L 100.957306 157.570598 
L 101.081947 151.939171 
L 101.206588 141.176051 
L 101.33123 159.799185 
L 101.455871 155.166863 
L 101.580512 170.022654 
L 101.705153 158.738436 
L 101.829795 161.483113 
L 101.954436 144.015044 
L 102.079077 150.976082 
L 102.328359 136.862285 
L 102.453001 166.564083 
L 102.577642 166.930709 
L 102.702283 148.295639 
L 102.826924 150.465642 
L 102.951566 160.146033 
L 103.076207 156.83124 
L 103.200848 163.396084 
L 103.325489 161.865338 
L 103.45013 150.553513 
L 103.824054 166.875463 
L 103.948695 137.263758 
L 104.073337 159.170739 
L 104.322619 70.693911 
L 104.44726 69.483583 
L 104.696543 156.388882 
L 104.945825 132.799373 
L 105.070466 158.514021 
L 105.195108 149.941095 
L 105.319749 168.465182 
L 105.44439 139.614006 
L 105.569031 169.879028 
L 105.693673 158.926642 
L 105.818314 163.229536 
L 105.942955 150.59457 
L 106.067596 157.96437 
L 106.192237 156.702965 
L 106.44152 140.72067 
L 106.566161 165.903611 
L 106.690802 147.357956 
L 106.815444 165.182696 
L 107.064726 167.0718 
L 107.43865 153.255651 
L 107.563291 162.418929 
L 107.687932 145.301223 
L 107.812573 145.975223 
L 107.937215 149.039132 
L 108.061856 165.78604 
L 108.186497 135.339755 
L 108.311138 162.751081 
L 108.43578 160.07838 
L 108.560421 163.439892 
L 108.685062 143.79858 
L 108.934344 162.318991 
L 109.058986 145.456167 
L 109.183627 146.040423 
L 109.308268 164.107858 
L 109.557551 161.627579 
L 109.931474 143.259075 
L 110.056115 160.25216 
L 110.180757 158.870565 
L 110.305398 149.28627 
L 110.430039 150.250104 
L 110.55468 172.2862 
L 110.803963 145.148328 
L 110.928604 147.479525 
L 111.177886 164.50706 
L 111.302528 161.619575 
L 111.427169 170.107145 
L 111.55181 159.446528 
L 111.676451 163.269279 
L 111.801093 153.041186 
L 111.925734 170.009248 
L 112.175016 158.474767 
L 112.299658 161.997986 
L 112.424299 149.592947 
L 112.54894 159.668877 
L 112.673581 158.433115 
L 112.798222 163.037059 
L 112.922864 162.699306 
L 113.172146 157.838816 
L 113.296787 159.408032 
L 113.421429 162.445349 
L 113.54607 162.212052 
L 113.670711 156.276521 
L 113.919993 165.224637 
L 114.169276 154.084596 
L 114.418558 170.358806 
L 114.5432 167.678809 
L 114.667841 160.786559 
L 114.792482 168.760581 
L 114.917123 159.497569 
L 115.041765 164.216094 
L 115.166406 163.897542 
L 115.291047 168.024986 
L 115.415688 163.44659 
L 115.540329 167.712296 
L 115.664971 154.580361 
L 115.789612 164.529981 
L 115.914253 162.077283 
L 116.038894 169.647277 
L 116.163536 165.290625 
L 116.288177 164.834908 
L 116.412818 157.693147 
L 116.6621 166.412596 
L 116.786742 166.761194 
L 116.911383 164.316981 
L 117.036024 170.093766 
L 117.160665 158.400905 
L 117.285307 162.928312 
L 117.409948 163.326008 
L 117.65923 171.185447 
L 117.783871 156.012859 
L 117.908513 167.208338 
L 118.033154 150.734156 
L 118.157795 163.762955 
L 118.407078 156.974965 
L 118.531719 169.10423 
L 118.65636 168.05094 
L 118.781001 168.212366 
L 118.905643 162.872003 
L 119.030284 165.175807 
L 119.154925 172.559053 
L 119.279566 163.240829 
L 119.404207 167.429558 
L 119.528849 152.749517 
L 119.65349 168.451954 
L 119.778131 165.283236 
L 119.902772 168.505587 
L 120.027414 167.568095 
L 120.152055 172.089252 
L 120.276696 165.782102 
L 120.401337 166.689707 
L 120.65062 173.218266 
L 120.775261 164.461709 
L 120.899902 164.199753 
L 121.024543 167.698284 
L 121.273826 165.742062 
L 121.398467 162.187534 
L 121.64775 167.074501 
L 121.772391 165.842833 
L 121.897032 170.705059 
L 122.021673 161.163467 
L 122.146314 165.247668 
L 122.270956 162.79997 
L 122.395597 164.130187 
L 122.520238 166.675926 
L 122.644879 160.134795 
L 122.769521 166.948319 
L 122.894162 163.938846 
L 123.018803 157.048779 
L 123.143444 168.073786 
L 123.268085 158.294728 
L 123.392727 171.602865 
L 123.642009 164.388493 
L 123.891292 157.218726 
L 124.265215 170.523693 
L 124.389856 160.353648 
L 124.514498 165.477847 
L 124.639139 159.029074 
L 124.888421 168.949548 
L 125.013063 171.264897 
L 125.137704 166.075794 
L 125.262345 171.341186 
L 125.386986 167.380428 
L 125.511628 156.183478 
L 125.636269 168.480901 
L 125.76091 167.89001 
L 126.010192 161.340909 
L 126.259475 168.607653 
L 126.508757 158.960594 
L 126.633399 172.336973 
L 126.75804 166.267321 
L 126.882681 171.52801 
L 127.131963 165.553379 
L 127.256605 171.124889 
L 127.381246 167.03053 
L 127.505887 171.992383 
L 127.75517 162.991009 
L 128.004452 168.84309 
L 128.129093 162.936372 
L 128.253735 172.650297 
L 128.627658 162.405855 
L 128.876941 170.889304 
L 129.126223 164.658252 
L 129.250864 170.888298 
L 129.375506 169.002411 
L 129.500147 164.794483 
L 129.624788 168.81581 
L 129.749429 160.852222 
L 129.998712 167.62808 
L 130.123353 164.421339 
L 130.247994 156.55595 
L 130.497277 171.554359 
L 130.746559 161.865639 
L 130.8712 167.537706 
L 131.120483 163.679471 
L 131.369765 170.244178 
L 131.619048 161.952461 
L 131.743689 162.246331 
L 132.117613 160.598852 
L 132.242254 170.758797 
L 132.491536 163.379018 
L 132.616177 164.314892 
L 132.740819 164.290035 
L 132.86546 169.408933 
L 132.990101 168.541534 
L 133.114742 169.648713 
L 133.239384 169.562193 
L 133.364025 172.00316 
L 133.613307 166.077133 
L 133.737948 169.615601 
L 133.86259 167.503239 
L 133.987231 171.198514 
L 134.111872 167.495805 
L 134.236513 170.092259 
L 134.361155 167.120293 
L 134.485796 166.982543 
L 134.610437 166.278489 
L 134.984361 171.857594 
L 135.233643 166.679209 
L 135.358284 170.140839 
L 135.482926 163.887767 
L 135.607567 170.553709 
L 135.732208 164.647578 
L 135.856849 169.454379 
L 135.981491 163.050562 
L 136.106132 163.857568 
L 136.230773 169.723807 
L 136.355414 168.241736 
L 136.480055 171.160148 
L 136.729338 165.50474 
L 136.853979 167.789499 
L 136.97862 162.761063 
L 137.103262 169.234605 
L 137.227903 168.151662 
L 137.352544 170.850675 
L 137.477185 164.866044 
L 137.601826 168.075545 
L 137.726468 162.348944 
L 137.851109 163.302361 
L 137.97575 170.32787 
L 138.100391 166.963708 
L 138.225033 171.99612 
L 138.598956 165.963501 
L 138.848239 171.4575 
L 138.97288 171.761569 
L 139.097521 169.924714 
L 139.222162 163.80497 
L 139.346804 172.167234 
L 139.596086 165.754919 
L 139.845369 172.703237 
L 139.97001 160.34742 
L 140.094651 163.678916 
L 140.219292 161.407227 
L 140.468575 167.297747 
L 140.717857 165.577096 
L 140.842498 170.942029 
L 141.091781 169.24969 
L 141.216422 172.176379 
L 141.465705 166.366466 
L 141.590346 168.706417 
L 141.714987 168.61731 
L 141.839628 170.133993 
L 141.964269 169.066533 
L 142.088911 166.903875 
L 142.213552 168.812658 
L 142.338193 160.257073 
L 142.462834 172.427143 
L 142.712117 164.32836 
L 142.836758 170.812339 
L 142.961399 164.825019 
L 143.08604 170.106214 
L 143.210682 168.706272 
L 143.335323 156.469154 
L 143.459964 171.312228 
L 143.584605 171.043271 
L 143.709247 173.203595 
L 143.833888 164.383266 
L 143.958529 172.493447 
L 144.332453 158.044302 
L 144.581735 165.230857 
L 144.706376 169.293699 
L 144.831018 163.077762 
L 144.955659 165.303126 
L 145.0803 158.731724 
L 145.204941 166.996004 
L 145.454224 163.268234 
L 145.578865 161.267492 
L 145.703506 170.462556 
L 145.828147 169.865523 
L 145.952789 167.544573 
L 146.07743 167.838267 
L 146.202071 165.620564 
L 146.326712 167.083449 
L 146.451354 161.595767 
L 146.575995 170.976116 
L 146.700636 165.319871 
L 146.825277 168.483749 
L 147.07456 162.353956 
L 147.199201 169.48084 
L 147.323842 167.710769 
L 147.448483 156.251162 
L 147.573125 161.640146 
L 147.697766 159.053862 
L 147.822407 159.642555 
L 147.947048 169.217458 
L 148.071689 169.964777 
L 148.196331 165.491645 
L 148.320972 168.269258 
L 148.445613 168.321856 
L 148.570254 166.01044 
L 148.694896 155.884592 
L 148.944178 163.73802 
L 149.068819 160.635264 
L 149.193461 153.792125 
L 149.318102 165.064951 
L 149.442743 156.512236 
L 149.567384 167.761338 
L 149.816667 110.771739 
L 150.065949 164.202464 
L 150.19059 161.963724 
L 150.315232 163.894139 
L 150.439873 158.652025 
L 150.564514 166.268898 
L 150.813796 158.729991 
L 151.063079 166.962452 
L 151.18772 168.894137 
L 151.312361 164.535553 
L 151.437003 169.545868 
L 151.561644 168.459283 
L 151.810926 161.507351 
L 151.935568 161.232985 
L 152.060209 162.906448 
L 152.18485 160.639558 
L 152.309491 165.905426 
L 152.434132 164.089167 
L 152.558774 168.601783 
L 152.932697 158.050506 
L 153.057339 169.146232 
L 153.306621 163.892241 
L 153.431262 163.843754 
L 153.555903 166.719081 
L 153.680545 162.90004 
L 153.805186 168.755091 
L 153.929827 161.2833 
L 154.17911 166.81347 
L 154.303751 170.098392 
L 154.553033 160.912564 
L 154.677674 160.021729 
L 154.802316 166.964268 
L 154.926957 166.830474 
L 155.051598 168.831055 
L 155.176239 167.960574 
L 155.300881 165.913422 
L 155.550163 171.942717 
L 155.924087 164.48468 
L 156.048728 171.678347 
L 156.173369 158.724016 
L 156.29801 157.81992 
L 156.422652 166.442942 
L 156.547293 164.442214 
L 156.796575 171.146851 
L 156.921217 165.315972 
L 157.045858 166.6402 
L 157.170499 172.048938 
L 157.29514 168.064524 
L 157.419781 168.754018 
L 157.544423 170.130742 
L 157.669064 165.584521 
L 157.918346 167.858042 
L 158.167629 165.706976 
L 158.29227 160.846631 
L 158.541553 172.249598 
L 158.666194 159.313465 
L 158.790835 164.123773 
L 158.915476 161.060506 
L 159.040117 168.217122 
L 159.164759 167.354106 
L 159.2894 167.751264 
L 159.414041 167.743036 
L 159.538682 169.749009 
L 159.663324 165.668369 
L 159.787965 165.421392 
L 159.912606 166.214512 
L 160.037247 163.74654 
L 160.161888 164.907866 
L 160.28653 162.551124 
L 160.411171 167.264882 
L 160.535812 167.503366 
L 160.660453 168.874687 
L 160.785095 167.406018 
L 160.909736 168.787625 
L 161.034377 164.436511 
L 161.283659 168.412538 
L 161.408301 163.168465 
L 161.657583 171.329705 
L 161.906866 165.557968 
L 162.031507 167.880063 
L 162.156148 167.990573 
L 162.280789 163.815072 
L 162.405431 165.760951 
L 162.530072 171.525934 
L 162.779354 160.8607 
L 162.903995 170.508198 
L 163.028637 167.557885 
L 163.153278 169.489594 
L 163.277919 163.605805 
L 163.40256 168.89978 
L 163.527202 166.699946 
L 163.651843 171.443081 
L 163.901125 168.72675 
L 164.025766 170.991457 
L 164.150408 170.429728 
L 164.275049 169.137817 
L 164.39969 162.767672 
L 164.524331 166.844563 
L 164.648973 166.042079 
L 164.773614 169.870146 
L 164.898255 168.766698 
L 165.022896 163.921315 
L 165.147538 170.245798 
L 165.272179 169.157739 
L 165.39682 165.498219 
L 165.521461 173.194589 
L 165.770744 167.69208 
L 166.020026 172.999817 
L 166.269309 170.524382 
L 166.39395 170.458229 
L 166.518591 170.093818 
L 167.017156 162.672069 
L 167.141797 167.116811 
L 167.266438 165.630164 
L 167.39108 170.697228 
L 167.515721 163.886464 
L 167.640362 171.966933 
L 167.765003 165.814968 
L 167.889644 166.510579 
L 168.014286 169.449656 
L 168.138927 167.598374 
L 168.263568 172.127696 
L 168.512851 166.719359 
L 168.637492 172.258612 
L 168.762133 165.082188 
L 169.011416 171.360945 
L 169.260698 168.454152 
L 169.50998 164.344994 
L 169.759263 172.155702 
L 169.883904 165.761551 
L 170.008545 170.250441 
L 170.133187 168.298987 
L 170.257828 170.111712 
L 170.382469 169.233909 
L 170.50711 169.609312 
L 170.631751 170.595908 
L 170.756393 172.999626 
L 170.881034 172.038948 
L 171.005675 164.301127 
L 171.254958 173.395328 
L 171.379599 168.734208 
L 171.50424 171.136617 
L 171.628881 170.408025 
L 171.753523 170.7487 
L 171.878164 171.623115 
L 172.002805 171.297722 
L 172.252087 167.540412 
L 172.376729 168.486281 
L 172.50137 168.549259 
L 172.626011 166.230147 
L 172.750652 172.484397 
L 172.875294 172.614189 
L 172.999935 169.955273 
L 173.124576 172.037947 
L 173.249217 166.64995 
L 173.373858 170.126359 
L 173.4985 163.998559 
L 173.747782 170.258703 
L 173.997065 168.449087 
L 174.121706 164.966967 
L 174.370988 170.999212 
L 174.620271 168.98381 
L 174.744912 172.102555 
L 174.869553 168.078016 
L 175.118836 169.392351 
L 175.243477 166.446967 
L 175.368118 170.825581 
L 175.492759 170.93913 
L 175.866683 163.681343 
L 175.991324 168.241609 
L 176.115965 168.496665 
L 176.240607 166.772185 
L 176.365248 171.24161 
L 176.489889 163.853038 
L 176.739172 169.901402 
L 176.863813 172.586725 
L 176.988454 171.615441 
L 177.113095 168.900785 
L 177.237736 170.935739 
L 177.487019 165.466582 
L 177.736301 170.093463 
L 177.860943 169.862586 
L 177.985584 170.569333 
L 178.234866 166.289857 
L 178.359508 168.138313 
L 178.484149 172.535702 
L 178.60879 172.515201 
L 178.733431 170.062243 
L 178.858072 170.952192 
L 178.982714 170.44177 
L 179.107355 172.146593 
L 179.231996 170.234591 
L 179.356637 170.995172 
L 179.60592 167.810821 
L 179.730561 168.376284 
L 179.979843 170.288722 
L 180.104485 165.340939 
L 180.353767 170.785277 
L 180.478408 172.565037 
L 180.60305 165.955091 
L 180.852332 173.315972 
L 180.976973 169.093686 
L 181.101614 169.277739 
L 181.226256 170.334555 
L 181.475538 167.451295 
L 181.600179 167.30908 
L 181.724821 166.231936 
L 181.974103 170.491906 
L 182.098744 167.734751 
L 182.223386 170.287386 
L 182.348027 167.806255 
L 182.472668 167.66242 
L 182.597309 173.014529 
L 182.72195 169.644771 
L 182.846592 170.780423 
L 182.971233 170.590671 
L 183.095874 165.647506 
L 183.345157 171.062784 
L 183.469798 172.407608 
L 183.594439 172.456166 
L 183.71908 167.061432 
L 183.843721 168.035344 
L 183.968363 166.814765 
L 184.093004 163.108023 
L 184.217645 172.72586 
L 184.342286 168.794364 
L 184.466928 171.527179 
L 184.591569 166.980705 
L 184.840851 172.750672 
L 184.965492 167.212604 
L 185.090134 168.367598 
L 185.339416 173.425699 
L 185.464057 168.455009 
L 185.588699 172.255451 
L 185.71334 166.244326 
L 185.837981 166.086568 
L 185.962622 169.709664 
L 186.087264 165.414842 
L 186.211905 167.394103 
L 186.336546 166.30513 
L 186.461187 170.283136 
L 186.585828 167.973093 
L 186.71047 167.895756 
L 186.959752 172.590027 
L 187.084393 163.579419 
L 187.333676 173.423734 
L 187.458317 171.711459 
L 187.707599 166.627789 
L 187.832241 166.881019 
L 187.956882 170.937781 
L 188.206164 167.742052 
L 188.455447 171.429436 
L 188.580088 166.83958 
L 188.704729 171.197693 
L 188.829371 167.468129 
L 188.954012 172.816485 
L 189.078653 169.105296 
L 189.203294 170.370577 
L 189.327935 166.094337 
L 189.452577 172.152182 
L 189.577218 170.790929 
L 189.701859 172.29686 
L 189.8265 166.269195 
L 190.075783 172.561056 
L 190.200424 172.069073 
L 190.449706 169.14854 
L 190.574348 169.980934 
L 190.698989 169.978382 
L 190.82363 170.71809 
L 190.948271 170.446323 
L 191.072913 171.095165 
L 191.197554 170.340014 
L 191.322195 170.670308 
L 191.446836 171.688211 
L 191.571477 169.239167 
L 191.696119 169.742884 
L 191.82076 171.024068 
L 191.945401 169.324971 
L 192.070042 171.71761 
L 192.319325 166.132813 
L 192.443966 170.397155 
L 192.568607 170.783115 
L 192.81789 168.575816 
L 192.942531 170.681612 
L 193.067172 170.494929 
L 193.191813 169.621772 
L 193.316455 163.685838 
L 193.441096 172.828445 
L 193.565737 168.356631 
L 193.690378 172.334344 
L 193.81502 169.813626 
L 193.939661 169.686774 
L 194.064302 171.404508 
L 194.188943 162.542051 
L 194.313584 165.058866 
L 194.562867 171.596661 
L 194.687508 166.450509 
L 194.812149 167.650183 
L 194.936791 167.249634 
L 195.061432 168.784067 
L 195.186073 161.198291 
L 195.310714 143.659214 
L 195.435356 150.80479 
L 195.684638 171.544457 
L 195.809279 169.433997 
L 195.93392 165.378774 
L 196.058562 167.17652 
L 196.183203 171.614647 
L 196.307844 171.575013 
L 196.432485 166.35038 
L 196.557127 172.087681 
L 196.806409 166.560363 
L 196.93105 168.135897 
L 197.055691 168.263762 
L 197.180333 167.25738 
L 197.304974 171.968991 
L 197.429615 164.809842 
L 197.678898 171.36953 
L 197.803539 171.58442 
L 197.92818 166.537222 
L 198.052821 170.407942 
L 198.177462 169.934822 
L 198.426745 172.415808 
L 198.551386 169.838395 
L 198.676027 170.237185 
L 198.800669 168.505745 
L 198.92531 171.252894 
L 199.174592 167.600635 
L 199.299234 172.110161 
L 199.423875 167.900335 
L 199.548516 169.934469 
L 199.673157 169.124885 
L 199.797798 169.219636 
L 200.047081 168.26857 
L 200.421005 171.247211 
L 200.545646 170.153819 
L 200.670287 172.713655 
L 200.794928 166.662467 
L 200.919569 170.913339 
L 201.168852 168.475976 
L 201.293493 168.091433 
L 201.418134 171.653968 
L 201.542776 169.099831 
L 201.667417 173.133006 
L 201.792058 165.35712 
L 201.916699 170.580085 
L 202.165982 170.835076 
L 202.290623 170.274814 
L 202.539905 166.6632 
L 202.664547 172.355052 
L 202.913829 168.842202 
L 203.03847 173.269416 
L 203.163112 168.913878 
L 203.287753 168.869116 
L 203.537035 172.357867 
L 203.661676 168.596324 
L 203.910959 172.254233 
L 204.0356 169.619357 
L 204.160241 171.277523 
L 204.284883 171.330953 
L 204.534165 169.388589 
L 204.658806 165.997027 
L 204.783447 170.188395 
L 204.908089 166.788098 
L 205.03273 167.526562 
L 205.157371 171.642753 
L 205.282012 171.689311 
L 205.531295 167.619441 
L 205.655936 170.743572 
L 205.780577 168.891323 
L 205.905219 170.307667 
L 206.02986 165.306232 
L 206.279142 172.293425 
L 206.403783 170.942421 
L 206.528425 163.690363 
L 206.653066 170.9313 
L 206.777707 169.477243 
L 207.02699 172.008915 
L 207.276272 168.047369 
L 207.400913 169.992104 
L 207.525554 169.770396 
L 207.650196 166.604033 
L 207.774837 170.370547 
L 207.899478 166.300731 
L 208.024119 169.261473 
L 208.148761 165.985753 
L 208.273402 167.537203 
L 208.398043 166.560979 
L 208.522684 171.805612 
L 208.771967 167.782743 
L 208.896608 168.797002 
L 209.021249 168.278278 
L 209.395173 172.953952 
L 209.519814 168.770442 
L 209.644455 171.809976 
L 209.893738 172.433135 
L 210.018379 169.582858 
L 210.14302 172.045625 
L 210.267661 170.123358 
L 210.392303 171.540531 
L 210.641585 170.455523 
L 210.766226 171.927464 
L 210.890868 168.652097 
L 211.015509 171.723206 
L 211.14015 170.068851 
L 211.264791 173.387319 
L 211.389432 173.086848 
L 211.514074 170.546304 
L 211.638715 172.929902 
L 211.763356 170.8271 
L 211.887997 172.016164 
L 212.012639 169.450404 
L 212.261921 172.724014 
L 212.511204 169.951138 
L 212.635845 170.104749 
L 212.760486 173.037024 
L 212.885127 170.41913 
L 213.009768 170.680423 
L 213.13441 170.097361 
L 213.259051 172.296913 
L 213.508333 169.411639 
L 213.757616 171.926316 
L 213.882257 171.153022 
L 214.006898 172.400341 
L 214.131539 167.693838 
L 214.256181 172.475798 
L 214.380822 170.425404 
L 214.505463 173.058433 
L 214.630104 170.631436 
L 214.754746 170.801722 
L 214.879387 171.507221 
L 215.004028 167.734236 
L 215.128669 173.170418 
L 215.377952 170.479456 
L 215.627234 171.046851 
L 215.751875 170.988153 
L 215.876517 170.706303 
L 216.001158 167.547146 
L 216.25044 170.364532 
L 216.375082 169.592623 
L 216.624364 172.850286 
L 216.749005 170.684507 
L 216.873646 170.811006 
L 216.998288 170.730659 
L 217.122929 170.192922 
L 217.372211 171.775174 
L 217.621494 168.52263 
L 217.746135 170.917354 
L 217.995417 169.253105 
L 218.120059 165.806288 
L 218.2447 172.63591 
L 218.369341 169.962406 
L 218.493982 173.265002 
L 218.743265 171.112296 
L 218.867906 170.472457 
L 218.992547 167.356202 
L 219.117189 171.016098 
L 219.24183 170.931272 
L 219.366471 171.230959 
L 219.491112 170.390726 
L 219.615753 168.441058 
L 219.740395 172.061266 
L 219.865036 171.629857 
L 219.989677 170.465051 
L 220.114318 167.549174 
L 220.488242 172.364966 
L 220.612883 172.548701 
L 220.737524 166.647117 
L 220.986807 172.333918 
L 221.111448 172.37937 
L 221.360731 167.43834 
L 221.485372 170.72124 
L 221.610013 169.215161 
L 221.734654 169.210642 
L 221.859295 171.151228 
L 221.983937 169.372934 
L 222.108578 171.276902 
L 222.233219 170.043612 
L 222.35786 172.249843 
L 222.607143 170.317714 
L 222.731784 172.100282 
L 222.981067 167.956616 
L 223.230349 171.333815 
L 223.35499 171.246882 
L 223.479631 170.370157 
L 223.853555 173.256548 
L 224.102838 172.380041 
L 224.227479 168.387964 
L 224.35212 171.876405 
L 224.601402 171.034758 
L 224.726044 172.922854 
L 224.850685 169.904835 
L 224.975326 173.325531 
L 225.099967 170.518321 
L 225.224609 171.337332 
L 225.473891 170.003487 
L 225.598532 169.245442 
L 225.847815 171.810379 
L 225.972456 170.669282 
L 226.097097 171.063378 
L 226.221738 167.216243 
L 226.34638 171.638123 
L 226.720303 168.790638 
L 226.844945 169.336969 
L 226.969586 169.29855 
L 227.094227 170.793095 
L 227.218868 170.923417 
L 227.343509 167.579593 
L 227.468151 171.08881 
L 227.592792 171.423496 
L 227.717433 169.008007 
L 227.842074 171.349212 
L 227.966716 168.670013 
L 228.091357 171.300436 
L 228.215998 168.253622 
L 228.340639 170.024832 
L 228.46528 168.567327 
L 228.589922 170.372325 
L 228.714563 170.407624 
L 228.839204 170.886823 
L 228.963845 172.600381 
L 229.213128 170.004499 
L 229.337769 170.849132 
L 229.46241 168.1518 
L 229.587052 172.264124 
L 229.711693 172.400576 
L 229.836334 172.192521 
L 229.960975 173.412497 
L 230.334899 167.248337 
L 230.45954 171.385193 
L 230.584181 168.096356 
L 230.708823 169.396694 
L 230.833464 172.857257 
L 231.082746 168.187398 
L 231.332029 171.186989 
L 231.45667 168.89871 
L 231.830594 171.204483 
L 231.955235 171.112354 
L 232.079876 171.038896 
L 232.204517 169.044445 
L 232.329159 170.206241 
L 232.4538 167.94808 
L 232.578441 168.404877 
L 232.703082 168.132927 
L 232.827723 170.990889 
L 233.077006 169.271282 
L 233.201647 169.618357 
L 233.326288 169.585427 
L 233.45093 169.734433 
L 233.575571 171.821519 
L 233.700212 169.806979 
L 233.949494 172.244422 
L 234.198777 168.634355 
L 234.323418 168.879141 
L 234.448059 170.6372 
L 234.697342 169.197402 
L 234.821983 168.285784 
L 234.946624 171.687839 
L 235.071265 168.941814 
L 235.195907 170.768276 
L 235.320548 167.453903 
L 235.56983 171.514964 
L 235.694472 170.649299 
L 235.819113 166.198901 
L 235.943754 168.150408 
L 236.068395 167.268728 
L 236.193037 172.479301 
L 236.317678 169.513412 
L 236.442319 173.407818 
L 236.691601 171.26193 
L 236.816243 166.723532 
L 236.940884 170.312586 
L 237.065525 169.933009 
L 237.190166 167.452871 
L 237.314808 172.379281 
L 237.439449 169.488935 
L 237.56409 171.476038 
L 237.813372 166.642028 
L 238.062655 171.348708 
L 238.187296 167.87021 
L 238.311937 170.968997 
L 238.436579 170.306096 
L 238.56122 170.305135 
L 238.810502 168.678606 
L 238.935144 170.974551 
L 239.059785 169.141387 
L 239.309067 170.935144 
L 239.55835 173.147468 
L 239.682991 161.919269 
L 239.932273 168.448816 
L 240.056915 169.543377 
L 240.181556 165.429944 
L 240.306197 170.621123 
L 240.430838 165.600338 
L 240.555479 166.078932 
L 240.680121 164.230476 
L 240.929403 150.969349 
L 241.054044 171.298706 
L 241.178686 171.247502 
L 241.303327 170.826659 
L 241.427968 165.40177 
L 241.552609 173.294713 
L 241.67725 166.263804 
L 241.801892 169.934273 
L 241.926533 169.148157 
L 242.051174 169.198981 
L 242.175815 170.712646 
L 242.300457 165.195134 
L 242.549739 172.144972 
L 242.67438 169.565776 
L 242.799022 170.788922 
L 242.923663 169.6006 
L 243.048304 171.013056 
L 243.172945 168.762745 
L 243.297586 169.842915 
L 243.422228 167.817132 
L 243.546869 171.137509 
L 243.67151 164.127116 
L 243.796151 171.021566 
L 243.920793 169.454499 
L 244.045434 173.296527 
L 244.170075 172.104738 
L 244.294716 166.981411 
L 244.419357 166.882479 
L 244.543999 170.84666 
L 244.66864 168.46089 
L 244.793281 173.105603 
L 245.042564 169.376338 
L 245.167205 168.783598 
L 245.291846 171.907173 
L 245.416487 166.277389 
L 245.541129 169.77541 
L 245.66577 166.929548 
L 245.915052 172.170433 
L 246.039693 171.535931 
L 246.288976 169.228244 
L 246.413617 171.044723 
L 246.538258 168.971196 
L 246.6629 172.59428 
L 246.787541 172.923231 
L 246.912182 170.212143 
L 247.036823 171.38456 
L 247.161464 167.844222 
L 247.286106 168.794377 
L 247.410747 166.113189 
L 247.660029 171.627504 
L 247.784671 168.991713 
L 248.033953 171.718604 
L 248.283235 169.974942 
L 248.407877 171.489989 
L 248.532518 169.876048 
L 248.657159 170.125005 
L 248.7818 170.778802 
L 249.031083 169.290322 
L 249.155724 170.171372 
L 249.280365 171.955071 
L 249.405007 170.110051 
L 249.529648 171.867934 
L 249.654289 170.219867 
L 249.903571 170.1537 
L 250.028213 172.694167 
L 250.152854 171.736796 
L 250.402136 167.874218 
L 250.526778 172.56261 
L 250.651419 168.642665 
L 250.77606 169.611591 
L 250.900701 168.769303 
L 251.025342 172.638993 
L 251.149984 167.980727 
L 251.274625 169.183477 
L 251.399266 172.355033 
L 251.523907 170.104996 
L 251.77319 170.941388 
L 251.897831 168.469551 
L 252.022472 168.368103 
L 252.147114 171.862344 
L 252.271755 168.494268 
L 252.396396 171.159277 
L 252.521037 171.125619 
L 252.645678 170.907794 
L 252.77032 169.811014 
L 252.894961 171.840202 
L 253.019602 170.790834 
L 253.144243 167.028271 
L 253.518167 172.687422 
L 253.767449 168.907577 
L 254.141373 173.24989 
L 254.390656 171.360728 
L 254.515297 172.211919 
L 254.639938 170.968612 
L 254.764579 171.923545 
L 254.88922 171.017508 
L 255.138503 172.15173 
L 255.263144 169.810449 
L 255.512427 172.521772 
L 255.637068 170.773946 
L 255.761709 172.264201 
L 255.88635 171.871597 
L 256.010992 171.916797 
L 256.260274 170.583747 
L 256.384915 171.090178 
L 256.509556 170.423818 
L 256.758839 172.174482 
L 256.88348 172.260609 
L 257.008121 171.478514 
L 257.132763 171.65866 
L 257.257404 170.837354 
L 257.382045 172.352213 
L 257.506686 169.9822 
L 257.631327 172.117411 
L 257.755969 171.894533 
L 258.005251 169.167488 
L 258.129892 172.11173 
L 258.254534 169.913558 
L 258.379175 170.664896 
L 258.503816 173.176275 
L 258.628457 170.067324 
L 258.753098 170.422233 
L 258.87774 171.578995 
L 259.127022 170.125192 
L 259.251663 172.346456 
L 259.500946 171.336421 
L 259.625587 172.932163 
L 259.750228 172.206398 
L 259.87487 169.872452 
L 259.999511 169.892793 
L 260.124152 169.755656 
L 260.248793 170.597027 
L 260.373434 169.064126 
L 260.622717 171.459436 
L 260.747358 171.14414 
L 260.871999 172.358898 
L 260.996641 169.805394 
L 261.245923 173.070905 
L 261.370564 169.055546 
L 261.619847 173.094212 
L 261.744488 172.802683 
L 261.869129 171.093875 
L 261.99377 171.510341 
L 262.118412 172.463751 
L 262.243053 170.3846 
L 262.367694 171.340874 
L 262.492335 170.564189 
L 262.616977 168.896142 
L 262.9909 173.301683 
L 263.240183 171.520894 
L 263.364824 168.894973 
L 263.489465 170.30511 
L 263.614106 169.873847 
L 263.738748 170.688112 
L 263.863389 172.364055 
L 263.98803 172.396822 
L 264.112671 172.083841 
L 264.237312 170.547196 
L 264.361954 173.320363 
L 264.486595 168.270481 
L 264.611236 169.452717 
L 264.735877 172.523004 
L 264.860519 172.455178 
L 264.98516 169.714286 
L 265.359083 171.176341 
L 265.608366 170.53318 
L 265.733007 170.916422 
L 265.857648 170.625045 
L 266.106931 171.595043 
L 266.231572 170.432473 
L 266.480855 172.446543 
L 266.605496 172.215779 
L 266.854778 168.707216 
L 266.979419 171.270635 
L 267.104061 171.029423 
L 267.228702 171.675302 
L 267.353343 167.179011 
L 267.477984 170.937307 
L 267.851908 171.966513 
L 267.976549 173.307 
L 268.10119 171.336318 
L 268.225832 171.903208 
L 268.350473 168.198488 
L 268.475114 170.400691 
L 268.599755 168.070008 
L 268.724397 172.861509 
L 268.849038 171.958974 
L 268.973679 171.903244 
L 269.09832 172.026594 
L 269.222962 171.600614 
L 269.347603 172.383279 
L 269.472244 170.098182 
L 269.596885 172.748426 
L 269.721526 170.833182 
L 269.846168 171.308824 
L 269.970809 170.306151 
L 270.09545 172.942493 
L 270.220091 171.250197 
L 270.344733 171.572258 
L 270.469374 170.811875 
L 270.594015 169.350801 
L 270.843297 170.372269 
L 270.967939 172.713867 
L 271.09258 170.142382 
L 271.341862 171.923714 
L 271.591145 170.923102 
L 271.715786 171.624633 
L 271.840427 170.581618 
L 272.08971 172.066528 
L 272.214351 170.10174 
L 272.463633 172.267 
L 272.588275 171.368249 
L 272.712916 169.221578 
L 272.837557 171.289014 
L 272.962198 171.31561 
L 273.211481 171.56093 
L 273.336122 171.167873 
L 273.460763 171.439062 
L 273.585404 172.775125 
L 273.710046 171.972431 
L 273.959328 168.891713 
L 274.208611 173.183404 
L 274.333252 170.890173 
L 274.582534 173.404986 
L 274.707175 172.507014 
L 274.956458 168.957539 
L 275.081099 171.451481 
L 275.20574 171.618575 
L 275.330382 172.50159 
L 275.455023 169.66532 
L 275.579664 170.251061 
L 275.704305 169.493336 
L 275.953588 171.225373 
L 276.20287 170.54529 
L 276.327511 172.715884 
L 276.452153 171.968528 
L 276.576794 170.293641 
L 276.701435 171.824881 
L 276.826076 171.061272 
L 276.950718 171.116984 
L 277.075359 169.766212 
L 277.2 171.372935 
L 277.324641 170.522074 
L 277.324641 170.522074 
" clip-path="url(#p7ae42d3bbe)" style="fill: none; stroke: #fc8d62; stroke-linecap: round"/>
   </g>
   <g id="patch_3">
    <path d="M 47.91 181.416412 
L 47.91 10.8 
" style="fill: none; stroke: #cccccc; stroke-linejoin: miter; stroke-linecap: square"/>
   </g>
   <g id="patch_4">
    <path d="M 277.2 181.416412 
L 277.2 10.8 
" style="fill: none; stroke: #cccccc; stroke-linejoin: miter; stroke-linecap: square"/>
   </g>
   <g id="patch_5">
    <path d="M 47.91 181.416412 
L 277.2 181.416412 
" style="fill: none; stroke: #cccccc; stroke-linejoin: miter; stroke-linecap: square"/>
   </g>
   <g id="patch_6">
    <path d="M 47.91 10.8 
L 277.2 10.8 
" style="fill: none; stroke: #cccccc; stroke-linejoin: miter; stroke-linecap: square"/>
   </g>
  </g>
 </g>
 <defs>
  <clipPath id="p7ae42d3bbe">
   <rect x="47.91" y="10.8" width="229.29" height="170.616412"/>
  </clipPath>
 </defs>
</svg>
