<?xml version="1.0" encoding="utf-8" standalone="no"?>
<!DOCTYPE svg PUBLIC "-//W3C//DTD SVG 1.1//EN"
  "http://www.w3.org/Graphics/SVG/1.1/DTD/svg11.dtd">
<svg xmlns:xlink="http://www.w3.org/1999/xlink" width="288pt" height="230.4pt" viewBox="0 0 288 230.4" xmlns="http://www.w3.org/2000/svg" version="1.1">
 <metadata>
  <rdf:RDF xmlns:dc="http://purl.org/dc/elements/1.1/" xmlns:cc="http://creativecommons.org/ns#" xmlns:rdf="http://www.w3.org/1999/02/22-rdf-syntax-ns#">
   <cc:Work>
    <dc:type rdf:resource="http://purl.org/dc/dcmitype/StillImage"/>
    <dc:date>2024-07-21T17:28:17.723579</dc:date>
    <dc:format>image/svg+xml</dc:format>
    <dc:creator>
     <cc:Agent>
      <dc:title>Matplotlib v3.9.0, https://matplotlib.org/</dc:title>
     </cc:Agent>
    </dc:creator>
   </cc:Work>
  </rdf:RDF>
 </metadata>
 <defs>
  <style type="text/css">*{stroke-linejoin: round; stroke-linecap: butt}</style>
 </defs>
 <g id="figure_1">
  <g id="patch_1">
   <path d="M 0 230.4 
L 288 230.4 
L 288 0 
L 0 0 
z
" style="fill: #ffffff"/>
  </g>
  <g id="axes_1">
   <g id="patch_2">
    <path d="M 50.7 181.416412 
L 277.2 181.416412 
L 277.2 10.8 
L 50.7 10.8 
z
" style="fill: #ffffff"/>
   </g>
   <g id="matplotlib.axis_1">
    <g id="xtick_1">
     <g id="line2d_1">
      <path d="M 241.247619 181.416412 
L 241.247619 10.8 
" clip-path="url(#pa178260cdb)" style="fill: none; stroke: #cccccc; stroke-width: 0.8; stroke-linecap: round"/>
     </g>
     <g id="line2d_2"/>
     <g id="text_1">
      <!-- 6 hours -->
      <g style="fill: #262626" transform="translate(216.259128 213.560866) rotate(-45) scale(0.1 -0.1)">
       <defs>
        <path id="ArialMT-36" d="M 3184 3459 
L 2625 3416 
Q 2550 3747 2413 3897 
Q 2184 4138 1850 4138 
Q 1581 4138 1378 3988 
Q 1113 3794 959 3422 
Q 806 3050 800 2363 
Q 1003 2672 1297 2822 
Q 1591 2972 1913 2972 
Q 2475 2972 2870 2558 
Q 3266 2144 3266 1488 
Q 3266 1056 3080 686 
Q 2894 316 2569 119 
Q 2244 -78 1831 -78 
Q 1128 -78 684 439 
Q 241 956 241 2144 
Q 241 3472 731 4075 
Q 1159 4600 1884 4600 
Q 2425 4600 2770 4297 
Q 3116 3994 3184 3459 
z
M 888 1484 
Q 888 1194 1011 928 
Q 1134 663 1356 523 
Q 1578 384 1822 384 
Q 2178 384 2434 671 
Q 2691 959 2691 1453 
Q 2691 1928 2437 2201 
Q 2184 2475 1800 2475 
Q 1419 2475 1153 2201 
Q 888 1928 888 1484 
z
" transform="scale(0.015625)"/>
        <path id="ArialMT-20" transform="scale(0.015625)"/>
        <path id="ArialMT-68" d="M 422 0 
L 422 4581 
L 984 4581 
L 984 2938 
Q 1378 3394 1978 3394 
Q 2347 3394 2619 3248 
Q 2891 3103 3008 2847 
Q 3125 2591 3125 2103 
L 3125 0 
L 2563 0 
L 2563 2103 
Q 2563 2525 2380 2717 
Q 2197 2909 1863 2909 
Q 1613 2909 1392 2779 
Q 1172 2650 1078 2428 
Q 984 2206 984 1816 
L 984 0 
L 422 0 
z
" transform="scale(0.015625)"/>
        <path id="ArialMT-6f" d="M 213 1659 
Q 213 2581 725 3025 
Q 1153 3394 1769 3394 
Q 2453 3394 2887 2945 
Q 3322 2497 3322 1706 
Q 3322 1066 3130 698 
Q 2938 331 2570 128 
Q 2203 -75 1769 -75 
Q 1072 -75 642 372 
Q 213 819 213 1659 
z
M 791 1659 
Q 791 1022 1069 705 
Q 1347 388 1769 388 
Q 2188 388 2466 706 
Q 2744 1025 2744 1678 
Q 2744 2294 2464 2611 
Q 2184 2928 1769 2928 
Q 1347 2928 1069 2612 
Q 791 2297 791 1659 
z
" transform="scale(0.015625)"/>
        <path id="ArialMT-75" d="M 2597 0 
L 2597 488 
Q 2209 -75 1544 -75 
Q 1250 -75 995 37 
Q 741 150 617 320 
Q 494 491 444 738 
Q 409 903 409 1263 
L 409 3319 
L 972 3319 
L 972 1478 
Q 972 1038 1006 884 
Q 1059 663 1231 536 
Q 1403 409 1656 409 
Q 1909 409 2131 539 
Q 2353 669 2445 892 
Q 2538 1116 2538 1541 
L 2538 3319 
L 3100 3319 
L 3100 0 
L 2597 0 
z
" transform="scale(0.015625)"/>
        <path id="ArialMT-72" d="M 416 0 
L 416 3319 
L 922 3319 
L 922 2816 
Q 1116 3169 1280 3281 
Q 1444 3394 1641 3394 
Q 1925 3394 2219 3213 
L 2025 2691 
Q 1819 2813 1613 2813 
Q 1428 2813 1281 2702 
Q 1134 2591 1072 2394 
Q 978 2094 978 1738 
L 978 0 
L 416 0 
z
" transform="scale(0.015625)"/>
        <path id="ArialMT-73" d="M 197 991 
L 753 1078 
Q 800 744 1014 566 
Q 1228 388 1613 388 
Q 2000 388 2187 545 
Q 2375 703 2375 916 
Q 2375 1106 2209 1216 
Q 2094 1291 1634 1406 
Q 1016 1563 777 1677 
Q 538 1791 414 1992 
Q 291 2194 291 2438 
Q 291 2659 392 2848 
Q 494 3038 669 3163 
Q 800 3259 1026 3326 
Q 1253 3394 1513 3394 
Q 1903 3394 2198 3281 
Q 2494 3169 2634 2976 
Q 2775 2784 2828 2463 
L 2278 2388 
Q 2241 2644 2061 2787 
Q 1881 2931 1553 2931 
Q 1166 2931 1000 2803 
Q 834 2675 834 2503 
Q 834 2394 903 2306 
Q 972 2216 1119 2156 
Q 1203 2125 1616 2013 
Q 2213 1853 2448 1751 
Q 2684 1650 2818 1456 
Q 2953 1263 2953 975 
Q 2953 694 2789 445 
Q 2625 197 2315 61 
Q 2006 -75 1616 -75 
Q 969 -75 630 194 
Q 291 463 197 991 
z
" transform="scale(0.015625)"/>
       </defs>
       <use xlink:href="#ArialMT-36"/>
       <use xlink:href="#ArialMT-20" x="55.615234"/>
       <use xlink:href="#ArialMT-68" x="83.398438"/>
       <use xlink:href="#ArialMT-6f" x="139.013672"/>
       <use xlink:href="#ArialMT-75" x="194.628906"/>
       <use xlink:href="#ArialMT-72" x="250.244141"/>
       <use xlink:href="#ArialMT-73" x="283.544922"/>
      </g>
     </g>
    </g>
    <g id="xtick_2">
     <g id="line2d_3">
      <path d="M 196.307143 181.416412 
L 196.307143 10.8 
" clip-path="url(#pa178260cdb)" style="fill: none; stroke: #cccccc; stroke-width: 0.8; stroke-linecap: round"/>
     </g>
     <g id="line2d_4"/>
     <g id="text_2">
      <!-- 8 hours -->
      <g style="fill: #262626" transform="translate(171.318652 213.560866) rotate(-45) scale(0.1 -0.1)">
       <defs>
        <path id="ArialMT-38" d="M 1131 2484 
Q 781 2613 612 2850 
Q 444 3088 444 3419 
Q 444 3919 803 4259 
Q 1163 4600 1759 4600 
Q 2359 4600 2725 4251 
Q 3091 3903 3091 3403 
Q 3091 3084 2923 2848 
Q 2756 2613 2416 2484 
Q 2838 2347 3058 2040 
Q 3278 1734 3278 1309 
Q 3278 722 2862 322 
Q 2447 -78 1769 -78 
Q 1091 -78 675 323 
Q 259 725 259 1325 
Q 259 1772 486 2073 
Q 713 2375 1131 2484 
z
M 1019 3438 
Q 1019 3113 1228 2906 
Q 1438 2700 1772 2700 
Q 2097 2700 2305 2904 
Q 2513 3109 2513 3406 
Q 2513 3716 2298 3927 
Q 2084 4138 1766 4138 
Q 1444 4138 1231 3931 
Q 1019 3725 1019 3438 
z
M 838 1322 
Q 838 1081 952 856 
Q 1066 631 1291 507 
Q 1516 384 1775 384 
Q 2178 384 2440 643 
Q 2703 903 2703 1303 
Q 2703 1709 2433 1975 
Q 2163 2241 1756 2241 
Q 1359 2241 1098 1978 
Q 838 1716 838 1322 
z
" transform="scale(0.015625)"/>
       </defs>
       <use xlink:href="#ArialMT-38"/>
       <use xlink:href="#ArialMT-20" x="55.615234"/>
       <use xlink:href="#ArialMT-68" x="83.398438"/>
       <use xlink:href="#ArialMT-6f" x="139.013672"/>
       <use xlink:href="#ArialMT-75" x="194.628906"/>
       <use xlink:href="#ArialMT-72" x="250.244141"/>
       <use xlink:href="#ArialMT-73" x="283.544922"/>
      </g>
     </g>
    </g>
    <g id="xtick_3">
     <g id="line2d_5">
      <path d="M 151.366667 181.416412 
L 151.366667 10.8 
" clip-path="url(#pa178260cdb)" style="fill: none; stroke: #cccccc; stroke-width: 0.8; stroke-linecap: round"/>
     </g>
     <g id="line2d_6"/>
     <g id="text_3">
      <!-- 12 hours -->
      <g style="fill: #262626" transform="translate(122.445999 217.493043) rotate(-45) scale(0.1 -0.1)">
       <defs>
        <path id="ArialMT-31" d="M 2384 0 
L 1822 0 
L 1822 3584 
Q 1619 3391 1289 3197 
Q 959 3003 697 2906 
L 697 3450 
Q 1169 3672 1522 3987 
Q 1875 4303 2022 4600 
L 2384 4600 
L 2384 0 
z
" transform="scale(0.015625)"/>
        <path id="ArialMT-32" d="M 3222 541 
L 3222 0 
L 194 0 
Q 188 203 259 391 
Q 375 700 629 1000 
Q 884 1300 1366 1694 
Q 2113 2306 2375 2664 
Q 2638 3022 2638 3341 
Q 2638 3675 2398 3904 
Q 2159 4134 1775 4134 
Q 1369 4134 1125 3890 
Q 881 3647 878 3216 
L 300 3275 
Q 359 3922 746 4261 
Q 1134 4600 1788 4600 
Q 2447 4600 2831 4234 
Q 3216 3869 3216 3328 
Q 3216 3053 3103 2787 
Q 2991 2522 2730 2228 
Q 2469 1934 1863 1422 
Q 1356 997 1212 845 
Q 1069 694 975 541 
L 3222 541 
z
" transform="scale(0.015625)"/>
       </defs>
       <use xlink:href="#ArialMT-31"/>
       <use xlink:href="#ArialMT-32" x="55.615234"/>
       <use xlink:href="#ArialMT-20" x="111.230469"/>
       <use xlink:href="#ArialMT-68" x="139.013672"/>
       <use xlink:href="#ArialMT-6f" x="194.628906"/>
       <use xlink:href="#ArialMT-75" x="250.244141"/>
       <use xlink:href="#ArialMT-72" x="305.859375"/>
       <use xlink:href="#ArialMT-73" x="339.160156"/>
      </g>
     </g>
    </g>
    <g id="xtick_4">
     <g id="line2d_7">
      <path d="M 106.42619 181.416412 
L 106.42619 10.8 
" clip-path="url(#pa178260cdb)" style="fill: none; stroke: #cccccc; stroke-width: 0.8; stroke-linecap: round"/>
     </g>
     <g id="line2d_8"/>
     <g id="text_4">
      <!-- Daily -->
      <g style="fill: #262626" transform="translate(89.221399 205.694303) rotate(-45) scale(0.1 -0.1)">
       <defs>
        <path id="ArialMT-44" d="M 494 0 
L 494 4581 
L 2072 4581 
Q 2606 4581 2888 4516 
Q 3281 4425 3559 4188 
Q 3922 3881 4101 3404 
Q 4281 2928 4281 2316 
Q 4281 1794 4159 1391 
Q 4038 988 3847 723 
Q 3656 459 3429 307 
Q 3203 156 2883 78 
Q 2563 0 2147 0 
L 494 0 
z
M 1100 541 
L 2078 541 
Q 2531 541 2789 625 
Q 3047 709 3200 863 
Q 3416 1078 3536 1442 
Q 3656 1806 3656 2325 
Q 3656 3044 3420 3430 
Q 3184 3816 2847 3947 
Q 2603 4041 2063 4041 
L 1100 4041 
L 1100 541 
z
" transform="scale(0.015625)"/>
        <path id="ArialMT-61" d="M 2588 409 
Q 2275 144 1986 34 
Q 1697 -75 1366 -75 
Q 819 -75 525 192 
Q 231 459 231 875 
Q 231 1119 342 1320 
Q 453 1522 633 1644 
Q 813 1766 1038 1828 
Q 1203 1872 1538 1913 
Q 2219 1994 2541 2106 
Q 2544 2222 2544 2253 
Q 2544 2597 2384 2738 
Q 2169 2928 1744 2928 
Q 1347 2928 1158 2789 
Q 969 2650 878 2297 
L 328 2372 
Q 403 2725 575 2942 
Q 747 3159 1072 3276 
Q 1397 3394 1825 3394 
Q 2250 3394 2515 3294 
Q 2781 3194 2906 3042 
Q 3031 2891 3081 2659 
Q 3109 2516 3109 2141 
L 3109 1391 
Q 3109 606 3145 398 
Q 3181 191 3288 0 
L 2700 0 
Q 2613 175 2588 409 
z
M 2541 1666 
Q 2234 1541 1622 1453 
Q 1275 1403 1131 1340 
Q 988 1278 909 1158 
Q 831 1038 831 891 
Q 831 666 1001 516 
Q 1172 366 1500 366 
Q 1825 366 2078 508 
Q 2331 650 2450 897 
Q 2541 1088 2541 1459 
L 2541 1666 
z
" transform="scale(0.015625)"/>
        <path id="ArialMT-69" d="M 425 3934 
L 425 4581 
L 988 4581 
L 988 3934 
L 425 3934 
z
M 425 0 
L 425 3319 
L 988 3319 
L 988 0 
L 425 0 
z
" transform="scale(0.015625)"/>
        <path id="ArialMT-6c" d="M 409 0 
L 409 4581 
L 972 4581 
L 972 0 
L 409 0 
z
" transform="scale(0.015625)"/>
        <path id="ArialMT-79" d="M 397 -1278 
L 334 -750 
Q 519 -800 656 -800 
Q 844 -800 956 -737 
Q 1069 -675 1141 -563 
Q 1194 -478 1313 -144 
Q 1328 -97 1363 -6 
L 103 3319 
L 709 3319 
L 1400 1397 
Q 1534 1031 1641 628 
Q 1738 1016 1872 1384 
L 2581 3319 
L 3144 3319 
L 1881 -56 
Q 1678 -603 1566 -809 
Q 1416 -1088 1222 -1217 
Q 1028 -1347 759 -1347 
Q 597 -1347 397 -1278 
z
" transform="scale(0.015625)"/>
       </defs>
       <use xlink:href="#ArialMT-44"/>
       <use xlink:href="#ArialMT-61" x="72.216797"/>
       <use xlink:href="#ArialMT-69" x="127.832031"/>
       <use xlink:href="#ArialMT-6c" x="150.048828"/>
       <use xlink:href="#ArialMT-79" x="172.265625"/>
      </g>
     </g>
    </g>
    <g id="xtick_5">
     <g id="line2d_9">
      <path d="M 67.905782 181.416412 
L 67.905782 10.8 
" clip-path="url(#pa178260cdb)" style="fill: none; stroke: #cccccc; stroke-width: 0.8; stroke-linecap: round"/>
     </g>
     <g id="line2d_10"/>
     <g id="text_5">
      <!-- Weekly -->
      <g style="fill: #262626" transform="translate(43.360338 213.034955) rotate(-45) scale(0.1 -0.1)">
       <defs>
        <path id="ArialMT-57" d="M 1294 0 
L 78 4581 
L 700 4581 
L 1397 1578 
Q 1509 1106 1591 641 
Q 1766 1375 1797 1488 
L 2669 4581 
L 3400 4581 
L 4056 2263 
Q 4303 1400 4413 641 
Q 4500 1075 4641 1638 
L 5359 4581 
L 5969 4581 
L 4713 0 
L 4128 0 
L 3163 3491 
Q 3041 3928 3019 4028 
Q 2947 3713 2884 3491 
L 1913 0 
L 1294 0 
z
" transform="scale(0.015625)"/>
        <path id="ArialMT-65" d="M 2694 1069 
L 3275 997 
Q 3138 488 2766 206 
Q 2394 -75 1816 -75 
Q 1088 -75 661 373 
Q 234 822 234 1631 
Q 234 2469 665 2931 
Q 1097 3394 1784 3394 
Q 2450 3394 2872 2941 
Q 3294 2488 3294 1666 
Q 3294 1616 3291 1516 
L 816 1516 
Q 847 969 1125 678 
Q 1403 388 1819 388 
Q 2128 388 2347 550 
Q 2566 713 2694 1069 
z
M 847 1978 
L 2700 1978 
Q 2663 2397 2488 2606 
Q 2219 2931 1791 2931 
Q 1403 2931 1139 2672 
Q 875 2413 847 1978 
z
" transform="scale(0.015625)"/>
        <path id="ArialMT-6b" d="M 425 0 
L 425 4581 
L 988 4581 
L 988 1969 
L 2319 3319 
L 3047 3319 
L 1778 2088 
L 3175 0 
L 2481 0 
L 1384 1697 
L 988 1316 
L 988 0 
L 425 0 
z
" transform="scale(0.015625)"/>
       </defs>
       <use xlink:href="#ArialMT-57"/>
       <use xlink:href="#ArialMT-65" x="92.634766"/>
       <use xlink:href="#ArialMT-65" x="148.25"/>
       <use xlink:href="#ArialMT-6b" x="203.865234"/>
       <use xlink:href="#ArialMT-6c" x="253.865234"/>
       <use xlink:href="#ArialMT-79" x="276.082031"/>
      </g>
     </g>
    </g>
   </g>
   <g id="matplotlib.axis_2">
    <g id="ytick_1">
     <g id="line2d_11"/>
     <g id="text_6">
      <!-- 0 -->
      <g style="fill: #262626" transform="translate(41.639063 177.240296) scale(0.1 -0.1)">
       <defs>
        <path id="ArialMT-30" d="M 266 2259 
Q 266 3072 433 3567 
Q 600 4063 929 4331 
Q 1259 4600 1759 4600 
Q 2128 4600 2406 4451 
Q 2684 4303 2865 4023 
Q 3047 3744 3150 3342 
Q 3253 2941 3253 2259 
Q 3253 1453 3087 958 
Q 2922 463 2592 192 
Q 2263 -78 1759 -78 
Q 1097 -78 719 397 
Q 266 969 266 2259 
z
M 844 2259 
Q 844 1131 1108 757 
Q 1372 384 1759 384 
Q 2147 384 2411 759 
Q 2675 1134 2675 2259 
Q 2675 3391 2411 3762 
Q 2147 4134 1753 4134 
Q 1366 4134 1134 3806 
Q 844 3388 844 2259 
z
" transform="scale(0.015625)"/>
       </defs>
       <use xlink:href="#ArialMT-30"/>
      </g>
     </g>
    </g>
    <g id="ytick_2">
     <g id="line2d_12"/>
     <g id="text_7">
      <!-- 500 -->
      <g style="fill: #262626" transform="translate(30.517188 148.578104) scale(0.1 -0.1)">
       <defs>
        <path id="ArialMT-35" d="M 266 1200 
L 856 1250 
Q 922 819 1161 601 
Q 1400 384 1738 384 
Q 2144 384 2425 690 
Q 2706 997 2706 1503 
Q 2706 1984 2436 2262 
Q 2166 2541 1728 2541 
Q 1456 2541 1237 2417 
Q 1019 2294 894 2097 
L 366 2166 
L 809 4519 
L 3088 4519 
L 3088 3981 
L 1259 3981 
L 1013 2750 
Q 1425 3038 1878 3038 
Q 2478 3038 2890 2622 
Q 3303 2206 3303 1553 
Q 3303 931 2941 478 
Q 2500 -78 1738 -78 
Q 1113 -78 717 272 
Q 322 622 266 1200 
z
" transform="scale(0.015625)"/>
       </defs>
       <use xlink:href="#ArialMT-35"/>
       <use xlink:href="#ArialMT-30" x="55.615234"/>
       <use xlink:href="#ArialMT-30" x="111.230469"/>
      </g>
     </g>
    </g>
    <g id="ytick_3">
     <g id="line2d_13"/>
     <g id="text_8">
      <!-- 1000 -->
      <g style="fill: #262626" transform="translate(24.95625 119.915913) scale(0.1 -0.1)">
       <use xlink:href="#ArialMT-31"/>
       <use xlink:href="#ArialMT-30" x="55.615234"/>
       <use xlink:href="#ArialMT-30" x="111.230469"/>
       <use xlink:href="#ArialMT-30" x="166.845703"/>
      </g>
     </g>
    </g>
    <g id="ytick_4">
     <g id="line2d_14"/>
     <g id="text_9">
      <!-- 1500 -->
      <g style="fill: #262626" transform="translate(24.95625 91.253721) scale(0.1 -0.1)">
       <use xlink:href="#ArialMT-31"/>
       <use xlink:href="#ArialMT-35" x="55.615234"/>
       <use xlink:href="#ArialMT-30" x="111.230469"/>
       <use xlink:href="#ArialMT-30" x="166.845703"/>
      </g>
     </g>
    </g>
    <g id="ytick_5">
     <g id="line2d_15"/>
     <g id="text_10">
      <!-- 2000 -->
      <g style="fill: #262626" transform="translate(24.95625 62.591529) scale(0.1 -0.1)">
       <use xlink:href="#ArialMT-32"/>
       <use xlink:href="#ArialMT-30" x="55.615234"/>
       <use xlink:href="#ArialMT-30" x="111.230469"/>
       <use xlink:href="#ArialMT-30" x="166.845703"/>
      </g>
     </g>
    </g>
    <g id="ytick_6">
     <g id="line2d_16"/>
     <g id="text_11">
      <!-- 2500 -->
      <g style="fill: #262626" transform="translate(24.95625 33.929337) scale(0.1 -0.1)">
       <use xlink:href="#ArialMT-32"/>
       <use xlink:href="#ArialMT-35" x="55.615234"/>
       <use xlink:href="#ArialMT-30" x="111.230469"/>
       <use xlink:href="#ArialMT-30" x="166.845703"/>
      </g>
     </g>
    </g>
    <g id="text_12">
     <!-- GW -->
     <g style="fill: #262626" transform="translate(18.96875 104.7168) rotate(-90) scale(0.1 -0.1)">
      <defs>
       <path id="ArialMT-47" d="M 2638 1797 
L 2638 2334 
L 4578 2338 
L 4578 638 
Q 4131 281 3656 101 
Q 3181 -78 2681 -78 
Q 2006 -78 1454 211 
Q 903 500 622 1047 
Q 341 1594 341 2269 
Q 341 2938 620 3517 
Q 900 4097 1425 4378 
Q 1950 4659 2634 4659 
Q 3131 4659 3532 4498 
Q 3934 4338 4162 4050 
Q 4391 3763 4509 3300 
L 3963 3150 
Q 3859 3500 3706 3700 
Q 3553 3900 3268 4020 
Q 2984 4141 2638 4141 
Q 2222 4141 1919 4014 
Q 1616 3888 1430 3681 
Q 1244 3475 1141 3228 
Q 966 2803 966 2306 
Q 966 1694 1177 1281 
Q 1388 869 1791 669 
Q 2194 469 2647 469 
Q 3041 469 3416 620 
Q 3791 772 3984 944 
L 3984 1797 
L 2638 1797 
z
" transform="scale(0.015625)"/>
      </defs>
      <use xlink:href="#ArialMT-47"/>
      <use xlink:href="#ArialMT-57" x="77.783203"/>
     </g>
    </g>
   </g>
   <g id="line2d_17">
    <path d="M 61.485714 18.555291 
L 61.608839 160.577317 
L 61.731963 149.060418 
L 61.855088 170.592151 
L 61.978213 170.147426 
L 62.101337 168.298634 
L 62.224462 170.790192 
L 62.347586 170.6925 
L 62.593836 166.699131 
L 62.71696 172.07037 
L 63.332583 169.336552 
L 63.455708 171.332567 
L 63.578832 170.453282 
L 63.825082 172.424956 
L 63.948206 171.149893 
L 64.071331 172.54799 
L 64.194455 171.037436 
L 64.31758 172.270673 
L 64.440705 170.092225 
L 64.563829 171.596897 
L 64.686954 169.917584 
L 64.810078 171.842515 
L 64.933203 171.396399 
L 65.056327 172.95944 
L 65.302577 171.591386 
L 65.425701 172.596685 
L 65.795075 169.608775 
L 65.9182 173.111455 
L 66.041324 168.518437 
L 66.287573 171.171928 
L 66.410698 171.618989 
L 66.533823 172.65986 
L 66.656947 171.804085 
L 66.780072 169.429735 
L 66.903196 169.330192 
L 67.149446 172.772233 
L 67.27257 171.68033 
L 67.395695 172.26148 
L 67.641944 168.260412 
L 67.765068 172.100013 
L 67.888193 168.985347 
L 68.011318 172.429398 
L 68.134442 171.413028 
L 68.257567 173.448832 
L 68.503816 172.364841 
L 68.626941 172.225805 
L 68.750065 171.401296 
L 68.87319 172.586424 
L 68.996314 170.629447 
L 69.119439 170.767304 
L 69.242564 171.098435 
L 69.488813 172.968505 
L 69.611937 171.559938 
L 69.735062 172.786508 
L 69.858187 171.970763 
L 69.981311 172.183064 
L 70.22756 173.318908 
L 70.47381 172.617883 
L 70.596934 172.605442 
L 70.720059 172.13039 
L 70.843183 172.844943 
L 70.966308 171.606334 
L 71.089432 172.696243 
L 71.212557 171.339426 
L 71.335682 171.96916 
L 71.458806 171.587666 
L 71.581931 173.332548 
L 71.705055 172.469855 
L 71.82818 172.477705 
L 71.951305 171.452304 
L 72.074429 172.355798 
L 72.197554 172.198385 
L 72.320678 172.5024 
L 72.443803 172.072102 
L 72.690052 173.264762 
L 72.813177 172.268328 
L 72.936301 172.490754 
L 73.059426 172.224613 
L 73.182551 173.528633 
L 73.305675 173.198706 
L 73.551924 171.418744 
L 73.798174 172.636115 
L 73.921298 172.471842 
L 74.044423 172.686633 
L 74.167547 173.16698 
L 74.290672 169.793922 
L 74.536921 173.602587 
L 74.660046 172.52812 
L 74.78317 172.56288 
L 74.906295 173.219216 
L 75.029419 172.369557 
L 75.152544 173.017316 
L 75.275669 172.836185 
L 75.398793 172.169422 
L 75.521918 173.049173 
L 75.645042 172.788398 
L 75.768167 173.161023 
L 75.891292 172.453243 
L 76.014416 173.412957 
L 76.260665 173.003854 
L 76.38379 171.670874 
L 76.753164 173.4573 
L 76.876288 171.573911 
L 77.122538 173.097233 
L 77.245662 172.936457 
L 77.368787 173.363385 
L 77.615036 172.493314 
L 77.73816 173.158174 
L 77.861285 172.433823 
L 77.98441 173.059623 
L 78.107534 172.889235 
L 78.230659 173.370615 
L 78.353783 172.250046 
L 78.600033 173.592264 
L 78.723157 173.063791 
L 78.846282 173.090618 
L 78.969406 172.634605 
L 79.092531 172.939165 
L 79.215656 172.376149 
L 79.461905 173.288096 
L 79.585029 172.663859 
L 79.831279 173.485857 
L 80.077528 172.657272 
L 80.200652 172.8603 
L 80.323777 172.821931 
L 80.446902 172.509383 
L 80.570026 172.811305 
L 80.693151 171.990861 
L 80.816275 172.560295 
L 80.9394 171.63067 
L 81.062524 173.351962 
L 81.185649 173.472003 
L 81.308774 173.338277 
L 81.431898 173.39938 
L 81.555023 172.657851 
L 81.678147 173.168108 
L 81.801272 172.324177 
L 81.924397 173.001837 
L 82.047521 172.665143 
L 82.170646 173.454784 
L 82.29377 172.677261 
L 82.54002 173.375239 
L 82.786269 172.951933 
L 82.909393 172.844008 
L 83.032518 173.413597 
L 83.155643 172.814945 
L 83.278767 173.239218 
L 83.401892 172.870624 
L 83.525016 173.039577 
L 83.648141 173.506667 
L 84.017515 172.84308 
L 84.263764 173.448118 
L 84.386888 173.243736 
L 84.633138 173.394893 
L 84.756262 173.149708 
L 84.879387 173.553462 
L 85.002511 173.539418 
L 85.125636 173.11525 
L 85.248761 173.112791 
L 85.371885 173.439551 
L 85.49501 173.101811 
L 85.618134 173.091362 
L 85.864384 173.475385 
L 85.987508 173.248579 
L 86.356882 173.285718 
L 86.480007 173.106238 
L 86.726256 173.483842 
L 86.84938 173.153172 
L 86.972505 173.456246 
L 87.095629 172.915224 
L 87.341879 172.98304 
L 87.588128 173.459808 
L 87.711252 173.224531 
L 87.834377 173.389404 
L 87.957502 173.210783 
L 88.203751 173.552853 
L 88.326875 173.48164 
L 88.45 172.997905 
L 88.696249 173.32617 
L 88.819374 173.154658 
L 89.065623 173.435856 
L 89.188748 173.062671 
L 89.311872 173.125788 
L 89.681246 173.576353 
L 89.804371 173.263414 
L 89.927495 173.264578 
L 90.05062 173.513043 
L 90.296869 173.275943 
L 90.419993 173.185724 
L 90.666243 173.427162 
L 90.789367 173.024918 
L 90.912492 173.386143 
L 91.035616 173.323274 
L 91.281866 173.502465 
L 91.40499 173.292142 
L 91.528115 173.485006 
L 91.774364 173.139094 
L 91.897489 173.283999 
L 92.143738 173.241909 
L 92.266862 173.451068 
L 92.389987 173.113659 
L 92.513112 173.429731 
L 92.636236 173.07513 
L 92.759361 173.419721 
L 92.882485 173.381395 
L 93.00561 173.518798 
L 93.251859 172.80478 
L 93.374984 173.013599 
L 93.498108 172.989066 
L 93.621233 171.208725 
L 93.867482 173.312347 
L 93.990607 173.332015 
L 94.113731 173.603289 
L 94.236856 173.381986 
L 94.35998 173.491233 
L 94.483105 173.084699 
L 94.729354 173.299345 
L 94.852479 173.082923 
L 95.468102 173.495887 
L 95.714351 173.144385 
L 95.837476 173.468375 
L 95.9606 173.325234 
L 96.083725 173.593272 
L 96.329974 173.296 
L 96.453098 173.45446 
L 96.576223 173.267515 
L 96.699348 173.612443 
L 96.945597 173.41404 
L 97.191846 173.534553 
L 97.684344 173.094012 
L 97.807469 173.571049 
L 97.930594 173.473312 
L 98.053718 173.53746 
L 98.299967 173.161658 
L 98.669341 173.538171 
L 98.792466 173.386469 
L 98.91559 173.477054 
L 99.16184 173.416694 
L 99.408089 173.249189 
L 99.654338 173.395737 
L 99.900587 173.004483 
L 100.023712 170.992794 
L 100.269961 172.97711 
L 100.393085 173.095294 
L 100.51621 173.022321 
L 100.762459 173.324908 
L 100.885584 172.957518 
L 101.008708 172.979117 
L 101.254958 173.496246 
L 101.378082 172.932025 
L 101.501207 172.956835 
L 101.624331 173.478943 
L 101.747456 173.254085 
L 101.870581 173.56299 
L 101.993705 173.541804 
L 102.11683 173.186266 
L 102.239954 173.454868 
L 102.363079 172.917503 
L 102.486204 173.077884 
L 102.609328 173.61754 
L 102.732453 173.138062 
L 102.978702 173.319691 
L 103.224951 172.881362 
L 103.4712 173.261194 
L 103.594325 172.929268 
L 103.717449 173.04896 
L 103.840574 173.557356 
L 104.086823 173.160557 
L 104.209948 173.356087 
L 104.456197 173.023003 
L 104.579322 173.47919 
L 104.825571 172.956638 
L 104.948695 173.215101 
L 105.441194 172.968703 
L 105.564318 173.591865 
L 106.056817 172.220687 
L 106.179941 172.290722 
L 106.303066 167.043067 
L 106.42619 154.767563 
L 106.67244 171.577815 
L 106.795564 171.505508 
L 106.918689 172.654221 
L 107.041813 172.744158 
L 107.288063 173.243553 
L 107.411187 173.119179 
L 107.534312 172.215181 
L 107.657436 173.492229 
L 107.780561 173.037178 
L 107.903686 173.310361 
L 108.02681 172.534457 
L 108.149935 173.301989 
L 108.273059 173.178768 
L 108.519309 173.591876 
L 108.765558 172.89711 
L 108.888682 173.363797 
L 109.134932 173.29944 
L 109.258056 172.858581 
L 109.381181 172.968822 
L 109.504305 173.488463 
L 109.62743 173.388309 
L 109.750554 173.549947 
L 110.119928 173.316938 
L 110.366177 173.423746 
L 110.489302 172.724513 
L 110.735551 173.383671 
L 110.858676 173.236511 
L 110.9818 173.405175 
L 111.104925 173.094717 
L 111.22805 173.445809 
L 111.351174 172.915932 
L 111.474299 172.991891 
L 111.720548 173.522888 
L 111.843673 172.928829 
L 111.966797 172.885507 
L 112.336171 173.440823 
L 112.459295 172.751102 
L 112.58242 173.467817 
L 112.828669 172.267881 
L 112.951794 173.258722 
L 113.074918 173.235813 
L 113.198043 173.331137 
L 113.321168 173.055888 
L 113.567417 173.548474 
L 113.813666 173.487967 
L 113.936791 173.587071 
L 114.429289 173.33232 
L 114.798663 173.352257 
L 114.921787 172.968274 
L 115.044912 173.396961 
L 115.291161 173.158416 
L 115.660535 173.546831 
L 115.906784 173.198915 
L 116.029909 173.60779 
L 116.276158 173.352218 
L 116.399282 173.537393 
L 116.645532 173.390263 
L 117.13803 173.614755 
L 117.384279 173.367689 
L 117.630528 173.600396 
L 117.876778 173.24758 
L 118.246151 173.519287 
L 118.369276 173.289636 
L 118.492401 173.505425 
L 118.615525 173.390165 
L 118.73865 173.613504 
L 118.861774 173.445973 
L 118.984899 173.517947 
L 119.108023 173.427046 
L 119.231148 173.116185 
L 119.477397 173.513219 
L 119.600522 173.262512 
L 119.723646 173.50113 
L 120.09302 173.347842 
L 120.216145 173.577921 
L 120.831768 173.297277 
L 120.954892 173.508551 
L 121.447391 173.528068 
L 121.570515 173.613863 
L 121.69364 173.470657 
L 121.939889 173.512554 
L 122.063014 173.391421 
L 122.186138 173.571677 
L 122.432387 173.488979 
L 122.678637 173.554063 
L 122.801761 173.651242 
L 123.540509 173.358255 
L 123.663633 173.552939 
L 124.64863 173.437049 
L 124.894879 173.579699 
L 125.018004 173.500515 
L 125.141129 173.628427 
L 125.633627 173.461771 
L 125.756751 173.57735 
L 125.879876 173.444004 
L 126.003001 173.598217 
L 126.24925 173.482675 
L 126.372374 173.60899 
L 126.495499 173.489315 
L 126.618624 173.561972 
L 126.987997 173.400522 
L 127.111122 173.531524 
L 127.234247 173.434065 
L 127.60362 173.627744 
L 127.84987 173.48853 
L 127.972994 173.581787 
L 128.219243 173.50114 
L 128.342368 173.614056 
L 128.711742 173.492068 
L 128.834866 173.607269 
L 129.081115 173.528046 
L 130.066112 173.600184 
L 130.189237 173.447019 
L 130.435486 173.601165 
L 130.558611 173.502658 
L 130.80486 173.604477 
L 130.927984 173.496136 
L 131.174234 173.534006 
L 131.789856 173.513721 
L 132.036106 173.546439 
L 132.15923 173.406736 
L 132.405479 173.544586 
L 132.528604 173.648249 
L 132.651729 173.452302 
L 132.774853 173.614079 
L 133.021102 173.561612 
L 133.144227 173.608679 
L 133.267352 173.488872 
L 133.390476 173.59603 
L 133.513601 173.488018 
L 133.636725 173.647116 
L 133.75985 173.576341 
L 133.882975 173.634408 
L 134.129224 173.552425 
L 134.375473 173.513786 
L 134.744847 173.577891 
L 136.222342 173.477824 
L 136.345466 173.405721 
L 136.591716 173.475604 
L 137.084214 173.566042 
L 137.330463 173.511202 
L 137.453588 173.585399 
L 137.576712 173.411705 
L 137.699837 173.50811 
L 137.822962 173.436705 
L 137.946086 173.544138 
L 138.069211 173.42693 
L 138.438584 173.508817 
L 138.561709 173.059985 
L 138.931083 173.551473 
L 139.423581 173.449969 
L 139.546706 173.614079 
L 139.66983 173.380878 
L 140.039204 173.616918 
L 140.285453 173.463901 
L 141.024201 173.607322 
L 141.393575 173.416685 
L 141.516699 173.534109 
L 141.886073 173.462759 
L 142.009198 173.624451 
L 142.378571 173.42262 
L 142.624821 173.553847 
L 142.87107 173.564555 
L 143.117319 173.611125 
L 143.240444 173.471265 
L 143.363568 173.617849 
L 143.609817 173.435571 
L 143.856067 173.387897 
L 143.979191 173.543456 
L 144.102316 173.450385 
L 144.22544 173.579515 
L 144.471689 173.434285 
L 144.717939 173.564426 
L 144.841063 173.408836 
L 144.964188 172.535851 
L 145.087312 173.295698 
L 145.210437 173.211543 
L 145.333562 173.420925 
L 145.456686 173.303614 
L 145.949185 173.606578 
L 146.072309 173.437185 
L 146.195434 173.613295 
L 146.318558 173.330802 
L 146.441683 173.327828 
L 146.811057 173.627711 
L 147.180431 173.399499 
L 147.549804 173.599925 
L 147.672929 173.632672 
L 147.796053 173.476306 
L 147.919178 173.530377 
L 148.165427 173.26971 
L 148.288552 173.412559 
L 148.411676 173.301422 
L 148.534801 173.387947 
L 148.657926 173.245089 
L 148.78105 173.596937 
L 149.027299 173.346259 
L 149.150424 173.532057 
L 149.273549 173.481242 
L 149.396673 173.292755 
L 149.642922 173.492491 
L 149.766047 173.293217 
L 149.889172 173.46106 
L 150.012296 173.410575 
L 150.135421 173.521797 
L 150.258545 173.241231 
L 150.38167 173.463566 
L 150.504795 173.351873 
L 150.627919 173.432374 
L 150.874168 173.221668 
L 150.997293 173.370238 
L 151.120417 173.152389 
L 151.243542 171.7368 
L 151.366667 164.252637 
L 151.612916 173.251058 
L 151.73604 172.703349 
L 151.98229 173.376963 
L 152.105414 173.426696 
L 152.228539 173.287582 
L 152.351663 173.402949 
L 152.474788 173.185311 
L 152.597913 173.424979 
L 152.721037 173.216989 
L 152.844162 173.47788 
L 152.967286 173.234587 
L 153.090411 173.605826 
L 153.213536 173.302607 
L 153.33666 173.434379 
L 153.459785 173.371884 
L 153.582909 173.463715 
L 153.706034 173.165957 
L 153.829159 173.437119 
L 153.952283 173.437571 
L 154.075408 173.582337 
L 154.198532 173.354071 
L 154.321657 173.369408 
L 154.444781 173.546743 
L 154.814155 173.394267 
L 154.93728 173.561238 
L 155.183529 173.472845 
L 155.306654 173.4716 
L 155.429778 173.612157 
L 155.799152 173.392505 
L 155.922277 173.515175 
L 156.045401 173.257349 
L 156.168526 173.392155 
L 156.29165 173.251992 
L 156.661024 173.462888 
L 156.784149 173.420216 
L 156.907273 173.167636 
L 157.153523 173.408531 
L 157.399772 173.167285 
L 157.522896 173.200521 
L 157.646021 173.411389 
L 157.769145 172.656065 
L 157.89227 173.410054 
L 158.384768 173.441043 
L 158.507893 173.617563 
L 158.631018 173.390436 
L 158.754142 173.501531 
L 159.000391 173.330319 
L 159.123516 173.587654 
L 159.862264 173.37881 
L 159.985388 173.554344 
L 160.231637 173.449623 
L 160.477886 173.635089 
L 162.078506 173.416577 
L 162.201631 173.638944 
L 162.44788 173.494107 
L 162.571005 173.610882 
L 162.817254 173.539612 
L 163.063503 173.558231 
L 163.186628 173.606939 
L 163.309752 173.510076 
L 163.80225 173.628746 
L 164.171624 173.159733 
L 164.294749 173.378777 
L 164.540998 173.40644 
L 164.787247 173.542933 
L 164.910372 173.623991 
L 165.156621 173.473593 
L 165.649119 173.586012 
L 165.895369 173.578615 
L 166.141618 173.469368 
L 166.264742 173.473157 
L 166.387867 173.655872 
L 166.634116 173.564934 
L 167.00349 173.5394 
L 167.742237 173.591557 
L 167.865362 173.472359 
L 167.988487 173.63656 
L 168.60411 173.535533 
L 169.95848 173.654172 
L 170.204729 173.509374 
L 170.327854 173.630259 
L 170.450978 173.593399 
L 170.574103 173.431881 
L 170.697228 173.632465 
L 170.943477 173.543518 
L 171.189726 173.610743 
L 171.435975 173.641912 
L 172.174723 173.542702 
L 174.51409 173.618879 
L 175.129713 173.544221 
L 175.375962 173.591222 
L 176.360959 173.606285 
L 176.607208 173.588013 
L 177.099706 173.609352 
L 177.345956 173.572444 
L 177.46908 173.635344 
L 177.715329 173.55228 
L 178.084703 173.650893 
L 178.454077 173.605242 
L 179.315949 173.636275 
L 180.547195 173.596502 
L 181.039693 173.653874 
L 181.409067 173.569626 
L 181.532192 173.643117 
L 181.778441 173.586552 
L 182.394064 173.56534 
L 183.502185 173.553509 
L 183.62531 173.411952 
L 183.871559 173.634983 
L 183.994684 173.552758 
L 184.240933 173.645483 
L 184.487182 173.568803 
L 184.733431 173.595771 
L 185.841553 173.608559 
L 186.087802 173.543771 
L 186.334051 173.613213 
L 186.826549 173.49857 
L 187.072798 173.627165 
L 187.688421 173.56445 
L 187.811546 173.657702 
L 188.057795 173.587096 
L 188.304044 173.599197 
L 188.427169 173.459088 
L 188.673418 173.562591 
L 188.796543 173.625 
L 189.042792 173.540883 
L 189.289041 173.641688 
L 189.412166 173.497557 
L 189.53529 173.632965 
L 189.781539 173.410104 
L 190.889661 173.60459 
L 191.012785 173.469814 
L 191.382159 173.637696 
L 191.628408 173.509188 
L 191.874658 173.653403 
L 192.244031 173.482866 
L 192.49028 173.57839 
L 192.613405 173.51274 
L 192.859654 173.608008 
L 193.229028 173.50807 
L 194.214025 173.60372 
L 194.460274 173.538052 
L 194.706523 173.606652 
L 194.952772 173.493151 
L 195.075897 173.61419 
L 195.445271 173.43961 
L 195.568395 173.579386 
L 195.937769 173.332819 
L 196.060894 173.57519 
L 196.307143 172.877176 
L 196.430267 172.726783 
L 196.553392 173.187379 
L 196.676517 173.183809 
L 196.799641 173.618319 
L 197.169015 173.488979 
L 197.415264 173.577115 
L 197.538389 173.431644 
L 197.661513 173.554137 
L 197.784638 173.505097 
L 197.907763 173.634791 
L 198.154012 173.510338 
L 198.277136 173.567916 
L 198.400261 173.490097 
L 198.523386 173.629405 
L 198.769635 173.558833 
L 199.139008 173.567747 
L 200.616504 173.548213 
L 200.739628 173.409385 
L 200.985877 173.539856 
L 201.109002 173.420914 
L 201.232127 173.59522 
L 201.970874 173.542378 
L 202.093999 173.558407 
L 202.217123 173.446362 
L 202.340248 173.512869 
L 202.709622 173.140083 
L 202.955871 173.550904 
L 203.078995 173.489191 
L 203.20212 173.617359 
L 203.325245 173.465769 
L 203.694618 173.598912 
L 203.940868 173.499288 
L 204.063992 173.62155 
L 204.187117 173.500833 
L 204.310241 173.601673 
L 204.433366 173.506054 
L 204.679615 173.588047 
L 205.664612 173.625467 
L 206.033986 173.516357 
L 206.649609 173.594111 
L 206.895858 173.609958 
L 207.018982 173.526699 
L 207.265232 173.575594 
L 208.373353 173.587573 
L 208.496477 173.509548 
L 208.742727 173.571433 
L 208.988976 173.529818 
L 209.1121 173.245081 
L 209.235225 173.592382 
L 209.604599 173.501162 
L 209.727723 173.639046 
L 210.097097 173.596625 
L 214.283333 173.621281 
L 214.652707 173.584304 
L 215.022081 173.606971 
L 215.514579 173.498761 
L 215.883953 173.615253 
L 216.376451 173.620961 
L 216.745825 173.625822 
L 216.992074 173.584271 
L 218.469569 173.61648 
L 219.085192 173.634294 
L 219.577691 173.614765 
L 220.070189 173.608926 
L 220.439563 173.633587 
L 220.808937 173.56845 
L 221.055186 173.601377 
L 221.547684 173.633914 
L 221.917058 173.549709 
L 223.025179 173.649257 
L 223.271429 173.646395 
L 224.256425 173.633548 
L 224.625799 173.648057 
L 224.995173 173.614668 
L 226.472668 173.60206 
L 226.965166 173.606757 
L 227.211416 173.609496 
L 227.703914 173.57807 
L 228.073288 173.598626 
L 228.196412 173.482289 
L 228.319537 173.540142 
L 228.442661 173.366634 
L 228.812035 173.598586 
L 229.550783 173.593012 
L 229.797032 173.591951 
L 231.151402 173.644346 
L 231.643901 173.606563 
L 232.505773 173.649118 
L 232.752022 173.629077 
L 233.49077 173.531781 
L 233.737019 173.609746 
L 234.106393 173.636451 
L 234.722016 173.444557 
L 234.84514 173.316134 
L 234.968265 173.561589 
L 235.337639 173.612807 
L 235.830137 173.630123 
L 236.076386 173.616322 
L 236.199511 173.537797 
L 236.44576 173.629174 
L 236.568885 173.540017 
L 236.815134 173.625026 
L 236.938258 173.542635 
L 237.184508 173.588355 
L 237.553881 173.61567 
L 238.538878 173.610787 
L 238.785127 173.605178 
L 239.40075 173.624447 
L 239.523875 173.550147 
L 239.770124 173.586952 
L 240.016373 173.54712 
L 240.631996 173.645681 
L 240.878245 173.33319 
L 241.00137 173.552059 
L 241.124494 172.486707 
L 241.247619 173.131006 
L 241.370744 172.860606 
L 241.616993 173.555288 
L 241.863242 173.581204 
L 241.986367 173.474761 
L 242.478865 173.613484 
L 242.725114 173.567772 
L 244.325734 173.612938 
L 244.571983 173.496801 
L 244.818232 173.608508 
L 245.064481 173.605896 
L 245.433855 173.631142 
L 245.55698 173.54442 
L 245.926354 173.621071 
L 247.773222 173.542577 
L 248.019472 173.606477 
L 248.388845 173.556738 
L 248.635095 173.630161 
L 249.743216 173.519394 
L 249.989465 173.621309 
L 250.481963 173.624681 
L 252.698206 173.619455 
L 253.313829 173.621938 
L 253.436954 173.562317 
L 253.683203 173.626676 
L 254.545075 173.561251 
L 254.791324 173.629158 
L 259.100685 173.635102 
L 259.839432 173.635392 
L 260.57818 173.62858 
L 261.070678 173.641775 
L 261.440052 173.630029 
L 262.1788 173.634309 
L 262.671298 173.634703 
L 268.950652 173.619837 
L 269.320026 173.636669 
L 269.935649 173.626086 
L 271.04377 173.645066 
L 271.536269 173.649108 
L 272.767515 173.611865 
L 273.136888 173.605939 
L 273.629387 173.608027 
L 273.998761 173.631871 
L 277.323125 173.642295 
L 277.323125 173.642295 
" clip-path="url(#pa178260cdb)" style="fill: none; stroke: #e78ac3; stroke-linecap: round"/>
   </g>
   <g id="patch_3">
    <path d="M 50.7 181.416412 
L 50.7 10.8 
" style="fill: none; stroke: #cccccc; stroke-linejoin: miter; stroke-linecap: square"/>
   </g>
   <g id="patch_4">
    <path d="M 277.2 181.416412 
L 277.2 10.8 
" style="fill: none; stroke: #cccccc; stroke-linejoin: miter; stroke-linecap: square"/>
   </g>
   <g id="patch_5">
    <path d="M 50.7 181.416412 
L 277.2 181.416412 
" style="fill: none; stroke: #cccccc; stroke-linejoin: miter; stroke-linecap: square"/>
   </g>
   <g id="patch_6">
    <path d="M 50.7 10.8 
L 277.2 10.8 
" style="fill: none; stroke: #cccccc; stroke-linejoin: miter; stroke-linecap: square"/>
   </g>
  </g>
 </g>
 <defs>
  <clipPath id="pa178260cdb">
   <rect x="50.7" y="10.8" width="226.5" height="170.616412"/>
  </clipPath>
 </defs>
</svg>
