<?xml version="1.0" encoding="utf-8" standalone="no"?>
<!DOCTYPE svg PUBLIC "-//W3C//DTD SVG 1.1//EN"
  "http://www.w3.org/Graphics/SVG/1.1/DTD/svg11.dtd">
<svg xmlns:xlink="http://www.w3.org/1999/xlink" width="288pt" height="230.4pt" viewBox="0 0 288 230.4" xmlns="http://www.w3.org/2000/svg" version="1.1">
 <metadata>
  <rdf:RDF xmlns:dc="http://purl.org/dc/elements/1.1/" xmlns:cc="http://creativecommons.org/ns#" xmlns:rdf="http://www.w3.org/1999/02/22-rdf-syntax-ns#">
   <cc:Work>
    <dc:type rdf:resource="http://purl.org/dc/dcmitype/StillImage"/>
    <dc:date>2024-07-21T17:28:18.137305</dc:date>
    <dc:format>image/svg+xml</dc:format>
    <dc:creator>
     <cc:Agent>
      <dc:title>Matplotlib v3.9.0, https://matplotlib.org/</dc:title>
     </cc:Agent>
    </dc:creator>
   </cc:Work>
  </rdf:RDF>
 </metadata>
 <defs>
  <style type="text/css">*{stroke-linejoin: round; stroke-linecap: butt}</style>
 </defs>
 <g id="figure_1">
  <g id="patch_1">
   <path d="M 0 230.4 
L 288 230.4 
L 288 0 
L 0 0 
z
" style="fill: #ffffff"/>
  </g>
  <g id="axes_1">
   <g id="patch_2">
    <path d="M 45.12 181.416412 
L 277.2 181.416412 
L 277.2 10.8 
L 45.12 10.8 
z
" style="fill: #ffffff"/>
   </g>
   <g id="matplotlib.axis_1">
    <g id="xtick_1">
     <g id="line2d_1">
      <path d="M 240.361905 181.416412 
L 240.361905 10.8 
" clip-path="url(#p71fab0667a)" style="fill: none; stroke: #cccccc; stroke-width: 0.8; stroke-linecap: round"/>
     </g>
     <g id="line2d_2"/>
     <g id="text_1">
      <!-- 6 hours -->
      <g style="fill: #262626" transform="translate(215.373414 213.560866) rotate(-45) scale(0.1 -0.1)">
       <defs>
        <path id="ArialMT-36" d="M 3184 3459 
L 2625 3416 
Q 2550 3747 2413 3897 
Q 2184 4138 1850 4138 
Q 1581 4138 1378 3988 
Q 1113 3794 959 3422 
Q 806 3050 800 2363 
Q 1003 2672 1297 2822 
Q 1591 2972 1913 2972 
Q 2475 2972 2870 2558 
Q 3266 2144 3266 1488 
Q 3266 1056 3080 686 
Q 2894 316 2569 119 
Q 2244 -78 1831 -78 
Q 1128 -78 684 439 
Q 241 956 241 2144 
Q 241 3472 731 4075 
Q 1159 4600 1884 4600 
Q 2425 4600 2770 4297 
Q 3116 3994 3184 3459 
z
M 888 1484 
Q 888 1194 1011 928 
Q 1134 663 1356 523 
Q 1578 384 1822 384 
Q 2178 384 2434 671 
Q 2691 959 2691 1453 
Q 2691 1928 2437 2201 
Q 2184 2475 1800 2475 
Q 1419 2475 1153 2201 
Q 888 1928 888 1484 
z
" transform="scale(0.015625)"/>
        <path id="ArialMT-20" transform="scale(0.015625)"/>
        <path id="ArialMT-68" d="M 422 0 
L 422 4581 
L 984 4581 
L 984 2938 
Q 1378 3394 1978 3394 
Q 2347 3394 2619 3248 
Q 2891 3103 3008 2847 
Q 3125 2591 3125 2103 
L 3125 0 
L 2563 0 
L 2563 2103 
Q 2563 2525 2380 2717 
Q 2197 2909 1863 2909 
Q 1613 2909 1392 2779 
Q 1172 2650 1078 2428 
Q 984 2206 984 1816 
L 984 0 
L 422 0 
z
" transform="scale(0.015625)"/>
        <path id="ArialMT-6f" d="M 213 1659 
Q 213 2581 725 3025 
Q 1153 3394 1769 3394 
Q 2453 3394 2887 2945 
Q 3322 2497 3322 1706 
Q 3322 1066 3130 698 
Q 2938 331 2570 128 
Q 2203 -75 1769 -75 
Q 1072 -75 642 372 
Q 213 819 213 1659 
z
M 791 1659 
Q 791 1022 1069 705 
Q 1347 388 1769 388 
Q 2188 388 2466 706 
Q 2744 1025 2744 1678 
Q 2744 2294 2464 2611 
Q 2184 2928 1769 2928 
Q 1347 2928 1069 2612 
Q 791 2297 791 1659 
z
" transform="scale(0.015625)"/>
        <path id="ArialMT-75" d="M 2597 0 
L 2597 488 
Q 2209 -75 1544 -75 
Q 1250 -75 995 37 
Q 741 150 617 320 
Q 494 491 444 738 
Q 409 903 409 1263 
L 409 3319 
L 972 3319 
L 972 1478 
Q 972 1038 1006 884 
Q 1059 663 1231 536 
Q 1403 409 1656 409 
Q 1909 409 2131 539 
Q 2353 669 2445 892 
Q 2538 1116 2538 1541 
L 2538 3319 
L 3100 3319 
L 3100 0 
L 2597 0 
z
" transform="scale(0.015625)"/>
        <path id="ArialMT-72" d="M 416 0 
L 416 3319 
L 922 3319 
L 922 2816 
Q 1116 3169 1280 3281 
Q 1444 3394 1641 3394 
Q 1925 3394 2219 3213 
L 2025 2691 
Q 1819 2813 1613 2813 
Q 1428 2813 1281 2702 
Q 1134 2591 1072 2394 
Q 978 2094 978 1738 
L 978 0 
L 416 0 
z
" transform="scale(0.015625)"/>
        <path id="ArialMT-73" d="M 197 991 
L 753 1078 
Q 800 744 1014 566 
Q 1228 388 1613 388 
Q 2000 388 2187 545 
Q 2375 703 2375 916 
Q 2375 1106 2209 1216 
Q 2094 1291 1634 1406 
Q 1016 1563 777 1677 
Q 538 1791 414 1992 
Q 291 2194 291 2438 
Q 291 2659 392 2848 
Q 494 3038 669 3163 
Q 800 3259 1026 3326 
Q 1253 3394 1513 3394 
Q 1903 3394 2198 3281 
Q 2494 3169 2634 2976 
Q 2775 2784 2828 2463 
L 2278 2388 
Q 2241 2644 2061 2787 
Q 1881 2931 1553 2931 
Q 1166 2931 1000 2803 
Q 834 2675 834 2503 
Q 834 2394 903 2306 
Q 972 2216 1119 2156 
Q 1203 2125 1616 2013 
Q 2213 1853 2448 1751 
Q 2684 1650 2818 1456 
Q 2953 1263 2953 975 
Q 2953 694 2789 445 
Q 2625 197 2315 61 
Q 2006 -75 1616 -75 
Q 969 -75 630 194 
Q 291 463 197 991 
z
" transform="scale(0.015625)"/>
       </defs>
       <use xlink:href="#ArialMT-36"/>
       <use xlink:href="#ArialMT-20" x="55.615234"/>
       <use xlink:href="#ArialMT-68" x="83.398438"/>
       <use xlink:href="#ArialMT-6f" x="139.013672"/>
       <use xlink:href="#ArialMT-75" x="194.628906"/>
       <use xlink:href="#ArialMT-72" x="250.244141"/>
       <use xlink:href="#ArialMT-73" x="283.544922"/>
      </g>
     </g>
    </g>
    <g id="xtick_2">
     <g id="line2d_3">
      <path d="M 194.314286 181.416412 
L 194.314286 10.8 
" clip-path="url(#p71fab0667a)" style="fill: none; stroke: #cccccc; stroke-width: 0.8; stroke-linecap: round"/>
     </g>
     <g id="line2d_4"/>
     <g id="text_2">
      <!-- 8 hours -->
      <g style="fill: #262626" transform="translate(169.325795 213.560866) rotate(-45) scale(0.1 -0.1)">
       <defs>
        <path id="ArialMT-38" d="M 1131 2484 
Q 781 2613 612 2850 
Q 444 3088 444 3419 
Q 444 3919 803 4259 
Q 1163 4600 1759 4600 
Q 2359 4600 2725 4251 
Q 3091 3903 3091 3403 
Q 3091 3084 2923 2848 
Q 2756 2613 2416 2484 
Q 2838 2347 3058 2040 
Q 3278 1734 3278 1309 
Q 3278 722 2862 322 
Q 2447 -78 1769 -78 
Q 1091 -78 675 323 
Q 259 725 259 1325 
Q 259 1772 486 2073 
Q 713 2375 1131 2484 
z
M 1019 3438 
Q 1019 3113 1228 2906 
Q 1438 2700 1772 2700 
Q 2097 2700 2305 2904 
Q 2513 3109 2513 3406 
Q 2513 3716 2298 3927 
Q 2084 4138 1766 4138 
Q 1444 4138 1231 3931 
Q 1019 3725 1019 3438 
z
M 838 1322 
Q 838 1081 952 856 
Q 1066 631 1291 507 
Q 1516 384 1775 384 
Q 2178 384 2440 643 
Q 2703 903 2703 1303 
Q 2703 1709 2433 1975 
Q 2163 2241 1756 2241 
Q 1359 2241 1098 1978 
Q 838 1716 838 1322 
z
" transform="scale(0.015625)"/>
       </defs>
       <use xlink:href="#ArialMT-38"/>
       <use xlink:href="#ArialMT-20" x="55.615234"/>
       <use xlink:href="#ArialMT-68" x="83.398438"/>
       <use xlink:href="#ArialMT-6f" x="139.013672"/>
       <use xlink:href="#ArialMT-75" x="194.628906"/>
       <use xlink:href="#ArialMT-72" x="250.244141"/>
       <use xlink:href="#ArialMT-73" x="283.544922"/>
      </g>
     </g>
    </g>
    <g id="xtick_3">
     <g id="line2d_5">
      <path d="M 148.266667 181.416412 
L 148.266667 10.8 
" clip-path="url(#p71fab0667a)" style="fill: none; stroke: #cccccc; stroke-width: 0.8; stroke-linecap: round"/>
     </g>
     <g id="line2d_6"/>
     <g id="text_3">
      <!-- 12 hours -->
      <g style="fill: #262626" transform="translate(119.345999 217.493043) rotate(-45) scale(0.1 -0.1)">
       <defs>
        <path id="ArialMT-31" d="M 2384 0 
L 1822 0 
L 1822 3584 
Q 1619 3391 1289 3197 
Q 959 3003 697 2906 
L 697 3450 
Q 1169 3672 1522 3987 
Q 1875 4303 2022 4600 
L 2384 4600 
L 2384 0 
z
" transform="scale(0.015625)"/>
        <path id="ArialMT-32" d="M 3222 541 
L 3222 0 
L 194 0 
Q 188 203 259 391 
Q 375 700 629 1000 
Q 884 1300 1366 1694 
Q 2113 2306 2375 2664 
Q 2638 3022 2638 3341 
Q 2638 3675 2398 3904 
Q 2159 4134 1775 4134 
Q 1369 4134 1125 3890 
Q 881 3647 878 3216 
L 300 3275 
Q 359 3922 746 4261 
Q 1134 4600 1788 4600 
Q 2447 4600 2831 4234 
Q 3216 3869 3216 3328 
Q 3216 3053 3103 2787 
Q 2991 2522 2730 2228 
Q 2469 1934 1863 1422 
Q 1356 997 1212 845 
Q 1069 694 975 541 
L 3222 541 
z
" transform="scale(0.015625)"/>
       </defs>
       <use xlink:href="#ArialMT-31"/>
       <use xlink:href="#ArialMT-32" x="55.615234"/>
       <use xlink:href="#ArialMT-20" x="111.230469"/>
       <use xlink:href="#ArialMT-68" x="139.013672"/>
       <use xlink:href="#ArialMT-6f" x="194.628906"/>
       <use xlink:href="#ArialMT-75" x="250.244141"/>
       <use xlink:href="#ArialMT-72" x="305.859375"/>
       <use xlink:href="#ArialMT-73" x="339.160156"/>
      </g>
     </g>
    </g>
    <g id="xtick_4">
     <g id="line2d_7">
      <path d="M 102.219048 181.416412 
L 102.219048 10.8 
" clip-path="url(#p71fab0667a)" style="fill: none; stroke: #cccccc; stroke-width: 0.8; stroke-linecap: round"/>
     </g>
     <g id="line2d_8"/>
     <g id="text_4">
      <!-- Daily -->
      <g style="fill: #262626" transform="translate(85.014256 205.694303) rotate(-45) scale(0.1 -0.1)">
       <defs>
        <path id="ArialMT-44" d="M 494 0 
L 494 4581 
L 2072 4581 
Q 2606 4581 2888 4516 
Q 3281 4425 3559 4188 
Q 3922 3881 4101 3404 
Q 4281 2928 4281 2316 
Q 4281 1794 4159 1391 
Q 4038 988 3847 723 
Q 3656 459 3429 307 
Q 3203 156 2883 78 
Q 2563 0 2147 0 
L 494 0 
z
M 1100 541 
L 2078 541 
Q 2531 541 2789 625 
Q 3047 709 3200 863 
Q 3416 1078 3536 1442 
Q 3656 1806 3656 2325 
Q 3656 3044 3420 3430 
Q 3184 3816 2847 3947 
Q 2603 4041 2063 4041 
L 1100 4041 
L 1100 541 
z
" transform="scale(0.015625)"/>
        <path id="ArialMT-61" d="M 2588 409 
Q 2275 144 1986 34 
Q 1697 -75 1366 -75 
Q 819 -75 525 192 
Q 231 459 231 875 
Q 231 1119 342 1320 
Q 453 1522 633 1644 
Q 813 1766 1038 1828 
Q 1203 1872 1538 1913 
Q 2219 1994 2541 2106 
Q 2544 2222 2544 2253 
Q 2544 2597 2384 2738 
Q 2169 2928 1744 2928 
Q 1347 2928 1158 2789 
Q 969 2650 878 2297 
L 328 2372 
Q 403 2725 575 2942 
Q 747 3159 1072 3276 
Q 1397 3394 1825 3394 
Q 2250 3394 2515 3294 
Q 2781 3194 2906 3042 
Q 3031 2891 3081 2659 
Q 3109 2516 3109 2141 
L 3109 1391 
Q 3109 606 3145 398 
Q 3181 191 3288 0 
L 2700 0 
Q 2613 175 2588 409 
z
M 2541 1666 
Q 2234 1541 1622 1453 
Q 1275 1403 1131 1340 
Q 988 1278 909 1158 
Q 831 1038 831 891 
Q 831 666 1001 516 
Q 1172 366 1500 366 
Q 1825 366 2078 508 
Q 2331 650 2450 897 
Q 2541 1088 2541 1459 
L 2541 1666 
z
" transform="scale(0.015625)"/>
        <path id="ArialMT-69" d="M 425 3934 
L 425 4581 
L 988 4581 
L 988 3934 
L 425 3934 
z
M 425 0 
L 425 3319 
L 988 3319 
L 988 0 
L 425 0 
z
" transform="scale(0.015625)"/>
        <path id="ArialMT-6c" d="M 409 0 
L 409 4581 
L 972 4581 
L 972 0 
L 409 0 
z
" transform="scale(0.015625)"/>
        <path id="ArialMT-79" d="M 397 -1278 
L 334 -750 
Q 519 -800 656 -800 
Q 844 -800 956 -737 
Q 1069 -675 1141 -563 
Q 1194 -478 1313 -144 
Q 1328 -97 1363 -6 
L 103 3319 
L 709 3319 
L 1400 1397 
Q 1534 1031 1641 628 
Q 1738 1016 1872 1384 
L 2581 3319 
L 3144 3319 
L 1881 -56 
Q 1678 -603 1566 -809 
Q 1416 -1088 1222 -1217 
Q 1028 -1347 759 -1347 
Q 597 -1347 397 -1278 
z
" transform="scale(0.015625)"/>
       </defs>
       <use xlink:href="#ArialMT-44"/>
       <use xlink:href="#ArialMT-61" x="72.216797"/>
       <use xlink:href="#ArialMT-69" x="127.832031"/>
       <use xlink:href="#ArialMT-6c" x="150.048828"/>
       <use xlink:href="#ArialMT-79" x="172.265625"/>
      </g>
     </g>
    </g>
    <g id="xtick_5">
     <g id="line2d_9">
      <path d="M 62.74966 181.416412 
L 62.74966 10.8 
" clip-path="url(#p71fab0667a)" style="fill: none; stroke: #cccccc; stroke-width: 0.8; stroke-linecap: round"/>
     </g>
     <g id="line2d_10"/>
     <g id="text_5">
      <!-- Weekly -->
      <g style="fill: #262626" transform="translate(38.204216 213.034955) rotate(-45) scale(0.1 -0.1)">
       <defs>
        <path id="ArialMT-57" d="M 1294 0 
L 78 4581 
L 700 4581 
L 1397 1578 
Q 1509 1106 1591 641 
Q 1766 1375 1797 1488 
L 2669 4581 
L 3400 4581 
L 4056 2263 
Q 4303 1400 4413 641 
Q 4500 1075 4641 1638 
L 5359 4581 
L 5969 4581 
L 4713 0 
L 4128 0 
L 3163 3491 
Q 3041 3928 3019 4028 
Q 2947 3713 2884 3491 
L 1913 0 
L 1294 0 
z
" transform="scale(0.015625)"/>
        <path id="ArialMT-65" d="M 2694 1069 
L 3275 997 
Q 3138 488 2766 206 
Q 2394 -75 1816 -75 
Q 1088 -75 661 373 
Q 234 822 234 1631 
Q 234 2469 665 2931 
Q 1097 3394 1784 3394 
Q 2450 3394 2872 2941 
Q 3294 2488 3294 1666 
Q 3294 1616 3291 1516 
L 816 1516 
Q 847 969 1125 678 
Q 1403 388 1819 388 
Q 2128 388 2347 550 
Q 2566 713 2694 1069 
z
M 847 1978 
L 2700 1978 
Q 2663 2397 2488 2606 
Q 2219 2931 1791 2931 
Q 1403 2931 1139 2672 
Q 875 2413 847 1978 
z
" transform="scale(0.015625)"/>
        <path id="ArialMT-6b" d="M 425 0 
L 425 4581 
L 988 4581 
L 988 1969 
L 2319 3319 
L 3047 3319 
L 1778 2088 
L 3175 0 
L 2481 0 
L 1384 1697 
L 988 1316 
L 988 0 
L 425 0 
z
" transform="scale(0.015625)"/>
       </defs>
       <use xlink:href="#ArialMT-57"/>
       <use xlink:href="#ArialMT-65" x="92.634766"/>
       <use xlink:href="#ArialMT-65" x="148.25"/>
       <use xlink:href="#ArialMT-6b" x="203.865234"/>
       <use xlink:href="#ArialMT-6c" x="253.865234"/>
       <use xlink:href="#ArialMT-79" x="276.082031"/>
      </g>
     </g>
    </g>
   </g>
   <g id="matplotlib.axis_2">
    <g id="ytick_1">
     <g id="line2d_11"/>
     <g id="text_6">
      <!-- 0 -->
      <g style="fill: #262626" transform="translate(36.059063 177.242606) scale(0.1 -0.1)">
       <defs>
        <path id="ArialMT-30" d="M 266 2259 
Q 266 3072 433 3567 
Q 600 4063 929 4331 
Q 1259 4600 1759 4600 
Q 2128 4600 2406 4451 
Q 2684 4303 2865 4023 
Q 3047 3744 3150 3342 
Q 3253 2941 3253 2259 
Q 3253 1453 3087 958 
Q 2922 463 2592 192 
Q 2263 -78 1759 -78 
Q 1097 -78 719 397 
Q 266 969 266 2259 
z
M 844 2259 
Q 844 1131 1108 757 
Q 1372 384 1759 384 
Q 2147 384 2411 759 
Q 2675 1134 2675 2259 
Q 2675 3391 2411 3762 
Q 2147 4134 1753 4134 
Q 1366 4134 1134 3806 
Q 844 3388 844 2259 
z
" transform="scale(0.015625)"/>
       </defs>
       <use xlink:href="#ArialMT-30"/>
      </g>
     </g>
    </g>
    <g id="ytick_2">
     <g id="line2d_12"/>
     <g id="text_7">
      <!-- 100 -->
      <g style="fill: #262626" transform="translate(24.937188 154.876281) scale(0.1 -0.1)">
       <use xlink:href="#ArialMT-31"/>
       <use xlink:href="#ArialMT-30" x="55.615234"/>
       <use xlink:href="#ArialMT-30" x="111.230469"/>
      </g>
     </g>
    </g>
    <g id="ytick_3">
     <g id="line2d_13"/>
     <g id="text_8">
      <!-- 200 -->
      <g style="fill: #262626" transform="translate(24.937188 132.509956) scale(0.1 -0.1)">
       <use xlink:href="#ArialMT-32"/>
       <use xlink:href="#ArialMT-30" x="55.615234"/>
       <use xlink:href="#ArialMT-30" x="111.230469"/>
      </g>
     </g>
    </g>
    <g id="ytick_4">
     <g id="line2d_14"/>
     <g id="text_9">
      <!-- 300 -->
      <g style="fill: #262626" transform="translate(24.937188 110.143631) scale(0.1 -0.1)">
       <defs>
        <path id="ArialMT-33" d="M 269 1209 
L 831 1284 
Q 928 806 1161 595 
Q 1394 384 1728 384 
Q 2125 384 2398 659 
Q 2672 934 2672 1341 
Q 2672 1728 2419 1979 
Q 2166 2231 1775 2231 
Q 1616 2231 1378 2169 
L 1441 2663 
Q 1497 2656 1531 2656 
Q 1891 2656 2178 2843 
Q 2466 3031 2466 3422 
Q 2466 3731 2256 3934 
Q 2047 4138 1716 4138 
Q 1388 4138 1169 3931 
Q 950 3725 888 3313 
L 325 3413 
Q 428 3978 793 4289 
Q 1159 4600 1703 4600 
Q 2078 4600 2393 4439 
Q 2709 4278 2876 4000 
Q 3044 3722 3044 3409 
Q 3044 3113 2884 2869 
Q 2725 2625 2413 2481 
Q 2819 2388 3044 2092 
Q 3269 1797 3269 1353 
Q 3269 753 2831 336 
Q 2394 -81 1725 -81 
Q 1122 -81 723 278 
Q 325 638 269 1209 
z
" transform="scale(0.015625)"/>
       </defs>
       <use xlink:href="#ArialMT-33"/>
       <use xlink:href="#ArialMT-30" x="55.615234"/>
       <use xlink:href="#ArialMT-30" x="111.230469"/>
      </g>
     </g>
    </g>
    <g id="ytick_5">
     <g id="line2d_15"/>
     <g id="text_10">
      <!-- 400 -->
      <g style="fill: #262626" transform="translate(24.937188 87.777306) scale(0.1 -0.1)">
       <defs>
        <path id="ArialMT-34" d="M 2069 0 
L 2069 1097 
L 81 1097 
L 81 1613 
L 2172 4581 
L 2631 4581 
L 2631 1613 
L 3250 1613 
L 3250 1097 
L 2631 1097 
L 2631 0 
L 2069 0 
z
M 2069 1613 
L 2069 3678 
L 634 1613 
L 2069 1613 
z
" transform="scale(0.015625)"/>
       </defs>
       <use xlink:href="#ArialMT-34"/>
       <use xlink:href="#ArialMT-30" x="55.615234"/>
       <use xlink:href="#ArialMT-30" x="111.230469"/>
      </g>
     </g>
    </g>
    <g id="ytick_6">
     <g id="line2d_16"/>
     <g id="text_11">
      <!-- 500 -->
      <g style="fill: #262626" transform="translate(24.937188 65.410981) scale(0.1 -0.1)">
       <defs>
        <path id="ArialMT-35" d="M 266 1200 
L 856 1250 
Q 922 819 1161 601 
Q 1400 384 1738 384 
Q 2144 384 2425 690 
Q 2706 997 2706 1503 
Q 2706 1984 2436 2262 
Q 2166 2541 1728 2541 
Q 1456 2541 1237 2417 
Q 1019 2294 894 2097 
L 366 2166 
L 809 4519 
L 3088 4519 
L 3088 3981 
L 1259 3981 
L 1013 2750 
Q 1425 3038 1878 3038 
Q 2478 3038 2890 2622 
Q 3303 2206 3303 1553 
Q 3303 931 2941 478 
Q 2500 -78 1738 -78 
Q 1113 -78 717 272 
Q 322 622 266 1200 
z
" transform="scale(0.015625)"/>
       </defs>
       <use xlink:href="#ArialMT-35"/>
       <use xlink:href="#ArialMT-30" x="55.615234"/>
       <use xlink:href="#ArialMT-30" x="111.230469"/>
      </g>
     </g>
    </g>
    <g id="ytick_7">
     <g id="line2d_17"/>
     <g id="text_12">
      <!-- 600 -->
      <g style="fill: #262626" transform="translate(24.937188 43.044656) scale(0.1 -0.1)">
       <use xlink:href="#ArialMT-36"/>
       <use xlink:href="#ArialMT-30" x="55.615234"/>
       <use xlink:href="#ArialMT-30" x="111.230469"/>
      </g>
     </g>
    </g>
    <g id="ytick_8">
     <g id="line2d_18"/>
     <g id="text_13">
      <!-- 700 -->
      <g style="fill: #262626" transform="translate(24.937188 20.678331) scale(0.1 -0.1)">
       <defs>
        <path id="ArialMT-37" d="M 303 3981 
L 303 4522 
L 3269 4522 
L 3269 4084 
Q 2831 3619 2401 2847 
Q 1972 2075 1738 1259 
Q 1569 684 1522 0 
L 944 0 
Q 953 541 1156 1306 
Q 1359 2072 1739 2783 
Q 2119 3494 2547 3981 
L 303 3981 
z
" transform="scale(0.015625)"/>
       </defs>
       <use xlink:href="#ArialMT-37"/>
       <use xlink:href="#ArialMT-30" x="55.615234"/>
       <use xlink:href="#ArialMT-30" x="111.230469"/>
      </g>
     </g>
    </g>
    <g id="text_14">
     <!-- GW -->
     <g style="fill: #262626" transform="translate(18.949688 104.7168) rotate(-90) scale(0.1 -0.1)">
      <defs>
       <path id="ArialMT-47" d="M 2638 1797 
L 2638 2334 
L 4578 2338 
L 4578 638 
Q 4131 281 3656 101 
Q 3181 -78 2681 -78 
Q 2006 -78 1454 211 
Q 903 500 622 1047 
Q 341 1594 341 2269 
Q 341 2938 620 3517 
Q 900 4097 1425 4378 
Q 1950 4659 2634 4659 
Q 3131 4659 3532 4498 
Q 3934 4338 4162 4050 
Q 4391 3763 4509 3300 
L 3963 3150 
Q 3859 3500 3706 3700 
Q 3553 3900 3268 4020 
Q 2984 4141 2638 4141 
Q 2222 4141 1919 4014 
Q 1616 3888 1430 3681 
Q 1244 3475 1141 3228 
Q 966 2803 966 2306 
Q 966 1694 1177 1281 
Q 1388 869 1791 669 
Q 2194 469 2647 469 
Q 3041 469 3416 620 
Q 3791 772 3984 944 
L 3984 1797 
L 2638 1797 
z
" transform="scale(0.015625)"/>
      </defs>
      <use xlink:href="#ArialMT-47"/>
      <use xlink:href="#ArialMT-57" x="77.783203"/>
     </g>
    </g>
   </g>
   <g id="line2d_19">
    <path d="M 56.171429 18.555291 
L 56.297586 149.57428 
L 56.423744 152.305001 
L 56.549902 171.925331 
L 56.67606 169.177178 
L 56.802218 163.026226 
L 56.928376 169.164953 
L 57.054534 166.739228 
L 57.180691 169.670347 
L 57.306849 167.809778 
L 57.433007 160.551949 
L 57.685323 171.500427 
L 57.811481 165.541418 
L 57.937639 165.093009 
L 58.063796 170.41995 
L 58.189954 169.069104 
L 58.316112 171.478335 
L 58.44227 170.091522 
L 58.568428 171.874721 
L 58.694586 165.364869 
L 58.820744 164.743318 
L 58.946902 171.973529 
L 59.073059 163.494667 
L 59.325375 168.679686 
L 59.451533 171.277456 
L 59.577691 170.645486 
L 59.703849 166.360144 
L 59.830007 165.863032 
L 59.956164 171.926431 
L 60.082322 168.139415 
L 60.20848 168.942871 
L 60.334638 170.75516 
L 60.586954 165.772638 
L 60.713112 165.494506 
L 60.839269 165.579211 
L 60.965427 169.347995 
L 61.091585 169.23693 
L 61.217743 164.156496 
L 61.343901 170.237305 
L 61.596217 166.011848 
L 61.722374 170.331367 
L 61.848532 167.629112 
L 61.97469 170.594613 
L 62.100848 170.250362 
L 62.227006 169.370684 
L 62.479322 165.993379 
L 62.605479 171.594874 
L 62.731637 160.55172 
L 62.857795 172.055831 
L 62.983953 170.239353 
L 63.110111 171.16401 
L 63.236269 169.20845 
L 63.488584 172.187569 
L 63.614742 170.07616 
L 63.7409 171.074781 
L 63.867058 168.320322 
L 64.245532 172.149138 
L 64.371689 170.046111 
L 64.497847 169.869225 
L 64.624005 172.512133 
L 64.750163 168.362533 
L 64.876321 170.602931 
L 65.002479 169.532326 
L 65.128637 171.186059 
L 65.254795 167.08353 
L 65.380952 167.559701 
L 65.50711 166.242495 
L 65.633268 172.3499 
L 65.759426 170.92802 
L 65.885584 171.980332 
L 66.011742 170.223543 
L 66.1379 172.597774 
L 66.264057 171.772232 
L 66.390215 172.550666 
L 66.516373 171.917255 
L 66.642531 172.537286 
L 66.768689 171.325124 
L 66.894847 172.206103 
L 67.147162 171.307225 
L 67.27332 168.58367 
L 67.399478 170.060688 
L 67.525636 169.606217 
L 67.651794 171.642464 
L 67.777952 171.740906 
L 67.90411 172.999792 
L 68.030267 170.745763 
L 68.156425 173.220628 
L 68.408741 171.97411 
L 68.534899 172.04123 
L 68.661057 172.271585 
L 68.787215 170.488343 
L 68.913372 172.613228 
L 69.165688 171.09495 
L 69.291846 165.331725 
L 69.418004 170.810413 
L 69.544162 170.957781 
L 69.67032 170.818995 
L 69.922635 172.475848 
L 70.048793 169.545094 
L 70.174951 170.997859 
L 70.301109 169.686788 
L 70.553425 173.151768 
L 70.679583 171.598702 
L 70.80574 172.446304 
L 70.931898 170.404953 
L 71.058056 173.419525 
L 71.184214 172.318416 
L 71.310372 172.741183 
L 71.562688 171.231629 
L 71.688845 172.8316 
L 71.815003 172.431946 
L 71.941161 170.926658 
L 72.067319 172.647893 
L 72.193477 172.594438 
L 72.319635 172.953882 
L 72.445793 171.49328 
L 72.57195 173.15902 
L 72.698108 170.89865 
L 72.824266 171.39588 
L 72.950424 172.600041 
L 73.076582 172.030266 
L 73.20274 173.213735 
L 73.455055 171.189996 
L 73.581213 170.743802 
L 73.833529 173.357171 
L 73.959687 172.746952 
L 74.085845 171.463127 
L 74.212003 171.383837 
L 74.33816 172.603891 
L 74.464318 172.404528 
L 74.590476 173.143765 
L 74.716634 171.89837 
L 74.842792 172.324721 
L 74.96895 172.110215 
L 75.221265 173.207069 
L 75.347423 171.641227 
L 75.473581 172.597824 
L 75.725897 171.757688 
L 75.852055 171.618736 
L 75.978213 172.866504 
L 76.104371 170.991086 
L 76.230528 172.676265 
L 76.356686 172.525723 
L 76.609002 171.927223 
L 76.73516 171.901112 
L 76.861318 172.184715 
L 76.987476 172.188711 
L 77.239791 172.817346 
L 77.492107 172.259834 
L 77.744423 173.199188 
L 77.870581 173.10566 
L 77.996738 171.522211 
L 78.122896 173.198878 
L 78.249054 172.224364 
L 78.375212 173.124337 
L 78.627528 170.589985 
L 78.879843 172.219103 
L 79.132159 172.597327 
L 79.258317 172.636341 
L 79.384475 172.87054 
L 79.510633 172.538414 
L 79.636791 173.008983 
L 79.762948 172.447011 
L 79.889106 172.426774 
L 80.015264 173.112721 
L 80.141422 171.519997 
L 80.26758 173.071311 
L 80.393738 172.87754 
L 80.519896 171.944321 
L 80.646053 173.287872 
L 80.772211 173.259315 
L 80.898369 172.032642 
L 81.276843 172.777706 
L 81.655316 171.729709 
L 81.781474 172.005747 
L 82.03379 173.010428 
L 82.159948 172.817292 
L 82.412264 173.015327 
L 82.538421 171.536647 
L 82.790737 173.344979 
L 83.043053 171.268555 
L 83.169211 173.177979 
L 83.295369 173.135896 
L 83.421526 172.033352 
L 83.547684 172.699902 
L 83.673842 172.214634 
L 83.8 173.065848 
L 84.052316 172.056937 
L 84.178474 172.202722 
L 84.304631 172.273664 
L 84.430789 172.71639 
L 84.556947 172.675994 
L 84.683105 171.420517 
L 84.809263 172.475667 
L 85.061579 172.042775 
L 85.187736 173.323229 
L 85.313894 172.767852 
L 85.440052 173.069394 
L 85.692368 172.034515 
L 85.818526 172.778288 
L 85.944684 172.778716 
L 86.070841 172.144741 
L 86.323157 172.522681 
L 86.449315 173.19084 
L 86.575473 172.583827 
L 86.701631 172.837606 
L 86.827789 172.038593 
L 86.953947 173.18375 
L 87.206262 172.742605 
L 87.33242 173.169889 
L 87.458578 171.865121 
L 87.584736 173.594003 
L 87.710894 173.262254 
L 87.837052 171.769437 
L 87.963209 172.788864 
L 88.089367 170.573235 
L 88.215525 173.086225 
L 88.341683 171.650245 
L 88.467841 173.191919 
L 88.593999 172.33161 
L 88.720157 170.238562 
L 88.972472 171.904415 
L 89.09863 169.209592 
L 89.224788 171.527918 
L 89.350946 171.412546 
L 89.477104 173.100929 
L 89.603262 172.223243 
L 89.729419 172.940115 
L 89.855577 171.632355 
L 89.981735 173.26285 
L 90.234051 171.822234 
L 90.360209 171.931946 
L 90.486367 172.694511 
L 90.612524 171.132961 
L 90.738682 172.5494 
L 90.86484 169.072646 
L 90.990998 170.899439 
L 91.117156 170.32548 
L 91.243314 171.547977 
L 91.495629 171.25943 
L 91.621787 173.433112 
L 91.747945 173.525234 
L 91.874103 171.454329 
L 92.000261 172.600188 
L 92.126419 172.590843 
L 92.252577 170.939283 
L 92.378735 171.461893 
L 92.504892 173.118261 
L 92.63105 171.498067 
L 92.757208 172.28933 
L 92.883366 168.720651 
L 93.009524 171.257871 
L 93.135682 169.057738 
L 93.26184 172.300823 
L 93.387997 172.05146 
L 93.514155 172.941313 
L 93.640313 171.368319 
L 93.766471 171.44577 
L 93.892629 171.681604 
L 94.144945 172.754412 
L 94.271102 172.331139 
L 94.39726 171.004307 
L 94.649576 172.150206 
L 94.775734 169.99254 
L 94.901892 173.017831 
L 95.02805 173.215395 
L 95.280365 171.360372 
L 95.406523 171.098293 
L 95.532681 171.693767 
L 95.658839 164.938549 
L 95.784997 172.511429 
L 95.911155 166.481727 
L 96.037312 167.690718 
L 96.289628 172.843384 
L 96.415786 172.634005 
L 96.541944 169.860255 
L 96.668102 171.467651 
L 96.79426 168.637164 
L 96.920417 169.00448 
L 97.046575 170.345285 
L 97.172733 168.121414 
L 97.298891 171.321136 
L 97.425049 171.262662 
L 97.677365 168.075748 
L 97.803523 170.922379 
L 97.92968 169.492032 
L 98.055838 173.158036 
L 98.308154 169.75551 
L 98.434312 171.604125 
L 98.56047 169.25252 
L 98.686628 172.623902 
L 98.812785 171.028399 
L 98.938943 171.191043 
L 99.065101 172.351654 
L 99.317417 168.771442 
L 99.443575 172.253089 
L 99.569733 170.107006 
L 99.69589 170.477774 
L 99.822048 173.107184 
L 99.948206 171.754588 
L 100.074364 172.382666 
L 100.200522 171.79098 
L 100.32668 172.660501 
L 100.452838 166.830557 
L 100.705153 171.381546 
L 100.831311 170.875532 
L 100.957469 166.794248 
L 101.083627 170.08271 
L 101.335943 168.65148 
L 101.840574 173.135717 
L 102.09289 149.755723 
L 102.219048 93.083285 
L 102.345205 170.634609 
L 102.471363 161.359813 
L 102.597521 172.998656 
L 102.849837 169.092291 
L 102.975995 169.987834 
L 103.102153 169.125312 
L 103.228311 171.172465 
L 103.354468 171.388676 
L 103.480626 165.530668 
L 103.732942 170.936364 
L 103.8591 170.971964 
L 103.985258 169.281203 
L 104.111416 171.335208 
L 104.237573 170.997138 
L 104.363731 172.434729 
L 104.489889 171.85781 
L 104.616047 172.213797 
L 104.868363 167.512067 
L 104.994521 172.128114 
L 105.120678 169.550597 
L 105.246836 170.347618 
L 105.372994 169.941417 
L 105.62531 171.615404 
L 105.751468 169.451498 
L 105.877626 169.209438 
L 106.003783 171.144285 
L 106.129941 171.35496 
L 106.382257 172.247847 
L 106.508415 169.135974 
L 106.760731 168.385456 
L 106.886888 168.819538 
L 107.013046 170.900576 
L 107.139204 170.356222 
L 107.265362 170.724197 
L 107.39152 172.088534 
L 107.643836 168.72259 
L 107.769993 170.13977 
L 107.896151 169.458727 
L 108.148467 172.369555 
L 108.526941 168.443852 
L 108.653098 170.417279 
L 108.779256 167.213668 
L 108.905414 172.682535 
L 109.031572 170.359098 
L 109.15773 172.190902 
L 109.283888 171.781883 
L 109.410046 173.140613 
L 109.662361 172.122873 
L 109.788519 172.459987 
L 109.914677 168.51271 
L 110.040835 172.147041 
L 110.293151 172.311485 
L 110.419309 172.132858 
L 110.545466 170.448851 
L 110.671624 172.941834 
L 110.797782 170.78784 
L 110.92394 172.522082 
L 111.050098 171.24399 
L 111.176256 171.934721 
L 111.302414 168.827155 
L 111.554729 170.79653 
L 111.680887 172.459316 
L 111.807045 171.806389 
L 111.933203 172.481858 
L 112.059361 171.684999 
L 112.185519 171.704426 
L 112.311676 172.812824 
L 112.437834 172.877196 
L 112.563992 172.671393 
L 112.69015 173.433533 
L 112.816308 172.797965 
L 112.942466 173.154637 
L 113.320939 170.843598 
L 113.447097 172.376758 
L 113.573255 171.451502 
L 113.951729 173.063782 
L 114.077886 171.726728 
L 114.204044 172.976239 
L 114.45636 172.371153 
L 114.582518 171.320624 
L 114.708676 173.174999 
L 114.834834 172.619902 
L 114.960992 173.233931 
L 115.213307 171.697375 
L 115.339465 168.813242 
L 115.591781 172.343222 
L 115.717939 171.663908 
L 115.970254 173.39764 
L 116.096412 171.49928 
L 116.22257 172.590898 
L 116.348728 171.289226 
L 116.474886 172.906407 
L 116.853359 171.726579 
L 116.979517 171.983382 
L 117.105675 173.19436 
L 117.231833 172.736219 
L 117.357991 172.949927 
L 117.484149 172.791084 
L 117.610307 171.696367 
L 117.736464 172.70302 
L 117.862622 172.396765 
L 118.114938 173.482591 
L 118.241096 172.53476 
L 118.367254 173.184926 
L 118.493412 173.143826 
L 118.871885 172.236491 
L 119.124201 173.372327 
L 119.502674 171.771997 
L 119.75499 172.926442 
L 119.881148 173.409579 
L 120.133464 172.363848 
L 120.259622 172.500435 
L 120.38578 172.357532 
L 120.638095 173.272804 
L 120.764253 171.789175 
L 120.890411 173.344536 
L 121.016569 172.773034 
L 121.142727 173.316257 
L 121.268885 172.341677 
L 121.395042 172.666979 
L 121.5212 173.353855 
L 121.899674 171.551374 
L 122.025832 173.262076 
L 122.15199 171.47279 
L 122.404305 173.111527 
L 122.530463 172.472325 
L 122.656621 173.28353 
L 122.908937 171.722367 
L 123.035095 172.736063 
L 123.161252 172.024381 
L 123.28741 173.361198 
L 123.413568 172.726896 
L 123.539726 173.301866 
L 123.665884 172.986154 
L 123.792042 173.478261 
L 123.9182 173.250874 
L 124.044357 172.658317 
L 124.170515 173.575964 
L 124.296673 172.534712 
L 124.422831 172.839528 
L 124.548989 172.342345 
L 124.675147 172.897466 
L 124.801305 172.011493 
L 124.927462 172.863548 
L 125.05362 172.921286 
L 125.179778 172.411813 
L 125.432094 173.522671 
L 125.68441 172.347257 
L 125.810568 173.120221 
L 125.936725 172.994968 
L 126.062883 173.202389 
L 126.189041 171.860459 
L 126.315199 173.056438 
L 126.567515 172.88403 
L 126.693673 173.439644 
L 126.81983 173.136339 
L 126.945988 172.357299 
L 127.072146 173.354222 
L 127.324462 171.630112 
L 127.45062 172.760806 
L 127.576778 172.82632 
L 127.702935 173.17312 
L 127.829093 172.28601 
L 127.955251 173.108935 
L 128.081409 172.773756 
L 128.207567 173.351839 
L 128.333725 173.069095 
L 128.459883 173.076729 
L 128.58604 172.178974 
L 128.838356 173.208978 
L 129.090672 172.312331 
L 129.21683 173.288401 
L 129.342988 173.221981 
L 129.469145 172.447209 
L 129.595303 172.479606 
L 129.721461 172.697072 
L 129.847619 173.391379 
L 129.973777 173.221592 
L 130.226093 172.253509 
L 130.35225 172.578362 
L 130.478408 173.442925 
L 130.730724 172.656359 
L 130.98304 173.06923 
L 131.109198 172.329974 
L 131.361513 173.483594 
L 131.487671 172.627618 
L 131.613829 172.98015 
L 131.739987 172.310462 
L 131.992303 173.061363 
L 132.118461 172.681163 
L 132.496934 173.029559 
L 132.623092 172.869904 
L 132.74925 173.016765 
L 132.875408 172.891065 
L 133.001566 172.566451 
L 133.380039 173.128718 
L 133.506197 172.158801 
L 133.632355 172.864409 
L 133.758513 172.78255 
L 133.884671 173.070214 
L 134.010828 173.01073 
L 134.136986 171.926951 
L 134.389302 172.992651 
L 134.51546 172.910537 
L 134.641618 172.561823 
L 134.767776 170.624011 
L 134.893933 172.093831 
L 135.020091 171.821298 
L 135.146249 170.291193 
L 135.272407 172.622799 
L 135.398565 171.750712 
L 135.524723 173.094938 
L 135.777038 172.556466 
L 135.903196 172.04235 
L 136.029354 173.303358 
L 136.155512 172.510393 
L 136.28167 173.139065 
L 136.407828 172.860263 
L 136.533986 173.260253 
L 136.660144 171.263865 
L 136.786301 172.787666 
L 136.912459 170.467919 
L 137.038617 171.942751 
L 137.290933 172.254378 
L 137.417091 173.212186 
L 137.543249 172.404227 
L 137.669406 173.370928 
L 137.795564 172.319063 
L 138.04788 173.314288 
L 138.174038 173.073001 
L 138.426354 171.93509 
L 138.552511 172.276191 
L 138.678669 171.124513 
L 138.804827 171.892224 
L 138.930985 170.012775 
L 139.057143 172.467248 
L 139.183301 171.312235 
L 139.309459 173.06022 
L 139.435616 172.702257 
L 139.561774 173.226724 
L 139.687932 171.768656 
L 139.81409 172.993783 
L 140.066406 172.459643 
L 140.318721 173.087941 
L 140.444879 171.591783 
L 140.697195 172.621893 
L 140.823353 171.281399 
L 141.075669 173.20575 
L 141.327984 171.468425 
L 141.454142 172.115073 
L 141.5803 171.918587 
L 141.706458 167.418227 
L 141.832616 172.001414 
L 141.958774 169.912885 
L 142.084932 170.49603 
L 142.211089 172.843368 
L 142.337247 172.448678 
L 142.463405 173.45858 
L 142.589563 170.655994 
L 142.715721 171.838816 
L 142.841879 170.999831 
L 142.968037 171.322697 
L 143.094194 170.591018 
L 143.220352 170.734105 
L 143.34651 172.995843 
L 143.598826 171.525002 
L 143.724984 170.612281 
L 143.851142 172.546388 
L 143.977299 171.620529 
L 144.229615 172.307702 
L 144.355773 170.602299 
L 144.481931 172.411607 
L 144.608089 171.441263 
L 144.734247 172.891681 
L 144.860404 171.738152 
L 145.238878 172.623829 
L 145.365036 171.549483 
L 145.491194 173.045417 
L 145.617352 171.611944 
L 145.869667 173.031142 
L 145.995825 172.263871 
L 146.121983 173.317152 
L 146.374299 172.793294 
L 146.500457 169.717682 
L 146.87893 172.821007 
L 147.005088 171.527591 
L 147.131246 171.72522 
L 147.383562 169.666789 
L 147.635877 171.148972 
L 147.888193 172.572072 
L 148.266667 136.016381 
L 148.392825 167.685893 
L 148.518982 166.663973 
L 148.64514 170.519873 
L 148.771298 170.968437 
L 148.897456 169.660744 
L 149.023614 171.471909 
L 149.149772 170.57337 
L 149.402087 172.391079 
L 149.528245 169.680812 
L 149.780561 172.379941 
L 150.032877 170.885478 
L 150.159035 172.545064 
L 150.285192 172.058734 
L 150.41135 172.863977 
L 150.537508 172.835299 
L 150.663666 173.265534 
L 150.915982 169.668706 
L 151.04214 173.034411 
L 151.420613 170.748866 
L 151.672929 172.156863 
L 151.925245 171.075843 
L 152.051402 171.478398 
L 152.17756 171.438714 
L 152.303718 172.541622 
L 152.429876 172.124972 
L 152.682192 170.644994 
L 152.80835 171.38309 
L 152.934508 170.833576 
L 153.060665 171.747166 
L 153.186823 171.554878 
L 153.312981 172.587013 
L 153.565297 171.623171 
L 153.691455 171.07089 
L 153.817613 171.322578 
L 153.94377 171.287115 
L 154.196086 172.681641 
L 154.322244 171.712533 
L 154.448402 169.88107 
L 154.57456 169.684843 
L 154.700718 172.028443 
L 154.826875 170.703179 
L 154.953033 172.282368 
L 155.079191 171.374135 
L 155.205349 172.903634 
L 155.331507 172.560638 
L 155.457665 173.377226 
L 155.583823 172.604673 
L 155.70998 172.587525 
L 155.836138 173.003272 
L 155.962296 170.032951 
L 156.088454 173.19439 
L 156.214612 172.005292 
L 156.34077 172.064794 
L 156.466928 172.670424 
L 156.593085 171.175417 
L 156.719243 172.977426 
L 156.845401 171.796793 
L 157.097717 172.809039 
L 157.223875 172.715293 
L 157.350033 170.843251 
L 157.47619 171.790247 
L 157.602348 171.653216 
L 157.728506 173.081816 
L 157.854664 172.393672 
L 157.980822 173.601658 
L 158.10698 172.065142 
L 158.233138 172.394798 
L 158.359295 172.156671 
L 158.737769 173.304998 
L 158.990085 172.73708 
L 159.116243 173.590256 
L 159.242401 173.110643 
L 159.368558 171.836033 
L 159.494716 171.864895 
L 159.620874 172.924402 
L 159.747032 172.594672 
L 159.999348 172.984805 
L 160.125506 172.29724 
L 160.377821 173.301209 
L 160.503979 173.012819 
L 160.630137 172.074813 
L 160.756295 173.515666 
L 160.882453 173.397061 
L 161.008611 173.054141 
L 161.134768 171.906373 
L 161.260926 172.940873 
L 161.387084 170.899186 
L 161.6394 172.667445 
L 161.765558 173.036673 
L 161.891716 172.93546 
L 162.017873 173.259444 
L 162.144031 171.927715 
L 162.270189 173.035512 
L 162.396347 172.390338 
L 162.522505 173.268234 
L 162.774821 172.645168 
L 163.153294 173.089889 
L 163.279452 172.953992 
L 163.40561 172.525955 
L 163.531768 173.195286 
L 163.657926 172.834405 
L 163.784083 173.183474 
L 163.910241 172.671243 
L 164.162557 173.359879 
L 164.288715 172.42849 
L 164.414873 173.114748 
L 164.667189 172.704872 
L 164.793346 173.002183 
L 164.919504 172.927997 
L 165.17182 173.21958 
L 165.297978 173.19774 
L 165.424136 173.061198 
L 165.550294 172.340614 
L 165.676451 173.039101 
L 165.802609 172.654027 
L 165.928767 173.395031 
L 166.181083 172.427825 
L 166.307241 172.902522 
L 166.433399 172.711239 
L 166.685714 173.364957 
L 166.811872 172.764719 
L 166.93803 173.142825 
L 167.190346 173.194674 
L 167.316504 172.503101 
L 167.442661 173.241715 
L 167.568819 173.133607 
L 167.821135 172.594226 
L 167.947293 171.675944 
L 168.073451 173.349773 
L 168.199609 172.123962 
L 168.451924 173.345958 
L 168.578082 172.592145 
L 168.70424 173.124252 
L 168.956556 171.977865 
L 169.082714 173.597356 
L 169.208871 172.982449 
L 169.335029 173.410145 
L 169.587345 172.791368 
L 169.713503 173.469308 
L 169.965819 173.269003 
L 170.091977 172.75976 
L 170.218134 173.413899 
L 170.344292 173.040206 
L 170.47045 173.180221 
L 170.722766 172.471138 
L 170.975082 173.206074 
L 171.101239 172.833272 
L 171.227397 173.376488 
L 171.353555 172.948726 
L 171.479713 173.445046 
L 171.732029 172.842519 
L 171.858187 173.506506 
L 171.984344 173.454984 
L 172.110502 173.539688 
L 172.23666 172.517232 
L 172.488976 173.117847 
L 172.615134 173.519947 
L 173.119765 172.824051 
L 173.245923 172.993384 
L 173.372081 172.853079 
L 173.624397 173.003581 
L 173.750554 173.243426 
L 174.00287 173.008591 
L 174.255186 173.356673 
L 174.507502 173.080845 
L 174.633659 172.543048 
L 174.885975 173.480222 
L 175.264449 172.720122 
L 175.390607 173.557916 
L 175.516765 172.921451 
L 175.642922 173.13657 
L 175.76908 172.907242 
L 175.895238 173.54322 
L 176.021396 173.19365 
L 176.39987 173.232301 
L 176.526027 173.553707 
L 176.652185 173.278303 
L 177.030659 173.351067 
L 177.156817 172.861739 
L 177.282975 172.837968 
L 177.409132 173.459564 
L 177.53529 173.07378 
L 177.661448 173.22182 
L 177.913764 173.02573 
L 178.039922 173.20704 
L 178.16608 173.003885 
L 178.292237 173.458883 
L 178.418395 173.005504 
L 178.544553 173.378816 
L 178.670711 172.719858 
L 178.796869 173.097775 
L 178.923027 172.906114 
L 179.049185 173.102097 
L 179.175342 173.035157 
L 179.3015 173.11443 
L 179.553816 172.813229 
L 179.679974 173.12471 
L 179.806132 172.853097 
L 180.058447 173.411336 
L 180.184605 173.303227 
L 180.310763 173.37212 
L 180.689237 173.000209 
L 180.815395 171.511273 
L 180.941553 172.452001 
L 181.06771 172.477655 
L 181.320026 172.028382 
L 181.6985 173.219605 
L 181.950815 172.905758 
L 182.329289 173.504114 
L 182.455447 172.782967 
L 182.581605 173.546968 
L 182.707763 172.8426 
L 182.83392 173.199146 
L 182.960078 172.133509 
L 183.086236 173.232871 
L 183.212394 173.20334 
L 183.338552 172.717339 
L 183.46471 173.454383 
L 183.590868 173.287114 
L 183.717025 173.568498 
L 183.843183 172.319033 
L 183.969341 172.836955 
L 184.095499 172.624413 
L 184.221657 173.200996 
L 184.347815 173.173962 
L 184.473973 172.608961 
L 184.60013 173.089596 
L 184.852446 172.484751 
L 184.978604 172.181106 
L 185.23092 173.38947 
L 185.357078 173.229568 
L 185.483235 172.88841 
L 185.609393 173.177827 
L 185.735551 172.917595 
L 185.861709 173.25351 
L 185.987867 172.892333 
L 186.114025 173.205546 
L 186.240183 173.156165 
L 186.492498 171.891598 
L 186.618656 173.627265 
L 186.870972 172.404596 
L 186.99713 172.603599 
L 187.123288 173.172114 
L 187.249446 172.492693 
L 187.375603 173.12644 
L 187.627919 171.947643 
L 187.754077 170.762319 
L 187.880235 171.104142 
L 188.006393 173.013278 
L 188.132551 171.899101 
L 188.258708 173.216494 
L 188.384866 172.796843 
L 188.511024 173.020016 
L 188.637182 172.50206 
L 188.889498 172.957705 
L 189.015656 173.327809 
L 189.141813 171.57867 
L 189.394129 173.259934 
L 189.520287 173.092372 
L 189.646445 173.442082 
L 189.772603 173.003529 
L 189.898761 173.194405 
L 190.024918 173.085918 
L 190.151076 172.296875 
L 190.277234 173.160796 
L 190.403392 172.251353 
L 190.655708 173.40109 
L 190.781866 173.033412 
L 190.908023 173.052449 
L 191.034181 173.374684 
L 191.286497 172.865159 
L 191.412655 172.328748 
L 191.664971 172.736583 
L 191.791129 172.46202 
L 191.917286 173.257397 
L 192.043444 172.779695 
L 192.169602 173.351625 
L 192.29576 173.242077 
L 192.421918 173.464412 
L 192.548076 172.038313 
L 192.674234 173.183164 
L 192.926549 172.610505 
L 193.178865 173.101119 
L 193.305023 172.133945 
L 193.431181 172.149123 
L 193.683496 173.409756 
L 193.809654 173.188672 
L 193.935812 173.257086 
L 194.188128 168.971391 
L 194.314286 156.082679 
L 194.566601 171.95077 
L 194.692759 171.358788 
L 194.818917 173.437335 
L 194.945075 171.697642 
L 195.071233 173.085085 
L 195.323549 172.313593 
L 195.449706 173.399773 
L 195.575864 171.974155 
L 195.702022 171.996527 
L 195.954338 173.090832 
L 196.080496 172.711367 
L 196.206654 173.216702 
L 196.332811 172.728603 
L 196.458969 173.326085 
L 196.585127 173.247198 
L 196.711285 173.32777 
L 196.837443 172.205063 
L 197.089759 173.18539 
L 197.215917 172.671797 
L 197.342074 173.264427 
L 197.468232 171.178563 
L 197.720548 173.592764 
L 197.846706 172.517769 
L 197.972864 172.53002 
L 198.099022 172.20864 
L 198.351337 172.904779 
L 198.603653 172.060669 
L 198.855969 172.807012 
L 199.108284 172.526191 
L 199.234442 173.330694 
L 199.486758 172.379826 
L 199.612916 173.12662 
L 199.739074 172.3846 
L 199.865232 172.652189 
L 199.991389 173.407969 
L 200.117547 173.21316 
L 200.243705 173.276789 
L 200.369863 172.893521 
L 200.496021 171.96037 
L 200.622179 173.29648 
L 200.874494 172.360378 
L 201.000652 172.600621 
L 201.12681 171.761326 
L 201.252968 173.363712 
L 201.379126 173.488654 
L 201.505284 173.206047 
L 201.631442 173.463534 
L 201.757599 172.550615 
L 201.883757 173.299629 
L 202.009915 172.224763 
L 202.136073 173.317744 
L 202.388389 172.825611 
L 202.514547 173.092122 
L 202.640705 172.749496 
L 203.019178 173.158429 
L 203.145336 172.529549 
L 203.271494 173.287748 
L 203.52381 173.06398 
L 203.649967 172.990202 
L 203.776125 173.247595 
L 203.902283 172.947073 
L 204.028441 173.182204 
L 204.154599 172.674377 
L 204.280757 173.084008 
L 204.406915 172.456863 
L 204.533072 172.685968 
L 204.65923 173.3974 
L 204.785388 173.020165 
L 205.037704 173.328805 
L 205.163862 172.858725 
L 205.29002 173.63729 
L 205.416177 172.731961 
L 205.668493 173.399501 
L 205.794651 172.849049 
L 205.920809 172.937941 
L 206.046967 173.338727 
L 206.173125 173.139761 
L 206.299282 173.424261 
L 206.677756 173.123985 
L 206.930072 173.228495 
L 207.05623 173.472977 
L 207.308545 172.88093 
L 207.434703 173.075399 
L 207.560861 173.020967 
L 207.813177 173.548031 
L 207.939335 172.862903 
L 208.065492 173.526747 
L 208.19165 172.902192 
L 208.317808 173.253452 
L 208.443966 173.260688 
L 208.570124 173.098643 
L 208.82244 173.577444 
L 209.200913 172.830549 
L 209.453229 172.713187 
L 209.579387 173.462877 
L 209.95786 173.145967 
L 210.084018 173.616264 
L 210.336334 172.747009 
L 210.462492 173.578661 
L 210.714808 172.950968 
L 210.840965 173.574399 
L 211.093281 173.392989 
L 211.219439 173.221813 
L 211.345597 173.401996 
L 211.471755 173.319198 
L 211.597913 172.891692 
L 211.72407 173.418616 
L 211.850228 172.948793 
L 211.976386 173.295463 
L 212.102544 172.939277 
L 212.228702 172.994174 
L 212.35486 173.441178 
L 212.481018 173.19173 
L 212.733333 173.445119 
L 212.859491 173.268952 
L 213.111807 173.469497 
L 213.237965 173.303321 
L 213.364123 172.842764 
L 213.49028 173.356457 
L 213.742596 173.072453 
L 213.868754 173.103638 
L 213.994912 172.607545 
L 214.12107 173.323311 
L 214.247228 172.882862 
L 214.499543 173.443329 
L 214.625701 172.979007 
L 214.878017 173.409767 
L 215.004175 172.991395 
L 215.130333 173.430991 
L 215.256491 173.255732 
L 215.382648 173.385568 
L 215.634964 172.992272 
L 215.88728 173.571775 
L 216.013438 173.432708 
L 216.139596 173.05669 
L 216.265753 173.630967 
L 216.391911 173.105151 
L 216.518069 173.099814 
L 216.770385 173.465352 
L 217.022701 173.168026 
L 217.275016 173.590677 
L 217.401174 172.913474 
L 217.527332 173.588478 
L 217.65349 173.378696 
L 217.779648 173.460247 
L 218.284279 173.111586 
L 218.410437 173.223261 
L 218.536595 173.621058 
L 218.662753 173.15106 
L 218.788911 173.471131 
L 219.041226 173.251469 
L 219.293542 173.439705 
L 219.4197 173.140086 
L 219.545858 173.380806 
L 219.798174 173.105117 
L 219.924331 173.412255 
L 220.050489 173.287176 
L 220.176647 173.325825 
L 220.428963 173.203919 
L 220.681279 173.118494 
L 220.933594 173.575016 
L 221.059752 173.289038 
L 221.18591 173.42982 
L 221.312068 173.266593 
L 221.564384 173.565515 
L 221.942857 173.308804 
L 222.069015 173.497527 
L 222.195173 173.291678 
L 222.447489 173.40868 
L 222.573646 173.24404 
L 222.825962 173.506014 
L 223.204436 173.506736 
L 223.582909 173.00074 
L 223.709067 173.397693 
L 224.213699 173.337771 
L 224.339856 173.615807 
L 224.71833 172.969304 
L 224.970646 173.292487 
L 225.096804 173.241861 
L 225.222962 173.438371 
L 225.349119 173.345803 
L 225.475277 173.000947 
L 225.727593 173.541845 
L 225.853751 173.315375 
L 225.979909 173.41993 
L 226.232224 173.335067 
L 226.358382 173.557868 
L 226.48454 173.053881 
L 226.736856 173.445749 
L 226.863014 172.928775 
L 226.989172 173.161678 
L 227.115329 172.923662 
L 227.367645 173.202213 
L 227.872277 173.475632 
L 227.998434 173.47236 
L 228.25075 173.233671 
L 228.376908 173.488634 
L 228.503066 173.355307 
L 228.629224 173.05515 
L 228.755382 173.42147 
L 229.007697 173.231487 
L 229.133855 173.508943 
L 229.512329 173.341169 
L 229.638487 173.549786 
L 229.764644 172.74697 
L 230.01696 173.340352 
L 230.143118 173.211399 
L 230.269276 173.474423 
L 230.773907 173.424914 
L 230.900065 173.023344 
L 231.026223 173.308902 
L 231.404697 173.230534 
L 231.530855 173.06325 
L 231.78317 173.494191 
L 231.909328 173.354651 
L 232.035486 173.395083 
L 232.161644 172.85496 
L 232.287802 173.051421 
L 232.41396 172.78663 
L 232.540117 172.812121 
L 232.666275 173.353366 
L 232.918591 173.409268 
L 233.044749 172.939498 
L 233.170907 173.28131 
L 233.297065 172.321556 
L 233.423222 173.435932 
L 233.927854 172.156526 
L 234.054012 173.052138 
L 234.432485 172.953528 
L 234.558643 173.530318 
L 234.684801 173.176926 
L 234.810959 173.263987 
L 234.937117 172.932288 
L 235.441748 173.36634 
L 235.694064 172.395506 
L 235.94638 173.233465 
L 236.072538 173.135245 
L 236.198695 172.753375 
L 236.324853 173.339675 
L 236.451011 173.315655 
L 236.577169 173.034061 
L 236.829485 173.229599 
L 236.955643 173.157908 
L 237.0818 173.440663 
L 237.207958 173.427635 
L 237.586432 173.051838 
L 237.838748 172.619424 
L 237.964905 173.423589 
L 238.091063 172.914856 
L 238.343379 173.419593 
L 238.469537 173.018656 
L 238.721853 173.509125 
L 238.974168 172.74671 
L 239.226484 173.220038 
L 239.352642 173.221875 
L 239.4788 173.600311 
L 239.731115 173.488269 
L 239.857273 172.959818 
L 239.983431 171.843457 
L 240.109589 172.840208 
L 240.361905 166.916618 
L 240.488063 172.738077 
L 240.61422 170.31209 
L 240.866536 172.715116 
L 240.992694 173.17549 
L 241.497326 172.868025 
L 241.623483 172.610385 
L 241.749641 172.658634 
L 241.875799 172.082832 
L 242.001957 173.256789 
L 242.254273 173.339082 
L 242.380431 172.559846 
L 242.506588 173.578241 
L 242.758904 173.062573 
L 242.885062 172.934171 
L 243.01122 173.137665 
L 243.137378 173.123539 
L 243.263536 173.432177 
L 243.515851 172.492864 
L 243.642009 173.392533 
L 244.020483 173.47689 
L 244.146641 173.121071 
L 244.272798 173.547238 
L 244.525114 172.989998 
L 244.651272 172.67195 
L 244.903588 172.819871 
L 245.155903 173.490149 
L 245.282061 172.759657 
L 245.408219 172.751424 
L 245.660535 173.398319 
L 245.786693 172.629908 
L 245.912851 173.310086 
L 246.039008 172.780527 
L 246.165166 173.091482 
L 246.291324 172.935802 
L 246.417482 173.324215 
L 246.54364 172.408306 
L 246.669798 172.977974 
L 246.795956 172.641545 
L 246.922114 172.71379 
L 247.048271 172.617681 
L 247.300587 173.23863 
L 247.426745 172.779896 
L 247.679061 173.284864 
L 247.805219 173.31463 
L 247.931376 173.46913 
L 248.057534 172.975237 
L 248.183692 173.196895 
L 248.30985 173.175705 
L 248.436008 172.370192 
L 248.688324 173.204606 
L 248.814481 173.049851 
L 248.940639 173.377666 
L 249.066797 173.316727 
L 249.192955 172.581301 
L 249.697586 173.297693 
L 249.823744 172.926267 
L 249.949902 173.130257 
L 250.07606 172.857754 
L 250.202218 172.889463 
L 250.328376 173.399961 
L 250.454534 173.083454 
L 250.580691 173.390679 
L 250.833007 172.87497 
L 251.085323 173.507451 
L 251.211481 172.89863 
L 251.337639 173.165332 
L 251.463796 173.023553 
L 251.589954 173.121865 
L 251.716112 173.430916 
L 251.84227 173.156695 
L 251.968428 173.503031 
L 252.094586 173.274423 
L 252.220744 173.323275 
L 252.346902 173.14902 
L 252.473059 173.437655 
L 252.599217 173.269256 
L 252.725375 173.587041 
L 252.851533 173.464779 
L 252.977691 172.756306 
L 253.230007 173.207782 
L 253.356164 172.824943 
L 253.482322 173.245764 
L 253.60848 172.823906 
L 253.734638 173.252304 
L 253.860796 172.941598 
L 253.986954 173.586191 
L 254.113112 173.552815 
L 254.365427 173.272005 
L 254.491585 173.614028 
L 254.617743 173.152724 
L 254.743901 173.543453 
L 254.996217 173.175667 
L 255.248532 173.386404 
L 255.37469 173.068014 
L 255.500848 173.172542 
L 255.627006 173.575972 
L 255.753164 173.295783 
L 256.005479 173.48079 
L 256.131637 173.186857 
L 256.257795 173.18324 
L 256.383953 173.005219 
L 256.510111 173.380336 
L 256.636269 173.29499 
L 256.762427 172.988102 
L 257.014742 173.648334 
L 257.1409 173.247592 
L 257.267058 173.249316 
L 257.393216 173.424107 
L 257.645532 173.175159 
L 258.024005 173.613293 
L 258.150163 173.066859 
L 258.402479 173.370664 
L 258.528637 173.549186 
L 258.654795 173.117558 
L 259.033268 173.628729 
L 259.411742 173.284262 
L 259.5379 173.582059 
L 259.790215 173.073023 
L 259.916373 173.45781 
L 260.042531 173.2658 
L 260.168689 173.499059 
L 260.294847 173.220912 
L 260.421005 173.596996 
L 260.547162 173.29734 
L 260.925636 173.453143 
L 261.177952 173.280132 
L 261.30411 172.97062 
L 261.430267 173.480977 
L 261.556425 173.442484 
L 261.682583 173.223136 
L 261.808741 173.318208 
L 261.934899 173.569217 
L 262.061057 173.278918 
L 262.313372 173.596298 
L 262.43953 173.65299 
L 262.565688 173.277763 
L 262.691846 173.405281 
L 262.944162 173.301802 
L 263.07032 173.588313 
L 263.196477 173.315595 
L 263.322635 173.346987 
L 263.448793 173.023422 
L 263.574951 173.49482 
L 263.827267 173.107285 
L 264.20574 173.552121 
L 264.331898 173.182853 
L 264.584214 173.436544 
L 264.710372 173.162993 
L 264.83653 173.622721 
L 265.088845 173.079162 
L 265.215003 173.461487 
L 265.719635 173.522312 
L 265.845793 173.271172 
L 265.97195 173.602413 
L 266.098108 173.425874 
L 266.350424 173.568071 
L 266.476582 173.243342 
L 266.981213 173.501367 
L 267.107371 173.411895 
L 267.233529 173.559184 
L 267.359687 173.402863 
L 267.485845 173.586548 
L 267.612003 173.243208 
L 267.864318 173.610147 
L 268.116634 173.225743 
L 268.242792 173.643838 
L 268.495108 173.55251 
L 268.621265 173.262407 
L 268.747423 173.328517 
L 268.873581 173.624968 
L 268.999739 173.28668 
L 269.125897 173.527345 
L 269.378213 173.24022 
L 269.504371 173.627214 
L 269.630528 173.371741 
L 269.756686 173.500927 
L 270.13516 173.300483 
L 270.261318 173.615598 
L 270.387476 173.372885 
L 270.513633 173.501379 
L 271.144423 173.256816 
L 271.270581 173.037412 
L 271.649054 173.510205 
L 272.658317 173.411755 
L 272.784475 172.860763 
L 272.910633 173.195434 
L 273.036791 172.767196 
L 273.289106 173.358469 
L 273.415264 173.358772 
L 273.541422 173.564187 
L 273.66758 173.196067 
L 274.046053 173.455664 
L 274.172211 173.479452 
L 274.424527 173.117046 
L 274.550685 173.47929 
L 274.676843 173.236556 
L 274.803001 173.565901 
L 274.929159 173.20807 
L 275.181474 173.385785 
L 275.307632 173.333334 
L 275.559948 173.509275 
L 275.686106 173.01417 
L 275.812264 173.018479 
L 275.938421 173.600386 
L 276.190737 173.301983 
L 276.316895 173.510376 
L 276.443053 173.276785 
L 276.569211 173.292143 
L 276.695369 173.066345 
L 276.821526 173.144359 
L 276.947684 173.558204 
L 277.326158 173.262585 
L 277.326158 173.262585 
" clip-path="url(#p71fab0667a)" style="fill: none; stroke: #bebada; stroke-linecap: round"/>
   </g>
   <g id="patch_3">
    <path d="M 45.12 181.416412 
L 45.12 10.8 
" style="fill: none; stroke: #cccccc; stroke-linejoin: miter; stroke-linecap: square"/>
   </g>
   <g id="patch_4">
    <path d="M 277.2 181.416412 
L 277.2 10.8 
" style="fill: none; stroke: #cccccc; stroke-linejoin: miter; stroke-linecap: square"/>
   </g>
   <g id="patch_5">
    <path d="M 45.12 181.416412 
L 277.2 181.416412 
" style="fill: none; stroke: #cccccc; stroke-linejoin: miter; stroke-linecap: square"/>
   </g>
   <g id="patch_6">
    <path d="M 45.12 10.8 
L 277.2 10.8 
" style="fill: none; stroke: #cccccc; stroke-linejoin: miter; stroke-linecap: square"/>
   </g>
  </g>
 </g>
 <defs>
  <clipPath id="p71fab0667a">
   <rect x="45.12" y="10.8" width="232.08" height="170.616412"/>
  </clipPath>
 </defs>
</svg>
