<?xml version="1.0" encoding="utf-8" standalone="no"?>
<!DOCTYPE svg PUBLIC "-//W3C//DTD SVG 1.1//EN"
  "http://www.w3.org/Graphics/SVG/1.1/DTD/svg11.dtd">
<svg xmlns:xlink="http://www.w3.org/1999/xlink" width="288pt" height="230.4pt" viewBox="0 0 288 230.4" xmlns="http://www.w3.org/2000/svg" version="1.1">
 <metadata>
  <rdf:RDF xmlns:dc="http://purl.org/dc/elements/1.1/" xmlns:cc="http://creativecommons.org/ns#" xmlns:rdf="http://www.w3.org/1999/02/22-rdf-syntax-ns#">
   <cc:Work>
    <dc:type rdf:resource="http://purl.org/dc/dcmitype/StillImage"/>
    <dc:date>2024-07-21T17:28:17.779904</dc:date>
    <dc:format>image/svg+xml</dc:format>
    <dc:creator>
     <cc:Agent>
      <dc:title>Matplotlib v3.9.0, https://matplotlib.org/</dc:title>
     </cc:Agent>
    </dc:creator>
   </cc:Work>
  </rdf:RDF>
 </metadata>
 <defs>
  <style type="text/css">*{stroke-linejoin: round; stroke-linecap: butt}</style>
 </defs>
 <g id="figure_1">
  <g id="patch_1">
   <path d="M 0 230.4 
L 288 230.4 
L 288 0 
L 0 0 
z
" style="fill: #ffffff"/>
  </g>
  <g id="axes_1">
   <g id="patch_2">
    <path d="M 45.12 181.416412 
L 277.2 181.416412 
L 277.2 10.8 
L 45.12 10.8 
z
" style="fill: #ffffff"/>
   </g>
   <g id="matplotlib.axis_1">
    <g id="xtick_1">
     <g id="line2d_1">
      <path d="M 240.361905 181.416412 
L 240.361905 10.8 
" clip-path="url(#p70a9b49271)" style="fill: none; stroke: #cccccc; stroke-width: 0.8; stroke-linecap: round"/>
     </g>
     <g id="line2d_2"/>
     <g id="text_1">
      <!-- 6 hours -->
      <g style="fill: #262626" transform="translate(215.373414 213.560866) rotate(-45) scale(0.1 -0.1)">
       <defs>
        <path id="ArialMT-36" d="M 3184 3459 
L 2625 3416 
Q 2550 3747 2413 3897 
Q 2184 4138 1850 4138 
Q 1581 4138 1378 3988 
Q 1113 3794 959 3422 
Q 806 3050 800 2363 
Q 1003 2672 1297 2822 
Q 1591 2972 1913 2972 
Q 2475 2972 2870 2558 
Q 3266 2144 3266 1488 
Q 3266 1056 3080 686 
Q 2894 316 2569 119 
Q 2244 -78 1831 -78 
Q 1128 -78 684 439 
Q 241 956 241 2144 
Q 241 3472 731 4075 
Q 1159 4600 1884 4600 
Q 2425 4600 2770 4297 
Q 3116 3994 3184 3459 
z
M 888 1484 
Q 888 1194 1011 928 
Q 1134 663 1356 523 
Q 1578 384 1822 384 
Q 2178 384 2434 671 
Q 2691 959 2691 1453 
Q 2691 1928 2437 2201 
Q 2184 2475 1800 2475 
Q 1419 2475 1153 2201 
Q 888 1928 888 1484 
z
" transform="scale(0.015625)"/>
        <path id="ArialMT-20" transform="scale(0.015625)"/>
        <path id="ArialMT-68" d="M 422 0 
L 422 4581 
L 984 4581 
L 984 2938 
Q 1378 3394 1978 3394 
Q 2347 3394 2619 3248 
Q 2891 3103 3008 2847 
Q 3125 2591 3125 2103 
L 3125 0 
L 2563 0 
L 2563 2103 
Q 2563 2525 2380 2717 
Q 2197 2909 1863 2909 
Q 1613 2909 1392 2779 
Q 1172 2650 1078 2428 
Q 984 2206 984 1816 
L 984 0 
L 422 0 
z
" transform="scale(0.015625)"/>
        <path id="ArialMT-6f" d="M 213 1659 
Q 213 2581 725 3025 
Q 1153 3394 1769 3394 
Q 2453 3394 2887 2945 
Q 3322 2497 3322 1706 
Q 3322 1066 3130 698 
Q 2938 331 2570 128 
Q 2203 -75 1769 -75 
Q 1072 -75 642 372 
Q 213 819 213 1659 
z
M 791 1659 
Q 791 1022 1069 705 
Q 1347 388 1769 388 
Q 2188 388 2466 706 
Q 2744 1025 2744 1678 
Q 2744 2294 2464 2611 
Q 2184 2928 1769 2928 
Q 1347 2928 1069 2612 
Q 791 2297 791 1659 
z
" transform="scale(0.015625)"/>
        <path id="ArialMT-75" d="M 2597 0 
L 2597 488 
Q 2209 -75 1544 -75 
Q 1250 -75 995 37 
Q 741 150 617 320 
Q 494 491 444 738 
Q 409 903 409 1263 
L 409 3319 
L 972 3319 
L 972 1478 
Q 972 1038 1006 884 
Q 1059 663 1231 536 
Q 1403 409 1656 409 
Q 1909 409 2131 539 
Q 2353 669 2445 892 
Q 2538 1116 2538 1541 
L 2538 3319 
L 3100 3319 
L 3100 0 
L 2597 0 
z
" transform="scale(0.015625)"/>
        <path id="ArialMT-72" d="M 416 0 
L 416 3319 
L 922 3319 
L 922 2816 
Q 1116 3169 1280 3281 
Q 1444 3394 1641 3394 
Q 1925 3394 2219 3213 
L 2025 2691 
Q 1819 2813 1613 2813 
Q 1428 2813 1281 2702 
Q 1134 2591 1072 2394 
Q 978 2094 978 1738 
L 978 0 
L 416 0 
z
" transform="scale(0.015625)"/>
        <path id="ArialMT-73" d="M 197 991 
L 753 1078 
Q 800 744 1014 566 
Q 1228 388 1613 388 
Q 2000 388 2187 545 
Q 2375 703 2375 916 
Q 2375 1106 2209 1216 
Q 2094 1291 1634 1406 
Q 1016 1563 777 1677 
Q 538 1791 414 1992 
Q 291 2194 291 2438 
Q 291 2659 392 2848 
Q 494 3038 669 3163 
Q 800 3259 1026 3326 
Q 1253 3394 1513 3394 
Q 1903 3394 2198 3281 
Q 2494 3169 2634 2976 
Q 2775 2784 2828 2463 
L 2278 2388 
Q 2241 2644 2061 2787 
Q 1881 2931 1553 2931 
Q 1166 2931 1000 2803 
Q 834 2675 834 2503 
Q 834 2394 903 2306 
Q 972 2216 1119 2156 
Q 1203 2125 1616 2013 
Q 2213 1853 2448 1751 
Q 2684 1650 2818 1456 
Q 2953 1263 2953 975 
Q 2953 694 2789 445 
Q 2625 197 2315 61 
Q 2006 -75 1616 -75 
Q 969 -75 630 194 
Q 291 463 197 991 
z
" transform="scale(0.015625)"/>
       </defs>
       <use xlink:href="#ArialMT-36"/>
       <use xlink:href="#ArialMT-20" x="55.615234"/>
       <use xlink:href="#ArialMT-68" x="83.398438"/>
       <use xlink:href="#ArialMT-6f" x="139.013672"/>
       <use xlink:href="#ArialMT-75" x="194.628906"/>
       <use xlink:href="#ArialMT-72" x="250.244141"/>
       <use xlink:href="#ArialMT-73" x="283.544922"/>
      </g>
     </g>
    </g>
    <g id="xtick_2">
     <g id="line2d_3">
      <path d="M 194.314286 181.416412 
L 194.314286 10.8 
" clip-path="url(#p70a9b49271)" style="fill: none; stroke: #cccccc; stroke-width: 0.8; stroke-linecap: round"/>
     </g>
     <g id="line2d_4"/>
     <g id="text_2">
      <!-- 8 hours -->
      <g style="fill: #262626" transform="translate(169.325795 213.560866) rotate(-45) scale(0.1 -0.1)">
       <defs>
        <path id="ArialMT-38" d="M 1131 2484 
Q 781 2613 612 2850 
Q 444 3088 444 3419 
Q 444 3919 803 4259 
Q 1163 4600 1759 4600 
Q 2359 4600 2725 4251 
Q 3091 3903 3091 3403 
Q 3091 3084 2923 2848 
Q 2756 2613 2416 2484 
Q 2838 2347 3058 2040 
Q 3278 1734 3278 1309 
Q 3278 722 2862 322 
Q 2447 -78 1769 -78 
Q 1091 -78 675 323 
Q 259 725 259 1325 
Q 259 1772 486 2073 
Q 713 2375 1131 2484 
z
M 1019 3438 
Q 1019 3113 1228 2906 
Q 1438 2700 1772 2700 
Q 2097 2700 2305 2904 
Q 2513 3109 2513 3406 
Q 2513 3716 2298 3927 
Q 2084 4138 1766 4138 
Q 1444 4138 1231 3931 
Q 1019 3725 1019 3438 
z
M 838 1322 
Q 838 1081 952 856 
Q 1066 631 1291 507 
Q 1516 384 1775 384 
Q 2178 384 2440 643 
Q 2703 903 2703 1303 
Q 2703 1709 2433 1975 
Q 2163 2241 1756 2241 
Q 1359 2241 1098 1978 
Q 838 1716 838 1322 
z
" transform="scale(0.015625)"/>
       </defs>
       <use xlink:href="#ArialMT-38"/>
       <use xlink:href="#ArialMT-20" x="55.615234"/>
       <use xlink:href="#ArialMT-68" x="83.398438"/>
       <use xlink:href="#ArialMT-6f" x="139.013672"/>
       <use xlink:href="#ArialMT-75" x="194.628906"/>
       <use xlink:href="#ArialMT-72" x="250.244141"/>
       <use xlink:href="#ArialMT-73" x="283.544922"/>
      </g>
     </g>
    </g>
    <g id="xtick_3">
     <g id="line2d_5">
      <path d="M 148.266667 181.416412 
L 148.266667 10.8 
" clip-path="url(#p70a9b49271)" style="fill: none; stroke: #cccccc; stroke-width: 0.8; stroke-linecap: round"/>
     </g>
     <g id="line2d_6"/>
     <g id="text_3">
      <!-- 12 hours -->
      <g style="fill: #262626" transform="translate(119.345999 217.493043) rotate(-45) scale(0.1 -0.1)">
       <defs>
        <path id="ArialMT-31" d="M 2384 0 
L 1822 0 
L 1822 3584 
Q 1619 3391 1289 3197 
Q 959 3003 697 2906 
L 697 3450 
Q 1169 3672 1522 3987 
Q 1875 4303 2022 4600 
L 2384 4600 
L 2384 0 
z
" transform="scale(0.015625)"/>
        <path id="ArialMT-32" d="M 3222 541 
L 3222 0 
L 194 0 
Q 188 203 259 391 
Q 375 700 629 1000 
Q 884 1300 1366 1694 
Q 2113 2306 2375 2664 
Q 2638 3022 2638 3341 
Q 2638 3675 2398 3904 
Q 2159 4134 1775 4134 
Q 1369 4134 1125 3890 
Q 881 3647 878 3216 
L 300 3275 
Q 359 3922 746 4261 
Q 1134 4600 1788 4600 
Q 2447 4600 2831 4234 
Q 3216 3869 3216 3328 
Q 3216 3053 3103 2787 
Q 2991 2522 2730 2228 
Q 2469 1934 1863 1422 
Q 1356 997 1212 845 
Q 1069 694 975 541 
L 3222 541 
z
" transform="scale(0.015625)"/>
       </defs>
       <use xlink:href="#ArialMT-31"/>
       <use xlink:href="#ArialMT-32" x="55.615234"/>
       <use xlink:href="#ArialMT-20" x="111.230469"/>
       <use xlink:href="#ArialMT-68" x="139.013672"/>
       <use xlink:href="#ArialMT-6f" x="194.628906"/>
       <use xlink:href="#ArialMT-75" x="250.244141"/>
       <use xlink:href="#ArialMT-72" x="305.859375"/>
       <use xlink:href="#ArialMT-73" x="339.160156"/>
      </g>
     </g>
    </g>
    <g id="xtick_4">
     <g id="line2d_7">
      <path d="M 102.219048 181.416412 
L 102.219048 10.8 
" clip-path="url(#p70a9b49271)" style="fill: none; stroke: #cccccc; stroke-width: 0.8; stroke-linecap: round"/>
     </g>
     <g id="line2d_8"/>
     <g id="text_4">
      <!-- Daily -->
      <g style="fill: #262626" transform="translate(85.014256 205.694303) rotate(-45) scale(0.1 -0.1)">
       <defs>
        <path id="ArialMT-44" d="M 494 0 
L 494 4581 
L 2072 4581 
Q 2606 4581 2888 4516 
Q 3281 4425 3559 4188 
Q 3922 3881 4101 3404 
Q 4281 2928 4281 2316 
Q 4281 1794 4159 1391 
Q 4038 988 3847 723 
Q 3656 459 3429 307 
Q 3203 156 2883 78 
Q 2563 0 2147 0 
L 494 0 
z
M 1100 541 
L 2078 541 
Q 2531 541 2789 625 
Q 3047 709 3200 863 
Q 3416 1078 3536 1442 
Q 3656 1806 3656 2325 
Q 3656 3044 3420 3430 
Q 3184 3816 2847 3947 
Q 2603 4041 2063 4041 
L 1100 4041 
L 1100 541 
z
" transform="scale(0.015625)"/>
        <path id="ArialMT-61" d="M 2588 409 
Q 2275 144 1986 34 
Q 1697 -75 1366 -75 
Q 819 -75 525 192 
Q 231 459 231 875 
Q 231 1119 342 1320 
Q 453 1522 633 1644 
Q 813 1766 1038 1828 
Q 1203 1872 1538 1913 
Q 2219 1994 2541 2106 
Q 2544 2222 2544 2253 
Q 2544 2597 2384 2738 
Q 2169 2928 1744 2928 
Q 1347 2928 1158 2789 
Q 969 2650 878 2297 
L 328 2372 
Q 403 2725 575 2942 
Q 747 3159 1072 3276 
Q 1397 3394 1825 3394 
Q 2250 3394 2515 3294 
Q 2781 3194 2906 3042 
Q 3031 2891 3081 2659 
Q 3109 2516 3109 2141 
L 3109 1391 
Q 3109 606 3145 398 
Q 3181 191 3288 0 
L 2700 0 
Q 2613 175 2588 409 
z
M 2541 1666 
Q 2234 1541 1622 1453 
Q 1275 1403 1131 1340 
Q 988 1278 909 1158 
Q 831 1038 831 891 
Q 831 666 1001 516 
Q 1172 366 1500 366 
Q 1825 366 2078 508 
Q 2331 650 2450 897 
Q 2541 1088 2541 1459 
L 2541 1666 
z
" transform="scale(0.015625)"/>
        <path id="ArialMT-69" d="M 425 3934 
L 425 4581 
L 988 4581 
L 988 3934 
L 425 3934 
z
M 425 0 
L 425 3319 
L 988 3319 
L 988 0 
L 425 0 
z
" transform="scale(0.015625)"/>
        <path id="ArialMT-6c" d="M 409 0 
L 409 4581 
L 972 4581 
L 972 0 
L 409 0 
z
" transform="scale(0.015625)"/>
        <path id="ArialMT-79" d="M 397 -1278 
L 334 -750 
Q 519 -800 656 -800 
Q 844 -800 956 -737 
Q 1069 -675 1141 -563 
Q 1194 -478 1313 -144 
Q 1328 -97 1363 -6 
L 103 3319 
L 709 3319 
L 1400 1397 
Q 1534 1031 1641 628 
Q 1738 1016 1872 1384 
L 2581 3319 
L 3144 3319 
L 1881 -56 
Q 1678 -603 1566 -809 
Q 1416 -1088 1222 -1217 
Q 1028 -1347 759 -1347 
Q 597 -1347 397 -1278 
z
" transform="scale(0.015625)"/>
       </defs>
       <use xlink:href="#ArialMT-44"/>
       <use xlink:href="#ArialMT-61" x="72.216797"/>
       <use xlink:href="#ArialMT-69" x="127.832031"/>
       <use xlink:href="#ArialMT-6c" x="150.048828"/>
       <use xlink:href="#ArialMT-79" x="172.265625"/>
      </g>
     </g>
    </g>
    <g id="xtick_5">
     <g id="line2d_9">
      <path d="M 62.74966 181.416412 
L 62.74966 10.8 
" clip-path="url(#p70a9b49271)" style="fill: none; stroke: #cccccc; stroke-width: 0.8; stroke-linecap: round"/>
     </g>
     <g id="line2d_10"/>
     <g id="text_5">
      <!-- Weekly -->
      <g style="fill: #262626" transform="translate(38.204216 213.034955) rotate(-45) scale(0.1 -0.1)">
       <defs>
        <path id="ArialMT-57" d="M 1294 0 
L 78 4581 
L 700 4581 
L 1397 1578 
Q 1509 1106 1591 641 
Q 1766 1375 1797 1488 
L 2669 4581 
L 3400 4581 
L 4056 2263 
Q 4303 1400 4413 641 
Q 4500 1075 4641 1638 
L 5359 4581 
L 5969 4581 
L 4713 0 
L 4128 0 
L 3163 3491 
Q 3041 3928 3019 4028 
Q 2947 3713 2884 3491 
L 1913 0 
L 1294 0 
z
" transform="scale(0.015625)"/>
        <path id="ArialMT-65" d="M 2694 1069 
L 3275 997 
Q 3138 488 2766 206 
Q 2394 -75 1816 -75 
Q 1088 -75 661 373 
Q 234 822 234 1631 
Q 234 2469 665 2931 
Q 1097 3394 1784 3394 
Q 2450 3394 2872 2941 
Q 3294 2488 3294 1666 
Q 3294 1616 3291 1516 
L 816 1516 
Q 847 969 1125 678 
Q 1403 388 1819 388 
Q 2128 388 2347 550 
Q 2566 713 2694 1069 
z
M 847 1978 
L 2700 1978 
Q 2663 2397 2488 2606 
Q 2219 2931 1791 2931 
Q 1403 2931 1139 2672 
Q 875 2413 847 1978 
z
" transform="scale(0.015625)"/>
        <path id="ArialMT-6b" d="M 425 0 
L 425 4581 
L 988 4581 
L 988 1969 
L 2319 3319 
L 3047 3319 
L 1778 2088 
L 3175 0 
L 2481 0 
L 1384 1697 
L 988 1316 
L 988 0 
L 425 0 
z
" transform="scale(0.015625)"/>
       </defs>
       <use xlink:href="#ArialMT-57"/>
       <use xlink:href="#ArialMT-65" x="92.634766"/>
       <use xlink:href="#ArialMT-65" x="148.25"/>
       <use xlink:href="#ArialMT-6b" x="203.865234"/>
       <use xlink:href="#ArialMT-6c" x="253.865234"/>
       <use xlink:href="#ArialMT-79" x="276.082031"/>
      </g>
     </g>
    </g>
   </g>
   <g id="matplotlib.axis_2">
    <g id="ytick_1">
     <g id="line2d_11"/>
     <g id="text_6">
      <!-- 0 -->
      <g style="fill: #262626" transform="translate(36.059063 177.240422) scale(0.1 -0.1)">
       <defs>
        <path id="ArialMT-30" d="M 266 2259 
Q 266 3072 433 3567 
Q 600 4063 929 4331 
Q 1259 4600 1759 4600 
Q 2128 4600 2406 4451 
Q 2684 4303 2865 4023 
Q 3047 3744 3150 3342 
Q 3253 2941 3253 2259 
Q 3253 1453 3087 958 
Q 2922 463 2592 192 
Q 2263 -78 1759 -78 
Q 1097 -78 719 397 
Q 266 969 266 2259 
z
M 844 2259 
Q 844 1131 1108 757 
Q 1372 384 1759 384 
Q 2147 384 2411 759 
Q 2675 1134 2675 2259 
Q 2675 3391 2411 3762 
Q 2147 4134 1753 4134 
Q 1366 4134 1134 3806 
Q 844 3388 844 2259 
z
" transform="scale(0.015625)"/>
       </defs>
       <use xlink:href="#ArialMT-30"/>
      </g>
     </g>
    </g>
    <g id="ytick_2">
     <g id="line2d_12"/>
     <g id="text_7">
      <!-- 50 -->
      <g style="fill: #262626" transform="translate(30.498125 152.130389) scale(0.1 -0.1)">
       <defs>
        <path id="ArialMT-35" d="M 266 1200 
L 856 1250 
Q 922 819 1161 601 
Q 1400 384 1738 384 
Q 2144 384 2425 690 
Q 2706 997 2706 1503 
Q 2706 1984 2436 2262 
Q 2166 2541 1728 2541 
Q 1456 2541 1237 2417 
Q 1019 2294 894 2097 
L 366 2166 
L 809 4519 
L 3088 4519 
L 3088 3981 
L 1259 3981 
L 1013 2750 
Q 1425 3038 1878 3038 
Q 2478 3038 2890 2622 
Q 3303 2206 3303 1553 
Q 3303 931 2941 478 
Q 2500 -78 1738 -78 
Q 1113 -78 717 272 
Q 322 622 266 1200 
z
" transform="scale(0.015625)"/>
       </defs>
       <use xlink:href="#ArialMT-35"/>
       <use xlink:href="#ArialMT-30" x="55.615234"/>
      </g>
     </g>
    </g>
    <g id="ytick_3">
     <g id="line2d_13"/>
     <g id="text_8">
      <!-- 100 -->
      <g style="fill: #262626" transform="translate(24.937188 127.020355) scale(0.1 -0.1)">
       <use xlink:href="#ArialMT-31"/>
       <use xlink:href="#ArialMT-30" x="55.615234"/>
       <use xlink:href="#ArialMT-30" x="111.230469"/>
      </g>
     </g>
    </g>
    <g id="ytick_4">
     <g id="line2d_14"/>
     <g id="text_9">
      <!-- 150 -->
      <g style="fill: #262626" transform="translate(24.937188 101.910322) scale(0.1 -0.1)">
       <use xlink:href="#ArialMT-31"/>
       <use xlink:href="#ArialMT-35" x="55.615234"/>
       <use xlink:href="#ArialMT-30" x="111.230469"/>
      </g>
     </g>
    </g>
    <g id="ytick_5">
     <g id="line2d_15"/>
     <g id="text_10">
      <!-- 200 -->
      <g style="fill: #262626" transform="translate(24.937188 76.800288) scale(0.1 -0.1)">
       <use xlink:href="#ArialMT-32"/>
       <use xlink:href="#ArialMT-30" x="55.615234"/>
       <use xlink:href="#ArialMT-30" x="111.230469"/>
      </g>
     </g>
    </g>
    <g id="ytick_6">
     <g id="line2d_16"/>
     <g id="text_11">
      <!-- 250 -->
      <g style="fill: #262626" transform="translate(24.937188 51.690255) scale(0.1 -0.1)">
       <use xlink:href="#ArialMT-32"/>
       <use xlink:href="#ArialMT-35" x="55.615234"/>
       <use xlink:href="#ArialMT-30" x="111.230469"/>
      </g>
     </g>
    </g>
    <g id="ytick_7">
     <g id="line2d_17"/>
     <g id="text_12">
      <!-- 300 -->
      <g style="fill: #262626" transform="translate(24.937188 26.580221) scale(0.1 -0.1)">
       <defs>
        <path id="ArialMT-33" d="M 269 1209 
L 831 1284 
Q 928 806 1161 595 
Q 1394 384 1728 384 
Q 2125 384 2398 659 
Q 2672 934 2672 1341 
Q 2672 1728 2419 1979 
Q 2166 2231 1775 2231 
Q 1616 2231 1378 2169 
L 1441 2663 
Q 1497 2656 1531 2656 
Q 1891 2656 2178 2843 
Q 2466 3031 2466 3422 
Q 2466 3731 2256 3934 
Q 2047 4138 1716 4138 
Q 1388 4138 1169 3931 
Q 950 3725 888 3313 
L 325 3413 
Q 428 3978 793 4289 
Q 1159 4600 1703 4600 
Q 2078 4600 2393 4439 
Q 2709 4278 2876 4000 
Q 3044 3722 3044 3409 
Q 3044 3113 2884 2869 
Q 2725 2625 2413 2481 
Q 2819 2388 3044 2092 
Q 3269 1797 3269 1353 
Q 3269 753 2831 336 
Q 2394 -81 1725 -81 
Q 1122 -81 723 278 
Q 325 638 269 1209 
z
" transform="scale(0.015625)"/>
       </defs>
       <use xlink:href="#ArialMT-33"/>
       <use xlink:href="#ArialMT-30" x="55.615234"/>
       <use xlink:href="#ArialMT-30" x="111.230469"/>
      </g>
     </g>
    </g>
    <g id="text_13">
     <!-- GW -->
     <g style="fill: #262626" transform="translate(18.949688 104.7168) rotate(-90) scale(0.1 -0.1)">
      <defs>
       <path id="ArialMT-47" d="M 2638 1797 
L 2638 2334 
L 4578 2338 
L 4578 638 
Q 4131 281 3656 101 
Q 3181 -78 2681 -78 
Q 2006 -78 1454 211 
Q 903 500 622 1047 
Q 341 1594 341 2269 
Q 341 2938 620 3517 
Q 900 4097 1425 4378 
Q 1950 4659 2634 4659 
Q 3131 4659 3532 4498 
Q 3934 4338 4162 4050 
Q 4391 3763 4509 3300 
L 3963 3150 
Q 3859 3500 3706 3700 
Q 3553 3900 3268 4020 
Q 2984 4141 2638 4141 
Q 2222 4141 1919 4014 
Q 1616 3888 1430 3681 
Q 1244 3475 1141 3228 
Q 966 2803 966 2306 
Q 966 1694 1177 1281 
Q 1388 869 1791 669 
Q 2194 469 2647 469 
Q 3041 469 3416 620 
Q 3791 772 3984 944 
L 3984 1797 
L 2638 1797 
z
" transform="scale(0.015625)"/>
      </defs>
      <use xlink:href="#ArialMT-47"/>
      <use xlink:href="#ArialMT-57" x="77.783203"/>
     </g>
    </g>
   </g>
   <g id="line2d_18">
    <path d="M 56.171429 18.555291 
L 56.297586 161.065229 
L 56.423744 142.292307 
L 56.549902 166.379832 
L 56.67606 164.429595 
L 56.802218 165.361521 
L 56.928376 169.928787 
L 57.054534 161.526445 
L 57.180691 171.797507 
L 57.306849 170.199178 
L 57.433007 160.982601 
L 57.685323 165.815586 
L 57.811481 166.336476 
L 58.063796 170.797923 
L 58.316112 169.709135 
L 58.44227 171.011315 
L 58.568428 166.079071 
L 58.694586 167.579676 
L 58.820744 162.354725 
L 59.073059 167.713005 
L 59.199217 168.083779 
L 59.325375 170.798873 
L 59.451533 170.607582 
L 59.830007 165.554995 
L 59.956164 165.880702 
L 60.082322 172.010112 
L 60.20848 165.916247 
L 60.334638 170.992364 
L 60.460796 168.010377 
L 60.586954 169.873673 
L 60.713112 168.364985 
L 60.839269 171.908679 
L 61.217743 168.34905 
L 61.343901 167.838967 
L 61.470059 171.197025 
L 61.596217 171.095116 
L 61.848532 170.173871 
L 61.97469 169.83101 
L 62.100848 171.595448 
L 62.227006 171.335186 
L 62.353164 172.370843 
L 62.479322 169.843693 
L 62.605479 170.670172 
L 62.731637 170.029676 
L 62.857795 172.177971 
L 62.983953 170.766697 
L 63.110111 171.570301 
L 63.236269 170.465066 
L 63.362427 173.415088 
L 63.614742 172.596545 
L 63.867058 171.798121 
L 63.993216 169.225905 
L 64.119374 170.904995 
L 64.245532 170.35976 
L 64.371689 170.597887 
L 64.497847 169.199853 
L 64.624005 169.219669 
L 64.750163 169.113152 
L 64.876321 169.83159 
L 65.128637 172.499078 
L 65.254795 169.067589 
L 65.380952 172.735222 
L 65.50711 172.909954 
L 65.633268 172.452424 
L 65.759426 168.988705 
L 65.885584 169.574576 
L 66.011742 170.708472 
L 66.1379 170.828239 
L 66.264057 169.852227 
L 66.516373 172.261181 
L 66.642531 170.564143 
L 66.894847 172.180238 
L 67.021005 170.90359 
L 67.147162 173.072078 
L 67.27332 172.151044 
L 67.399478 172.410666 
L 67.525636 171.468314 
L 67.777952 173.157967 
L 67.90411 172.231991 
L 68.030267 169.811349 
L 68.156425 171.587309 
L 68.282583 171.48928 
L 68.408741 171.032944 
L 68.534899 171.537832 
L 68.787215 170.236532 
L 69.03953 172.270392 
L 69.165688 171.924937 
L 69.291846 172.639891 
L 69.67032 170.920214 
L 69.922635 173.160393 
L 70.301109 171.573869 
L 70.553425 172.535927 
L 70.80574 171.945912 
L 70.931898 171.49532 
L 71.184214 173.253219 
L 71.43653 172.010506 
L 71.688845 171.405269 
L 71.815003 173.030424 
L 71.941161 173.03369 
L 72.067319 172.216679 
L 72.193477 172.906331 
L 72.319635 172.226878 
L 72.445793 172.820786 
L 72.698108 172.210984 
L 72.824266 172.73141 
L 72.950424 172.493988 
L 73.076582 173.099492 
L 73.20274 172.771072 
L 73.328898 173.126233 
L 73.455055 172.657166 
L 73.581213 172.95048 
L 73.707371 171.935608 
L 73.833529 172.244929 
L 73.959687 171.386809 
L 74.085845 172.488957 
L 74.212003 171.839289 
L 74.33816 172.519707 
L 74.464318 172.062671 
L 74.590476 172.788006 
L 74.716634 172.408246 
L 74.842792 173.56116 
L 74.96895 173.390388 
L 75.221265 172.793608 
L 75.347423 172.789166 
L 75.473581 171.62922 
L 75.725897 173.377893 
L 75.852055 172.673365 
L 75.978213 172.958499 
L 76.104371 172.910151 
L 76.230528 172.734157 
L 76.356686 172.172914 
L 76.609002 173.093092 
L 76.73516 172.661518 
L 76.861318 173.126913 
L 76.987476 173.147397 
L 77.113633 172.636267 
L 77.239791 172.725937 
L 77.365949 173.39023 
L 77.492107 172.497484 
L 77.744423 172.453485 
L 77.870581 173.210338 
L 78.122896 173.003161 
L 78.375212 172.416744 
L 78.50137 173.287874 
L 78.627528 173.283346 
L 78.879843 172.878898 
L 79.006001 173.544574 
L 79.132159 172.947092 
L 79.258317 173.072143 
L 79.384475 172.970185 
L 79.510633 173.529956 
L 79.636791 173.489213 
L 79.889106 172.917415 
L 80.26758 173.180409 
L 80.393738 173.089516 
L 80.646053 173.341694 
L 80.772211 173.021622 
L 80.898369 173.080014 
L 81.024527 173.483963 
L 81.150685 173.006384 
L 81.655316 173.170763 
L 81.781474 173.393905 
L 81.907632 172.823457 
L 82.03379 173.208712 
L 82.159948 172.843042 
L 82.286106 173.168325 
L 82.412264 172.550659 
L 82.664579 173.146224 
L 82.790737 173.206278 
L 82.916895 173.045123 
L 83.295369 173.517375 
L 83.421526 173.079382 
L 83.926158 173.098414 
L 84.178474 172.763639 
L 84.304631 173.037427 
L 84.430789 173.01342 
L 84.556947 172.766911 
L 84.683105 173.436759 
L 84.809263 173.496751 
L 84.935421 172.970956 
L 85.187736 173.427564 
L 85.313894 173.090151 
L 85.440052 173.09103 
L 85.56621 173.361239 
L 85.692368 173.306679 
L 86.070841 172.835004 
L 86.196999 173.06498 
L 86.323157 173.049811 
L 86.449315 173.321235 
L 86.575473 173.161361 
L 86.701631 172.807496 
L 86.827789 173.477956 
L 86.953947 173.49585 
L 87.080104 173.401343 
L 87.33242 172.851875 
L 87.584736 173.375333 
L 87.710894 173.47357 
L 87.837052 173.04021 
L 87.963209 173.17361 
L 88.089367 173.536362 
L 88.341683 173.335423 
L 88.467841 173.129372 
L 88.846314 173.459618 
L 89.09863 172.962875 
L 89.224788 173.377147 
L 89.477104 172.905687 
L 89.603262 173.157749 
L 89.729419 172.95966 
L 89.855577 173.40152 
L 89.981735 173.175424 
L 90.107893 172.580167 
L 90.360209 173.473946 
L 90.486367 173.541959 
L 90.738682 173.150079 
L 90.86484 173.099388 
L 90.990998 173.633278 
L 91.117156 173.324281 
L 91.243314 173.422743 
L 91.495629 173.156274 
L 91.621787 173.449467 
L 91.747945 172.891892 
L 92.000261 173.576282 
L 92.126419 173.1789 
L 92.883366 173.31734 
L 93.009524 173.2528 
L 93.135682 172.85976 
L 93.26184 173.411746 
L 93.387997 173.219574 
L 93.514155 173.485301 
L 93.766471 173.083414 
L 94.144945 173.232274 
L 94.271102 172.822588 
L 94.523418 173.373481 
L 94.775734 173.529503 
L 94.901892 173.289868 
L 95.02805 173.480843 
L 95.154207 173.409489 
L 95.280365 172.812244 
L 95.532681 173.535839 
L 95.658839 172.526597 
L 95.784997 172.961825 
L 95.911155 172.875477 
L 96.037312 173.40234 
L 96.16347 173.373522 
L 96.415786 173.13017 
L 96.541944 173.297433 
L 96.920417 173.107049 
L 97.046575 173.618301 
L 97.172733 173.232339 
L 97.298891 173.442808 
L 97.425049 173.383719 
L 97.551207 173.489597 
L 97.677365 173.37545 
L 97.92968 172.387279 
L 98.181996 173.218846 
L 98.434312 173.12132 
L 98.56047 173.004455 
L 98.812785 173.570172 
L 98.938943 173.218913 
L 99.065101 173.550682 
L 99.191259 172.715479 
L 99.317417 173.268837 
L 99.443575 173.272132 
L 99.569733 172.622673 
L 99.69589 172.983582 
L 99.822048 172.730936 
L 99.948206 173.433532 
L 100.074364 172.807973 
L 100.200522 173.391812 
L 100.32668 172.76076 
L 100.452838 172.713488 
L 100.578995 173.014401 
L 100.705153 173.021016 
L 100.831311 172.707919 
L 100.957469 173.318091 
L 101.209785 172.980437 
L 101.335943 173.468189 
L 101.4621 173.012767 
L 101.588258 173.336336 
L 101.714416 172.895861 
L 101.840574 173.021244 
L 101.966732 169.854957 
L 102.09289 170.596395 
L 102.219048 166.099933 
L 102.471363 172.121222 
L 102.723679 172.540854 
L 102.849837 173.24838 
L 102.975995 173.079011 
L 103.102153 172.179639 
L 103.228311 172.963316 
L 103.354468 173.031229 
L 103.480626 172.835522 
L 103.606784 172.918414 
L 103.8591 173.287912 
L 104.237573 172.701204 
L 104.489889 173.424036 
L 104.616047 172.573702 
L 104.742205 172.97992 
L 104.868363 172.92762 
L 105.120678 173.094453 
L 105.246836 172.502025 
L 105.499152 173.400491 
L 105.751468 172.730759 
L 105.877626 173.245533 
L 106.003783 172.898371 
L 106.129941 173.45303 
L 106.508415 172.833869 
L 106.634573 173.527825 
L 106.760731 173.014791 
L 107.013046 173.253795 
L 107.139204 173.400642 
L 107.265362 173.152376 
L 107.39152 173.37743 
L 107.517678 173.183413 
L 107.643836 173.313786 
L 107.769993 172.774444 
L 107.896151 173.582258 
L 108.022309 173.426519 
L 108.148467 173.527547 
L 108.274625 173.373131 
L 108.400783 173.488858 
L 108.653098 173.065135 
L 108.779256 173.540513 
L 108.905414 173.322689 
L 109.031572 173.574953 
L 109.15773 173.053098 
L 109.410046 173.570131 
L 109.536204 173.56232 
L 109.788519 173.306595 
L 110.040835 173.449248 
L 110.293151 173.211371 
L 110.671624 173.367092 
L 110.797782 173.10071 
L 111.050098 173.401712 
L 111.302414 173.286992 
L 111.428571 173.520482 
L 111.680887 173.416927 
L 111.807045 173.16198 
L 111.933203 173.525183 
L 112.185519 173.125895 
L 112.437834 173.350526 
L 112.816308 173.549492 
L 113.068624 173.412475 
L 113.320939 173.551972 
L 113.573255 173.527869 
L 113.699413 173.619394 
L 113.951729 173.428337 
L 114.077886 173.451483 
L 114.204044 173.275878 
L 114.330202 173.295421 
L 114.45636 173.572046 
L 115.087149 173.382929 
L 115.213307 173.422383 
L 115.339465 173.253393 
L 115.970254 173.511002 
L 116.348728 173.38184 
L 116.474886 173.598135 
L 116.601044 173.576886 
L 116.727202 173.15083 
L 116.853359 173.242028 
L 116.979517 173.509333 
L 117.105675 173.207515 
L 117.231833 173.487954 
L 117.610307 173.422403 
L 117.736464 173.481038 
L 117.862622 173.331826 
L 117.98878 173.5699 
L 118.367254 173.405304 
L 118.493412 173.490851 
L 118.745727 173.369231 
L 118.998043 173.565163 
L 119.250359 173.518139 
L 119.376517 173.630163 
L 119.881148 173.415239 
L 120.007306 173.61151 
L 120.133464 173.378357 
L 120.259622 173.530565 
L 120.511937 173.289396 
L 120.638095 173.635864 
L 121.016569 173.554855 
L 121.142727 173.336687 
L 121.395042 173.488198 
L 121.647358 173.543181 
L 121.773516 173.456688 
L 121.899674 173.645691 
L 122.15199 173.4005 
L 122.278147 173.518051 
L 122.530463 173.423177 
L 122.656621 173.538924 
L 122.782779 173.397138 
L 123.035095 173.619771 
L 123.161252 173.332902 
L 123.665884 173.527832 
L 124.044357 173.496186 
L 124.296673 173.524884 
L 124.422831 173.438399 
L 124.548989 173.532634 
L 124.675147 173.412645 
L 125.432094 173.636376 
L 125.68441 173.51368 
L 125.810568 173.606792 
L 126.315199 173.454631 
L 126.945988 173.557183 
L 127.198304 173.33407 
L 127.324462 173.626366 
L 127.576778 173.496001 
L 127.702935 173.615069 
L 127.829093 173.48264 
L 127.955251 173.631326 
L 128.081409 173.487805 
L 128.207567 173.532343 
L 128.333725 173.455344 
L 128.459883 173.559991 
L 128.58604 173.40317 
L 128.712198 173.628301 
L 129.21683 173.496964 
L 129.469145 173.478368 
L 129.721461 173.532358 
L 129.973777 173.578381 
L 130.099935 173.451884 
L 130.226093 173.648026 
L 130.604566 173.420352 
L 130.730724 173.556971 
L 130.856882 173.481445 
L 130.98304 173.620675 
L 131.235356 173.474282 
L 131.992303 173.628192 
L 132.118461 173.479822 
L 132.623092 173.642015 
L 132.74925 173.373045 
L 133.001566 173.597422 
L 133.127723 173.475633 
L 133.380039 173.53849 
L 133.632355 173.533085 
L 133.758513 173.497006 
L 133.884671 173.314769 
L 134.136986 173.428682 
L 134.263144 173.471765 
L 134.389302 173.38444 
L 134.641618 173.648468 
L 134.767776 173.430039 
L 134.893933 173.5763 
L 135.020091 173.502863 
L 135.146249 173.221845 
L 135.272407 173.525867 
L 135.398565 173.437256 
L 135.524723 173.521902 
L 136.029354 173.285141 
L 136.155512 173.505317 
L 136.28167 173.500689 
L 136.407828 173.204337 
L 136.912459 173.410243 
L 137.164775 173.436077 
L 137.290933 173.56607 
L 137.417091 173.512159 
L 137.543249 173.616159 
L 137.669406 173.481882 
L 137.921722 173.611648 
L 138.552511 173.24554 
L 138.678669 173.279685 
L 138.930985 173.556977 
L 139.057143 173.464389 
L 139.183301 173.206615 
L 139.309459 173.265625 
L 139.435616 173.562928 
L 139.687932 173.09724 
L 139.81409 173.32751 
L 139.940248 173.255207 
L 140.066406 173.025771 
L 140.192564 173.429906 
L 140.318721 173.189927 
L 140.444879 173.585466 
L 140.571037 173.457072 
L 140.823353 173.565062 
L 141.201826 173.509537 
L 141.327984 173.313467 
L 141.454142 173.426911 
L 141.706458 173.258194 
L 141.832616 173.403172 
L 141.958774 172.827411 
L 142.084932 173.477963 
L 142.211089 173.232689 
L 142.337247 173.540684 
L 142.463405 173.405238 
L 142.589563 173.477493 
L 142.841879 173.394915 
L 142.968037 173.369161 
L 143.094194 172.977471 
L 143.220352 173.219494 
L 143.34651 173.195253 
L 143.598826 173.630141 
L 143.851142 173.068583 
L 143.977299 173.036659 
L 144.103457 173.535836 
L 144.229615 173.000215 
L 144.355773 173.180954 
L 144.481931 173.120453 
L 144.608089 172.909953 
L 144.734247 172.935753 
L 144.986562 173.589017 
L 145.11272 172.920693 
L 145.238878 173.019813 
L 145.365036 173.34492 
L 145.617352 172.767986 
L 145.743509 173.183094 
L 146.248141 173.154137 
L 146.374299 173.33809 
L 146.500457 172.801866 
L 146.626614 173.220123 
L 146.87893 173.004916 
L 147.005088 173.160712 
L 147.131246 172.935628 
L 147.257404 173.545013 
L 147.383562 172.970911 
L 147.50972 173.303124 
L 147.635877 172.606545 
L 147.762035 173.266007 
L 147.888193 173.313341 
L 148.014351 170.835554 
L 148.140509 173.062254 
L 148.266667 168.891572 
L 148.392825 172.106976 
L 148.518982 171.80943 
L 148.64514 173.428044 
L 148.771298 172.691287 
L 148.897456 173.313195 
L 149.023614 173.220095 
L 149.149772 172.475486 
L 149.27593 173.33409 
L 149.402087 173.088575 
L 149.528245 172.585438 
L 149.780561 173.270029 
L 149.906719 172.879949 
L 150.159035 173.551414 
L 150.285192 173.268597 
L 150.537508 173.580462 
L 150.663666 172.684202 
L 150.789824 173.138717 
L 150.915982 172.663653 
L 151.168297 173.350546 
L 151.294455 173.15673 
L 151.546771 173.307147 
L 151.799087 172.771101 
L 151.925245 173.072229 
L 152.051402 172.882945 
L 152.17756 173.360242 
L 152.303718 172.725963 
L 152.556034 173.202299 
L 152.682192 173.47867 
L 152.80835 173.067432 
L 152.934508 173.417371 
L 153.060665 173.284601 
L 153.186823 173.361591 
L 153.312981 173.017855 
L 153.565297 173.541221 
L 153.691455 173.320253 
L 154.196086 173.440091 
L 154.322244 173.4435 
L 154.448402 173.558065 
L 154.57456 173.156628 
L 154.700718 173.493793 
L 154.953033 173.434475 
L 155.079191 173.51545 
L 155.205349 173.390697 
L 155.331507 173.593497 
L 155.583823 173.423742 
L 155.70998 173.555546 
L 155.836138 173.526245 
L 155.962296 173.25837 
L 156.214612 173.490906 
L 156.466928 173.290644 
L 156.593085 173.530809 
L 156.845401 173.2329 
L 157.097717 173.343223 
L 157.223875 173.394135 
L 157.350033 173.244369 
L 157.47619 173.568476 
L 157.602348 173.356611 
L 157.728506 173.514755 
L 157.980822 173.313929 
L 158.233138 173.192735 
L 158.485453 173.469516 
L 158.737769 173.522854 
L 159.116243 173.512443 
L 159.242401 173.547811 
L 159.368558 173.458911 
L 159.494716 173.595922 
L 159.620874 173.47263 
L 159.87319 173.628587 
L 160.125506 173.30921 
L 160.630137 173.56775 
L 160.756295 173.375717 
L 161.6394 173.608584 
L 161.891716 173.360693 
L 162.017873 173.604154 
L 162.144031 173.571633 
L 162.270189 173.390158 
L 162.396347 173.554176 
L 162.522505 173.461814 
L 162.648663 173.57889 
L 162.900978 173.403085 
L 163.027136 173.408826 
L 163.279452 173.582103 
L 163.40561 173.602779 
L 163.531768 173.356349 
L 163.784083 173.471799 
L 164.288715 173.511632 
L 164.414873 173.468934 
L 164.541031 173.654498 
L 164.793346 173.452585 
L 165.424136 173.587538 
L 165.550294 173.614401 
L 165.676451 173.518615 
L 165.802609 173.615095 
L 166.181083 173.477418 
L 166.307241 173.656804 
L 166.559556 173.415764 
L 166.685714 173.58088 
L 167.064188 173.579483 
L 167.190346 173.61911 
L 167.316504 173.515068 
L 167.694977 173.575739 
L 167.947293 173.518304 
L 168.073451 173.571629 
L 168.199609 173.487341 
L 168.451924 173.567894 
L 168.956556 173.546006 
L 169.208871 173.626339 
L 169.461187 173.533046 
L 169.587345 173.602796 
L 169.839661 173.524729 
L 170.091977 173.586104 
L 170.344292 173.565424 
L 170.596608 173.611021 
L 172.23666 173.584378 
L 172.615134 173.566701 
L 174.00287 173.613781 
L 174.129028 173.527475 
L 174.381344 173.599746 
L 174.633659 173.53688 
L 175.264449 173.637312 
L 175.390607 173.509227 
L 175.895238 173.596649 
L 176.273712 173.559076 
L 176.526027 173.580519 
L 176.652185 173.524357 
L 176.904501 173.593145 
L 177.030659 173.516919 
L 177.156817 173.625922 
L 177.409132 173.530526 
L 177.53529 173.628442 
L 177.661448 173.526176 
L 177.787606 173.587669 
L 177.913764 173.495053 
L 178.039922 173.628591 
L 178.16608 173.513882 
L 178.418395 173.655521 
L 178.796869 173.5304 
L 179.049185 173.643966 
L 179.427658 173.524197 
L 179.679974 173.605345 
L 180.941553 173.519784 
L 181.193868 173.580505 
L 181.572342 173.595901 
L 181.950815 173.597229 
L 182.203131 173.633452 
L 182.329289 173.481427 
L 182.83392 173.6259 
L 183.086236 173.574308 
L 183.338552 173.648207 
L 183.717025 173.598506 
L 184.221657 173.637095 
L 184.473973 173.613761 
L 186.492498 173.526511 
L 186.870972 173.643191 
L 187.249446 173.54064 
L 187.375603 173.578188 
L 187.501761 173.498216 
L 187.627919 173.637607 
L 187.754077 173.496819 
L 187.880235 173.59228 
L 188.006393 173.51778 
L 188.132551 173.610845 
L 188.384866 173.532555 
L 189.646445 173.628429 
L 189.898761 173.459104 
L 190.655708 173.505872 
L 190.781866 173.406997 
L 190.908023 173.54919 
L 191.160339 173.484929 
L 191.412655 173.495567 
L 191.538813 173.54274 
L 191.664971 173.404131 
L 191.791129 173.592115 
L 191.917286 173.48483 
L 192.169602 173.578421 
L 192.800391 173.529111 
L 192.926549 173.543401 
L 193.178865 173.416845 
L 193.305023 173.501038 
L 193.557339 173.440061 
L 193.683496 173.46021 
L 193.809654 173.62016 
L 194.06197 173.103776 
L 194.188128 172.521385 
L 194.314286 169.899157 
L 194.440444 172.810839 
L 194.692759 173.497609 
L 194.818917 173.291019 
L 195.071233 173.576333 
L 195.197391 173.297923 
L 195.449706 173.568845 
L 195.575864 173.459987 
L 195.702022 173.515482 
L 195.82818 173.394805 
L 196.206654 173.566248 
L 196.332811 173.418324 
L 196.585127 173.575257 
L 196.711285 173.421512 
L 196.963601 173.510348 
L 197.089759 173.441455 
L 197.468232 173.597684 
L 197.59439 173.593884 
L 197.846706 173.424738 
L 198.099022 173.440573 
L 198.225179 173.537577 
L 198.477495 173.447365 
L 198.729811 173.642101 
L 198.855969 173.487516 
L 199.108284 173.613052 
L 199.3606 173.581916 
L 201.12681 173.585626 
L 201.379126 173.541304 
L 201.631442 173.628424 
L 202.136073 173.601747 
L 202.89302 173.477269 
L 203.145336 173.564975 
L 203.397652 173.468617 
L 203.52381 173.626935 
L 203.776125 173.617903 
L 204.406915 173.573913 
L 204.65923 173.593063 
L 205.794651 173.6258 
L 206.299282 173.552273 
L 206.930072 173.60552 
L 208.443966 173.618995 
L 208.696282 173.626831 
L 208.82244 173.544287 
L 209.074755 173.610531 
L 209.327071 173.574441 
L 209.831703 173.590185 
L 210.58865 173.642161 
L 211.093281 173.581214 
L 211.72407 173.616104 
L 212.481018 173.609288 
L 212.607175 173.54724 
L 212.733333 173.649836 
L 213.111807 173.596711 
L 213.616438 173.60104 
L 214.751859 173.537195 
L 215.004175 173.624996 
L 215.634964 173.582789 
L 215.88728 173.554633 
L 216.391911 173.581371 
L 217.905806 173.623529 
L 218.410437 173.655134 
L 218.662753 173.59726 
L 219.4197 173.654703 
L 220.176647 173.617258 
L 224.71833 173.568639 
L 224.970646 173.649475 
L 229.512329 173.608536 
L 230.143118 173.595615 
L 230.395434 173.537424 
L 230.773907 173.478159 
L 230.900065 173.622426 
L 231.278539 173.567151 
L 231.530855 173.630336 
L 231.78317 173.42562 
L 232.287802 173.612338 
L 232.666275 173.557897 
L 232.918591 173.61904 
L 233.297065 173.616118 
L 233.423222 173.506804 
L 233.675538 173.550578 
L 233.801696 173.47994 
L 234.054012 173.529446 
L 234.432485 173.628826 
L 234.684801 173.599575 
L 234.937117 173.621054 
L 235.31559 173.493693 
L 235.441748 173.580006 
L 235.567906 173.511243 
L 235.820222 173.581322 
L 236.198695 173.561499 
L 236.324853 173.460098 
L 236.451011 173.623427 
L 236.577169 173.478005 
L 236.829485 173.462082 
L 236.955643 173.430338 
L 237.0818 173.550575 
L 237.334116 173.536969 
L 237.460274 173.597044 
L 237.586432 173.377729 
L 237.71259 173.489318 
L 237.838748 173.416143 
L 238.217221 173.590715 
L 239.100326 173.462419 
L 239.352642 173.543135 
L 239.4788 173.323365 
L 239.731115 173.618471 
L 239.857273 173.527648 
L 239.983431 173.611827 
L 240.235747 173.196496 
L 240.361905 171.293935 
L 240.488063 173.36742 
L 240.61422 172.783908 
L 240.866536 173.499316 
L 241.371168 173.567 
L 241.497326 173.643039 
L 241.623483 173.406793 
L 241.749641 173.528312 
L 241.875799 173.414104 
L 242.001957 173.525048 
L 242.128115 173.454214 
L 242.254273 173.585469 
L 242.506588 173.540367 
L 242.758904 173.535467 
L 243.137378 173.423054 
L 243.263536 173.568591 
L 243.642009 173.440979 
L 244.020483 173.570452 
L 244.146641 173.503612 
L 244.272798 173.614761 
L 244.398956 173.465823 
L 244.651272 173.654921 
L 244.903588 173.568709 
L 245.029746 173.636685 
L 245.155903 173.534619 
L 245.282061 173.600621 
L 245.408219 173.434876 
L 245.660535 173.543301 
L 245.912851 173.531807 
L 246.291324 173.598704 
L 246.669798 173.370133 
L 246.795956 173.634914 
L 246.922114 173.446886 
L 247.174429 173.639993 
L 247.300587 173.651655 
L 247.426745 173.542903 
L 247.805219 173.644225 
L 247.931376 173.523314 
L 248.057534 173.602764 
L 248.183692 173.522695 
L 248.436008 173.554606 
L 248.814481 173.524468 
L 248.940639 173.604363 
L 249.066797 173.536676 
L 249.319113 173.627518 
L 249.445271 173.532983 
L 249.571429 173.623781 
L 249.949902 173.50407 
L 252.599217 173.58411 
L 252.977691 173.584841 
L 253.230007 173.572504 
L 253.482322 173.563071 
L 253.734638 173.588915 
L 254.113112 173.599703 
L 255.248532 173.576732 
L 255.500848 173.62747 
L 256.888584 173.630155 
L 258.402479 173.639711 
L 259.159426 173.625783 
L 259.5379 173.625354 
L 260.042531 173.606003 
L 260.547162 173.627755 
L 260.925636 173.548258 
L 261.177952 173.611944 
L 262.313372 173.639552 
L 265.719635 173.630743 
L 266.60274 173.633939 
L 266.855055 173.654408 
L 267.864318 173.621497 
L 269.125897 173.620434 
L 273.162948 173.61477 
L 273.415264 173.598592 
L 273.793738 173.606431 
L 275.686106 173.639138 
L 275.812264 173.555045 
L 276.190737 173.632213 
L 277.326158 173.569075 
L 277.326158 173.569075 
" clip-path="url(#p70a9b49271)" style="fill: none; stroke: #a6d854; stroke-linecap: round"/>
   </g>
   <g id="patch_3">
    <path d="M 45.12 181.416412 
L 45.12 10.8 
" style="fill: none; stroke: #cccccc; stroke-linejoin: miter; stroke-linecap: square"/>
   </g>
   <g id="patch_4">
    <path d="M 277.2 181.416412 
L 277.2 10.8 
" style="fill: none; stroke: #cccccc; stroke-linejoin: miter; stroke-linecap: square"/>
   </g>
   <g id="patch_5">
    <path d="M 45.12 181.416412 
L 277.2 181.416412 
" style="fill: none; stroke: #cccccc; stroke-linejoin: miter; stroke-linecap: square"/>
   </g>
   <g id="patch_6">
    <path d="M 45.12 10.8 
L 277.2 10.8 
" style="fill: none; stroke: #cccccc; stroke-linejoin: miter; stroke-linecap: square"/>
   </g>
  </g>
 </g>
 <defs>
  <clipPath id="p70a9b49271">
   <rect x="45.12" y="10.8" width="232.08" height="170.616412"/>
  </clipPath>
 </defs>
</svg>
