<?xml version="1.0" encoding="utf-8" standalone="no"?>
<!DOCTYPE svg PUBLIC "-//W3C//DTD SVG 1.1//EN"
  "http://www.w3.org/Graphics/SVG/1.1/DTD/svg11.dtd">
<svg xmlns:xlink="http://www.w3.org/1999/xlink" width="288pt" height="230.4pt" viewBox="0 0 288 230.4" xmlns="http://www.w3.org/2000/svg" version="1.1">
 <metadata>
  <rdf:RDF xmlns:dc="http://purl.org/dc/elements/1.1/" xmlns:cc="http://creativecommons.org/ns#" xmlns:rdf="http://www.w3.org/1999/02/22-rdf-syntax-ns#">
   <cc:Work>
    <dc:type rdf:resource="http://purl.org/dc/dcmitype/StillImage"/>
    <dc:date>2024-07-21T17:28:17.666420</dc:date>
    <dc:format>image/svg+xml</dc:format>
    <dc:creator>
     <cc:Agent>
      <dc:title>Matplotlib v3.9.0, https://matplotlib.org/</dc:title>
     </cc:Agent>
    </dc:creator>
   </cc:Work>
  </rdf:RDF>
 </metadata>
 <defs>
  <style type="text/css">*{stroke-linejoin: round; stroke-linecap: butt}</style>
 </defs>
 <g id="figure_1">
  <g id="patch_1">
   <path d="M 0 230.4 
L 288 230.4 
L 288 0 
L 0 0 
z
" style="fill: #ffffff"/>
  </g>
  <g id="axes_1">
   <g id="patch_2">
    <path d="M 50.7 181.416412 
L 277.2 181.416412 
L 277.2 11.514738 
L 50.7 11.514738 
z
" style="fill: #ffffff"/>
   </g>
   <g id="matplotlib.axis_1">
    <g id="xtick_1">
     <g id="line2d_1">
      <path d="M 241.247619 181.416412 
L 241.247619 11.514738 
" clip-path="url(#pcf26d05952)" style="fill: none; stroke: #cccccc; stroke-width: 0.8; stroke-linecap: round"/>
     </g>
     <g id="line2d_2"/>
     <g id="text_1">
      <!-- 6 hours -->
      <g style="fill: #262626" transform="translate(216.259128 213.560866) rotate(-45) scale(0.1 -0.1)">
       <defs>
        <path id="ArialMT-36" d="M 3184 3459 
L 2625 3416 
Q 2550 3747 2413 3897 
Q 2184 4138 1850 4138 
Q 1581 4138 1378 3988 
Q 1113 3794 959 3422 
Q 806 3050 800 2363 
Q 1003 2672 1297 2822 
Q 1591 2972 1913 2972 
Q 2475 2972 2870 2558 
Q 3266 2144 3266 1488 
Q 3266 1056 3080 686 
Q 2894 316 2569 119 
Q 2244 -78 1831 -78 
Q 1128 -78 684 439 
Q 241 956 241 2144 
Q 241 3472 731 4075 
Q 1159 4600 1884 4600 
Q 2425 4600 2770 4297 
Q 3116 3994 3184 3459 
z
M 888 1484 
Q 888 1194 1011 928 
Q 1134 663 1356 523 
Q 1578 384 1822 384 
Q 2178 384 2434 671 
Q 2691 959 2691 1453 
Q 2691 1928 2437 2201 
Q 2184 2475 1800 2475 
Q 1419 2475 1153 2201 
Q 888 1928 888 1484 
z
" transform="scale(0.015625)"/>
        <path id="ArialMT-20" transform="scale(0.015625)"/>
        <path id="ArialMT-68" d="M 422 0 
L 422 4581 
L 984 4581 
L 984 2938 
Q 1378 3394 1978 3394 
Q 2347 3394 2619 3248 
Q 2891 3103 3008 2847 
Q 3125 2591 3125 2103 
L 3125 0 
L 2563 0 
L 2563 2103 
Q 2563 2525 2380 2717 
Q 2197 2909 1863 2909 
Q 1613 2909 1392 2779 
Q 1172 2650 1078 2428 
Q 984 2206 984 1816 
L 984 0 
L 422 0 
z
" transform="scale(0.015625)"/>
        <path id="ArialMT-6f" d="M 213 1659 
Q 213 2581 725 3025 
Q 1153 3394 1769 3394 
Q 2453 3394 2887 2945 
Q 3322 2497 3322 1706 
Q 3322 1066 3130 698 
Q 2938 331 2570 128 
Q 2203 -75 1769 -75 
Q 1072 -75 642 372 
Q 213 819 213 1659 
z
M 791 1659 
Q 791 1022 1069 705 
Q 1347 388 1769 388 
Q 2188 388 2466 706 
Q 2744 1025 2744 1678 
Q 2744 2294 2464 2611 
Q 2184 2928 1769 2928 
Q 1347 2928 1069 2612 
Q 791 2297 791 1659 
z
" transform="scale(0.015625)"/>
        <path id="ArialMT-75" d="M 2597 0 
L 2597 488 
Q 2209 -75 1544 -75 
Q 1250 -75 995 37 
Q 741 150 617 320 
Q 494 491 444 738 
Q 409 903 409 1263 
L 409 3319 
L 972 3319 
L 972 1478 
Q 972 1038 1006 884 
Q 1059 663 1231 536 
Q 1403 409 1656 409 
Q 1909 409 2131 539 
Q 2353 669 2445 892 
Q 2538 1116 2538 1541 
L 2538 3319 
L 3100 3319 
L 3100 0 
L 2597 0 
z
" transform="scale(0.015625)"/>
        <path id="ArialMT-72" d="M 416 0 
L 416 3319 
L 922 3319 
L 922 2816 
Q 1116 3169 1280 3281 
Q 1444 3394 1641 3394 
Q 1925 3394 2219 3213 
L 2025 2691 
Q 1819 2813 1613 2813 
Q 1428 2813 1281 2702 
Q 1134 2591 1072 2394 
Q 978 2094 978 1738 
L 978 0 
L 416 0 
z
" transform="scale(0.015625)"/>
        <path id="ArialMT-73" d="M 197 991 
L 753 1078 
Q 800 744 1014 566 
Q 1228 388 1613 388 
Q 2000 388 2187 545 
Q 2375 703 2375 916 
Q 2375 1106 2209 1216 
Q 2094 1291 1634 1406 
Q 1016 1563 777 1677 
Q 538 1791 414 1992 
Q 291 2194 291 2438 
Q 291 2659 392 2848 
Q 494 3038 669 3163 
Q 800 3259 1026 3326 
Q 1253 3394 1513 3394 
Q 1903 3394 2198 3281 
Q 2494 3169 2634 2976 
Q 2775 2784 2828 2463 
L 2278 2388 
Q 2241 2644 2061 2787 
Q 1881 2931 1553 2931 
Q 1166 2931 1000 2803 
Q 834 2675 834 2503 
Q 834 2394 903 2306 
Q 972 2216 1119 2156 
Q 1203 2125 1616 2013 
Q 2213 1853 2448 1751 
Q 2684 1650 2818 1456 
Q 2953 1263 2953 975 
Q 2953 694 2789 445 
Q 2625 197 2315 61 
Q 2006 -75 1616 -75 
Q 969 -75 630 194 
Q 291 463 197 991 
z
" transform="scale(0.015625)"/>
       </defs>
       <use xlink:href="#ArialMT-36"/>
       <use xlink:href="#ArialMT-20" x="55.615234"/>
       <use xlink:href="#ArialMT-68" x="83.398438"/>
       <use xlink:href="#ArialMT-6f" x="139.013672"/>
       <use xlink:href="#ArialMT-75" x="194.628906"/>
       <use xlink:href="#ArialMT-72" x="250.244141"/>
       <use xlink:href="#ArialMT-73" x="283.544922"/>
      </g>
     </g>
    </g>
    <g id="xtick_2">
     <g id="line2d_3">
      <path d="M 196.307143 181.416412 
L 196.307143 11.514738 
" clip-path="url(#pcf26d05952)" style="fill: none; stroke: #cccccc; stroke-width: 0.8; stroke-linecap: round"/>
     </g>
     <g id="line2d_4"/>
     <g id="text_2">
      <!-- 8 hours -->
      <g style="fill: #262626" transform="translate(171.318652 213.560866) rotate(-45) scale(0.1 -0.1)">
       <defs>
        <path id="ArialMT-38" d="M 1131 2484 
Q 781 2613 612 2850 
Q 444 3088 444 3419 
Q 444 3919 803 4259 
Q 1163 4600 1759 4600 
Q 2359 4600 2725 4251 
Q 3091 3903 3091 3403 
Q 3091 3084 2923 2848 
Q 2756 2613 2416 2484 
Q 2838 2347 3058 2040 
Q 3278 1734 3278 1309 
Q 3278 722 2862 322 
Q 2447 -78 1769 -78 
Q 1091 -78 675 323 
Q 259 725 259 1325 
Q 259 1772 486 2073 
Q 713 2375 1131 2484 
z
M 1019 3438 
Q 1019 3113 1228 2906 
Q 1438 2700 1772 2700 
Q 2097 2700 2305 2904 
Q 2513 3109 2513 3406 
Q 2513 3716 2298 3927 
Q 2084 4138 1766 4138 
Q 1444 4138 1231 3931 
Q 1019 3725 1019 3438 
z
M 838 1322 
Q 838 1081 952 856 
Q 1066 631 1291 507 
Q 1516 384 1775 384 
Q 2178 384 2440 643 
Q 2703 903 2703 1303 
Q 2703 1709 2433 1975 
Q 2163 2241 1756 2241 
Q 1359 2241 1098 1978 
Q 838 1716 838 1322 
z
" transform="scale(0.015625)"/>
       </defs>
       <use xlink:href="#ArialMT-38"/>
       <use xlink:href="#ArialMT-20" x="55.615234"/>
       <use xlink:href="#ArialMT-68" x="83.398438"/>
       <use xlink:href="#ArialMT-6f" x="139.013672"/>
       <use xlink:href="#ArialMT-75" x="194.628906"/>
       <use xlink:href="#ArialMT-72" x="250.244141"/>
       <use xlink:href="#ArialMT-73" x="283.544922"/>
      </g>
     </g>
    </g>
    <g id="xtick_3">
     <g id="line2d_5">
      <path d="M 151.366667 181.416412 
L 151.366667 11.514738 
" clip-path="url(#pcf26d05952)" style="fill: none; stroke: #cccccc; stroke-width: 0.8; stroke-linecap: round"/>
     </g>
     <g id="line2d_6"/>
     <g id="text_3">
      <!-- 12 hours -->
      <g style="fill: #262626" transform="translate(122.445999 217.493043) rotate(-45) scale(0.1 -0.1)">
       <defs>
        <path id="ArialMT-31" d="M 2384 0 
L 1822 0 
L 1822 3584 
Q 1619 3391 1289 3197 
Q 959 3003 697 2906 
L 697 3450 
Q 1169 3672 1522 3987 
Q 1875 4303 2022 4600 
L 2384 4600 
L 2384 0 
z
" transform="scale(0.015625)"/>
        <path id="ArialMT-32" d="M 3222 541 
L 3222 0 
L 194 0 
Q 188 203 259 391 
Q 375 700 629 1000 
Q 884 1300 1366 1694 
Q 2113 2306 2375 2664 
Q 2638 3022 2638 3341 
Q 2638 3675 2398 3904 
Q 2159 4134 1775 4134 
Q 1369 4134 1125 3890 
Q 881 3647 878 3216 
L 300 3275 
Q 359 3922 746 4261 
Q 1134 4600 1788 4600 
Q 2447 4600 2831 4234 
Q 3216 3869 3216 3328 
Q 3216 3053 3103 2787 
Q 2991 2522 2730 2228 
Q 2469 1934 1863 1422 
Q 1356 997 1212 845 
Q 1069 694 975 541 
L 3222 541 
z
" transform="scale(0.015625)"/>
       </defs>
       <use xlink:href="#ArialMT-31"/>
       <use xlink:href="#ArialMT-32" x="55.615234"/>
       <use xlink:href="#ArialMT-20" x="111.230469"/>
       <use xlink:href="#ArialMT-68" x="139.013672"/>
       <use xlink:href="#ArialMT-6f" x="194.628906"/>
       <use xlink:href="#ArialMT-75" x="250.244141"/>
       <use xlink:href="#ArialMT-72" x="305.859375"/>
       <use xlink:href="#ArialMT-73" x="339.160156"/>
      </g>
     </g>
    </g>
    <g id="xtick_4">
     <g id="line2d_7">
      <path d="M 106.42619 181.416412 
L 106.42619 11.514738 
" clip-path="url(#pcf26d05952)" style="fill: none; stroke: #cccccc; stroke-width: 0.8; stroke-linecap: round"/>
     </g>
     <g id="line2d_8"/>
     <g id="text_4">
      <!-- Daily -->
      <g style="fill: #262626" transform="translate(89.221399 205.694303) rotate(-45) scale(0.1 -0.1)">
       <defs>
        <path id="ArialMT-44" d="M 494 0 
L 494 4581 
L 2072 4581 
Q 2606 4581 2888 4516 
Q 3281 4425 3559 4188 
Q 3922 3881 4101 3404 
Q 4281 2928 4281 2316 
Q 4281 1794 4159 1391 
Q 4038 988 3847 723 
Q 3656 459 3429 307 
Q 3203 156 2883 78 
Q 2563 0 2147 0 
L 494 0 
z
M 1100 541 
L 2078 541 
Q 2531 541 2789 625 
Q 3047 709 3200 863 
Q 3416 1078 3536 1442 
Q 3656 1806 3656 2325 
Q 3656 3044 3420 3430 
Q 3184 3816 2847 3947 
Q 2603 4041 2063 4041 
L 1100 4041 
L 1100 541 
z
" transform="scale(0.015625)"/>
        <path id="ArialMT-61" d="M 2588 409 
Q 2275 144 1986 34 
Q 1697 -75 1366 -75 
Q 819 -75 525 192 
Q 231 459 231 875 
Q 231 1119 342 1320 
Q 453 1522 633 1644 
Q 813 1766 1038 1828 
Q 1203 1872 1538 1913 
Q 2219 1994 2541 2106 
Q 2544 2222 2544 2253 
Q 2544 2597 2384 2738 
Q 2169 2928 1744 2928 
Q 1347 2928 1158 2789 
Q 969 2650 878 2297 
L 328 2372 
Q 403 2725 575 2942 
Q 747 3159 1072 3276 
Q 1397 3394 1825 3394 
Q 2250 3394 2515 3294 
Q 2781 3194 2906 3042 
Q 3031 2891 3081 2659 
Q 3109 2516 3109 2141 
L 3109 1391 
Q 3109 606 3145 398 
Q 3181 191 3288 0 
L 2700 0 
Q 2613 175 2588 409 
z
M 2541 1666 
Q 2234 1541 1622 1453 
Q 1275 1403 1131 1340 
Q 988 1278 909 1158 
Q 831 1038 831 891 
Q 831 666 1001 516 
Q 1172 366 1500 366 
Q 1825 366 2078 508 
Q 2331 650 2450 897 
Q 2541 1088 2541 1459 
L 2541 1666 
z
" transform="scale(0.015625)"/>
        <path id="ArialMT-69" d="M 425 3934 
L 425 4581 
L 988 4581 
L 988 3934 
L 425 3934 
z
M 425 0 
L 425 3319 
L 988 3319 
L 988 0 
L 425 0 
z
" transform="scale(0.015625)"/>
        <path id="ArialMT-6c" d="M 409 0 
L 409 4581 
L 972 4581 
L 972 0 
L 409 0 
z
" transform="scale(0.015625)"/>
        <path id="ArialMT-79" d="M 397 -1278 
L 334 -750 
Q 519 -800 656 -800 
Q 844 -800 956 -737 
Q 1069 -675 1141 -563 
Q 1194 -478 1313 -144 
Q 1328 -97 1363 -6 
L 103 3319 
L 709 3319 
L 1400 1397 
Q 1534 1031 1641 628 
Q 1738 1016 1872 1384 
L 2581 3319 
L 3144 3319 
L 1881 -56 
Q 1678 -603 1566 -809 
Q 1416 -1088 1222 -1217 
Q 1028 -1347 759 -1347 
Q 597 -1347 397 -1278 
z
" transform="scale(0.015625)"/>
       </defs>
       <use xlink:href="#ArialMT-44"/>
       <use xlink:href="#ArialMT-61" x="72.216797"/>
       <use xlink:href="#ArialMT-69" x="127.832031"/>
       <use xlink:href="#ArialMT-6c" x="150.048828"/>
       <use xlink:href="#ArialMT-79" x="172.265625"/>
      </g>
     </g>
    </g>
    <g id="xtick_5">
     <g id="line2d_9">
      <path d="M 67.905782 181.416412 
L 67.905782 11.514738 
" clip-path="url(#pcf26d05952)" style="fill: none; stroke: #cccccc; stroke-width: 0.8; stroke-linecap: round"/>
     </g>
     <g id="line2d_10"/>
     <g id="text_5">
      <!-- Weekly -->
      <g style="fill: #262626" transform="translate(43.360338 213.034955) rotate(-45) scale(0.1 -0.1)">
       <defs>
        <path id="ArialMT-57" d="M 1294 0 
L 78 4581 
L 700 4581 
L 1397 1578 
Q 1509 1106 1591 641 
Q 1766 1375 1797 1488 
L 2669 4581 
L 3400 4581 
L 4056 2263 
Q 4303 1400 4413 641 
Q 4500 1075 4641 1638 
L 5359 4581 
L 5969 4581 
L 4713 0 
L 4128 0 
L 3163 3491 
Q 3041 3928 3019 4028 
Q 2947 3713 2884 3491 
L 1913 0 
L 1294 0 
z
" transform="scale(0.015625)"/>
        <path id="ArialMT-65" d="M 2694 1069 
L 3275 997 
Q 3138 488 2766 206 
Q 2394 -75 1816 -75 
Q 1088 -75 661 373 
Q 234 822 234 1631 
Q 234 2469 665 2931 
Q 1097 3394 1784 3394 
Q 2450 3394 2872 2941 
Q 3294 2488 3294 1666 
Q 3294 1616 3291 1516 
L 816 1516 
Q 847 969 1125 678 
Q 1403 388 1819 388 
Q 2128 388 2347 550 
Q 2566 713 2694 1069 
z
M 847 1978 
L 2700 1978 
Q 2663 2397 2488 2606 
Q 2219 2931 1791 2931 
Q 1403 2931 1139 2672 
Q 875 2413 847 1978 
z
" transform="scale(0.015625)"/>
        <path id="ArialMT-6b" d="M 425 0 
L 425 4581 
L 988 4581 
L 988 1969 
L 2319 3319 
L 3047 3319 
L 1778 2088 
L 3175 0 
L 2481 0 
L 1384 1697 
L 988 1316 
L 988 0 
L 425 0 
z
" transform="scale(0.015625)"/>
       </defs>
       <use xlink:href="#ArialMT-57"/>
       <use xlink:href="#ArialMT-65" x="92.634766"/>
       <use xlink:href="#ArialMT-65" x="148.25"/>
       <use xlink:href="#ArialMT-6b" x="203.865234"/>
       <use xlink:href="#ArialMT-6c" x="253.865234"/>
       <use xlink:href="#ArialMT-79" x="276.082031"/>
      </g>
     </g>
    </g>
   </g>
   <g id="matplotlib.axis_2">
    <g id="ytick_1">
     <g id="line2d_11"/>
     <g id="text_6">
      <!-- 0 -->
      <g style="fill: #262626" transform="translate(41.639063 177.273875) scale(0.1 -0.1)">
       <defs>
        <path id="ArialMT-30" d="M 266 2259 
Q 266 3072 433 3567 
Q 600 4063 929 4331 
Q 1259 4600 1759 4600 
Q 2128 4600 2406 4451 
Q 2684 4303 2865 4023 
Q 3047 3744 3150 3342 
Q 3253 2941 3253 2259 
Q 3253 1453 3087 958 
Q 2922 463 2592 192 
Q 2263 -78 1759 -78 
Q 1097 -78 719 397 
Q 266 969 266 2259 
z
M 844 2259 
Q 844 1131 1108 757 
Q 1372 384 1759 384 
Q 2147 384 2411 759 
Q 2675 1134 2675 2259 
Q 2675 3391 2411 3762 
Q 2147 4134 1753 4134 
Q 1366 4134 1134 3806 
Q 844 3388 844 2259 
z
" transform="scale(0.015625)"/>
       </defs>
       <use xlink:href="#ArialMT-30"/>
      </g>
     </g>
    </g>
    <g id="ytick_2">
     <g id="line2d_12"/>
     <g id="text_7">
      <!-- 250 -->
      <g style="fill: #262626" transform="translate(30.517188 154.549263) scale(0.1 -0.1)">
       <defs>
        <path id="ArialMT-35" d="M 266 1200 
L 856 1250 
Q 922 819 1161 601 
Q 1400 384 1738 384 
Q 2144 384 2425 690 
Q 2706 997 2706 1503 
Q 2706 1984 2436 2262 
Q 2166 2541 1728 2541 
Q 1456 2541 1237 2417 
Q 1019 2294 894 2097 
L 366 2166 
L 809 4519 
L 3088 4519 
L 3088 3981 
L 1259 3981 
L 1013 2750 
Q 1425 3038 1878 3038 
Q 2478 3038 2890 2622 
Q 3303 2206 3303 1553 
Q 3303 931 2941 478 
Q 2500 -78 1738 -78 
Q 1113 -78 717 272 
Q 322 622 266 1200 
z
" transform="scale(0.015625)"/>
       </defs>
       <use xlink:href="#ArialMT-32"/>
       <use xlink:href="#ArialMT-35" x="55.615234"/>
       <use xlink:href="#ArialMT-30" x="111.230469"/>
      </g>
     </g>
    </g>
    <g id="ytick_3">
     <g id="line2d_13"/>
     <g id="text_8">
      <!-- 500 -->
      <g style="fill: #262626" transform="translate(30.517188 131.824652) scale(0.1 -0.1)">
       <use xlink:href="#ArialMT-35"/>
       <use xlink:href="#ArialMT-30" x="55.615234"/>
       <use xlink:href="#ArialMT-30" x="111.230469"/>
      </g>
     </g>
    </g>
    <g id="ytick_4">
     <g id="line2d_14"/>
     <g id="text_9">
      <!-- 750 -->
      <g style="fill: #262626" transform="translate(30.517188 109.100041) scale(0.1 -0.1)">
       <defs>
        <path id="ArialMT-37" d="M 303 3981 
L 303 4522 
L 3269 4522 
L 3269 4084 
Q 2831 3619 2401 2847 
Q 1972 2075 1738 1259 
Q 1569 684 1522 0 
L 944 0 
Q 953 541 1156 1306 
Q 1359 2072 1739 2783 
Q 2119 3494 2547 3981 
L 303 3981 
z
" transform="scale(0.015625)"/>
       </defs>
       <use xlink:href="#ArialMT-37"/>
       <use xlink:href="#ArialMT-35" x="55.615234"/>
       <use xlink:href="#ArialMT-30" x="111.230469"/>
      </g>
     </g>
    </g>
    <g id="ytick_5">
     <g id="line2d_15"/>
     <g id="text_10">
      <!-- 1000 -->
      <g style="fill: #262626" transform="translate(24.95625 86.375429) scale(0.1 -0.1)">
       <use xlink:href="#ArialMT-31"/>
       <use xlink:href="#ArialMT-30" x="55.615234"/>
       <use xlink:href="#ArialMT-30" x="111.230469"/>
       <use xlink:href="#ArialMT-30" x="166.845703"/>
      </g>
     </g>
    </g>
    <g id="ytick_6">
     <g id="line2d_16"/>
     <g id="text_11">
      <!-- 1250 -->
      <g style="fill: #262626" transform="translate(24.95625 63.650818) scale(0.1 -0.1)">
       <use xlink:href="#ArialMT-31"/>
       <use xlink:href="#ArialMT-32" x="55.615234"/>
       <use xlink:href="#ArialMT-35" x="111.230469"/>
       <use xlink:href="#ArialMT-30" x="166.845703"/>
      </g>
     </g>
    </g>
    <g id="ytick_7">
     <g id="line2d_17"/>
     <g id="text_12">
      <!-- 1500 -->
      <g style="fill: #262626" transform="translate(24.95625 40.926207) scale(0.1 -0.1)">
       <use xlink:href="#ArialMT-31"/>
       <use xlink:href="#ArialMT-35" x="55.615234"/>
       <use xlink:href="#ArialMT-30" x="111.230469"/>
       <use xlink:href="#ArialMT-30" x="166.845703"/>
      </g>
     </g>
    </g>
    <g id="ytick_8">
     <g id="line2d_18"/>
     <g id="text_13">
      <!-- 1750 -->
      <g style="fill: #262626" transform="translate(24.95625 18.201596) scale(0.1 -0.1)">
       <use xlink:href="#ArialMT-31"/>
       <use xlink:href="#ArialMT-37" x="55.615234"/>
       <use xlink:href="#ArialMT-35" x="111.230469"/>
       <use xlink:href="#ArialMT-30" x="166.845703"/>
      </g>
     </g>
    </g>
    <g id="text_14">
     <!-- GW -->
     <g style="fill: #262626" transform="translate(18.96875 105.074169) rotate(-90) scale(0.1 -0.1)">
      <defs>
       <path id="ArialMT-47" d="M 2638 1797 
L 2638 2334 
L 4578 2338 
L 4578 638 
Q 4131 281 3656 101 
Q 3181 -78 2681 -78 
Q 2006 -78 1454 211 
Q 903 500 622 1047 
Q 341 1594 341 2269 
Q 341 2938 620 3517 
Q 900 4097 1425 4378 
Q 1950 4659 2634 4659 
Q 3131 4659 3532 4498 
Q 3934 4338 4162 4050 
Q 4391 3763 4509 3300 
L 3963 3150 
Q 3859 3500 3706 3700 
Q 3553 3900 3268 4020 
Q 2984 4141 2638 4141 
Q 2222 4141 1919 4014 
Q 1616 3888 1430 3681 
Q 1244 3475 1141 3228 
Q 966 2803 966 2306 
Q 966 1694 1177 1281 
Q 1388 869 1791 669 
Q 2194 469 2647 469 
Q 3041 469 3416 620 
Q 3791 772 3984 944 
L 3984 1797 
L 2638 1797 
z
" transform="scale(0.015625)"/>
      </defs>
      <use xlink:href="#ArialMT-47"/>
      <use xlink:href="#ArialMT-57" x="77.783203"/>
     </g>
    </g>
   </g>
   <g id="line2d_19">
    <path d="M 61.485714 19.237541 
L 61.608839 156.199723 
L 61.855088 167.622366 
L 61.978213 172.698252 
L 62.101337 169.059981 
L 62.224462 172.103993 
L 62.347586 168.869697 
L 62.470711 171.896896 
L 62.71696 168.57944 
L 62.840085 172.39976 
L 63.209459 170.076952 
L 63.332583 168.290987 
L 63.455708 170.830347 
L 63.578832 170.999929 
L 63.701957 172.637293 
L 63.825082 172.667893 
L 63.948206 171.331437 
L 64.071331 171.525812 
L 64.194455 171.210414 
L 64.440705 168.81009 
L 64.563829 171.533155 
L 64.686954 168.961774 
L 64.810078 172.058895 
L 64.933203 171.374062 
L 65.056327 173.258021 
L 65.179452 173.2925 
L 65.425701 171.265992 
L 65.548826 171.185649 
L 65.67195 168.693637 
L 65.9182 171.355016 
L 66.041324 169.71443 
L 66.287573 172.195158 
L 66.410698 172.184747 
L 66.533823 171.526813 
L 66.656947 172.258017 
L 66.780072 168.756074 
L 66.903196 170.844476 
L 67.026321 170.368871 
L 67.149446 172.0499 
L 67.27257 169.897139 
L 67.395695 172.330303 
L 67.641944 170.016477 
L 67.888193 173.109192 
L 68.011318 173.394568 
L 68.134442 170.745167 
L 68.257567 173.002265 
L 68.503816 172.185035 
L 68.626941 173.015141 
L 68.750065 170.459164 
L 68.996314 171.892254 
L 69.119439 171.652499 
L 69.242564 171.157984 
L 69.365688 172.802532 
L 69.488813 172.582905 
L 69.611937 172.816672 
L 69.735062 170.954099 
L 69.858187 172.221604 
L 69.981311 171.601055 
L 70.104436 172.727924 
L 70.22756 171.993451 
L 70.350685 171.975925 
L 70.47381 173.482796 
L 70.596934 172.009349 
L 70.843183 172.220754 
L 70.966308 171.78642 
L 71.089432 173.409123 
L 71.212557 170.671081 
L 71.335682 172.701703 
L 71.458806 171.826407 
L 71.581931 171.845017 
L 71.705055 171.99065 
L 71.82818 172.490703 
L 71.951305 171.239871 
L 72.197554 172.362821 
L 72.320678 171.008179 
L 72.566928 172.298025 
L 72.690052 173.080078 
L 72.813177 172.423337 
L 72.936301 172.619067 
L 73.059426 172.442259 
L 73.305675 173.280831 
L 73.4288 172.934167 
L 73.551924 171.791127 
L 73.675049 172.902871 
L 73.798174 172.82808 
L 73.921298 172.133201 
L 74.167547 173.492736 
L 74.413796 172.734683 
L 74.536921 173.41633 
L 74.78317 172.492548 
L 74.906295 173.352099 
L 75.152544 172.381698 
L 75.275669 173.275232 
L 75.398793 173.034373 
L 75.521918 173.439509 
L 75.768167 173.310518 
L 75.891292 172.753535 
L 76.260665 173.391225 
L 76.876288 172.080608 
L 77.122538 173.288292 
L 77.368787 172.827186 
L 77.491911 172.793745 
L 77.615036 173.534484 
L 77.73816 173.285046 
L 77.861285 172.448951 
L 78.107534 173.25801 
L 78.230659 173.091469 
L 78.476908 172.339054 
L 78.600033 173.391161 
L 78.723157 172.961431 
L 78.846282 173.131235 
L 79.092531 172.731997 
L 79.215656 173.291314 
L 79.585029 172.720822 
L 79.831279 173.159694 
L 79.954403 172.837611 
L 80.077528 172.021955 
L 80.323777 173.530884 
L 80.446902 173.385341 
L 80.693151 172.846144 
L 80.816275 172.975156 
L 80.9394 172.207941 
L 81.185649 173.436295 
L 81.555023 172.687879 
L 81.678147 173.220226 
L 81.801272 172.605841 
L 82.170646 173.064709 
L 82.29377 172.672994 
L 82.416895 173.081598 
L 82.54002 172.868022 
L 82.663144 173.282839 
L 82.786269 172.49723 
L 83.032518 173.251196 
L 83.155643 172.131187 
L 83.278767 173.500548 
L 83.401892 172.720086 
L 83.648141 173.520672 
L 83.89439 172.798098 
L 84.263764 173.413804 
L 84.386888 173.434567 
L 84.510013 172.586707 
L 84.633138 173.614176 
L 84.756262 172.445216 
L 85.002511 173.608042 
L 85.125636 172.573062 
L 85.248761 173.232782 
L 85.49501 173.330103 
L 85.618134 173.60689 
L 85.864384 173.046662 
L 85.987508 173.233203 
L 86.110633 172.648154 
L 86.233757 172.743279 
L 86.480007 173.49317 
L 86.726256 173.428441 
L 86.84938 173.29679 
L 86.972505 172.616284 
L 87.341879 173.342938 
L 87.588128 173.561721 
L 87.834377 172.475768 
L 87.957502 172.749947 
L 88.080626 173.448033 
L 88.203751 173.497658 
L 88.326875 173.023497 
L 88.45 173.475136 
L 88.573125 172.84658 
L 88.696249 173.382809 
L 88.942498 173.001114 
L 89.188748 173.403046 
L 89.311872 173.439263 
L 89.434997 173.337961 
L 89.558121 172.757143 
L 89.681246 172.980825 
L 89.804371 173.59969 
L 89.927495 173.534897 
L 90.173744 173.106677 
L 90.296869 173.135811 
L 90.419993 173.016126 
L 90.543118 173.051908 
L 90.666243 172.897737 
L 90.912492 173.414677 
L 91.035616 172.532946 
L 91.158741 173.073495 
L 91.281866 172.751716 
L 91.40499 173.281183 
L 91.651239 172.961978 
L 91.774364 172.994449 
L 91.897489 173.169315 
L 92.020613 172.808177 
L 92.143738 173.149824 
L 92.266862 172.948557 
L 92.513112 173.265928 
L 92.636236 172.952514 
L 92.759361 173.033322 
L 92.882485 172.293528 
L 93.00561 172.809688 
L 93.128735 172.596166 
L 93.251859 173.462099 
L 93.374984 172.842951 
L 93.498108 173.132172 
L 93.621233 173.03621 
L 93.744357 173.105597 
L 93.867482 172.84937 
L 93.990607 172.992619 
L 94.113731 172.855359 
L 94.236856 173.372803 
L 94.483105 172.379775 
L 94.729354 173.469123 
L 94.975603 172.196964 
L 95.221853 173.521077 
L 95.344977 172.365881 
L 95.468102 173.060996 
L 95.591226 172.346931 
L 95.714351 173.579825 
L 95.837476 173.36391 
L 95.9606 172.767762 
L 96.083725 172.792293 
L 96.453098 173.272632 
L 96.576223 173.0996 
L 96.699348 172.448527 
L 96.945597 172.936469 
L 97.191846 172.655703 
L 97.314971 171.706636 
L 97.438095 172.295155 
L 97.56122 172.308079 
L 97.807469 172.902746 
L 97.930594 172.007672 
L 98.176843 172.770352 
L 98.299967 172.280531 
L 98.423092 173.244397 
L 98.669341 172.585156 
L 98.792466 172.883225 
L 98.91559 172.490604 
L 99.038715 172.782493 
L 99.16184 171.931651 
L 99.284964 172.951552 
L 99.408089 172.99002 
L 99.777462 172.001249 
L 99.900587 173.142106 
L 100.023712 172.82312 
L 100.146836 173.222311 
L 100.269961 171.215773 
L 100.639335 173.525074 
L 100.762459 173.473762 
L 101.008708 171.943267 
L 101.131833 171.978206 
L 101.378082 173.387088 
L 101.501207 171.843327 
L 101.624331 172.383445 
L 101.747456 171.738972 
L 101.993705 171.917623 
L 102.239954 170.76229 
L 102.363079 172.027964 
L 102.486204 171.872941 
L 102.609328 172.924542 
L 102.732453 172.663167 
L 102.855577 171.428722 
L 103.101826 173.502541 
L 103.224951 171.417785 
L 103.348076 172.472593 
L 103.4712 170.926019 
L 103.594325 172.657736 
L 103.717449 172.240112 
L 103.963699 170.906778 
L 104.086823 173.48574 
L 104.209948 172.540738 
L 104.333072 173.263138 
L 104.456197 171.031254 
L 104.579322 171.944944 
L 104.702446 171.271627 
L 104.825571 171.302388 
L 105.07182 173.129177 
L 105.194945 170.252485 
L 105.318069 171.352451 
L 105.564318 170.663475 
L 105.687443 171.85191 
L 105.810568 169.595455 
L 105.933692 172.248227 
L 106.056817 171.305621 
L 106.303066 167.024439 
L 106.42619 122.955252 
L 106.549315 164.652468 
L 106.67244 164.602443 
L 106.918689 172.903503 
L 107.041813 171.800691 
L 107.164938 172.409322 
L 107.288063 170.992243 
L 107.411187 172.122167 
L 107.534312 171.935236 
L 107.657436 169.637947 
L 107.780561 172.844344 
L 107.903686 172.61401 
L 108.02681 170.830188 
L 108.149935 171.164661 
L 108.273059 172.04109 
L 108.396184 171.770043 
L 108.519309 172.794189 
L 108.642433 172.807043 
L 109.011807 171.13096 
L 109.134932 173.604051 
L 109.381181 171.755894 
L 109.504305 172.029906 
L 109.62743 171.86316 
L 109.750554 172.898241 
L 109.996804 170.761863 
L 110.119928 173.036358 
L 110.243053 172.566002 
L 110.366177 172.66444 
L 110.489302 172.520856 
L 110.612427 170.84492 
L 110.735551 171.479057 
L 110.858676 172.745044 
L 110.9818 171.784864 
L 111.104925 171.775729 
L 111.597423 173.030985 
L 111.843673 171.328756 
L 112.089922 172.708247 
L 112.336171 172.298545 
L 112.459295 172.542919 
L 112.58242 170.947246 
L 112.705545 173.187089 
L 112.828669 172.277476 
L 112.951794 173.297169 
L 113.074918 172.486368 
L 113.198043 173.411914 
L 113.444292 172.529492 
L 113.567417 173.423429 
L 113.690541 171.882959 
L 113.813666 172.341913 
L 113.936791 171.969599 
L 114.059915 171.962939 
L 114.18304 173.310227 
L 114.306164 173.291034 
L 114.429289 173.14342 
L 114.552414 172.103768 
L 114.675538 172.905898 
L 114.798663 172.066164 
L 114.921787 172.022712 
L 115.044912 173.089037 
L 115.291161 172.774201 
L 115.414286 172.580951 
L 115.53741 171.85576 
L 115.660535 172.634318 
L 115.783659 172.598787 
L 115.906784 173.307156 
L 116.153033 173.008335 
L 116.399282 173.614532 
L 116.522407 172.574069 
L 116.645532 173.471197 
L 116.768656 173.18023 
L 116.891781 172.494213 
L 117.014905 173.247919 
L 117.13803 173.307598 
L 117.261155 172.52023 
L 117.507404 172.494462 
L 117.630528 173.312124 
L 117.753653 172.735493 
L 117.999902 172.944581 
L 118.123027 173.609489 
L 118.246151 173.010915 
L 118.369276 173.490536 
L 118.492401 172.420788 
L 118.615525 173.530824 
L 118.861774 173.331395 
L 118.984899 172.522097 
L 119.108023 173.364845 
L 119.231148 172.753988 
L 119.354273 173.265213 
L 119.477397 173.152202 
L 119.600522 173.20464 
L 119.723646 173.5583 
L 119.969896 172.54189 
L 120.09302 173.01084 
L 120.216145 172.945664 
L 120.339269 173.100451 
L 120.462394 173.577728 
L 120.585519 173.287933 
L 120.708643 173.458409 
L 120.954892 173.309526 
L 121.078017 173.461149 
L 121.201142 173.110658 
L 121.324266 173.340907 
L 121.570515 173.154171 
L 121.69364 173.589289 
L 121.816765 172.926992 
L 122.063014 173.483617 
L 122.186138 173.09374 
L 122.309263 173.193482 
L 122.678637 173.051487 
L 122.801761 173.604642 
L 122.924886 173.185925 
L 123.171135 173.534883 
L 123.417384 173.050939 
L 123.540509 173.406342 
L 123.786758 173.401092 
L 123.909883 173.007149 
L 124.402381 173.527788 
L 124.64863 173.435301 
L 124.771755 173.600411 
L 125.018004 172.9686 
L 125.264253 173.385203 
L 125.387378 172.975469 
L 125.633627 173.45631 
L 125.879876 172.949692 
L 126.126125 173.561922 
L 126.372374 173.466572 
L 126.618624 172.916377 
L 126.864873 173.217636 
L 126.987997 172.792462 
L 127.111122 173.56067 
L 127.357371 173.237392 
L 127.480496 173.43377 
L 127.60362 172.882799 
L 127.84987 173.368137 
L 127.972994 173.272174 
L 128.219243 172.972225 
L 128.588617 173.460364 
L 128.711742 173.329949 
L 128.834866 172.982917 
L 129.081115 173.352515 
L 129.327365 173.620543 
L 129.450489 173.088277 
L 129.573614 173.318804 
L 129.696738 172.988059 
L 129.942988 173.481473 
L 130.189237 173.423729 
L 130.80486 173.418506 
L 130.927984 173.542476 
L 131.051109 173.310475 
L 131.174234 173.601619 
L 131.297358 173.255556 
L 131.420483 173.580216 
L 131.666732 173.274093 
L 131.789856 173.61412 
L 132.036106 173.406555 
L 132.15923 173.226087 
L 132.282355 173.491968 
L 132.405479 173.358686 
L 132.528604 173.526338 
L 132.774853 172.954005 
L 132.897978 173.230958 
L 133.144227 173.3093 
L 133.267352 173.321006 
L 133.390476 173.491323 
L 133.636725 173.388172 
L 133.75985 173.651157 
L 133.882975 173.643221 
L 134.006099 173.363877 
L 134.129224 173.539271 
L 134.252348 173.206605 
L 134.375473 173.618784 
L 134.498598 173.271335 
L 134.867971 173.464947 
L 134.991096 173.612139 
L 135.237345 173.543331 
L 135.36047 173.310168 
L 135.606719 173.351461 
L 135.729843 173.614921 
L 135.852968 173.554886 
L 135.976093 172.87104 
L 136.099217 173.436525 
L 136.222342 173.404219 
L 136.345466 173.540064 
L 136.591716 173.210752 
L 136.71484 173.275806 
L 136.837965 173.169478 
L 137.207339 173.564619 
L 137.330463 173.565894 
L 137.822962 172.794153 
L 137.946086 173.41308 
L 138.069211 172.962978 
L 138.31546 173.506521 
L 138.561709 172.888488 
L 138.807958 173.451384 
L 139.423581 173.333194 
L 139.546706 173.3297 
L 139.66983 173.575188 
L 139.91608 172.913134 
L 140.039204 173.609882 
L 140.285453 173.460891 
L 140.408578 173.421429 
L 140.531703 173.083006 
L 140.777952 173.531803 
L 140.901076 173.205211 
L 141.147326 173.450408 
L 141.27045 173.379788 
L 141.393575 173.514378 
L 141.516699 173.359908 
L 141.639824 172.985467 
L 141.762948 173.31714 
L 141.886073 173.182121 
L 142.009198 173.25154 
L 142.132322 173.164146 
L 142.255447 172.917757 
L 142.501696 172.875701 
L 142.624821 173.397658 
L 142.747945 173.349887 
L 142.87107 172.935044 
L 142.994194 173.057955 
L 143.117319 173.417722 
L 143.240444 173.032357 
L 143.363568 173.622797 
L 143.486693 173.005098 
L 143.609817 173.139103 
L 143.856067 173.033749 
L 143.979191 173.41207 
L 144.102316 172.810926 
L 144.348565 173.247551 
L 144.717939 172.696465 
L 144.841063 173.539502 
L 144.964188 173.162147 
L 145.087312 173.402635 
L 145.210437 172.645163 
L 145.333562 173.378112 
L 145.456686 173.094132 
L 145.702935 173.459299 
L 145.82606 173.365341 
L 146.072309 172.602753 
L 146.318558 172.866344 
L 146.441683 172.675869 
L 146.564808 173.433226 
L 146.687932 172.830063 
L 146.934181 173.154318 
L 147.057306 172.337882 
L 147.180431 172.512507 
L 147.303555 172.90306 
L 147.42668 172.909405 
L 147.549804 173.332098 
L 147.672929 173.248388 
L 147.919178 172.424609 
L 148.042303 173.206436 
L 148.165427 172.813794 
L 148.288552 173.227987 
L 148.411676 172.345289 
L 148.534801 172.89861 
L 148.78105 172.619188 
L 148.904175 172.045333 
L 149.150424 173.367721 
L 149.273549 173.137203 
L 149.396673 171.869994 
L 149.642922 172.931203 
L 149.766047 172.34506 
L 150.012296 173.018727 
L 150.135421 172.36396 
L 150.258545 172.680339 
L 150.38167 172.210206 
L 150.627919 172.697257 
L 150.751044 171.917243 
L 150.997293 172.530569 
L 151.243542 168.63569 
L 151.366667 147.021428 
L 151.489791 167.278653 
L 151.612916 168.301921 
L 151.859165 172.77522 
L 152.105414 173.494838 
L 152.228539 172.654783 
L 152.351663 173.192603 
L 152.474788 172.723788 
L 152.597913 171.249476 
L 152.844162 173.147398 
L 152.967286 172.080598 
L 153.090411 172.603666 
L 153.213536 172.488371 
L 153.33666 172.602157 
L 153.582909 173.63485 
L 153.706034 172.259338 
L 153.829159 173.13925 
L 153.952283 172.811432 
L 154.075408 173.168335 
L 154.321657 172.70996 
L 154.567906 173.349281 
L 154.814155 172.798799 
L 154.93728 172.526456 
L 155.060404 173.460006 
L 155.183529 173.144947 
L 155.306654 173.173439 
L 155.429778 173.362772 
L 155.552903 172.380214 
L 155.676027 172.720032 
L 155.799152 173.427806 
L 156.045401 172.725438 
L 156.168526 172.543029 
L 156.414775 173.222171 
L 156.5379 173.230332 
L 156.784149 172.543176 
L 156.907273 172.753675 
L 157.153523 172.764267 
L 157.399772 173.347896 
L 157.522896 172.313051 
L 157.646021 173.069484 
L 157.769145 172.296428 
L 157.89227 173.536796 
L 158.015395 173.380794 
L 158.138519 173.55037 
L 158.261644 173.190532 
L 158.507893 173.576449 
L 158.754142 173.040333 
L 158.877267 172.927549 
L 159.000391 172.61134 
L 159.123516 173.421587 
L 159.369765 173.486968 
L 159.49289 172.85504 
L 159.616014 173.243008 
L 159.862264 172.836398 
L 160.108513 173.239124 
L 160.231637 173.359237 
L 160.477886 173.170715 
L 160.601011 173.141714 
L 160.724136 173.234033 
L 160.84726 173.597566 
L 160.970385 173.445639 
L 161.093509 173.059493 
L 161.216634 173.579889 
L 161.462883 173.088272 
L 161.586008 173.448879 
L 161.955382 173.191101 
L 162.078506 173.120339 
L 162.201631 173.284585 
L 162.324755 172.967931 
L 162.44788 173.02877 
L 162.571005 173.606391 
L 162.817254 173.172912 
L 162.940378 173.041775 
L 163.063503 173.535702 
L 163.186628 173.465015 
L 163.309752 173.550992 
L 163.432877 173.21408 
L 163.679126 173.468348 
L 163.80225 173.492971 
L 163.925375 173.303956 
L 164.0485 173.452247 
L 164.171624 172.719251 
L 164.417873 173.330189 
L 164.664123 173.48759 
L 164.910372 173.275194 
L 165.033496 173.393046 
L 165.156621 173.126231 
L 165.649119 173.628806 
L 166.018493 173.27143 
L 166.141618 173.544573 
L 166.387867 173.380028 
L 166.634116 173.566621 
L 166.757241 173.386356 
L 167.00349 173.516575 
L 167.126614 173.337476 
L 167.249739 173.553486 
L 167.495988 173.244408 
L 167.742237 173.489502 
L 167.988487 173.563836 
L 168.111611 173.35709 
L 168.35786 173.597949 
L 168.480985 173.44735 
L 168.727234 173.617594 
L 168.850359 173.429477 
L 168.973483 173.643213 
L 169.096608 173.294845 
L 169.219733 173.647365 
L 169.342857 173.413405 
L 169.712231 173.524535 
L 169.95848 173.458616 
L 170.081605 173.56376 
L 170.204729 173.359301 
L 170.450978 173.432461 
L 170.820352 173.422707 
L 170.943477 173.605703 
L 171.312851 173.535736 
L 171.435975 173.401834 
L 171.5591 173.533973 
L 171.805349 173.451842 
L 171.928474 173.370337 
L 172.174723 173.603357 
L 172.297847 173.383701 
L 172.420972 173.52707 
L 172.544097 173.34446 
L 172.667221 173.515439 
L 173.036595 173.210973 
L 173.15972 173.530001 
L 173.405969 173.454785 
L 173.529093 173.655905 
L 173.775342 173.502455 
L 173.898467 173.526874 
L 174.021592 173.67711 
L 174.144716 173.545129 
L 174.267841 173.631904 
L 174.390965 173.45948 
L 174.760339 173.525602 
L 175.129713 173.431801 
L 175.252838 173.610612 
L 175.375962 173.443644 
L 175.499087 173.576932 
L 175.745336 173.549866 
L 175.868461 173.664783 
L 176.11471 173.470147 
L 176.484083 173.471889 
L 176.607208 173.330855 
L 176.853457 173.501222 
L 176.976582 173.581774 
L 177.099706 173.32148 
L 177.345956 173.547938 
L 177.715329 173.494829 
L 177.838454 173.402197 
L 178.084703 173.568192 
L 178.207828 173.54732 
L 178.330952 173.66269 
L 178.454077 173.569114 
L 178.577202 173.632892 
L 178.700326 173.385147 
L 178.823451 173.617959 
L 179.192825 173.477374 
L 179.439074 173.518777 
L 179.931572 173.523268 
L 180.054697 173.386319 
L 180.177821 173.593123 
L 180.42407 173.475793 
L 180.67032 173.586235 
L 181.039693 173.45468 
L 181.162818 173.678412 
L 181.285943 173.50371 
L 181.655316 173.619649 
L 182.02469 173.347686 
L 182.270939 173.530468 
L 182.640313 173.339045 
L 182.886562 173.622616 
L 183.132811 173.274156 
L 183.255936 173.639758 
L 183.502185 173.234495 
L 183.62531 173.437196 
L 183.748434 173.400671 
L 183.994684 173.566124 
L 184.117808 173.505311 
L 184.240933 173.606809 
L 184.733431 173.485166 
L 185.102805 173.600512 
L 185.22593 173.34225 
L 185.349054 173.601838 
L 185.595303 173.371064 
L 185.841553 173.598623 
L 185.964677 173.306008 
L 186.087802 173.495043 
L 186.210926 173.438674 
L 186.457175 173.643626 
L 186.5803 173.455172 
L 186.703425 173.60041 
L 186.826549 173.362237 
L 186.949674 173.523866 
L 187.072798 173.221456 
L 187.195923 173.417199 
L 187.319048 173.342781 
L 187.565297 173.583091 
L 187.688421 173.358107 
L 187.934671 173.533134 
L 188.550294 173.587579 
L 188.673418 173.319808 
L 188.919667 173.502102 
L 189.165917 173.355105 
L 189.289041 173.545143 
L 189.412166 173.348138 
L 189.781539 173.571898 
L 189.904664 172.861633 
L 190.027789 173.038572 
L 190.150913 173.45068 
L 190.274038 173.399263 
L 190.520287 173.669083 
L 190.643412 173.34221 
L 190.766536 173.397825 
L 190.889661 173.622643 
L 191.012785 173.541226 
L 191.259035 172.959198 
L 191.505284 173.648327 
L 191.628408 173.443712 
L 191.874658 173.511304 
L 191.997782 173.195988 
L 192.244031 173.469437 
L 192.367156 173.403433 
L 192.49028 173.547433 
L 192.859654 173.225302 
L 192.982779 173.630578 
L 193.105903 173.318414 
L 193.229028 173.585729 
L 193.352153 173.282203 
L 193.475277 173.520852 
L 193.598402 173.425994 
L 193.721526 173.610435 
L 193.844651 173.169396 
L 194.0909 173.464338 
L 194.214025 173.389539 
L 194.460274 172.856206 
L 194.706523 173.296606 
L 194.952772 173.284186 
L 195.075897 173.118078 
L 195.199022 173.470899 
L 195.322146 173.159638 
L 195.445271 173.369697 
L 195.568395 173.322355 
L 195.69152 173.570873 
L 196.060894 172.557952 
L 196.307143 168.70219 
L 196.553392 172.720354 
L 196.922766 173.481162 
L 197.04589 173.442747 
L 197.169015 173.163619 
L 197.29214 173.554227 
L 197.538389 173.12978 
L 197.784638 173.619744 
L 197.907763 172.993919 
L 198.030887 173.137614 
L 198.154012 173.089869 
L 198.400261 173.406597 
L 198.523386 173.481243 
L 198.64651 173.081361 
L 198.892759 173.566927 
L 199.015884 173.459328 
L 199.385258 173.616676 
L 199.508382 173.077408 
L 199.631507 173.427928 
L 199.754631 173.310054 
L 200.124005 173.439468 
L 200.370254 173.46739 
L 200.616504 173.316407 
L 200.739628 173.176323 
L 200.862753 173.498159 
L 200.985877 173.470595 
L 201.109002 173.226116 
L 201.232127 173.485758 
L 201.478376 173.358581 
L 201.6015 173.60972 
L 201.724625 173.574648 
L 201.84775 173.24585 
L 202.093999 173.631475 
L 202.340248 173.050164 
L 202.463372 173.338444 
L 202.709622 172.822434 
L 202.832746 173.508809 
L 202.955871 173.500113 
L 203.078995 173.367256 
L 203.20212 173.559258 
L 203.325245 173.410797 
L 203.448369 173.669525 
L 203.694618 173.342916 
L 203.817743 173.582432 
L 204.310241 173.481745 
L 204.433366 173.594598 
L 204.556491 173.334067 
L 204.80274 173.491701 
L 204.925864 173.310398 
L 205.172114 173.671375 
L 205.418363 173.34188 
L 205.541487 173.648122 
L 205.787736 173.574437 
L 206.033986 173.421895 
L 206.15711 173.565358 
L 206.280235 173.512605 
L 206.403359 173.630279 
L 206.526484 173.39843 
L 206.649609 173.598611 
L 207.018982 173.465352 
L 207.265232 173.434836 
L 207.75773 173.52449 
L 208.496477 173.623224 
L 208.619602 173.453073 
L 208.742727 173.510017 
L 208.865851 173.364471 
L 208.988976 173.456333 
L 209.1121 173.009678 
L 209.235225 173.339369 
L 209.35835 173.282617 
L 209.481474 173.573946 
L 209.604599 173.508851 
L 209.850848 173.618999 
L 210.097097 173.523168 
L 210.220222 173.454113 
L 210.466471 173.651443 
L 210.589596 173.545162 
L 210.835845 173.60957 
L 210.958969 173.368 
L 211.205219 173.571509 
L 211.451468 173.556086 
L 211.574592 173.401149 
L 211.943966 173.644527 
L 212.067091 173.497473 
L 212.31334 173.615616 
L 212.559589 173.611414 
L 212.682714 173.477814 
L 212.928963 173.560556 
L 215.145205 173.422949 
L 215.26833 173.617276 
L 215.883953 173.562368 
L 216.007078 173.627328 
L 216.253327 173.438641 
L 216.622701 173.59575 
L 216.745825 173.559874 
L 216.86895 173.658063 
L 216.992074 173.424338 
L 217.238324 173.573843 
L 217.607697 173.51853 
L 217.977071 173.634048 
L 218.100196 173.591408 
L 218.346445 173.640007 
L 218.592694 173.578343 
L 218.962068 173.571737 
L 219.085192 173.653696 
L 219.208317 173.35731 
L 219.331442 173.590635 
L 219.700815 173.49191 
L 219.82394 173.634295 
L 220.193314 173.541664 
L 221.178311 173.591947 
L 221.301435 173.532869 
L 221.547684 173.566623 
L 221.670809 173.550672 
L 221.793933 173.671208 
L 222.040183 173.457033 
L 222.163307 173.346425 
L 222.286432 173.613073 
L 222.655806 173.330451 
L 222.77893 173.641546 
L 223.148304 173.402246 
L 223.271429 173.587284 
L 223.394553 173.499513 
L 223.517678 173.666658 
L 223.763927 173.610786 
L 224.502674 173.485687 
L 224.625799 173.662335 
L 224.995173 173.489522 
L 225.118297 173.616202 
L 225.241422 173.555749 
L 225.487671 173.611319 
L 225.610796 173.480702 
L 225.857045 173.625159 
L 225.98017 173.470018 
L 226.103294 173.586945 
L 226.349543 173.441815 
L 226.472668 173.56164 
L 226.595793 173.435772 
L 226.718917 173.631908 
L 226.842042 173.503621 
L 226.965166 173.658548 
L 227.211416 173.520956 
L 227.33454 173.575472 
L 227.457665 173.37938 
L 227.580789 173.5626 
L 227.703914 173.366887 
L 227.827038 173.579726 
L 227.950163 173.358242 
L 228.073288 173.549739 
L 228.196412 173.475958 
L 228.319537 173.588699 
L 228.442661 173.195901 
L 228.688911 173.635663 
L 228.812035 173.485853 
L 229.181409 173.539093 
L 229.550783 173.509972 
L 229.673907 173.369583 
L 229.920157 173.596225 
L 230.412655 173.457838 
L 230.782029 173.653979 
L 230.905153 173.446083 
L 231.028278 173.57961 
L 231.274527 173.545733 
L 231.397652 173.503364 
L 231.520776 173.644442 
L 231.643901 173.445455 
L 232.013275 173.415317 
L 232.136399 173.315953 
L 232.259524 173.396287 
L 232.382648 173.623023 
L 232.505773 173.429451 
L 232.628898 173.619369 
L 232.875147 173.453624 
L 233.121396 173.455574 
L 233.367645 173.540347 
L 233.49077 173.393131 
L 233.613894 173.549894 
L 233.737019 173.496513 
L 233.860144 173.56701 
L 233.983268 173.408439 
L 234.229517 173.600437 
L 234.352642 173.399463 
L 234.475766 173.455612 
L 234.598891 173.016579 
L 234.722016 173.528188 
L 234.84514 173.147684 
L 234.968265 173.391031 
L 235.091389 173.094761 
L 235.337639 173.537791 
L 235.460763 173.666324 
L 235.830137 173.340427 
L 236.076386 173.567108 
L 236.199511 173.396212 
L 236.322635 173.573549 
L 236.568885 173.483981 
L 236.692009 173.610196 
L 237.061383 173.080908 
L 237.430757 173.566389 
L 237.553881 173.598937 
L 237.677006 173.255159 
L 237.80013 173.460315 
L 238.04638 173.314531 
L 238.292629 173.510076 
L 238.415753 173.602635 
L 238.908252 173.435439 
L 239.031376 173.552829 
L 239.154501 173.508385 
L 239.40075 173.223212 
L 239.523875 173.170165 
L 239.770124 173.622795 
L 240.016373 173.34495 
L 240.385747 173.275607 
L 240.508871 173.359425 
L 240.631996 173.096053 
L 240.755121 173.52588 
L 240.878245 173.359622 
L 241.00137 172.808119 
L 241.124494 173.059376 
L 241.247619 169.346406 
L 241.370744 172.305361 
L 241.493868 172.060341 
L 241.616993 173.42118 
L 241.740117 173.230148 
L 241.863242 173.501947 
L 241.986367 173.504446 
L 242.109491 173.259782 
L 242.232616 173.366891 
L 242.478865 173.077401 
L 242.60199 173.599586 
L 242.725114 173.344728 
L 242.848239 173.567167 
L 242.971363 173.375755 
L 243.094488 173.625854 
L 243.463862 173.535947 
L 243.586986 173.606718 
L 243.710111 173.3991 
L 244.079485 173.626094 
L 244.202609 173.329326 
L 244.325734 173.59021 
L 244.448858 173.013274 
L 244.571983 173.430946 
L 244.818232 173.439352 
L 244.941357 173.596278 
L 245.55698 173.373963 
L 245.680104 173.01474 
L 245.926354 173.466651 
L 246.049478 173.591415 
L 246.172603 173.413042 
L 246.295727 173.653858 
L 246.418852 173.445466 
L 246.788226 173.514477 
L 246.91135 173.447027 
L 247.034475 173.646698 
L 247.157599 173.288621 
L 247.280724 173.346391 
L 247.403849 173.573529 
L 247.650098 173.450726 
L 247.896347 173.531238 
L 248.019472 173.440183 
L 248.142596 173.490738 
L 248.265721 173.244833 
L 248.388845 173.573884 
L 248.51197 173.502083 
L 248.758219 173.598339 
L 248.881344 173.423742 
L 249.250718 173.671223 
L 249.620091 173.428226 
L 249.743216 173.584939 
L 249.989465 173.559192 
L 250.235714 173.480473 
L 250.358839 173.333163 
L 251.46696 173.693609 
L 251.713209 173.463788 
L 251.959459 173.602822 
L 252.082583 173.412378 
L 252.328832 173.512214 
L 252.575082 173.515126 
L 252.821331 173.557608 
L 252.944455 173.474899 
L 253.06758 173.606761 
L 253.190705 173.563652 
L 253.313829 173.64581 
L 253.436954 173.437337 
L 253.683203 173.592812 
L 253.806327 173.261267 
L 253.929452 173.548063 
L 254.052577 173.472839 
L 254.175701 173.646838 
L 254.42195 173.437031 
L 254.545075 173.645776 
L 254.6682 173.621646 
L 254.791324 173.477005 
L 254.914449 173.62119 
L 255.037573 173.418076 
L 255.283823 173.687653 
L 255.530072 173.444125 
L 255.776321 173.57358 
L 255.899446 173.569785 
L 256.02257 173.43645 
L 256.145695 173.660293 
L 256.268819 173.532709 
L 256.515068 173.574129 
L 256.884442 173.600385 
L 257.130691 173.589081 
L 257.253816 173.661409 
L 257.500065 173.634668 
L 257.746314 173.627994 
L 257.869439 173.556505 
L 258.115688 173.598714 
L 258.485062 173.569206 
L 261.193803 173.538339 
L 261.316928 173.677356 
L 261.440052 173.341788 
L 261.563177 173.649428 
L 261.686301 173.647971 
L 261.809426 173.444705 
L 261.932551 173.602577 
L 262.1788 173.602508 
L 262.301924 173.648833 
L 262.548174 173.528983 
L 263.286921 173.680897 
L 263.410046 173.491734 
L 263.53317 173.606231 
L 263.902544 173.53486 
L 264.025669 173.637947 
L 264.148793 173.52036 
L 264.518167 173.631223 
L 264.641292 173.518494 
L 264.764416 173.619482 
L 265.13379 173.564659 
L 265.380039 173.597614 
L 265.503164 173.494514 
L 265.749413 173.691738 
L 265.995662 173.560556 
L 266.118787 173.68264 
L 266.365036 173.587108 
L 266.48816 173.63894 
L 266.611285 173.547408 
L 266.73441 173.655298 
L 267.350033 173.525179 
L 267.596282 173.503169 
L 267.842531 173.627511 
L 268.335029 173.574762 
L 268.704403 173.512354 
L 268.827528 173.665781 
L 269.073777 173.550664 
L 269.320026 173.636457 
L 269.566275 173.530577 
L 269.812524 173.62746 
L 270.305023 173.482208 
L 270.551272 173.646453 
L 271.04377 173.544379 
L 271.413144 173.606353 
L 271.659393 173.425525 
L 271.782518 173.590571 
L 272.275016 173.444796 
L 272.521265 173.63696 
L 272.64439 173.472384 
L 272.767515 173.659401 
L 272.890639 173.415408 
L 273.136888 173.640154 
L 273.383138 173.335462 
L 273.629387 173.538724 
L 274.24501 173.595649 
L 274.368134 173.515431 
L 274.860633 173.659939 
L 274.983757 173.552715 
L 275.353131 173.655014 
L 275.722505 173.52943 
L 275.845629 173.646771 
L 275.968754 173.495518 
L 276.215003 173.649784 
L 276.338128 173.492387 
L 276.707502 173.672521 
L 276.830626 173.536593 
L 277.2 173.667586 
L 277.323125 173.572625 
L 277.323125 173.572625 
" clip-path="url(#pcf26d05952)" style="fill: none; stroke: #8da0cb; stroke-linecap: round"/>
   </g>
   <g id="patch_3">
    <path d="M 50.7 181.416412 
L 50.7 11.514738 
" style="fill: none; stroke: #cccccc; stroke-linejoin: miter; stroke-linecap: square"/>
   </g>
   <g id="patch_4">
    <path d="M 277.2 181.416412 
L 277.2 11.514738 
" style="fill: none; stroke: #cccccc; stroke-linejoin: miter; stroke-linecap: square"/>
   </g>
   <g id="patch_5">
    <path d="M 50.7 181.416412 
L 277.2 181.416412 
" style="fill: none; stroke: #cccccc; stroke-linejoin: miter; stroke-linecap: square"/>
   </g>
   <g id="patch_6">
    <path d="M 50.7 11.514738 
L 277.2 11.514738 
" style="fill: none; stroke: #cccccc; stroke-linejoin: miter; stroke-linecap: square"/>
   </g>
  </g>
 </g>
 <defs>
  <clipPath id="pcf26d05952">
   <rect x="50.7" y="11.514738" width="226.5" height="169.901674"/>
  </clipPath>
 </defs>
</svg>
