<?xml version="1.0" encoding="utf-8" standalone="no"?>
<!DOCTYPE svg PUBLIC "-//W3C//DTD SVG 1.1//EN"
  "http://www.w3.org/Graphics/SVG/1.1/DTD/svg11.dtd">
<svg xmlns:xlink="http://www.w3.org/1999/xlink" width="288pt" height="230.4pt" viewBox="0 0 288 230.4" xmlns="http://www.w3.org/2000/svg" version="1.1">
 <metadata>
  <rdf:RDF xmlns:dc="http://purl.org/dc/elements/1.1/" xmlns:cc="http://creativecommons.org/ns#" xmlns:rdf="http://www.w3.org/1999/02/22-rdf-syntax-ns#">
   <cc:Work>
    <dc:type rdf:resource="http://purl.org/dc/dcmitype/StillImage"/>
    <dc:date>2024-07-21T17:28:17.914447</dc:date>
    <dc:format>image/svg+xml</dc:format>
    <dc:creator>
     <cc:Agent>
      <dc:title>Matplotlib v3.9.0, https://matplotlib.org/</dc:title>
     </cc:Agent>
    </dc:creator>
   </cc:Work>
  </rdf:RDF>
 </metadata>
 <defs>
  <style type="text/css">*{stroke-linejoin: round; stroke-linecap: butt}</style>
 </defs>
 <g id="figure_1">
  <g id="patch_1">
   <path d="M 0 230.4 
L 288 230.4 
L 288 0 
L 0 0 
z
" style="fill: #ffffff"/>
  </g>
  <g id="axes_1">
   <g id="patch_2">
    <path d="M 45.12 181.416412 
L 277.2 181.416412 
L 277.2 10.8 
L 45.12 10.8 
z
" style="fill: #ffffff"/>
   </g>
   <g id="matplotlib.axis_1">
    <g id="xtick_1">
     <g id="line2d_1">
      <path d="M 240.361905 181.416412 
L 240.361905 10.8 
" clip-path="url(#p74362a9937)" style="fill: none; stroke: #cccccc; stroke-width: 0.8; stroke-linecap: round"/>
     </g>
     <g id="line2d_2"/>
     <g id="text_1">
      <!-- 6 hours -->
      <g style="fill: #262626" transform="translate(215.373414 213.560866) rotate(-45) scale(0.1 -0.1)">
       <defs>
        <path id="ArialMT-36" d="M 3184 3459 
L 2625 3416 
Q 2550 3747 2413 3897 
Q 2184 4138 1850 4138 
Q 1581 4138 1378 3988 
Q 1113 3794 959 3422 
Q 806 3050 800 2363 
Q 1003 2672 1297 2822 
Q 1591 2972 1913 2972 
Q 2475 2972 2870 2558 
Q 3266 2144 3266 1488 
Q 3266 1056 3080 686 
Q 2894 316 2569 119 
Q 2244 -78 1831 -78 
Q 1128 -78 684 439 
Q 241 956 241 2144 
Q 241 3472 731 4075 
Q 1159 4600 1884 4600 
Q 2425 4600 2770 4297 
Q 3116 3994 3184 3459 
z
M 888 1484 
Q 888 1194 1011 928 
Q 1134 663 1356 523 
Q 1578 384 1822 384 
Q 2178 384 2434 671 
Q 2691 959 2691 1453 
Q 2691 1928 2437 2201 
Q 2184 2475 1800 2475 
Q 1419 2475 1153 2201 
Q 888 1928 888 1484 
z
" transform="scale(0.015625)"/>
        <path id="ArialMT-20" transform="scale(0.015625)"/>
        <path id="ArialMT-68" d="M 422 0 
L 422 4581 
L 984 4581 
L 984 2938 
Q 1378 3394 1978 3394 
Q 2347 3394 2619 3248 
Q 2891 3103 3008 2847 
Q 3125 2591 3125 2103 
L 3125 0 
L 2563 0 
L 2563 2103 
Q 2563 2525 2380 2717 
Q 2197 2909 1863 2909 
Q 1613 2909 1392 2779 
Q 1172 2650 1078 2428 
Q 984 2206 984 1816 
L 984 0 
L 422 0 
z
" transform="scale(0.015625)"/>
        <path id="ArialMT-6f" d="M 213 1659 
Q 213 2581 725 3025 
Q 1153 3394 1769 3394 
Q 2453 3394 2887 2945 
Q 3322 2497 3322 1706 
Q 3322 1066 3130 698 
Q 2938 331 2570 128 
Q 2203 -75 1769 -75 
Q 1072 -75 642 372 
Q 213 819 213 1659 
z
M 791 1659 
Q 791 1022 1069 705 
Q 1347 388 1769 388 
Q 2188 388 2466 706 
Q 2744 1025 2744 1678 
Q 2744 2294 2464 2611 
Q 2184 2928 1769 2928 
Q 1347 2928 1069 2612 
Q 791 2297 791 1659 
z
" transform="scale(0.015625)"/>
        <path id="ArialMT-75" d="M 2597 0 
L 2597 488 
Q 2209 -75 1544 -75 
Q 1250 -75 995 37 
Q 741 150 617 320 
Q 494 491 444 738 
Q 409 903 409 1263 
L 409 3319 
L 972 3319 
L 972 1478 
Q 972 1038 1006 884 
Q 1059 663 1231 536 
Q 1403 409 1656 409 
Q 1909 409 2131 539 
Q 2353 669 2445 892 
Q 2538 1116 2538 1541 
L 2538 3319 
L 3100 3319 
L 3100 0 
L 2597 0 
z
" transform="scale(0.015625)"/>
        <path id="ArialMT-72" d="M 416 0 
L 416 3319 
L 922 3319 
L 922 2816 
Q 1116 3169 1280 3281 
Q 1444 3394 1641 3394 
Q 1925 3394 2219 3213 
L 2025 2691 
Q 1819 2813 1613 2813 
Q 1428 2813 1281 2702 
Q 1134 2591 1072 2394 
Q 978 2094 978 1738 
L 978 0 
L 416 0 
z
" transform="scale(0.015625)"/>
        <path id="ArialMT-73" d="M 197 991 
L 753 1078 
Q 800 744 1014 566 
Q 1228 388 1613 388 
Q 2000 388 2187 545 
Q 2375 703 2375 916 
Q 2375 1106 2209 1216 
Q 2094 1291 1634 1406 
Q 1016 1563 777 1677 
Q 538 1791 414 1992 
Q 291 2194 291 2438 
Q 291 2659 392 2848 
Q 494 3038 669 3163 
Q 800 3259 1026 3326 
Q 1253 3394 1513 3394 
Q 1903 3394 2198 3281 
Q 2494 3169 2634 2976 
Q 2775 2784 2828 2463 
L 2278 2388 
Q 2241 2644 2061 2787 
Q 1881 2931 1553 2931 
Q 1166 2931 1000 2803 
Q 834 2675 834 2503 
Q 834 2394 903 2306 
Q 972 2216 1119 2156 
Q 1203 2125 1616 2013 
Q 2213 1853 2448 1751 
Q 2684 1650 2818 1456 
Q 2953 1263 2953 975 
Q 2953 694 2789 445 
Q 2625 197 2315 61 
Q 2006 -75 1616 -75 
Q 969 -75 630 194 
Q 291 463 197 991 
z
" transform="scale(0.015625)"/>
       </defs>
       <use xlink:href="#ArialMT-36"/>
       <use xlink:href="#ArialMT-20" x="55.615234"/>
       <use xlink:href="#ArialMT-68" x="83.398438"/>
       <use xlink:href="#ArialMT-6f" x="139.013672"/>
       <use xlink:href="#ArialMT-75" x="194.628906"/>
       <use xlink:href="#ArialMT-72" x="250.244141"/>
       <use xlink:href="#ArialMT-73" x="283.544922"/>
      </g>
     </g>
    </g>
    <g id="xtick_2">
     <g id="line2d_3">
      <path d="M 194.314286 181.416412 
L 194.314286 10.8 
" clip-path="url(#p74362a9937)" style="fill: none; stroke: #cccccc; stroke-width: 0.8; stroke-linecap: round"/>
     </g>
     <g id="line2d_4"/>
     <g id="text_2">
      <!-- 8 hours -->
      <g style="fill: #262626" transform="translate(169.325795 213.560866) rotate(-45) scale(0.1 -0.1)">
       <defs>
        <path id="ArialMT-38" d="M 1131 2484 
Q 781 2613 612 2850 
Q 444 3088 444 3419 
Q 444 3919 803 4259 
Q 1163 4600 1759 4600 
Q 2359 4600 2725 4251 
Q 3091 3903 3091 3403 
Q 3091 3084 2923 2848 
Q 2756 2613 2416 2484 
Q 2838 2347 3058 2040 
Q 3278 1734 3278 1309 
Q 3278 722 2862 322 
Q 2447 -78 1769 -78 
Q 1091 -78 675 323 
Q 259 725 259 1325 
Q 259 1772 486 2073 
Q 713 2375 1131 2484 
z
M 1019 3438 
Q 1019 3113 1228 2906 
Q 1438 2700 1772 2700 
Q 2097 2700 2305 2904 
Q 2513 3109 2513 3406 
Q 2513 3716 2298 3927 
Q 2084 4138 1766 4138 
Q 1444 4138 1231 3931 
Q 1019 3725 1019 3438 
z
M 838 1322 
Q 838 1081 952 856 
Q 1066 631 1291 507 
Q 1516 384 1775 384 
Q 2178 384 2440 643 
Q 2703 903 2703 1303 
Q 2703 1709 2433 1975 
Q 2163 2241 1756 2241 
Q 1359 2241 1098 1978 
Q 838 1716 838 1322 
z
" transform="scale(0.015625)"/>
       </defs>
       <use xlink:href="#ArialMT-38"/>
       <use xlink:href="#ArialMT-20" x="55.615234"/>
       <use xlink:href="#ArialMT-68" x="83.398438"/>
       <use xlink:href="#ArialMT-6f" x="139.013672"/>
       <use xlink:href="#ArialMT-75" x="194.628906"/>
       <use xlink:href="#ArialMT-72" x="250.244141"/>
       <use xlink:href="#ArialMT-73" x="283.544922"/>
      </g>
     </g>
    </g>
    <g id="xtick_3">
     <g id="line2d_5">
      <path d="M 148.266667 181.416412 
L 148.266667 10.8 
" clip-path="url(#p74362a9937)" style="fill: none; stroke: #cccccc; stroke-width: 0.8; stroke-linecap: round"/>
     </g>
     <g id="line2d_6"/>
     <g id="text_3">
      <!-- 12 hours -->
      <g style="fill: #262626" transform="translate(119.345999 217.493043) rotate(-45) scale(0.1 -0.1)">
       <defs>
        <path id="ArialMT-31" d="M 2384 0 
L 1822 0 
L 1822 3584 
Q 1619 3391 1289 3197 
Q 959 3003 697 2906 
L 697 3450 
Q 1169 3672 1522 3987 
Q 1875 4303 2022 4600 
L 2384 4600 
L 2384 0 
z
" transform="scale(0.015625)"/>
        <path id="ArialMT-32" d="M 3222 541 
L 3222 0 
L 194 0 
Q 188 203 259 391 
Q 375 700 629 1000 
Q 884 1300 1366 1694 
Q 2113 2306 2375 2664 
Q 2638 3022 2638 3341 
Q 2638 3675 2398 3904 
Q 2159 4134 1775 4134 
Q 1369 4134 1125 3890 
Q 881 3647 878 3216 
L 300 3275 
Q 359 3922 746 4261 
Q 1134 4600 1788 4600 
Q 2447 4600 2831 4234 
Q 3216 3869 3216 3328 
Q 3216 3053 3103 2787 
Q 2991 2522 2730 2228 
Q 2469 1934 1863 1422 
Q 1356 997 1212 845 
Q 1069 694 975 541 
L 3222 541 
z
" transform="scale(0.015625)"/>
       </defs>
       <use xlink:href="#ArialMT-31"/>
       <use xlink:href="#ArialMT-32" x="55.615234"/>
       <use xlink:href="#ArialMT-20" x="111.230469"/>
       <use xlink:href="#ArialMT-68" x="139.013672"/>
       <use xlink:href="#ArialMT-6f" x="194.628906"/>
       <use xlink:href="#ArialMT-75" x="250.244141"/>
       <use xlink:href="#ArialMT-72" x="305.859375"/>
       <use xlink:href="#ArialMT-73" x="339.160156"/>
      </g>
     </g>
    </g>
    <g id="xtick_4">
     <g id="line2d_7">
      <path d="M 102.219048 181.416412 
L 102.219048 10.8 
" clip-path="url(#p74362a9937)" style="fill: none; stroke: #cccccc; stroke-width: 0.8; stroke-linecap: round"/>
     </g>
     <g id="line2d_8"/>
     <g id="text_4">
      <!-- Daily -->
      <g style="fill: #262626" transform="translate(85.014256 205.694303) rotate(-45) scale(0.1 -0.1)">
       <defs>
        <path id="ArialMT-44" d="M 494 0 
L 494 4581 
L 2072 4581 
Q 2606 4581 2888 4516 
Q 3281 4425 3559 4188 
Q 3922 3881 4101 3404 
Q 4281 2928 4281 2316 
Q 4281 1794 4159 1391 
Q 4038 988 3847 723 
Q 3656 459 3429 307 
Q 3203 156 2883 78 
Q 2563 0 2147 0 
L 494 0 
z
M 1100 541 
L 2078 541 
Q 2531 541 2789 625 
Q 3047 709 3200 863 
Q 3416 1078 3536 1442 
Q 3656 1806 3656 2325 
Q 3656 3044 3420 3430 
Q 3184 3816 2847 3947 
Q 2603 4041 2063 4041 
L 1100 4041 
L 1100 541 
z
" transform="scale(0.015625)"/>
        <path id="ArialMT-61" d="M 2588 409 
Q 2275 144 1986 34 
Q 1697 -75 1366 -75 
Q 819 -75 525 192 
Q 231 459 231 875 
Q 231 1119 342 1320 
Q 453 1522 633 1644 
Q 813 1766 1038 1828 
Q 1203 1872 1538 1913 
Q 2219 1994 2541 2106 
Q 2544 2222 2544 2253 
Q 2544 2597 2384 2738 
Q 2169 2928 1744 2928 
Q 1347 2928 1158 2789 
Q 969 2650 878 2297 
L 328 2372 
Q 403 2725 575 2942 
Q 747 3159 1072 3276 
Q 1397 3394 1825 3394 
Q 2250 3394 2515 3294 
Q 2781 3194 2906 3042 
Q 3031 2891 3081 2659 
Q 3109 2516 3109 2141 
L 3109 1391 
Q 3109 606 3145 398 
Q 3181 191 3288 0 
L 2700 0 
Q 2613 175 2588 409 
z
M 2541 1666 
Q 2234 1541 1622 1453 
Q 1275 1403 1131 1340 
Q 988 1278 909 1158 
Q 831 1038 831 891 
Q 831 666 1001 516 
Q 1172 366 1500 366 
Q 1825 366 2078 508 
Q 2331 650 2450 897 
Q 2541 1088 2541 1459 
L 2541 1666 
z
" transform="scale(0.015625)"/>
        <path id="ArialMT-69" d="M 425 3934 
L 425 4581 
L 988 4581 
L 988 3934 
L 425 3934 
z
M 425 0 
L 425 3319 
L 988 3319 
L 988 0 
L 425 0 
z
" transform="scale(0.015625)"/>
        <path id="ArialMT-6c" d="M 409 0 
L 409 4581 
L 972 4581 
L 972 0 
L 409 0 
z
" transform="scale(0.015625)"/>
        <path id="ArialMT-79" d="M 397 -1278 
L 334 -750 
Q 519 -800 656 -800 
Q 844 -800 956 -737 
Q 1069 -675 1141 -563 
Q 1194 -478 1313 -144 
Q 1328 -97 1363 -6 
L 103 3319 
L 709 3319 
L 1400 1397 
Q 1534 1031 1641 628 
Q 1738 1016 1872 1384 
L 2581 3319 
L 3144 3319 
L 1881 -56 
Q 1678 -603 1566 -809 
Q 1416 -1088 1222 -1217 
Q 1028 -1347 759 -1347 
Q 597 -1347 397 -1278 
z
" transform="scale(0.015625)"/>
       </defs>
       <use xlink:href="#ArialMT-44"/>
       <use xlink:href="#ArialMT-61" x="72.216797"/>
       <use xlink:href="#ArialMT-69" x="127.832031"/>
       <use xlink:href="#ArialMT-6c" x="150.048828"/>
       <use xlink:href="#ArialMT-79" x="172.265625"/>
      </g>
     </g>
    </g>
    <g id="xtick_5">
     <g id="line2d_9">
      <path d="M 62.74966 181.416412 
L 62.74966 10.8 
" clip-path="url(#p74362a9937)" style="fill: none; stroke: #cccccc; stroke-width: 0.8; stroke-linecap: round"/>
     </g>
     <g id="line2d_10"/>
     <g id="text_5">
      <!-- Weekly -->
      <g style="fill: #262626" transform="translate(38.204216 213.034955) rotate(-45) scale(0.1 -0.1)">
       <defs>
        <path id="ArialMT-57" d="M 1294 0 
L 78 4581 
L 700 4581 
L 1397 1578 
Q 1509 1106 1591 641 
Q 1766 1375 1797 1488 
L 2669 4581 
L 3400 4581 
L 4056 2263 
Q 4303 1400 4413 641 
Q 4500 1075 4641 1638 
L 5359 4581 
L 5969 4581 
L 4713 0 
L 4128 0 
L 3163 3491 
Q 3041 3928 3019 4028 
Q 2947 3713 2884 3491 
L 1913 0 
L 1294 0 
z
" transform="scale(0.015625)"/>
        <path id="ArialMT-65" d="M 2694 1069 
L 3275 997 
Q 3138 488 2766 206 
Q 2394 -75 1816 -75 
Q 1088 -75 661 373 
Q 234 822 234 1631 
Q 234 2469 665 2931 
Q 1097 3394 1784 3394 
Q 2450 3394 2872 2941 
Q 3294 2488 3294 1666 
Q 3294 1616 3291 1516 
L 816 1516 
Q 847 969 1125 678 
Q 1403 388 1819 388 
Q 2128 388 2347 550 
Q 2566 713 2694 1069 
z
M 847 1978 
L 2700 1978 
Q 2663 2397 2488 2606 
Q 2219 2931 1791 2931 
Q 1403 2931 1139 2672 
Q 875 2413 847 1978 
z
" transform="scale(0.015625)"/>
        <path id="ArialMT-6b" d="M 425 0 
L 425 4581 
L 988 4581 
L 988 1969 
L 2319 3319 
L 3047 3319 
L 1778 2088 
L 3175 0 
L 2481 0 
L 1384 1697 
L 988 1316 
L 988 0 
L 425 0 
z
" transform="scale(0.015625)"/>
       </defs>
       <use xlink:href="#ArialMT-57"/>
       <use xlink:href="#ArialMT-65" x="92.634766"/>
       <use xlink:href="#ArialMT-65" x="148.25"/>
       <use xlink:href="#ArialMT-6b" x="203.865234"/>
       <use xlink:href="#ArialMT-6c" x="253.865234"/>
       <use xlink:href="#ArialMT-79" x="276.082031"/>
      </g>
     </g>
    </g>
   </g>
   <g id="matplotlib.axis_2">
    <g id="ytick_1">
     <g id="line2d_11"/>
     <g id="text_6">
      <!-- 0 -->
      <g style="fill: #262626" transform="translate(36.059063 177.241024) scale(0.1 -0.1)">
       <defs>
        <path id="ArialMT-30" d="M 266 2259 
Q 266 3072 433 3567 
Q 600 4063 929 4331 
Q 1259 4600 1759 4600 
Q 2128 4600 2406 4451 
Q 2684 4303 2865 4023 
Q 3047 3744 3150 3342 
Q 3253 2941 3253 2259 
Q 3253 1453 3087 958 
Q 2922 463 2592 192 
Q 2263 -78 1759 -78 
Q 1097 -78 719 397 
Q 266 969 266 2259 
z
M 844 2259 
Q 844 1131 1108 757 
Q 1372 384 1759 384 
Q 2147 384 2411 759 
Q 2675 1134 2675 2259 
Q 2675 3391 2411 3762 
Q 2147 4134 1753 4134 
Q 1366 4134 1134 3806 
Q 844 3388 844 2259 
z
" transform="scale(0.015625)"/>
       </defs>
       <use xlink:href="#ArialMT-30"/>
      </g>
     </g>
    </g>
    <g id="ytick_2">
     <g id="line2d_12"/>
     <g id="text_7">
      <!-- 100 -->
      <g style="fill: #262626" transform="translate(24.937188 142.627303) scale(0.1 -0.1)">
       <use xlink:href="#ArialMT-31"/>
       <use xlink:href="#ArialMT-30" x="55.615234"/>
       <use xlink:href="#ArialMT-30" x="111.230469"/>
      </g>
     </g>
    </g>
    <g id="ytick_3">
     <g id="line2d_13"/>
     <g id="text_8">
      <!-- 200 -->
      <g style="fill: #262626" transform="translate(24.937188 108.013581) scale(0.1 -0.1)">
       <use xlink:href="#ArialMT-32"/>
       <use xlink:href="#ArialMT-30" x="55.615234"/>
       <use xlink:href="#ArialMT-30" x="111.230469"/>
      </g>
     </g>
    </g>
    <g id="ytick_4">
     <g id="line2d_14"/>
     <g id="text_9">
      <!-- 300 -->
      <g style="fill: #262626" transform="translate(24.937188 73.39986) scale(0.1 -0.1)">
       <defs>
        <path id="ArialMT-33" d="M 269 1209 
L 831 1284 
Q 928 806 1161 595 
Q 1394 384 1728 384 
Q 2125 384 2398 659 
Q 2672 934 2672 1341 
Q 2672 1728 2419 1979 
Q 2166 2231 1775 2231 
Q 1616 2231 1378 2169 
L 1441 2663 
Q 1497 2656 1531 2656 
Q 1891 2656 2178 2843 
Q 2466 3031 2466 3422 
Q 2466 3731 2256 3934 
Q 2047 4138 1716 4138 
Q 1388 4138 1169 3931 
Q 950 3725 888 3313 
L 325 3413 
Q 428 3978 793 4289 
Q 1159 4600 1703 4600 
Q 2078 4600 2393 4439 
Q 2709 4278 2876 4000 
Q 3044 3722 3044 3409 
Q 3044 3113 2884 2869 
Q 2725 2625 2413 2481 
Q 2819 2388 3044 2092 
Q 3269 1797 3269 1353 
Q 3269 753 2831 336 
Q 2394 -81 1725 -81 
Q 1122 -81 723 278 
Q 325 638 269 1209 
z
" transform="scale(0.015625)"/>
       </defs>
       <use xlink:href="#ArialMT-33"/>
       <use xlink:href="#ArialMT-30" x="55.615234"/>
       <use xlink:href="#ArialMT-30" x="111.230469"/>
      </g>
     </g>
    </g>
    <g id="ytick_5">
     <g id="line2d_15"/>
     <g id="text_10">
      <!-- 400 -->
      <g style="fill: #262626" transform="translate(24.937188 38.786138) scale(0.1 -0.1)">
       <defs>
        <path id="ArialMT-34" d="M 2069 0 
L 2069 1097 
L 81 1097 
L 81 1613 
L 2172 4581 
L 2631 4581 
L 2631 1613 
L 3250 1613 
L 3250 1097 
L 2631 1097 
L 2631 0 
L 2069 0 
z
M 2069 1613 
L 2069 3678 
L 634 1613 
L 2069 1613 
z
" transform="scale(0.015625)"/>
       </defs>
       <use xlink:href="#ArialMT-34"/>
       <use xlink:href="#ArialMT-30" x="55.615234"/>
       <use xlink:href="#ArialMT-30" x="111.230469"/>
      </g>
     </g>
    </g>
    <g id="text_11">
     <!-- GW -->
     <g style="fill: #262626" transform="translate(18.949688 104.7168) rotate(-90) scale(0.1 -0.1)">
      <defs>
       <path id="ArialMT-47" d="M 2638 1797 
L 2638 2334 
L 4578 2338 
L 4578 638 
Q 4131 281 3656 101 
Q 3181 -78 2681 -78 
Q 2006 -78 1454 211 
Q 903 500 622 1047 
Q 341 1594 341 2269 
Q 341 2938 620 3517 
Q 900 4097 1425 4378 
Q 1950 4659 2634 4659 
Q 3131 4659 3532 4498 
Q 3934 4338 4162 4050 
Q 4391 3763 4509 3300 
L 3963 3150 
Q 3859 3500 3706 3700 
Q 3553 3900 3268 4020 
Q 2984 4141 2638 4141 
Q 2222 4141 1919 4014 
Q 1616 3888 1430 3681 
Q 1244 3475 1141 3228 
Q 966 2803 966 2306 
Q 966 1694 1177 1281 
Q 1388 869 1791 669 
Q 2194 469 2647 469 
Q 3041 469 3416 620 
Q 3791 772 3984 944 
L 3984 1797 
L 2638 1797 
z
" transform="scale(0.015625)"/>
      </defs>
      <use xlink:href="#ArialMT-47"/>
      <use xlink:href="#ArialMT-57" x="77.783203"/>
     </g>
    </g>
   </g>
   <g id="line2d_16">
    <path d="M 56.171429 18.555291 
L 56.297586 137.032389 
L 56.423744 135.268843 
L 56.67606 170.469637 
L 56.802218 171.865799 
L 56.928376 157.579395 
L 57.180691 163.593606 
L 57.433007 157.480466 
L 57.559165 166.390463 
L 57.685323 167.340347 
L 57.811481 162.298287 
L 57.937639 163.417319 
L 58.063796 160.00745 
L 58.44227 168.851684 
L 58.568428 160.040339 
L 58.694586 162.840486 
L 58.820744 159.7333 
L 58.946902 167.813651 
L 59.073059 167.67506 
L 59.199217 167.828556 
L 59.451533 170.526883 
L 59.577691 169.364358 
L 59.703849 169.741713 
L 59.830007 169.115489 
L 59.956164 163.867711 
L 60.082322 166.497138 
L 60.20848 163.215907 
L 60.334638 170.70006 
L 60.460796 170.460861 
L 60.713112 165.998197 
L 60.965427 171.750959 
L 61.091585 167.299773 
L 61.217743 172.501136 
L 61.343901 171.441694 
L 61.470059 166.870277 
L 61.722374 171.165248 
L 61.848532 168.348709 
L 61.97469 172.014987 
L 62.100848 167.454485 
L 62.227006 172.922874 
L 62.731637 167.477536 
L 62.857795 173.361272 
L 63.236269 167.532143 
L 63.362427 171.361637 
L 63.488584 168.225981 
L 63.614742 168.566175 
L 63.7409 167.946594 
L 63.993216 171.311099 
L 64.119374 172.204231 
L 64.245532 168.448752 
L 64.371689 169.181529 
L 64.497847 165.914706 
L 64.624005 170.323365 
L 64.750163 165.237022 
L 64.876321 167.008642 
L 65.002479 166.327922 
L 65.128637 169.501336 
L 65.254795 169.461403 
L 65.50711 168.499334 
L 65.633268 170.073518 
L 65.759426 169.745602 
L 66.011742 171.979911 
L 66.264057 171.193632 
L 66.390215 171.596584 
L 66.516373 170.17665 
L 66.642531 172.632825 
L 66.768689 171.043955 
L 66.894847 172.264365 
L 67.021005 172.159654 
L 67.147162 170.144737 
L 67.27332 170.307531 
L 67.399478 171.686024 
L 67.525636 168.436995 
L 67.777952 172.930145 
L 67.90411 168.437526 
L 68.156425 172.22471 
L 68.282583 170.325671 
L 68.408741 172.091119 
L 68.534899 171.820761 
L 68.661057 170.81813 
L 68.913372 171.458359 
L 69.03953 170.863761 
L 69.291846 172.272169 
L 69.418004 171.355257 
L 69.67032 173.040187 
L 69.796477 172.892383 
L 70.048793 171.677675 
L 70.174951 171.334171 
L 70.427267 173.172671 
L 70.679583 172.245636 
L 70.80574 173.120227 
L 70.931898 172.161378 
L 71.058056 173.432741 
L 71.43653 171.285648 
L 71.562688 172.968126 
L 71.688845 172.330667 
L 71.815003 173.058105 
L 71.941161 172.232884 
L 72.067319 172.716821 
L 72.193477 172.043773 
L 72.445793 172.423325 
L 72.57195 171.328946 
L 72.698108 172.737612 
L 72.824266 171.970123 
L 73.076582 172.903359 
L 73.328898 172.428955 
L 73.455055 171.799535 
L 73.581213 173.114751 
L 73.707371 172.762869 
L 73.833529 172.97636 
L 73.959687 172.007238 
L 74.085845 173.227312 
L 74.33816 172.617117 
L 74.464318 173.117236 
L 74.590476 172.938146 
L 74.716634 172.189346 
L 74.842792 172.320662 
L 74.96895 171.887405 
L 75.221265 173.00307 
L 75.347423 172.645991 
L 75.473581 173.130195 
L 75.599739 172.365428 
L 75.725897 172.820145 
L 75.852055 171.850643 
L 75.978213 173.02896 
L 76.104371 172.403581 
L 76.230528 173.08642 
L 76.356686 173.111844 
L 76.482844 173.314595 
L 76.73516 172.363617 
L 76.861318 172.372272 
L 76.987476 172.772614 
L 77.113633 172.737651 
L 77.239791 173.268228 
L 77.492107 173.214986 
L 77.618265 172.771366 
L 77.870581 173.165057 
L 78.249054 172.169401 
L 78.375212 172.282583 
L 78.50137 172.9831 
L 78.753686 172.535268 
L 78.879843 172.908785 
L 79.006001 172.623426 
L 79.132159 173.206804 
L 79.384475 172.423096 
L 79.510633 173.064212 
L 79.636791 172.557615 
L 79.762948 173.193855 
L 80.015264 172.097546 
L 80.26758 172.87795 
L 80.393738 173.083603 
L 80.519896 173.065828 
L 80.646053 173.315492 
L 80.772211 173.235505 
L 80.898369 173.338366 
L 81.024527 172.900234 
L 81.150685 172.888303 
L 81.276843 173.393459 
L 81.403001 172.241361 
L 81.529159 172.752863 
L 81.655316 172.474356 
L 81.781474 173.258424 
L 81.907632 173.25981 
L 82.159948 172.95406 
L 82.286106 172.933606 
L 82.412264 173.139952 
L 82.538421 173.007538 
L 82.664579 172.60121 
L 82.790737 172.695215 
L 82.916895 173.348537 
L 83.043053 172.859157 
L 83.169211 172.98459 
L 83.295369 172.562169 
L 83.673842 173.564955 
L 83.926158 173.040221 
L 84.052316 173.375175 
L 84.178474 173.207259 
L 84.304631 172.522092 
L 84.430789 173.084004 
L 84.556947 172.331154 
L 84.683105 173.064178 
L 84.809263 172.843606 
L 84.935421 172.857182 
L 85.187736 173.186888 
L 85.440052 172.799454 
L 85.56621 172.921761 
L 85.692368 172.701282 
L 85.944684 173.652609 
L 86.070841 173.245142 
L 86.196999 173.329174 
L 86.323157 172.999535 
L 86.449315 173.325778 
L 86.575473 173.342097 
L 86.701631 172.885156 
L 86.827789 172.92103 
L 86.953947 172.767544 
L 87.080104 173.412615 
L 87.206262 173.025397 
L 87.33242 173.327402 
L 87.458578 173.08812 
L 87.584736 173.314342 
L 87.710894 173.035657 
L 87.837052 173.344294 
L 87.963209 173.16047 
L 88.089367 173.515735 
L 88.467841 172.515575 
L 88.720157 173.551726 
L 88.846314 172.468705 
L 89.09863 173.434124 
L 89.224788 172.779168 
L 89.350946 172.892392 
L 89.477104 173.219942 
L 89.603262 172.890321 
L 89.729419 173.105267 
L 89.855577 172.37845 
L 90.107893 173.231863 
L 90.234051 172.978964 
L 90.360209 172.461434 
L 90.612524 173.37761 
L 90.738682 172.945259 
L 90.86484 173.107257 
L 90.990998 172.656266 
L 91.117156 173.486168 
L 91.243314 173.36552 
L 91.369472 172.762647 
L 91.495629 173.360277 
L 91.747945 172.821486 
L 91.874103 173.070884 
L 92.126419 173.077149 
L 92.252577 173.304198 
L 92.378735 173.247526 
L 92.504892 173.31708 
L 92.757208 172.790622 
L 93.009524 172.659206 
L 93.135682 173.356398 
L 93.26184 172.85603 
L 93.387997 173.450636 
L 93.514155 172.456154 
L 93.640313 173.132851 
L 93.766471 172.658957 
L 94.018787 173.449571 
L 94.271102 172.407543 
L 94.39726 173.490074 
L 94.523418 173.364054 
L 94.649576 172.673029 
L 94.775734 173.01503 
L 94.901892 172.768407 
L 95.02805 173.041256 
L 95.154207 172.495835 
L 95.280365 173.065108 
L 95.406523 172.977625 
L 95.532681 173.147923 
L 95.658839 172.20669 
L 95.784997 172.920972 
L 95.911155 172.913137 
L 96.037312 173.462995 
L 96.16347 172.782585 
L 96.541944 173.440663 
L 96.668102 172.510553 
L 96.79426 172.61548 
L 96.920417 172.998963 
L 97.046575 171.166423 
L 97.172733 172.839295 
L 97.298891 173.030249 
L 97.551207 172.022582 
L 97.677365 172.216921 
L 97.92968 173.483471 
L 98.055838 173.23069 
L 98.181996 173.364487 
L 98.308154 171.867766 
L 98.56047 172.923472 
L 98.686628 172.90734 
L 98.812785 172.366098 
L 98.938943 170.629561 
L 99.191259 173.409194 
L 99.317417 172.23305 
L 99.443575 172.800488 
L 99.569733 171.843329 
L 99.69589 172.172509 
L 99.822048 171.790581 
L 100.074364 172.158531 
L 100.200522 171.282153 
L 100.32668 172.009444 
L 100.452838 172.028169 
L 100.831311 172.966931 
L 101.083627 172.080732 
L 101.209785 170.384396 
L 101.335943 172.505696 
L 101.4621 171.680449 
L 101.714416 173.013438 
L 101.840574 172.575579 
L 102.09289 166.608445 
L 102.219048 134.189859 
L 102.471363 168.852687 
L 102.597521 171.836199 
L 102.723679 171.750801 
L 102.975995 172.605584 
L 103.228311 170.667597 
L 103.480626 172.323234 
L 103.606784 172.966521 
L 103.732942 172.762744 
L 103.8591 171.701031 
L 104.111416 173.000693 
L 104.237573 173.001016 
L 104.363731 172.762381 
L 104.489889 173.123699 
L 104.742205 171.369754 
L 104.868363 172.186238 
L 104.994521 172.110916 
L 105.120678 173.415172 
L 105.246836 172.357537 
L 105.372994 173.418823 
L 105.499152 172.261458 
L 105.62531 172.196452 
L 105.751468 172.295829 
L 105.877626 172.788271 
L 106.003783 171.356505 
L 106.256099 172.367123 
L 106.508415 171.780068 
L 106.634573 173.219983 
L 107.013046 172.369557 
L 107.139204 173.373751 
L 107.39152 171.504784 
L 107.643836 173.26737 
L 107.896151 172.953851 
L 108.022309 172.878322 
L 108.148467 172.466594 
L 108.274625 173.585312 
L 108.400783 173.272716 
L 108.653098 172.125168 
L 108.779256 171.809305 
L 108.905414 172.720027 
L 109.031572 172.454381 
L 109.15773 173.401165 
L 109.283888 172.856751 
L 109.410046 173.312569 
L 109.536204 173.280419 
L 109.662361 173.002796 
L 109.788519 173.426365 
L 109.914677 172.859423 
L 110.040835 173.439918 
L 110.166993 173.273664 
L 110.293151 173.515226 
L 110.419309 172.886907 
L 110.545466 173.568513 
L 110.671624 173.495591 
L 110.797782 172.473056 
L 110.92394 172.791774 
L 111.050098 172.759077 
L 111.176256 172.885157 
L 111.302414 172.634889 
L 111.428571 172.899254 
L 111.554729 173.448338 
L 111.680887 173.372099 
L 111.807045 173.100927 
L 111.933203 173.507387 
L 112.059361 173.016368 
L 112.185519 173.420794 
L 112.437834 172.899899 
L 112.563992 173.617942 
L 112.69015 172.996378 
L 112.816308 173.170663 
L 112.942466 173.559571 
L 113.194781 172.9148 
L 113.320939 172.735026 
L 113.447097 173.415832 
L 113.573255 173.048015 
L 113.699413 173.15522 
L 113.951729 172.6331 
L 114.204044 173.438423 
L 114.330202 173.536099 
L 114.45636 173.024839 
L 114.582518 173.442709 
L 114.708676 173.241843 
L 114.834834 173.531981 
L 114.960992 173.523372 
L 115.213307 172.975745 
L 115.339465 173.191129 
L 115.465623 172.992871 
L 115.591781 173.222811 
L 115.717939 173.010514 
L 115.844097 173.507865 
L 115.970254 173.508658 
L 116.096412 173.066674 
L 116.474886 173.488462 
L 116.601044 172.759552 
L 116.727202 173.5788 
L 116.853359 173.348902 
L 117.105675 173.372487 
L 117.357991 173.228514 
L 117.610307 173.48833 
L 117.736464 173.495232 
L 117.862622 173.116759 
L 118.114938 173.579874 
L 118.493412 173.089004 
L 118.745727 173.388669 
L 118.871885 173.28875 
L 118.998043 173.51669 
L 119.250359 173.284757 
L 119.376517 173.217469 
L 119.502674 173.437946 
L 119.628832 173.377057 
L 119.75499 173.163228 
L 119.881148 173.571761 
L 120.007306 173.491698 
L 120.133464 173.18037 
L 120.638095 173.369603 
L 120.764253 173.262169 
L 120.890411 173.421163 
L 121.016569 173.140527 
L 121.268885 173.591177 
L 121.395042 173.329563 
L 121.773516 173.472708 
L 121.899674 173.270774 
L 122.15199 173.618998 
L 122.278147 173.515679 
L 122.404305 173.114973 
L 122.530463 173.614801 
L 122.908937 173.457774 
L 123.035095 173.282769 
L 123.161252 173.54253 
L 123.28741 173.404099 
L 123.413568 173.632646 
L 123.665884 173.228295 
L 123.792042 173.577182 
L 123.9182 173.250711 
L 124.044357 173.551 
L 124.170515 173.24364 
L 124.422831 173.417654 
L 124.548989 173.223624 
L 124.801305 173.455335 
L 124.927462 173.439931 
L 125.179778 173.070826 
L 125.432094 173.489002 
L 125.810568 173.418294 
L 125.936725 173.250316 
L 126.062883 173.573806 
L 126.189041 173.52394 
L 126.315199 173.607725 
L 126.441357 173.387457 
L 126.567515 173.488054 
L 126.693673 173.115863 
L 126.81983 173.431704 
L 126.945988 172.958266 
L 127.072146 173.327066 
L 127.198304 173.200936 
L 127.829093 173.566786 
L 128.081409 173.211498 
L 128.207567 173.403235 
L 128.333725 173.311493 
L 128.459883 173.636527 
L 128.712198 173.571553 
L 129.342988 173.108984 
L 129.469145 173.251333 
L 129.721461 173.119896 
L 129.973777 173.471185 
L 130.35225 173.441497 
L 130.478408 173.513557 
L 130.604566 173.244463 
L 130.730724 173.430433 
L 130.856882 173.256278 
L 131.109198 173.45272 
L 131.235356 173.441192 
L 131.361513 173.598437 
L 131.739987 173.129414 
L 131.992303 173.542187 
L 132.118461 173.330077 
L 132.244618 173.426837 
L 132.496934 173.335115 
L 133.001566 173.618882 
L 133.380039 173.309856 
L 133.506197 173.37271 
L 133.632355 173.306954 
L 133.884671 173.580745 
L 134.010828 173.287327 
L 134.136986 173.485307 
L 134.263144 173.257084 
L 134.389302 173.445141 
L 134.641618 173.371242 
L 134.767776 173.220041 
L 134.893933 173.541114 
L 135.146249 173.109674 
L 135.272407 173.590227 
L 135.398565 173.515375 
L 135.524723 173.255431 
L 136.029354 173.59291 
L 136.407828 173.159857 
L 136.533986 173.240412 
L 136.660144 173.542017 
L 136.912459 173.517768 
L 137.038617 173.641189 
L 137.164775 173.472099 
L 137.290933 173.56221 
L 137.417091 173.1197 
L 137.543249 173.530305 
L 137.669406 173.08796 
L 137.795564 173.100564 
L 138.04788 173.587139 
L 138.300196 173.016144 
L 138.426354 173.14256 
L 138.552511 173.510839 
L 138.678669 173.259402 
L 138.930985 173.526098 
L 139.309459 173.158984 
L 139.435616 173.387195 
L 139.81409 172.967795 
L 139.940248 173.613867 
L 140.066406 172.837412 
L 140.192564 173.297074 
L 140.318721 173.064955 
L 140.444879 173.523612 
L 140.697195 173.413972 
L 140.823353 173.567396 
L 140.949511 173.522257 
L 141.075669 173.049463 
L 141.201826 173.43314 
L 141.327984 173.366864 
L 141.5803 173.559418 
L 141.706458 172.897172 
L 141.958774 173.146589 
L 142.084932 173.553271 
L 142.211089 173.200273 
L 142.337247 173.24769 
L 142.463405 172.935377 
L 142.841879 173.298572 
L 142.968037 173.232429 
L 143.094194 173.331424 
L 143.220352 173.218421 
L 143.34651 172.625961 
L 143.472668 173.440781 
L 143.598826 173.504798 
L 143.724984 173.422107 
L 143.851142 173.178344 
L 143.977299 173.441819 
L 144.103457 173.152738 
L 144.229615 173.160448 
L 144.355773 173.442952 
L 144.481931 172.931989 
L 144.734247 173.275625 
L 144.860404 173.441423 
L 144.986562 173.124198 
L 145.238878 173.323046 
L 145.365036 173.168295 
L 145.491194 173.418043 
L 145.743509 172.71215 
L 145.995825 172.473633 
L 146.121983 173.505352 
L 146.248141 172.745174 
L 146.374299 173.410155 
L 146.500457 173.127134 
L 146.626614 173.427937 
L 146.752772 172.651818 
L 146.87893 173.43275 
L 147.005088 173.432703 
L 147.257404 172.552117 
L 147.50972 173.139811 
L 147.635877 172.898643 
L 147.888193 171.510398 
L 148.140509 169.67371 
L 148.266667 164.400525 
L 148.518982 173.17927 
L 148.64514 173.084711 
L 148.771298 172.785972 
L 148.897456 172.167335 
L 149.023614 172.561761 
L 149.149772 171.988305 
L 149.402087 172.752997 
L 149.528245 172.745732 
L 149.654403 172.865168 
L 149.780561 173.256786 
L 149.906719 172.790745 
L 150.032877 173.184299 
L 150.159035 172.502776 
L 150.285192 172.666542 
L 150.537508 173.590066 
L 150.663666 173.342158 
L 150.789824 172.699972 
L 151.04214 172.923095 
L 151.168297 173.340735 
L 151.294455 173.323271 
L 151.420613 173.465304 
L 151.546771 173.102789 
L 151.672929 173.145348 
L 151.799087 172.95894 
L 151.925245 173.298829 
L 152.051402 172.956867 
L 152.429876 173.329148 
L 152.556034 173.138037 
L 152.682192 173.560457 
L 152.80835 173.176613 
L 153.060665 173.140228 
L 153.186823 173.416968 
L 153.312981 173.043226 
L 153.439139 173.04395 
L 153.565297 173.313705 
L 153.691455 173.195804 
L 153.817613 173.432199 
L 153.94377 173.247327 
L 154.196086 173.268757 
L 154.322244 173.532638 
L 154.826875 172.808003 
L 154.953033 173.139358 
L 155.079191 173.092254 
L 155.205349 173.35312 
L 155.331507 173.158105 
L 155.583823 173.615676 
L 155.836138 173.047681 
L 155.962296 172.963838 
L 156.214612 173.429334 
L 156.34077 173.255144 
L 156.466928 173.545695 
L 156.719243 172.985821 
L 156.845401 173.268386 
L 156.971559 172.835042 
L 157.097717 172.925859 
L 157.47619 173.629909 
L 157.728506 173.211769 
L 157.980822 173.54221 
L 158.233138 173.59124 
L 158.485453 173.114577 
L 158.737769 173.541599 
L 158.863927 173.483854 
L 158.990085 173.620078 
L 159.116243 173.431074 
L 159.242401 173.472134 
L 159.368558 173.273276 
L 159.494716 173.504807 
L 159.747032 173.338173 
L 159.87319 173.275425 
L 160.125506 173.593365 
L 160.377821 173.410767 
L 160.503979 173.589908 
L 160.756295 173.248618 
L 160.882453 173.489107 
L 161.008611 173.274456 
L 161.134768 173.373228 
L 161.387084 173.110396 
L 161.513242 173.244503 
L 161.6394 173.546611 
L 161.765558 173.438974 
L 161.891716 173.610467 
L 162.017873 173.161772 
L 162.270189 173.50187 
L 162.900978 173.483299 
L 163.027136 173.616034 
L 163.279452 173.376544 
L 163.531768 173.578766 
L 163.657926 173.622307 
L 163.784083 173.44805 
L 164.162557 173.629722 
L 164.288715 173.431614 
L 164.541031 173.546121 
L 164.919504 173.54322 
L 165.17182 173.556923 
L 165.424136 173.540834 
L 165.550294 173.594204 
L 165.928767 173.398274 
L 166.054925 173.573767 
L 166.307241 173.539696 
L 166.433399 173.352345 
L 166.685714 173.544748 
L 166.811872 173.43781 
L 166.93803 173.615226 
L 167.064188 173.403128 
L 167.316504 173.62433 
L 168.199609 173.362287 
L 168.451924 173.614554 
L 168.578082 173.443796 
L 168.70424 173.521482 
L 168.830398 173.437502 
L 168.956556 173.537616 
L 169.082714 173.309352 
L 169.208871 173.581555 
L 169.461187 173.513347 
L 169.713503 173.43546 
L 169.839661 173.620305 
L 170.091977 173.466839 
L 170.722766 173.464481 
L 170.848924 173.566476 
L 170.975082 173.478366 
L 171.101239 173.63255 
L 171.227397 173.299545 
L 171.479713 173.537449 
L 171.605871 173.367922 
L 172.23666 173.590597 
L 172.488976 173.573182 
L 172.615134 173.574994 
L 172.867449 173.384137 
L 172.993607 173.475786 
L 173.119765 173.365659 
L 173.372081 173.432538 
L 173.624397 173.626385 
L 173.876712 173.412341 
L 174.129028 173.605742 
L 174.255186 173.442591 
L 174.381344 173.506984 
L 174.633659 173.41951 
L 175.264449 173.472357 
L 175.390607 173.281897 
L 175.516765 173.453959 
L 175.642922 173.417036 
L 176.021396 173.613383 
L 176.39987 173.39322 
L 177.282975 173.601734 
L 177.409132 173.571505 
L 177.53529 173.422599 
L 177.661448 173.517096 
L 177.787606 173.432657 
L 177.913764 173.605709 
L 178.039922 173.527251 
L 178.292237 173.594613 
L 178.544553 173.527824 
L 178.670711 173.326119 
L 178.796869 173.630739 
L 179.427658 173.457804 
L 179.679974 173.518316 
L 180.310763 173.433238 
L 180.436921 173.5598 
L 180.563079 173.474222 
L 180.815395 173.588953 
L 181.320026 173.263127 
L 181.572342 173.458079 
L 182.329289 173.486546 
L 182.455447 173.397091 
L 182.707763 173.47071 
L 183.212394 173.540394 
L 183.46471 173.431783 
L 183.717025 173.592104 
L 183.969341 173.414639 
L 184.221657 173.490322 
L 184.347815 173.335068 
L 184.473973 173.554287 
L 184.60013 173.479996 
L 184.726288 173.546794 
L 184.852446 173.366748 
L 184.978604 173.507447 
L 185.104762 173.446719 
L 185.357078 173.653417 
L 185.609393 173.386785 
L 185.735551 173.468913 
L 185.861709 173.389035 
L 186.114025 173.556833 
L 186.366341 173.492058 
L 186.492498 173.387194 
L 187.123288 173.529465 
L 187.249446 173.538587 
L 187.375603 173.423956 
L 187.501761 173.497566 
L 187.754077 173.04375 
L 188.006393 173.556784 
L 188.132551 173.382916 
L 188.258708 173.491378 
L 188.384866 173.434462 
L 188.511024 173.538287 
L 188.76334 173.421078 
L 189.141813 173.483792 
L 189.267971 173.376915 
L 189.394129 173.629713 
L 189.772603 173.318608 
L 189.898761 173.468216 
L 190.024918 173.164848 
L 190.151076 173.562157 
L 190.277234 173.537093 
L 190.52955 173.065607 
L 190.781866 173.58465 
L 191.034181 173.513334 
L 191.286497 173.285668 
L 191.412655 173.400202 
L 191.538813 173.333285 
L 191.664971 173.423913 
L 191.791129 173.202769 
L 192.043444 173.466171 
L 192.169602 173.351036 
L 192.674234 173.636909 
L 192.800391 173.423212 
L 192.926549 173.534994 
L 193.305023 173.195089 
L 193.431181 173.504348 
L 193.683496 173.039418 
L 193.809654 173.227888 
L 194.06197 172.756586 
L 194.188128 171.74705 
L 194.314286 168.801702 
L 194.440444 172.338833 
L 195.071233 173.63075 
L 195.197391 172.910185 
L 195.575864 173.238958 
L 195.82818 173.479286 
L 195.954338 173.272407 
L 196.080496 173.302626 
L 196.332811 172.942982 
L 196.458969 173.448979 
L 196.963601 173.499101 
L 197.215917 173.418742 
L 197.342074 173.556438 
L 197.468232 173.368965 
L 197.59439 173.493772 
L 197.846706 173.293299 
L 197.972864 173.529708 
L 198.099022 173.26552 
L 198.225179 173.2866 
L 198.351337 173.119247 
L 198.477495 173.360578 
L 198.603653 173.218469 
L 198.729811 173.401517 
L 198.855969 173.28123 
L 198.982127 173.541858 
L 199.108284 173.352262 
L 199.3606 173.545353 
L 199.486758 173.382855 
L 199.612916 173.4793 
L 199.739074 173.429818 
L 199.865232 173.503666 
L 200.243705 173.382138 
L 200.496021 173.41237 
L 200.748337 173.339883 
L 200.874494 173.135232 
L 201.12681 173.557607 
L 201.379126 173.218715 
L 201.505284 173.435624 
L 202.136073 173.480111 
L 202.262231 173.579766 
L 202.766862 173.384601 
L 202.89302 173.533975 
L 203.019178 173.454262 
L 203.145336 173.54909 
L 203.271494 173.48197 
L 203.397652 173.579537 
L 203.52381 173.352307 
L 203.649967 173.558909 
L 203.776125 173.458354 
L 204.028441 173.568725 
L 204.154599 173.42569 
L 204.280757 173.542627 
L 204.533072 173.49296 
L 204.65923 173.588668 
L 204.911546 173.458465 
L 205.037704 173.627961 
L 205.29002 173.527987 
L 205.542335 173.561782 
L 205.794651 173.552276 
L 206.551598 173.455913 
L 206.677756 173.602328 
L 206.803914 173.473227 
L 206.930072 173.507458 
L 207.05623 173.364407 
L 207.182387 173.537986 
L 207.308545 173.389126 
L 207.434703 173.474335 
L 207.560861 173.379884 
L 207.813177 173.494078 
L 207.939335 173.360779 
L 208.317808 173.590108 
L 208.443966 173.452232 
L 209.074755 173.55294 
L 209.200913 173.505248 
L 209.327071 173.612487 
L 209.453229 173.423144 
L 209.579387 173.618853 
L 209.705545 173.560109 
L 209.831703 173.654363 
L 210.084018 173.523819 
L 210.210176 173.557043 
L 210.336334 173.445534 
L 210.462492 173.632366 
L 211.471755 173.492273 
L 211.72407 173.608212 
L 212.228702 173.527711 
L 212.481018 173.635765 
L 212.985649 173.564235 
L 213.364123 173.564087 
L 213.616438 173.492493 
L 213.994912 173.485115 
L 214.12107 173.458298 
L 214.247228 173.625867 
L 214.373386 173.558906 
L 214.499543 173.647027 
L 214.878017 173.531505 
L 215.508806 173.54883 
L 215.634964 173.422137 
L 215.88728 173.59169 
L 216.139596 173.540415 
L 216.770385 173.551455 
L 217.401174 173.602809 
L 217.779648 173.593498 
L 218.284279 173.550453 
L 218.536595 173.602061 
L 218.788911 173.464906 
L 218.915068 173.5702 
L 219.167384 173.449754 
L 219.798174 173.655554 
L 220.176647 173.43233 
L 220.428963 173.569997 
L 220.681279 173.46598 
L 220.807436 173.616854 
L 220.933594 173.42986 
L 221.18591 173.61553 
L 221.690541 173.569206 
L 222.069015 173.544468 
L 223.078278 173.65266 
L 223.204436 173.501342 
L 223.456751 173.540283 
L 223.582909 173.454937 
L 223.835225 173.591964 
L 224.844488 173.538567 
L 225.222962 173.544212 
L 225.727593 173.589593 
L 226.106067 173.511003 
L 226.358382 173.571193 
L 226.48454 173.581348 
L 226.610698 173.425669 
L 226.989172 173.585238 
L 227.746119 173.452845 
L 227.998434 173.591909 
L 228.124592 173.4624 
L 228.376908 173.599669 
L 228.629224 173.455414 
L 228.881539 173.599024 
L 229.260013 173.542763 
L 229.512329 173.615687 
L 229.638487 173.639549 
L 229.890802 173.425762 
L 230.01696 173.548155 
L 230.395434 173.508157 
L 230.521592 173.6384 
L 230.773907 173.566661 
L 231.026223 173.581341 
L 231.152381 173.419896 
L 231.657012 173.580785 
L 232.035486 173.570455 
L 232.41396 173.553277 
L 232.792433 173.524596 
L 233.297065 173.521018 
L 233.423222 173.63202 
L 233.675538 173.461918 
L 233.927854 173.565576 
L 234.054012 173.357834 
L 234.306327 173.604247 
L 234.558643 173.441555 
L 234.810959 173.561089 
L 236.198695 173.491129 
L 236.324853 173.636276 
L 236.451011 173.520899 
L 236.703327 173.547957 
L 236.829485 173.45295 
L 237.0818 173.574108 
L 237.334116 173.349346 
L 237.460274 173.562581 
L 237.964905 173.451754 
L 238.091063 173.26943 
L 238.343379 173.52067 
L 238.84801 173.529461 
L 238.974168 173.307076 
L 239.226484 173.551333 
L 239.857273 173.178653 
L 239.983431 173.356275 
L 240.235747 172.222884 
L 240.361905 172.1542 
L 240.488063 172.342494 
L 240.740378 173.522194 
L 240.866536 173.022089 
L 241.24501 173.571245 
L 241.371168 173.080812 
L 241.623483 173.505247 
L 241.875799 173.63944 
L 242.001957 173.340046 
L 242.380431 173.552575 
L 242.506588 173.581657 
L 242.758904 173.456744 
L 243.263536 173.502919 
L 243.642009 173.37676 
L 243.768167 173.643678 
L 243.894325 173.40073 
L 244.146641 173.609255 
L 244.272798 173.496438 
L 244.525114 173.573987 
L 244.77743 173.35624 
L 244.903588 173.6213 
L 245.029746 173.511015 
L 245.282061 173.557363 
L 245.534377 173.48303 
L 245.660535 173.600452 
L 245.786693 173.412193 
L 245.912851 173.61108 
L 246.039008 173.520604 
L 246.291324 173.573166 
L 246.669798 173.447252 
L 246.795956 173.41402 
L 246.922114 173.5246 
L 247.048271 173.437192 
L 247.174429 173.6531 
L 247.300587 173.530341 
L 247.552903 173.649499 
L 248.057534 173.537254 
L 248.183692 173.602893 
L 248.30985 173.528576 
L 248.562166 173.600499 
L 248.688324 173.438843 
L 248.814481 173.613855 
L 249.066797 173.535403 
L 249.319113 173.627731 
L 249.571429 173.357025 
L 249.949902 173.585973 
L 250.202218 173.512143 
L 250.454534 173.630769 
L 250.833007 173.544538 
L 251.085323 173.631649 
L 252.599217 173.595466 
L 252.851533 173.587499 
L 253.356164 173.516806 
L 253.60848 173.569796 
L 254.113112 173.493208 
L 254.239269 173.63689 
L 254.491585 173.57122 
L 254.870059 173.598491 
L 255.122374 173.526965 
L 255.37469 173.459351 
L 255.627006 173.619979 
L 256.762427 173.459406 
L 257.014742 173.599223 
L 257.645532 173.637888 
L 257.771689 173.518739 
L 258.276321 173.614645 
L 258.654795 173.563005 
L 258.90711 173.552936 
L 259.790215 173.630696 
L 260.168689 173.584536 
L 260.547162 173.509762 
L 260.925636 173.592185 
L 261.430267 173.506245 
L 261.556425 173.58264 
L 261.682583 173.522183 
L 261.934899 173.635133 
L 263.827267 173.626366 
L 264.079583 173.578762 
L 264.331898 173.534777 
L 264.83653 173.606226 
L 265.088845 173.567959 
L 265.341161 173.623967 
L 265.97195 173.559689 
L 266.855055 173.587206 
L 267.107371 173.604661 
L 267.485845 173.623475 
L 270.513633 173.521549 
L 270.639791 173.6462 
L 270.765949 173.496272 
L 271.018265 173.618776 
L 271.270581 173.549276 
L 271.522896 173.629017 
L 273.289106 173.567159 
L 273.415264 173.643022 
L 273.793738 173.533781 
L 274.172211 173.544195 
L 274.550685 173.641303 
L 274.929159 173.558643 
L 275.055316 173.65992 
L 275.181474 173.566793 
L 275.307632 173.647226 
L 275.43379 173.577312 
L 275.686106 173.646402 
L 276.064579 173.541827 
L 276.190737 173.592504 
L 276.316895 173.500226 
L 276.695369 173.599873 
L 277.2 173.616703 
L 277.326158 173.574822 
L 277.326158 173.574822 
" clip-path="url(#p74362a9937)" style="fill: none; stroke: #e5c494; stroke-linecap: round"/>
   </g>
   <g id="patch_3">
    <path d="M 45.12 181.416412 
L 45.12 10.8 
" style="fill: none; stroke: #cccccc; stroke-linejoin: miter; stroke-linecap: square"/>
   </g>
   <g id="patch_4">
    <path d="M 277.2 181.416412 
L 277.2 10.8 
" style="fill: none; stroke: #cccccc; stroke-linejoin: miter; stroke-linecap: square"/>
   </g>
   <g id="patch_5">
    <path d="M 45.12 181.416412 
L 277.2 181.416412 
" style="fill: none; stroke: #cccccc; stroke-linejoin: miter; stroke-linecap: square"/>
   </g>
   <g id="patch_6">
    <path d="M 45.12 10.8 
L 277.2 10.8 
" style="fill: none; stroke: #cccccc; stroke-linejoin: miter; stroke-linecap: square"/>
   </g>
  </g>
 </g>
 <defs>
  <clipPath id="p74362a9937">
   <rect x="45.12" y="10.8" width="232.08" height="170.616412"/>
  </clipPath>
 </defs>
</svg>
