<?xml version="1.0" encoding="utf-8" standalone="no"?>
<!DOCTYPE svg PUBLIC "-//W3C//DTD SVG 1.1//EN"
  "http://www.w3.org/Graphics/SVG/1.1/DTD/svg11.dtd">
<svg xmlns:xlink="http://www.w3.org/1999/xlink" width="288pt" height="230.4pt" viewBox="0 0 288 230.4" xmlns="http://www.w3.org/2000/svg" version="1.1">
 <metadata>
  <rdf:RDF xmlns:dc="http://purl.org/dc/elements/1.1/" xmlns:cc="http://creativecommons.org/ns#" xmlns:rdf="http://www.w3.org/1999/02/22-rdf-syntax-ns#">
   <cc:Work>
    <dc:type rdf:resource="http://purl.org/dc/dcmitype/StillImage"/>
    <dc:date>2024-07-21T17:28:17.858333</dc:date>
    <dc:format>image/svg+xml</dc:format>
    <dc:creator>
     <cc:Agent>
      <dc:title>Matplotlib v3.9.0, https://matplotlib.org/</dc:title>
     </cc:Agent>
    </dc:creator>
   </cc:Work>
  </rdf:RDF>
 </metadata>
 <defs>
  <style type="text/css">*{stroke-linejoin: round; stroke-linecap: butt}</style>
 </defs>
 <g id="figure_1">
  <g id="patch_1">
   <path d="M 0 230.4 
L 288 230.4 
L 288 0 
L 0 0 
z
" style="fill: #ffffff"/>
  </g>
  <g id="axes_1">
   <g id="patch_2">
    <path d="M 45.12 181.416412 
L 277.2 181.416412 
L 277.2 10.8 
L 45.12 10.8 
z
" style="fill: #ffffff"/>
   </g>
   <g id="matplotlib.axis_1">
    <g id="xtick_1">
     <g id="line2d_1">
      <path d="M 240.361905 181.416412 
L 240.361905 10.8 
" clip-path="url(#pdfdba6677a)" style="fill: none; stroke: #cccccc; stroke-width: 0.8; stroke-linecap: round"/>
     </g>
     <g id="line2d_2"/>
     <g id="text_1">
      <!-- 6 hours -->
      <g style="fill: #262626" transform="translate(215.373414 213.560866) rotate(-45) scale(0.1 -0.1)">
       <defs>
        <path id="ArialMT-36" d="M 3184 3459 
L 2625 3416 
Q 2550 3747 2413 3897 
Q 2184 4138 1850 4138 
Q 1581 4138 1378 3988 
Q 1113 3794 959 3422 
Q 806 3050 800 2363 
Q 1003 2672 1297 2822 
Q 1591 2972 1913 2972 
Q 2475 2972 2870 2558 
Q 3266 2144 3266 1488 
Q 3266 1056 3080 686 
Q 2894 316 2569 119 
Q 2244 -78 1831 -78 
Q 1128 -78 684 439 
Q 241 956 241 2144 
Q 241 3472 731 4075 
Q 1159 4600 1884 4600 
Q 2425 4600 2770 4297 
Q 3116 3994 3184 3459 
z
M 888 1484 
Q 888 1194 1011 928 
Q 1134 663 1356 523 
Q 1578 384 1822 384 
Q 2178 384 2434 671 
Q 2691 959 2691 1453 
Q 2691 1928 2437 2201 
Q 2184 2475 1800 2475 
Q 1419 2475 1153 2201 
Q 888 1928 888 1484 
z
" transform="scale(0.015625)"/>
        <path id="ArialMT-20" transform="scale(0.015625)"/>
        <path id="ArialMT-68" d="M 422 0 
L 422 4581 
L 984 4581 
L 984 2938 
Q 1378 3394 1978 3394 
Q 2347 3394 2619 3248 
Q 2891 3103 3008 2847 
Q 3125 2591 3125 2103 
L 3125 0 
L 2563 0 
L 2563 2103 
Q 2563 2525 2380 2717 
Q 2197 2909 1863 2909 
Q 1613 2909 1392 2779 
Q 1172 2650 1078 2428 
Q 984 2206 984 1816 
L 984 0 
L 422 0 
z
" transform="scale(0.015625)"/>
        <path id="ArialMT-6f" d="M 213 1659 
Q 213 2581 725 3025 
Q 1153 3394 1769 3394 
Q 2453 3394 2887 2945 
Q 3322 2497 3322 1706 
Q 3322 1066 3130 698 
Q 2938 331 2570 128 
Q 2203 -75 1769 -75 
Q 1072 -75 642 372 
Q 213 819 213 1659 
z
M 791 1659 
Q 791 1022 1069 705 
Q 1347 388 1769 388 
Q 2188 388 2466 706 
Q 2744 1025 2744 1678 
Q 2744 2294 2464 2611 
Q 2184 2928 1769 2928 
Q 1347 2928 1069 2612 
Q 791 2297 791 1659 
z
" transform="scale(0.015625)"/>
        <path id="ArialMT-75" d="M 2597 0 
L 2597 488 
Q 2209 -75 1544 -75 
Q 1250 -75 995 37 
Q 741 150 617 320 
Q 494 491 444 738 
Q 409 903 409 1263 
L 409 3319 
L 972 3319 
L 972 1478 
Q 972 1038 1006 884 
Q 1059 663 1231 536 
Q 1403 409 1656 409 
Q 1909 409 2131 539 
Q 2353 669 2445 892 
Q 2538 1116 2538 1541 
L 2538 3319 
L 3100 3319 
L 3100 0 
L 2597 0 
z
" transform="scale(0.015625)"/>
        <path id="ArialMT-72" d="M 416 0 
L 416 3319 
L 922 3319 
L 922 2816 
Q 1116 3169 1280 3281 
Q 1444 3394 1641 3394 
Q 1925 3394 2219 3213 
L 2025 2691 
Q 1819 2813 1613 2813 
Q 1428 2813 1281 2702 
Q 1134 2591 1072 2394 
Q 978 2094 978 1738 
L 978 0 
L 416 0 
z
" transform="scale(0.015625)"/>
        <path id="ArialMT-73" d="M 197 991 
L 753 1078 
Q 800 744 1014 566 
Q 1228 388 1613 388 
Q 2000 388 2187 545 
Q 2375 703 2375 916 
Q 2375 1106 2209 1216 
Q 2094 1291 1634 1406 
Q 1016 1563 777 1677 
Q 538 1791 414 1992 
Q 291 2194 291 2438 
Q 291 2659 392 2848 
Q 494 3038 669 3163 
Q 800 3259 1026 3326 
Q 1253 3394 1513 3394 
Q 1903 3394 2198 3281 
Q 2494 3169 2634 2976 
Q 2775 2784 2828 2463 
L 2278 2388 
Q 2241 2644 2061 2787 
Q 1881 2931 1553 2931 
Q 1166 2931 1000 2803 
Q 834 2675 834 2503 
Q 834 2394 903 2306 
Q 972 2216 1119 2156 
Q 1203 2125 1616 2013 
Q 2213 1853 2448 1751 
Q 2684 1650 2818 1456 
Q 2953 1263 2953 975 
Q 2953 694 2789 445 
Q 2625 197 2315 61 
Q 2006 -75 1616 -75 
Q 969 -75 630 194 
Q 291 463 197 991 
z
" transform="scale(0.015625)"/>
       </defs>
       <use xlink:href="#ArialMT-36"/>
       <use xlink:href="#ArialMT-20" x="55.615234"/>
       <use xlink:href="#ArialMT-68" x="83.398438"/>
       <use xlink:href="#ArialMT-6f" x="139.013672"/>
       <use xlink:href="#ArialMT-75" x="194.628906"/>
       <use xlink:href="#ArialMT-72" x="250.244141"/>
       <use xlink:href="#ArialMT-73" x="283.544922"/>
      </g>
     </g>
    </g>
    <g id="xtick_2">
     <g id="line2d_3">
      <path d="M 194.314286 181.416412 
L 194.314286 10.8 
" clip-path="url(#pdfdba6677a)" style="fill: none; stroke: #cccccc; stroke-width: 0.8; stroke-linecap: round"/>
     </g>
     <g id="line2d_4"/>
     <g id="text_2">
      <!-- 8 hours -->
      <g style="fill: #262626" transform="translate(169.325795 213.560866) rotate(-45) scale(0.1 -0.1)">
       <defs>
        <path id="ArialMT-38" d="M 1131 2484 
Q 781 2613 612 2850 
Q 444 3088 444 3419 
Q 444 3919 803 4259 
Q 1163 4600 1759 4600 
Q 2359 4600 2725 4251 
Q 3091 3903 3091 3403 
Q 3091 3084 2923 2848 
Q 2756 2613 2416 2484 
Q 2838 2347 3058 2040 
Q 3278 1734 3278 1309 
Q 3278 722 2862 322 
Q 2447 -78 1769 -78 
Q 1091 -78 675 323 
Q 259 725 259 1325 
Q 259 1772 486 2073 
Q 713 2375 1131 2484 
z
M 1019 3438 
Q 1019 3113 1228 2906 
Q 1438 2700 1772 2700 
Q 2097 2700 2305 2904 
Q 2513 3109 2513 3406 
Q 2513 3716 2298 3927 
Q 2084 4138 1766 4138 
Q 1444 4138 1231 3931 
Q 1019 3725 1019 3438 
z
M 838 1322 
Q 838 1081 952 856 
Q 1066 631 1291 507 
Q 1516 384 1775 384 
Q 2178 384 2440 643 
Q 2703 903 2703 1303 
Q 2703 1709 2433 1975 
Q 2163 2241 1756 2241 
Q 1359 2241 1098 1978 
Q 838 1716 838 1322 
z
" transform="scale(0.015625)"/>
       </defs>
       <use xlink:href="#ArialMT-38"/>
       <use xlink:href="#ArialMT-20" x="55.615234"/>
       <use xlink:href="#ArialMT-68" x="83.398438"/>
       <use xlink:href="#ArialMT-6f" x="139.013672"/>
       <use xlink:href="#ArialMT-75" x="194.628906"/>
       <use xlink:href="#ArialMT-72" x="250.244141"/>
       <use xlink:href="#ArialMT-73" x="283.544922"/>
      </g>
     </g>
    </g>
    <g id="xtick_3">
     <g id="line2d_5">
      <path d="M 148.266667 181.416412 
L 148.266667 10.8 
" clip-path="url(#pdfdba6677a)" style="fill: none; stroke: #cccccc; stroke-width: 0.8; stroke-linecap: round"/>
     </g>
     <g id="line2d_6"/>
     <g id="text_3">
      <!-- 12 hours -->
      <g style="fill: #262626" transform="translate(119.345999 217.493043) rotate(-45) scale(0.1 -0.1)">
       <defs>
        <path id="ArialMT-31" d="M 2384 0 
L 1822 0 
L 1822 3584 
Q 1619 3391 1289 3197 
Q 959 3003 697 2906 
L 697 3450 
Q 1169 3672 1522 3987 
Q 1875 4303 2022 4600 
L 2384 4600 
L 2384 0 
z
" transform="scale(0.015625)"/>
        <path id="ArialMT-32" d="M 3222 541 
L 3222 0 
L 194 0 
Q 188 203 259 391 
Q 375 700 629 1000 
Q 884 1300 1366 1694 
Q 2113 2306 2375 2664 
Q 2638 3022 2638 3341 
Q 2638 3675 2398 3904 
Q 2159 4134 1775 4134 
Q 1369 4134 1125 3890 
Q 881 3647 878 3216 
L 300 3275 
Q 359 3922 746 4261 
Q 1134 4600 1788 4600 
Q 2447 4600 2831 4234 
Q 3216 3869 3216 3328 
Q 3216 3053 3103 2787 
Q 2991 2522 2730 2228 
Q 2469 1934 1863 1422 
Q 1356 997 1212 845 
Q 1069 694 975 541 
L 3222 541 
z
" transform="scale(0.015625)"/>
       </defs>
       <use xlink:href="#ArialMT-31"/>
       <use xlink:href="#ArialMT-32" x="55.615234"/>
       <use xlink:href="#ArialMT-20" x="111.230469"/>
       <use xlink:href="#ArialMT-68" x="139.013672"/>
       <use xlink:href="#ArialMT-6f" x="194.628906"/>
       <use xlink:href="#ArialMT-75" x="250.244141"/>
       <use xlink:href="#ArialMT-72" x="305.859375"/>
       <use xlink:href="#ArialMT-73" x="339.160156"/>
      </g>
     </g>
    </g>
    <g id="xtick_4">
     <g id="line2d_7">
      <path d="M 102.219048 181.416412 
L 102.219048 10.8 
" clip-path="url(#pdfdba6677a)" style="fill: none; stroke: #cccccc; stroke-width: 0.8; stroke-linecap: round"/>
     </g>
     <g id="line2d_8"/>
     <g id="text_4">
      <!-- Daily -->
      <g style="fill: #262626" transform="translate(85.014256 205.694303) rotate(-45) scale(0.1 -0.1)">
       <defs>
        <path id="ArialMT-44" d="M 494 0 
L 494 4581 
L 2072 4581 
Q 2606 4581 2888 4516 
Q 3281 4425 3559 4188 
Q 3922 3881 4101 3404 
Q 4281 2928 4281 2316 
Q 4281 1794 4159 1391 
Q 4038 988 3847 723 
Q 3656 459 3429 307 
Q 3203 156 2883 78 
Q 2563 0 2147 0 
L 494 0 
z
M 1100 541 
L 2078 541 
Q 2531 541 2789 625 
Q 3047 709 3200 863 
Q 3416 1078 3536 1442 
Q 3656 1806 3656 2325 
Q 3656 3044 3420 3430 
Q 3184 3816 2847 3947 
Q 2603 4041 2063 4041 
L 1100 4041 
L 1100 541 
z
" transform="scale(0.015625)"/>
        <path id="ArialMT-61" d="M 2588 409 
Q 2275 144 1986 34 
Q 1697 -75 1366 -75 
Q 819 -75 525 192 
Q 231 459 231 875 
Q 231 1119 342 1320 
Q 453 1522 633 1644 
Q 813 1766 1038 1828 
Q 1203 1872 1538 1913 
Q 2219 1994 2541 2106 
Q 2544 2222 2544 2253 
Q 2544 2597 2384 2738 
Q 2169 2928 1744 2928 
Q 1347 2928 1158 2789 
Q 969 2650 878 2297 
L 328 2372 
Q 403 2725 575 2942 
Q 747 3159 1072 3276 
Q 1397 3394 1825 3394 
Q 2250 3394 2515 3294 
Q 2781 3194 2906 3042 
Q 3031 2891 3081 2659 
Q 3109 2516 3109 2141 
L 3109 1391 
Q 3109 606 3145 398 
Q 3181 191 3288 0 
L 2700 0 
Q 2613 175 2588 409 
z
M 2541 1666 
Q 2234 1541 1622 1453 
Q 1275 1403 1131 1340 
Q 988 1278 909 1158 
Q 831 1038 831 891 
Q 831 666 1001 516 
Q 1172 366 1500 366 
Q 1825 366 2078 508 
Q 2331 650 2450 897 
Q 2541 1088 2541 1459 
L 2541 1666 
z
" transform="scale(0.015625)"/>
        <path id="ArialMT-69" d="M 425 3934 
L 425 4581 
L 988 4581 
L 988 3934 
L 425 3934 
z
M 425 0 
L 425 3319 
L 988 3319 
L 988 0 
L 425 0 
z
" transform="scale(0.015625)"/>
        <path id="ArialMT-6c" d="M 409 0 
L 409 4581 
L 972 4581 
L 972 0 
L 409 0 
z
" transform="scale(0.015625)"/>
        <path id="ArialMT-79" d="M 397 -1278 
L 334 -750 
Q 519 -800 656 -800 
Q 844 -800 956 -737 
Q 1069 -675 1141 -563 
Q 1194 -478 1313 -144 
Q 1328 -97 1363 -6 
L 103 3319 
L 709 3319 
L 1400 1397 
Q 1534 1031 1641 628 
Q 1738 1016 1872 1384 
L 2581 3319 
L 3144 3319 
L 1881 -56 
Q 1678 -603 1566 -809 
Q 1416 -1088 1222 -1217 
Q 1028 -1347 759 -1347 
Q 597 -1347 397 -1278 
z
" transform="scale(0.015625)"/>
       </defs>
       <use xlink:href="#ArialMT-44"/>
       <use xlink:href="#ArialMT-61" x="72.216797"/>
       <use xlink:href="#ArialMT-69" x="127.832031"/>
       <use xlink:href="#ArialMT-6c" x="150.048828"/>
       <use xlink:href="#ArialMT-79" x="172.265625"/>
      </g>
     </g>
    </g>
    <g id="xtick_5">
     <g id="line2d_9">
      <path d="M 62.74966 181.416412 
L 62.74966 10.8 
" clip-path="url(#pdfdba6677a)" style="fill: none; stroke: #cccccc; stroke-width: 0.8; stroke-linecap: round"/>
     </g>
     <g id="line2d_10"/>
     <g id="text_5">
      <!-- Weekly -->
      <g style="fill: #262626" transform="translate(38.204216 213.034955) rotate(-45) scale(0.1 -0.1)">
       <defs>
        <path id="ArialMT-57" d="M 1294 0 
L 78 4581 
L 700 4581 
L 1397 1578 
Q 1509 1106 1591 641 
Q 1766 1375 1797 1488 
L 2669 4581 
L 3400 4581 
L 4056 2263 
Q 4303 1400 4413 641 
Q 4500 1075 4641 1638 
L 5359 4581 
L 5969 4581 
L 4713 0 
L 4128 0 
L 3163 3491 
Q 3041 3928 3019 4028 
Q 2947 3713 2884 3491 
L 1913 0 
L 1294 0 
z
" transform="scale(0.015625)"/>
        <path id="ArialMT-65" d="M 2694 1069 
L 3275 997 
Q 3138 488 2766 206 
Q 2394 -75 1816 -75 
Q 1088 -75 661 373 
Q 234 822 234 1631 
Q 234 2469 665 2931 
Q 1097 3394 1784 3394 
Q 2450 3394 2872 2941 
Q 3294 2488 3294 1666 
Q 3294 1616 3291 1516 
L 816 1516 
Q 847 969 1125 678 
Q 1403 388 1819 388 
Q 2128 388 2347 550 
Q 2566 713 2694 1069 
z
M 847 1978 
L 2700 1978 
Q 2663 2397 2488 2606 
Q 2219 2931 1791 2931 
Q 1403 2931 1139 2672 
Q 875 2413 847 1978 
z
" transform="scale(0.015625)"/>
        <path id="ArialMT-6b" d="M 425 0 
L 425 4581 
L 988 4581 
L 988 1969 
L 2319 3319 
L 3047 3319 
L 1778 2088 
L 3175 0 
L 2481 0 
L 1384 1697 
L 988 1316 
L 988 0 
L 425 0 
z
" transform="scale(0.015625)"/>
       </defs>
       <use xlink:href="#ArialMT-57"/>
       <use xlink:href="#ArialMT-65" x="92.634766"/>
       <use xlink:href="#ArialMT-65" x="148.25"/>
       <use xlink:href="#ArialMT-6b" x="203.865234"/>
       <use xlink:href="#ArialMT-6c" x="253.865234"/>
       <use xlink:href="#ArialMT-79" x="276.082031"/>
      </g>
     </g>
    </g>
   </g>
   <g id="matplotlib.axis_2">
    <g id="ytick_1">
     <g id="line2d_11"/>
     <g id="text_6">
      <!-- 0 -->
      <g style="fill: #262626" transform="translate(36.059063 177.240745) scale(0.1 -0.1)">
       <defs>
        <path id="ArialMT-30" d="M 266 2259 
Q 266 3072 433 3567 
Q 600 4063 929 4331 
Q 1259 4600 1759 4600 
Q 2128 4600 2406 4451 
Q 2684 4303 2865 4023 
Q 3047 3744 3150 3342 
Q 3253 2941 3253 2259 
Q 3253 1453 3087 958 
Q 2922 463 2592 192 
Q 2263 -78 1759 -78 
Q 1097 -78 719 397 
Q 266 969 266 2259 
z
M 844 2259 
Q 844 1131 1108 757 
Q 1372 384 1759 384 
Q 2147 384 2411 759 
Q 2675 1134 2675 2259 
Q 2675 3391 2411 3762 
Q 2147 4134 1753 4134 
Q 1366 4134 1134 3806 
Q 844 3388 844 2259 
z
" transform="scale(0.015625)"/>
       </defs>
       <use xlink:href="#ArialMT-30"/>
      </g>
     </g>
    </g>
    <g id="ytick_2">
     <g id="line2d_12"/>
     <g id="text_7">
      <!-- 200 -->
      <g style="fill: #262626" transform="translate(24.937188 143.632829) scale(0.1 -0.1)">
       <use xlink:href="#ArialMT-32"/>
       <use xlink:href="#ArialMT-30" x="55.615234"/>
       <use xlink:href="#ArialMT-30" x="111.230469"/>
      </g>
     </g>
    </g>
    <g id="ytick_3">
     <g id="line2d_13"/>
     <g id="text_8">
      <!-- 400 -->
      <g style="fill: #262626" transform="translate(24.937188 110.024912) scale(0.1 -0.1)">
       <defs>
        <path id="ArialMT-34" d="M 2069 0 
L 2069 1097 
L 81 1097 
L 81 1613 
L 2172 4581 
L 2631 4581 
L 2631 1613 
L 3250 1613 
L 3250 1097 
L 2631 1097 
L 2631 0 
L 2069 0 
z
M 2069 1613 
L 2069 3678 
L 634 1613 
L 2069 1613 
z
" transform="scale(0.015625)"/>
       </defs>
       <use xlink:href="#ArialMT-34"/>
       <use xlink:href="#ArialMT-30" x="55.615234"/>
       <use xlink:href="#ArialMT-30" x="111.230469"/>
      </g>
     </g>
    </g>
    <g id="ytick_4">
     <g id="line2d_14"/>
     <g id="text_9">
      <!-- 600 -->
      <g style="fill: #262626" transform="translate(24.937188 76.416996) scale(0.1 -0.1)">
       <use xlink:href="#ArialMT-36"/>
       <use xlink:href="#ArialMT-30" x="55.615234"/>
       <use xlink:href="#ArialMT-30" x="111.230469"/>
      </g>
     </g>
    </g>
    <g id="ytick_5">
     <g id="line2d_15"/>
     <g id="text_10">
      <!-- 800 -->
      <g style="fill: #262626" transform="translate(24.937188 42.80908) scale(0.1 -0.1)">
       <use xlink:href="#ArialMT-38"/>
       <use xlink:href="#ArialMT-30" x="55.615234"/>
       <use xlink:href="#ArialMT-30" x="111.230469"/>
      </g>
     </g>
    </g>
    <g id="text_11">
     <!-- GW -->
     <g style="fill: #262626" transform="translate(18.949688 104.7168) rotate(-90) scale(0.1 -0.1)">
      <defs>
       <path id="ArialMT-47" d="M 2638 1797 
L 2638 2334 
L 4578 2338 
L 4578 638 
Q 4131 281 3656 101 
Q 3181 -78 2681 -78 
Q 2006 -78 1454 211 
Q 903 500 622 1047 
Q 341 1594 341 2269 
Q 341 2938 620 3517 
Q 900 4097 1425 4378 
Q 1950 4659 2634 4659 
Q 3131 4659 3532 4498 
Q 3934 4338 4162 4050 
Q 4391 3763 4509 3300 
L 3963 3150 
Q 3859 3500 3706 3700 
Q 3553 3900 3268 4020 
Q 2984 4141 2638 4141 
Q 2222 4141 1919 4014 
Q 1616 3888 1430 3681 
Q 1244 3475 1141 3228 
Q 966 2803 966 2306 
Q 966 1694 1177 1281 
Q 1388 869 1791 669 
Q 2194 469 2647 469 
Q 3041 469 3416 620 
Q 3791 772 3984 944 
L 3984 1797 
L 2638 1797 
z
" transform="scale(0.015625)"/>
      </defs>
      <use xlink:href="#ArialMT-47"/>
      <use xlink:href="#ArialMT-57" x="77.783203"/>
     </g>
    </g>
   </g>
   <g id="line2d_16">
    <path d="M 56.171429 18.555291 
L 56.297586 152.608689 
L 56.549902 164.713464 
L 56.802218 169.521572 
L 56.928376 159.542815 
L 57.054534 167.047418 
L 57.180691 166.031911 
L 57.306849 167.917669 
L 57.433007 166.98803 
L 57.685323 170.393488 
L 57.811481 169.769171 
L 57.937639 169.342212 
L 58.063796 172.916252 
L 58.189954 172.208186 
L 58.44227 168.750183 
L 58.568428 169.359438 
L 58.694586 168.500958 
L 58.820744 168.82501 
L 58.946902 173.180153 
L 59.073059 171.073131 
L 59.199217 165.204427 
L 59.325375 165.102397 
L 59.451533 172.812568 
L 59.577691 170.023541 
L 59.703849 172.524054 
L 59.830007 170.115581 
L 59.956164 170.977333 
L 60.082322 166.305212 
L 60.20848 172.29396 
L 60.460796 169.285137 
L 60.586954 170.501249 
L 60.713112 167.273539 
L 60.839269 171.786362 
L 60.965427 171.437798 
L 61.091585 170.631878 
L 61.217743 168.508762 
L 61.343901 172.661291 
L 61.470059 172.84126 
L 61.596217 172.449745 
L 61.722374 167.726171 
L 61.848532 168.290086 
L 61.97469 170.54034 
L 62.100848 169.302992 
L 62.353164 172.463102 
L 62.479322 167.026562 
L 62.605479 169.284525 
L 62.731637 168.57463 
L 62.857795 169.881411 
L 62.983953 172.858186 
L 63.110111 172.15721 
L 63.236269 166.29462 
L 63.362427 172.435592 
L 63.488584 170.403551 
L 63.7409 172.428735 
L 63.867058 170.384766 
L 63.993216 173.171257 
L 64.119374 170.03559 
L 64.245532 173.252024 
L 64.371689 172.20656 
L 64.497847 170.137916 
L 64.624005 173.14213 
L 64.750163 169.919422 
L 64.876321 172.2016 
L 65.002479 171.670937 
L 65.128637 171.730503 
L 65.254795 169.975645 
L 65.50711 171.087498 
L 65.633268 169.768231 
L 65.885584 171.871545 
L 66.011742 170.496757 
L 66.1379 171.978637 
L 66.264057 171.830692 
L 66.390215 168.262575 
L 66.642531 172.066634 
L 66.768689 170.782789 
L 66.894847 172.49023 
L 67.27332 168.882352 
L 67.399478 171.619025 
L 67.651794 169.84225 
L 67.777952 171.707494 
L 67.90411 169.321288 
L 68.156425 171.582889 
L 68.282583 170.514249 
L 68.408741 173.44223 
L 68.661057 172.070996 
L 68.787215 172.145271 
L 69.03953 170.252504 
L 69.165688 172.805874 
L 69.291846 173.086806 
L 69.418004 172.20595 
L 69.544162 172.797901 
L 69.796477 171.581066 
L 69.922635 172.621998 
L 70.048793 171.787143 
L 70.174951 173.19073 
L 70.301109 172.923283 
L 70.427267 173.471961 
L 70.80574 171.707548 
L 71.058056 172.711236 
L 71.184214 172.131528 
L 71.43653 169.967291 
L 71.562688 172.272419 
L 71.688845 171.609071 
L 71.815003 169.873386 
L 72.067319 172.175066 
L 72.193477 173.418378 
L 72.319635 172.29987 
L 72.445793 172.870917 
L 72.698108 171.873846 
L 72.824266 173.116592 
L 72.950424 172.051443 
L 73.076582 172.050962 
L 73.455055 172.66045 
L 73.581213 173.097406 
L 73.707371 172.883328 
L 73.833529 171.998487 
L 73.959687 172.816708 
L 74.33816 171.079057 
L 74.464318 173.142826 
L 74.590476 171.64359 
L 74.716634 172.806949 
L 74.96895 172.208857 
L 75.095108 172.614692 
L 75.221265 172.293746 
L 75.347423 173.312354 
L 75.473581 172.305819 
L 75.852055 172.952972 
L 75.978213 172.929139 
L 76.104371 173.022254 
L 76.356686 172.380683 
L 76.482844 172.463951 
L 76.609002 172.954851 
L 76.861318 172.297111 
L 76.987476 172.879521 
L 77.113633 172.522772 
L 77.239791 173.003405 
L 77.365949 171.960641 
L 77.492107 172.82905 
L 77.618265 172.825947 
L 77.870581 172.618101 
L 77.996738 172.802597 
L 78.122896 172.528867 
L 78.249054 172.568588 
L 78.375212 172.799944 
L 78.627528 172.196483 
L 78.753686 172.775107 
L 79.132159 172.807972 
L 79.258317 172.070204 
L 79.384475 172.248284 
L 79.636791 173.233964 
L 80.015264 172.861782 
L 80.141422 171.685033 
L 80.393738 172.993482 
L 80.519896 173.038966 
L 80.646053 173.334341 
L 80.772211 173.184357 
L 80.898369 171.607321 
L 81.276843 173.402921 
L 81.403001 173.266405 
L 81.655316 172.283746 
L 81.781474 172.59281 
L 81.907632 172.508239 
L 82.03379 172.691039 
L 82.159948 173.375379 
L 82.286106 172.52008 
L 82.538421 173.063986 
L 82.664579 172.653194 
L 82.790737 173.230783 
L 82.916895 173.030942 
L 83.043053 173.361139 
L 83.169211 173.141426 
L 83.421526 172.093242 
L 83.547684 173.432125 
L 83.8 172.779569 
L 83.926158 173.219779 
L 84.052316 172.903608 
L 84.304631 173.006257 
L 84.430789 172.606957 
L 84.556947 172.748233 
L 84.683105 173.126954 
L 84.809263 172.609632 
L 85.187736 173.167551 
L 85.313894 172.459001 
L 85.56621 173.14173 
L 85.692368 173.014827 
L 85.818526 173.336829 
L 85.944684 172.970754 
L 86.070841 173.500285 
L 86.323157 173.070319 
L 86.449315 173.56284 
L 86.827789 173.343481 
L 86.953947 173.43199 
L 87.080104 173.037678 
L 87.206262 173.072753 
L 87.33242 173.389239 
L 87.458578 173.000468 
L 87.710894 173.540757 
L 87.837052 173.177937 
L 87.963209 173.180136 
L 88.089367 172.994885 
L 88.215525 173.037806 
L 88.341683 173.24639 
L 88.593999 173.099247 
L 88.720157 173.124015 
L 89.09863 172.810124 
L 89.224788 173.503015 
L 89.350946 173.417292 
L 89.477104 173.049352 
L 89.603262 173.29129 
L 89.729419 172.582723 
L 89.855577 173.137115 
L 89.981735 173.006847 
L 90.107893 173.52938 
L 90.234051 172.896646 
L 90.360209 173.401876 
L 90.486367 173.212006 
L 90.612524 173.458329 
L 90.738682 173.341692 
L 90.990998 172.956661 
L 91.117156 172.857235 
L 91.243314 173.19561 
L 91.495629 173.151958 
L 91.874103 173.354134 
L 92.000261 172.255471 
L 92.252577 173.376236 
L 92.504892 173.105135 
L 92.63105 173.558206 
L 92.757208 172.919856 
L 92.883366 173.420492 
L 93.135682 173.342925 
L 93.26184 172.819272 
L 93.892629 173.537459 
L 94.018787 172.854257 
L 94.271102 173.266315 
L 94.39726 173.347225 
L 94.523418 172.977508 
L 94.775734 173.332185 
L 95.02805 172.830318 
L 95.154207 172.738736 
L 95.280365 173.598969 
L 95.658839 173.3373 
L 95.784997 173.09524 
L 95.911155 173.416357 
L 96.16347 172.857561 
L 96.289628 172.380806 
L 96.541944 173.077724 
L 96.668102 173.050114 
L 96.79426 172.804822 
L 97.046575 173.473032 
L 97.172733 173.189224 
L 97.298891 173.31971 
L 97.425049 172.959588 
L 97.551207 173.004037 
L 97.677365 173.238927 
L 97.803523 172.541497 
L 97.92968 172.725929 
L 98.055838 173.203972 
L 98.181996 173.100328 
L 98.308154 173.371512 
L 98.434312 172.652958 
L 98.56047 173.485118 
L 98.812785 173.416751 
L 99.065101 172.232269 
L 99.443575 173.36442 
L 99.569733 173.253803 
L 99.69589 172.838466 
L 99.822048 173.488641 
L 100.074364 172.405599 
L 100.452838 172.944819 
L 100.578995 173.534672 
L 100.705153 173.554523 
L 100.831311 173.204778 
L 100.957469 173.290964 
L 101.083627 173.097961 
L 101.209785 173.283728 
L 101.335943 173.159116 
L 101.4621 171.602246 
L 101.588258 172.678352 
L 101.714416 172.62357 
L 101.966732 172.283434 
L 102.09289 172.729443 
L 102.219048 168.318527 
L 102.597521 172.77295 
L 102.723679 172.939792 
L 102.849837 173.465273 
L 102.975995 171.743554 
L 103.228311 173.066744 
L 103.354468 173.047392 
L 103.480626 173.400592 
L 103.606784 173.213624 
L 103.732942 173.335014 
L 103.8591 172.931645 
L 103.985258 173.05239 
L 104.237573 172.409665 
L 104.363731 172.53977 
L 104.616047 173.063202 
L 104.742205 173.021323 
L 104.868363 173.169459 
L 105.120678 172.809431 
L 105.372994 173.149608 
L 105.499152 172.947716 
L 105.62531 173.351529 
L 105.751468 172.954151 
L 105.877626 172.187628 
L 106.256099 173.242416 
L 106.382257 173.380739 
L 106.634573 172.889609 
L 106.760731 173.540991 
L 106.886888 172.985749 
L 107.013046 173.488837 
L 107.139204 173.137464 
L 107.265362 172.453803 
L 107.39152 173.287104 
L 107.517678 173.043794 
L 107.643836 173.423638 
L 107.769993 173.083275 
L 107.896151 173.467695 
L 108.022309 172.572604 
L 108.274625 173.18099 
L 108.400783 173.370305 
L 108.526941 173.275222 
L 108.653098 173.548438 
L 108.779256 173.273624 
L 108.905414 173.586743 
L 109.031572 173.530343 
L 109.15773 172.815535 
L 109.283888 173.18586 
L 109.536204 172.510646 
L 109.788519 173.542879 
L 110.040835 172.980172 
L 110.166993 173.355226 
L 110.293151 173.146095 
L 110.419309 172.678456 
L 110.671624 173.266375 
L 110.797782 172.793343 
L 111.050098 173.220319 
L 111.176256 173.48709 
L 111.428571 173.251172 
L 111.554729 173.442069 
L 111.680887 173.351726 
L 111.807045 172.970203 
L 112.059361 173.40883 
L 112.311676 173.342437 
L 112.563992 173.024226 
L 112.816308 173.572656 
L 112.942466 173.047233 
L 113.447097 173.531678 
L 113.573255 172.947834 
L 113.699413 173.252533 
L 113.825571 173.182899 
L 114.077886 173.443629 
L 114.45636 173.294555 
L 114.582518 173.586654 
L 114.708676 173.171143 
L 114.960992 173.345367 
L 115.339465 173.327224 
L 115.465623 173.221836 
L 115.591781 172.90788 
L 115.717939 173.584858 
L 115.970254 173.002747 
L 116.096412 173.435067 
L 116.22257 173.369687 
L 116.727202 173.529037 
L 116.853359 173.27467 
L 116.979517 173.284248 
L 117.105675 173.492187 
L 117.231833 173.470585 
L 117.357991 173.319484 
L 117.484149 173.370709 
L 117.610307 173.631195 
L 117.862622 173.295017 
L 117.98878 173.322985 
L 118.114938 173.59139 
L 118.493412 173.364871 
L 118.745727 173.399952 
L 118.871885 173.374986 
L 118.998043 173.508225 
L 119.250359 173.37713 
L 119.376517 173.600533 
L 119.502674 173.271302 
L 119.75499 173.426908 
L 119.881148 173.562702 
L 120.259622 173.121775 
L 120.38578 173.631684 
L 120.638095 173.321217 
L 120.764253 173.612321 
L 120.890411 173.361858 
L 121.142727 173.514831 
L 121.268885 173.226192 
L 121.395042 173.389247 
L 121.5212 173.266865 
L 122.025832 173.534805 
L 122.278147 173.378522 
L 122.404305 173.528952 
L 122.530463 173.454615 
L 122.656621 173.240002 
L 122.782779 173.569302 
L 123.035095 173.396269 
L 123.161252 173.558505 
L 123.413568 173.386216 
L 123.539726 173.430427 
L 123.665884 173.205161 
L 123.792042 173.527825 
L 124.044357 173.419858 
L 124.422831 173.521856 
L 124.548989 173.584703 
L 124.675147 173.321405 
L 124.927462 173.37499 
L 125.810568 173.527634 
L 126.189041 173.380335 
L 126.567515 173.567601 
L 127.072146 173.428695 
L 127.198304 173.582085 
L 127.45062 173.359714 
L 127.576778 173.344163 
L 127.702935 173.604632 
L 127.829093 173.464625 
L 127.955251 173.576361 
L 128.58604 173.243613 
L 128.712198 173.476938 
L 129.21683 173.400069 
L 129.342988 173.217702 
L 129.469145 173.570416 
L 129.595303 173.492124 
L 129.721461 173.59616 
L 129.973777 173.370104 
L 130.099935 173.580283 
L 130.478408 173.324233 
L 130.604566 173.548496 
L 130.856882 173.353713 
L 131.109198 173.487195 
L 131.235356 173.53147 
L 131.487671 173.449611 
L 131.613829 173.444786 
L 131.739987 173.592645 
L 131.866145 173.420864 
L 132.244618 173.554734 
L 132.370776 173.392632 
L 132.496934 173.544156 
L 132.74925 173.330892 
L 132.875408 173.451607 
L 133.001566 173.372523 
L 133.253881 173.559439 
L 133.632355 173.500501 
L 133.884671 173.530478 
L 134.010828 173.366271 
L 134.136986 173.462666 
L 134.263144 173.385275 
L 134.389302 173.60695 
L 134.51546 173.304125 
L 134.641618 173.602724 
L 134.893933 173.415553 
L 135.020091 173.567759 
L 135.272407 173.392323 
L 135.650881 173.546168 
L 135.777038 173.521165 
L 135.903196 173.63338 
L 136.029354 173.359745 
L 136.155512 173.613758 
L 136.407828 173.485843 
L 136.660144 173.578789 
L 136.786301 173.386272 
L 136.912459 173.426969 
L 137.038617 173.23146 
L 137.164775 173.428992 
L 137.417091 173.040738 
L 137.669406 173.554407 
L 137.795564 173.407138 
L 137.921722 173.566049 
L 138.174038 173.296683 
L 138.552511 173.53373 
L 138.678669 173.580931 
L 138.804827 173.481828 
L 139.057143 173.631059 
L 139.309459 173.211287 
L 139.561774 173.478934 
L 139.81409 173.593622 
L 139.940248 173.282804 
L 140.192564 173.532299 
L 140.318721 173.582559 
L 140.444879 173.396032 
L 140.571037 173.448466 
L 140.949511 173.264184 
L 141.075669 173.527967 
L 141.201826 173.528965 
L 141.327984 173.285559 
L 142.084932 173.537494 
L 142.211089 173.319963 
L 142.337247 173.593321 
L 142.589563 173.381829 
L 143.094194 173.598534 
L 143.220352 173.281296 
L 143.34651 173.579895 
L 143.851142 173.297994 
L 144.103457 173.59604 
L 144.355773 173.056433 
L 144.481931 173.210821 
L 144.608089 172.989371 
L 145.11272 173.297705 
L 145.238878 173.088527 
L 145.365036 173.404373 
L 145.491194 173.303693 
L 145.617352 173.426823 
L 145.743509 173.191649 
L 145.869667 173.594076 
L 146.121983 173.254778 
L 146.374299 173.277385 
L 146.500457 173.45809 
L 146.752772 173.106852 
L 146.87893 173.492112 
L 147.131246 172.886558 
L 147.257404 173.322177 
L 147.383562 173.190903 
L 147.50972 172.892873 
L 147.762035 173.316777 
L 147.888193 172.947999 
L 148.014351 173.25341 
L 148.266667 169.676579 
L 148.518982 173.477918 
L 148.64514 172.946127 
L 148.771298 173.356178 
L 149.023614 172.636826 
L 149.149772 173.433087 
L 149.402087 173.109765 
L 149.528245 173.469117 
L 149.906719 173.182122 
L 150.032877 173.460636 
L 150.159035 173.216914 
L 150.285192 173.329441 
L 150.41135 173.194698 
L 150.663666 173.377131 
L 150.789824 173.235729 
L 150.915982 173.388204 
L 151.168297 173.259989 
L 151.294455 173.532578 
L 151.420613 173.022428 
L 151.546771 173.325208 
L 151.672929 173.024125 
L 151.799087 173.404895 
L 151.925245 173.205418 
L 152.051402 173.243757 
L 152.17756 173.484448 
L 152.303718 173.239931 
L 152.556034 173.304626 
L 152.682192 173.09978 
L 152.80835 173.352625 
L 152.934508 173.346099 
L 153.060665 173.469378 
L 153.186823 173.277692 
L 153.691455 173.599798 
L 153.817613 173.561612 
L 154.069928 173.250354 
L 154.196086 173.227562 
L 154.322244 173.49513 
L 154.448402 173.306018 
L 154.700718 173.312436 
L 154.826875 173.552366 
L 154.953033 173.414209 
L 155.079191 173.647678 
L 155.331507 173.20424 
L 155.583823 173.558869 
L 155.836138 173.547976 
L 155.962296 173.234554 
L 156.214612 173.499626 
L 156.34077 173.32235 
L 156.466928 173.481543 
L 156.593085 173.444469 
L 156.719243 173.581188 
L 156.845401 173.264893 
L 157.097717 173.502857 
L 157.223875 173.388654 
L 157.350033 173.606444 
L 157.47619 173.515853 
L 157.602348 173.62015 
L 157.980822 173.440771 
L 158.233138 173.422243 
L 158.359295 173.26646 
L 158.863927 173.582972 
L 158.990085 173.498399 
L 159.116243 173.144679 
L 159.242401 173.452662 
L 159.494716 173.405939 
L 159.620874 173.442707 
L 159.747032 173.359296 
L 159.999348 173.609202 
L 160.251663 173.444954 
L 160.630137 173.549253 
L 160.882453 173.364839 
L 161.260926 173.538962 
L 161.387084 173.375789 
L 161.513242 173.472705 
L 161.6394 173.273411 
L 161.891716 173.637312 
L 162.017873 173.348457 
L 162.144031 173.557536 
L 162.522505 173.448354 
L 162.648663 173.610376 
L 163.027136 173.451607 
L 163.279452 173.540144 
L 163.40561 173.47318 
L 163.531768 173.584241 
L 163.657926 173.449599 
L 163.910241 173.540837 
L 164.036399 173.412592 
L 164.541031 173.586128 
L 164.919504 173.362148 
L 165.045662 173.508459 
L 165.17182 173.333239 
L 165.424136 173.506865 
L 165.550294 173.46685 
L 165.676451 173.625074 
L 165.928767 173.412544 
L 166.181083 173.553186 
L 166.307241 173.41746 
L 166.685714 173.616069 
L 166.93803 173.584072 
L 167.316504 173.54579 
L 167.694977 173.540858 
L 167.947293 173.611044 
L 168.073451 173.485092 
L 168.451924 173.55641 
L 168.70424 173.381159 
L 168.830398 173.565801 
L 169.208871 173.528077 
L 169.335029 173.587031 
L 169.461187 173.498683 
L 169.587345 173.597327 
L 169.713503 173.406114 
L 170.091977 173.561118 
L 170.47045 173.614216 
L 170.722766 173.554245 
L 170.975082 173.506887 
L 171.227397 173.583098 
L 171.353555 173.505843 
L 171.479713 173.615945 
L 171.605871 173.518058 
L 172.110502 173.607436 
L 172.488976 173.630767 
L 172.867449 173.426389 
L 173.119765 173.623691 
L 173.245923 173.448015 
L 173.498239 173.637818 
L 173.750554 173.517213 
L 174.00287 173.618353 
L 174.129028 173.532323 
L 174.381344 173.591696 
L 174.507502 173.510502 
L 174.759817 173.565721 
L 174.885975 173.49767 
L 175.138291 173.650516 
L 175.516765 173.518812 
L 175.642922 173.62308 
L 176.021396 173.60033 
L 176.39987 173.623021 
L 176.526027 173.522282 
L 176.652185 173.593551 
L 176.904501 173.488354 
L 177.409132 173.632234 
L 177.53529 173.470172 
L 177.787606 173.585426 
L 178.544553 173.589279 
L 178.796869 173.529326 
L 179.049185 173.635107 
L 179.3015 173.511722 
L 179.553816 173.58428 
L 186.114025 173.576812 
L 186.366341 173.614771 
L 187.627919 173.549669 
L 187.754077 173.577847 
L 187.880235 173.418921 
L 188.258708 173.536386 
L 188.384866 173.314939 
L 188.511024 173.504862 
L 188.637182 173.401637 
L 189.267971 173.596162 
L 189.394129 173.518486 
L 189.520287 173.608641 
L 189.772603 173.538325 
L 190.403392 173.422369 
L 190.655708 173.458523 
L 190.908023 173.334234 
L 191.160339 173.424291 
L 191.412655 173.36307 
L 191.791129 173.349745 
L 192.043444 173.453212 
L 192.674234 173.471448 
L 193.052707 173.480961 
L 193.178865 173.375985 
L 193.431181 173.53495 
L 193.557339 173.547804 
L 193.683496 173.261013 
L 193.809654 173.51203 
L 194.06197 173.062403 
L 194.188128 173.463781 
L 194.314286 172.024383 
L 194.440444 173.199406 
L 194.566601 172.957625 
L 194.818917 173.483044 
L 194.945075 173.275252 
L 195.197391 173.476232 
L 195.323549 173.52498 
L 195.449706 173.344464 
L 196.080496 173.614534 
L 196.332811 173.501361 
L 196.585127 173.553107 
L 196.711285 173.39976 
L 196.837443 173.54534 
L 197.089759 173.379092 
L 197.215917 173.462147 
L 197.468232 173.372711 
L 197.59439 173.338268 
L 197.972864 173.513183 
L 198.351337 173.38499 
L 198.729811 173.45917 
L 198.982127 173.481057 
L 199.108284 173.617559 
L 199.234442 173.431668 
L 199.486758 173.574555 
L 199.612916 173.565364 
L 199.739074 173.443289 
L 199.991389 173.562257 
L 200.243705 173.524497 
L 200.369863 173.440355 
L 200.622179 173.543647 
L 200.874494 173.60307 
L 201.379126 173.503305 
L 201.505284 173.577013 
L 201.757599 173.471455 
L 201.883757 173.632575 
L 202.136073 173.560245 
L 202.262231 173.488606 
L 202.388389 173.629286 
L 202.514547 173.505455 
L 202.766862 173.645092 
L 203.019178 173.550464 
L 203.145336 173.604197 
L 203.397652 173.566302 
L 203.902283 173.569486 
L 204.406915 173.47897 
L 204.533072 173.620268 
L 204.65923 173.53639 
L 204.785388 173.619415 
L 204.911546 173.54494 
L 205.163862 173.566517 
L 205.416177 173.565414 
L 206.173125 173.580766 
L 207.05623 173.535647 
L 207.308545 173.557735 
L 207.687019 173.597765 
L 207.813177 173.52136 
L 208.065492 173.603812 
L 208.570124 173.587362 
L 208.82244 173.591625 
L 210.58865 173.553672 
L 210.714808 173.647226 
L 210.967123 173.555474 
L 211.72407 173.613459 
L 219.293542 173.542935 
L 219.4197 173.653682 
L 219.798174 173.596984 
L 220.933594 173.588125 
L 221.438226 173.595267 
L 223.456751 173.595077 
L 224.087541 173.636822 
L 224.339856 173.521462 
L 224.592172 173.579773 
L 224.970646 173.536865 
L 225.349119 173.625251 
L 233.297065 173.48897 
L 233.423222 173.452318 
L 233.675538 173.559402 
L 234.306327 173.648596 
L 234.558643 173.56275 
L 235.567906 173.606409 
L 235.694064 173.470713 
L 235.94638 173.602916 
L 236.198695 173.586038 
L 236.324853 173.619335 
L 236.577169 173.551183 
L 236.955643 173.553199 
L 237.0818 173.631939 
L 237.334116 173.534122 
L 237.586432 173.59498 
L 237.71259 173.655374 
L 237.964905 173.543695 
L 238.217221 173.587245 
L 239.983431 173.403196 
L 240.109589 173.236676 
L 240.235747 172.494377 
L 240.361905 172.957002 
L 240.488063 172.983741 
L 240.61422 173.312769 
L 240.740378 173.322776 
L 240.866536 173.550045 
L 241.118852 173.493242 
L 241.24501 173.58557 
L 241.371168 173.498183 
L 241.875799 173.58662 
L 242.632746 173.532309 
L 246.291324 173.618461 
L 246.417482 173.504449 
L 246.795956 173.622716 
L 247.426745 173.564824 
L 249.949902 173.588683 
L 250.328376 173.502967 
L 250.833007 173.576173 
L 251.085323 173.542625 
L 251.211481 173.622423 
L 251.589954 173.562188 
L 251.716112 173.632406 
L 251.968428 173.582604 
L 252.220744 173.614763 
L 255.248532 173.620916 
L 255.627006 173.57336 
L 256.257795 173.605865 
L 259.285584 173.558195 
L 259.916373 173.651423 
L 260.67332 173.606524 
L 261.30411 173.607199 
L 263.322635 173.64163 
L 263.574951 173.585512 
L 263.827267 173.596608 
L 264.962688 173.610258 
L 267.612003 173.61692 
L 267.990476 173.6514 
L 268.242792 173.588931 
L 268.747423 173.651695 
L 269.252055 173.578917 
L 269.882844 173.624504 
L 273.036791 173.60291 
L 273.919896 173.63326 
L 274.424527 173.617881 
L 275.055316 173.633904 
L 275.43379 173.572793 
L 275.812264 173.637421 
L 276.064579 173.586734 
L 276.695369 173.645444 
L 276.947684 173.620002 
L 277.326158 173.653241 
L 277.326158 173.653241 
" clip-path="url(#pdfdba6677a)" style="fill: none; stroke: #ffd92f; stroke-linecap: round"/>
   </g>
   <g id="patch_3">
    <path d="M 45.12 181.416412 
L 45.12 10.8 
" style="fill: none; stroke: #cccccc; stroke-linejoin: miter; stroke-linecap: square"/>
   </g>
   <g id="patch_4">
    <path d="M 277.2 181.416412 
L 277.2 10.8 
" style="fill: none; stroke: #cccccc; stroke-linejoin: miter; stroke-linecap: square"/>
   </g>
   <g id="patch_5">
    <path d="M 45.12 181.416412 
L 277.2 181.416412 
" style="fill: none; stroke: #cccccc; stroke-linejoin: miter; stroke-linecap: square"/>
   </g>
   <g id="patch_6">
    <path d="M 45.12 10.8 
L 277.2 10.8 
" style="fill: none; stroke: #cccccc; stroke-linejoin: miter; stroke-linecap: square"/>
   </g>
  </g>
 </g>
 <defs>
  <clipPath id="pdfdba6677a">
   <rect x="45.12" y="10.8" width="232.08" height="170.616412"/>
  </clipPath>
 </defs>
</svg>
