<?xml version="1.0" encoding="utf-8" standalone="no"?>
<!DOCTYPE svg PUBLIC "-//W3C//DTD SVG 1.1//EN"
  "http://www.w3.org/Graphics/SVG/1.1/DTD/svg11.dtd">
<svg xmlns:xlink="http://www.w3.org/1999/xlink" width="288pt" height="230.4pt" viewBox="0 0 288 230.4" xmlns="http://www.w3.org/2000/svg" version="1.1">
 <metadata>
  <rdf:RDF xmlns:dc="http://purl.org/dc/elements/1.1/" xmlns:cc="http://creativecommons.org/ns#" xmlns:rdf="http://www.w3.org/1999/02/22-rdf-syntax-ns#">
   <cc:Work>
    <dc:type rdf:resource="http://purl.org/dc/dcmitype/StillImage"/>
    <dc:date>2024-07-21T17:28:17.541050</dc:date>
    <dc:format>image/svg+xml</dc:format>
    <dc:creator>
     <cc:Agent>
      <dc:title>Matplotlib v3.9.0, https://matplotlib.org/</dc:title>
     </cc:Agent>
    </dc:creator>
   </cc:Work>
  </rdf:RDF>
 </metadata>
 <defs>
  <style type="text/css">*{stroke-linejoin: round; stroke-linecap: butt}</style>
 </defs>
 <g id="figure_1">
  <g id="patch_1">
   <path d="M 0 230.4 
L 288 230.4 
L 288 0 
L 0 0 
z
" style="fill: #ffffff"/>
  </g>
  <g id="axes_1">
   <g id="patch_2">
    <path d="M 45.12 181.416412 
L 277.2 181.416412 
L 277.2 10.8 
L 45.12 10.8 
z
" style="fill: #ffffff"/>
   </g>
   <g id="matplotlib.axis_1">
    <g id="xtick_1">
     <g id="line2d_1">
      <path d="M 240.361905 181.416412 
L 240.361905 10.8 
" clip-path="url(#p2cefcc4a3c)" style="fill: none; stroke: #cccccc; stroke-width: 0.8; stroke-linecap: round"/>
     </g>
     <g id="line2d_2"/>
     <g id="text_1">
      <!-- 6 hours -->
      <g style="fill: #262626" transform="translate(215.373414 213.560866) rotate(-45) scale(0.1 -0.1)">
       <defs>
        <path id="ArialMT-36" d="M 3184 3459 
L 2625 3416 
Q 2550 3747 2413 3897 
Q 2184 4138 1850 4138 
Q 1581 4138 1378 3988 
Q 1113 3794 959 3422 
Q 806 3050 800 2363 
Q 1003 2672 1297 2822 
Q 1591 2972 1913 2972 
Q 2475 2972 2870 2558 
Q 3266 2144 3266 1488 
Q 3266 1056 3080 686 
Q 2894 316 2569 119 
Q 2244 -78 1831 -78 
Q 1128 -78 684 439 
Q 241 956 241 2144 
Q 241 3472 731 4075 
Q 1159 4600 1884 4600 
Q 2425 4600 2770 4297 
Q 3116 3994 3184 3459 
z
M 888 1484 
Q 888 1194 1011 928 
Q 1134 663 1356 523 
Q 1578 384 1822 384 
Q 2178 384 2434 671 
Q 2691 959 2691 1453 
Q 2691 1928 2437 2201 
Q 2184 2475 1800 2475 
Q 1419 2475 1153 2201 
Q 888 1928 888 1484 
z
" transform="scale(0.015625)"/>
        <path id="ArialMT-20" transform="scale(0.015625)"/>
        <path id="ArialMT-68" d="M 422 0 
L 422 4581 
L 984 4581 
L 984 2938 
Q 1378 3394 1978 3394 
Q 2347 3394 2619 3248 
Q 2891 3103 3008 2847 
Q 3125 2591 3125 2103 
L 3125 0 
L 2563 0 
L 2563 2103 
Q 2563 2525 2380 2717 
Q 2197 2909 1863 2909 
Q 1613 2909 1392 2779 
Q 1172 2650 1078 2428 
Q 984 2206 984 1816 
L 984 0 
L 422 0 
z
" transform="scale(0.015625)"/>
        <path id="ArialMT-6f" d="M 213 1659 
Q 213 2581 725 3025 
Q 1153 3394 1769 3394 
Q 2453 3394 2887 2945 
Q 3322 2497 3322 1706 
Q 3322 1066 3130 698 
Q 2938 331 2570 128 
Q 2203 -75 1769 -75 
Q 1072 -75 642 372 
Q 213 819 213 1659 
z
M 791 1659 
Q 791 1022 1069 705 
Q 1347 388 1769 388 
Q 2188 388 2466 706 
Q 2744 1025 2744 1678 
Q 2744 2294 2464 2611 
Q 2184 2928 1769 2928 
Q 1347 2928 1069 2612 
Q 791 2297 791 1659 
z
" transform="scale(0.015625)"/>
        <path id="ArialMT-75" d="M 2597 0 
L 2597 488 
Q 2209 -75 1544 -75 
Q 1250 -75 995 37 
Q 741 150 617 320 
Q 494 491 444 738 
Q 409 903 409 1263 
L 409 3319 
L 972 3319 
L 972 1478 
Q 972 1038 1006 884 
Q 1059 663 1231 536 
Q 1403 409 1656 409 
Q 1909 409 2131 539 
Q 2353 669 2445 892 
Q 2538 1116 2538 1541 
L 2538 3319 
L 3100 3319 
L 3100 0 
L 2597 0 
z
" transform="scale(0.015625)"/>
        <path id="ArialMT-72" d="M 416 0 
L 416 3319 
L 922 3319 
L 922 2816 
Q 1116 3169 1280 3281 
Q 1444 3394 1641 3394 
Q 1925 3394 2219 3213 
L 2025 2691 
Q 1819 2813 1613 2813 
Q 1428 2813 1281 2702 
Q 1134 2591 1072 2394 
Q 978 2094 978 1738 
L 978 0 
L 416 0 
z
" transform="scale(0.015625)"/>
        <path id="ArialMT-73" d="M 197 991 
L 753 1078 
Q 800 744 1014 566 
Q 1228 388 1613 388 
Q 2000 388 2187 545 
Q 2375 703 2375 916 
Q 2375 1106 2209 1216 
Q 2094 1291 1634 1406 
Q 1016 1563 777 1677 
Q 538 1791 414 1992 
Q 291 2194 291 2438 
Q 291 2659 392 2848 
Q 494 3038 669 3163 
Q 800 3259 1026 3326 
Q 1253 3394 1513 3394 
Q 1903 3394 2198 3281 
Q 2494 3169 2634 2976 
Q 2775 2784 2828 2463 
L 2278 2388 
Q 2241 2644 2061 2787 
Q 1881 2931 1553 2931 
Q 1166 2931 1000 2803 
Q 834 2675 834 2503 
Q 834 2394 903 2306 
Q 972 2216 1119 2156 
Q 1203 2125 1616 2013 
Q 2213 1853 2448 1751 
Q 2684 1650 2818 1456 
Q 2953 1263 2953 975 
Q 2953 694 2789 445 
Q 2625 197 2315 61 
Q 2006 -75 1616 -75 
Q 969 -75 630 194 
Q 291 463 197 991 
z
" transform="scale(0.015625)"/>
       </defs>
       <use xlink:href="#ArialMT-36"/>
       <use xlink:href="#ArialMT-20" x="55.615234"/>
       <use xlink:href="#ArialMT-68" x="83.398438"/>
       <use xlink:href="#ArialMT-6f" x="139.013672"/>
       <use xlink:href="#ArialMT-75" x="194.628906"/>
       <use xlink:href="#ArialMT-72" x="250.244141"/>
       <use xlink:href="#ArialMT-73" x="283.544922"/>
      </g>
     </g>
    </g>
    <g id="xtick_2">
     <g id="line2d_3">
      <path d="M 194.314286 181.416412 
L 194.314286 10.8 
" clip-path="url(#p2cefcc4a3c)" style="fill: none; stroke: #cccccc; stroke-width: 0.8; stroke-linecap: round"/>
     </g>
     <g id="line2d_4"/>
     <g id="text_2">
      <!-- 8 hours -->
      <g style="fill: #262626" transform="translate(169.325795 213.560866) rotate(-45) scale(0.1 -0.1)">
       <defs>
        <path id="ArialMT-38" d="M 1131 2484 
Q 781 2613 612 2850 
Q 444 3088 444 3419 
Q 444 3919 803 4259 
Q 1163 4600 1759 4600 
Q 2359 4600 2725 4251 
Q 3091 3903 3091 3403 
Q 3091 3084 2923 2848 
Q 2756 2613 2416 2484 
Q 2838 2347 3058 2040 
Q 3278 1734 3278 1309 
Q 3278 722 2862 322 
Q 2447 -78 1769 -78 
Q 1091 -78 675 323 
Q 259 725 259 1325 
Q 259 1772 486 2073 
Q 713 2375 1131 2484 
z
M 1019 3438 
Q 1019 3113 1228 2906 
Q 1438 2700 1772 2700 
Q 2097 2700 2305 2904 
Q 2513 3109 2513 3406 
Q 2513 3716 2298 3927 
Q 2084 4138 1766 4138 
Q 1444 4138 1231 3931 
Q 1019 3725 1019 3438 
z
M 838 1322 
Q 838 1081 952 856 
Q 1066 631 1291 507 
Q 1516 384 1775 384 
Q 2178 384 2440 643 
Q 2703 903 2703 1303 
Q 2703 1709 2433 1975 
Q 2163 2241 1756 2241 
Q 1359 2241 1098 1978 
Q 838 1716 838 1322 
z
" transform="scale(0.015625)"/>
       </defs>
       <use xlink:href="#ArialMT-38"/>
       <use xlink:href="#ArialMT-20" x="55.615234"/>
       <use xlink:href="#ArialMT-68" x="83.398438"/>
       <use xlink:href="#ArialMT-6f" x="139.013672"/>
       <use xlink:href="#ArialMT-75" x="194.628906"/>
       <use xlink:href="#ArialMT-72" x="250.244141"/>
       <use xlink:href="#ArialMT-73" x="283.544922"/>
      </g>
     </g>
    </g>
    <g id="xtick_3">
     <g id="line2d_5">
      <path d="M 148.266667 181.416412 
L 148.266667 10.8 
" clip-path="url(#p2cefcc4a3c)" style="fill: none; stroke: #cccccc; stroke-width: 0.8; stroke-linecap: round"/>
     </g>
     <g id="line2d_6"/>
     <g id="text_3">
      <!-- 12 hours -->
      <g style="fill: #262626" transform="translate(119.345999 217.493043) rotate(-45) scale(0.1 -0.1)">
       <defs>
        <path id="ArialMT-31" d="M 2384 0 
L 1822 0 
L 1822 3584 
Q 1619 3391 1289 3197 
Q 959 3003 697 2906 
L 697 3450 
Q 1169 3672 1522 3987 
Q 1875 4303 2022 4600 
L 2384 4600 
L 2384 0 
z
" transform="scale(0.015625)"/>
        <path id="ArialMT-32" d="M 3222 541 
L 3222 0 
L 194 0 
Q 188 203 259 391 
Q 375 700 629 1000 
Q 884 1300 1366 1694 
Q 2113 2306 2375 2664 
Q 2638 3022 2638 3341 
Q 2638 3675 2398 3904 
Q 2159 4134 1775 4134 
Q 1369 4134 1125 3890 
Q 881 3647 878 3216 
L 300 3275 
Q 359 3922 746 4261 
Q 1134 4600 1788 4600 
Q 2447 4600 2831 4234 
Q 3216 3869 3216 3328 
Q 3216 3053 3103 2787 
Q 2991 2522 2730 2228 
Q 2469 1934 1863 1422 
Q 1356 997 1212 845 
Q 1069 694 975 541 
L 3222 541 
z
" transform="scale(0.015625)"/>
       </defs>
       <use xlink:href="#ArialMT-31"/>
       <use xlink:href="#ArialMT-32" x="55.615234"/>
       <use xlink:href="#ArialMT-20" x="111.230469"/>
       <use xlink:href="#ArialMT-68" x="139.013672"/>
       <use xlink:href="#ArialMT-6f" x="194.628906"/>
       <use xlink:href="#ArialMT-75" x="250.244141"/>
       <use xlink:href="#ArialMT-72" x="305.859375"/>
       <use xlink:href="#ArialMT-73" x="339.160156"/>
      </g>
     </g>
    </g>
    <g id="xtick_4">
     <g id="line2d_7">
      <path d="M 102.219048 181.416412 
L 102.219048 10.8 
" clip-path="url(#p2cefcc4a3c)" style="fill: none; stroke: #cccccc; stroke-width: 0.8; stroke-linecap: round"/>
     </g>
     <g id="line2d_8"/>
     <g id="text_4">
      <!-- Daily -->
      <g style="fill: #262626" transform="translate(85.014256 205.694303) rotate(-45) scale(0.1 -0.1)">
       <defs>
        <path id="ArialMT-44" d="M 494 0 
L 494 4581 
L 2072 4581 
Q 2606 4581 2888 4516 
Q 3281 4425 3559 4188 
Q 3922 3881 4101 3404 
Q 4281 2928 4281 2316 
Q 4281 1794 4159 1391 
Q 4038 988 3847 723 
Q 3656 459 3429 307 
Q 3203 156 2883 78 
Q 2563 0 2147 0 
L 494 0 
z
M 1100 541 
L 2078 541 
Q 2531 541 2789 625 
Q 3047 709 3200 863 
Q 3416 1078 3536 1442 
Q 3656 1806 3656 2325 
Q 3656 3044 3420 3430 
Q 3184 3816 2847 3947 
Q 2603 4041 2063 4041 
L 1100 4041 
L 1100 541 
z
" transform="scale(0.015625)"/>
        <path id="ArialMT-61" d="M 2588 409 
Q 2275 144 1986 34 
Q 1697 -75 1366 -75 
Q 819 -75 525 192 
Q 231 459 231 875 
Q 231 1119 342 1320 
Q 453 1522 633 1644 
Q 813 1766 1038 1828 
Q 1203 1872 1538 1913 
Q 2219 1994 2541 2106 
Q 2544 2222 2544 2253 
Q 2544 2597 2384 2738 
Q 2169 2928 1744 2928 
Q 1347 2928 1158 2789 
Q 969 2650 878 2297 
L 328 2372 
Q 403 2725 575 2942 
Q 747 3159 1072 3276 
Q 1397 3394 1825 3394 
Q 2250 3394 2515 3294 
Q 2781 3194 2906 3042 
Q 3031 2891 3081 2659 
Q 3109 2516 3109 2141 
L 3109 1391 
Q 3109 606 3145 398 
Q 3181 191 3288 0 
L 2700 0 
Q 2613 175 2588 409 
z
M 2541 1666 
Q 2234 1541 1622 1453 
Q 1275 1403 1131 1340 
Q 988 1278 909 1158 
Q 831 1038 831 891 
Q 831 666 1001 516 
Q 1172 366 1500 366 
Q 1825 366 2078 508 
Q 2331 650 2450 897 
Q 2541 1088 2541 1459 
L 2541 1666 
z
" transform="scale(0.015625)"/>
        <path id="ArialMT-69" d="M 425 3934 
L 425 4581 
L 988 4581 
L 988 3934 
L 425 3934 
z
M 425 0 
L 425 3319 
L 988 3319 
L 988 0 
L 425 0 
z
" transform="scale(0.015625)"/>
        <path id="ArialMT-6c" d="M 409 0 
L 409 4581 
L 972 4581 
L 972 0 
L 409 0 
z
" transform="scale(0.015625)"/>
        <path id="ArialMT-79" d="M 397 -1278 
L 334 -750 
Q 519 -800 656 -800 
Q 844 -800 956 -737 
Q 1069 -675 1141 -563 
Q 1194 -478 1313 -144 
Q 1328 -97 1363 -6 
L 103 3319 
L 709 3319 
L 1400 1397 
Q 1534 1031 1641 628 
Q 1738 1016 1872 1384 
L 2581 3319 
L 3144 3319 
L 1881 -56 
Q 1678 -603 1566 -809 
Q 1416 -1088 1222 -1217 
Q 1028 -1347 759 -1347 
Q 597 -1347 397 -1278 
z
" transform="scale(0.015625)"/>
       </defs>
       <use xlink:href="#ArialMT-44"/>
       <use xlink:href="#ArialMT-61" x="72.216797"/>
       <use xlink:href="#ArialMT-69" x="127.832031"/>
       <use xlink:href="#ArialMT-6c" x="150.048828"/>
       <use xlink:href="#ArialMT-79" x="172.265625"/>
      </g>
     </g>
    </g>
    <g id="xtick_5">
     <g id="line2d_9">
      <path d="M 62.74966 181.416412 
L 62.74966 10.8 
" clip-path="url(#p2cefcc4a3c)" style="fill: none; stroke: #cccccc; stroke-width: 0.8; stroke-linecap: round"/>
     </g>
     <g id="line2d_10"/>
     <g id="text_5">
      <!-- Weekly -->
      <g style="fill: #262626" transform="translate(38.204216 213.034955) rotate(-45) scale(0.1 -0.1)">
       <defs>
        <path id="ArialMT-57" d="M 1294 0 
L 78 4581 
L 700 4581 
L 1397 1578 
Q 1509 1106 1591 641 
Q 1766 1375 1797 1488 
L 2669 4581 
L 3400 4581 
L 4056 2263 
Q 4303 1400 4413 641 
Q 4500 1075 4641 1638 
L 5359 4581 
L 5969 4581 
L 4713 0 
L 4128 0 
L 3163 3491 
Q 3041 3928 3019 4028 
Q 2947 3713 2884 3491 
L 1913 0 
L 1294 0 
z
" transform="scale(0.015625)"/>
        <path id="ArialMT-65" d="M 2694 1069 
L 3275 997 
Q 3138 488 2766 206 
Q 2394 -75 1816 -75 
Q 1088 -75 661 373 
Q 234 822 234 1631 
Q 234 2469 665 2931 
Q 1097 3394 1784 3394 
Q 2450 3394 2872 2941 
Q 3294 2488 3294 1666 
Q 3294 1616 3291 1516 
L 816 1516 
Q 847 969 1125 678 
Q 1403 388 1819 388 
Q 2128 388 2347 550 
Q 2566 713 2694 1069 
z
M 847 1978 
L 2700 1978 
Q 2663 2397 2488 2606 
Q 2219 2931 1791 2931 
Q 1403 2931 1139 2672 
Q 875 2413 847 1978 
z
" transform="scale(0.015625)"/>
        <path id="ArialMT-6b" d="M 425 0 
L 425 4581 
L 988 4581 
L 988 1969 
L 2319 3319 
L 3047 3319 
L 1778 2088 
L 3175 0 
L 2481 0 
L 1384 1697 
L 988 1316 
L 988 0 
L 425 0 
z
" transform="scale(0.015625)"/>
       </defs>
       <use xlink:href="#ArialMT-57"/>
       <use xlink:href="#ArialMT-65" x="92.634766"/>
       <use xlink:href="#ArialMT-65" x="148.25"/>
       <use xlink:href="#ArialMT-6b" x="203.865234"/>
       <use xlink:href="#ArialMT-6c" x="253.865234"/>
       <use xlink:href="#ArialMT-79" x="276.082031"/>
      </g>
     </g>
    </g>
   </g>
   <g id="matplotlib.axis_2">
    <g id="ytick_1">
     <g id="line2d_11"/>
     <g id="text_6">
      <!-- 0 -->
      <g style="fill: #262626" transform="translate(36.059063 177.241579) scale(0.1 -0.1)">
       <defs>
        <path id="ArialMT-30" d="M 266 2259 
Q 266 3072 433 3567 
Q 600 4063 929 4331 
Q 1259 4600 1759 4600 
Q 2128 4600 2406 4451 
Q 2684 4303 2865 4023 
Q 3047 3744 3150 3342 
Q 3253 2941 3253 2259 
Q 3253 1453 3087 958 
Q 2922 463 2592 192 
Q 2263 -78 1759 -78 
Q 1097 -78 719 397 
Q 266 969 266 2259 
z
M 844 2259 
Q 844 1131 1108 757 
Q 1372 384 1759 384 
Q 2147 384 2411 759 
Q 2675 1134 2675 2259 
Q 2675 3391 2411 3762 
Q 2147 4134 1753 4134 
Q 1366 4134 1134 3806 
Q 844 3388 844 2259 
z
" transform="scale(0.015625)"/>
       </defs>
       <use xlink:href="#ArialMT-30"/>
      </g>
     </g>
    </g>
    <g id="ytick_2">
     <g id="line2d_12"/>
     <g id="text_7">
      <!-- 100 -->
      <g style="fill: #262626" transform="translate(24.937188 153.692124) scale(0.1 -0.1)">
       <use xlink:href="#ArialMT-31"/>
       <use xlink:href="#ArialMT-30" x="55.615234"/>
       <use xlink:href="#ArialMT-30" x="111.230469"/>
      </g>
     </g>
    </g>
    <g id="ytick_3">
     <g id="line2d_13"/>
     <g id="text_8">
      <!-- 200 -->
      <g style="fill: #262626" transform="translate(24.937188 130.14267) scale(0.1 -0.1)">
       <use xlink:href="#ArialMT-32"/>
       <use xlink:href="#ArialMT-30" x="55.615234"/>
       <use xlink:href="#ArialMT-30" x="111.230469"/>
      </g>
     </g>
    </g>
    <g id="ytick_4">
     <g id="line2d_14"/>
     <g id="text_9">
      <!-- 300 -->
      <g style="fill: #262626" transform="translate(24.937188 106.593216) scale(0.1 -0.1)">
       <defs>
        <path id="ArialMT-33" d="M 269 1209 
L 831 1284 
Q 928 806 1161 595 
Q 1394 384 1728 384 
Q 2125 384 2398 659 
Q 2672 934 2672 1341 
Q 2672 1728 2419 1979 
Q 2166 2231 1775 2231 
Q 1616 2231 1378 2169 
L 1441 2663 
Q 1497 2656 1531 2656 
Q 1891 2656 2178 2843 
Q 2466 3031 2466 3422 
Q 2466 3731 2256 3934 
Q 2047 4138 1716 4138 
Q 1388 4138 1169 3931 
Q 950 3725 888 3313 
L 325 3413 
Q 428 3978 793 4289 
Q 1159 4600 1703 4600 
Q 2078 4600 2393 4439 
Q 2709 4278 2876 4000 
Q 3044 3722 3044 3409 
Q 3044 3113 2884 2869 
Q 2725 2625 2413 2481 
Q 2819 2388 3044 2092 
Q 3269 1797 3269 1353 
Q 3269 753 2831 336 
Q 2394 -81 1725 -81 
Q 1122 -81 723 278 
Q 325 638 269 1209 
z
" transform="scale(0.015625)"/>
       </defs>
       <use xlink:href="#ArialMT-33"/>
       <use xlink:href="#ArialMT-30" x="55.615234"/>
       <use xlink:href="#ArialMT-30" x="111.230469"/>
      </g>
     </g>
    </g>
    <g id="ytick_5">
     <g id="line2d_15"/>
     <g id="text_10">
      <!-- 400 -->
      <g style="fill: #262626" transform="translate(24.937188 83.043761) scale(0.1 -0.1)">
       <defs>
        <path id="ArialMT-34" d="M 2069 0 
L 2069 1097 
L 81 1097 
L 81 1613 
L 2172 4581 
L 2631 4581 
L 2631 1613 
L 3250 1613 
L 3250 1097 
L 2631 1097 
L 2631 0 
L 2069 0 
z
M 2069 1613 
L 2069 3678 
L 634 1613 
L 2069 1613 
z
" transform="scale(0.015625)"/>
       </defs>
       <use xlink:href="#ArialMT-34"/>
       <use xlink:href="#ArialMT-30" x="55.615234"/>
       <use xlink:href="#ArialMT-30" x="111.230469"/>
      </g>
     </g>
    </g>
    <g id="ytick_6">
     <g id="line2d_16"/>
     <g id="text_11">
      <!-- 500 -->
      <g style="fill: #262626" transform="translate(24.937188 59.494307) scale(0.1 -0.1)">
       <defs>
        <path id="ArialMT-35" d="M 266 1200 
L 856 1250 
Q 922 819 1161 601 
Q 1400 384 1738 384 
Q 2144 384 2425 690 
Q 2706 997 2706 1503 
Q 2706 1984 2436 2262 
Q 2166 2541 1728 2541 
Q 1456 2541 1237 2417 
Q 1019 2294 894 2097 
L 366 2166 
L 809 4519 
L 3088 4519 
L 3088 3981 
L 1259 3981 
L 1013 2750 
Q 1425 3038 1878 3038 
Q 2478 3038 2890 2622 
Q 3303 2206 3303 1553 
Q 3303 931 2941 478 
Q 2500 -78 1738 -78 
Q 1113 -78 717 272 
Q 322 622 266 1200 
z
" transform="scale(0.015625)"/>
       </defs>
       <use xlink:href="#ArialMT-35"/>
       <use xlink:href="#ArialMT-30" x="55.615234"/>
       <use xlink:href="#ArialMT-30" x="111.230469"/>
      </g>
     </g>
    </g>
    <g id="ytick_7">
     <g id="line2d_17"/>
     <g id="text_12">
      <!-- 600 -->
      <g style="fill: #262626" transform="translate(24.937188 35.944852) scale(0.1 -0.1)">
       <use xlink:href="#ArialMT-36"/>
       <use xlink:href="#ArialMT-30" x="55.615234"/>
       <use xlink:href="#ArialMT-30" x="111.230469"/>
      </g>
     </g>
    </g>
    <g id="text_13">
     <!-- GW -->
     <g style="fill: #262626" transform="translate(18.949688 104.7168) rotate(-90) scale(0.1 -0.1)">
      <defs>
       <path id="ArialMT-47" d="M 2638 1797 
L 2638 2334 
L 4578 2338 
L 4578 638 
Q 4131 281 3656 101 
Q 3181 -78 2681 -78 
Q 2006 -78 1454 211 
Q 903 500 622 1047 
Q 341 1594 341 2269 
Q 341 2938 620 3517 
Q 900 4097 1425 4378 
Q 1950 4659 2634 4659 
Q 3131 4659 3532 4498 
Q 3934 4338 4162 4050 
Q 4391 3763 4509 3300 
L 3963 3150 
Q 3859 3500 3706 3700 
Q 3553 3900 3268 4020 
Q 2984 4141 2638 4141 
Q 2222 4141 1919 4014 
Q 1616 3888 1430 3681 
Q 1244 3475 1141 3228 
Q 966 2803 966 2306 
Q 966 1694 1177 1281 
Q 1388 869 1791 669 
Q 2194 469 2647 469 
Q 3041 469 3416 620 
Q 3791 772 3984 944 
L 3984 1797 
L 2638 1797 
z
" transform="scale(0.015625)"/>
      </defs>
      <use xlink:href="#ArialMT-47"/>
      <use xlink:href="#ArialMT-57" x="77.783203"/>
     </g>
    </g>
   </g>
   <g id="line2d_18">
    <path d="M 56.171429 103.868724 
L 56.297586 161.37501 
L 56.423744 156.245011 
L 56.67606 163.990201 
L 56.802218 168.56865 
L 56.928376 162.982105 
L 57.054534 164.531869 
L 57.180691 163.998807 
L 57.306849 166.051976 
L 57.433007 157.796809 
L 57.559165 167.334112 
L 57.685323 166.013175 
L 57.811481 172.70588 
L 58.063796 164.82807 
L 58.189954 166.209696 
L 58.44227 171.787022 
L 58.694586 167.238911 
L 58.820744 166.672463 
L 59.073059 170.341524 
L 59.451533 166.230383 
L 59.577691 170.617921 
L 59.703849 167.37527 
L 59.830007 169.400158 
L 59.956164 167.129493 
L 60.082322 168.057525 
L 60.20848 170.004731 
L 60.460796 167.325013 
L 60.586954 164.945406 
L 60.713112 168.999812 
L 60.965427 165.014214 
L 61.091585 170.079458 
L 61.217743 170.065399 
L 61.343901 172.976222 
L 61.722374 163.7906 
L 61.97469 172.089786 
L 62.100848 169.188564 
L 62.227006 170.64305 
L 62.353164 166.293042 
L 62.479322 166.150644 
L 62.605479 170.245591 
L 62.857795 167.132587 
L 62.983953 165.302815 
L 63.110111 172.070076 
L 63.236269 170.724778 
L 63.362427 172.260019 
L 63.488584 171.616371 
L 63.614742 169.791762 
L 63.7409 170.198769 
L 63.867058 165.831968 
L 64.245532 171.53573 
L 64.371689 169.201091 
L 64.497847 170.27221 
L 64.750163 169.749753 
L 64.876321 169.880695 
L 65.002479 169.100385 
L 65.128637 172.992789 
L 65.254795 167.511046 
L 65.380952 170.845804 
L 65.50711 169.747647 
L 65.759426 171.847329 
L 65.885584 171.894334 
L 66.011742 171.065485 
L 66.1379 171.647387 
L 66.264057 170.769656 
L 66.390215 172.890166 
L 66.516373 170.463608 
L 66.642531 172.203596 
L 66.894847 168.516193 
L 67.021005 169.241993 
L 67.147162 170.182916 
L 67.27332 170.017039 
L 67.399478 170.158817 
L 67.525636 170.487427 
L 67.651794 172.010636 
L 67.777952 170.251912 
L 67.90411 172.4573 
L 68.030267 172.289319 
L 68.156425 172.901068 
L 68.282583 170.586227 
L 68.408741 172.749412 
L 68.534899 171.046126 
L 68.661057 172.453773 
L 68.787215 171.386802 
L 68.913372 172.073377 
L 69.03953 169.936915 
L 69.165688 171.433498 
L 69.291846 168.322712 
L 69.544162 173.034038 
L 69.67032 170.520694 
L 69.796477 171.098743 
L 69.922635 173.356197 
L 70.301109 170.330541 
L 70.553425 172.299431 
L 70.80574 171.698593 
L 70.931898 172.572396 
L 71.058056 171.073372 
L 71.184214 171.474883 
L 71.310372 172.710862 
L 71.43653 171.399068 
L 71.815003 173.261334 
L 71.941161 172.117242 
L 72.067319 172.815707 
L 72.193477 171.563755 
L 72.445793 172.675488 
L 72.57195 172.382923 
L 72.698108 170.981222 
L 72.824266 172.355033 
L 72.950424 172.136289 
L 73.076582 171.248874 
L 73.328898 172.13441 
L 73.455055 169.804623 
L 73.581213 172.354109 
L 73.707371 171.693459 
L 73.833529 172.702636 
L 73.959687 172.402464 
L 74.085845 172.540491 
L 74.212003 171.591963 
L 74.33816 171.535096 
L 74.464318 172.6112 
L 74.590476 171.624234 
L 74.842792 172.273953 
L 74.96895 172.550471 
L 75.095108 172.218086 
L 75.221265 170.744853 
L 75.347423 172.919909 
L 75.473581 171.685911 
L 75.599739 171.800904 
L 75.725897 172.752462 
L 75.852055 170.738035 
L 75.978213 170.627971 
L 76.230528 172.391822 
L 76.482844 171.261877 
L 76.609002 173.09416 
L 76.861318 171.537384 
L 76.987476 172.056655 
L 77.113633 170.659852 
L 77.365949 172.68481 
L 77.492107 172.213009 
L 77.618265 173.295429 
L 77.744423 172.342705 
L 77.870581 172.659875 
L 77.996738 172.64675 
L 78.122896 172.106944 
L 78.249054 172.362069 
L 78.375212 171.160896 
L 78.627528 173.440542 
L 78.753686 172.285105 
L 78.879843 172.999035 
L 79.006001 173.03306 
L 79.132159 172.643583 
L 79.258317 173.033192 
L 79.510633 172.673075 
L 79.762948 173.248011 
L 80.015264 171.16694 
L 80.141422 172.309616 
L 80.26758 172.435525 
L 80.519896 172.973501 
L 80.646053 172.835218 
L 80.772211 171.833561 
L 80.898369 173.186174 
L 81.024527 172.982571 
L 81.276843 170.999544 
L 81.529159 173.043962 
L 81.655316 172.255077 
L 81.781474 173.080011 
L 81.907632 171.725573 
L 82.03379 172.528814 
L 82.159948 172.473225 
L 82.286106 171.147604 
L 82.412264 171.878395 
L 82.538421 171.010495 
L 82.664579 173.211704 
L 82.790737 172.983545 
L 82.916895 173.06802 
L 83.169211 170.367737 
L 83.295369 172.445462 
L 83.421526 172.570485 
L 83.673842 173.493209 
L 83.926158 173.073745 
L 84.052316 172.822387 
L 84.178474 171.95895 
L 84.430789 172.756848 
L 84.556947 172.667702 
L 84.683105 172.363881 
L 84.809263 172.752843 
L 84.935421 172.134281 
L 85.187736 173.106705 
L 85.313894 172.973973 
L 85.440052 173.478297 
L 85.56621 173.178595 
L 85.692368 171.852258 
L 85.944684 172.667279 
L 86.070841 172.812742 
L 86.196999 171.689508 
L 86.323157 172.446273 
L 86.449315 172.254277 
L 86.701631 173.520896 
L 86.827789 171.753326 
L 86.953947 173.444639 
L 87.206262 172.608665 
L 87.33242 172.522205 
L 87.458578 173.1128 
L 87.584736 172.178521 
L 87.710894 173.028198 
L 87.837052 173.044996 
L 88.089367 170.44115 
L 88.215525 173.194199 
L 88.341683 172.300377 
L 88.467841 173.501085 
L 88.720157 170.610196 
L 88.846314 172.8568 
L 89.09863 166.980478 
L 89.350946 172.79128 
L 89.477104 171.973157 
L 89.603262 172.902571 
L 89.729419 172.704561 
L 89.855577 169.969454 
L 90.107893 172.637008 
L 90.234051 172.290601 
L 90.360209 173.194611 
L 90.612524 170.619967 
L 90.738682 170.523619 
L 90.86484 170.880328 
L 91.117156 171.752816 
L 91.243314 170.872213 
L 91.369472 172.38021 
L 91.495629 171.445006 
L 91.621787 172.768996 
L 91.747945 172.574493 
L 91.874103 171.146291 
L 92.000261 171.322614 
L 92.126419 170.91123 
L 92.252577 169.930727 
L 92.378735 170.182267 
L 92.504892 172.539415 
L 92.63105 170.461012 
L 92.757208 172.670717 
L 92.883366 170.111806 
L 93.009524 171.264715 
L 93.135682 170.184344 
L 93.26184 171.598768 
L 93.387997 170.478481 
L 93.514155 170.985189 
L 93.640313 169.439911 
L 93.766471 171.624 
L 93.892629 170.405702 
L 94.144945 172.591408 
L 94.523418 168.321907 
L 94.649576 169.850952 
L 94.775734 169.894998 
L 95.02805 172.859286 
L 95.280365 171.310439 
L 95.532681 168.609266 
L 95.658839 164.086963 
L 95.784997 171.900775 
L 95.911155 168.986072 
L 96.037312 169.996467 
L 96.16347 172.744063 
L 96.415786 171.741603 
L 96.541944 173.19993 
L 96.79426 169.562156 
L 96.920417 169.198963 
L 97.172733 171.797255 
L 97.298891 169.1612 
L 97.425049 170.353188 
L 97.677365 167.605734 
L 97.803523 167.748217 
L 97.92968 166.834976 
L 98.181996 171.084573 
L 98.308154 168.511337 
L 98.56047 171.304957 
L 98.686628 171.138335 
L 98.812785 170.214456 
L 98.938943 170.407463 
L 99.191259 169.044373 
L 99.317417 168.47921 
L 99.443575 170.512561 
L 99.69589 168.439172 
L 99.822048 172.263157 
L 99.948206 171.642774 
L 100.074364 171.696849 
L 100.200522 165.855986 
L 100.32668 170.080787 
L 100.452838 166.129162 
L 100.578995 170.704391 
L 100.705153 170.568088 
L 100.831311 172.005299 
L 100.957469 161.944762 
L 101.083627 168.139438 
L 101.209785 166.865477 
L 101.335943 168.666306 
L 101.4621 167.778091 
L 101.588258 168.101437 
L 101.714416 170.61703 
L 101.840574 165.10634 
L 101.966732 154.115541 
L 102.09289 159.397724 
L 102.219048 18.555291 
L 102.345205 148.561684 
L 102.471363 151.144382 
L 102.723679 169.869858 
L 102.849837 170.163807 
L 102.975995 169.928865 
L 103.228311 165.721362 
L 103.354468 166.921525 
L 103.480626 159.814631 
L 103.606784 170.286376 
L 103.732942 168.349914 
L 103.8591 170.483239 
L 103.985258 165.810503 
L 104.111416 169.314141 
L 104.237573 167.495627 
L 104.363731 171.507004 
L 104.489889 170.691201 
L 104.616047 170.867713 
L 104.742205 168.464952 
L 104.994521 170.627838 
L 105.120678 167.425131 
L 105.246836 168.480527 
L 105.372994 167.8024 
L 105.62531 169.732814 
L 105.751468 171.852411 
L 105.877626 171.177856 
L 106.003783 171.14766 
L 106.129941 168.922937 
L 106.256099 170.812162 
L 106.508415 166.04299 
L 107.013046 170.374721 
L 107.139204 169.884869 
L 107.39152 171.687567 
L 107.517678 169.137741 
L 107.643836 171.877489 
L 107.769993 169.285006 
L 107.896151 173.35525 
L 108.022309 171.190239 
L 108.148467 173.379482 
L 108.274625 172.667436 
L 108.526941 167.889913 
L 108.653098 171.319797 
L 108.779256 163.973059 
L 109.031572 169.636742 
L 109.15773 172.642821 
L 109.283888 172.876411 
L 109.410046 172.126218 
L 109.536204 173.278762 
L 109.662361 169.142251 
L 109.788519 170.042802 
L 109.914677 167.318519 
L 110.166993 172.317081 
L 110.545466 169.911065 
L 110.671624 172.569856 
L 110.797782 170.322051 
L 110.92394 170.899015 
L 111.050098 169.222342 
L 111.176256 171.401382 
L 111.302414 169.521036 
L 111.428571 171.391483 
L 111.554729 170.113852 
L 111.680887 172.208052 
L 111.807045 170.665525 
L 111.933203 173.27048 
L 112.185519 169.871842 
L 112.311676 172.093698 
L 112.437834 172.207992 
L 112.563992 171.561439 
L 112.816308 172.746031 
L 112.942466 171.277871 
L 113.068624 171.909526 
L 113.194781 171.172025 
L 113.447097 172.289445 
L 113.699413 170.817996 
L 113.951729 171.969633 
L 114.077886 173.303145 
L 114.330202 171.86239 
L 114.45636 172.594131 
L 114.582518 171.056922 
L 114.708676 173.530383 
L 114.834834 172.412844 
L 114.960992 173.519986 
L 115.087149 171.737835 
L 115.213307 172.816501 
L 115.339465 167.010704 
L 115.591781 171.981561 
L 115.717939 171.513827 
L 116.096412 173.030197 
L 116.22257 172.680402 
L 116.348728 171.335147 
L 116.601044 172.945331 
L 116.853359 172.556195 
L 117.105675 173.366155 
L 117.231833 172.034695 
L 117.357991 173.587275 
L 117.484149 173.241806 
L 117.610307 172.338582 
L 117.736464 173.092523 
L 117.98878 172.16533 
L 118.114938 172.814643 
L 118.241096 172.48275 
L 118.367254 173.19117 
L 118.493412 173.184948 
L 118.745727 171.590594 
L 118.998043 172.40174 
L 119.250359 173.054209 
L 119.502674 170.731853 
L 119.628832 173.161823 
L 119.75499 172.34482 
L 119.881148 173.037939 
L 120.007306 172.78846 
L 120.133464 172.88875 
L 120.259622 172.49224 
L 120.38578 172.887087 
L 120.511937 172.620116 
L 120.638095 173.065571 
L 120.764253 172.699354 
L 120.890411 173.126387 
L 121.016569 173.043217 
L 121.268885 171.937478 
L 121.5212 173.212248 
L 121.647358 172.281888 
L 121.773516 172.538096 
L 121.899674 171.029834 
L 122.025832 171.762588 
L 122.15199 171.130791 
L 122.278147 173.439542 
L 122.404305 172.989992 
L 122.782779 173.32831 
L 122.908937 171.622311 
L 123.035095 173.095772 
L 123.161252 171.382954 
L 123.413568 173.012987 
L 123.539726 172.437049 
L 123.665884 172.83301 
L 123.792042 172.801125 
L 123.9182 172.448886 
L 124.170515 173.284223 
L 124.296673 172.9029 
L 124.422831 171.174095 
L 124.675147 173.555245 
L 124.801305 172.955137 
L 125.05362 173.315407 
L 125.305936 173.3141 
L 125.432094 173.414695 
L 125.558252 172.991827 
L 125.68441 173.052332 
L 125.810568 172.88531 
L 125.936725 171.841632 
L 126.189041 172.727943 
L 126.315199 172.511568 
L 126.441357 173.630893 
L 126.693673 172.751243 
L 126.81983 172.872006 
L 126.945988 173.503812 
L 127.072146 173.303707 
L 127.198304 172.669272 
L 127.324462 172.743807 
L 127.45062 172.554941 
L 127.576778 173.410469 
L 127.702935 172.197024 
L 127.829093 173.365563 
L 127.955251 172.580069 
L 128.081409 173.230931 
L 128.459883 172.047707 
L 128.58604 171.417839 
L 128.712198 173.474875 
L 128.838356 173.358906 
L 129.21683 171.94402 
L 129.342988 172.895808 
L 129.595303 172.494646 
L 129.847619 173.23324 
L 129.973777 173.310088 
L 130.226093 172.748297 
L 130.35225 172.657508 
L 130.478408 173.169866 
L 130.730724 173.164417 
L 130.856882 172.700199 
L 130.98304 172.74856 
L 131.109198 173.106444 
L 131.361513 172.948642 
L 131.613829 173.303371 
L 131.739987 172.292433 
L 131.866145 172.468938 
L 131.992303 173.347446 
L 132.118461 173.138802 
L 132.244618 172.315728 
L 132.370776 173.305253 
L 132.496934 172.660816 
L 132.623092 173.282525 
L 132.74925 173.073194 
L 132.875408 172.54223 
L 133.001566 173.519687 
L 133.127723 173.011245 
L 133.380039 173.258562 
L 133.506197 173.283339 
L 133.632355 172.702631 
L 133.758513 172.868001 
L 133.884671 173.364096 
L 134.136986 171.825932 
L 134.263144 172.941266 
L 134.389302 172.716184 
L 134.51546 172.873101 
L 134.767776 171.843449 
L 134.893933 172.924925 
L 135.146249 170.293945 
L 135.398565 173.210286 
L 135.524723 172.580586 
L 135.777038 173.164637 
L 135.903196 171.644874 
L 136.155512 173.383281 
L 136.28167 173.460133 
L 136.660144 172.098648 
L 136.786301 172.195894 
L 137.038617 172.3084 
L 137.164775 172.970948 
L 137.290933 172.03632 
L 137.417091 173.233768 
L 137.543249 172.497068 
L 137.669406 172.504526 
L 137.795564 172.050079 
L 137.921722 172.740721 
L 138.04788 172.355415 
L 138.174038 172.74519 
L 138.300196 172.756472 
L 138.426354 172.212272 
L 138.552511 172.910233 
L 138.678669 171.93686 
L 138.804827 172.943854 
L 138.930985 171.728221 
L 139.183301 172.325312 
L 139.435616 171.991497 
L 139.561774 172.429175 
L 139.687932 171.362023 
L 139.81409 172.840424 
L 139.940248 171.710077 
L 140.192564 173.216801 
L 140.318721 172.115758 
L 140.444879 172.298358 
L 140.571037 172.17357 
L 140.697195 172.285079 
L 140.823353 172.623089 
L 140.949511 171.622816 
L 141.075669 173.223777 
L 141.201826 173.201187 
L 141.327984 172.978563 
L 141.454142 173.259231 
L 141.5803 172.287115 
L 141.706458 169.582056 
L 141.832616 172.334616 
L 141.958774 170.419713 
L 142.337247 172.678456 
L 142.463405 172.434002 
L 142.589563 172.801627 
L 142.715721 171.171583 
L 142.841879 171.980509 
L 142.968037 172.00385 
L 143.094194 172.374002 
L 143.34651 171.315158 
L 143.472668 171.926244 
L 143.724984 170.832949 
L 143.851142 171.469074 
L 143.977299 171.194179 
L 144.103457 172.806026 
L 144.355773 171.67843 
L 144.481931 172.103646 
L 144.608089 171.297585 
L 144.734247 172.589728 
L 144.860404 172.495152 
L 144.986562 171.368664 
L 145.238878 171.846307 
L 145.491194 171.393599 
L 145.617352 171.747013 
L 145.743509 171.202852 
L 145.869667 173.248601 
L 145.995825 172.41915 
L 146.121983 173.228724 
L 146.248141 169.710564 
L 146.374299 172.244119 
L 146.500457 170.26364 
L 146.752772 172.314119 
L 146.87893 173.172644 
L 147.005088 168.745135 
L 147.131246 171.646034 
L 147.257404 169.667007 
L 147.50972 170.70431 
L 147.635877 169.80229 
L 147.762035 172.087902 
L 147.888193 170.458919 
L 148.014351 166.365411 
L 148.140509 153.545878 
L 148.266667 127.647724 
L 148.518982 162.091642 
L 148.64514 171.698951 
L 148.771298 171.333825 
L 149.023614 172.001645 
L 149.27593 169.845242 
L 149.402087 170.77343 
L 149.528245 167.256968 
L 149.654403 173.187339 
L 149.780561 171.166702 
L 149.906719 171.773045 
L 150.032877 170.35158 
L 150.159035 172.420769 
L 150.285192 171.60461 
L 150.41135 172.656716 
L 150.537508 172.771905 
L 150.663666 172.401421 
L 150.789824 171.580224 
L 150.915982 172.383751 
L 151.04214 172.25003 
L 151.168297 171.021756 
L 151.294455 172.017765 
L 151.546771 170.580709 
L 151.799087 172.793928 
L 151.925245 172.016989 
L 152.051402 172.442213 
L 152.17756 170.977373 
L 152.429876 172.592518 
L 152.682192 170.68185 
L 152.80835 170.48722 
L 153.060665 171.681626 
L 153.186823 171.671458 
L 153.312981 171.508409 
L 153.439139 172.258481 
L 153.565297 172.081306 
L 153.691455 172.390015 
L 153.817613 170.968195 
L 153.94377 172.64893 
L 154.069928 172.758542 
L 154.196086 173.300326 
L 154.322244 172.721304 
L 154.57456 170.310887 
L 154.700718 171.823102 
L 154.826875 169.886947 
L 154.953033 172.656744 
L 155.079191 171.454876 
L 155.331507 173.225656 
L 155.70998 172.228698 
L 155.836138 172.429942 
L 155.962296 170.987335 
L 156.088454 172.865301 
L 156.214612 173.011226 
L 156.466928 172.787054 
L 156.593085 171.853128 
L 156.719243 173.050846 
L 156.845401 172.391623 
L 156.971559 172.751475 
L 157.097717 170.385376 
L 157.223875 172.243842 
L 157.350033 171.013946 
L 157.47619 172.140408 
L 157.602348 171.313792 
L 157.728506 172.825338 
L 157.854664 171.935464 
L 157.980822 173.639202 
L 158.10698 172.412103 
L 158.485453 173.083176 
L 158.611611 172.866953 
L 158.737769 172.052943 
L 158.990085 172.747842 
L 159.116243 172.741453 
L 159.242401 172.267063 
L 159.494716 172.66105 
L 159.620874 172.878681 
L 159.87319 172.203114 
L 160.125506 173.36293 
L 160.377821 172.536085 
L 160.503979 173.365543 
L 160.630137 172.679473 
L 160.756295 172.99566 
L 160.882453 172.832345 
L 161.008611 173.643782 
L 161.134768 172.542138 
L 161.260926 172.584311 
L 161.387084 170.964263 
L 161.513242 172.436101 
L 161.6394 172.021381 
L 161.891716 173.116841 
L 162.017873 172.759246 
L 162.144031 173.340446 
L 162.396347 172.65531 
L 162.522505 173.176198 
L 162.774821 172.529006 
L 162.900978 173.29206 
L 163.027136 173.203459 
L 163.153294 173.276572 
L 163.279452 172.713592 
L 163.40561 173.591304 
L 163.657926 173.042605 
L 163.910241 173.270712 
L 164.036399 172.624679 
L 164.288715 173.179249 
L 164.414873 173.07875 
L 164.541031 173.388573 
L 164.793346 172.955046 
L 164.919504 173.06171 
L 165.045662 173.524632 
L 165.17182 173.452875 
L 165.424136 172.850251 
L 165.550294 172.155632 
L 165.676451 173.48913 
L 165.928767 172.897735 
L 166.054925 173.557809 
L 166.559556 173.023379 
L 166.685714 173.437643 
L 166.811872 173.044999 
L 166.93803 173.269351 
L 167.064188 173.221497 
L 167.190346 172.975862 
L 167.316504 173.056854 
L 167.442661 172.904738 
L 167.568819 173.385453 
L 167.821135 172.56598 
L 167.947293 172.641991 
L 168.073451 172.673123 
L 168.199609 171.901126 
L 168.325766 173.246209 
L 168.451924 173.083021 
L 168.578082 173.242059 
L 168.70424 173.051596 
L 168.830398 173.393211 
L 168.956556 172.498349 
L 169.082714 173.582581 
L 169.208871 172.950212 
L 169.335029 172.912323 
L 169.461187 173.463835 
L 169.587345 172.971078 
L 169.839661 173.449317 
L 169.965819 173.007669 
L 170.091977 173.136204 
L 170.218134 173.425955 
L 170.344292 173.219221 
L 170.47045 172.648234 
L 170.596608 172.89142 
L 170.722766 173.402755 
L 170.848924 173.34394 
L 171.101239 173.45782 
L 171.353555 173.045012 
L 171.479713 173.649289 
L 171.984344 172.813845 
L 172.110502 173.172985 
L 172.362818 172.839941 
L 172.615134 173.428529 
L 172.867449 173.345705 
L 173.119765 173.021171 
L 173.245923 173.386735 
L 173.372081 173.350068 
L 173.498239 172.909798 
L 173.624397 173.35242 
L 173.750554 172.836881 
L 174.00287 173.507274 
L 174.255186 173.501 
L 174.507502 172.997099 
L 174.759817 173.3628 
L 175.012133 173.157952 
L 175.264449 173.083913 
L 175.390607 173.272084 
L 175.516765 172.871087 
L 175.642922 172.936574 
L 175.895238 173.316754 
L 176.273712 172.933202 
L 176.39987 172.861738 
L 176.526027 173.058823 
L 176.652185 173.57781 
L 176.904501 173.30745 
L 177.030659 173.291428 
L 177.282975 173.050285 
L 177.409132 173.281035 
L 177.53529 172.906952 
L 177.661448 173.402601 
L 177.913764 172.968195 
L 178.039922 173.52749 
L 178.292237 173.186993 
L 178.418395 173.574206 
L 178.796869 172.729399 
L 178.923027 172.809995 
L 179.175342 173.300573 
L 179.3015 173.171581 
L 179.427658 173.333213 
L 179.679974 173.005317 
L 179.806132 173.111032 
L 179.93229 173.474983 
L 180.058447 173.189016 
L 180.184605 173.313667 
L 180.436921 173.29737 
L 180.563079 172.771653 
L 180.689237 173.149624 
L 180.815395 173.003296 
L 180.941553 173.27991 
L 181.06771 172.719128 
L 181.193868 172.764296 
L 181.320026 172.286254 
L 181.446184 173.53412 
L 181.572342 173.476172 
L 181.6985 172.775551 
L 181.950815 173.573233 
L 182.076973 173.23868 
L 182.203131 173.310741 
L 182.329289 173.191894 
L 182.455447 173.368718 
L 182.581605 173.252375 
L 182.707763 173.370326 
L 182.83392 172.77699 
L 182.960078 173.387159 
L 183.086236 172.814887 
L 183.212394 173.44632 
L 183.338552 172.8483 
L 183.590868 173.453692 
L 183.843183 172.997541 
L 183.969341 173.282904 
L 184.095499 173.067613 
L 184.221657 173.512976 
L 184.347815 172.810049 
L 184.473973 172.870892 
L 184.60013 173.42495 
L 184.726288 172.575115 
L 185.104762 173.349242 
L 185.23092 173.235589 
L 185.357078 172.877139 
L 185.483235 173.330655 
L 185.609393 173.097714 
L 185.861709 173.352962 
L 185.987867 172.806053 
L 186.114025 173.43329 
L 186.240183 173.224084 
L 186.366341 172.442607 
L 186.492498 173.161407 
L 186.618656 173.039797 
L 186.744814 173.654138 
L 186.99713 172.873925 
L 187.123288 173.40116 
L 187.249446 173.428234 
L 187.627919 171.727753 
L 187.754077 173.355098 
L 187.880235 173.535446 
L 188.132551 172.452486 
L 188.384866 173.522611 
L 188.511024 172.982089 
L 188.637182 173.248722 
L 188.76334 172.02668 
L 189.015656 173.377769 
L 189.141813 173.177058 
L 189.267971 172.330358 
L 189.394129 172.46502 
L 189.520287 173.007758 
L 189.646445 172.283576 
L 190.024918 173.126559 
L 190.151076 172.228243 
L 190.403392 173.171165 
L 190.52955 173.46428 
L 190.781866 173.371084 
L 190.908023 173.432485 
L 191.160339 172.662569 
L 191.286497 173.432065 
L 191.412655 173.405555 
L 191.664971 172.597245 
L 191.917286 172.940809 
L 192.043444 173.393639 
L 192.421918 171.687936 
L 192.548076 173.498638 
L 192.674234 172.367911 
L 192.800391 172.386248 
L 192.926549 172.098738 
L 193.052707 173.419214 
L 193.178865 172.942144 
L 193.305023 172.987735 
L 193.431181 173.361862 
L 193.809654 172.032216 
L 193.935812 168.803612 
L 194.06197 170.401041 
L 194.188128 160.966833 
L 194.440444 165.801977 
L 194.566601 171.436133 
L 194.692759 170.734401 
L 194.818917 172.653953 
L 194.945075 172.847513 
L 195.071233 172.54376 
L 195.197391 173.348206 
L 195.449706 172.647594 
L 195.575864 172.886776 
L 195.702022 171.952344 
L 195.82818 172.729505 
L 195.954338 172.10525 
L 196.080496 173.034938 
L 196.206654 172.976903 
L 196.332811 173.200323 
L 196.458969 172.387424 
L 196.585127 173.467648 
L 196.711285 172.533004 
L 196.837443 173.058508 
L 196.963601 173.061525 
L 197.089759 172.281628 
L 197.342074 173.369677 
L 197.468232 171.940664 
L 197.972864 173.106324 
L 198.099022 172.860726 
L 198.225179 173.000774 
L 198.477495 172.206186 
L 198.603653 173.008332 
L 198.855969 172.506682 
L 199.108284 173.241328 
L 199.3606 172.542062 
L 199.486758 173.578261 
L 199.612916 173.132682 
L 199.739074 172.153017 
L 199.865232 172.61043 
L 199.991389 172.299121 
L 200.243705 173.237583 
L 200.369863 173.162299 
L 200.622179 172.264192 
L 200.748337 172.724294 
L 200.874494 172.76274 
L 201.000652 172.396015 
L 201.12681 173.359392 
L 201.252968 172.64918 
L 201.505284 173.2045 
L 201.631442 172.891413 
L 201.757599 173.179535 
L 201.883757 172.588928 
L 202.009915 173.163244 
L 202.136073 172.880299 
L 202.262231 173.068755 
L 202.514547 172.379757 
L 202.640705 173.577072 
L 202.766862 172.970286 
L 202.89302 173.471146 
L 203.145336 172.790182 
L 203.271494 173.39062 
L 203.649967 172.842271 
L 203.776125 173.390385 
L 203.902283 173.247474 
L 204.028441 172.822929 
L 204.154599 173.25608 
L 204.280757 172.983727 
L 204.406915 173.006671 
L 204.533072 173.303456 
L 204.65923 173.145113 
L 204.785388 172.742526 
L 205.037704 173.355122 
L 205.163862 173.370286 
L 205.29002 172.874259 
L 205.416177 173.403279 
L 205.794651 172.841534 
L 206.046967 173.355351 
L 206.299282 172.953129 
L 206.42544 173.590295 
L 206.551598 173.084083 
L 206.677756 173.285106 
L 206.803914 173.051151 
L 206.930072 173.087831 
L 207.05623 173.456573 
L 207.182387 173.334964 
L 207.308545 172.696417 
L 207.434703 173.380415 
L 207.687019 173.329873 
L 207.813177 173.456433 
L 207.939335 172.967322 
L 208.065492 173.144222 
L 208.19165 173.518276 
L 208.317808 173.422054 
L 208.443966 173.083539 
L 208.696282 173.454505 
L 208.82244 173.34435 
L 209.074755 173.473896 
L 209.200913 173.275566 
L 209.327071 173.45757 
L 209.579387 173.239039 
L 209.705545 173.162137 
L 209.95786 173.511239 
L 210.210176 173.175672 
L 210.336334 173.45672 
L 210.58865 173.349712 
L 210.714808 173.285092 
L 210.840965 173.623546 
L 210.967123 173.55997 
L 211.093281 172.705116 
L 211.219439 173.552648 
L 211.471755 173.494487 
L 211.597913 173.552562 
L 211.850228 173.287383 
L 212.228702 173.082679 
L 212.35486 172.851418 
L 212.607175 173.582516 
L 212.733333 173.238164 
L 212.859491 173.391634 
L 213.237965 173.315426 
L 213.364123 173.339129 
L 213.49028 173.569309 
L 213.742596 173.143878 
L 213.868754 172.920393 
L 213.994912 173.437133 
L 214.12107 173.358343 
L 214.247228 173.08605 
L 214.625701 173.597169 
L 214.751859 173.139669 
L 215.004175 173.602937 
L 215.256491 172.905162 
L 215.382648 173.647977 
L 215.508806 173.179935 
L 215.634964 173.375863 
L 215.761122 173.359605 
L 215.88728 173.589718 
L 216.139596 173.457387 
L 216.265753 173.252586 
L 216.518069 173.371176 
L 216.644227 173.069076 
L 216.770385 173.500046 
L 217.022701 173.461544 
L 217.148858 173.59314 
L 217.401174 173.302752 
L 217.527332 173.533477 
L 217.65349 173.522885 
L 217.779648 173.079054 
L 217.905806 173.516804 
L 218.031963 173.383496 
L 218.284279 173.399295 
L 218.410437 173.325338 
L 218.536595 173.406437 
L 218.662753 173.349799 
L 218.788911 173.043188 
L 218.915068 173.487274 
L 219.041226 173.325637 
L 219.167384 173.370957 
L 219.293542 173.586959 
L 219.4197 173.103026 
L 219.672016 173.584467 
L 219.798174 173.236426 
L 219.924331 173.630181 
L 220.050489 173.15299 
L 220.302805 173.37562 
L 220.428963 173.551189 
L 220.681279 173.166147 
L 220.807436 173.572736 
L 220.933594 173.312743 
L 221.564384 173.335672 
L 221.690541 173.516423 
L 222.069015 173.207155 
L 222.195173 173.569709 
L 222.573646 173.233073 
L 222.699804 173.393731 
L 222.825962 173.300758 
L 223.204436 173.551578 
L 223.330594 172.902825 
L 223.456751 173.260606 
L 223.582909 172.977705 
L 223.709067 173.313386 
L 223.835225 173.198508 
L 223.961383 173.546524 
L 224.087541 173.361398 
L 224.213699 173.497262 
L 224.71833 173.318686 
L 224.844488 172.880136 
L 224.970646 173.187053 
L 225.096804 173.044128 
L 225.222962 173.583982 
L 225.475277 172.857594 
L 225.727593 173.27238 
L 225.979909 173.482769 
L 226.106067 173.109729 
L 226.232224 173.155433 
L 226.358382 173.581527 
L 226.736856 172.683138 
L 227.115329 172.894805 
L 227.619961 173.37853 
L 227.746119 173.172743 
L 227.872277 173.379472 
L 227.998434 173.173151 
L 228.124592 173.292808 
L 228.376908 173.118043 
L 228.503066 173.459135 
L 228.629224 173.038714 
L 228.755382 173.33634 
L 228.881539 172.934577 
L 229.007697 173.306397 
L 229.133855 173.060875 
L 229.260013 173.092226 
L 229.386171 172.999471 
L 229.512329 173.457579 
L 229.638487 173.393954 
L 229.890802 173.034216 
L 230.143118 173.260465 
L 230.269276 173.106001 
L 230.395434 172.6486 
L 230.521592 173.415731 
L 230.64775 173.34217 
L 230.773907 173.035239 
L 230.900065 173.087394 
L 231.026223 173.461473 
L 231.278539 172.932328 
L 231.404697 173.205565 
L 231.530855 172.734577 
L 231.657012 173.385958 
L 231.909328 172.89796 
L 232.035486 173.574463 
L 232.287802 173.070961 
L 232.41396 172.24248 
L 232.666275 173.497246 
L 232.792433 172.763297 
L 232.918591 173.257384 
L 233.170907 173.137678 
L 233.297065 173.4122 
L 233.423222 172.94666 
L 233.54938 173.258489 
L 233.675538 171.633946 
L 233.801696 173.01025 
L 234.18017 172.301224 
L 234.306327 173.06329 
L 234.432485 172.876762 
L 234.684801 173.429563 
L 234.937117 172.644715 
L 235.063275 173.275048 
L 235.189432 172.869233 
L 235.31559 173.223645 
L 235.441748 173.140732 
L 235.567906 173.288926 
L 235.694064 172.459221 
L 235.820222 172.643441 
L 235.94638 173.388638 
L 236.198695 171.89648 
L 236.324853 173.455192 
L 236.451011 172.836882 
L 236.577169 172.913276 
L 236.703327 172.506129 
L 236.829485 173.555987 
L 236.955643 173.45527 
L 237.0818 173.085682 
L 237.334116 173.443477 
L 237.460274 172.976752 
L 237.586432 173.228909 
L 237.838748 172.486105 
L 237.964905 173.414684 
L 238.091063 173.501461 
L 238.217221 173.266171 
L 238.343379 172.380066 
L 238.595695 172.614751 
L 238.721853 173.220844 
L 238.84801 173.099824 
L 239.100326 172.388276 
L 239.226484 172.944932 
L 239.352642 171.96836 
L 239.4788 172.468749 
L 239.604958 172.32341 
L 239.731115 172.847102 
L 239.857273 172.83097 
L 239.983431 170.805407 
L 240.109589 170.952217 
L 240.235747 170.234905 
L 240.361905 156.837073 
L 240.488063 172.698922 
L 240.61422 167.281383 
L 240.740378 171.6455 
L 240.992694 172.474043 
L 241.118852 173.197016 
L 241.371168 172.727529 
L 241.497326 172.833365 
L 241.623483 171.923623 
L 241.749641 172.869348 
L 241.875799 172.095338 
L 242.001957 172.91763 
L 242.128115 172.790848 
L 242.380431 173.24382 
L 242.506588 173.036712 
L 242.632746 173.393614 
L 242.758904 173.009323 
L 242.885062 173.112672 
L 243.01122 173.482298 
L 243.137378 172.199417 
L 243.389693 173.423045 
L 243.515851 172.114061 
L 243.768167 173.418526 
L 243.894325 173.215032 
L 244.020483 173.551303 
L 244.146641 172.355169 
L 244.272798 173.558524 
L 244.398956 173.480937 
L 244.525114 172.055863 
L 244.651272 172.519055 
L 244.77743 172.119518 
L 244.903588 173.198835 
L 245.029746 172.884115 
L 245.155903 173.276926 
L 245.408219 172.728819 
L 245.660535 173.081329 
L 245.786693 172.765358 
L 245.912851 173.358922 
L 246.039008 172.511361 
L 246.54364 173.340126 
L 246.795956 172.638563 
L 246.922114 172.637422 
L 247.048271 172.821986 
L 247.174429 172.655877 
L 247.300587 173.405955 
L 247.426745 172.874014 
L 247.552903 172.900025 
L 247.679061 172.733691 
L 247.805219 172.972963 
L 247.931376 172.940972 
L 248.057534 172.389459 
L 248.30985 173.29468 
L 248.436008 172.420179 
L 248.688324 172.84234 
L 248.814481 172.996526 
L 248.940639 173.358916 
L 249.571429 173.07811 
L 249.697586 173.469776 
L 249.823744 173.281314 
L 249.949902 173.408442 
L 250.202218 172.659574 
L 250.454534 173.024767 
L 250.580691 173.286618 
L 250.706849 172.785311 
L 250.833007 173.505663 
L 250.959165 173.216391 
L 251.211481 173.26638 
L 251.337639 172.969482 
L 251.463796 173.372719 
L 251.589954 173.378005 
L 251.716112 172.847348 
L 252.220744 173.52532 
L 252.599217 172.905831 
L 252.725375 173.597988 
L 252.977691 172.921594 
L 253.103849 173.418729 
L 253.230007 172.950045 
L 253.356164 172.927669 
L 253.60848 173.33111 
L 253.734638 173.197586 
L 253.860796 173.524222 
L 253.986954 173.165137 
L 254.113112 173.375062 
L 254.239269 173.328816 
L 254.365427 172.82254 
L 254.617743 173.273282 
L 254.743901 173.507165 
L 254.870059 173.275669 
L 255.122374 173.400736 
L 255.248532 173.239525 
L 255.627006 173.372715 
L 255.753164 173.241501 
L 255.879322 173.382951 
L 256.005479 173.355758 
L 256.131637 173.590039 
L 256.257795 173.336526 
L 256.383953 173.487773 
L 256.636269 173.212255 
L 257.014742 173.511487 
L 257.1409 172.991062 
L 257.393216 173.582215 
L 257.519374 173.300746 
L 257.897847 173.214808 
L 258.024005 173.625868 
L 258.276321 173.140977 
L 258.402479 173.050671 
L 258.654795 173.547812 
L 259.033268 173.323437 
L 259.159426 173.545707 
L 259.411742 173.134182 
L 259.5379 173.315669 
L 259.916373 173.287045 
L 260.168689 173.601563 
L 260.294847 173.338732 
L 260.925636 173.369549 
L 261.051794 172.983241 
L 261.177952 173.234966 
L 261.30411 172.893541 
L 261.430267 173.504778 
L 261.556425 173.373369 
L 261.934899 173.562354 
L 262.061057 173.231437 
L 262.187215 173.617727 
L 262.313372 173.395457 
L 262.43953 173.431866 
L 262.565688 173.033914 
L 262.691846 173.501911 
L 263.196477 173.476832 
L 263.448793 173.627734 
L 263.574951 173.30772 
L 263.827267 173.448706 
L 264.079583 173.268038 
L 264.20574 173.435636 
L 264.331898 173.164841 
L 264.458056 173.643606 
L 264.710372 173.253053 
L 264.962688 173.514294 
L 265.215003 173.198879 
L 265.341161 173.543577 
L 265.593477 173.369321 
L 265.719635 173.596586 
L 266.350424 173.229248 
L 266.476582 173.43426 
L 266.728898 173.21625 
L 266.855055 173.415504 
L 266.981213 173.24668 
L 267.233529 173.441822 
L 267.359687 173.224958 
L 267.485845 173.571406 
L 267.73816 173.155714 
L 267.864318 173.58959 
L 267.990476 173.371449 
L 268.116634 173.635913 
L 268.242792 173.353459 
L 268.495108 173.589138 
L 268.747423 173.350388 
L 268.873581 173.458012 
L 268.999739 173.194279 
L 269.252055 173.585228 
L 269.378213 172.985148 
L 269.504371 173.443071 
L 269.630528 173.299129 
L 269.756686 173.408975 
L 269.882844 173.289985 
L 270.009002 173.521525 
L 270.13516 173.252426 
L 270.261318 173.56939 
L 270.513633 173.380665 
L 270.639791 173.303531 
L 270.765949 173.387274 
L 270.892107 173.158247 
L 271.018265 173.427515 
L 271.144423 173.237152 
L 271.270581 173.561071 
L 271.396738 173.567199 
L 271.522896 173.146864 
L 271.649054 173.426544 
L 271.775212 173.125948 
L 272.027528 173.613901 
L 272.279843 173.337583 
L 272.406001 173.575269 
L 272.532159 173.408026 
L 272.658317 173.612984 
L 272.784475 173.159698 
L 272.910633 173.349452 
L 273.162948 173.139704 
L 273.289106 173.48822 
L 273.541422 173.196942 
L 273.793738 173.558863 
L 274.046053 173.308444 
L 274.172211 173.572535 
L 274.298369 173.117424 
L 274.424527 173.176297 
L 274.550685 173.492273 
L 274.676843 173.308834 
L 274.803001 173.463931 
L 274.929159 173.353699 
L 275.181474 173.521859 
L 275.307632 173.448101 
L 275.43379 173.533195 
L 275.686106 173.162729 
L 275.812264 173.304533 
L 276.316895 173.101512 
L 276.443053 173.029771 
L 276.569211 173.473115 
L 276.695369 173.37106 
L 276.821526 173.630486 
L 276.947684 173.394094 
L 277.2 173.5563 
L 277.326158 173.334143 
L 277.326158 173.334143 
" clip-path="url(#p2cefcc4a3c)" style="fill: none; stroke: #66c2a5; stroke-linecap: round"/>
   </g>
   <g id="patch_3">
    <path d="M 45.12 181.416412 
L 45.12 10.8 
" style="fill: none; stroke: #cccccc; stroke-linejoin: miter; stroke-linecap: square"/>
   </g>
   <g id="patch_4">
    <path d="M 277.2 181.416412 
L 277.2 10.8 
" style="fill: none; stroke: #cccccc; stroke-linejoin: miter; stroke-linecap: square"/>
   </g>
   <g id="patch_5">
    <path d="M 45.12 181.416412 
L 277.2 181.416412 
" style="fill: none; stroke: #cccccc; stroke-linejoin: miter; stroke-linecap: square"/>
   </g>
   <g id="patch_6">
    <path d="M 45.12 10.8 
L 277.2 10.8 
" style="fill: none; stroke: #cccccc; stroke-linejoin: miter; stroke-linecap: square"/>
   </g>
  </g>
 </g>
 <defs>
  <clipPath id="p2cefcc4a3c">
   <rect x="45.12" y="10.8" width="232.08" height="170.616412"/>
  </clipPath>
 </defs>
</svg>
