<?xml version="1.0" encoding="utf-8" standalone="no"?>
<!DOCTYPE svg PUBLIC "-//W3C//DTD SVG 1.1//EN"
  "http://www.w3.org/Graphics/SVG/1.1/DTD/svg11.dtd">
<svg xmlns:xlink="http://www.w3.org/1999/xlink" width="288pt" height="230.4pt" viewBox="0 0 288 230.4" xmlns="http://www.w3.org/2000/svg" version="1.1">
 <metadata>
  <rdf:RDF xmlns:dc="http://purl.org/dc/elements/1.1/" xmlns:cc="http://creativecommons.org/ns#" xmlns:rdf="http://www.w3.org/1999/02/22-rdf-syntax-ns#">
   <cc:Work>
    <dc:type rdf:resource="http://purl.org/dc/dcmitype/StillImage"/>
    <dc:date>2024-07-21T17:28:17.966097</dc:date>
    <dc:format>image/svg+xml</dc:format>
    <dc:creator>
     <cc:Agent>
      <dc:title>Matplotlib v3.9.0, https://matplotlib.org/</dc:title>
     </cc:Agent>
    </dc:creator>
   </cc:Work>
  </rdf:RDF>
 </metadata>
 <defs>
  <style type="text/css">*{stroke-linejoin: round; stroke-linecap: butt}</style>
 </defs>
 <g id="figure_1">
  <g id="patch_1">
   <path d="M 0 230.4 
L 288 230.4 
L 288 0 
L 0 0 
z
" style="fill: #ffffff"/>
  </g>
  <g id="axes_1">
   <g id="patch_2">
    <path d="M 45.12 181.416412 
L 277.2 181.416412 
L 277.2 10.8 
L 45.12 10.8 
z
" style="fill: #ffffff"/>
   </g>
   <g id="matplotlib.axis_1">
    <g id="xtick_1">
     <g id="line2d_1">
      <path d="M 240.361905 181.416412 
L 240.361905 10.8 
" clip-path="url(#p364c01e7f0)" style="fill: none; stroke: #cccccc; stroke-width: 0.8; stroke-linecap: round"/>
     </g>
     <g id="line2d_2"/>
     <g id="text_1">
      <!-- 6 hours -->
      <g style="fill: #262626" transform="translate(215.373414 213.560866) rotate(-45) scale(0.1 -0.1)">
       <defs>
        <path id="ArialMT-36" d="M 3184 3459 
L 2625 3416 
Q 2550 3747 2413 3897 
Q 2184 4138 1850 4138 
Q 1581 4138 1378 3988 
Q 1113 3794 959 3422 
Q 806 3050 800 2363 
Q 1003 2672 1297 2822 
Q 1591 2972 1913 2972 
Q 2475 2972 2870 2558 
Q 3266 2144 3266 1488 
Q 3266 1056 3080 686 
Q 2894 316 2569 119 
Q 2244 -78 1831 -78 
Q 1128 -78 684 439 
Q 241 956 241 2144 
Q 241 3472 731 4075 
Q 1159 4600 1884 4600 
Q 2425 4600 2770 4297 
Q 3116 3994 3184 3459 
z
M 888 1484 
Q 888 1194 1011 928 
Q 1134 663 1356 523 
Q 1578 384 1822 384 
Q 2178 384 2434 671 
Q 2691 959 2691 1453 
Q 2691 1928 2437 2201 
Q 2184 2475 1800 2475 
Q 1419 2475 1153 2201 
Q 888 1928 888 1484 
z
" transform="scale(0.015625)"/>
        <path id="ArialMT-20" transform="scale(0.015625)"/>
        <path id="ArialMT-68" d="M 422 0 
L 422 4581 
L 984 4581 
L 984 2938 
Q 1378 3394 1978 3394 
Q 2347 3394 2619 3248 
Q 2891 3103 3008 2847 
Q 3125 2591 3125 2103 
L 3125 0 
L 2563 0 
L 2563 2103 
Q 2563 2525 2380 2717 
Q 2197 2909 1863 2909 
Q 1613 2909 1392 2779 
Q 1172 2650 1078 2428 
Q 984 2206 984 1816 
L 984 0 
L 422 0 
z
" transform="scale(0.015625)"/>
        <path id="ArialMT-6f" d="M 213 1659 
Q 213 2581 725 3025 
Q 1153 3394 1769 3394 
Q 2453 3394 2887 2945 
Q 3322 2497 3322 1706 
Q 3322 1066 3130 698 
Q 2938 331 2570 128 
Q 2203 -75 1769 -75 
Q 1072 -75 642 372 
Q 213 819 213 1659 
z
M 791 1659 
Q 791 1022 1069 705 
Q 1347 388 1769 388 
Q 2188 388 2466 706 
Q 2744 1025 2744 1678 
Q 2744 2294 2464 2611 
Q 2184 2928 1769 2928 
Q 1347 2928 1069 2612 
Q 791 2297 791 1659 
z
" transform="scale(0.015625)"/>
        <path id="ArialMT-75" d="M 2597 0 
L 2597 488 
Q 2209 -75 1544 -75 
Q 1250 -75 995 37 
Q 741 150 617 320 
Q 494 491 444 738 
Q 409 903 409 1263 
L 409 3319 
L 972 3319 
L 972 1478 
Q 972 1038 1006 884 
Q 1059 663 1231 536 
Q 1403 409 1656 409 
Q 1909 409 2131 539 
Q 2353 669 2445 892 
Q 2538 1116 2538 1541 
L 2538 3319 
L 3100 3319 
L 3100 0 
L 2597 0 
z
" transform="scale(0.015625)"/>
        <path id="ArialMT-72" d="M 416 0 
L 416 3319 
L 922 3319 
L 922 2816 
Q 1116 3169 1280 3281 
Q 1444 3394 1641 3394 
Q 1925 3394 2219 3213 
L 2025 2691 
Q 1819 2813 1613 2813 
Q 1428 2813 1281 2702 
Q 1134 2591 1072 2394 
Q 978 2094 978 1738 
L 978 0 
L 416 0 
z
" transform="scale(0.015625)"/>
        <path id="ArialMT-73" d="M 197 991 
L 753 1078 
Q 800 744 1014 566 
Q 1228 388 1613 388 
Q 2000 388 2187 545 
Q 2375 703 2375 916 
Q 2375 1106 2209 1216 
Q 2094 1291 1634 1406 
Q 1016 1563 777 1677 
Q 538 1791 414 1992 
Q 291 2194 291 2438 
Q 291 2659 392 2848 
Q 494 3038 669 3163 
Q 800 3259 1026 3326 
Q 1253 3394 1513 3394 
Q 1903 3394 2198 3281 
Q 2494 3169 2634 2976 
Q 2775 2784 2828 2463 
L 2278 2388 
Q 2241 2644 2061 2787 
Q 1881 2931 1553 2931 
Q 1166 2931 1000 2803 
Q 834 2675 834 2503 
Q 834 2394 903 2306 
Q 972 2216 1119 2156 
Q 1203 2125 1616 2013 
Q 2213 1853 2448 1751 
Q 2684 1650 2818 1456 
Q 2953 1263 2953 975 
Q 2953 694 2789 445 
Q 2625 197 2315 61 
Q 2006 -75 1616 -75 
Q 969 -75 630 194 
Q 291 463 197 991 
z
" transform="scale(0.015625)"/>
       </defs>
       <use xlink:href="#ArialMT-36"/>
       <use xlink:href="#ArialMT-20" x="55.615234"/>
       <use xlink:href="#ArialMT-68" x="83.398438"/>
       <use xlink:href="#ArialMT-6f" x="139.013672"/>
       <use xlink:href="#ArialMT-75" x="194.628906"/>
       <use xlink:href="#ArialMT-72" x="250.244141"/>
       <use xlink:href="#ArialMT-73" x="283.544922"/>
      </g>
     </g>
    </g>
    <g id="xtick_2">
     <g id="line2d_3">
      <path d="M 194.314286 181.416412 
L 194.314286 10.8 
" clip-path="url(#p364c01e7f0)" style="fill: none; stroke: #cccccc; stroke-width: 0.8; stroke-linecap: round"/>
     </g>
     <g id="line2d_4"/>
     <g id="text_2">
      <!-- 8 hours -->
      <g style="fill: #262626" transform="translate(169.325795 213.560866) rotate(-45) scale(0.1 -0.1)">
       <defs>
        <path id="ArialMT-38" d="M 1131 2484 
Q 781 2613 612 2850 
Q 444 3088 444 3419 
Q 444 3919 803 4259 
Q 1163 4600 1759 4600 
Q 2359 4600 2725 4251 
Q 3091 3903 3091 3403 
Q 3091 3084 2923 2848 
Q 2756 2613 2416 2484 
Q 2838 2347 3058 2040 
Q 3278 1734 3278 1309 
Q 3278 722 2862 322 
Q 2447 -78 1769 -78 
Q 1091 -78 675 323 
Q 259 725 259 1325 
Q 259 1772 486 2073 
Q 713 2375 1131 2484 
z
M 1019 3438 
Q 1019 3113 1228 2906 
Q 1438 2700 1772 2700 
Q 2097 2700 2305 2904 
Q 2513 3109 2513 3406 
Q 2513 3716 2298 3927 
Q 2084 4138 1766 4138 
Q 1444 4138 1231 3931 
Q 1019 3725 1019 3438 
z
M 838 1322 
Q 838 1081 952 856 
Q 1066 631 1291 507 
Q 1516 384 1775 384 
Q 2178 384 2440 643 
Q 2703 903 2703 1303 
Q 2703 1709 2433 1975 
Q 2163 2241 1756 2241 
Q 1359 2241 1098 1978 
Q 838 1716 838 1322 
z
" transform="scale(0.015625)"/>
       </defs>
       <use xlink:href="#ArialMT-38"/>
       <use xlink:href="#ArialMT-20" x="55.615234"/>
       <use xlink:href="#ArialMT-68" x="83.398438"/>
       <use xlink:href="#ArialMT-6f" x="139.013672"/>
       <use xlink:href="#ArialMT-75" x="194.628906"/>
       <use xlink:href="#ArialMT-72" x="250.244141"/>
       <use xlink:href="#ArialMT-73" x="283.544922"/>
      </g>
     </g>
    </g>
    <g id="xtick_3">
     <g id="line2d_5">
      <path d="M 148.266667 181.416412 
L 148.266667 10.8 
" clip-path="url(#p364c01e7f0)" style="fill: none; stroke: #cccccc; stroke-width: 0.8; stroke-linecap: round"/>
     </g>
     <g id="line2d_6"/>
     <g id="text_3">
      <!-- 12 hours -->
      <g style="fill: #262626" transform="translate(119.345999 217.493043) rotate(-45) scale(0.1 -0.1)">
       <defs>
        <path id="ArialMT-31" d="M 2384 0 
L 1822 0 
L 1822 3584 
Q 1619 3391 1289 3197 
Q 959 3003 697 2906 
L 697 3450 
Q 1169 3672 1522 3987 
Q 1875 4303 2022 4600 
L 2384 4600 
L 2384 0 
z
" transform="scale(0.015625)"/>
        <path id="ArialMT-32" d="M 3222 541 
L 3222 0 
L 194 0 
Q 188 203 259 391 
Q 375 700 629 1000 
Q 884 1300 1366 1694 
Q 2113 2306 2375 2664 
Q 2638 3022 2638 3341 
Q 2638 3675 2398 3904 
Q 2159 4134 1775 4134 
Q 1369 4134 1125 3890 
Q 881 3647 878 3216 
L 300 3275 
Q 359 3922 746 4261 
Q 1134 4600 1788 4600 
Q 2447 4600 2831 4234 
Q 3216 3869 3216 3328 
Q 3216 3053 3103 2787 
Q 2991 2522 2730 2228 
Q 2469 1934 1863 1422 
Q 1356 997 1212 845 
Q 1069 694 975 541 
L 3222 541 
z
" transform="scale(0.015625)"/>
       </defs>
       <use xlink:href="#ArialMT-31"/>
       <use xlink:href="#ArialMT-32" x="55.615234"/>
       <use xlink:href="#ArialMT-20" x="111.230469"/>
       <use xlink:href="#ArialMT-68" x="139.013672"/>
       <use xlink:href="#ArialMT-6f" x="194.628906"/>
       <use xlink:href="#ArialMT-75" x="250.244141"/>
       <use xlink:href="#ArialMT-72" x="305.859375"/>
       <use xlink:href="#ArialMT-73" x="339.160156"/>
      </g>
     </g>
    </g>
    <g id="xtick_4">
     <g id="line2d_7">
      <path d="M 102.219048 181.416412 
L 102.219048 10.8 
" clip-path="url(#p364c01e7f0)" style="fill: none; stroke: #cccccc; stroke-width: 0.8; stroke-linecap: round"/>
     </g>
     <g id="line2d_8"/>
     <g id="text_4">
      <!-- Daily -->
      <g style="fill: #262626" transform="translate(85.014256 205.694303) rotate(-45) scale(0.1 -0.1)">
       <defs>
        <path id="ArialMT-44" d="M 494 0 
L 494 4581 
L 2072 4581 
Q 2606 4581 2888 4516 
Q 3281 4425 3559 4188 
Q 3922 3881 4101 3404 
Q 4281 2928 4281 2316 
Q 4281 1794 4159 1391 
Q 4038 988 3847 723 
Q 3656 459 3429 307 
Q 3203 156 2883 78 
Q 2563 0 2147 0 
L 494 0 
z
M 1100 541 
L 2078 541 
Q 2531 541 2789 625 
Q 3047 709 3200 863 
Q 3416 1078 3536 1442 
Q 3656 1806 3656 2325 
Q 3656 3044 3420 3430 
Q 3184 3816 2847 3947 
Q 2603 4041 2063 4041 
L 1100 4041 
L 1100 541 
z
" transform="scale(0.015625)"/>
        <path id="ArialMT-61" d="M 2588 409 
Q 2275 144 1986 34 
Q 1697 -75 1366 -75 
Q 819 -75 525 192 
Q 231 459 231 875 
Q 231 1119 342 1320 
Q 453 1522 633 1644 
Q 813 1766 1038 1828 
Q 1203 1872 1538 1913 
Q 2219 1994 2541 2106 
Q 2544 2222 2544 2253 
Q 2544 2597 2384 2738 
Q 2169 2928 1744 2928 
Q 1347 2928 1158 2789 
Q 969 2650 878 2297 
L 328 2372 
Q 403 2725 575 2942 
Q 747 3159 1072 3276 
Q 1397 3394 1825 3394 
Q 2250 3394 2515 3294 
Q 2781 3194 2906 3042 
Q 3031 2891 3081 2659 
Q 3109 2516 3109 2141 
L 3109 1391 
Q 3109 606 3145 398 
Q 3181 191 3288 0 
L 2700 0 
Q 2613 175 2588 409 
z
M 2541 1666 
Q 2234 1541 1622 1453 
Q 1275 1403 1131 1340 
Q 988 1278 909 1158 
Q 831 1038 831 891 
Q 831 666 1001 516 
Q 1172 366 1500 366 
Q 1825 366 2078 508 
Q 2331 650 2450 897 
Q 2541 1088 2541 1459 
L 2541 1666 
z
" transform="scale(0.015625)"/>
        <path id="ArialMT-69" d="M 425 3934 
L 425 4581 
L 988 4581 
L 988 3934 
L 425 3934 
z
M 425 0 
L 425 3319 
L 988 3319 
L 988 0 
L 425 0 
z
" transform="scale(0.015625)"/>
        <path id="ArialMT-6c" d="M 409 0 
L 409 4581 
L 972 4581 
L 972 0 
L 409 0 
z
" transform="scale(0.015625)"/>
        <path id="ArialMT-79" d="M 397 -1278 
L 334 -750 
Q 519 -800 656 -800 
Q 844 -800 956 -737 
Q 1069 -675 1141 -563 
Q 1194 -478 1313 -144 
Q 1328 -97 1363 -6 
L 103 3319 
L 709 3319 
L 1400 1397 
Q 1534 1031 1641 628 
Q 1738 1016 1872 1384 
L 2581 3319 
L 3144 3319 
L 1881 -56 
Q 1678 -603 1566 -809 
Q 1416 -1088 1222 -1217 
Q 1028 -1347 759 -1347 
Q 597 -1347 397 -1278 
z
" transform="scale(0.015625)"/>
       </defs>
       <use xlink:href="#ArialMT-44"/>
       <use xlink:href="#ArialMT-61" x="72.216797"/>
       <use xlink:href="#ArialMT-69" x="127.832031"/>
       <use xlink:href="#ArialMT-6c" x="150.048828"/>
       <use xlink:href="#ArialMT-79" x="172.265625"/>
      </g>
     </g>
    </g>
    <g id="xtick_5">
     <g id="line2d_9">
      <path d="M 62.74966 181.416412 
L 62.74966 10.8 
" clip-path="url(#p364c01e7f0)" style="fill: none; stroke: #cccccc; stroke-width: 0.8; stroke-linecap: round"/>
     </g>
     <g id="line2d_10"/>
     <g id="text_5">
      <!-- Weekly -->
      <g style="fill: #262626" transform="translate(38.204216 213.034955) rotate(-45) scale(0.1 -0.1)">
       <defs>
        <path id="ArialMT-57" d="M 1294 0 
L 78 4581 
L 700 4581 
L 1397 1578 
Q 1509 1106 1591 641 
Q 1766 1375 1797 1488 
L 2669 4581 
L 3400 4581 
L 4056 2263 
Q 4303 1400 4413 641 
Q 4500 1075 4641 1638 
L 5359 4581 
L 5969 4581 
L 4713 0 
L 4128 0 
L 3163 3491 
Q 3041 3928 3019 4028 
Q 2947 3713 2884 3491 
L 1913 0 
L 1294 0 
z
" transform="scale(0.015625)"/>
        <path id="ArialMT-65" d="M 2694 1069 
L 3275 997 
Q 3138 488 2766 206 
Q 2394 -75 1816 -75 
Q 1088 -75 661 373 
Q 234 822 234 1631 
Q 234 2469 665 2931 
Q 1097 3394 1784 3394 
Q 2450 3394 2872 2941 
Q 3294 2488 3294 1666 
Q 3294 1616 3291 1516 
L 816 1516 
Q 847 969 1125 678 
Q 1403 388 1819 388 
Q 2128 388 2347 550 
Q 2566 713 2694 1069 
z
M 847 1978 
L 2700 1978 
Q 2663 2397 2488 2606 
Q 2219 2931 1791 2931 
Q 1403 2931 1139 2672 
Q 875 2413 847 1978 
z
" transform="scale(0.015625)"/>
        <path id="ArialMT-6b" d="M 425 0 
L 425 4581 
L 988 4581 
L 988 1969 
L 2319 3319 
L 3047 3319 
L 1778 2088 
L 3175 0 
L 2481 0 
L 1384 1697 
L 988 1316 
L 988 0 
L 425 0 
z
" transform="scale(0.015625)"/>
       </defs>
       <use xlink:href="#ArialMT-57"/>
       <use xlink:href="#ArialMT-65" x="92.634766"/>
       <use xlink:href="#ArialMT-65" x="148.25"/>
       <use xlink:href="#ArialMT-6b" x="203.865234"/>
       <use xlink:href="#ArialMT-6c" x="253.865234"/>
       <use xlink:href="#ArialMT-79" x="276.082031"/>
      </g>
     </g>
    </g>
   </g>
   <g id="matplotlib.axis_2">
    <g id="ytick_1">
     <g id="line2d_11"/>
     <g id="text_6">
      <!-- 0 -->
      <g style="fill: #262626" transform="translate(36.059063 177.242183) scale(0.1 -0.1)">
       <defs>
        <path id="ArialMT-30" d="M 266 2259 
Q 266 3072 433 3567 
Q 600 4063 929 4331 
Q 1259 4600 1759 4600 
Q 2128 4600 2406 4451 
Q 2684 4303 2865 4023 
Q 3047 3744 3150 3342 
Q 3253 2941 3253 2259 
Q 3253 1453 3087 958 
Q 2922 463 2592 192 
Q 2263 -78 1759 -78 
Q 1097 -78 719 397 
Q 266 969 266 2259 
z
M 844 2259 
Q 844 1131 1108 757 
Q 1372 384 1759 384 
Q 2147 384 2411 759 
Q 2675 1134 2675 2259 
Q 2675 3391 2411 3762 
Q 2147 4134 1753 4134 
Q 1366 4134 1134 3806 
Q 844 3388 844 2259 
z
" transform="scale(0.015625)"/>
       </defs>
       <use xlink:href="#ArialMT-30"/>
      </g>
     </g>
    </g>
    <g id="ytick_2">
     <g id="line2d_12"/>
     <g id="text_7">
      <!-- 25 -->
      <g style="fill: #262626" transform="translate(30.498125 154.728287) scale(0.1 -0.1)">
       <defs>
        <path id="ArialMT-35" d="M 266 1200 
L 856 1250 
Q 922 819 1161 601 
Q 1400 384 1738 384 
Q 2144 384 2425 690 
Q 2706 997 2706 1503 
Q 2706 1984 2436 2262 
Q 2166 2541 1728 2541 
Q 1456 2541 1237 2417 
Q 1019 2294 894 2097 
L 366 2166 
L 809 4519 
L 3088 4519 
L 3088 3981 
L 1259 3981 
L 1013 2750 
Q 1425 3038 1878 3038 
Q 2478 3038 2890 2622 
Q 3303 2206 3303 1553 
Q 3303 931 2941 478 
Q 2500 -78 1738 -78 
Q 1113 -78 717 272 
Q 322 622 266 1200 
z
" transform="scale(0.015625)"/>
       </defs>
       <use xlink:href="#ArialMT-32"/>
       <use xlink:href="#ArialMT-35" x="55.615234"/>
      </g>
     </g>
    </g>
    <g id="ytick_3">
     <g id="line2d_13"/>
     <g id="text_8">
      <!-- 50 -->
      <g style="fill: #262626" transform="translate(30.498125 132.21439) scale(0.1 -0.1)">
       <use xlink:href="#ArialMT-35"/>
       <use xlink:href="#ArialMT-30" x="55.615234"/>
      </g>
     </g>
    </g>
    <g id="ytick_4">
     <g id="line2d_14"/>
     <g id="text_9">
      <!-- 75 -->
      <g style="fill: #262626" transform="translate(30.498125 109.700493) scale(0.1 -0.1)">
       <defs>
        <path id="ArialMT-37" d="M 303 3981 
L 303 4522 
L 3269 4522 
L 3269 4084 
Q 2831 3619 2401 2847 
Q 1972 2075 1738 1259 
Q 1569 684 1522 0 
L 944 0 
Q 953 541 1156 1306 
Q 1359 2072 1739 2783 
Q 2119 3494 2547 3981 
L 303 3981 
z
" transform="scale(0.015625)"/>
       </defs>
       <use xlink:href="#ArialMT-37"/>
       <use xlink:href="#ArialMT-35" x="55.615234"/>
      </g>
     </g>
    </g>
    <g id="ytick_5">
     <g id="line2d_15"/>
     <g id="text_10">
      <!-- 100 -->
      <g style="fill: #262626" transform="translate(24.937188 87.186596) scale(0.1 -0.1)">
       <use xlink:href="#ArialMT-31"/>
       <use xlink:href="#ArialMT-30" x="55.615234"/>
       <use xlink:href="#ArialMT-30" x="111.230469"/>
      </g>
     </g>
    </g>
    <g id="ytick_6">
     <g id="line2d_16"/>
     <g id="text_11">
      <!-- 125 -->
      <g style="fill: #262626" transform="translate(24.937188 64.672699) scale(0.1 -0.1)">
       <use xlink:href="#ArialMT-31"/>
       <use xlink:href="#ArialMT-32" x="55.615234"/>
       <use xlink:href="#ArialMT-35" x="111.230469"/>
      </g>
     </g>
    </g>
    <g id="ytick_7">
     <g id="line2d_17"/>
     <g id="text_12">
      <!-- 150 -->
      <g style="fill: #262626" transform="translate(24.937188 42.158802) scale(0.1 -0.1)">
       <use xlink:href="#ArialMT-31"/>
       <use xlink:href="#ArialMT-35" x="55.615234"/>
       <use xlink:href="#ArialMT-30" x="111.230469"/>
      </g>
     </g>
    </g>
    <g id="ytick_8">
     <g id="line2d_18"/>
     <g id="text_13">
      <!-- 175 -->
      <g style="fill: #262626" transform="translate(24.937188 19.644905) scale(0.1 -0.1)">
       <use xlink:href="#ArialMT-31"/>
       <use xlink:href="#ArialMT-37" x="55.615234"/>
       <use xlink:href="#ArialMT-35" x="111.230469"/>
      </g>
     </g>
    </g>
    <g id="text_14">
     <!-- GW -->
     <g style="fill: #262626" transform="translate(18.949688 104.7168) rotate(-90) scale(0.1 -0.1)">
      <defs>
       <path id="ArialMT-47" d="M 2638 1797 
L 2638 2334 
L 4578 2338 
L 4578 638 
Q 4131 281 3656 101 
Q 3181 -78 2681 -78 
Q 2006 -78 1454 211 
Q 903 500 622 1047 
Q 341 1594 341 2269 
Q 341 2938 620 3517 
Q 900 4097 1425 4378 
Q 1950 4659 2634 4659 
Q 3131 4659 3532 4498 
Q 3934 4338 4162 4050 
Q 4391 3763 4509 3300 
L 3963 3150 
Q 3859 3500 3706 3700 
Q 3553 3900 3268 4020 
Q 2984 4141 2638 4141 
Q 2222 4141 1919 4014 
Q 1616 3888 1430 3681 
Q 1244 3475 1141 3228 
Q 966 2803 966 2306 
Q 966 1694 1177 1281 
Q 1388 869 1791 669 
Q 2194 469 2647 469 
Q 3041 469 3416 620 
Q 3791 772 3984 944 
L 3984 1797 
L 2638 1797 
z
" transform="scale(0.015625)"/>
      </defs>
      <use xlink:href="#ArialMT-47"/>
      <use xlink:href="#ArialMT-57" x="77.783203"/>
     </g>
    </g>
   </g>
   <g id="line2d_19">
    <path d="M 56.171429 56.454809 
L 56.67606 162.78019 
L 56.802218 146.37158 
L 56.928376 147.799369 
L 57.054534 159.752562 
L 57.306849 130.90524 
L 57.433007 130.875734 
L 57.685323 161.88562 
L 57.811481 140.049294 
L 57.937639 147.099011 
L 58.063796 161.925381 
L 58.189954 152.497594 
L 58.316112 155.419406 
L 58.44227 161.82749 
L 58.568428 154.673799 
L 58.694586 153.885814 
L 58.820744 132.831935 
L 58.946902 164.975966 
L 59.073059 154.697208 
L 59.199217 162.420286 
L 59.325375 153.846676 
L 59.577691 167.016617 
L 59.703849 149.953823 
L 59.830007 168.575303 
L 59.956164 152.806732 
L 60.082322 150.981148 
L 60.20848 169.986095 
L 60.334638 155.939717 
L 60.460796 155.390685 
L 60.586954 165.858356 
L 60.713112 155.852278 
L 60.839269 157.761729 
L 60.965427 150.489531 
L 61.091585 161.755806 
L 61.217743 130.364318 
L 61.343901 161.698983 
L 61.470059 143.003818 
L 61.596217 162.851014 
L 61.722374 162.607335 
L 61.848532 152.566718 
L 61.97469 169.482991 
L 62.100848 160.363038 
L 62.353164 162.833544 
L 62.479322 149.147282 
L 62.605479 157.497975 
L 62.857795 153.97817 
L 62.983953 159.750539 
L 63.110111 149.407896 
L 63.236269 150.514483 
L 63.362427 163.025597 
L 63.488584 162.457359 
L 63.614742 164.734381 
L 63.867058 162.280105 
L 63.993216 160.512619 
L 64.119374 167.435308 
L 64.245532 153.916819 
L 64.371689 169.470454 
L 64.497847 168.410332 
L 64.750163 151.862255 
L 64.876321 171.931168 
L 65.002479 161.314029 
L 65.128637 161.305619 
L 65.380952 155.973548 
L 65.50711 164.737522 
L 65.633268 163.30326 
L 65.759426 157.501197 
L 66.011742 167.6909 
L 66.1379 148.455723 
L 66.264057 163.458024 
L 66.516373 161.056065 
L 66.642531 156.486063 
L 66.894847 163.162287 
L 67.021005 156.804203 
L 67.27332 165.795057 
L 67.399478 167.371716 
L 67.525636 164.589025 
L 67.651794 166.700993 
L 67.777952 164.304734 
L 67.90411 164.884095 
L 68.156425 168.962271 
L 68.282583 168.921713 
L 68.534899 159.588592 
L 68.661057 162.794324 
L 68.787215 169.358961 
L 68.913372 161.88017 
L 69.03953 169.992022 
L 69.165688 162.801224 
L 69.418004 169.235827 
L 69.544162 165.233456 
L 69.796477 170.419039 
L 69.922635 157.778835 
L 70.048793 159.087531 
L 70.174951 166.484352 
L 70.301109 163.743184 
L 70.553425 167.841151 
L 70.80574 162.934823 
L 70.931898 166.8847 
L 71.058056 164.603442 
L 71.184214 169.746287 
L 71.43653 153.346903 
L 71.688845 167.476849 
L 71.941161 164.974525 
L 72.067319 168.225615 
L 72.193477 163.230138 
L 72.445793 166.579759 
L 72.698108 161.42653 
L 72.950424 170.849209 
L 73.076582 162.746017 
L 73.20274 164.326988 
L 73.328898 168.250821 
L 73.455055 162.047168 
L 73.581213 165.64174 
L 73.707371 165.806727 
L 73.833529 170.251625 
L 73.959687 169.320907 
L 74.085845 169.22404 
L 74.212003 172.597008 
L 74.464318 162.718409 
L 74.590476 171.592352 
L 74.716634 168.309415 
L 74.842792 169.919726 
L 74.96895 173.207421 
L 75.095108 164.310968 
L 75.221265 169.233983 
L 75.347423 164.139152 
L 75.599739 172.465533 
L 75.852055 168.883091 
L 75.978213 168.8851 
L 76.104371 169.812605 
L 76.230528 167.00435 
L 76.356686 167.307968 
L 76.482844 172.124494 
L 76.73516 168.639567 
L 76.861318 169.561434 
L 76.987476 171.955386 
L 77.113633 168.55656 
L 77.365949 173.062768 
L 77.492107 168.154187 
L 77.744423 167.373384 
L 77.870581 168.007654 
L 77.996738 169.412566 
L 78.122896 172.305824 
L 78.249054 169.668073 
L 78.375212 173.175573 
L 78.627528 171.391133 
L 78.753686 164.900107 
L 79.006001 172.764481 
L 79.132159 170.25838 
L 79.258317 172.367846 
L 79.384475 170.09424 
L 79.510633 171.623942 
L 79.636791 163.879203 
L 79.762948 166.657552 
L 79.889106 166.961226 
L 80.015264 168.395025 
L 80.141422 172.409134 
L 80.393738 169.502383 
L 80.519896 172.627165 
L 80.646053 169.611336 
L 80.772211 169.351162 
L 80.898369 171.673548 
L 81.024527 171.507565 
L 81.150685 168.901793 
L 81.276843 171.279034 
L 81.403001 167.978722 
L 81.529159 168.910663 
L 81.655316 171.870838 
L 81.907632 166.996979 
L 82.03379 169.661516 
L 82.159948 169.775624 
L 82.286106 172.001905 
L 82.412264 169.947735 
L 82.538421 172.647463 
L 82.664579 171.235426 
L 82.790737 172.517439 
L 82.916895 170.242 
L 83.043053 170.625805 
L 83.169211 166.795537 
L 83.295369 168.307817 
L 83.421526 172.62785 
L 83.547684 172.458788 
L 83.926158 169.218931 
L 84.052316 172.00841 
L 84.178474 170.36823 
L 84.304631 171.188453 
L 84.430789 170.128458 
L 84.556947 172.266178 
L 84.683105 168.408407 
L 84.809263 171.281701 
L 84.935421 171.402296 
L 85.187736 168.803026 
L 85.313894 168.614863 
L 85.440052 172.86971 
L 85.56621 170.649902 
L 85.818526 172.537814 
L 85.944684 170.119158 
L 86.070841 171.144654 
L 86.196999 169.388861 
L 86.323157 170.514284 
L 86.449315 170.233211 
L 86.575473 170.517754 
L 86.701631 168.530547 
L 86.827789 170.427787 
L 86.953947 166.691477 
L 87.206262 170.975034 
L 87.33242 171.958302 
L 87.458578 164.069124 
L 87.584736 172.595606 
L 87.710894 171.503007 
L 87.837052 169.326917 
L 87.963209 172.744452 
L 88.089367 170.998472 
L 88.215525 170.942657 
L 88.467841 173.03254 
L 88.593999 171.356826 
L 88.720157 171.24393 
L 88.846314 169.000202 
L 89.09863 171.290297 
L 89.224788 167.57847 
L 89.350946 171.443774 
L 89.477104 169.292019 
L 89.603262 170.459877 
L 89.729419 167.854897 
L 89.981735 172.964462 
L 90.234051 167.856168 
L 90.486367 172.470184 
L 90.612524 172.647628 
L 90.86484 168.958603 
L 90.990998 169.469654 
L 91.117156 172.472578 
L 91.243314 168.439855 
L 91.369472 172.183745 
L 91.495629 170.039992 
L 91.621787 169.943715 
L 91.747945 172.843599 
L 91.874103 172.785457 
L 92.000261 170.555347 
L 92.126419 172.236246 
L 92.252577 169.401342 
L 92.504892 171.875127 
L 92.757208 170.021721 
L 93.009524 168.731291 
L 93.26184 171.192284 
L 93.387997 170.794914 
L 93.514155 169.512725 
L 93.640313 172.282462 
L 93.766471 168.889188 
L 93.892629 170.192949 
L 94.018787 170.131296 
L 94.144945 169.026321 
L 94.39726 172.231874 
L 94.523418 171.541534 
L 94.649576 172.266309 
L 94.775734 169.790743 
L 94.901892 173.459061 
L 95.02805 170.83465 
L 95.154207 171.426091 
L 95.280365 172.859002 
L 95.406523 170.919767 
L 95.532681 170.851772 
L 95.784997 169.172827 
L 95.911155 172.919011 
L 96.037312 168.804895 
L 96.289628 169.16369 
L 96.415786 171.92453 
L 96.668102 167.636507 
L 96.79426 171.314383 
L 96.920417 169.624648 
L 97.172733 171.743838 
L 97.298891 167.24616 
L 97.425049 168.57504 
L 97.551207 172.790159 
L 97.677365 166.352521 
L 97.92968 171.002223 
L 98.055838 169.899712 
L 98.181996 173.285969 
L 98.308154 171.397244 
L 98.434312 171.3199 
L 98.56047 171.481917 
L 98.686628 168.889911 
L 98.812785 170.97173 
L 98.938943 168.645482 
L 99.065101 171.062708 
L 99.191259 166.04071 
L 99.443575 172.659461 
L 99.569733 171.194781 
L 99.69589 167.549728 
L 99.822048 170.742302 
L 99.948206 168.132862 
L 100.074364 173.122179 
L 100.200522 167.035891 
L 100.32668 169.501539 
L 100.452838 165.901845 
L 100.578995 170.435715 
L 100.705153 170.739667 
L 100.831311 168.195232 
L 100.957469 168.764126 
L 101.083627 166.404194 
L 101.335943 169.658491 
L 101.588258 163.608996 
L 101.966732 169.307468 
L 102.09289 152.475791 
L 102.219048 18.555291 
L 102.471363 170.19026 
L 102.597521 169.585904 
L 102.723679 161.091687 
L 102.849837 172.896336 
L 102.975995 168.4434 
L 103.102153 169.477734 
L 103.228311 168.224893 
L 103.354468 164.190734 
L 103.480626 165.546109 
L 103.606784 165.424225 
L 103.732942 168.773744 
L 103.8591 165.83286 
L 104.111416 168.009756 
L 104.363731 171.617876 
L 104.616047 173.092757 
L 104.742205 167.506315 
L 104.868363 171.855975 
L 104.994521 169.486416 
L 105.120678 170.871214 
L 105.372994 167.864076 
L 105.499152 170.028391 
L 105.62531 170.180955 
L 105.751468 172.140531 
L 105.877626 169.070791 
L 106.003783 169.678282 
L 106.129941 169.358583 
L 106.256099 171.509672 
L 106.508415 169.594129 
L 106.634573 165.340763 
L 106.760731 170.483022 
L 106.886888 170.509118 
L 107.013046 168.364713 
L 107.265362 172.565505 
L 107.39152 170.716559 
L 107.517678 171.220371 
L 107.643836 170.875805 
L 107.769993 169.870794 
L 107.896151 166.227092 
L 108.148467 168.726568 
L 108.274625 169.800504 
L 108.400783 167.913902 
L 108.526941 170.646488 
L 108.653098 170.131314 
L 108.779256 171.730015 
L 108.905414 170.584147 
L 109.031572 172.008586 
L 109.15773 172.086015 
L 109.283888 172.586134 
L 109.410046 171.236083 
L 109.662361 173.246323 
L 109.914677 169.201581 
L 110.040835 172.497251 
L 110.419309 168.048095 
L 110.545466 168.549625 
L 110.671624 173.302483 
L 110.92394 170.540454 
L 111.050098 170.077616 
L 111.176256 171.197421 
L 111.302414 171.160263 
L 111.428571 169.901129 
L 111.554729 171.906286 
L 111.680887 171.621594 
L 111.807045 173.209874 
L 111.933203 171.589441 
L 112.059361 172.468662 
L 112.311676 170.559722 
L 112.437834 171.093109 
L 112.563992 173.147825 
L 112.816308 171.085108 
L 112.942466 170.851544 
L 113.194781 172.3275 
L 113.320939 171.340989 
L 113.447097 171.571532 
L 113.573255 172.306376 
L 113.699413 172.077641 
L 113.825571 169.40381 
L 113.951729 169.105103 
L 114.204044 172.405037 
L 114.330202 172.253234 
L 114.45636 170.732519 
L 114.582518 171.139697 
L 114.834834 169.241395 
L 115.087149 172.45145 
L 115.213307 168.884462 
L 115.465623 173.384642 
L 115.717939 169.777047 
L 115.844097 170.216716 
L 115.970254 173.008302 
L 116.096412 172.105483 
L 116.22257 172.479309 
L 116.348728 172.385827 
L 116.474886 171.613195 
L 116.601044 171.567601 
L 116.727202 171.930318 
L 116.853359 172.895685 
L 117.105675 172.288346 
L 117.231833 172.458397 
L 117.357991 173.091301 
L 117.484149 170.774941 
L 117.610307 172.354154 
L 117.736464 170.999983 
L 117.98878 172.347563 
L 118.114938 171.502514 
L 118.367254 172.905712 
L 118.493412 171.288015 
L 118.619569 172.617961 
L 118.745727 170.924083 
L 119.124201 172.894378 
L 119.376517 171.051214 
L 119.502674 171.938527 
L 119.628832 172.009748 
L 119.75499 173.215758 
L 119.881148 172.863359 
L 120.133464 170.805301 
L 120.259622 172.526796 
L 120.38578 171.559177 
L 120.511937 172.57498 
L 120.638095 171.117912 
L 120.764253 172.92926 
L 120.890411 171.644451 
L 121.016569 171.990232 
L 121.142727 173.008171 
L 121.268885 171.414066 
L 121.395042 171.857175 
L 121.5212 170.344696 
L 121.647358 172.644584 
L 121.773516 171.329887 
L 122.025832 173.14946 
L 122.15199 171.048763 
L 122.278147 173.3154 
L 122.530463 171.521858 
L 122.656621 169.967613 
L 122.782779 170.957824 
L 122.908937 173.256415 
L 123.035095 170.765941 
L 123.28741 172.221223 
L 123.413568 172.239798 
L 123.539726 171.448395 
L 123.665884 171.810035 
L 123.9182 173.118749 
L 124.044357 172.497925 
L 124.170515 172.923513 
L 124.296673 172.454942 
L 124.422831 173.368635 
L 124.548989 172.97389 
L 124.675147 170.483778 
L 124.801305 172.341503 
L 124.927462 171.64353 
L 125.05362 172.120393 
L 125.432094 171.189711 
L 125.558252 173.501825 
L 125.68441 171.847407 
L 125.936725 172.851206 
L 126.062883 172.00656 
L 126.441357 173.235916 
L 126.693673 171.51678 
L 127.072146 172.501602 
L 127.45062 171.386122 
L 127.702935 172.387537 
L 127.829093 171.856676 
L 127.955251 172.806413 
L 128.207567 172.549808 
L 128.333725 172.683328 
L 128.459883 172.491124 
L 128.58604 172.841218 
L 128.712198 172.607034 
L 128.838356 171.86373 
L 128.964514 172.797329 
L 129.090672 172.028506 
L 129.21683 172.362275 
L 129.342988 171.776635 
L 129.469145 172.539045 
L 129.595303 172.220961 
L 129.721461 172.460509 
L 129.847619 172.313008 
L 129.973777 171.067386 
L 130.099935 172.487152 
L 130.226093 171.518069 
L 130.35225 172.860644 
L 130.478408 172.349661 
L 130.604566 172.888399 
L 130.730724 172.299089 
L 130.856882 172.888829 
L 130.98304 171.846708 
L 131.235356 173.367911 
L 131.361513 171.889948 
L 131.739987 172.893915 
L 132.118461 171.482787 
L 132.244618 172.058044 
L 132.370776 171.793128 
L 132.496934 172.053781 
L 132.623092 173.156933 
L 132.74925 172.322801 
L 132.875408 172.838103 
L 133.001566 171.462501 
L 133.253881 172.332128 
L 133.380039 172.599927 
L 133.506197 173.427794 
L 133.632355 173.302995 
L 133.884671 172.368641 
L 134.010828 172.326279 
L 134.263144 172.772612 
L 134.389302 171.725698 
L 134.641618 172.437556 
L 134.767776 171.337069 
L 135.020091 172.501947 
L 135.146249 172.188972 
L 135.272407 173.080965 
L 135.524723 171.810092 
L 135.650881 172.755569 
L 135.777038 172.1804 
L 135.903196 172.131433 
L 136.029354 171.530751 
L 136.155512 172.582666 
L 136.28167 171.966547 
L 136.407828 172.667635 
L 136.660144 171.627448 
L 136.912459 172.281524 
L 137.038617 171.067795 
L 137.164775 171.613545 
L 137.290933 171.200501 
L 137.669406 173.215053 
L 137.795564 172.28448 
L 137.921722 173.250926 
L 138.04788 172.163713 
L 138.174038 173.122705 
L 138.300196 172.02565 
L 138.426354 172.978969 
L 138.552511 171.642573 
L 138.678669 173.083112 
L 138.930985 173.11846 
L 139.057143 170.942955 
L 139.183301 171.354526 
L 139.309459 172.483926 
L 139.81409 170.754889 
L 139.940248 172.874574 
L 140.066406 172.396894 
L 140.192564 169.836904 
L 140.318721 170.368345 
L 140.444879 170.356418 
L 140.571037 172.580292 
L 140.697195 172.443125 
L 140.823353 171.055319 
L 140.949511 172.895068 
L 141.075669 172.549292 
L 141.201826 172.775803 
L 141.327984 170.976501 
L 141.454142 173.172399 
L 141.5803 172.037584 
L 141.706458 173.221704 
L 141.832616 170.619371 
L 141.958774 173.197545 
L 142.211089 171.084276 
L 142.337247 170.424191 
L 142.463405 171.101193 
L 142.589563 170.635464 
L 142.841879 172.896667 
L 143.094194 171.810657 
L 143.220352 170.738635 
L 143.472668 170.981376 
L 143.724984 171.892205 
L 143.977299 168.980441 
L 144.103457 172.110433 
L 144.229615 171.474671 
L 144.481931 168.267603 
L 144.608089 171.919898 
L 144.734247 168.284556 
L 144.986562 172.278809 
L 145.11272 171.422235 
L 145.238878 172.525186 
L 145.743509 169.882145 
L 145.869667 172.085306 
L 145.995825 170.386797 
L 146.121983 173.241923 
L 146.248141 170.745644 
L 146.374299 173.229233 
L 146.500457 170.370193 
L 146.626614 171.844701 
L 146.752772 171.072723 
L 146.87893 171.376502 
L 147.005088 170.609582 
L 147.131246 170.787537 
L 147.257404 171.533681 
L 147.383562 170.150406 
L 147.635877 173.012005 
L 147.762035 169.004914 
L 148.014351 171.893624 
L 148.140509 160.438323 
L 148.518982 171.254134 
L 148.897456 168.647847 
L 149.149772 172.220234 
L 149.27593 171.289319 
L 149.402087 168.043873 
L 149.654403 171.823293 
L 149.780561 171.606423 
L 149.906719 171.150577 
L 150.159035 172.157997 
L 150.285192 169.014759 
L 150.537508 173.599516 
L 150.663666 170.972568 
L 150.789824 171.920994 
L 150.915982 169.963248 
L 151.168297 173.012889 
L 151.294455 172.099143 
L 151.420613 169.896037 
L 151.546771 169.919391 
L 151.672929 172.974698 
L 151.925245 170.356098 
L 152.17756 171.655319 
L 152.303718 172.680536 
L 152.429876 172.134851 
L 152.556034 172.284673 
L 152.682192 172.814895 
L 152.80835 172.679639 
L 152.934508 170.496275 
L 153.060665 171.648228 
L 153.186823 171.722233 
L 153.312981 171.327242 
L 153.439139 172.815546 
L 153.565297 172.813214 
L 153.817613 172.483904 
L 153.94377 170.86794 
L 154.196086 173.428579 
L 154.322244 170.72392 
L 154.448402 170.781484 
L 154.700718 172.418804 
L 154.826875 169.891096 
L 155.079191 172.483201 
L 155.205349 173.450437 
L 155.331507 172.927098 
L 155.457665 171.593789 
L 155.583823 171.87264 
L 155.962296 170.040347 
L 156.088454 171.224626 
L 156.214612 170.401723 
L 156.34077 172.258123 
L 156.466928 171.218478 
L 156.593085 171.277839 
L 156.845401 172.335184 
L 156.971559 169.872825 
L 157.223875 172.715514 
L 157.350033 172.843799 
L 157.47619 172.394725 
L 157.602348 173.228093 
L 157.854664 172.519049 
L 157.980822 172.18828 
L 158.10698 172.349674 
L 158.233138 172.303595 
L 158.359295 172.902402 
L 158.485453 172.712046 
L 158.611611 171.889387 
L 158.737769 172.700799 
L 158.863927 172.505574 
L 158.990085 173.074688 
L 159.242401 171.512681 
L 159.368558 173.030242 
L 159.494716 172.638739 
L 159.620874 172.663304 
L 159.747032 173.53864 
L 159.87319 170.868992 
L 159.999348 172.521749 
L 160.125506 172.094798 
L 160.251663 172.384498 
L 160.503979 171.76947 
L 160.756295 172.558926 
L 160.882453 171.891816 
L 161.008611 172.712273 
L 161.134768 172.797045 
L 161.260926 173.355929 
L 161.387084 171.816021 
L 161.513242 172.048495 
L 161.765558 173.056401 
L 161.891716 172.512556 
L 162.017873 173.622435 
L 162.270189 172.690662 
L 162.396347 173.485545 
L 162.648663 172.580761 
L 162.774821 173.105138 
L 162.900978 171.822367 
L 163.027136 171.856641 
L 163.279452 173.117544 
L 163.531768 172.724326 
L 163.657926 172.973392 
L 163.784083 172.922199 
L 163.910241 172.657525 
L 164.036399 172.808087 
L 164.162557 173.27631 
L 164.288715 173.110472 
L 164.414873 172.365554 
L 164.541031 172.883044 
L 164.667189 171.206132 
L 164.793346 172.932719 
L 165.045662 172.93975 
L 165.17182 173.479122 
L 165.297978 172.252217 
L 165.424136 172.614512 
L 165.550294 172.638563 
L 165.676451 172.525939 
L 165.802609 173.125139 
L 165.928767 172.364396 
L 166.054925 173.204604 
L 166.181083 172.431057 
L 166.307241 173.329441 
L 166.559556 172.004155 
L 166.685714 173.263583 
L 166.93803 171.945845 
L 167.064188 172.889748 
L 167.568819 173.118036 
L 167.694977 171.84566 
L 167.947293 172.741321 
L 168.073451 173.360011 
L 168.199609 172.532163 
L 168.451924 173.197986 
L 168.578082 173.032113 
L 168.70424 172.154076 
L 168.956556 173.257051 
L 169.082714 172.762396 
L 169.335029 172.915062 
L 169.461187 172.538088 
L 169.713503 173.226017 
L 169.839661 172.90699 
L 169.965819 171.718653 
L 170.091977 173.205774 
L 170.344292 172.388972 
L 170.596608 173.233565 
L 170.722766 173.512867 
L 170.848924 172.610431 
L 170.975082 173.429277 
L 171.101239 172.521966 
L 171.227397 173.209243 
L 171.605871 172.803106 
L 171.732029 173.616763 
L 171.858187 173.345685 
L 171.984344 171.859878 
L 172.110502 173.284617 
L 172.362818 172.963392 
L 172.488976 172.89613 
L 172.615134 172.48817 
L 172.741292 173.318497 
L 172.867449 172.090964 
L 173.119765 173.086457 
L 173.245923 172.608837 
L 173.372081 172.784455 
L 173.498239 172.583897 
L 173.624397 172.74518 
L 173.750554 173.328297 
L 173.876712 171.929367 
L 174.129028 172.813838 
L 174.255186 172.323023 
L 174.381344 173.28609 
L 174.633659 172.625317 
L 174.759817 173.15625 
L 174.885975 172.138216 
L 175.138291 172.88341 
L 175.264449 172.639785 
L 175.390607 173.616308 
L 175.516765 172.481774 
L 175.76908 173.563563 
L 176.147554 172.606939 
L 176.273712 172.564419 
L 176.39987 172.00025 
L 176.778343 173.05784 
L 176.904501 172.845056 
L 177.030659 173.043313 
L 177.156817 172.908515 
L 177.409132 172.95772 
L 177.53529 171.781822 
L 177.661448 173.218323 
L 177.787606 172.866347 
L 177.913764 173.051175 
L 178.039922 172.744304 
L 178.16608 173.240864 
L 178.292237 173.205189 
L 178.418395 172.442614 
L 178.544553 173.37078 
L 178.670711 173.005524 
L 178.796869 172.252215 
L 178.923027 172.822707 
L 179.049185 171.915672 
L 179.175342 172.788364 
L 179.3015 172.442737 
L 179.806132 173.278787 
L 179.93229 172.407349 
L 180.058447 172.649428 
L 180.184605 173.333781 
L 180.436921 172.884819 
L 180.689237 173.496512 
L 180.815395 173.506379 
L 181.06771 173.042384 
L 181.193868 173.17798 
L 181.320026 172.423588 
L 181.824658 173.640383 
L 182.076973 172.76247 
L 182.203131 173.179647 
L 182.329289 172.834992 
L 182.581605 173.098457 
L 182.707763 172.579805 
L 182.83392 173.600747 
L 182.960078 172.934166 
L 183.086236 173.354343 
L 183.212394 172.823793 
L 183.338552 173.005733 
L 183.590868 172.308337 
L 183.717025 172.950303 
L 183.843183 172.989987 
L 183.969341 173.499019 
L 184.095499 173.332639 
L 184.221657 172.15954 
L 184.60013 173.35202 
L 184.852446 173.068211 
L 184.978604 173.48472 
L 185.104762 172.934251 
L 185.23092 173.029586 
L 185.357078 172.474416 
L 185.483235 172.591855 
L 185.609393 172.479687 
L 185.735551 172.819214 
L 185.861709 173.562125 
L 185.987867 172.607576 
L 186.114025 173.10627 
L 186.366341 172.242409 
L 186.492498 172.893903 
L 186.618656 172.383421 
L 186.870972 173.279159 
L 186.99713 172.824555 
L 187.249446 173.601823 
L 187.375603 172.333711 
L 187.627919 172.700844 
L 187.754077 172.096872 
L 187.880235 172.938561 
L 188.006393 172.794673 
L 188.258708 172.975336 
L 188.384866 173.647386 
L 188.511024 171.648926 
L 188.76334 173.194819 
L 189.015656 172.534458 
L 189.267971 173.398831 
L 189.394129 173.332462 
L 189.646445 172.568568 
L 189.772603 173.379831 
L 190.024918 172.38759 
L 190.277234 172.809711 
L 190.403392 172.615072 
L 190.52955 173.192068 
L 190.655708 171.562547 
L 190.908023 173.296907 
L 191.160339 172.670764 
L 191.286497 171.477888 
L 191.412655 172.632067 
L 191.538813 171.705871 
L 191.664971 171.814418 
L 191.791129 172.389331 
L 191.917286 172.205027 
L 192.043444 171.458375 
L 192.29576 172.469089 
L 192.421918 172.212336 
L 192.548076 172.720687 
L 192.674234 172.755794 
L 192.800391 173.27034 
L 192.926549 173.028338 
L 193.052707 173.073142 
L 193.178865 172.194756 
L 193.305023 172.391201 
L 193.431181 173.515439 
L 193.557339 173.299301 
L 193.809654 171.529002 
L 194.06197 170.786432 
L 194.188128 170.450426 
L 194.314286 155.736205 
L 194.440444 169.88594 
L 194.566601 170.17931 
L 194.692759 173.141358 
L 194.818917 172.560329 
L 194.945075 170.990433 
L 195.071233 172.794756 
L 195.197391 172.467086 
L 195.323549 172.494982 
L 195.449706 170.728687 
L 195.575864 172.904558 
L 195.702022 172.172158 
L 195.82818 173.534036 
L 195.954338 172.777323 
L 196.080496 172.813386 
L 196.206654 171.841764 
L 196.332811 172.675588 
L 196.458969 172.276595 
L 196.711285 173.023028 
L 196.963601 171.439951 
L 197.089759 172.957071 
L 197.342074 172.44102 
L 197.468232 172.358505 
L 197.720548 173.252202 
L 197.846706 171.569793 
L 198.099022 173.041592 
L 198.225179 172.478081 
L 198.351337 172.792457 
L 198.477495 172.604321 
L 198.603653 173.526113 
L 198.729811 171.578429 
L 198.855969 173.433152 
L 198.982127 173.310283 
L 199.108284 172.21108 
L 199.234442 173.207221 
L 199.3606 172.357533 
L 199.486758 172.838897 
L 199.612916 172.560581 
L 199.739074 173.391233 
L 199.991389 172.497292 
L 200.117547 173.317624 
L 200.369863 172.26548 
L 200.496021 171.962355 
L 200.622179 172.490177 
L 200.748337 172.418976 
L 201.252968 173.140265 
L 201.379126 172.558237 
L 201.505284 172.521714 
L 201.631442 172.785925 
L 201.757599 172.597896 
L 201.883757 172.047744 
L 202.009915 173.398808 
L 202.136073 172.534993 
L 202.262231 172.925235 
L 202.514547 172.338094 
L 202.640705 172.469026 
L 202.766862 173.127837 
L 202.89302 172.705422 
L 203.019178 172.731093 
L 203.145336 172.930848 
L 203.271494 172.259426 
L 203.397652 172.357424 
L 203.52381 173.245647 
L 203.649967 172.889394 
L 203.776125 173.114943 
L 203.902283 172.510241 
L 204.028441 173.346165 
L 204.154599 173.009492 
L 204.280757 173.348295 
L 204.406915 172.629594 
L 204.533072 173.281961 
L 204.65923 172.205073 
L 204.785388 173.556892 
L 204.911546 173.247254 
L 205.037704 172.631697 
L 205.163862 173.083679 
L 205.29002 172.967685 
L 205.416177 173.011353 
L 205.542335 173.395627 
L 205.794651 172.992034 
L 205.920809 173.202643 
L 206.046967 172.789547 
L 206.173125 173.349829 
L 206.299282 173.270579 
L 206.42544 173.488039 
L 206.551598 172.704574 
L 206.803914 173.558712 
L 207.05623 172.493678 
L 207.182387 173.48714 
L 207.434703 173.32356 
L 207.560861 173.392531 
L 207.687019 172.645536 
L 207.939335 173.318882 
L 208.065492 172.809728 
L 208.19165 173.426486 
L 208.317808 172.539566 
L 208.443966 173.460363 
L 208.82244 172.447533 
L 208.948598 173.550966 
L 209.074755 173.178554 
L 209.200913 172.396592 
L 209.327071 172.988189 
L 209.453229 173.000488 
L 209.579387 173.523643 
L 209.705545 173.164431 
L 209.95786 173.372744 
L 210.084018 173.424763 
L 210.336334 172.65254 
L 210.58865 173.074911 
L 210.714808 172.930722 
L 210.967123 173.306046 
L 211.219439 172.826521 
L 211.471755 173.411731 
L 211.597913 173.178052 
L 211.72407 173.278995 
L 211.976386 173.095685 
L 212.228702 173.441453 
L 212.35486 173.29302 
L 212.481018 172.890882 
L 212.607175 173.246447 
L 212.733333 173.190089 
L 212.859491 173.505329 
L 213.111807 173.016248 
L 213.237965 173.487799 
L 213.49028 173.161756 
L 213.616438 173.337978 
L 213.742596 172.771335 
L 213.868754 172.798335 
L 214.247228 173.295746 
L 214.373386 173.16624 
L 214.499543 173.642977 
L 214.625701 173.531408 
L 214.751859 173.062219 
L 214.878017 173.437325 
L 215.130333 173.325021 
L 215.256491 173.545547 
L 215.382648 172.867789 
L 215.508806 173.163895 
L 215.634964 172.890485 
L 215.761122 173.488661 
L 215.88728 172.991704 
L 216.013438 173.115366 
L 216.139596 173.420573 
L 216.391911 172.856764 
L 216.770385 173.51276 
L 217.022701 173.222925 
L 217.148858 172.905828 
L 217.401174 173.24607 
L 217.527332 173.099749 
L 217.65349 172.68612 
L 217.779648 173.012074 
L 217.905806 172.818686 
L 218.031963 172.286012 
L 218.158121 173.307374 
L 218.284279 173.327359 
L 218.410437 173.175015 
L 218.662753 173.599165 
L 218.788911 173.464964 
L 218.915068 172.972134 
L 219.041226 173.032972 
L 219.167384 173.310586 
L 219.293542 173.011571 
L 219.4197 173.242799 
L 219.545858 173.135761 
L 219.672016 173.487724 
L 219.924331 173.199273 
L 220.050489 173.301943 
L 220.302805 173.172218 
L 220.428963 172.748985 
L 220.681279 173.419134 
L 220.807436 173.230386 
L 220.933594 173.500488 
L 221.059752 172.781182 
L 221.18591 173.295088 
L 221.438226 172.829205 
L 221.564384 173.331318 
L 221.816699 173.017805 
L 222.069015 173.3644 
L 222.195173 172.921556 
L 222.321331 173.122856 
L 222.447489 172.660319 
L 222.573646 173.400893 
L 222.699804 172.723977 
L 222.825962 173.240818 
L 223.078278 173.250124 
L 223.330594 173.591953 
L 223.456751 172.926157 
L 223.582909 173.386586 
L 223.709067 173.376353 
L 223.835225 172.971203 
L 223.961383 173.020983 
L 224.087541 172.839357 
L 224.466014 173.328349 
L 224.592172 173.295305 
L 224.71833 173.03021 
L 224.970646 173.525834 
L 225.096804 173.075244 
L 225.222962 173.091105 
L 225.475277 172.639355 
L 225.601435 172.270508 
L 225.853751 173.544971 
L 225.979909 173.147732 
L 226.106067 173.325196 
L 226.232224 173.145826 
L 226.610698 173.291725 
L 226.863014 172.788091 
L 226.989172 173.14957 
L 227.115329 173.035337 
L 227.241487 173.311537 
L 227.367645 173.28544 
L 227.493803 173.485428 
L 227.619961 173.449573 
L 227.746119 172.796791 
L 227.872277 173.313618 
L 227.998434 173.177241 
L 228.124592 173.39954 
L 228.376908 173.287137 
L 228.629224 173.295095 
L 228.881539 172.814091 
L 229.133855 173.549724 
L 229.260013 173.606444 
L 229.386171 173.303948 
L 229.764644 173.300376 
L 230.01696 172.921863 
L 230.269276 173.319175 
L 230.395434 173.115856 
L 230.521592 173.478289 
L 230.900065 173.391702 
L 231.026223 173.397021 
L 231.152381 172.685435 
L 231.404697 173.340392 
L 231.530855 173.209558 
L 231.78317 173.181003 
L 232.161644 172.813585 
L 232.287802 173.271759 
L 232.41396 173.288072 
L 232.666275 172.971416 
L 232.792433 173.39594 
L 233.044749 172.714737 
L 233.170907 172.858228 
L 233.297065 173.364206 
L 233.423222 173.166807 
L 233.54938 173.32489 
L 233.675538 172.594946 
L 233.801696 172.557737 
L 234.054012 173.480777 
L 234.18017 173.305773 
L 234.558643 172.353075 
L 234.684801 173.510911 
L 234.810959 173.343235 
L 234.937117 173.537144 
L 235.063275 173.115973 
L 235.189432 173.201522 
L 235.31559 172.88769 
L 235.441748 173.575909 
L 235.567906 172.976943 
L 235.694064 173.604845 
L 235.820222 172.937699 
L 235.94638 172.902881 
L 236.072538 173.491591 
L 236.198695 173.371271 
L 236.451011 172.632721 
L 236.577169 173.222378 
L 236.703327 172.340024 
L 236.955643 173.300261 
L 237.207958 173.274639 
L 237.334116 172.679867 
L 237.71259 173.035796 
L 237.838748 173.291325 
L 237.964905 172.888489 
L 238.091063 173.324233 
L 238.217221 173.347958 
L 238.343379 173.083503 
L 238.469537 173.210328 
L 238.595695 173.098117 
L 238.721853 173.211464 
L 238.84801 172.41764 
L 239.100326 173.263807 
L 239.226484 172.798515 
L 239.352642 173.155825 
L 239.604958 172.132315 
L 239.731115 172.040012 
L 239.857273 171.766439 
L 239.983431 172.372779 
L 240.109589 172.209903 
L 240.235747 166.440017 
L 240.361905 168.591614 
L 240.488063 167.020378 
L 240.61422 173.571354 
L 240.866536 172.147943 
L 240.992694 172.357319 
L 241.118852 172.879759 
L 241.24501 172.921889 
L 241.371168 173.422037 
L 241.497326 172.395683 
L 241.623483 173.539139 
L 241.875799 173.013202 
L 242.001957 173.495085 
L 242.128115 173.041446 
L 242.254273 173.243082 
L 242.506588 172.392126 
L 242.758904 173.17565 
L 242.885062 172.735178 
L 243.01122 173.157259 
L 243.389693 172.281851 
L 243.515851 172.632396 
L 243.642009 172.532696 
L 243.768167 171.98392 
L 243.894325 172.14162 
L 244.020483 173.223297 
L 244.146641 173.263085 
L 244.398956 172.611543 
L 244.525114 173.207441 
L 244.77743 172.779236 
L 244.903588 172.809067 
L 245.029746 173.067895 
L 245.155903 172.722536 
L 245.282061 173.244589 
L 245.408219 173.235397 
L 245.534377 173.413313 
L 245.660535 173.288894 
L 245.786693 172.69987 
L 245.912851 172.911705 
L 246.039008 172.900895 
L 246.165166 173.343997 
L 246.417482 172.027194 
L 246.669798 173.051945 
L 246.795956 173.004438 
L 246.922114 173.109516 
L 247.048271 172.999111 
L 247.426745 173.358566 
L 247.679061 172.787671 
L 247.931376 173.4862 
L 248.057534 173.414324 
L 248.183692 173.118467 
L 248.30985 173.244068 
L 248.436008 173.18918 
L 248.688324 172.420309 
L 248.814481 173.363239 
L 248.940639 172.867316 
L 249.066797 172.997503 
L 249.192955 173.462024 
L 249.319113 173.22956 
L 249.571429 173.321219 
L 249.697586 173.003061 
L 249.823744 173.536979 
L 249.949902 173.326485 
L 250.202218 173.446747 
L 250.328376 173.290868 
L 250.454534 173.326854 
L 250.580691 173.164227 
L 250.706849 173.435319 
L 250.833007 172.922798 
L 251.211481 173.335197 
L 251.337639 173.125218 
L 251.463796 173.425667 
L 251.589954 173.381605 
L 251.84227 173.02394 
L 251.968428 173.346784 
L 252.094586 173.043402 
L 252.346902 173.36287 
L 252.473059 172.976867 
L 252.725375 173.361733 
L 252.851533 172.992968 
L 252.977691 173.31924 
L 253.103849 173.242749 
L 253.230007 173.362182 
L 253.356164 172.906585 
L 253.60848 173.280402 
L 253.734638 172.847825 
L 253.860796 173.354497 
L 254.113112 172.991391 
L 254.365427 173.348671 
L 254.870059 172.549852 
L 255.122374 173.437605 
L 255.248532 173.491095 
L 255.37469 173.258238 
L 255.500848 173.485089 
L 255.753164 172.674252 
L 255.879322 173.113308 
L 256.005479 172.887111 
L 256.257795 173.203353 
L 256.383953 172.965703 
L 256.510111 173.456491 
L 256.636269 173.440912 
L 256.762427 173.113492 
L 256.888584 173.312031 
L 257.1409 173.134267 
L 257.267058 173.067344 
L 257.645532 173.280044 
L 257.771689 173.253318 
L 257.897847 173.436676 
L 258.024005 173.278037 
L 258.150163 173.402848 
L 258.276321 173.171334 
L 258.402479 173.605302 
L 258.528637 173.278004 
L 258.780952 173.591281 
L 259.033268 173.272663 
L 259.285584 173.524603 
L 259.5379 173.345155 
L 259.664057 173.257056 
L 259.790215 172.963039 
L 260.042531 173.545208 
L 260.294847 173.45539 
L 260.421005 173.507489 
L 260.547162 173.35912 
L 260.67332 173.39334 
L 260.799478 173.25391 
L 260.925636 173.597201 
L 261.177952 173.326352 
L 261.430267 173.641078 
L 261.808741 172.968729 
L 261.934899 173.300235 
L 262.313372 172.819519 
L 262.818004 173.438337 
L 262.944162 173.46242 
L 263.07032 173.352577 
L 263.196477 173.548882 
L 263.322635 173.092753 
L 263.448793 173.462443 
L 263.574951 172.96144 
L 263.953425 173.471055 
L 264.079583 173.131116 
L 264.331898 173.367643 
L 264.458056 173.302363 
L 264.584214 173.433647 
L 264.83653 173.136217 
L 264.962688 173.092504 
L 265.088845 173.458313 
L 265.341161 173.378156 
L 265.467319 173.615921 
L 265.593477 173.241419 
L 265.719635 173.321838 
L 265.845793 173.563113 
L 265.97195 173.038155 
L 266.224266 173.550074 
L 266.476582 173.220405 
L 266.60274 173.423264 
L 266.855055 173.464702 
L 267.107371 172.961307 
L 267.233529 173.328195 
L 267.359687 173.191867 
L 267.485845 173.546768 
L 267.612003 173.441904 
L 267.73816 173.172966 
L 267.990476 173.581798 
L 268.36895 173.375317 
L 268.621265 173.430401 
L 268.747423 173.001286 
L 268.873581 173.193542 
L 268.999739 173.062155 
L 269.252055 173.45501 
L 269.378213 173.549112 
L 269.504371 173.417462 
L 269.630528 173.46707 
L 269.756686 173.179234 
L 269.882844 173.277136 
L 270.009002 172.953204 
L 270.13516 172.971886 
L 270.261318 173.281643 
L 270.387476 173.182666 
L 270.513633 173.429551 
L 270.639791 172.986532 
L 270.765949 172.984243 
L 271.018265 173.538874 
L 271.270581 173.256748 
L 271.649054 173.154097 
L 271.775212 173.595703 
L 271.90137 173.154258 
L 272.153686 173.381918 
L 272.279843 173.226574 
L 272.406001 173.279604 
L 272.532159 173.201591 
L 272.784475 173.518919 
L 273.036791 173.201201 
L 273.162948 173.16594 
L 273.289106 173.472792 
L 273.415264 173.056265 
L 273.541422 173.418083 
L 273.66758 173.300553 
L 273.793738 173.484162 
L 273.919896 173.390361 
L 274.046053 173.488412 
L 274.424527 173.214417 
L 274.550685 173.4786 
L 274.929159 173.488223 
L 275.181474 173.387951 
L 275.307632 173.305968 
L 275.43379 173.43074 
L 275.559948 173.205774 
L 275.938421 173.428943 
L 276.064579 173.421416 
L 276.190737 173.143356 
L 276.316895 173.44163 
L 276.695369 173.196869 
L 276.821526 173.582336 
L 276.947684 173.282299 
L 277.073842 173.271319 
L 277.2 173.566864 
L 277.326158 173.45839 
L 277.326158 173.45839 
" clip-path="url(#p364c01e7f0)" style="fill: none; stroke: #b3b3b3; stroke-linecap: round"/>
   </g>
   <g id="patch_3">
    <path d="M 45.12 181.416412 
L 45.12 10.8 
" style="fill: none; stroke: #cccccc; stroke-linejoin: miter; stroke-linecap: square"/>
   </g>
   <g id="patch_4">
    <path d="M 277.2 181.416412 
L 277.2 10.8 
" style="fill: none; stroke: #cccccc; stroke-linejoin: miter; stroke-linecap: square"/>
   </g>
   <g id="patch_5">
    <path d="M 45.12 181.416412 
L 277.2 181.416412 
" style="fill: none; stroke: #cccccc; stroke-linejoin: miter; stroke-linecap: square"/>
   </g>
   <g id="patch_6">
    <path d="M 45.12 10.8 
L 277.2 10.8 
" style="fill: none; stroke: #cccccc; stroke-linejoin: miter; stroke-linecap: square"/>
   </g>
  </g>
 </g>
 <defs>
  <clipPath id="p364c01e7f0">
   <rect x="45.12" y="10.8" width="232.08" height="170.616412"/>
  </clipPath>
 </defs>
</svg>
