<?xml version="1.0" encoding="utf-8" standalone="no"?>
<!DOCTYPE svg PUBLIC "-//W3C//DTD SVG 1.1//EN"
  "http://www.w3.org/Graphics/SVG/1.1/DTD/svg11.dtd">
<svg xmlns:xlink="http://www.w3.org/1999/xlink" width="237.6pt" height="237.6pt" viewBox="0 0 237.6 237.6" xmlns="http://www.w3.org/2000/svg" version="1.1">
 <metadata>
  <rdf:RDF xmlns:dc="http://purl.org/dc/elements/1.1/" xmlns:cc="http://creativecommons.org/ns#" xmlns:rdf="http://www.w3.org/1999/02/22-rdf-syntax-ns#">
   <cc:Work>
    <dc:type rdf:resource="http://purl.org/dc/dcmitype/StillImage"/>
    <dc:date>2024-07-22T21:28:51.569473</dc:date>
    <dc:format>image/svg+xml</dc:format>
    <dc:creator>
     <cc:Agent>
      <dc:title>Matplotlib v3.9.0, https://matplotlib.org/</dc:title>
     </cc:Agent>
    </dc:creator>
   </cc:Work>
  </rdf:RDF>
 </metadata>
 <defs>
  <style type="text/css">*{stroke-linejoin: round; stroke-linecap: butt}</style>
 </defs>
 <g id="figure_1">
  <g id="patch_1">
   <path d="M 0 237.6 
L 237.6 237.6 
L 237.6 0 
L 0 0 
z
" style="fill: #ffffff"/>
  </g>
  <g id="axes_1">
   <g id="patch_2">
    <path d="M 195.259 123.552 
C 195.259 112.892057 193.159224 102.335769 189.07984 92.487266 
C 185.000457 82.638763 179.0208 73.689574 171.483082 66.151856 
C 163.945364 58.614138 154.996175 52.634482 145.147672 48.555098 
C 135.299169 44.475715 124.742881 42.375938 114.082938 42.375938 
C 103.422995 42.375938 92.866707 44.475715 83.018204 48.555098 
C 73.169701 52.634482 64.220512 58.614138 56.682795 66.151856 
C 49.145077 73.689574 43.16542 82.638763 39.086036 92.487266 
C 35.006653 102.335769 32.906876 112.892057 32.906876 123.552 
C 32.906876 134.211943 35.006653 144.768231 39.086036 154.616734 
C 43.16542 164.465237 49.145077 173.414426 56.682795 180.952144 
C 64.220512 188.489862 73.169701 194.469518 83.018204 198.548902 
C 92.866707 202.628285 103.422995 204.728062 114.082938 204.728062 
C 124.742881 204.728062 135.299169 202.628285 145.147672 198.548902 
C 154.996175 194.469518 163.945364 188.489862 171.483082 180.952144 
C 179.0208 173.414426 185.000457 164.465237 189.07984 154.616734 
C 193.159224 144.768231 195.259 134.211943 195.259 123.552 
M 114.082938 123.552 
C 114.082938 123.552 114.082938 123.552 114.082938 123.552 
C 114.082938 123.552 114.082938 123.552 114.082938 123.552 
C 114.082938 123.552 114.082938 123.552 114.082938 123.552 
C 114.082938 123.552 114.082938 123.552 114.082938 123.552 
C 114.082938 123.552 114.082938 123.552 114.082938 123.552 
C 114.082938 123.552 114.082938 123.552 114.082938 123.552 
C 114.082938 123.552 114.082938 123.552 114.082938 123.552 
C 114.082938 123.552 114.082938 123.552 114.082938 123.552 
C 114.082938 123.552 114.082938 123.552 114.082938 123.552 
C 114.082938 123.552 114.082938 123.552 114.082938 123.552 
C 114.082938 123.552 114.082938 123.552 114.082938 123.552 
C 114.082938 123.552 114.082938 123.552 114.082938 123.552 
C 114.082938 123.552 114.082938 123.552 114.082938 123.552 
C 114.082938 123.552 114.082938 123.552 114.082938 123.552 
C 114.082938 123.552 114.082938 123.552 114.082938 123.552 
C 114.082938 123.552 114.082938 123.552 114.082938 123.552 
z
" style="fill: #ffffff"/>
   </g>
   <g id="patch_3">
    <path d="M 123.344456 123.552 
L 119.58874 106.606886 
L 73.167206 93.82498 
L 51.180605 169.25322 
L 119.837237 141.261912 
z
" clip-path="url(#p14062e5ed2)" style="fill: #66c2a5; opacity: 0.25; stroke: #66c2a5; stroke-linejoin: miter"/>
   </g>
   <g id="matplotlib.axis_1">
    <g id="xtick_1">
     <g id="line2d_1">
      <path d="M 114.082938 123.552 
L 195.259 123.552 
" clip-path="url(#p14062e5ed2)" style="fill: none; stroke: #b0b0b0; stroke-width: 0.8; stroke-linecap: square"/>
     </g>
     <g id="text_1">
      <!-- Inflow -->
      <g transform="translate(193.263375 126.434812) scale(0.12 -0.12)">
       <defs>
        <path id="TimesNewRomanPSMT-49" d="M 1975 116 
L 1975 0 
L 159 0 
L 159 116 
L 309 116 
Q 572 116 691 269 
Q 766 369 766 750 
L 766 3488 
Q 766 3809 725 3913 
Q 694 3991 597 4047 
Q 459 4122 309 4122 
L 159 4122 
L 159 4238 
L 1975 4238 
L 1975 4122 
L 1822 4122 
Q 1563 4122 1444 3969 
Q 1366 3869 1366 3488 
L 1366 750 
Q 1366 428 1406 325 
Q 1438 247 1538 191 
Q 1672 116 1822 116 
L 1975 116 
z
" transform="scale(0.015625)"/>
        <path id="TimesNewRomanPSMT-6e" d="M 1034 2341 
Q 1538 2947 1994 2947 
Q 2228 2947 2397 2830 
Q 2566 2713 2666 2444 
Q 2734 2256 2734 1869 
L 2734 647 
Q 2734 375 2778 278 
Q 2813 200 2889 156 
Q 2966 113 3172 113 
L 3172 0 
L 1756 0 
L 1756 113 
L 1816 113 
Q 2016 113 2095 173 
Q 2175 234 2206 353 
Q 2219 400 2219 647 
L 2219 1819 
Q 2219 2209 2117 2386 
Q 2016 2563 1775 2563 
Q 1403 2563 1034 2156 
L 1034 647 
Q 1034 356 1069 288 
Q 1113 197 1189 155 
Q 1266 113 1500 113 
L 1500 0 
L 84 0 
L 84 113 
L 147 113 
Q 366 113 442 223 
Q 519 334 519 647 
L 519 1709 
Q 519 2225 495 2337 
Q 472 2450 423 2490 
Q 375 2531 294 2531 
Q 206 2531 84 2484 
L 38 2597 
L 900 2947 
L 1034 2947 
L 1034 2341 
z
" transform="scale(0.015625)"/>
        <path id="TimesNewRomanPSMT-66" d="M 1319 2638 
L 1319 756 
Q 1319 356 1406 250 
Q 1522 113 1716 113 
L 1975 113 
L 1975 0 
L 266 0 
L 266 113 
L 394 113 
Q 519 113 622 175 
Q 725 238 764 344 
Q 803 450 803 756 
L 803 2638 
L 247 2638 
L 247 2863 
L 803 2863 
L 803 3050 
Q 803 3478 940 3775 
Q 1078 4072 1361 4255 
Q 1644 4438 1997 4438 
Q 2325 4438 2600 4225 
Q 2781 4084 2781 3909 
Q 2781 3816 2700 3733 
Q 2619 3650 2525 3650 
Q 2453 3650 2373 3701 
Q 2294 3753 2178 3923 
Q 2063 4094 1966 4153 
Q 1869 4213 1750 4213 
Q 1606 4213 1506 4136 
Q 1406 4059 1362 3898 
Q 1319 3738 1319 3069 
L 1319 2863 
L 2056 2863 
L 2056 2638 
L 1319 2638 
z
" transform="scale(0.015625)"/>
        <path id="TimesNewRomanPSMT-6c" d="M 1184 4444 
L 1184 647 
Q 1184 378 1223 290 
Q 1263 203 1344 158 
Q 1425 113 1647 113 
L 1647 0 
L 244 0 
L 244 113 
Q 441 113 512 153 
Q 584 194 625 287 
Q 666 381 666 647 
L 666 3247 
Q 666 3731 644 3842 
Q 622 3953 573 3993 
Q 525 4034 450 4034 
Q 369 4034 244 3984 
L 191 4094 
L 1044 4444 
L 1184 4444 
z
" transform="scale(0.015625)"/>
        <path id="TimesNewRomanPSMT-6f" d="M 1600 2947 
Q 2250 2947 2644 2453 
Q 2978 2031 2978 1484 
Q 2978 1100 2793 706 
Q 2609 313 2286 112 
Q 1963 -88 1566 -88 
Q 919 -88 538 428 
Q 216 863 216 1403 
Q 216 1797 411 2186 
Q 606 2575 925 2761 
Q 1244 2947 1600 2947 
z
M 1503 2744 
Q 1338 2744 1170 2645 
Q 1003 2547 900 2300 
Q 797 2053 797 1666 
Q 797 1041 1045 587 
Q 1294 134 1700 134 
Q 2003 134 2200 384 
Q 2397 634 2397 1244 
Q 2397 2006 2069 2444 
Q 1847 2744 1503 2744 
z
" transform="scale(0.015625)"/>
        <path id="TimesNewRomanPSMT-77" d="M 41 2863 
L 1241 2863 
L 1241 2747 
Q 1075 2734 1023 2687 
Q 972 2641 972 2553 
Q 972 2456 1025 2319 
L 1638 672 
L 2253 2013 
L 2091 2434 
Q 2016 2622 1894 2694 
Q 1825 2738 1638 2747 
L 1638 2863 
L 3000 2863 
L 3000 2747 
Q 2775 2738 2681 2666 
Q 2619 2616 2619 2506 
Q 2619 2444 2644 2378 
L 3294 734 
L 3897 2319 
Q 3959 2488 3959 2588 
Q 3959 2647 3898 2694 
Q 3838 2741 3659 2747 
L 3659 2863 
L 4563 2863 
L 4563 2747 
Q 4291 2706 4163 2378 
L 3206 -88 
L 3078 -88 
L 2363 1741 
L 1528 -88 
L 1413 -88 
L 494 2319 
Q 403 2547 315 2626 
Q 228 2706 41 2747 
L 41 2863 
z
" transform="scale(0.015625)"/>
       </defs>
       <use xlink:href="#TimesNewRomanPSMT-49"/>
       <use xlink:href="#TimesNewRomanPSMT-6e" x="33.300781"/>
       <use xlink:href="#TimesNewRomanPSMT-66" x="83.300781"/>
       <use xlink:href="#TimesNewRomanPSMT-6c" x="116.601562"/>
       <use xlink:href="#TimesNewRomanPSMT-6f" x="144.384766"/>
       <use xlink:href="#TimesNewRomanPSMT-77" x="194.384766"/>
      </g>
     </g>
    </g>
    <g id="xtick_2">
     <g id="line2d_2">
      <path d="M 114.082938 123.552 
L 139.167721 46.348978 
" clip-path="url(#p14062e5ed2)" style="fill: none; stroke: #b0b0b0; stroke-width: 0.8; stroke-linecap: square"/>
     </g>
     <g id="text_2">
      <!-- Outflow -->
      <g transform="translate(123.496146 35.916999) scale(0.12 -0.12)">
       <defs>
        <path id="TimesNewRomanPSMT-4f" d="M 2341 4334 
Q 3166 4334 3770 3707 
Q 4375 3081 4375 2144 
Q 4375 1178 3765 540 
Q 3156 -97 2291 -97 
Q 1416 -97 820 525 
Q 225 1147 225 2134 
Q 225 3144 913 3781 
Q 1509 4334 2341 4334 
z
M 2281 4106 
Q 1713 4106 1369 3684 
Q 941 3159 941 2147 
Q 941 1109 1384 550 
Q 1725 125 2284 125 
Q 2881 125 3270 590 
Q 3659 1056 3659 2059 
Q 3659 3147 3231 3681 
Q 2888 4106 2281 4106 
z
" transform="scale(0.015625)"/>
        <path id="TimesNewRomanPSMT-75" d="M 2709 2863 
L 2709 1128 
Q 2709 631 2732 520 
Q 2756 409 2807 365 
Q 2859 322 2928 322 
Q 3025 322 3147 375 
L 3191 266 
L 2334 -88 
L 2194 -88 
L 2194 519 
Q 1825 119 1631 15 
Q 1438 -88 1222 -88 
Q 981 -88 804 51 
Q 628 191 559 409 
Q 491 628 491 1028 
L 491 2306 
Q 491 2509 447 2587 
Q 403 2666 317 2708 
Q 231 2750 6 2747 
L 6 2863 
L 1009 2863 
L 1009 947 
Q 1009 547 1148 422 
Q 1288 297 1484 297 
Q 1619 297 1789 381 
Q 1959 466 2194 703 
L 2194 2325 
Q 2194 2569 2105 2655 
Q 2016 2741 1734 2747 
L 1734 2863 
L 2709 2863 
z
" transform="scale(0.015625)"/>
        <path id="TimesNewRomanPSMT-74" d="M 1031 3803 
L 1031 2863 
L 1700 2863 
L 1700 2644 
L 1031 2644 
L 1031 788 
Q 1031 509 1111 412 
Q 1191 316 1316 316 
Q 1419 316 1516 380 
Q 1613 444 1666 569 
L 1788 569 
Q 1678 263 1478 108 
Q 1278 -47 1066 -47 
Q 922 -47 784 33 
Q 647 113 581 261 
Q 516 409 516 719 
L 516 2644 
L 63 2644 
L 63 2747 
Q 234 2816 414 2980 
Q 594 3144 734 3369 
Q 806 3488 934 3803 
L 1031 3803 
z
" transform="scale(0.015625)"/>
       </defs>
       <use xlink:href="#TimesNewRomanPSMT-4f"/>
       <use xlink:href="#TimesNewRomanPSMT-75" x="72.216797"/>
       <use xlink:href="#TimesNewRomanPSMT-74" x="122.216797"/>
       <use xlink:href="#TimesNewRomanPSMT-66" x="150"/>
       <use xlink:href="#TimesNewRomanPSMT-6c" x="183.300781"/>
       <use xlink:href="#TimesNewRomanPSMT-6f" x="211.083984"/>
       <use xlink:href="#TimesNewRomanPSMT-77" x="261.083984"/>
      </g>
     </g>
    </g>
    <g id="xtick_3">
     <g id="line2d_3">
      <path d="M 114.082938 123.552 
L 48.410125 75.837908 
" clip-path="url(#p14062e5ed2)" style="fill: none; stroke: #b0b0b0; stroke-width: 0.8; stroke-linecap: square"/>
     </g>
     <g id="text_3">
      <!-- Demand -->
      <g transform="translate(16.757012 70.491727) scale(0.12 -0.12)">
       <defs>
        <path id="TimesNewRomanPSMT-44" d="M 109 0 
L 109 116 
L 269 116 
Q 538 116 650 288 
Q 719 391 719 750 
L 719 3488 
Q 719 3884 631 3984 
Q 509 4122 269 4122 
L 109 4122 
L 109 4238 
L 1834 4238 
Q 2784 4238 3279 4022 
Q 3775 3806 4076 3303 
Q 4378 2800 4378 2141 
Q 4378 1256 3841 663 
Q 3238 0 2003 0 
L 109 0 
z
M 1319 306 
Q 1716 219 1984 219 
Q 2709 219 3187 728 
Q 3666 1238 3666 2109 
Q 3666 2988 3187 3494 
Q 2709 4000 1959 4000 
Q 1678 4000 1319 3909 
L 1319 306 
z
" transform="scale(0.015625)"/>
        <path id="TimesNewRomanPSMT-65" d="M 681 1784 
Q 678 1147 991 784 
Q 1303 422 1725 422 
Q 2006 422 2214 576 
Q 2422 731 2563 1106 
L 2659 1044 
Q 2594 616 2278 264 
Q 1963 -88 1488 -88 
Q 972 -88 605 314 
Q 238 716 238 1394 
Q 238 2128 614 2539 
Q 991 2950 1559 2950 
Q 2041 2950 2350 2633 
Q 2659 2316 2659 1784 
L 681 1784 
z
M 681 1966 
L 2006 1966 
Q 1991 2241 1941 2353 
Q 1863 2528 1708 2628 
Q 1553 2728 1384 2728 
Q 1125 2728 920 2526 
Q 716 2325 681 1966 
z
" transform="scale(0.015625)"/>
        <path id="TimesNewRomanPSMT-6d" d="M 1050 2338 
Q 1363 2650 1419 2697 
Q 1559 2816 1721 2881 
Q 1884 2947 2044 2947 
Q 2313 2947 2506 2790 
Q 2700 2634 2766 2338 
Q 3088 2713 3309 2830 
Q 3531 2947 3766 2947 
Q 3994 2947 4170 2830 
Q 4347 2713 4450 2447 
Q 4519 2266 4519 1878 
L 4519 647 
Q 4519 378 4559 278 
Q 4591 209 4675 161 
Q 4759 113 4950 113 
L 4950 0 
L 3538 0 
L 3538 113 
L 3597 113 
Q 3781 113 3884 184 
Q 3956 234 3988 344 
Q 4000 397 4000 647 
L 4000 1878 
Q 4000 2228 3916 2372 
Q 3794 2572 3525 2572 
Q 3359 2572 3192 2489 
Q 3025 2406 2788 2181 
L 2781 2147 
L 2788 2013 
L 2788 647 
Q 2788 353 2820 281 
Q 2853 209 2943 161 
Q 3034 113 3253 113 
L 3253 0 
L 1806 0 
L 1806 113 
Q 2044 113 2133 169 
Q 2222 225 2256 338 
Q 2272 391 2272 647 
L 2272 1878 
Q 2272 2228 2169 2381 
Q 2031 2581 1784 2581 
Q 1616 2581 1450 2491 
Q 1191 2353 1050 2181 
L 1050 647 
Q 1050 366 1089 281 
Q 1128 197 1204 155 
Q 1281 113 1516 113 
L 1516 0 
L 100 0 
L 100 113 
Q 297 113 375 155 
Q 453 197 493 289 
Q 534 381 534 647 
L 534 1741 
Q 534 2213 506 2350 
Q 484 2453 437 2492 
Q 391 2531 309 2531 
Q 222 2531 100 2484 
L 53 2597 
L 916 2947 
L 1050 2947 
L 1050 2338 
z
" transform="scale(0.015625)"/>
        <path id="TimesNewRomanPSMT-61" d="M 1822 413 
Q 1381 72 1269 19 
Q 1100 -59 909 -59 
Q 613 -59 420 144 
Q 228 347 228 678 
Q 228 888 322 1041 
Q 450 1253 767 1440 
Q 1084 1628 1822 1897 
L 1822 2009 
Q 1822 2438 1686 2597 
Q 1550 2756 1291 2756 
Q 1094 2756 978 2650 
Q 859 2544 859 2406 
L 866 2225 
Q 866 2081 792 2003 
Q 719 1925 600 1925 
Q 484 1925 411 2006 
Q 338 2088 338 2228 
Q 338 2497 613 2722 
Q 888 2947 1384 2947 
Q 1766 2947 2009 2819 
Q 2194 2722 2281 2516 
Q 2338 2381 2338 1966 
L 2338 994 
Q 2338 584 2353 492 
Q 2369 400 2405 369 
Q 2441 338 2488 338 
Q 2538 338 2575 359 
Q 2641 400 2828 588 
L 2828 413 
Q 2478 -56 2159 -56 
Q 2006 -56 1915 50 
Q 1825 156 1822 413 
z
M 1822 616 
L 1822 1706 
Q 1350 1519 1213 1441 
Q 966 1303 859 1153 
Q 753 1003 753 825 
Q 753 600 887 451 
Q 1022 303 1197 303 
Q 1434 303 1822 616 
z
" transform="scale(0.015625)"/>
        <path id="TimesNewRomanPSMT-64" d="M 2222 322 
Q 2013 103 1813 7 
Q 1613 -88 1381 -88 
Q 913 -88 563 304 
Q 213 697 213 1313 
Q 213 1928 600 2439 
Q 988 2950 1597 2950 
Q 1975 2950 2222 2709 
L 2222 3238 
Q 2222 3728 2198 3840 
Q 2175 3953 2125 3993 
Q 2075 4034 2000 4034 
Q 1919 4034 1784 3984 
L 1744 4094 
L 2597 4444 
L 2738 4444 
L 2738 1134 
Q 2738 631 2761 520 
Q 2784 409 2836 365 
Q 2888 322 2956 322 
Q 3041 322 3181 375 
L 3216 266 
L 2366 -88 
L 2222 -88 
L 2222 322 
z
M 2222 541 
L 2222 2016 
Q 2203 2228 2109 2403 
Q 2016 2578 1861 2667 
Q 1706 2756 1559 2756 
Q 1284 2756 1069 2509 
Q 784 2184 784 1559 
Q 784 928 1059 592 
Q 1334 256 1672 256 
Q 1956 256 2222 541 
z
" transform="scale(0.015625)"/>
       </defs>
       <use xlink:href="#TimesNewRomanPSMT-44"/>
       <use xlink:href="#TimesNewRomanPSMT-65" x="72.216797"/>
       <use xlink:href="#TimesNewRomanPSMT-6d" x="116.601562"/>
       <use xlink:href="#TimesNewRomanPSMT-61" x="194.384766"/>
       <use xlink:href="#TimesNewRomanPSMT-6e" x="238.769531"/>
       <use xlink:href="#TimesNewRomanPSMT-64" x="288.769531"/>
      </g>
     </g>
    </g>
    <g id="xtick_4">
     <g id="line2d_4">
      <path d="M 114.082938 123.552 
L 48.410125 171.266092 
" clip-path="url(#p14062e5ed2)" style="fill: none; stroke: #b0b0b0; stroke-width: 0.8; stroke-linecap: square"/>
     </g>
     <g id="text_4">
      <!-- Generation -->
      <g transform="translate(10.428887 182.377898) scale(0.12 -0.12)">
       <defs>
        <path id="TimesNewRomanPSMT-47" d="M 3928 4334 
L 4038 2997 
L 3928 2997 
Q 3763 3497 3500 3750 
Q 3122 4116 2528 4116 
Q 1719 4116 1297 3475 
Q 944 2934 944 2188 
Q 944 1581 1178 1081 
Q 1413 581 1792 348 
Q 2172 116 2572 116 
Q 2806 116 3025 175 
Q 3244 234 3447 350 
L 3447 1575 
Q 3447 1894 3398 1992 
Q 3350 2091 3248 2142 
Q 3147 2194 2891 2194 
L 2891 2313 
L 4531 2313 
L 4531 2194 
L 4453 2194 
Q 4209 2194 4119 2031 
Q 4056 1916 4056 1575 
L 4056 278 
Q 3697 84 3347 -6 
Q 2997 -97 2569 -97 
Q 1341 -97 703 691 
Q 225 1281 225 2053 
Q 225 2613 494 3125 
Q 813 3734 1369 4063 
Q 1834 4334 2469 4334 
Q 2700 4334 2889 4296 
Q 3078 4259 3425 4131 
Q 3600 4066 3659 4066 
Q 3719 4066 3761 4120 
Q 3803 4175 3813 4334 
L 3928 4334 
z
" transform="scale(0.015625)"/>
        <path id="TimesNewRomanPSMT-72" d="M 1038 2947 
L 1038 2303 
Q 1397 2947 1775 2947 
Q 1947 2947 2059 2842 
Q 2172 2738 2172 2600 
Q 2172 2478 2090 2393 
Q 2009 2309 1897 2309 
Q 1788 2309 1652 2417 
Q 1516 2525 1450 2525 
Q 1394 2525 1328 2463 
Q 1188 2334 1038 2041 
L 1038 669 
Q 1038 431 1097 309 
Q 1138 225 1241 169 
Q 1344 113 1538 113 
L 1538 0 
L 72 0 
L 72 113 
Q 291 113 397 181 
Q 475 231 506 341 
Q 522 394 522 644 
L 522 1753 
Q 522 2253 501 2348 
Q 481 2444 426 2487 
Q 372 2531 291 2531 
Q 194 2531 72 2484 
L 41 2597 
L 906 2947 
L 1038 2947 
z
" transform="scale(0.015625)"/>
        <path id="TimesNewRomanPSMT-69" d="M 928 4444 
Q 1059 4444 1151 4351 
Q 1244 4259 1244 4128 
Q 1244 3997 1151 3903 
Q 1059 3809 928 3809 
Q 797 3809 703 3903 
Q 609 3997 609 4128 
Q 609 4259 701 4351 
Q 794 4444 928 4444 
z
M 1188 2947 
L 1188 647 
Q 1188 378 1227 289 
Q 1266 200 1342 156 
Q 1419 113 1622 113 
L 1622 0 
L 231 0 
L 231 113 
Q 441 113 512 153 
Q 584 194 626 287 
Q 669 381 669 647 
L 669 1750 
Q 669 2216 641 2353 
Q 619 2453 572 2492 
Q 525 2531 444 2531 
Q 356 2531 231 2484 
L 188 2597 
L 1050 2947 
L 1188 2947 
z
" transform="scale(0.015625)"/>
       </defs>
       <use xlink:href="#TimesNewRomanPSMT-47"/>
       <use xlink:href="#TimesNewRomanPSMT-65" x="72.216797"/>
       <use xlink:href="#TimesNewRomanPSMT-6e" x="116.601562"/>
       <use xlink:href="#TimesNewRomanPSMT-65" x="166.601562"/>
       <use xlink:href="#TimesNewRomanPSMT-72" x="210.986328"/>
       <use xlink:href="#TimesNewRomanPSMT-61" x="244.287109"/>
       <use xlink:href="#TimesNewRomanPSMT-74" x="288.671875"/>
       <use xlink:href="#TimesNewRomanPSMT-69" x="316.455078"/>
       <use xlink:href="#TimesNewRomanPSMT-6f" x="344.238281"/>
       <use xlink:href="#TimesNewRomanPSMT-6e" x="394.238281"/>
      </g>
     </g>
    </g>
    <g id="xtick_5">
     <g id="line2d_5">
      <path d="M 114.082938 123.552 
L 139.167721 200.755022 
" clip-path="url(#p14062e5ed2)" style="fill: none; stroke: #b0b0b0; stroke-width: 0.8; stroke-linecap: square"/>
     </g>
     <g id="text_5">
      <!-- Curtailment -->
      <g transform="translate(114.832709 216.952626) scale(0.12 -0.12)">
       <defs>
        <path id="TimesNewRomanPSMT-43" d="M 3853 4334 
L 3950 2894 
L 3853 2894 
Q 3659 3541 3300 3825 
Q 2941 4109 2438 4109 
Q 2016 4109 1675 3895 
Q 1334 3681 1139 3212 
Q 944 2744 944 2047 
Q 944 1472 1128 1050 
Q 1313 628 1683 403 
Q 2053 178 2528 178 
Q 2941 178 3256 354 
Q 3572 531 3950 1056 
L 4047 994 
Q 3728 428 3303 165 
Q 2878 -97 2294 -97 
Q 1241 -97 663 684 
Q 231 1266 231 2053 
Q 231 2688 515 3219 
Q 800 3750 1298 4042 
Q 1797 4334 2388 4334 
Q 2847 4334 3294 4109 
Q 3425 4041 3481 4041 
Q 3566 4041 3628 4100 
Q 3709 4184 3744 4334 
L 3853 4334 
z
" transform="scale(0.015625)"/>
       </defs>
       <use xlink:href="#TimesNewRomanPSMT-43"/>
       <use xlink:href="#TimesNewRomanPSMT-75" x="66.699219"/>
       <use xlink:href="#TimesNewRomanPSMT-72" x="116.699219"/>
       <use xlink:href="#TimesNewRomanPSMT-74" x="150"/>
       <use xlink:href="#TimesNewRomanPSMT-61" x="177.783203"/>
       <use xlink:href="#TimesNewRomanPSMT-69" x="222.167969"/>
       <use xlink:href="#TimesNewRomanPSMT-6c" x="249.951172"/>
       <use xlink:href="#TimesNewRomanPSMT-6d" x="277.734375"/>
       <use xlink:href="#TimesNewRomanPSMT-65" x="355.517578"/>
       <use xlink:href="#TimesNewRomanPSMT-6e" x="399.902344"/>
       <use xlink:href="#TimesNewRomanPSMT-74" x="449.902344"/>
      </g>
     </g>
    </g>
   </g>
   <g id="matplotlib.axis_2">
    <g id="ytick_1">
     <g id="line2d_6">
      <path d="M 130.560044 123.552 
C 130.560044 121.388246 130.133832 119.245532 129.305799 117.246484 
C 128.477767 115.247437 127.264017 113.430931 125.734012 111.900927 
C 124.204007 110.370922 122.387502 109.157172 120.388454 108.329139 
C 118.389406 107.501106 116.246692 107.074894 114.082938 107.074894 
C 111.919185 107.074894 109.776471 107.501106 107.777423 108.329139 
C 105.778375 109.157172 103.96187 110.370922 102.431865 111.900927 
C 100.90186 113.430931 99.68811 115.247437 98.860077 117.246484 
C 98.032044 119.245532 97.605832 121.388246 97.605832 123.552 
C 97.605832 125.715754 98.032044 127.858468 98.860077 129.857516 
C 99.68811 131.856563 100.90186 133.673069 102.431865 135.203073 
C 103.96187 136.733078 105.778375 137.946828 107.777423 138.774861 
C 109.776471 139.602894 111.919185 140.029106 114.082938 140.029106 
C 116.246692 140.029106 118.389406 139.602894 120.388454 138.774861 
C 122.387502 137.946828 124.204007 136.733078 125.734012 135.203073 
C 127.264017 133.673069 128.477767 131.856563 129.305799 129.857516 
C 130.133832 127.858468 130.560044 125.715754 130.560044 123.552 
" clip-path="url(#p14062e5ed2)" style="fill: none; stroke: #b0b0b0; stroke-width: 0.8; stroke-linecap: square"/>
     </g>
    </g>
    <g id="ytick_2">
     <g id="line2d_7">
      <path d="M 147.03715 123.552 
C 147.03715 119.224493 146.184726 114.939065 144.52866 110.940969 
C 142.872595 106.942873 140.445095 103.309863 137.385085 100.249853 
C 134.325075 97.189843 130.692065 94.762343 126.693969 93.106278 
C 122.695874 91.450212 118.410446 90.597788 114.082938 90.597788 
C 109.755431 90.597788 105.470003 91.450212 101.471907 93.106278 
C 97.473812 94.762343 93.840801 97.189843 90.780791 100.249853 
C 87.720781 103.309863 85.293282 106.942873 83.637216 110.940969 
C 81.981151 114.939065 81.128726 119.224493 81.128726 123.552 
C 81.128726 127.879507 81.981151 132.164935 83.637216 136.163031 
C 85.293282 140.161127 87.720781 143.794137 90.780791 146.854147 
C 93.840801 149.914157 97.473812 152.341657 101.471907 153.997722 
C 105.470003 155.653788 109.755431 156.506212 114.082938 156.506212 
C 118.410446 156.506212 122.695874 155.653788 126.693969 153.997722 
C 130.692065 152.341657 134.325075 149.914157 137.385085 146.854147 
C 140.445095 143.794137 142.872595 140.161127 144.52866 136.163031 
C 146.184726 132.164935 147.03715 127.879507 147.03715 123.552 
" clip-path="url(#p14062e5ed2)" style="fill: none; stroke: #b0b0b0; stroke-width: 0.8; stroke-linecap: square"/>
     </g>
    </g>
    <g id="ytick_3">
     <g id="line2d_8">
      <path d="M 163.514257 123.552 
C 163.514257 117.060739 162.23562 110.632597 159.751521 104.635453 
C 157.267423 98.63831 153.626173 93.188794 149.036159 88.59878 
C 144.446144 84.008765 138.996628 80.367515 132.999485 77.883417 
C 127.002341 75.399319 120.574199 74.120682 114.082938 74.120682 
C 107.591677 74.120682 101.163535 75.399319 95.166392 77.883417 
C 89.169248 80.367515 83.719733 84.008765 79.129718 88.59878 
C 74.539703 93.188794 70.898453 98.63831 68.414355 104.635453 
C 65.930257 110.632597 64.65162 117.060739 64.65162 123.552 
C 64.65162 130.043261 65.930257 136.471403 68.414355 142.468547 
C 70.898453 148.46569 74.539703 153.915206 79.129718 158.50522 
C 83.719733 163.095235 89.169248 166.736485 95.166392 169.220583 
C 101.163535 171.704681 107.591677 172.983318 114.082938 172.983318 
C 120.574199 172.983318 127.002341 171.704681 132.999485 169.220583 
C 138.996628 166.736485 144.446144 163.095235 149.036159 158.50522 
C 153.626173 153.915206 157.267423 148.46569 159.751521 142.468547 
C 162.23562 136.471403 163.514257 130.043261 163.514257 123.552 
" clip-path="url(#p14062e5ed2)" style="fill: none; stroke: #b0b0b0; stroke-width: 0.8; stroke-linecap: square"/>
     </g>
    </g>
    <g id="ytick_4">
     <g id="line2d_9">
      <path d="M 179.991363 123.552 
C 179.991363 114.896985 178.286513 106.326129 174.974383 98.329938 
C 171.662252 90.333747 166.807252 83.067726 160.687232 76.947706 
C 154.567212 70.827686 147.301191 65.972687 139.305 62.660556 
C 131.308809 59.348425 122.737953 57.643576 114.082938 57.643576 
C 105.427923 57.643576 96.857067 59.348425 88.860876 62.660556 
C 80.864685 65.972687 73.598664 70.827686 67.478644 76.947706 
C 61.358625 83.067726 56.503625 90.333747 53.191494 98.329938 
C 49.879363 106.326129 48.174514 114.896985 48.174514 123.552 
C 48.174514 132.207015 49.879363 140.777871 53.191494 148.774062 
C 56.503625 156.770253 61.358625 164.036274 67.478644 170.156294 
C 73.598664 176.276314 80.864685 181.131313 88.860876 184.443444 
C 96.857067 187.755575 105.427923 189.460424 114.082938 189.460424 
C 122.737953 189.460424 131.308809 187.755575 139.305 184.443444 
C 147.301191 181.131313 154.567212 176.276314 160.687232 170.156294 
C 166.807252 164.036274 171.662252 156.770253 174.974383 148.774062 
C 178.286513 140.777871 179.991363 132.207015 179.991363 123.552 
" clip-path="url(#p14062e5ed2)" style="fill: none; stroke: #b0b0b0; stroke-width: 0.8; stroke-linecap: square"/>
     </g>
    </g>
   </g>
   <g id="line2d_10">
    <path d="M 123.344456 123.552 
L 119.58874 106.606886 
L 73.167206 93.82498 
L 51.180605 169.25322 
L 119.837237 141.261912 
L 123.344456 123.552 
" clip-path="url(#p14062e5ed2)" style="fill: none; stroke: #66c2a5; stroke-width: 2; stroke-linecap: square"/>
   </g>
   <g id="patch_4">
    <path d="M 195.259 123.552 
C 195.259 112.892057 193.159224 102.335769 189.07984 92.487266 
C 185.000457 82.638763 179.0208 73.689574 171.483082 66.151856 
C 163.945364 58.614138 154.996175 52.634482 145.147672 48.555098 
C 135.299169 44.475715 124.742881 42.375938 114.082938 42.375938 
C 103.422995 42.375938 92.866707 44.475715 83.018204 48.555098 
C 73.169701 52.634482 64.220512 58.614138 56.682795 66.151856 
C 49.145077 73.689574 43.16542 82.638763 39.086036 92.487266 
C 35.006653 102.335769 32.906876 112.892057 32.906876 123.552 
C 32.906876 134.211943 35.006653 144.768231 39.086036 154.616734 
C 43.16542 164.465237 49.145077 173.414426 56.682795 180.952144 
C 64.220512 188.489862 73.169701 194.469518 83.018204 198.548902 
C 92.866707 202.628285 103.422995 204.728062 114.082938 204.728062 
C 124.742881 204.728062 135.299169 202.628285 145.147672 198.548902 
C 154.996175 194.469518 163.945364 188.489862 171.483082 180.952144 
C 179.0208 173.414426 185.000457 164.465237 189.07984 154.616734 
C 193.159224 144.768231 195.259 134.211943 195.259 123.552 
" style="fill: none; stroke: #008000; stroke-width: 0.8; stroke-linejoin: miter; stroke-linecap: square"/>
   </g>
  </g>
 </g>
 <defs>
  <clipPath id="p14062e5ed2">
   <path d="M 195.259 123.552 
C 195.259 112.892057 193.159224 102.335769 189.07984 92.487266 
C 185.000457 82.638763 179.0208 73.689574 171.483082 66.151856 
C 163.945364 58.614138 154.996175 52.634482 145.147672 48.555098 
C 135.299169 44.475715 124.742881 42.375938 114.082938 42.375938 
C 103.422995 42.375938 92.866707 44.475715 83.018204 48.555098 
C 73.169701 52.634482 64.220512 58.614138 56.682795 66.151856 
C 49.145077 73.689574 43.16542 82.638763 39.086036 92.487266 
C 35.006653 102.335769 32.906876 112.892057 32.906876 123.552 
C 32.906876 134.211943 35.006653 144.768231 39.086036 154.616734 
C 43.16542 164.465237 49.145077 173.414426 56.682795 180.952144 
C 64.220512 188.489862 73.169701 194.469518 83.018204 198.548902 
C 92.866707 202.628285 103.422995 204.728062 114.082938 204.728062 
C 124.742881 204.728062 135.299169 202.628285 145.147672 198.548902 
C 154.996175 194.469518 163.945364 188.489862 171.483082 180.952144 
C 179.0208 173.414426 185.000457 164.465237 189.07984 154.616734 
C 193.159224 144.768231 195.259 134.211943 195.259 123.552 
M 114.082938 123.552 
C 114.082938 123.552 114.082938 123.552 114.082938 123.552 
C 114.082938 123.552 114.082938 123.552 114.082938 123.552 
C 114.082938 123.552 114.082938 123.552 114.082938 123.552 
C 114.082938 123.552 114.082938 123.552 114.082938 123.552 
C 114.082938 123.552 114.082938 123.552 114.082938 123.552 
C 114.082938 123.552 114.082938 123.552 114.082938 123.552 
C 114.082938 123.552 114.082938 123.552 114.082938 123.552 
C 114.082938 123.552 114.082938 123.552 114.082938 123.552 
C 114.082938 123.552 114.082938 123.552 114.082938 123.552 
C 114.082938 123.552 114.082938 123.552 114.082938 123.552 
C 114.082938 123.552 114.082938 123.552 114.082938 123.552 
C 114.082938 123.552 114.082938 123.552 114.082938 123.552 
C 114.082938 123.552 114.082938 123.552 114.082938 123.552 
C 114.082938 123.552 114.082938 123.552 114.082938 123.552 
C 114.082938 123.552 114.082938 123.552 114.082938 123.552 
C 114.082938 123.552 114.082938 123.552 114.082938 123.552 
z
"/>
  </clipPath>
 </defs>
</svg>
