<?xml version="1.0" encoding="utf-8" standalone="no"?>
<!DOCTYPE svg PUBLIC "-//W3C//DTD SVG 1.1//EN"
  "http://www.w3.org/Graphics/SVG/1.1/DTD/svg11.dtd">
<svg xmlns:xlink="http://www.w3.org/1999/xlink" width="237.6pt" height="237.6pt" viewBox="0 0 237.6 237.6" xmlns="http://www.w3.org/2000/svg" version="1.1">
 <metadata>
  <rdf:RDF xmlns:dc="http://purl.org/dc/elements/1.1/" xmlns:cc="http://creativecommons.org/ns#" xmlns:rdf="http://www.w3.org/1999/02/22-rdf-syntax-ns#">
   <cc:Work>
    <dc:type rdf:resource="http://purl.org/dc/dcmitype/StillImage"/>
    <dc:date>2024-07-22T21:28:52.508470</dc:date>
    <dc:format>image/svg+xml</dc:format>
    <dc:creator>
     <cc:Agent>
      <dc:title>Matplotlib v3.9.0, https://matplotlib.org/</dc:title>
     </cc:Agent>
    </dc:creator>
   </cc:Work>
  </rdf:RDF>
 </metadata>
 <defs>
  <style type="text/css">*{stroke-linejoin: round; stroke-linecap: butt}</style>
 </defs>
 <g id="figure_1">
  <g id="patch_1">
   <path d="M 0 237.6 
L 237.6 237.6 
L 237.6 0 
L 0 0 
z
" style="fill: #ffffff"/>
  </g>
  <g id="axes_1">
   <g id="patch_2">
    <path d="M 195.259 123.552 
C 195.259 112.892057 193.159224 102.335769 189.07984 92.487266 
C 185.000457 82.638763 179.0208 73.689574 171.483082 66.151856 
C 163.945364 58.614138 154.996175 52.634482 145.147672 48.555098 
C 135.299169 44.475715 124.742881 42.375938 114.082938 42.375938 
C 103.422995 42.375938 92.866707 44.475715 83.018204 48.555098 
C 73.169701 52.634482 64.220512 58.614138 56.682795 66.151856 
C 49.145077 73.689574 43.16542 82.638763 39.086036 92.487266 
C 35.006653 102.335769 32.906876 112.892057 32.906876 123.552 
C 32.906876 134.211943 35.006653 144.768231 39.086036 154.616734 
C 43.16542 164.465237 49.145077 173.414426 56.682795 180.952144 
C 64.220512 188.489862 73.169701 194.469518 83.018204 198.548902 
C 92.866707 202.628285 103.422995 204.728062 114.082938 204.728062 
C 124.742881 204.728062 135.299169 202.628285 145.147672 198.548902 
C 154.996175 194.469518 163.945364 188.489862 171.483082 180.952144 
C 179.0208 173.414426 185.000457 164.465237 189.07984 154.616734 
C 193.159224 144.768231 195.259 134.211943 195.259 123.552 
M 114.082938 123.552 
C 114.082938 123.552 114.082938 123.552 114.082938 123.552 
C 114.082938 123.552 114.082938 123.552 114.082938 123.552 
C 114.082938 123.552 114.082938 123.552 114.082938 123.552 
C 114.082938 123.552 114.082938 123.552 114.082938 123.552 
C 114.082938 123.552 114.082938 123.552 114.082938 123.552 
C 114.082938 123.552 114.082938 123.552 114.082938 123.552 
C 114.082938 123.552 114.082938 123.552 114.082938 123.552 
C 114.082938 123.552 114.082938 123.552 114.082938 123.552 
C 114.082938 123.552 114.082938 123.552 114.082938 123.552 
C 114.082938 123.552 114.082938 123.552 114.082938 123.552 
C 114.082938 123.552 114.082938 123.552 114.082938 123.552 
C 114.082938 123.552 114.082938 123.552 114.082938 123.552 
C 114.082938 123.552 114.082938 123.552 114.082938 123.552 
C 114.082938 123.552 114.082938 123.552 114.082938 123.552 
C 114.082938 123.552 114.082938 123.552 114.082938 123.552 
C 114.082938 123.552 114.082938 123.552 114.082938 123.552 
z
" style="fill: #ffffff"/>
   </g>
   <g id="patch_3">
    <path d="M 191.504125 123.552 
L 137.777181 50.62862 
L 77.976292 97.318986 
L 76.699118 150.712935 
L 114.800995 125.761952 
z
" clip-path="url(#pd2ba32eb3e)" style="fill: #de8f05; opacity: 0.25; stroke: #de8f05; stroke-linejoin: miter"/>
   </g>
   <g id="matplotlib.axis_1">
    <g id="xtick_1">
     <g id="line2d_1">
      <path d="M 114.082938 123.552 
L 195.259 123.552 
" clip-path="url(#pd2ba32eb3e)" style="fill: none; stroke: #b0b0b0; stroke-width: 0.8; stroke-linecap: square"/>
     </g>
     <g id="text_1">
      <!-- Inflow -->
      <g transform="translate(193.263375 126.434812) scale(0.12 -0.12)">
       <defs>
        <path id="TimesNewRomanPSMT-49" d="M 1975 116 
L 1975 0 
L 159 0 
L 159 116 
L 309 116 
Q 572 116 691 269 
Q 766 369 766 750 
L 766 3488 
Q 766 3809 725 3913 
Q 694 3991 597 4047 
Q 459 4122 309 4122 
L 159 4122 
L 159 4238 
L 1975 4238 
L 1975 4122 
L 1822 4122 
Q 1563 4122 1444 3969 
Q 1366 3869 1366 3488 
L 1366 750 
Q 1366 428 1406 325 
Q 1438 247 1538 191 
Q 1672 116 1822 116 
L 1975 116 
z
" transform="scale(0.015625)"/>
        <path id="TimesNewRomanPSMT-6e" d="M 1034 2341 
Q 1538 2947 1994 2947 
Q 2228 2947 2397 2830 
Q 2566 2713 2666 2444 
Q 2734 2256 2734 1869 
L 2734 647 
Q 2734 375 2778 278 
Q 2813 200 2889 156 
Q 2966 113 3172 113 
L 3172 0 
L 1756 0 
L 1756 113 
L 1816 113 
Q 2016 113 2095 173 
Q 2175 234 2206 353 
Q 2219 400 2219 647 
L 2219 1819 
Q 2219 2209 2117 2386 
Q 2016 2563 1775 2563 
Q 1403 2563 1034 2156 
L 1034 647 
Q 1034 356 1069 288 
Q 1113 197 1189 155 
Q 1266 113 1500 113 
L 1500 0 
L 84 0 
L 84 113 
L 147 113 
Q 366 113 442 223 
Q 519 334 519 647 
L 519 1709 
Q 519 2225 495 2337 
Q 472 2450 423 2490 
Q 375 2531 294 2531 
Q 206 2531 84 2484 
L 38 2597 
L 900 2947 
L 1034 2947 
L 1034 2341 
z
" transform="scale(0.015625)"/>
        <path id="TimesNewRomanPSMT-66" d="M 1319 2638 
L 1319 756 
Q 1319 356 1406 250 
Q 1522 113 1716 113 
L 1975 113 
L 1975 0 
L 266 0 
L 266 113 
L 394 113 
Q 519 113 622 175 
Q 725 238 764 344 
Q 803 450 803 756 
L 803 2638 
L 247 2638 
L 247 2863 
L 803 2863 
L 803 3050 
Q 803 3478 940 3775 
Q 1078 4072 1361 4255 
Q 1644 4438 1997 4438 
Q 2325 4438 2600 4225 
Q 2781 4084 2781 3909 
Q 2781 3816 2700 3733 
Q 2619 3650 2525 3650 
Q 2453 3650 2373 3701 
Q 2294 3753 2178 3923 
Q 2063 4094 1966 4153 
Q 1869 4213 1750 4213 
Q 1606 4213 1506 4136 
Q 1406 4059 1362 3898 
Q 1319 3738 1319 3069 
L 1319 2863 
L 2056 2863 
L 2056 2638 
L 1319 2638 
z
" transform="scale(0.015625)"/>
        <path id="TimesNewRomanPSMT-6c" d="M 1184 4444 
L 1184 647 
Q 1184 378 1223 290 
Q 1263 203 1344 158 
Q 1425 113 1647 113 
L 1647 0 
L 244 0 
L 244 113 
Q 441 113 512 153 
Q 584 194 625 287 
Q 666 381 666 647 
L 666 3247 
Q 666 3731 644 3842 
Q 622 3953 573 3993 
Q 525 4034 450 4034 
Q 369 4034 244 3984 
L 191 4094 
L 1044 4444 
L 1184 4444 
z
" transform="scale(0.015625)"/>
        <path id="TimesNewRomanPSMT-6f" d="M 1600 2947 
Q 2250 2947 2644 2453 
Q 2978 2031 2978 1484 
Q 2978 1100 2793 706 
Q 2609 313 2286 112 
Q 1963 -88 1566 -88 
Q 919 -88 538 428 
Q 216 863 216 1403 
Q 216 1797 411 2186 
Q 606 2575 925 2761 
Q 1244 2947 1600 2947 
z
M 1503 2744 
Q 1338 2744 1170 2645 
Q 1003 2547 900 2300 
Q 797 2053 797 1666 
Q 797 1041 1045 587 
Q 1294 134 1700 134 
Q 2003 134 2200 384 
Q 2397 634 2397 1244 
Q 2397 2006 2069 2444 
Q 1847 2744 1503 2744 
z
" transform="scale(0.015625)"/>
        <path id="TimesNewRomanPSMT-77" d="M 41 2863 
L 1241 2863 
L 1241 2747 
Q 1075 2734 1023 2687 
Q 972 2641 972 2553 
Q 972 2456 1025 2319 
L 1638 672 
L 2253 2013 
L 2091 2434 
Q 2016 2622 1894 2694 
Q 1825 2738 1638 2747 
L 1638 2863 
L 3000 2863 
L 3000 2747 
Q 2775 2738 2681 2666 
Q 2619 2616 2619 2506 
Q 2619 2444 2644 2378 
L 3294 734 
L 3897 2319 
Q 3959 2488 3959 2588 
Q 3959 2647 3898 2694 
Q 3838 2741 3659 2747 
L 3659 2863 
L 4563 2863 
L 4563 2747 
Q 4291 2706 4163 2378 
L 3206 -88 
L 3078 -88 
L 2363 1741 
L 1528 -88 
L 1413 -88 
L 494 2319 
Q 403 2547 315 2626 
Q 228 2706 41 2747 
L 41 2863 
z
" transform="scale(0.015625)"/>
       </defs>
       <use xlink:href="#TimesNewRomanPSMT-49"/>
       <use xlink:href="#TimesNewRomanPSMT-6e" x="33.300781"/>
       <use xlink:href="#TimesNewRomanPSMT-66" x="83.300781"/>
       <use xlink:href="#TimesNewRomanPSMT-6c" x="116.601562"/>
       <use xlink:href="#TimesNewRomanPSMT-6f" x="144.384766"/>
       <use xlink:href="#TimesNewRomanPSMT-77" x="194.384766"/>
      </g>
     </g>
    </g>
    <g id="xtick_2">
     <g id="line2d_2">
      <path d="M 114.082938 123.552 
L 139.167721 46.348978 
" clip-path="url(#pd2ba32eb3e)" style="fill: none; stroke: #b0b0b0; stroke-width: 0.8; stroke-linecap: square"/>
     </g>
     <g id="text_2">
      <!-- Outflow -->
      <g transform="translate(123.496146 35.916999) scale(0.12 -0.12)">
       <defs>
        <path id="TimesNewRomanPSMT-4f" d="M 2341 4334 
Q 3166 4334 3770 3707 
Q 4375 3081 4375 2144 
Q 4375 1178 3765 540 
Q 3156 -97 2291 -97 
Q 1416 -97 820 525 
Q 225 1147 225 2134 
Q 225 3144 913 3781 
Q 1509 4334 2341 4334 
z
M 2281 4106 
Q 1713 4106 1369 3684 
Q 941 3159 941 2147 
Q 941 1109 1384 550 
Q 1725 125 2284 125 
Q 2881 125 3270 590 
Q 3659 1056 3659 2059 
Q 3659 3147 3231 3681 
Q 2888 4106 2281 4106 
z
" transform="scale(0.015625)"/>
        <path id="TimesNewRomanPSMT-75" d="M 2709 2863 
L 2709 1128 
Q 2709 631 2732 520 
Q 2756 409 2807 365 
Q 2859 322 2928 322 
Q 3025 322 3147 375 
L 3191 266 
L 2334 -88 
L 2194 -88 
L 2194 519 
Q 1825 119 1631 15 
Q 1438 -88 1222 -88 
Q 981 -88 804 51 
Q 628 191 559 409 
Q 491 628 491 1028 
L 491 2306 
Q 491 2509 447 2587 
Q 403 2666 317 2708 
Q 231 2750 6 2747 
L 6 2863 
L 1009 2863 
L 1009 947 
Q 1009 547 1148 422 
Q 1288 297 1484 297 
Q 1619 297 1789 381 
Q 1959 466 2194 703 
L 2194 2325 
Q 2194 2569 2105 2655 
Q 2016 2741 1734 2747 
L 1734 2863 
L 2709 2863 
z
" transform="scale(0.015625)"/>
        <path id="TimesNewRomanPSMT-74" d="M 1031 3803 
L 1031 2863 
L 1700 2863 
L 1700 2644 
L 1031 2644 
L 1031 788 
Q 1031 509 1111 412 
Q 1191 316 1316 316 
Q 1419 316 1516 380 
Q 1613 444 1666 569 
L 1788 569 
Q 1678 263 1478 108 
Q 1278 -47 1066 -47 
Q 922 -47 784 33 
Q 647 113 581 261 
Q 516 409 516 719 
L 516 2644 
L 63 2644 
L 63 2747 
Q 234 2816 414 2980 
Q 594 3144 734 3369 
Q 806 3488 934 3803 
L 1031 3803 
z
" transform="scale(0.015625)"/>
       </defs>
       <use xlink:href="#TimesNewRomanPSMT-4f"/>
       <use xlink:href="#TimesNewRomanPSMT-75" x="72.216797"/>
       <use xlink:href="#TimesNewRomanPSMT-74" x="122.216797"/>
       <use xlink:href="#TimesNewRomanPSMT-66" x="150"/>
       <use xlink:href="#TimesNewRomanPSMT-6c" x="183.300781"/>
       <use xlink:href="#TimesNewRomanPSMT-6f" x="211.083984"/>
       <use xlink:href="#TimesNewRomanPSMT-77" x="261.083984"/>
      </g>
     </g>
    </g>
    <g id="xtick_3">
     <g id="line2d_3">
      <path d="M 114.082938 123.552 
L 48.410125 75.837908 
" clip-path="url(#pd2ba32eb3e)" style="fill: none; stroke: #b0b0b0; stroke-width: 0.8; stroke-linecap: square"/>
     </g>
     <g id="text_3">
      <!-- Demand -->
      <g transform="translate(16.757012 70.491727) scale(0.12 -0.12)">
       <defs>
        <path id="TimesNewRomanPSMT-44" d="M 109 0 
L 109 116 
L 269 116 
Q 538 116 650 288 
Q 719 391 719 750 
L 719 3488 
Q 719 3884 631 3984 
Q 509 4122 269 4122 
L 109 4122 
L 109 4238 
L 1834 4238 
Q 2784 4238 3279 4022 
Q 3775 3806 4076 3303 
Q 4378 2800 4378 2141 
Q 4378 1256 3841 663 
Q 3238 0 2003 0 
L 109 0 
z
M 1319 306 
Q 1716 219 1984 219 
Q 2709 219 3187 728 
Q 3666 1238 3666 2109 
Q 3666 2988 3187 3494 
Q 2709 4000 1959 4000 
Q 1678 4000 1319 3909 
L 1319 306 
z
" transform="scale(0.015625)"/>
        <path id="TimesNewRomanPSMT-65" d="M 681 1784 
Q 678 1147 991 784 
Q 1303 422 1725 422 
Q 2006 422 2214 576 
Q 2422 731 2563 1106 
L 2659 1044 
Q 2594 616 2278 264 
Q 1963 -88 1488 -88 
Q 972 -88 605 314 
Q 238 716 238 1394 
Q 238 2128 614 2539 
Q 991 2950 1559 2950 
Q 2041 2950 2350 2633 
Q 2659 2316 2659 1784 
L 681 1784 
z
M 681 1966 
L 2006 1966 
Q 1991 2241 1941 2353 
Q 1863 2528 1708 2628 
Q 1553 2728 1384 2728 
Q 1125 2728 920 2526 
Q 716 2325 681 1966 
z
" transform="scale(0.015625)"/>
        <path id="TimesNewRomanPSMT-6d" d="M 1050 2338 
Q 1363 2650 1419 2697 
Q 1559 2816 1721 2881 
Q 1884 2947 2044 2947 
Q 2313 2947 2506 2790 
Q 2700 2634 2766 2338 
Q 3088 2713 3309 2830 
Q 3531 2947 3766 2947 
Q 3994 2947 4170 2830 
Q 4347 2713 4450 2447 
Q 4519 2266 4519 1878 
L 4519 647 
Q 4519 378 4559 278 
Q 4591 209 4675 161 
Q 4759 113 4950 113 
L 4950 0 
L 3538 0 
L 3538 113 
L 3597 113 
Q 3781 113 3884 184 
Q 3956 234 3988 344 
Q 4000 397 4000 647 
L 4000 1878 
Q 4000 2228 3916 2372 
Q 3794 2572 3525 2572 
Q 3359 2572 3192 2489 
Q 3025 2406 2788 2181 
L 2781 2147 
L 2788 2013 
L 2788 647 
Q 2788 353 2820 281 
Q 2853 209 2943 161 
Q 3034 113 3253 113 
L 3253 0 
L 1806 0 
L 1806 113 
Q 2044 113 2133 169 
Q 2222 225 2256 338 
Q 2272 391 2272 647 
L 2272 1878 
Q 2272 2228 2169 2381 
Q 2031 2581 1784 2581 
Q 1616 2581 1450 2491 
Q 1191 2353 1050 2181 
L 1050 647 
Q 1050 366 1089 281 
Q 1128 197 1204 155 
Q 1281 113 1516 113 
L 1516 0 
L 100 0 
L 100 113 
Q 297 113 375 155 
Q 453 197 493 289 
Q 534 381 534 647 
L 534 1741 
Q 534 2213 506 2350 
Q 484 2453 437 2492 
Q 391 2531 309 2531 
Q 222 2531 100 2484 
L 53 2597 
L 916 2947 
L 1050 2947 
L 1050 2338 
z
" transform="scale(0.015625)"/>
        <path id="TimesNewRomanPSMT-61" d="M 1822 413 
Q 1381 72 1269 19 
Q 1100 -59 909 -59 
Q 613 -59 420 144 
Q 228 347 228 678 
Q 228 888 322 1041 
Q 450 1253 767 1440 
Q 1084 1628 1822 1897 
L 1822 2009 
Q 1822 2438 1686 2597 
Q 1550 2756 1291 2756 
Q 1094 2756 978 2650 
Q 859 2544 859 2406 
L 866 2225 
Q 866 2081 792 2003 
Q 719 1925 600 1925 
Q 484 1925 411 2006 
Q 338 2088 338 2228 
Q 338 2497 613 2722 
Q 888 2947 1384 2947 
Q 1766 2947 2009 2819 
Q 2194 2722 2281 2516 
Q 2338 2381 2338 1966 
L 2338 994 
Q 2338 584 2353 492 
Q 2369 400 2405 369 
Q 2441 338 2488 338 
Q 2538 338 2575 359 
Q 2641 400 2828 588 
L 2828 413 
Q 2478 -56 2159 -56 
Q 2006 -56 1915 50 
Q 1825 156 1822 413 
z
M 1822 616 
L 1822 1706 
Q 1350 1519 1213 1441 
Q 966 1303 859 1153 
Q 753 1003 753 825 
Q 753 600 887 451 
Q 1022 303 1197 303 
Q 1434 303 1822 616 
z
" transform="scale(0.015625)"/>
        <path id="TimesNewRomanPSMT-64" d="M 2222 322 
Q 2013 103 1813 7 
Q 1613 -88 1381 -88 
Q 913 -88 563 304 
Q 213 697 213 1313 
Q 213 1928 600 2439 
Q 988 2950 1597 2950 
Q 1975 2950 2222 2709 
L 2222 3238 
Q 2222 3728 2198 3840 
Q 2175 3953 2125 3993 
Q 2075 4034 2000 4034 
Q 1919 4034 1784 3984 
L 1744 4094 
L 2597 4444 
L 2738 4444 
L 2738 1134 
Q 2738 631 2761 520 
Q 2784 409 2836 365 
Q 2888 322 2956 322 
Q 3041 322 3181 375 
L 3216 266 
L 2366 -88 
L 2222 -88 
L 2222 322 
z
M 2222 541 
L 2222 2016 
Q 2203 2228 2109 2403 
Q 2016 2578 1861 2667 
Q 1706 2756 1559 2756 
Q 1284 2756 1069 2509 
Q 784 2184 784 1559 
Q 784 928 1059 592 
Q 1334 256 1672 256 
Q 1956 256 2222 541 
z
" transform="scale(0.015625)"/>
       </defs>
       <use xlink:href="#TimesNewRomanPSMT-44"/>
       <use xlink:href="#TimesNewRomanPSMT-65" x="72.216797"/>
       <use xlink:href="#TimesNewRomanPSMT-6d" x="116.601562"/>
       <use xlink:href="#TimesNewRomanPSMT-61" x="194.384766"/>
       <use xlink:href="#TimesNewRomanPSMT-6e" x="238.769531"/>
       <use xlink:href="#TimesNewRomanPSMT-64" x="288.769531"/>
      </g>
     </g>
    </g>
    <g id="xtick_4">
     <g id="line2d_4">
      <path d="M 114.082938 123.552 
L 48.410125 171.266092 
" clip-path="url(#pd2ba32eb3e)" style="fill: none; stroke: #b0b0b0; stroke-width: 0.8; stroke-linecap: square"/>
     </g>
     <g id="text_4">
      <!-- Generation -->
      <g transform="translate(10.428887 182.377898) scale(0.12 -0.12)">
       <defs>
        <path id="TimesNewRomanPSMT-47" d="M 3928 4334 
L 4038 2997 
L 3928 2997 
Q 3763 3497 3500 3750 
Q 3122 4116 2528 4116 
Q 1719 4116 1297 3475 
Q 944 2934 944 2188 
Q 944 1581 1178 1081 
Q 1413 581 1792 348 
Q 2172 116 2572 116 
Q 2806 116 3025 175 
Q 3244 234 3447 350 
L 3447 1575 
Q 3447 1894 3398 1992 
Q 3350 2091 3248 2142 
Q 3147 2194 2891 2194 
L 2891 2313 
L 4531 2313 
L 4531 2194 
L 4453 2194 
Q 4209 2194 4119 2031 
Q 4056 1916 4056 1575 
L 4056 278 
Q 3697 84 3347 -6 
Q 2997 -97 2569 -97 
Q 1341 -97 703 691 
Q 225 1281 225 2053 
Q 225 2613 494 3125 
Q 813 3734 1369 4063 
Q 1834 4334 2469 4334 
Q 2700 4334 2889 4296 
Q 3078 4259 3425 4131 
Q 3600 4066 3659 4066 
Q 3719 4066 3761 4120 
Q 3803 4175 3813 4334 
L 3928 4334 
z
" transform="scale(0.015625)"/>
        <path id="TimesNewRomanPSMT-72" d="M 1038 2947 
L 1038 2303 
Q 1397 2947 1775 2947 
Q 1947 2947 2059 2842 
Q 2172 2738 2172 2600 
Q 2172 2478 2090 2393 
Q 2009 2309 1897 2309 
Q 1788 2309 1652 2417 
Q 1516 2525 1450 2525 
Q 1394 2525 1328 2463 
Q 1188 2334 1038 2041 
L 1038 669 
Q 1038 431 1097 309 
Q 1138 225 1241 169 
Q 1344 113 1538 113 
L 1538 0 
L 72 0 
L 72 113 
Q 291 113 397 181 
Q 475 231 506 341 
Q 522 394 522 644 
L 522 1753 
Q 522 2253 501 2348 
Q 481 2444 426 2487 
Q 372 2531 291 2531 
Q 194 2531 72 2484 
L 41 2597 
L 906 2947 
L 1038 2947 
z
" transform="scale(0.015625)"/>
        <path id="TimesNewRomanPSMT-69" d="M 928 4444 
Q 1059 4444 1151 4351 
Q 1244 4259 1244 4128 
Q 1244 3997 1151 3903 
Q 1059 3809 928 3809 
Q 797 3809 703 3903 
Q 609 3997 609 4128 
Q 609 4259 701 4351 
Q 794 4444 928 4444 
z
M 1188 2947 
L 1188 647 
Q 1188 378 1227 289 
Q 1266 200 1342 156 
Q 1419 113 1622 113 
L 1622 0 
L 231 0 
L 231 113 
Q 441 113 512 153 
Q 584 194 626 287 
Q 669 381 669 647 
L 669 1750 
Q 669 2216 641 2353 
Q 619 2453 572 2492 
Q 525 2531 444 2531 
Q 356 2531 231 2484 
L 188 2597 
L 1050 2947 
L 1188 2947 
z
" transform="scale(0.015625)"/>
       </defs>
       <use xlink:href="#TimesNewRomanPSMT-47"/>
       <use xlink:href="#TimesNewRomanPSMT-65" x="72.216797"/>
       <use xlink:href="#TimesNewRomanPSMT-6e" x="116.601562"/>
       <use xlink:href="#TimesNewRomanPSMT-65" x="166.601562"/>
       <use xlink:href="#TimesNewRomanPSMT-72" x="210.986328"/>
       <use xlink:href="#TimesNewRomanPSMT-61" x="244.287109"/>
       <use xlink:href="#TimesNewRomanPSMT-74" x="288.671875"/>
       <use xlink:href="#TimesNewRomanPSMT-69" x="316.455078"/>
       <use xlink:href="#TimesNewRomanPSMT-6f" x="344.238281"/>
       <use xlink:href="#TimesNewRomanPSMT-6e" x="394.238281"/>
      </g>
     </g>
    </g>
    <g id="xtick_5">
     <g id="line2d_5">
      <path d="M 114.082938 123.552 
L 139.167721 200.755022 
" clip-path="url(#pd2ba32eb3e)" style="fill: none; stroke: #b0b0b0; stroke-width: 0.8; stroke-linecap: square"/>
     </g>
     <g id="text_5">
      <!-- Curtailment -->
      <g transform="translate(114.832709 216.952626) scale(0.12 -0.12)">
       <defs>
        <path id="TimesNewRomanPSMT-43" d="M 3853 4334 
L 3950 2894 
L 3853 2894 
Q 3659 3541 3300 3825 
Q 2941 4109 2438 4109 
Q 2016 4109 1675 3895 
Q 1334 3681 1139 3212 
Q 944 2744 944 2047 
Q 944 1472 1128 1050 
Q 1313 628 1683 403 
Q 2053 178 2528 178 
Q 2941 178 3256 354 
Q 3572 531 3950 1056 
L 4047 994 
Q 3728 428 3303 165 
Q 2878 -97 2294 -97 
Q 1241 -97 663 684 
Q 231 1266 231 2053 
Q 231 2688 515 3219 
Q 800 3750 1298 4042 
Q 1797 4334 2388 4334 
Q 2847 4334 3294 4109 
Q 3425 4041 3481 4041 
Q 3566 4041 3628 4100 
Q 3709 4184 3744 4334 
L 3853 4334 
z
" transform="scale(0.015625)"/>
       </defs>
       <use xlink:href="#TimesNewRomanPSMT-43"/>
       <use xlink:href="#TimesNewRomanPSMT-75" x="66.699219"/>
       <use xlink:href="#TimesNewRomanPSMT-72" x="116.699219"/>
       <use xlink:href="#TimesNewRomanPSMT-74" x="150"/>
       <use xlink:href="#TimesNewRomanPSMT-61" x="177.783203"/>
       <use xlink:href="#TimesNewRomanPSMT-69" x="222.167969"/>
       <use xlink:href="#TimesNewRomanPSMT-6c" x="249.951172"/>
       <use xlink:href="#TimesNewRomanPSMT-6d" x="277.734375"/>
       <use xlink:href="#TimesNewRomanPSMT-65" x="355.517578"/>
       <use xlink:href="#TimesNewRomanPSMT-6e" x="399.902344"/>
       <use xlink:href="#TimesNewRomanPSMT-74" x="449.902344"/>
      </g>
     </g>
    </g>
   </g>
   <g id="matplotlib.axis_2">
    <g id="ytick_1">
     <g id="line2d_6">
      <path d="M 139.396474 123.552 
C 139.396474 120.227857 138.74169 116.936037 137.469596 113.864929 
C 136.197502 110.793821 134.332835 108.003151 131.982311 105.652627 
C 129.631787 103.302103 126.841117 101.437437 123.770009 100.165342 
C 120.698901 98.893248 117.407081 98.238464 114.082938 98.238464 
C 110.758795 98.238464 107.466975 98.893248 104.395867 100.165342 
C 101.32476 101.437437 98.534089 103.302103 96.183565 105.652627 
C 93.833041 108.003151 91.968375 110.793821 90.69628 113.864929 
C 89.424186 116.936037 88.769402 120.227857 88.769402 123.552 
C 88.769402 126.876143 89.424186 130.167963 90.69628 133.239071 
C 91.968375 136.310179 93.833041 139.100849 96.183565 141.451373 
C 98.534089 143.801897 101.32476 145.666563 104.395867 146.938658 
C 107.466975 148.210752 110.758795 148.865536 114.082938 148.865536 
C 117.407081 148.865536 120.698901 148.210752 123.770009 146.938658 
C 126.841117 145.666563 129.631787 143.801897 131.982311 141.451373 
C 134.332835 139.100849 136.197502 136.310179 137.469596 133.239071 
C 138.74169 130.167963 139.396474 126.876143 139.396474 123.552 
" clip-path="url(#pd2ba32eb3e)" style="fill: none; stroke: #b0b0b0; stroke-width: 0.8; stroke-linecap: square"/>
     </g>
    </g>
    <g id="ytick_2">
     <g id="line2d_7">
      <path d="M 164.71001 123.552 
C 164.71001 116.903714 163.400443 110.320074 160.856254 104.177858 
C 158.312065 98.035643 154.582732 92.454302 149.881684 87.753254 
C 145.180636 83.052206 139.599295 79.322873 133.45708 76.778684 
C 127.314864 74.234496 120.731224 72.924928 114.082938 72.924928 
C 107.434652 72.924928 100.851012 74.234496 94.708797 76.778684 
C 88.566581 79.322873 82.985241 83.052206 78.284192 87.753254 
C 73.583144 92.454302 69.853812 98.035643 67.309623 104.177858 
C 64.765434 110.320074 63.455866 116.903714 63.455866 123.552 
C 63.455866 130.200286 64.765434 136.783926 67.309623 142.926142 
C 69.853812 149.068357 73.583144 154.649698 78.284192 159.350746 
C 82.985241 164.051794 88.566581 167.781127 94.708797 170.325316 
C 100.851012 172.869504 107.434652 174.179072 114.082938 174.179072 
C 120.731224 174.179072 127.314864 172.869504 133.45708 170.325316 
C 139.599295 167.781127 145.180636 164.051794 149.881684 159.350746 
C 154.582732 154.649698 158.312065 149.068357 160.856254 142.926142 
C 163.400443 136.783926 164.71001 130.200286 164.71001 123.552 
" clip-path="url(#pd2ba32eb3e)" style="fill: none; stroke: #b0b0b0; stroke-width: 0.8; stroke-linecap: square"/>
     </g>
    </g>
    <g id="ytick_3">
     <g id="line2d_8">
      <path d="M 190.023546 123.552 
C 190.023546 113.579571 188.059195 103.704111 184.242912 94.490788 
C 180.426628 85.277464 174.832629 76.905454 167.781057 69.853881 
C 160.729485 62.802309 152.357474 57.20831 143.144151 53.392027 
C 133.930827 49.575743 124.055368 47.611392 114.082938 47.611392 
C 104.110509 47.611392 94.235049 49.575743 85.021726 53.392027 
C 75.808403 57.20831 67.436392 62.802309 60.384819 69.853881 
C 53.333247 76.905454 47.739248 85.277464 43.922965 94.490788 
C 40.106682 103.704111 38.14233 113.579571 38.14233 123.552 
C 38.14233 133.524429 40.106682 143.399889 43.922965 152.613212 
C 47.739248 161.826536 53.333247 170.198546 60.384819 177.250119 
C 67.436392 184.301691 75.808403 189.89569 85.021726 193.711973 
C 94.235049 197.528257 104.110509 199.492608 114.082938 199.492608 
C 124.055368 199.492608 133.930827 197.528257 143.144151 193.711973 
C 152.357474 189.89569 160.729485 184.301691 167.781057 177.250119 
C 174.832629 170.198546 180.426628 161.826536 184.242912 152.613212 
C 188.059195 143.399889 190.023546 133.524429 190.023546 123.552 
" clip-path="url(#pd2ba32eb3e)" style="fill: none; stroke: #b0b0b0; stroke-width: 0.8; stroke-linecap: square"/>
     </g>
    </g>
   </g>
   <g id="line2d_9">
    <path d="M 191.504125 123.552 
L 137.777181 50.62862 
L 77.976292 97.318986 
L 76.699118 150.712935 
L 114.800995 125.761952 
L 191.504125 123.552 
" clip-path="url(#pd2ba32eb3e)" style="fill: none; stroke: #de8f05; stroke-width: 2; stroke-linecap: square"/>
   </g>
   <g id="patch_4">
    <path d="M 195.259 123.552 
C 195.259 112.892057 193.159224 102.335769 189.07984 92.487266 
C 185.000457 82.638763 179.0208 73.689574 171.483082 66.151856 
C 163.945364 58.614138 154.996175 52.634482 145.147672 48.555098 
C 135.299169 44.475715 124.742881 42.375938 114.082938 42.375938 
C 103.422995 42.375938 92.866707 44.475715 83.018204 48.555098 
C 73.169701 52.634482 64.220512 58.614138 56.682795 66.151856 
C 49.145077 73.689574 43.16542 82.638763 39.086036 92.487266 
C 35.006653 102.335769 32.906876 112.892057 32.906876 123.552 
C 32.906876 134.211943 35.006653 144.768231 39.086036 154.616734 
C 43.16542 164.465237 49.145077 173.414426 56.682795 180.952144 
C 64.220512 188.489862 73.169701 194.469518 83.018204 198.548902 
C 92.866707 202.628285 103.422995 204.728062 114.082938 204.728062 
C 124.742881 204.728062 135.299169 202.628285 145.147672 198.548902 
C 154.996175 194.469518 163.945364 188.489862 171.483082 180.952144 
C 179.0208 173.414426 185.000457 164.465237 189.07984 154.616734 
C 193.159224 144.768231 195.259 134.211943 195.259 123.552 
" style="fill: none; stroke: #808080; stroke-width: 0.8; stroke-linejoin: miter; stroke-linecap: square"/>
   </g>
  </g>
 </g>
 <defs>
  <clipPath id="pd2ba32eb3e">
   <path d="M 195.259 123.552 
C 195.259 112.892057 193.159224 102.335769 189.07984 92.487266 
C 185.000457 82.638763 179.0208 73.689574 171.483082 66.151856 
C 163.945364 58.614138 154.996175 52.634482 145.147672 48.555098 
C 135.299169 44.475715 124.742881 42.375938 114.082938 42.375938 
C 103.422995 42.375938 92.866707 44.475715 83.018204 48.555098 
C 73.169701 52.634482 64.220512 58.614138 56.682795 66.151856 
C 49.145077 73.689574 43.16542 82.638763 39.086036 92.487266 
C 35.006653 102.335769 32.906876 112.892057 32.906876 123.552 
C 32.906876 134.211943 35.006653 144.768231 39.086036 154.616734 
C 43.16542 164.465237 49.145077 173.414426 56.682795 180.952144 
C 64.220512 188.489862 73.169701 194.469518 83.018204 198.548902 
C 92.866707 202.628285 103.422995 204.728062 114.082938 204.728062 
C 124.742881 204.728062 135.299169 202.628285 145.147672 198.548902 
C 154.996175 194.469518 163.945364 188.489862 171.483082 180.952144 
C 179.0208 173.414426 185.000457 164.465237 189.07984 154.616734 
C 193.159224 144.768231 195.259 134.211943 195.259 123.552 
M 114.082938 123.552 
C 114.082938 123.552 114.082938 123.552 114.082938 123.552 
C 114.082938 123.552 114.082938 123.552 114.082938 123.552 
C 114.082938 123.552 114.082938 123.552 114.082938 123.552 
C 114.082938 123.552 114.082938 123.552 114.082938 123.552 
C 114.082938 123.552 114.082938 123.552 114.082938 123.552 
C 114.082938 123.552 114.082938 123.552 114.082938 123.552 
C 114.082938 123.552 114.082938 123.552 114.082938 123.552 
C 114.082938 123.552 114.082938 123.552 114.082938 123.552 
C 114.082938 123.552 114.082938 123.552 114.082938 123.552 
C 114.082938 123.552 114.082938 123.552 114.082938 123.552 
C 114.082938 123.552 114.082938 123.552 114.082938 123.552 
C 114.082938 123.552 114.082938 123.552 114.082938 123.552 
C 114.082938 123.552 114.082938 123.552 114.082938 123.552 
C 114.082938 123.552 114.082938 123.552 114.082938 123.552 
C 114.082938 123.552 114.082938 123.552 114.082938 123.552 
C 114.082938 123.552 114.082938 123.552 114.082938 123.552 
z
"/>
  </clipPath>
 </defs>
</svg>
